%TF.GenerationSoftware,KiCad,Pcbnew,7.0.8*%
%TF.CreationDate,2026-09-18T01:55:54-05:00*%
%TF.ProjectId,vuulgaris,7675756c-6761-4726-9973-2e6b69636164,1.0*%
%TF.SameCoordinates,Original*%
%TF.FileFunction,Drillmap*%
%TF.FilePolarity,Positive*%
%FSLAX45Y45*%
G04 Gerber Fmt 4.5, Leading zero omitted, Abs format (unit mm)*
G04 Created by KiCad (PCBNEW 7.0.8) date 2026-09-18 01:55:54*
%MOMM*%
%LPD*%
G01*
G04 APERTURE LIST*
%ADD10C,0.100000*%
%ADD11C,0.200000*%
%ADD12C,0.060000*%
%ADD13C,0.120000*%
%ADD14C,0.330000*%
G04 APERTURE END LIST*
D10*
X33250000Y-15950000D02*
X31150000Y-15950000D01*
X33400000Y-14900000D02*
G75*
G03*
X33250000Y-14750000I-149880J120D01*
G01*
X31000000Y-15800000D02*
X31000000Y-14900000D01*
X10000000Y-16681000D02*
X10000000Y-5000000D01*
X33250000Y-15950000D02*
G75*
G03*
X33400000Y-15800000I120J149880D01*
G01*
X31150000Y-14750000D02*
X33250000Y-14750000D01*
X33400000Y-14900000D02*
X33400000Y-15800000D01*
X38430000Y-5000000D02*
X38430000Y-16681000D01*
X31000000Y-15800000D02*
G75*
G03*
X31150000Y-15950000I149880J-120D01*
G01*
X10000000Y-5000000D02*
X38430000Y-5000000D01*
X38430000Y-16681000D02*
X10000000Y-16681000D01*
X31150000Y-14750000D02*
G75*
G03*
X31000000Y-14900000I-120J-149880D01*
G01*
D11*
D12*
X37007000Y-5567000D02*
X37067000Y-5627000D01*
X37067000Y-5567000D02*
X37007000Y-5627000D01*
X37587000Y-5567000D02*
X37647000Y-5627000D01*
X37647000Y-5567000D02*
X37587000Y-5627000D01*
D13*
X38072000Y-8162000D02*
G75*
G03*
X38072000Y-8162000I-60000J0D01*
G01*
X38072000Y-8962000D02*
G75*
G03*
X38072000Y-8962000I-60000J0D01*
G01*
D14*
X29754800Y-5339900D02*
X29754800Y-5669900D01*
X29589800Y-5504900D02*
X29919800Y-5504900D01*
X29754800Y-9239900D02*
X29754800Y-9569900D01*
X29589800Y-9404900D02*
X29919800Y-9404900D01*
X36554800Y-5339900D02*
X36554800Y-5669900D01*
X36389800Y-5504900D02*
X36719800Y-5504900D01*
X36554800Y-9239900D02*
X36554800Y-9569900D01*
X36389800Y-9404900D02*
X36719800Y-9404900D01*
D11*
X10255777Y-16997484D02*
X10255777Y-16797484D01*
X10255777Y-16797484D02*
X10303396Y-16797484D01*
X10303396Y-16797484D02*
X10331967Y-16807008D01*
X10331967Y-16807008D02*
X10351015Y-16826055D01*
X10351015Y-16826055D02*
X10360539Y-16845103D01*
X10360539Y-16845103D02*
X10370063Y-16883198D01*
X10370063Y-16883198D02*
X10370063Y-16911770D01*
X10370063Y-16911770D02*
X10360539Y-16949865D01*
X10360539Y-16949865D02*
X10351015Y-16968912D01*
X10351015Y-16968912D02*
X10331967Y-16987960D01*
X10331967Y-16987960D02*
X10303396Y-16997484D01*
X10303396Y-16997484D02*
X10255777Y-16997484D01*
X10455777Y-16997484D02*
X10455777Y-16864150D01*
X10455777Y-16902246D02*
X10465301Y-16883198D01*
X10465301Y-16883198D02*
X10474824Y-16873674D01*
X10474824Y-16873674D02*
X10493872Y-16864150D01*
X10493872Y-16864150D02*
X10512920Y-16864150D01*
X10579586Y-16997484D02*
X10579586Y-16864150D01*
X10579586Y-16797484D02*
X10570063Y-16807008D01*
X10570063Y-16807008D02*
X10579586Y-16816531D01*
X10579586Y-16816531D02*
X10589110Y-16807008D01*
X10589110Y-16807008D02*
X10579586Y-16797484D01*
X10579586Y-16797484D02*
X10579586Y-16816531D01*
X10703396Y-16997484D02*
X10684348Y-16987960D01*
X10684348Y-16987960D02*
X10674824Y-16968912D01*
X10674824Y-16968912D02*
X10674824Y-16797484D01*
X10808158Y-16997484D02*
X10789110Y-16987960D01*
X10789110Y-16987960D02*
X10779586Y-16968912D01*
X10779586Y-16968912D02*
X10779586Y-16797484D01*
X11036729Y-16997484D02*
X11036729Y-16797484D01*
X11036729Y-16797484D02*
X11103396Y-16940341D01*
X11103396Y-16940341D02*
X11170063Y-16797484D01*
X11170063Y-16797484D02*
X11170063Y-16997484D01*
X11351015Y-16997484D02*
X11351015Y-16892722D01*
X11351015Y-16892722D02*
X11341491Y-16873674D01*
X11341491Y-16873674D02*
X11322443Y-16864150D01*
X11322443Y-16864150D02*
X11284348Y-16864150D01*
X11284348Y-16864150D02*
X11265301Y-16873674D01*
X11351015Y-16987960D02*
X11331967Y-16997484D01*
X11331967Y-16997484D02*
X11284348Y-16997484D01*
X11284348Y-16997484D02*
X11265301Y-16987960D01*
X11265301Y-16987960D02*
X11255777Y-16968912D01*
X11255777Y-16968912D02*
X11255777Y-16949865D01*
X11255777Y-16949865D02*
X11265301Y-16930817D01*
X11265301Y-16930817D02*
X11284348Y-16921293D01*
X11284348Y-16921293D02*
X11331967Y-16921293D01*
X11331967Y-16921293D02*
X11351015Y-16911770D01*
X11446253Y-16864150D02*
X11446253Y-17064150D01*
X11446253Y-16873674D02*
X11465301Y-16864150D01*
X11465301Y-16864150D02*
X11503396Y-16864150D01*
X11503396Y-16864150D02*
X11522443Y-16873674D01*
X11522443Y-16873674D02*
X11531967Y-16883198D01*
X11531967Y-16883198D02*
X11541491Y-16902246D01*
X11541491Y-16902246D02*
X11541491Y-16959389D01*
X11541491Y-16959389D02*
X11531967Y-16978436D01*
X11531967Y-16978436D02*
X11522443Y-16987960D01*
X11522443Y-16987960D02*
X11503396Y-16997484D01*
X11503396Y-16997484D02*
X11465301Y-16997484D01*
X11465301Y-16997484D02*
X11446253Y-16987960D01*
X11627205Y-16978436D02*
X11636729Y-16987960D01*
X11636729Y-16987960D02*
X11627205Y-16997484D01*
X11627205Y-16997484D02*
X11617682Y-16987960D01*
X11617682Y-16987960D02*
X11627205Y-16978436D01*
X11627205Y-16978436D02*
X11627205Y-16997484D01*
X11627205Y-16873674D02*
X11636729Y-16883198D01*
X11636729Y-16883198D02*
X11627205Y-16892722D01*
X11627205Y-16892722D02*
X11617682Y-16883198D01*
X11617682Y-16883198D02*
X11627205Y-16873674D01*
X11627205Y-16873674D02*
X11627205Y-16892722D01*
D12*
X9935000Y-17296000D02*
X9995000Y-17356000D01*
X9995000Y-17296000D02*
X9935000Y-17356000D01*
D11*
X10293872Y-17217484D02*
X10312920Y-17217484D01*
X10312920Y-17217484D02*
X10331967Y-17227008D01*
X10331967Y-17227008D02*
X10341491Y-17236531D01*
X10341491Y-17236531D02*
X10351015Y-17255579D01*
X10351015Y-17255579D02*
X10360539Y-17293674D01*
X10360539Y-17293674D02*
X10360539Y-17341293D01*
X10360539Y-17341293D02*
X10351015Y-17379389D01*
X10351015Y-17379389D02*
X10341491Y-17398436D01*
X10341491Y-17398436D02*
X10331967Y-17407960D01*
X10331967Y-17407960D02*
X10312920Y-17417484D01*
X10312920Y-17417484D02*
X10293872Y-17417484D01*
X10293872Y-17417484D02*
X10274824Y-17407960D01*
X10274824Y-17407960D02*
X10265301Y-17398436D01*
X10265301Y-17398436D02*
X10255777Y-17379389D01*
X10255777Y-17379389D02*
X10246253Y-17341293D01*
X10246253Y-17341293D02*
X10246253Y-17293674D01*
X10246253Y-17293674D02*
X10255777Y-17255579D01*
X10255777Y-17255579D02*
X10265301Y-17236531D01*
X10265301Y-17236531D02*
X10274824Y-17227008D01*
X10274824Y-17227008D02*
X10293872Y-17217484D01*
X10446253Y-17398436D02*
X10455777Y-17407960D01*
X10455777Y-17407960D02*
X10446253Y-17417484D01*
X10446253Y-17417484D02*
X10436729Y-17407960D01*
X10436729Y-17407960D02*
X10446253Y-17398436D01*
X10446253Y-17398436D02*
X10446253Y-17417484D01*
X10627205Y-17217484D02*
X10589110Y-17217484D01*
X10589110Y-17217484D02*
X10570063Y-17227008D01*
X10570063Y-17227008D02*
X10560539Y-17236531D01*
X10560539Y-17236531D02*
X10541491Y-17265103D01*
X10541491Y-17265103D02*
X10531967Y-17303198D01*
X10531967Y-17303198D02*
X10531967Y-17379389D01*
X10531967Y-17379389D02*
X10541491Y-17398436D01*
X10541491Y-17398436D02*
X10551015Y-17407960D01*
X10551015Y-17407960D02*
X10570063Y-17417484D01*
X10570063Y-17417484D02*
X10608158Y-17417484D01*
X10608158Y-17417484D02*
X10627205Y-17407960D01*
X10627205Y-17407960D02*
X10636729Y-17398436D01*
X10636729Y-17398436D02*
X10646253Y-17379389D01*
X10646253Y-17379389D02*
X10646253Y-17331770D01*
X10646253Y-17331770D02*
X10636729Y-17312722D01*
X10636729Y-17312722D02*
X10627205Y-17303198D01*
X10627205Y-17303198D02*
X10608158Y-17293674D01*
X10608158Y-17293674D02*
X10570063Y-17293674D01*
X10570063Y-17293674D02*
X10551015Y-17303198D01*
X10551015Y-17303198D02*
X10541491Y-17312722D01*
X10541491Y-17312722D02*
X10531967Y-17331770D01*
X10770063Y-17217484D02*
X10789110Y-17217484D01*
X10789110Y-17217484D02*
X10808158Y-17227008D01*
X10808158Y-17227008D02*
X10817682Y-17236531D01*
X10817682Y-17236531D02*
X10827205Y-17255579D01*
X10827205Y-17255579D02*
X10836729Y-17293674D01*
X10836729Y-17293674D02*
X10836729Y-17341293D01*
X10836729Y-17341293D02*
X10827205Y-17379389D01*
X10827205Y-17379389D02*
X10817682Y-17398436D01*
X10817682Y-17398436D02*
X10808158Y-17407960D01*
X10808158Y-17407960D02*
X10789110Y-17417484D01*
X10789110Y-17417484D02*
X10770063Y-17417484D01*
X10770063Y-17417484D02*
X10751015Y-17407960D01*
X10751015Y-17407960D02*
X10741491Y-17398436D01*
X10741491Y-17398436D02*
X10731967Y-17379389D01*
X10731967Y-17379389D02*
X10722444Y-17341293D01*
X10722444Y-17341293D02*
X10722444Y-17293674D01*
X10722444Y-17293674D02*
X10731967Y-17255579D01*
X10731967Y-17255579D02*
X10741491Y-17236531D01*
X10741491Y-17236531D02*
X10751015Y-17227008D01*
X10751015Y-17227008D02*
X10770063Y-17217484D01*
X10960539Y-17217484D02*
X10979586Y-17217484D01*
X10979586Y-17217484D02*
X10998634Y-17227008D01*
X10998634Y-17227008D02*
X11008158Y-17236531D01*
X11008158Y-17236531D02*
X11017682Y-17255579D01*
X11017682Y-17255579D02*
X11027205Y-17293674D01*
X11027205Y-17293674D02*
X11027205Y-17341293D01*
X11027205Y-17341293D02*
X11017682Y-17379389D01*
X11017682Y-17379389D02*
X11008158Y-17398436D01*
X11008158Y-17398436D02*
X10998634Y-17407960D01*
X10998634Y-17407960D02*
X10979586Y-17417484D01*
X10979586Y-17417484D02*
X10960539Y-17417484D01*
X10960539Y-17417484D02*
X10941491Y-17407960D01*
X10941491Y-17407960D02*
X10931967Y-17398436D01*
X10931967Y-17398436D02*
X10922444Y-17379389D01*
X10922444Y-17379389D02*
X10912920Y-17341293D01*
X10912920Y-17341293D02*
X10912920Y-17293674D01*
X10912920Y-17293674D02*
X10922444Y-17255579D01*
X10922444Y-17255579D02*
X10931967Y-17236531D01*
X10931967Y-17236531D02*
X10941491Y-17227008D01*
X10941491Y-17227008D02*
X10960539Y-17217484D01*
X11112920Y-17417484D02*
X11112920Y-17284150D01*
X11112920Y-17303198D02*
X11122444Y-17293674D01*
X11122444Y-17293674D02*
X11141491Y-17284150D01*
X11141491Y-17284150D02*
X11170063Y-17284150D01*
X11170063Y-17284150D02*
X11189110Y-17293674D01*
X11189110Y-17293674D02*
X11198634Y-17312722D01*
X11198634Y-17312722D02*
X11198634Y-17417484D01*
X11198634Y-17312722D02*
X11208158Y-17293674D01*
X11208158Y-17293674D02*
X11227205Y-17284150D01*
X11227205Y-17284150D02*
X11255777Y-17284150D01*
X11255777Y-17284150D02*
X11274824Y-17293674D01*
X11274824Y-17293674D02*
X11284348Y-17312722D01*
X11284348Y-17312722D02*
X11284348Y-17417484D01*
X11379586Y-17417484D02*
X11379586Y-17284150D01*
X11379586Y-17303198D02*
X11389110Y-17293674D01*
X11389110Y-17293674D02*
X11408158Y-17284150D01*
X11408158Y-17284150D02*
X11436729Y-17284150D01*
X11436729Y-17284150D02*
X11455777Y-17293674D01*
X11455777Y-17293674D02*
X11465301Y-17312722D01*
X11465301Y-17312722D02*
X11465301Y-17417484D01*
X11465301Y-17312722D02*
X11474824Y-17293674D01*
X11474824Y-17293674D02*
X11493872Y-17284150D01*
X11493872Y-17284150D02*
X11522443Y-17284150D01*
X11522443Y-17284150D02*
X11541491Y-17293674D01*
X11541491Y-17293674D02*
X11551015Y-17312722D01*
X11551015Y-17312722D02*
X11551015Y-17417484D01*
X11941491Y-17207960D02*
X11770063Y-17465103D01*
X12198634Y-17217484D02*
X12217682Y-17217484D01*
X12217682Y-17217484D02*
X12236729Y-17227008D01*
X12236729Y-17227008D02*
X12246253Y-17236531D01*
X12246253Y-17236531D02*
X12255777Y-17255579D01*
X12255777Y-17255579D02*
X12265301Y-17293674D01*
X12265301Y-17293674D02*
X12265301Y-17341293D01*
X12265301Y-17341293D02*
X12255777Y-17379389D01*
X12255777Y-17379389D02*
X12246253Y-17398436D01*
X12246253Y-17398436D02*
X12236729Y-17407960D01*
X12236729Y-17407960D02*
X12217682Y-17417484D01*
X12217682Y-17417484D02*
X12198634Y-17417484D01*
X12198634Y-17417484D02*
X12179586Y-17407960D01*
X12179586Y-17407960D02*
X12170063Y-17398436D01*
X12170063Y-17398436D02*
X12160539Y-17379389D01*
X12160539Y-17379389D02*
X12151015Y-17341293D01*
X12151015Y-17341293D02*
X12151015Y-17293674D01*
X12151015Y-17293674D02*
X12160539Y-17255579D01*
X12160539Y-17255579D02*
X12170063Y-17236531D01*
X12170063Y-17236531D02*
X12179586Y-17227008D01*
X12179586Y-17227008D02*
X12198634Y-17217484D01*
X12351015Y-17398436D02*
X12360539Y-17407960D01*
X12360539Y-17407960D02*
X12351015Y-17417484D01*
X12351015Y-17417484D02*
X12341491Y-17407960D01*
X12341491Y-17407960D02*
X12351015Y-17398436D01*
X12351015Y-17398436D02*
X12351015Y-17417484D01*
X12484348Y-17217484D02*
X12503396Y-17217484D01*
X12503396Y-17217484D02*
X12522444Y-17227008D01*
X12522444Y-17227008D02*
X12531967Y-17236531D01*
X12531967Y-17236531D02*
X12541491Y-17255579D01*
X12541491Y-17255579D02*
X12551015Y-17293674D01*
X12551015Y-17293674D02*
X12551015Y-17341293D01*
X12551015Y-17341293D02*
X12541491Y-17379389D01*
X12541491Y-17379389D02*
X12531967Y-17398436D01*
X12531967Y-17398436D02*
X12522444Y-17407960D01*
X12522444Y-17407960D02*
X12503396Y-17417484D01*
X12503396Y-17417484D02*
X12484348Y-17417484D01*
X12484348Y-17417484D02*
X12465301Y-17407960D01*
X12465301Y-17407960D02*
X12455777Y-17398436D01*
X12455777Y-17398436D02*
X12446253Y-17379389D01*
X12446253Y-17379389D02*
X12436729Y-17341293D01*
X12436729Y-17341293D02*
X12436729Y-17293674D01*
X12436729Y-17293674D02*
X12446253Y-17255579D01*
X12446253Y-17255579D02*
X12455777Y-17236531D01*
X12455777Y-17236531D02*
X12465301Y-17227008D01*
X12465301Y-17227008D02*
X12484348Y-17217484D01*
X12627206Y-17236531D02*
X12636729Y-17227008D01*
X12636729Y-17227008D02*
X12655777Y-17217484D01*
X12655777Y-17217484D02*
X12703396Y-17217484D01*
X12703396Y-17217484D02*
X12722444Y-17227008D01*
X12722444Y-17227008D02*
X12731967Y-17236531D01*
X12731967Y-17236531D02*
X12741491Y-17255579D01*
X12741491Y-17255579D02*
X12741491Y-17274627D01*
X12741491Y-17274627D02*
X12731967Y-17303198D01*
X12731967Y-17303198D02*
X12617682Y-17417484D01*
X12617682Y-17417484D02*
X12741491Y-17417484D01*
X12808158Y-17217484D02*
X12931967Y-17217484D01*
X12931967Y-17217484D02*
X12865301Y-17293674D01*
X12865301Y-17293674D02*
X12893872Y-17293674D01*
X12893872Y-17293674D02*
X12912920Y-17303198D01*
X12912920Y-17303198D02*
X12922444Y-17312722D01*
X12922444Y-17312722D02*
X12931967Y-17331770D01*
X12931967Y-17331770D02*
X12931967Y-17379389D01*
X12931967Y-17379389D02*
X12922444Y-17398436D01*
X12922444Y-17398436D02*
X12912920Y-17407960D01*
X12912920Y-17407960D02*
X12893872Y-17417484D01*
X12893872Y-17417484D02*
X12836729Y-17417484D01*
X12836729Y-17417484D02*
X12817682Y-17407960D01*
X12817682Y-17407960D02*
X12808158Y-17398436D01*
X13103396Y-17217484D02*
X13065301Y-17217484D01*
X13065301Y-17217484D02*
X13046253Y-17227008D01*
X13046253Y-17227008D02*
X13036729Y-17236531D01*
X13036729Y-17236531D02*
X13017682Y-17265103D01*
X13017682Y-17265103D02*
X13008158Y-17303198D01*
X13008158Y-17303198D02*
X13008158Y-17379389D01*
X13008158Y-17379389D02*
X13017682Y-17398436D01*
X13017682Y-17398436D02*
X13027206Y-17407960D01*
X13027206Y-17407960D02*
X13046253Y-17417484D01*
X13046253Y-17417484D02*
X13084348Y-17417484D01*
X13084348Y-17417484D02*
X13103396Y-17407960D01*
X13103396Y-17407960D02*
X13112920Y-17398436D01*
X13112920Y-17398436D02*
X13122444Y-17379389D01*
X13122444Y-17379389D02*
X13122444Y-17331770D01*
X13122444Y-17331770D02*
X13112920Y-17312722D01*
X13112920Y-17312722D02*
X13103396Y-17303198D01*
X13103396Y-17303198D02*
X13084348Y-17293674D01*
X13084348Y-17293674D02*
X13046253Y-17293674D01*
X13046253Y-17293674D02*
X13027206Y-17303198D01*
X13027206Y-17303198D02*
X13017682Y-17312722D01*
X13017682Y-17312722D02*
X13008158Y-17331770D01*
X13198634Y-17217484D02*
X13198634Y-17255579D01*
X13274825Y-17217484D02*
X13274825Y-17255579D01*
X13570063Y-17493674D02*
X13560539Y-17484150D01*
X13560539Y-17484150D02*
X13541491Y-17455579D01*
X13541491Y-17455579D02*
X13531968Y-17436531D01*
X13531968Y-17436531D02*
X13522444Y-17407960D01*
X13522444Y-17407960D02*
X13512920Y-17360341D01*
X13512920Y-17360341D02*
X13512920Y-17322246D01*
X13512920Y-17322246D02*
X13522444Y-17274627D01*
X13522444Y-17274627D02*
X13531968Y-17246055D01*
X13531968Y-17246055D02*
X13541491Y-17227008D01*
X13541491Y-17227008D02*
X13560539Y-17198436D01*
X13560539Y-17198436D02*
X13570063Y-17188912D01*
X13636729Y-17236531D02*
X13646253Y-17227008D01*
X13646253Y-17227008D02*
X13665301Y-17217484D01*
X13665301Y-17217484D02*
X13712920Y-17217484D01*
X13712920Y-17217484D02*
X13731968Y-17227008D01*
X13731968Y-17227008D02*
X13741491Y-17236531D01*
X13741491Y-17236531D02*
X13751015Y-17255579D01*
X13751015Y-17255579D02*
X13751015Y-17274627D01*
X13751015Y-17274627D02*
X13741491Y-17303198D01*
X13741491Y-17303198D02*
X13627206Y-17417484D01*
X13627206Y-17417484D02*
X13751015Y-17417484D01*
X13989110Y-17417484D02*
X13989110Y-17217484D01*
X14074825Y-17417484D02*
X14074825Y-17312722D01*
X14074825Y-17312722D02*
X14065301Y-17293674D01*
X14065301Y-17293674D02*
X14046253Y-17284150D01*
X14046253Y-17284150D02*
X14017682Y-17284150D01*
X14017682Y-17284150D02*
X13998634Y-17293674D01*
X13998634Y-17293674D02*
X13989110Y-17303198D01*
X14198634Y-17417484D02*
X14179587Y-17407960D01*
X14179587Y-17407960D02*
X14170063Y-17398436D01*
X14170063Y-17398436D02*
X14160539Y-17379389D01*
X14160539Y-17379389D02*
X14160539Y-17322246D01*
X14160539Y-17322246D02*
X14170063Y-17303198D01*
X14170063Y-17303198D02*
X14179587Y-17293674D01*
X14179587Y-17293674D02*
X14198634Y-17284150D01*
X14198634Y-17284150D02*
X14227206Y-17284150D01*
X14227206Y-17284150D02*
X14246253Y-17293674D01*
X14246253Y-17293674D02*
X14255777Y-17303198D01*
X14255777Y-17303198D02*
X14265301Y-17322246D01*
X14265301Y-17322246D02*
X14265301Y-17379389D01*
X14265301Y-17379389D02*
X14255777Y-17398436D01*
X14255777Y-17398436D02*
X14246253Y-17407960D01*
X14246253Y-17407960D02*
X14227206Y-17417484D01*
X14227206Y-17417484D02*
X14198634Y-17417484D01*
X14379587Y-17417484D02*
X14360539Y-17407960D01*
X14360539Y-17407960D02*
X14351015Y-17388912D01*
X14351015Y-17388912D02*
X14351015Y-17217484D01*
X14531968Y-17407960D02*
X14512920Y-17417484D01*
X14512920Y-17417484D02*
X14474825Y-17417484D01*
X14474825Y-17417484D02*
X14455777Y-17407960D01*
X14455777Y-17407960D02*
X14446253Y-17388912D01*
X14446253Y-17388912D02*
X14446253Y-17312722D01*
X14446253Y-17312722D02*
X14455777Y-17293674D01*
X14455777Y-17293674D02*
X14474825Y-17284150D01*
X14474825Y-17284150D02*
X14512920Y-17284150D01*
X14512920Y-17284150D02*
X14531968Y-17293674D01*
X14531968Y-17293674D02*
X14541491Y-17312722D01*
X14541491Y-17312722D02*
X14541491Y-17331770D01*
X14541491Y-17331770D02*
X14446253Y-17350817D01*
X14617682Y-17407960D02*
X14636730Y-17417484D01*
X14636730Y-17417484D02*
X14674825Y-17417484D01*
X14674825Y-17417484D02*
X14693872Y-17407960D01*
X14693872Y-17407960D02*
X14703396Y-17388912D01*
X14703396Y-17388912D02*
X14703396Y-17379389D01*
X14703396Y-17379389D02*
X14693872Y-17360341D01*
X14693872Y-17360341D02*
X14674825Y-17350817D01*
X14674825Y-17350817D02*
X14646253Y-17350817D01*
X14646253Y-17350817D02*
X14627206Y-17341293D01*
X14627206Y-17341293D02*
X14617682Y-17322246D01*
X14617682Y-17322246D02*
X14617682Y-17312722D01*
X14617682Y-17312722D02*
X14627206Y-17293674D01*
X14627206Y-17293674D02*
X14646253Y-17284150D01*
X14646253Y-17284150D02*
X14674825Y-17284150D01*
X14674825Y-17284150D02*
X14693872Y-17293674D01*
X14770063Y-17493674D02*
X14779587Y-17484150D01*
X14779587Y-17484150D02*
X14798634Y-17455579D01*
X14798634Y-17455579D02*
X14808158Y-17436531D01*
X14808158Y-17436531D02*
X14817682Y-17407960D01*
X14817682Y-17407960D02*
X14827206Y-17360341D01*
X14827206Y-17360341D02*
X14827206Y-17322246D01*
X14827206Y-17322246D02*
X14817682Y-17274627D01*
X14817682Y-17274627D02*
X14808158Y-17246055D01*
X14808158Y-17246055D02*
X14798634Y-17227008D01*
X14798634Y-17227008D02*
X14779587Y-17198436D01*
X14779587Y-17198436D02*
X14770063Y-17188912D01*
X15131968Y-17493674D02*
X15122444Y-17484150D01*
X15122444Y-17484150D02*
X15103396Y-17455579D01*
X15103396Y-17455579D02*
X15093872Y-17436531D01*
X15093872Y-17436531D02*
X15084349Y-17407960D01*
X15084349Y-17407960D02*
X15074825Y-17360341D01*
X15074825Y-17360341D02*
X15074825Y-17322246D01*
X15074825Y-17322246D02*
X15084349Y-17274627D01*
X15084349Y-17274627D02*
X15093872Y-17246055D01*
X15093872Y-17246055D02*
X15103396Y-17227008D01*
X15103396Y-17227008D02*
X15122444Y-17198436D01*
X15122444Y-17198436D02*
X15131968Y-17188912D01*
X15208158Y-17284150D02*
X15208158Y-17417484D01*
X15208158Y-17303198D02*
X15217682Y-17293674D01*
X15217682Y-17293674D02*
X15236730Y-17284150D01*
X15236730Y-17284150D02*
X15265301Y-17284150D01*
X15265301Y-17284150D02*
X15284349Y-17293674D01*
X15284349Y-17293674D02*
X15293872Y-17312722D01*
X15293872Y-17312722D02*
X15293872Y-17417484D01*
X15417682Y-17417484D02*
X15398634Y-17407960D01*
X15398634Y-17407960D02*
X15389111Y-17398436D01*
X15389111Y-17398436D02*
X15379587Y-17379389D01*
X15379587Y-17379389D02*
X15379587Y-17322246D01*
X15379587Y-17322246D02*
X15389111Y-17303198D01*
X15389111Y-17303198D02*
X15398634Y-17293674D01*
X15398634Y-17293674D02*
X15417682Y-17284150D01*
X15417682Y-17284150D02*
X15446253Y-17284150D01*
X15446253Y-17284150D02*
X15465301Y-17293674D01*
X15465301Y-17293674D02*
X15474825Y-17303198D01*
X15474825Y-17303198D02*
X15484349Y-17322246D01*
X15484349Y-17322246D02*
X15484349Y-17379389D01*
X15484349Y-17379389D02*
X15474825Y-17398436D01*
X15474825Y-17398436D02*
X15465301Y-17407960D01*
X15465301Y-17407960D02*
X15446253Y-17417484D01*
X15446253Y-17417484D02*
X15417682Y-17417484D01*
X15541492Y-17284150D02*
X15617682Y-17284150D01*
X15570063Y-17217484D02*
X15570063Y-17388912D01*
X15570063Y-17388912D02*
X15579587Y-17407960D01*
X15579587Y-17407960D02*
X15598634Y-17417484D01*
X15598634Y-17417484D02*
X15617682Y-17417484D01*
X15836730Y-17284150D02*
X15836730Y-17484150D01*
X15836730Y-17293674D02*
X15855777Y-17284150D01*
X15855777Y-17284150D02*
X15893873Y-17284150D01*
X15893873Y-17284150D02*
X15912920Y-17293674D01*
X15912920Y-17293674D02*
X15922444Y-17303198D01*
X15922444Y-17303198D02*
X15931968Y-17322246D01*
X15931968Y-17322246D02*
X15931968Y-17379389D01*
X15931968Y-17379389D02*
X15922444Y-17398436D01*
X15922444Y-17398436D02*
X15912920Y-17407960D01*
X15912920Y-17407960D02*
X15893873Y-17417484D01*
X15893873Y-17417484D02*
X15855777Y-17417484D01*
X15855777Y-17417484D02*
X15836730Y-17407960D01*
X16046253Y-17417484D02*
X16027206Y-17407960D01*
X16027206Y-17407960D02*
X16017682Y-17388912D01*
X16017682Y-17388912D02*
X16017682Y-17217484D01*
X16208158Y-17417484D02*
X16208158Y-17312722D01*
X16208158Y-17312722D02*
X16198634Y-17293674D01*
X16198634Y-17293674D02*
X16179587Y-17284150D01*
X16179587Y-17284150D02*
X16141492Y-17284150D01*
X16141492Y-17284150D02*
X16122444Y-17293674D01*
X16208158Y-17407960D02*
X16189111Y-17417484D01*
X16189111Y-17417484D02*
X16141492Y-17417484D01*
X16141492Y-17417484D02*
X16122444Y-17407960D01*
X16122444Y-17407960D02*
X16112920Y-17388912D01*
X16112920Y-17388912D02*
X16112920Y-17369865D01*
X16112920Y-17369865D02*
X16122444Y-17350817D01*
X16122444Y-17350817D02*
X16141492Y-17341293D01*
X16141492Y-17341293D02*
X16189111Y-17341293D01*
X16189111Y-17341293D02*
X16208158Y-17331770D01*
X16274825Y-17284150D02*
X16351015Y-17284150D01*
X16303396Y-17217484D02*
X16303396Y-17388912D01*
X16303396Y-17388912D02*
X16312920Y-17407960D01*
X16312920Y-17407960D02*
X16331968Y-17417484D01*
X16331968Y-17417484D02*
X16351015Y-17417484D01*
X16493873Y-17407960D02*
X16474825Y-17417484D01*
X16474825Y-17417484D02*
X16436730Y-17417484D01*
X16436730Y-17417484D02*
X16417682Y-17407960D01*
X16417682Y-17407960D02*
X16408158Y-17388912D01*
X16408158Y-17388912D02*
X16408158Y-17312722D01*
X16408158Y-17312722D02*
X16417682Y-17293674D01*
X16417682Y-17293674D02*
X16436730Y-17284150D01*
X16436730Y-17284150D02*
X16474825Y-17284150D01*
X16474825Y-17284150D02*
X16493873Y-17293674D01*
X16493873Y-17293674D02*
X16503396Y-17312722D01*
X16503396Y-17312722D02*
X16503396Y-17331770D01*
X16503396Y-17331770D02*
X16408158Y-17350817D01*
X16674825Y-17417484D02*
X16674825Y-17217484D01*
X16674825Y-17407960D02*
X16655777Y-17417484D01*
X16655777Y-17417484D02*
X16617682Y-17417484D01*
X16617682Y-17417484D02*
X16598634Y-17407960D01*
X16598634Y-17407960D02*
X16589111Y-17398436D01*
X16589111Y-17398436D02*
X16579587Y-17379389D01*
X16579587Y-17379389D02*
X16579587Y-17322246D01*
X16579587Y-17322246D02*
X16589111Y-17303198D01*
X16589111Y-17303198D02*
X16598634Y-17293674D01*
X16598634Y-17293674D02*
X16617682Y-17284150D01*
X16617682Y-17284150D02*
X16655777Y-17284150D01*
X16655777Y-17284150D02*
X16674825Y-17293674D01*
X16751015Y-17493674D02*
X16760539Y-17484150D01*
X16760539Y-17484150D02*
X16779587Y-17455579D01*
X16779587Y-17455579D02*
X16789111Y-17436531D01*
X16789111Y-17436531D02*
X16798635Y-17407960D01*
X16798635Y-17407960D02*
X16808158Y-17360341D01*
X16808158Y-17360341D02*
X16808158Y-17322246D01*
X16808158Y-17322246D02*
X16798635Y-17274627D01*
X16798635Y-17274627D02*
X16789111Y-17246055D01*
X16789111Y-17246055D02*
X16779587Y-17227008D01*
X16779587Y-17227008D02*
X16760539Y-17198436D01*
X16760539Y-17198436D02*
X16751015Y-17188912D01*
D13*
X9995000Y-17590000D02*
G75*
G03*
X9995000Y-17590000I-60000J0D01*
G01*
D11*
X10360539Y-17681484D02*
X10246253Y-17681484D01*
X10303396Y-17681484D02*
X10303396Y-17481484D01*
X10303396Y-17481484D02*
X10284348Y-17510055D01*
X10284348Y-17510055D02*
X10265301Y-17529103D01*
X10265301Y-17529103D02*
X10246253Y-17538627D01*
X10446253Y-17662436D02*
X10455777Y-17671960D01*
X10455777Y-17671960D02*
X10446253Y-17681484D01*
X10446253Y-17681484D02*
X10436729Y-17671960D01*
X10436729Y-17671960D02*
X10446253Y-17662436D01*
X10446253Y-17662436D02*
X10446253Y-17681484D01*
X10531967Y-17500531D02*
X10541491Y-17491008D01*
X10541491Y-17491008D02*
X10560539Y-17481484D01*
X10560539Y-17481484D02*
X10608158Y-17481484D01*
X10608158Y-17481484D02*
X10627205Y-17491008D01*
X10627205Y-17491008D02*
X10636729Y-17500531D01*
X10636729Y-17500531D02*
X10646253Y-17519579D01*
X10646253Y-17519579D02*
X10646253Y-17538627D01*
X10646253Y-17538627D02*
X10636729Y-17567198D01*
X10636729Y-17567198D02*
X10522444Y-17681484D01*
X10522444Y-17681484D02*
X10646253Y-17681484D01*
X10770063Y-17481484D02*
X10789110Y-17481484D01*
X10789110Y-17481484D02*
X10808158Y-17491008D01*
X10808158Y-17491008D02*
X10817682Y-17500531D01*
X10817682Y-17500531D02*
X10827205Y-17519579D01*
X10827205Y-17519579D02*
X10836729Y-17557674D01*
X10836729Y-17557674D02*
X10836729Y-17605293D01*
X10836729Y-17605293D02*
X10827205Y-17643389D01*
X10827205Y-17643389D02*
X10817682Y-17662436D01*
X10817682Y-17662436D02*
X10808158Y-17671960D01*
X10808158Y-17671960D02*
X10789110Y-17681484D01*
X10789110Y-17681484D02*
X10770063Y-17681484D01*
X10770063Y-17681484D02*
X10751015Y-17671960D01*
X10751015Y-17671960D02*
X10741491Y-17662436D01*
X10741491Y-17662436D02*
X10731967Y-17643389D01*
X10731967Y-17643389D02*
X10722444Y-17605293D01*
X10722444Y-17605293D02*
X10722444Y-17557674D01*
X10722444Y-17557674D02*
X10731967Y-17519579D01*
X10731967Y-17519579D02*
X10741491Y-17500531D01*
X10741491Y-17500531D02*
X10751015Y-17491008D01*
X10751015Y-17491008D02*
X10770063Y-17481484D01*
X10960539Y-17481484D02*
X10979586Y-17481484D01*
X10979586Y-17481484D02*
X10998634Y-17491008D01*
X10998634Y-17491008D02*
X11008158Y-17500531D01*
X11008158Y-17500531D02*
X11017682Y-17519579D01*
X11017682Y-17519579D02*
X11027205Y-17557674D01*
X11027205Y-17557674D02*
X11027205Y-17605293D01*
X11027205Y-17605293D02*
X11017682Y-17643389D01*
X11017682Y-17643389D02*
X11008158Y-17662436D01*
X11008158Y-17662436D02*
X10998634Y-17671960D01*
X10998634Y-17671960D02*
X10979586Y-17681484D01*
X10979586Y-17681484D02*
X10960539Y-17681484D01*
X10960539Y-17681484D02*
X10941491Y-17671960D01*
X10941491Y-17671960D02*
X10931967Y-17662436D01*
X10931967Y-17662436D02*
X10922444Y-17643389D01*
X10922444Y-17643389D02*
X10912920Y-17605293D01*
X10912920Y-17605293D02*
X10912920Y-17557674D01*
X10912920Y-17557674D02*
X10922444Y-17519579D01*
X10922444Y-17519579D02*
X10931967Y-17500531D01*
X10931967Y-17500531D02*
X10941491Y-17491008D01*
X10941491Y-17491008D02*
X10960539Y-17481484D01*
X11112920Y-17681484D02*
X11112920Y-17548150D01*
X11112920Y-17567198D02*
X11122444Y-17557674D01*
X11122444Y-17557674D02*
X11141491Y-17548150D01*
X11141491Y-17548150D02*
X11170063Y-17548150D01*
X11170063Y-17548150D02*
X11189110Y-17557674D01*
X11189110Y-17557674D02*
X11198634Y-17576722D01*
X11198634Y-17576722D02*
X11198634Y-17681484D01*
X11198634Y-17576722D02*
X11208158Y-17557674D01*
X11208158Y-17557674D02*
X11227205Y-17548150D01*
X11227205Y-17548150D02*
X11255777Y-17548150D01*
X11255777Y-17548150D02*
X11274824Y-17557674D01*
X11274824Y-17557674D02*
X11284348Y-17576722D01*
X11284348Y-17576722D02*
X11284348Y-17681484D01*
X11379586Y-17681484D02*
X11379586Y-17548150D01*
X11379586Y-17567198D02*
X11389110Y-17557674D01*
X11389110Y-17557674D02*
X11408158Y-17548150D01*
X11408158Y-17548150D02*
X11436729Y-17548150D01*
X11436729Y-17548150D02*
X11455777Y-17557674D01*
X11455777Y-17557674D02*
X11465301Y-17576722D01*
X11465301Y-17576722D02*
X11465301Y-17681484D01*
X11465301Y-17576722D02*
X11474824Y-17557674D01*
X11474824Y-17557674D02*
X11493872Y-17548150D01*
X11493872Y-17548150D02*
X11522443Y-17548150D01*
X11522443Y-17548150D02*
X11541491Y-17557674D01*
X11541491Y-17557674D02*
X11551015Y-17576722D01*
X11551015Y-17576722D02*
X11551015Y-17681484D01*
X11941491Y-17471960D02*
X11770063Y-17729103D01*
X12198634Y-17481484D02*
X12217682Y-17481484D01*
X12217682Y-17481484D02*
X12236729Y-17491008D01*
X12236729Y-17491008D02*
X12246253Y-17500531D01*
X12246253Y-17500531D02*
X12255777Y-17519579D01*
X12255777Y-17519579D02*
X12265301Y-17557674D01*
X12265301Y-17557674D02*
X12265301Y-17605293D01*
X12265301Y-17605293D02*
X12255777Y-17643389D01*
X12255777Y-17643389D02*
X12246253Y-17662436D01*
X12246253Y-17662436D02*
X12236729Y-17671960D01*
X12236729Y-17671960D02*
X12217682Y-17681484D01*
X12217682Y-17681484D02*
X12198634Y-17681484D01*
X12198634Y-17681484D02*
X12179586Y-17671960D01*
X12179586Y-17671960D02*
X12170063Y-17662436D01*
X12170063Y-17662436D02*
X12160539Y-17643389D01*
X12160539Y-17643389D02*
X12151015Y-17605293D01*
X12151015Y-17605293D02*
X12151015Y-17557674D01*
X12151015Y-17557674D02*
X12160539Y-17519579D01*
X12160539Y-17519579D02*
X12170063Y-17500531D01*
X12170063Y-17500531D02*
X12179586Y-17491008D01*
X12179586Y-17491008D02*
X12198634Y-17481484D01*
X12351015Y-17662436D02*
X12360539Y-17671960D01*
X12360539Y-17671960D02*
X12351015Y-17681484D01*
X12351015Y-17681484D02*
X12341491Y-17671960D01*
X12341491Y-17671960D02*
X12351015Y-17662436D01*
X12351015Y-17662436D02*
X12351015Y-17681484D01*
X12484348Y-17481484D02*
X12503396Y-17481484D01*
X12503396Y-17481484D02*
X12522444Y-17491008D01*
X12522444Y-17491008D02*
X12531967Y-17500531D01*
X12531967Y-17500531D02*
X12541491Y-17519579D01*
X12541491Y-17519579D02*
X12551015Y-17557674D01*
X12551015Y-17557674D02*
X12551015Y-17605293D01*
X12551015Y-17605293D02*
X12541491Y-17643389D01*
X12541491Y-17643389D02*
X12531967Y-17662436D01*
X12531967Y-17662436D02*
X12522444Y-17671960D01*
X12522444Y-17671960D02*
X12503396Y-17681484D01*
X12503396Y-17681484D02*
X12484348Y-17681484D01*
X12484348Y-17681484D02*
X12465301Y-17671960D01*
X12465301Y-17671960D02*
X12455777Y-17662436D01*
X12455777Y-17662436D02*
X12446253Y-17643389D01*
X12446253Y-17643389D02*
X12436729Y-17605293D01*
X12436729Y-17605293D02*
X12436729Y-17557674D01*
X12436729Y-17557674D02*
X12446253Y-17519579D01*
X12446253Y-17519579D02*
X12455777Y-17500531D01*
X12455777Y-17500531D02*
X12465301Y-17491008D01*
X12465301Y-17491008D02*
X12484348Y-17481484D01*
X12722444Y-17548150D02*
X12722444Y-17681484D01*
X12674825Y-17471960D02*
X12627206Y-17614817D01*
X12627206Y-17614817D02*
X12751015Y-17614817D01*
X12808158Y-17481484D02*
X12941491Y-17481484D01*
X12941491Y-17481484D02*
X12855777Y-17681484D01*
X13008158Y-17500531D02*
X13017682Y-17491008D01*
X13017682Y-17491008D02*
X13036729Y-17481484D01*
X13036729Y-17481484D02*
X13084348Y-17481484D01*
X13084348Y-17481484D02*
X13103396Y-17491008D01*
X13103396Y-17491008D02*
X13112920Y-17500531D01*
X13112920Y-17500531D02*
X13122444Y-17519579D01*
X13122444Y-17519579D02*
X13122444Y-17538627D01*
X13122444Y-17538627D02*
X13112920Y-17567198D01*
X13112920Y-17567198D02*
X12998634Y-17681484D01*
X12998634Y-17681484D02*
X13122444Y-17681484D01*
X13198634Y-17481484D02*
X13198634Y-17519579D01*
X13274825Y-17481484D02*
X13274825Y-17519579D01*
X13570063Y-17757674D02*
X13560539Y-17748150D01*
X13560539Y-17748150D02*
X13541491Y-17719579D01*
X13541491Y-17719579D02*
X13531968Y-17700531D01*
X13531968Y-17700531D02*
X13522444Y-17671960D01*
X13522444Y-17671960D02*
X13512920Y-17624341D01*
X13512920Y-17624341D02*
X13512920Y-17586246D01*
X13512920Y-17586246D02*
X13522444Y-17538627D01*
X13522444Y-17538627D02*
X13531968Y-17510055D01*
X13531968Y-17510055D02*
X13541491Y-17491008D01*
X13541491Y-17491008D02*
X13560539Y-17462436D01*
X13560539Y-17462436D02*
X13570063Y-17452912D01*
X13636729Y-17500531D02*
X13646253Y-17491008D01*
X13646253Y-17491008D02*
X13665301Y-17481484D01*
X13665301Y-17481484D02*
X13712920Y-17481484D01*
X13712920Y-17481484D02*
X13731968Y-17491008D01*
X13731968Y-17491008D02*
X13741491Y-17500531D01*
X13741491Y-17500531D02*
X13751015Y-17519579D01*
X13751015Y-17519579D02*
X13751015Y-17538627D01*
X13751015Y-17538627D02*
X13741491Y-17567198D01*
X13741491Y-17567198D02*
X13627206Y-17681484D01*
X13627206Y-17681484D02*
X13751015Y-17681484D01*
X13989110Y-17681484D02*
X13989110Y-17481484D01*
X14074825Y-17681484D02*
X14074825Y-17576722D01*
X14074825Y-17576722D02*
X14065301Y-17557674D01*
X14065301Y-17557674D02*
X14046253Y-17548150D01*
X14046253Y-17548150D02*
X14017682Y-17548150D01*
X14017682Y-17548150D02*
X13998634Y-17557674D01*
X13998634Y-17557674D02*
X13989110Y-17567198D01*
X14198634Y-17681484D02*
X14179587Y-17671960D01*
X14179587Y-17671960D02*
X14170063Y-17662436D01*
X14170063Y-17662436D02*
X14160539Y-17643389D01*
X14160539Y-17643389D02*
X14160539Y-17586246D01*
X14160539Y-17586246D02*
X14170063Y-17567198D01*
X14170063Y-17567198D02*
X14179587Y-17557674D01*
X14179587Y-17557674D02*
X14198634Y-17548150D01*
X14198634Y-17548150D02*
X14227206Y-17548150D01*
X14227206Y-17548150D02*
X14246253Y-17557674D01*
X14246253Y-17557674D02*
X14255777Y-17567198D01*
X14255777Y-17567198D02*
X14265301Y-17586246D01*
X14265301Y-17586246D02*
X14265301Y-17643389D01*
X14265301Y-17643389D02*
X14255777Y-17662436D01*
X14255777Y-17662436D02*
X14246253Y-17671960D01*
X14246253Y-17671960D02*
X14227206Y-17681484D01*
X14227206Y-17681484D02*
X14198634Y-17681484D01*
X14379587Y-17681484D02*
X14360539Y-17671960D01*
X14360539Y-17671960D02*
X14351015Y-17652912D01*
X14351015Y-17652912D02*
X14351015Y-17481484D01*
X14531968Y-17671960D02*
X14512920Y-17681484D01*
X14512920Y-17681484D02*
X14474825Y-17681484D01*
X14474825Y-17681484D02*
X14455777Y-17671960D01*
X14455777Y-17671960D02*
X14446253Y-17652912D01*
X14446253Y-17652912D02*
X14446253Y-17576722D01*
X14446253Y-17576722D02*
X14455777Y-17557674D01*
X14455777Y-17557674D02*
X14474825Y-17548150D01*
X14474825Y-17548150D02*
X14512920Y-17548150D01*
X14512920Y-17548150D02*
X14531968Y-17557674D01*
X14531968Y-17557674D02*
X14541491Y-17576722D01*
X14541491Y-17576722D02*
X14541491Y-17595770D01*
X14541491Y-17595770D02*
X14446253Y-17614817D01*
X14617682Y-17671960D02*
X14636730Y-17681484D01*
X14636730Y-17681484D02*
X14674825Y-17681484D01*
X14674825Y-17681484D02*
X14693872Y-17671960D01*
X14693872Y-17671960D02*
X14703396Y-17652912D01*
X14703396Y-17652912D02*
X14703396Y-17643389D01*
X14703396Y-17643389D02*
X14693872Y-17624341D01*
X14693872Y-17624341D02*
X14674825Y-17614817D01*
X14674825Y-17614817D02*
X14646253Y-17614817D01*
X14646253Y-17614817D02*
X14627206Y-17605293D01*
X14627206Y-17605293D02*
X14617682Y-17586246D01*
X14617682Y-17586246D02*
X14617682Y-17576722D01*
X14617682Y-17576722D02*
X14627206Y-17557674D01*
X14627206Y-17557674D02*
X14646253Y-17548150D01*
X14646253Y-17548150D02*
X14674825Y-17548150D01*
X14674825Y-17548150D02*
X14693872Y-17557674D01*
X14770063Y-17757674D02*
X14779587Y-17748150D01*
X14779587Y-17748150D02*
X14798634Y-17719579D01*
X14798634Y-17719579D02*
X14808158Y-17700531D01*
X14808158Y-17700531D02*
X14817682Y-17671960D01*
X14817682Y-17671960D02*
X14827206Y-17624341D01*
X14827206Y-17624341D02*
X14827206Y-17586246D01*
X14827206Y-17586246D02*
X14817682Y-17538627D01*
X14817682Y-17538627D02*
X14808158Y-17510055D01*
X14808158Y-17510055D02*
X14798634Y-17491008D01*
X14798634Y-17491008D02*
X14779587Y-17462436D01*
X14779587Y-17462436D02*
X14770063Y-17452912D01*
X15131968Y-17757674D02*
X15122444Y-17748150D01*
X15122444Y-17748150D02*
X15103396Y-17719579D01*
X15103396Y-17719579D02*
X15093872Y-17700531D01*
X15093872Y-17700531D02*
X15084349Y-17671960D01*
X15084349Y-17671960D02*
X15074825Y-17624341D01*
X15074825Y-17624341D02*
X15074825Y-17586246D01*
X15074825Y-17586246D02*
X15084349Y-17538627D01*
X15084349Y-17538627D02*
X15093872Y-17510055D01*
X15093872Y-17510055D02*
X15103396Y-17491008D01*
X15103396Y-17491008D02*
X15122444Y-17462436D01*
X15122444Y-17462436D02*
X15131968Y-17452912D01*
X15208158Y-17548150D02*
X15208158Y-17681484D01*
X15208158Y-17567198D02*
X15217682Y-17557674D01*
X15217682Y-17557674D02*
X15236730Y-17548150D01*
X15236730Y-17548150D02*
X15265301Y-17548150D01*
X15265301Y-17548150D02*
X15284349Y-17557674D01*
X15284349Y-17557674D02*
X15293872Y-17576722D01*
X15293872Y-17576722D02*
X15293872Y-17681484D01*
X15417682Y-17681484D02*
X15398634Y-17671960D01*
X15398634Y-17671960D02*
X15389111Y-17662436D01*
X15389111Y-17662436D02*
X15379587Y-17643389D01*
X15379587Y-17643389D02*
X15379587Y-17586246D01*
X15379587Y-17586246D02*
X15389111Y-17567198D01*
X15389111Y-17567198D02*
X15398634Y-17557674D01*
X15398634Y-17557674D02*
X15417682Y-17548150D01*
X15417682Y-17548150D02*
X15446253Y-17548150D01*
X15446253Y-17548150D02*
X15465301Y-17557674D01*
X15465301Y-17557674D02*
X15474825Y-17567198D01*
X15474825Y-17567198D02*
X15484349Y-17586246D01*
X15484349Y-17586246D02*
X15484349Y-17643389D01*
X15484349Y-17643389D02*
X15474825Y-17662436D01*
X15474825Y-17662436D02*
X15465301Y-17671960D01*
X15465301Y-17671960D02*
X15446253Y-17681484D01*
X15446253Y-17681484D02*
X15417682Y-17681484D01*
X15541492Y-17548150D02*
X15617682Y-17548150D01*
X15570063Y-17481484D02*
X15570063Y-17652912D01*
X15570063Y-17652912D02*
X15579587Y-17671960D01*
X15579587Y-17671960D02*
X15598634Y-17681484D01*
X15598634Y-17681484D02*
X15617682Y-17681484D01*
X15836730Y-17548150D02*
X15836730Y-17748150D01*
X15836730Y-17557674D02*
X15855777Y-17548150D01*
X15855777Y-17548150D02*
X15893873Y-17548150D01*
X15893873Y-17548150D02*
X15912920Y-17557674D01*
X15912920Y-17557674D02*
X15922444Y-17567198D01*
X15922444Y-17567198D02*
X15931968Y-17586246D01*
X15931968Y-17586246D02*
X15931968Y-17643389D01*
X15931968Y-17643389D02*
X15922444Y-17662436D01*
X15922444Y-17662436D02*
X15912920Y-17671960D01*
X15912920Y-17671960D02*
X15893873Y-17681484D01*
X15893873Y-17681484D02*
X15855777Y-17681484D01*
X15855777Y-17681484D02*
X15836730Y-17671960D01*
X16046253Y-17681484D02*
X16027206Y-17671960D01*
X16027206Y-17671960D02*
X16017682Y-17652912D01*
X16017682Y-17652912D02*
X16017682Y-17481484D01*
X16208158Y-17681484D02*
X16208158Y-17576722D01*
X16208158Y-17576722D02*
X16198634Y-17557674D01*
X16198634Y-17557674D02*
X16179587Y-17548150D01*
X16179587Y-17548150D02*
X16141492Y-17548150D01*
X16141492Y-17548150D02*
X16122444Y-17557674D01*
X16208158Y-17671960D02*
X16189111Y-17681484D01*
X16189111Y-17681484D02*
X16141492Y-17681484D01*
X16141492Y-17681484D02*
X16122444Y-17671960D01*
X16122444Y-17671960D02*
X16112920Y-17652912D01*
X16112920Y-17652912D02*
X16112920Y-17633865D01*
X16112920Y-17633865D02*
X16122444Y-17614817D01*
X16122444Y-17614817D02*
X16141492Y-17605293D01*
X16141492Y-17605293D02*
X16189111Y-17605293D01*
X16189111Y-17605293D02*
X16208158Y-17595770D01*
X16274825Y-17548150D02*
X16351015Y-17548150D01*
X16303396Y-17481484D02*
X16303396Y-17652912D01*
X16303396Y-17652912D02*
X16312920Y-17671960D01*
X16312920Y-17671960D02*
X16331968Y-17681484D01*
X16331968Y-17681484D02*
X16351015Y-17681484D01*
X16493873Y-17671960D02*
X16474825Y-17681484D01*
X16474825Y-17681484D02*
X16436730Y-17681484D01*
X16436730Y-17681484D02*
X16417682Y-17671960D01*
X16417682Y-17671960D02*
X16408158Y-17652912D01*
X16408158Y-17652912D02*
X16408158Y-17576722D01*
X16408158Y-17576722D02*
X16417682Y-17557674D01*
X16417682Y-17557674D02*
X16436730Y-17548150D01*
X16436730Y-17548150D02*
X16474825Y-17548150D01*
X16474825Y-17548150D02*
X16493873Y-17557674D01*
X16493873Y-17557674D02*
X16503396Y-17576722D01*
X16503396Y-17576722D02*
X16503396Y-17595770D01*
X16503396Y-17595770D02*
X16408158Y-17614817D01*
X16674825Y-17681484D02*
X16674825Y-17481484D01*
X16674825Y-17671960D02*
X16655777Y-17681484D01*
X16655777Y-17681484D02*
X16617682Y-17681484D01*
X16617682Y-17681484D02*
X16598634Y-17671960D01*
X16598634Y-17671960D02*
X16589111Y-17662436D01*
X16589111Y-17662436D02*
X16579587Y-17643389D01*
X16579587Y-17643389D02*
X16579587Y-17586246D01*
X16579587Y-17586246D02*
X16589111Y-17567198D01*
X16589111Y-17567198D02*
X16598634Y-17557674D01*
X16598634Y-17557674D02*
X16617682Y-17548150D01*
X16617682Y-17548150D02*
X16655777Y-17548150D01*
X16655777Y-17548150D02*
X16674825Y-17557674D01*
X16751015Y-17757674D02*
X16760539Y-17748150D01*
X16760539Y-17748150D02*
X16779587Y-17719579D01*
X16779587Y-17719579D02*
X16789111Y-17700531D01*
X16789111Y-17700531D02*
X16798635Y-17671960D01*
X16798635Y-17671960D02*
X16808158Y-17624341D01*
X16808158Y-17624341D02*
X16808158Y-17586246D01*
X16808158Y-17586246D02*
X16798635Y-17538627D01*
X16798635Y-17538627D02*
X16789111Y-17510055D01*
X16789111Y-17510055D02*
X16779587Y-17491008D01*
X16779587Y-17491008D02*
X16760539Y-17462436D01*
X16760539Y-17462436D02*
X16751015Y-17452912D01*
X9895000Y-17754000D02*
X9895000Y-17954000D01*
X9795000Y-17854000D02*
X9995000Y-17854000D01*
X10236729Y-17745484D02*
X10360539Y-17745484D01*
X10360539Y-17745484D02*
X10293872Y-17821674D01*
X10293872Y-17821674D02*
X10322444Y-17821674D01*
X10322444Y-17821674D02*
X10341491Y-17831198D01*
X10341491Y-17831198D02*
X10351015Y-17840722D01*
X10351015Y-17840722D02*
X10360539Y-17859770D01*
X10360539Y-17859770D02*
X10360539Y-17907389D01*
X10360539Y-17907389D02*
X10351015Y-17926436D01*
X10351015Y-17926436D02*
X10341491Y-17935960D01*
X10341491Y-17935960D02*
X10322444Y-17945484D01*
X10322444Y-17945484D02*
X10265301Y-17945484D01*
X10265301Y-17945484D02*
X10246253Y-17935960D01*
X10246253Y-17935960D02*
X10236729Y-17926436D01*
X10446253Y-17926436D02*
X10455777Y-17935960D01*
X10455777Y-17935960D02*
X10446253Y-17945484D01*
X10446253Y-17945484D02*
X10436729Y-17935960D01*
X10436729Y-17935960D02*
X10446253Y-17926436D01*
X10446253Y-17926436D02*
X10446253Y-17945484D01*
X10522444Y-17745484D02*
X10646253Y-17745484D01*
X10646253Y-17745484D02*
X10579586Y-17821674D01*
X10579586Y-17821674D02*
X10608158Y-17821674D01*
X10608158Y-17821674D02*
X10627205Y-17831198D01*
X10627205Y-17831198D02*
X10636729Y-17840722D01*
X10636729Y-17840722D02*
X10646253Y-17859770D01*
X10646253Y-17859770D02*
X10646253Y-17907389D01*
X10646253Y-17907389D02*
X10636729Y-17926436D01*
X10636729Y-17926436D02*
X10627205Y-17935960D01*
X10627205Y-17935960D02*
X10608158Y-17945484D01*
X10608158Y-17945484D02*
X10551015Y-17945484D01*
X10551015Y-17945484D02*
X10531967Y-17935960D01*
X10531967Y-17935960D02*
X10522444Y-17926436D01*
X10770063Y-17745484D02*
X10789110Y-17745484D01*
X10789110Y-17745484D02*
X10808158Y-17755008D01*
X10808158Y-17755008D02*
X10817682Y-17764531D01*
X10817682Y-17764531D02*
X10827205Y-17783579D01*
X10827205Y-17783579D02*
X10836729Y-17821674D01*
X10836729Y-17821674D02*
X10836729Y-17869293D01*
X10836729Y-17869293D02*
X10827205Y-17907389D01*
X10827205Y-17907389D02*
X10817682Y-17926436D01*
X10817682Y-17926436D02*
X10808158Y-17935960D01*
X10808158Y-17935960D02*
X10789110Y-17945484D01*
X10789110Y-17945484D02*
X10770063Y-17945484D01*
X10770063Y-17945484D02*
X10751015Y-17935960D01*
X10751015Y-17935960D02*
X10741491Y-17926436D01*
X10741491Y-17926436D02*
X10731967Y-17907389D01*
X10731967Y-17907389D02*
X10722444Y-17869293D01*
X10722444Y-17869293D02*
X10722444Y-17821674D01*
X10722444Y-17821674D02*
X10731967Y-17783579D01*
X10731967Y-17783579D02*
X10741491Y-17764531D01*
X10741491Y-17764531D02*
X10751015Y-17755008D01*
X10751015Y-17755008D02*
X10770063Y-17745484D01*
X10960539Y-17745484D02*
X10979586Y-17745484D01*
X10979586Y-17745484D02*
X10998634Y-17755008D01*
X10998634Y-17755008D02*
X11008158Y-17764531D01*
X11008158Y-17764531D02*
X11017682Y-17783579D01*
X11017682Y-17783579D02*
X11027205Y-17821674D01*
X11027205Y-17821674D02*
X11027205Y-17869293D01*
X11027205Y-17869293D02*
X11017682Y-17907389D01*
X11017682Y-17907389D02*
X11008158Y-17926436D01*
X11008158Y-17926436D02*
X10998634Y-17935960D01*
X10998634Y-17935960D02*
X10979586Y-17945484D01*
X10979586Y-17945484D02*
X10960539Y-17945484D01*
X10960539Y-17945484D02*
X10941491Y-17935960D01*
X10941491Y-17935960D02*
X10931967Y-17926436D01*
X10931967Y-17926436D02*
X10922444Y-17907389D01*
X10922444Y-17907389D02*
X10912920Y-17869293D01*
X10912920Y-17869293D02*
X10912920Y-17821674D01*
X10912920Y-17821674D02*
X10922444Y-17783579D01*
X10922444Y-17783579D02*
X10931967Y-17764531D01*
X10931967Y-17764531D02*
X10941491Y-17755008D01*
X10941491Y-17755008D02*
X10960539Y-17745484D01*
X11112920Y-17945484D02*
X11112920Y-17812150D01*
X11112920Y-17831198D02*
X11122444Y-17821674D01*
X11122444Y-17821674D02*
X11141491Y-17812150D01*
X11141491Y-17812150D02*
X11170063Y-17812150D01*
X11170063Y-17812150D02*
X11189110Y-17821674D01*
X11189110Y-17821674D02*
X11198634Y-17840722D01*
X11198634Y-17840722D02*
X11198634Y-17945484D01*
X11198634Y-17840722D02*
X11208158Y-17821674D01*
X11208158Y-17821674D02*
X11227205Y-17812150D01*
X11227205Y-17812150D02*
X11255777Y-17812150D01*
X11255777Y-17812150D02*
X11274824Y-17821674D01*
X11274824Y-17821674D02*
X11284348Y-17840722D01*
X11284348Y-17840722D02*
X11284348Y-17945484D01*
X11379586Y-17945484D02*
X11379586Y-17812150D01*
X11379586Y-17831198D02*
X11389110Y-17821674D01*
X11389110Y-17821674D02*
X11408158Y-17812150D01*
X11408158Y-17812150D02*
X11436729Y-17812150D01*
X11436729Y-17812150D02*
X11455777Y-17821674D01*
X11455777Y-17821674D02*
X11465301Y-17840722D01*
X11465301Y-17840722D02*
X11465301Y-17945484D01*
X11465301Y-17840722D02*
X11474824Y-17821674D01*
X11474824Y-17821674D02*
X11493872Y-17812150D01*
X11493872Y-17812150D02*
X11522443Y-17812150D01*
X11522443Y-17812150D02*
X11541491Y-17821674D01*
X11541491Y-17821674D02*
X11551015Y-17840722D01*
X11551015Y-17840722D02*
X11551015Y-17945484D01*
X11941491Y-17735960D02*
X11770063Y-17993103D01*
X12198634Y-17745484D02*
X12217682Y-17745484D01*
X12217682Y-17745484D02*
X12236729Y-17755008D01*
X12236729Y-17755008D02*
X12246253Y-17764531D01*
X12246253Y-17764531D02*
X12255777Y-17783579D01*
X12255777Y-17783579D02*
X12265301Y-17821674D01*
X12265301Y-17821674D02*
X12265301Y-17869293D01*
X12265301Y-17869293D02*
X12255777Y-17907389D01*
X12255777Y-17907389D02*
X12246253Y-17926436D01*
X12246253Y-17926436D02*
X12236729Y-17935960D01*
X12236729Y-17935960D02*
X12217682Y-17945484D01*
X12217682Y-17945484D02*
X12198634Y-17945484D01*
X12198634Y-17945484D02*
X12179586Y-17935960D01*
X12179586Y-17935960D02*
X12170063Y-17926436D01*
X12170063Y-17926436D02*
X12160539Y-17907389D01*
X12160539Y-17907389D02*
X12151015Y-17869293D01*
X12151015Y-17869293D02*
X12151015Y-17821674D01*
X12151015Y-17821674D02*
X12160539Y-17783579D01*
X12160539Y-17783579D02*
X12170063Y-17764531D01*
X12170063Y-17764531D02*
X12179586Y-17755008D01*
X12179586Y-17755008D02*
X12198634Y-17745484D01*
X12351015Y-17926436D02*
X12360539Y-17935960D01*
X12360539Y-17935960D02*
X12351015Y-17945484D01*
X12351015Y-17945484D02*
X12341491Y-17935960D01*
X12341491Y-17935960D02*
X12351015Y-17926436D01*
X12351015Y-17926436D02*
X12351015Y-17945484D01*
X12551015Y-17945484D02*
X12436729Y-17945484D01*
X12493872Y-17945484D02*
X12493872Y-17745484D01*
X12493872Y-17745484D02*
X12474825Y-17774055D01*
X12474825Y-17774055D02*
X12455777Y-17793103D01*
X12455777Y-17793103D02*
X12436729Y-17802627D01*
X12627206Y-17764531D02*
X12636729Y-17755008D01*
X12636729Y-17755008D02*
X12655777Y-17745484D01*
X12655777Y-17745484D02*
X12703396Y-17745484D01*
X12703396Y-17745484D02*
X12722444Y-17755008D01*
X12722444Y-17755008D02*
X12731967Y-17764531D01*
X12731967Y-17764531D02*
X12741491Y-17783579D01*
X12741491Y-17783579D02*
X12741491Y-17802627D01*
X12741491Y-17802627D02*
X12731967Y-17831198D01*
X12731967Y-17831198D02*
X12617682Y-17945484D01*
X12617682Y-17945484D02*
X12741491Y-17945484D01*
X12836729Y-17945484D02*
X12874825Y-17945484D01*
X12874825Y-17945484D02*
X12893872Y-17935960D01*
X12893872Y-17935960D02*
X12903396Y-17926436D01*
X12903396Y-17926436D02*
X12922444Y-17897865D01*
X12922444Y-17897865D02*
X12931967Y-17859770D01*
X12931967Y-17859770D02*
X12931967Y-17783579D01*
X12931967Y-17783579D02*
X12922444Y-17764531D01*
X12922444Y-17764531D02*
X12912920Y-17755008D01*
X12912920Y-17755008D02*
X12893872Y-17745484D01*
X12893872Y-17745484D02*
X12855777Y-17745484D01*
X12855777Y-17745484D02*
X12836729Y-17755008D01*
X12836729Y-17755008D02*
X12827206Y-17764531D01*
X12827206Y-17764531D02*
X12817682Y-17783579D01*
X12817682Y-17783579D02*
X12817682Y-17831198D01*
X12817682Y-17831198D02*
X12827206Y-17850246D01*
X12827206Y-17850246D02*
X12836729Y-17859770D01*
X12836729Y-17859770D02*
X12855777Y-17869293D01*
X12855777Y-17869293D02*
X12893872Y-17869293D01*
X12893872Y-17869293D02*
X12912920Y-17859770D01*
X12912920Y-17859770D02*
X12922444Y-17850246D01*
X12922444Y-17850246D02*
X12931967Y-17831198D01*
X13027206Y-17945484D02*
X13065301Y-17945484D01*
X13065301Y-17945484D02*
X13084348Y-17935960D01*
X13084348Y-17935960D02*
X13093872Y-17926436D01*
X13093872Y-17926436D02*
X13112920Y-17897865D01*
X13112920Y-17897865D02*
X13122444Y-17859770D01*
X13122444Y-17859770D02*
X13122444Y-17783579D01*
X13122444Y-17783579D02*
X13112920Y-17764531D01*
X13112920Y-17764531D02*
X13103396Y-17755008D01*
X13103396Y-17755008D02*
X13084348Y-17745484D01*
X13084348Y-17745484D02*
X13046253Y-17745484D01*
X13046253Y-17745484D02*
X13027206Y-17755008D01*
X13027206Y-17755008D02*
X13017682Y-17764531D01*
X13017682Y-17764531D02*
X13008158Y-17783579D01*
X13008158Y-17783579D02*
X13008158Y-17831198D01*
X13008158Y-17831198D02*
X13017682Y-17850246D01*
X13017682Y-17850246D02*
X13027206Y-17859770D01*
X13027206Y-17859770D02*
X13046253Y-17869293D01*
X13046253Y-17869293D02*
X13084348Y-17869293D01*
X13084348Y-17869293D02*
X13103396Y-17859770D01*
X13103396Y-17859770D02*
X13112920Y-17850246D01*
X13112920Y-17850246D02*
X13122444Y-17831198D01*
X13198634Y-17745484D02*
X13198634Y-17783579D01*
X13274825Y-17745484D02*
X13274825Y-17783579D01*
X13570063Y-18021674D02*
X13560539Y-18012150D01*
X13560539Y-18012150D02*
X13541491Y-17983579D01*
X13541491Y-17983579D02*
X13531968Y-17964531D01*
X13531968Y-17964531D02*
X13522444Y-17935960D01*
X13522444Y-17935960D02*
X13512920Y-17888341D01*
X13512920Y-17888341D02*
X13512920Y-17850246D01*
X13512920Y-17850246D02*
X13522444Y-17802627D01*
X13522444Y-17802627D02*
X13531968Y-17774055D01*
X13531968Y-17774055D02*
X13541491Y-17755008D01*
X13541491Y-17755008D02*
X13560539Y-17726436D01*
X13560539Y-17726436D02*
X13570063Y-17716912D01*
X13731968Y-17812150D02*
X13731968Y-17945484D01*
X13684348Y-17735960D02*
X13636729Y-17878817D01*
X13636729Y-17878817D02*
X13760539Y-17878817D01*
X13989110Y-17945484D02*
X13989110Y-17745484D01*
X14074825Y-17945484D02*
X14074825Y-17840722D01*
X14074825Y-17840722D02*
X14065301Y-17821674D01*
X14065301Y-17821674D02*
X14046253Y-17812150D01*
X14046253Y-17812150D02*
X14017682Y-17812150D01*
X14017682Y-17812150D02*
X13998634Y-17821674D01*
X13998634Y-17821674D02*
X13989110Y-17831198D01*
X14198634Y-17945484D02*
X14179587Y-17935960D01*
X14179587Y-17935960D02*
X14170063Y-17926436D01*
X14170063Y-17926436D02*
X14160539Y-17907389D01*
X14160539Y-17907389D02*
X14160539Y-17850246D01*
X14160539Y-17850246D02*
X14170063Y-17831198D01*
X14170063Y-17831198D02*
X14179587Y-17821674D01*
X14179587Y-17821674D02*
X14198634Y-17812150D01*
X14198634Y-17812150D02*
X14227206Y-17812150D01*
X14227206Y-17812150D02*
X14246253Y-17821674D01*
X14246253Y-17821674D02*
X14255777Y-17831198D01*
X14255777Y-17831198D02*
X14265301Y-17850246D01*
X14265301Y-17850246D02*
X14265301Y-17907389D01*
X14265301Y-17907389D02*
X14255777Y-17926436D01*
X14255777Y-17926436D02*
X14246253Y-17935960D01*
X14246253Y-17935960D02*
X14227206Y-17945484D01*
X14227206Y-17945484D02*
X14198634Y-17945484D01*
X14379587Y-17945484D02*
X14360539Y-17935960D01*
X14360539Y-17935960D02*
X14351015Y-17916912D01*
X14351015Y-17916912D02*
X14351015Y-17745484D01*
X14531968Y-17935960D02*
X14512920Y-17945484D01*
X14512920Y-17945484D02*
X14474825Y-17945484D01*
X14474825Y-17945484D02*
X14455777Y-17935960D01*
X14455777Y-17935960D02*
X14446253Y-17916912D01*
X14446253Y-17916912D02*
X14446253Y-17840722D01*
X14446253Y-17840722D02*
X14455777Y-17821674D01*
X14455777Y-17821674D02*
X14474825Y-17812150D01*
X14474825Y-17812150D02*
X14512920Y-17812150D01*
X14512920Y-17812150D02*
X14531968Y-17821674D01*
X14531968Y-17821674D02*
X14541491Y-17840722D01*
X14541491Y-17840722D02*
X14541491Y-17859770D01*
X14541491Y-17859770D02*
X14446253Y-17878817D01*
X14617682Y-17935960D02*
X14636730Y-17945484D01*
X14636730Y-17945484D02*
X14674825Y-17945484D01*
X14674825Y-17945484D02*
X14693872Y-17935960D01*
X14693872Y-17935960D02*
X14703396Y-17916912D01*
X14703396Y-17916912D02*
X14703396Y-17907389D01*
X14703396Y-17907389D02*
X14693872Y-17888341D01*
X14693872Y-17888341D02*
X14674825Y-17878817D01*
X14674825Y-17878817D02*
X14646253Y-17878817D01*
X14646253Y-17878817D02*
X14627206Y-17869293D01*
X14627206Y-17869293D02*
X14617682Y-17850246D01*
X14617682Y-17850246D02*
X14617682Y-17840722D01*
X14617682Y-17840722D02*
X14627206Y-17821674D01*
X14627206Y-17821674D02*
X14646253Y-17812150D01*
X14646253Y-17812150D02*
X14674825Y-17812150D01*
X14674825Y-17812150D02*
X14693872Y-17821674D01*
X14770063Y-18021674D02*
X14779587Y-18012150D01*
X14779587Y-18012150D02*
X14798634Y-17983579D01*
X14798634Y-17983579D02*
X14808158Y-17964531D01*
X14808158Y-17964531D02*
X14817682Y-17935960D01*
X14817682Y-17935960D02*
X14827206Y-17888341D01*
X14827206Y-17888341D02*
X14827206Y-17850246D01*
X14827206Y-17850246D02*
X14817682Y-17802627D01*
X14817682Y-17802627D02*
X14808158Y-17774055D01*
X14808158Y-17774055D02*
X14798634Y-17755008D01*
X14798634Y-17755008D02*
X14779587Y-17726436D01*
X14779587Y-17726436D02*
X14770063Y-17716912D01*
X15131968Y-18021674D02*
X15122444Y-18012150D01*
X15122444Y-18012150D02*
X15103396Y-17983579D01*
X15103396Y-17983579D02*
X15093872Y-17964531D01*
X15093872Y-17964531D02*
X15084349Y-17935960D01*
X15084349Y-17935960D02*
X15074825Y-17888341D01*
X15074825Y-17888341D02*
X15074825Y-17850246D01*
X15074825Y-17850246D02*
X15084349Y-17802627D01*
X15084349Y-17802627D02*
X15093872Y-17774055D01*
X15093872Y-17774055D02*
X15103396Y-17755008D01*
X15103396Y-17755008D02*
X15122444Y-17726436D01*
X15122444Y-17726436D02*
X15131968Y-17716912D01*
X15208158Y-17812150D02*
X15208158Y-17945484D01*
X15208158Y-17831198D02*
X15217682Y-17821674D01*
X15217682Y-17821674D02*
X15236730Y-17812150D01*
X15236730Y-17812150D02*
X15265301Y-17812150D01*
X15265301Y-17812150D02*
X15284349Y-17821674D01*
X15284349Y-17821674D02*
X15293872Y-17840722D01*
X15293872Y-17840722D02*
X15293872Y-17945484D01*
X15417682Y-17945484D02*
X15398634Y-17935960D01*
X15398634Y-17935960D02*
X15389111Y-17926436D01*
X15389111Y-17926436D02*
X15379587Y-17907389D01*
X15379587Y-17907389D02*
X15379587Y-17850246D01*
X15379587Y-17850246D02*
X15389111Y-17831198D01*
X15389111Y-17831198D02*
X15398634Y-17821674D01*
X15398634Y-17821674D02*
X15417682Y-17812150D01*
X15417682Y-17812150D02*
X15446253Y-17812150D01*
X15446253Y-17812150D02*
X15465301Y-17821674D01*
X15465301Y-17821674D02*
X15474825Y-17831198D01*
X15474825Y-17831198D02*
X15484349Y-17850246D01*
X15484349Y-17850246D02*
X15484349Y-17907389D01*
X15484349Y-17907389D02*
X15474825Y-17926436D01*
X15474825Y-17926436D02*
X15465301Y-17935960D01*
X15465301Y-17935960D02*
X15446253Y-17945484D01*
X15446253Y-17945484D02*
X15417682Y-17945484D01*
X15541492Y-17812150D02*
X15617682Y-17812150D01*
X15570063Y-17745484D02*
X15570063Y-17916912D01*
X15570063Y-17916912D02*
X15579587Y-17935960D01*
X15579587Y-17935960D02*
X15598634Y-17945484D01*
X15598634Y-17945484D02*
X15617682Y-17945484D01*
X15836730Y-17812150D02*
X15836730Y-18012150D01*
X15836730Y-17821674D02*
X15855777Y-17812150D01*
X15855777Y-17812150D02*
X15893873Y-17812150D01*
X15893873Y-17812150D02*
X15912920Y-17821674D01*
X15912920Y-17821674D02*
X15922444Y-17831198D01*
X15922444Y-17831198D02*
X15931968Y-17850246D01*
X15931968Y-17850246D02*
X15931968Y-17907389D01*
X15931968Y-17907389D02*
X15922444Y-17926436D01*
X15922444Y-17926436D02*
X15912920Y-17935960D01*
X15912920Y-17935960D02*
X15893873Y-17945484D01*
X15893873Y-17945484D02*
X15855777Y-17945484D01*
X15855777Y-17945484D02*
X15836730Y-17935960D01*
X16046253Y-17945484D02*
X16027206Y-17935960D01*
X16027206Y-17935960D02*
X16017682Y-17916912D01*
X16017682Y-17916912D02*
X16017682Y-17745484D01*
X16208158Y-17945484D02*
X16208158Y-17840722D01*
X16208158Y-17840722D02*
X16198634Y-17821674D01*
X16198634Y-17821674D02*
X16179587Y-17812150D01*
X16179587Y-17812150D02*
X16141492Y-17812150D01*
X16141492Y-17812150D02*
X16122444Y-17821674D01*
X16208158Y-17935960D02*
X16189111Y-17945484D01*
X16189111Y-17945484D02*
X16141492Y-17945484D01*
X16141492Y-17945484D02*
X16122444Y-17935960D01*
X16122444Y-17935960D02*
X16112920Y-17916912D01*
X16112920Y-17916912D02*
X16112920Y-17897865D01*
X16112920Y-17897865D02*
X16122444Y-17878817D01*
X16122444Y-17878817D02*
X16141492Y-17869293D01*
X16141492Y-17869293D02*
X16189111Y-17869293D01*
X16189111Y-17869293D02*
X16208158Y-17859770D01*
X16274825Y-17812150D02*
X16351015Y-17812150D01*
X16303396Y-17745484D02*
X16303396Y-17916912D01*
X16303396Y-17916912D02*
X16312920Y-17935960D01*
X16312920Y-17935960D02*
X16331968Y-17945484D01*
X16331968Y-17945484D02*
X16351015Y-17945484D01*
X16493873Y-17935960D02*
X16474825Y-17945484D01*
X16474825Y-17945484D02*
X16436730Y-17945484D01*
X16436730Y-17945484D02*
X16417682Y-17935960D01*
X16417682Y-17935960D02*
X16408158Y-17916912D01*
X16408158Y-17916912D02*
X16408158Y-17840722D01*
X16408158Y-17840722D02*
X16417682Y-17821674D01*
X16417682Y-17821674D02*
X16436730Y-17812150D01*
X16436730Y-17812150D02*
X16474825Y-17812150D01*
X16474825Y-17812150D02*
X16493873Y-17821674D01*
X16493873Y-17821674D02*
X16503396Y-17840722D01*
X16503396Y-17840722D02*
X16503396Y-17859770D01*
X16503396Y-17859770D02*
X16408158Y-17878817D01*
X16674825Y-17945484D02*
X16674825Y-17745484D01*
X16674825Y-17935960D02*
X16655777Y-17945484D01*
X16655777Y-17945484D02*
X16617682Y-17945484D01*
X16617682Y-17945484D02*
X16598634Y-17935960D01*
X16598634Y-17935960D02*
X16589111Y-17926436D01*
X16589111Y-17926436D02*
X16579587Y-17907389D01*
X16579587Y-17907389D02*
X16579587Y-17850246D01*
X16579587Y-17850246D02*
X16589111Y-17831198D01*
X16589111Y-17831198D02*
X16598634Y-17821674D01*
X16598634Y-17821674D02*
X16617682Y-17812150D01*
X16617682Y-17812150D02*
X16655777Y-17812150D01*
X16655777Y-17812150D02*
X16674825Y-17821674D01*
X16751015Y-18021674D02*
X16760539Y-18012150D01*
X16760539Y-18012150D02*
X16779587Y-17983579D01*
X16779587Y-17983579D02*
X16789111Y-17964531D01*
X16789111Y-17964531D02*
X16798635Y-17935960D01*
X16798635Y-17935960D02*
X16808158Y-17888341D01*
X16808158Y-17888341D02*
X16808158Y-17850246D01*
X16808158Y-17850246D02*
X16798635Y-17802627D01*
X16798635Y-17802627D02*
X16789111Y-17774055D01*
X16789111Y-17774055D02*
X16779587Y-17755008D01*
X16779587Y-17755008D02*
X16760539Y-17726436D01*
X16760539Y-17726436D02*
X16751015Y-17716912D01*
M02*
