M48
; DRILL file {KiCad 7.0.8} date 2026 September 16, Wednesday 02:57:34
; FORMAT={-:-/ absolute / metric / decimal}
; #@! TF.CreationDate,2026-09-16T02:57:34-05:00
; #@! TF.GenerationSoftware,Kicad,Pcbnew,7.0.8
; #@! TF.FileFunction,Plated,1,4,PTH
FMAT,2
METRIC
; #@! TA.AperFunction,Plated,PTH,ViaDrill
T1C0.400
; #@! TA.AperFunction,Plated,PTH,ComponentDrill
T2C0.800
; #@! TA.AperFunction,Plated,PTH,ComponentDrill
T3C0.900
; #@! TA.AperFunction,Plated,PTH,ComponentDrill
T4C1.000
; #@! TA.AperFunction,Plated,PTH,ComponentDrill
T5C1.000
; #@! TA.AperFunction,Plated,PTH,ComponentDrill
T6C1.016
; #@! TA.AperFunction,Plated,PTH,ComponentDrill
T7C1.100
; #@! TA.AperFunction,Plated,PTH,ComponentDrill
T8C1.100
; #@! TA.AperFunction,Plated,PTH,ComponentDrill
T9C1.200
; #@! TA.AperFunction,Plated,PTH,ComponentDrill
T10C1.400
; #@! TA.AperFunction,Plated,PTH,ComponentDrill
T11C1.500
; #@! TA.AperFunction,Plated,PTH,ComponentDrill
T12C1.600
; #@! TA.AperFunction,Plated,PTH,ComponentDrill
T13C2.300
%
G90
G05
T1
X118.641Y-51.495
X129.856Y-63.045
X143.312Y-108.483
X144.02Y-97.761
X145.141Y-108.275
X145.28Y-101.719
X145.848Y-97.761
X146.235Y-137.581
X146.367Y-108.28
X146.52Y-96.213
X147.38Y-108.366
X147.975Y-96.175
X148.75Y-135.101
X148.75Y-139.05
X149.097Y-108.307
X149.22Y-96.67
X149.776Y-94.0
X149.778Y-98.375
X150.088Y-107.882
X150.936Y-101.503
X151.025Y-98.384
X151.187Y-157.995
X151.39Y-62.895
X151.64Y-111.838
X153.098Y-159.295
X153.325Y-112.831
X153.892Y-163.5
X154.843Y-112.571
X155.065Y-113.995
X155.623Y-101.725
X156.72Y-98.19
X156.72Y-111.84
X156.765Y-133.715
X157.09Y-59.754
X157.175Y-94.21
X157.98Y-98.19
X158.505Y-113.168
X158.736Y-150.595
X159.607Y-61.189
X159.636Y-102.922
X159.636Y-142.922
X159.75Y-163.5
X159.885Y-159.63
X160.169Y-99.021
X160.444Y-119.969
X160.528Y-118.039
X160.603Y-153.647
X160.63Y-126.658
X160.852Y-111.965
X161.106Y-104.4
X161.231Y-138.874
X161.279Y-95.702
X161.345Y-155.645
X161.369Y-144.339
X162.061Y-118.03
X162.075Y-149.612
X162.549Y-135.709
X162.7Y-164.55
X162.72Y-159.773
X162.839Y-98.882
X163.121Y-150.595
X163.205Y-153.384
X163.366Y-138.98
X163.379Y-140.958
X163.819Y-99.09
X164.87Y-104.994
X164.874Y-105.996
X165.09Y-138.997
X165.104Y-115.302
X165.142Y-132.75
X165.233Y-99.168
X165.268Y-121.0
X165.474Y-158.297
X165.736Y-143.998
X166.37Y-92.92
X166.621Y-112.546
X166.792Y-107.905
X167.0Y-164.8
X167.069Y-115.039
X167.619Y-133.721
X167.623Y-94.0
X167.683Y-104.222
X168.456Y-103.461
X168.628Y-96.948
X168.628Y-136.93
X169.108Y-95.116
X169.212Y-115.772
X169.905Y-112.542
X170.065Y-114.047
X170.127Y-139.068
X170.25Y-151.398
X170.396Y-95.769
X171.307Y-154.595
X171.344Y-137.192
X172.084Y-114.764
X172.19Y-116.488
X172.474Y-158.297
X174.161Y-153.385
X174.451Y-120.375
X174.752Y-123.305
X174.892Y-117.759
X175.814Y-122.585
X176.54Y-123.284
X177.203Y-116.693
X178.75Y-116.706
X179.039Y-161.056
X181.255Y-151.878
X181.27Y-122.921
X181.45Y-116.694
X181.845Y-109.345
X182.605Y-163.984
X182.713Y-122.139
X182.942Y-116.728
X184.834Y-154.719
X186.296Y-111.899
X186.37Y-126.81
X187.22Y-117.558
X187.966Y-129.517
X188.224Y-116.505
X188.454Y-123.388
X188.576Y-162.125
X188.615Y-154.721
X188.875Y-111.9
X189.782Y-160.126
X189.789Y-117.427
X190.074Y-153.224
X190.18Y-123.301
X190.745Y-113.17
X190.873Y-151.56
X190.92Y-154.695
X191.49Y-122.449
X191.525Y-105.761
X191.71Y-143.294
X193.492Y-93.792
X193.648Y-139.05
X193.828Y-114.4
X193.845Y-102.17
X193.898Y-143.3
X193.923Y-122.05
X194.696Y-132.714
X194.881Y-157.159
X194.973Y-161.0
X195.4Y-113.859
X195.688Y-153.259
X195.85Y-124.297
X196.127Y-106.532
X198.132Y-142.0
X198.197Y-96.749
X198.215Y-146.0
X198.239Y-122.008
X198.298Y-118.155
X199.273Y-153.0
X199.913Y-113.453
X200.648Y-135.05
X200.648Y-143.5
X200.72Y-105.52
X200.75Y-147.05
X200.972Y-99.192
X201.702Y-142.0
X201.706Y-117.721
X201.8Y-122.0
X201.802Y-97.095
X205.278Y-118.0
X205.453Y-141.004
X206.249Y-103.541
X206.25Y-124.94
X206.465Y-148.435
X207.196Y-135.698
X207.364Y-98.045
X207.415Y-116.938
X207.454Y-87.094
X207.75Y-124.923
X207.799Y-101.59
X207.809Y-147.227
X207.945Y-106.742
X207.999Y-108.77
X208.116Y-140.926
X208.8Y-122.0
X208.832Y-146.625
X209.245Y-144.845
X209.73Y-118.0
X209.755Y-134.863
X210.286Y-101.401
X210.452Y-95.2
X210.486Y-138.817
X210.564Y-113.714
X211.453Y-146.652
X213.16Y-103.413
X213.276Y-133.049
X213.299Y-93.766
X213.336Y-114.776
X213.636Y-134.938
X213.677Y-145.472
X213.977Y-95.641
X214.256Y-141.004
X214.256Y-81.938
X214.368Y-106.079
X214.472Y-122.055
X215.072Y-140.069
X215.306Y-148.669
X215.569Y-117.609
X215.977Y-86.821
X216.058Y-142.0
X216.395Y-108.182
X216.698Y-100.47
X216.87Y-135.52
X217.073Y-137.989
X217.28Y-147.914
X217.298Y-149.184
X217.323Y-118.034
X217.45Y-153.945
X218.063Y-108.918
X218.125Y-112.476
X218.52Y-154.023
X219.2Y-137.924
X219.398Y-103.42
X219.593Y-124.558
X219.85Y-157.814
X219.977Y-111.0
X219.995Y-122.953
X220.161Y-147.914
X220.204Y-163.0
X220.365Y-141.4
X220.422Y-145.581
X221.283Y-143.46
X221.685Y-119.295
X221.793Y-118.291
X222.031Y-151.576
X222.135Y-146.632
X222.545Y-125.895
X222.758Y-141.273
X222.844Y-109.729
X222.974Y-114.809
X223.007Y-111.578
X223.007Y-116.74
X223.734Y-121.0
X223.756Y-160.989
X224.372Y-107.611
X224.484Y-158.035
X224.8Y-159.0
X225.036Y-114.012
X225.101Y-147.914
X225.975Y-125.956
X226.264Y-98.179
X226.326Y-118.05
X226.326Y-158.05
X226.326Y-159.953
X226.432Y-141.082
X226.605Y-113.957
X226.978Y-155.954
X227.108Y-144.282
X227.205Y-154.343
X227.24Y-135.711
X227.291Y-153.0
X227.609Y-108.647
X227.771Y-106.776
X228.218Y-154.698
X228.396Y-148.086
X228.739Y-140.144
X228.944Y-144.281
X229.283Y-98.233
X229.457Y-123.68
X229.479Y-136.043
X229.625Y-146.0
X230.224Y-134.95
X231.264Y-112.895
X231.676Y-153.0
X231.789Y-138.4
X231.8Y-163.0
X232.765Y-136.24
X233.887Y-99.76
X233.945Y-122.995
X234.845Y-112.895
X235.699Y-86.671
X235.766Y-125.651
X236.2Y-156.1
X238.174Y-138.0
X238.253Y-100.47
X238.267Y-104.749
X238.306Y-158.769
X238.746Y-97.752
X239.204Y-140.951
X239.728Y-160.112
X240.125Y-157.73
X241.056Y-123.355
X241.064Y-127.592
X241.07Y-124.625
X241.339Y-95.155
X241.734Y-138.0
X241.957Y-125.285
X242.289Y-133.757
X243.325Y-160.27
X243.327Y-154.844
X245.081Y-158.157
X245.096Y-161.059
X246.004Y-129.856
X246.02Y-127.165
X246.048Y-122.044
X246.68Y-129.08
X246.843Y-163.716
X247.58Y-154.285
X247.722Y-127.041
X248.13Y-155.818
X248.275Y-160.27
X250.37Y-125.895
X251.15Y-161.964
X251.325Y-159.7
X251.427Y-158.3
X251.686Y-122.162
X252.363Y-125.895
X253.677Y-139.0
X254.165Y-122.865
X254.644Y-159.0
X256.446Y-156.017
X256.662Y-161.944
X256.888Y-121.895
X257.151Y-157.958
X257.895Y-126.962
X258.159Y-139.0
X258.268Y-159.31
X258.944Y-82.17
X259.123Y-155.0
X259.395Y-124.834
X260.572Y-75.352
X262.658Y-159.0
X264.429Y-77.845
X265.018Y-102.553
X265.02Y-96.769
X267.332Y-82.435
X268.972Y-81.887
X270.093Y-91.898
X270.23Y-109.957
X270.233Y-93.783
X270.242Y-97.496
X270.968Y-112.895
X271.702Y-92.348
X272.2Y-143.05
X273.23Y-146.0
X273.831Y-99.047
X273.92Y-90.615
X274.309Y-95.175
X275.126Y-110.183
X276.995Y-113.945
X277.219Y-143.282
X277.22Y-98.934
X277.8Y-92.676
X278.045Y-116.895
X278.603Y-94.824
X279.3Y-92.715
X279.3Y-98.815
X279.746Y-95.889
X279.98Y-85.723
X279.995Y-107.831
X280.3Y-146.0
X280.3Y-150.0
X280.333Y-118.9
X281.255Y-98.707
X281.5Y-152.0
X282.25Y-143.043
X282.768Y-92.945
X282.889Y-97.002
X283.193Y-100.702
X283.204Y-118.099
X283.251Y-110.362
X283.269Y-93.895
X283.296Y-127.088
X283.599Y-121.678
X283.958Y-89.601
X283.996Y-105.487
X284.07Y-96.995
X284.625Y-116.015
X284.804Y-94.055
X285.79Y-128.14
X285.991Y-108.951
X286.442Y-105.178
X287.137Y-140.537
X288.574Y-144.727
X288.971Y-96.488
X289.73Y-140.695
X290.544Y-96.5
X291.033Y-76.011
X292.075Y-101.57
X292.964Y-82.115
X293.053Y-138.607
X293.135Y-80.432
X293.181Y-116.681
X294.105Y-107.682
X294.171Y-126.245
X295.22Y-118.52
X296.215Y-127.717
X296.722Y-106.62
X297.099Y-114.434
X299.635Y-101.807
X300.511Y-137.4
X301.16Y-109.98
X302.646Y-105.153
X305.198Y-98.653
X306.237Y-98.0
X306.25Y-99.636
X306.703Y-109.034
X308.72Y-77.17
X309.19Y-96.569
X309.927Y-77.095
X315.64Y-109.095
X319.846Y-104.748
X321.67Y-102.145
X322.77Y-79.045
X325.5Y-78.987
X326.27Y-76.929
X327.17Y-124.37
X327.82Y-110.307
X329.47Y-118.07
X329.57Y-121.775
X330.295Y-104.122
X331.008Y-109.165
X331.764Y-114.255
X331.87Y-121.94
X334.17Y-121.991
X336.6Y-70.807
X337.399Y-65.712
X339.75Y-117.97
X339.885Y-67.081
X339.993Y-73.355
X340.06Y-71.894
X340.222Y-64.378
X340.814Y-131.044
X340.904Y-71.349
X341.226Y-69.193
X342.325Y-76.255
X342.33Y-72.715
X343.334Y-69.235
X343.635Y-60.76
X344.534Y-77.321
X345.58Y-69.223
X346.055Y-71.402
X348.214Y-59.27
X349.321Y-63.301
X350.614Y-54.095
X353.02Y-64.045
X353.099Y-60.493
X353.803Y-53.067
X355.575Y-75.745
X356.493Y-69.645
X356.892Y-58.695
X356.995Y-61.37
X359.506Y-62.42
X360.915Y-78.597
X362.381Y-63.392
X363.579Y-157.752
X365.795Y-61.52
X366.845Y-79.57
X367.669Y-85.52
X367.67Y-83.32
X367.704Y-84.42
X368.824Y-120.07
X368.918Y-77.618
X370.3Y-66.0
X370.52Y-60.745
X370.53Y-86.62
X370.534Y-82.538
X370.534Y-87.72
X370.545Y-120.97
X371.333Y-77.713
X371.52Y-93.42
X371.945Y-71.419
X372.107Y-76.916
X372.75Y-76.084
X373.089Y-119.023
X374.244Y-58.483
X374.903Y-119.826
X376.47Y-58.58
X376.863Y-120.904
X377.321Y-76.065
X377.665Y-74.145
X379.72Y-95.52
X380.445Y-77.564
T3
X180.235Y-94.3
X180.235Y-96.84
X180.235Y-107.0
X180.235Y-109.54
X180.478Y-132.38
X180.478Y-134.92
X180.478Y-145.08
X180.478Y-147.62
X187.855Y-94.3
X187.855Y-96.84
X187.855Y-107.0
X187.855Y-109.54
X188.098Y-132.38
X188.098Y-134.92
X188.098Y-145.08
X188.098Y-147.62
X233.695Y-110.355
X233.695Y-115.435
X235.95Y-143.46
X235.95Y-148.54
X246.395Y-110.355
X246.395Y-115.435
X248.65Y-143.46
X248.65Y-148.54
X251.495Y-110.355
X251.495Y-115.435
X253.75Y-143.46
X253.75Y-148.54
X264.195Y-110.355
X264.195Y-115.435
X266.45Y-143.46
X266.45Y-148.54
T4
X209.648Y-71.725
X209.648Y-74.225
X209.648Y-88.181
X209.648Y-90.681
X212.148Y-71.725
X212.148Y-74.225
X212.148Y-88.181
X212.148Y-90.681
X214.648Y-71.725
X214.648Y-74.225
X214.648Y-88.181
X214.648Y-90.681
X231.648Y-71.725
X231.648Y-74.225
X231.648Y-88.181
X231.648Y-90.681
X234.148Y-71.725
X234.148Y-74.225
X234.148Y-88.181
X234.148Y-90.681
X236.648Y-71.725
X236.648Y-74.225
X236.648Y-88.181
X236.648Y-90.681
X253.648Y-71.725
X253.648Y-74.225
X253.648Y-88.181
X253.648Y-90.681
X256.148Y-71.725
X256.148Y-74.225
X256.148Y-88.181
X256.148Y-90.681
X258.648Y-71.725
X258.648Y-74.225
X258.648Y-88.181
X258.648Y-90.681
X298.048Y-64.389
X298.048Y-66.929
X298.048Y-69.469
X298.048Y-72.009
X298.048Y-74.549
X298.048Y-77.089
X298.048Y-79.629
X298.048Y-82.169
X298.048Y-84.709
X316.92Y-140.23
X316.92Y-142.77
X319.46Y-140.23
X319.46Y-142.77
X322.0Y-140.23
X322.0Y-142.77
X324.54Y-140.23
X324.54Y-142.77
X327.08Y-140.23
X327.08Y-142.77
T5
X104.0Y-54.0
X108.5Y-54.0
X113.0Y-54.0
X117.5Y-54.0
X122.0Y-54.0
X152.28Y-94.347
X152.28Y-134.347
X163.201Y-111.003
X172.128Y-106.0
X172.128Y-146.0
X176.045Y-109.295
X176.57Y-156.845
X231.095Y-123.948
X233.35Y-157.053
X251.324Y-140.992
T6
X345.765Y-158.035
X345.765Y-160.575
X348.305Y-158.035
X348.305Y-160.575
X348.575Y-99.225
X348.575Y-101.765
X348.575Y-104.305
X348.575Y-106.845
X348.575Y-109.385
X350.845Y-158.035
X350.845Y-160.575
X351.115Y-99.225
X351.115Y-101.765
X351.115Y-104.305
X351.115Y-106.845
X351.115Y-109.385
X353.385Y-158.035
X353.385Y-160.575
X355.925Y-158.035
X355.925Y-160.575
X371.765Y-158.035
X371.765Y-160.575
X374.305Y-158.035
X374.305Y-160.575
X376.575Y-99.225
X376.575Y-101.765
X376.575Y-104.305
X376.575Y-106.845
X376.575Y-109.385
X376.845Y-158.035
X376.845Y-160.575
X379.115Y-99.225
X379.115Y-101.765
X379.115Y-104.305
X379.115Y-106.845
X379.115Y-109.385
X379.385Y-158.035
X379.385Y-160.575
X381.925Y-158.035
X381.925Y-160.575
T7
X271.108Y-78.091
X271.108Y-80.631
X271.108Y-83.171
X276.188Y-78.091
X276.188Y-80.631
X276.188Y-83.171
X284.108Y-78.091
X284.108Y-80.631
X284.108Y-83.171
X289.188Y-78.091
X289.188Y-80.631
X289.188Y-83.171
T8
X124.076Y-109.403
X124.076Y-123.903
X126.576Y-123.903
X129.076Y-109.403
X129.076Y-123.903
T9
X115.608Y-71.895
X115.608Y-88.351
X118.148Y-71.895
X118.148Y-88.351
X120.688Y-71.895
X120.688Y-88.351
X137.608Y-71.895
X137.608Y-88.351
X140.148Y-71.895
X140.148Y-88.351
X142.688Y-71.895
X142.688Y-88.351
X159.608Y-71.895
X159.608Y-88.351
X162.148Y-71.895
X162.148Y-88.351
X164.688Y-71.895
X164.688Y-88.351
X181.608Y-71.895
X181.608Y-88.351
X184.148Y-71.895
X184.148Y-88.351
X186.688Y-71.895
X186.688Y-88.351
T10
X302.905Y-112.955
X302.905Y-133.275
X310.525Y-112.955
X313.065Y-133.275
X315.605Y-112.955
X323.225Y-133.275
T11
X112.576Y-132.413
X112.576Y-137.493
X112.576Y-145.113
X112.576Y-150.193
X112.576Y-157.813
X112.576Y-162.893
X125.076Y-132.413
X125.076Y-137.493
X125.076Y-145.113
X125.076Y-150.193
X125.076Y-157.813
X125.076Y-162.893
X128.076Y-132.413
X128.076Y-137.493
X128.076Y-145.113
X128.076Y-150.193
X128.076Y-157.813
X128.076Y-162.893
X140.576Y-132.413
X140.576Y-137.493
X140.576Y-145.113
X140.576Y-150.193
X140.576Y-157.813
X140.576Y-162.893
T2
X368.94Y-52.49G85X368.94Y-52.09
G05
X368.94Y-56.82G85X368.94Y-56.12
G05
X377.6Y-52.49G85X377.6Y-52.09
G05
X377.6Y-56.82G85X377.6Y-56.12
G05
T4
X129.9Y-51.5G85X128.4Y-51.5
G05
X129.9Y-55.0G85X128.4Y-55.0
G05
X129.9Y-58.5G85X128.4Y-58.5
G05
X151.9Y-51.5G85X150.4Y-51.5
G05
X151.9Y-55.0G85X150.4Y-55.0
G05
X151.9Y-58.5G85X150.4Y-58.5
G05
X173.9Y-51.5G85X172.4Y-51.5
G05
X173.9Y-55.0G85X172.4Y-55.0
G05
X173.9Y-58.5G85X172.4Y-58.5
G05
X195.9Y-51.5G85X194.4Y-51.5
G05
X195.9Y-55.0G85X194.4Y-55.0
G05
X195.9Y-58.5G85X194.4Y-58.5
G05
X345.595Y-51.5G85X344.095Y-51.5
G05
X345.595Y-55.0G85X344.095Y-55.0
G05
X345.595Y-58.5G85X344.095Y-58.5
G05
T8
X207.748Y-64.225G85X207.048Y-64.225
G05
X207.748Y-80.681G85X207.048Y-80.681
G05
X217.248Y-64.225G85X216.548Y-64.225
G05
X217.248Y-80.681G85X216.548Y-80.681
G05
X229.748Y-64.225G85X229.048Y-64.225
G05
X229.748Y-80.681G85X229.048Y-80.681
G05
X239.248Y-64.225G85X238.548Y-64.225
G05
X239.248Y-80.681G85X238.548Y-80.681
G05
X251.748Y-64.225G85X251.048Y-64.225
G05
X251.748Y-80.681G85X251.048Y-80.681
G05
X261.248Y-64.225G85X260.548Y-64.225
G05
X261.248Y-80.681G85X260.548Y-80.681
G05
T9
X267.7Y-71.85G85X267.7Y-73.15
G05
X270.2Y-56.95G85X270.2Y-58.25
G05
X272.7Y-64.45G85X272.7Y-65.75
G05
X272.7Y-71.85G85X272.7Y-73.15
G05
X284.7Y-71.85G85X284.7Y-73.15
G05
X287.2Y-56.95G85X287.2Y-58.25
G05
X289.7Y-64.45G85X289.7Y-65.75
G05
X289.7Y-71.85G85X289.7Y-73.15
G05
X310.5Y-71.85G85X310.5Y-73.15
G05
X313.0Y-56.95G85X313.0Y-58.25
G05
X315.5Y-64.45G85X315.5Y-65.75
G05
X315.5Y-71.85G85X315.5Y-73.15
G05
X325.5Y-71.85G85X325.5Y-73.15
G05
X328.0Y-56.95G85X328.0Y-58.25
G05
X330.5Y-64.45G85X330.5Y-65.75
G05
X330.5Y-71.85G85X330.5Y-73.15
G05
T12
X121.076Y-115.853G85X121.076Y-116.953
G05
X132.076Y-115.903G85X132.076Y-117.003
G05
T13
X112.548Y-64.495G85X112.548Y-64.295
G05
X112.548Y-80.951G85X112.548Y-80.751
G05
X123.748Y-64.495G85X123.748Y-64.295
G05
X123.748Y-80.951G85X123.748Y-80.751
G05
X134.548Y-64.495G85X134.548Y-64.295
G05
X134.548Y-80.951G85X134.548Y-80.751
G05
X145.748Y-64.495G85X145.748Y-64.295
G05
X145.748Y-80.951G85X145.748Y-80.751
G05
X156.548Y-64.495G85X156.548Y-64.295
G05
X156.548Y-80.951G85X156.548Y-80.751
G05
X167.748Y-64.495G85X167.748Y-64.295
G05
X167.748Y-80.951G85X167.748Y-80.751
G05
X178.548Y-64.495G85X178.548Y-64.295
G05
X178.548Y-80.951G85X178.548Y-80.751
G05
X189.748Y-64.495G85X189.748Y-64.295
G05
X189.748Y-80.951G85X189.748Y-80.751
G05
T0
M30
