%TF.GenerationSoftware,KiCad,Pcbnew,7.0.8*%
%TF.CreationDate,2026-09-16T02:57:33-05:00*%
%TF.ProjectId,vuulgaris,7675756c-6761-4726-9973-2e6b69636164,1.0*%
%TF.SameCoordinates,Original*%
%TF.FileFunction,Soldermask,Bot*%
%TF.FilePolarity,Negative*%
%FSLAX46Y46*%
G04 Gerber Fmt 4.6, Leading zero omitted, Abs format (unit mm)*
G04 Created by KiCad (PCBNEW 7.0.8) date 2026-09-16 02:57:33*
%MOMM*%
%LPD*%
G01*
G04 APERTURE LIST*
%ADD10C,1.800000*%
%ADD11O,3.300000X3.500000*%
%ADD12C,1.600000*%
%ADD13O,2.600000X1.600000*%
%ADD14C,2.200000*%
%ADD15C,2.032000*%
%ADD16R,1.700000X1.700000*%
%ADD17C,1.700000*%
%ADD18C,2.000000*%
%ADD19C,3.300000*%
%ADD20R,1.600000X1.600000*%
%ADD21C,1.524000*%
%ADD22C,0.600000*%
%ADD23O,1.200000X2.000000*%
%ADD24O,1.200000X1.800000*%
%ADD25O,2.200000X3.500000*%
%ADD26R,0.806000X0.864000*%
%ADD27O,0.568000X1.950000*%
%ADD28R,3.100000X1.600000*%
%ADD29R,1.410000X1.350000*%
%ADD30R,1.300000X1.600000*%
%ADD31R,2.000000X1.600000*%
%ADD32R,0.950000X1.150000*%
%ADD33R,0.800000X0.900000*%
%ADD34R,1.000000X0.650000*%
%ADD35R,0.864000X0.806000*%
%ADD36O,0.595000X1.598000*%
%ADD37R,2.000000X2.000000*%
%ADD38O,0.630000X1.865000*%
%ADD39R,2.500000X1.100000*%
%ADD40R,2.340000X3.600000*%
%ADD41O,1.865000X0.630000*%
%ADD42O,1.800000X3.000000*%
%ADD43R,1.350000X1.410000*%
%ADD44R,0.900000X0.800000*%
%ADD45C,2.400000*%
%ADD46C,1.200000*%
%ADD47R,1.600000X0.700000*%
%ADD48R,1.500000X1.200000*%
%ADD49R,2.200000X1.200000*%
%ADD50R,1.500000X1.600000*%
%ADD51R,3.500000X1.200000*%
%ADD52R,1.407000X3.499000*%
G04 APERTURE END LIST*
D10*
%TO.C,ENC3*%
X137608000Y-71895000D03*
X142688000Y-71895000D03*
X140148000Y-71895000D03*
D11*
X145748000Y-64395000D03*
X134548000Y-64395000D03*
%TD*%
D12*
%TO.C,RV5*%
X253648000Y-74225000D03*
X256148000Y-74225000D03*
X258648000Y-74225000D03*
X253648000Y-71725000D03*
X256148000Y-71725000D03*
X258648000Y-71725000D03*
D13*
X251398000Y-64225000D03*
X260898000Y-64225000D03*
%TD*%
D10*
%TO.C,ENC5*%
X159608000Y-71895000D03*
X164688000Y-71895000D03*
X162148000Y-71895000D03*
D11*
X167748000Y-64395000D03*
X156548000Y-64395000D03*
%TD*%
D10*
%TO.C,ENC2*%
X115608000Y-88351000D03*
X120688000Y-88351000D03*
X118148000Y-88351000D03*
D11*
X123748000Y-80851000D03*
X112548000Y-80851000D03*
%TD*%
D14*
%TO.C,SW5*%
X128076000Y-132413000D03*
X140576000Y-132413000D03*
X128076000Y-137493000D03*
X140576000Y-137493000D03*
%TD*%
D10*
%TO.C,ENC1*%
X115608000Y-71895000D03*
X120688000Y-71895000D03*
X118148000Y-71895000D03*
D11*
X123748000Y-64395000D03*
X112548000Y-64395000D03*
%TD*%
D15*
%TO.C,U1*%
X379115000Y-99225000D03*
X379115000Y-101765000D03*
X379115000Y-104305000D03*
X379115000Y-106845000D03*
X379115000Y-109385000D03*
X376575000Y-109385000D03*
X376575000Y-106845000D03*
X376575000Y-104305000D03*
X376575000Y-101765000D03*
X376575000Y-99225000D03*
X381925000Y-160575000D03*
X379385000Y-160575000D03*
X376845000Y-160575000D03*
X374305000Y-160575000D03*
X371765000Y-160575000D03*
X371765000Y-158035000D03*
X374305000Y-158035000D03*
X376845000Y-158035000D03*
X379385000Y-158035000D03*
X381925000Y-158035000D03*
X355925000Y-160575000D03*
X353385000Y-160575000D03*
X350845000Y-160575000D03*
X348305000Y-160575000D03*
X345765000Y-160575000D03*
X345765000Y-158035000D03*
X348305000Y-158035000D03*
X350845000Y-158035000D03*
X353385000Y-158035000D03*
X355925000Y-158035000D03*
X351115000Y-99225000D03*
X351115000Y-101765000D03*
X351115000Y-104305000D03*
X351115000Y-106845000D03*
X351115000Y-109385000D03*
X348575000Y-109385000D03*
X348575000Y-106845000D03*
X348575000Y-104305000D03*
X348575000Y-101765000D03*
X348575000Y-99225000D03*
%TD*%
D10*
%TO.C,ENC4*%
X137608000Y-88351000D03*
X142688000Y-88351000D03*
X140148000Y-88351000D03*
D11*
X145748000Y-80851000D03*
X134548000Y-80851000D03*
%TD*%
D16*
%TO.C,VT301*%
X233695000Y-110355000D03*
D17*
X233695000Y-115435000D03*
X246395000Y-110355000D03*
X246395000Y-115435000D03*
%TD*%
D14*
%TO.C,SW9*%
X128076000Y-157813000D03*
X140576000Y-157813000D03*
X128076000Y-162893000D03*
X140576000Y-162893000D03*
%TD*%
D12*
%TO.C,RV6*%
X253648000Y-90681000D03*
X256148000Y-90681000D03*
X258648000Y-90681000D03*
X253648000Y-88181000D03*
X256148000Y-88181000D03*
X258648000Y-88181000D03*
D13*
X251398000Y-80681000D03*
X260898000Y-80681000D03*
%TD*%
D10*
%TO.C,ENC8*%
X181608000Y-88351000D03*
X186688000Y-88351000D03*
X184148000Y-88351000D03*
D11*
X189748000Y-80851000D03*
X178548000Y-80851000D03*
%TD*%
D12*
%TO.C,RV1*%
X209648000Y-74225000D03*
X212148000Y-74225000D03*
X214648000Y-74225000D03*
X209648000Y-71725000D03*
X212148000Y-71725000D03*
X214648000Y-71725000D03*
D13*
X207398000Y-64225000D03*
X216898000Y-64225000D03*
%TD*%
D18*
%TO.C,TP3*%
X113000000Y-54000000D03*
%TD*%
D12*
%TO.C,RV4*%
X231648000Y-90681000D03*
X234148000Y-90681000D03*
X236648000Y-90681000D03*
X231648000Y-88181000D03*
X234148000Y-88181000D03*
X236648000Y-88181000D03*
D13*
X229398000Y-80681000D03*
X238898000Y-80681000D03*
%TD*%
D10*
%TO.C,ENC7*%
X181608000Y-71895000D03*
X186688000Y-71895000D03*
X184148000Y-71895000D03*
D11*
X189748000Y-64395000D03*
X178548000Y-64395000D03*
%TD*%
D14*
%TO.C,SW6*%
X112576000Y-145113000D03*
X125076000Y-145113000D03*
X112576000Y-150193000D03*
X125076000Y-150193000D03*
%TD*%
%TO.C,SW8*%
X112576000Y-157813000D03*
X125076000Y-157813000D03*
X112576000Y-162893000D03*
X125076000Y-162893000D03*
%TD*%
D18*
%TO.C,TP2*%
X108500000Y-54000000D03*
%TD*%
D19*
%TO.C,DS1*%
X297548000Y-55049000D03*
X297548000Y-94049000D03*
X365548000Y-55049000D03*
X365548000Y-94049000D03*
D20*
X298048000Y-84709000D03*
D12*
X298048000Y-82169000D03*
X298048000Y-79629000D03*
X298048000Y-77089000D03*
X298048000Y-74549000D03*
X298048000Y-72009000D03*
X298048000Y-69469000D03*
X298048000Y-66929000D03*
X298048000Y-64389000D03*
%TD*%
D18*
%TO.C,TP1*%
X104000000Y-54000000D03*
%TD*%
%TO.C,TP4*%
X117500000Y-54000000D03*
%TD*%
D16*
%TO.C,VT302*%
X251495000Y-110355000D03*
D17*
X251495000Y-115435000D03*
X264195000Y-110355000D03*
X264195000Y-115435000D03*
%TD*%
D10*
%TO.C,SW2*%
X284108000Y-83171000D03*
X284108000Y-80631000D03*
X284108000Y-78091000D03*
X289188000Y-83171000D03*
X289188000Y-80631000D03*
X289188000Y-78091000D03*
%TD*%
D21*
%TO.C,J12*%
X316920000Y-142770000D03*
X316920000Y-140230000D03*
X319460000Y-142770000D03*
X319460000Y-140230000D03*
X322000000Y-142770000D03*
X322000000Y-140230000D03*
X324540000Y-142770000D03*
X324540000Y-140230000D03*
X327080000Y-142770000D03*
X327080000Y-140230000D03*
%TD*%
D16*
%TO.C,VT402*%
X253750000Y-143460000D03*
D17*
X253750000Y-148540000D03*
X266450000Y-143460000D03*
X266450000Y-148540000D03*
%TD*%
D10*
%TO.C,ENC6*%
X159608000Y-88351000D03*
X164688000Y-88351000D03*
X162148000Y-88351000D03*
D11*
X167748000Y-80851000D03*
X156548000Y-80851000D03*
%TD*%
D12*
%TO.C,RV2*%
X209648000Y-90681000D03*
X212148000Y-90681000D03*
X214648000Y-90681000D03*
X209648000Y-88181000D03*
X212148000Y-88181000D03*
X214648000Y-88181000D03*
D13*
X207398000Y-80681000D03*
X216898000Y-80681000D03*
%TD*%
D22*
%TO.C,J11*%
X376170000Y-55970000D03*
X370370000Y-55970000D03*
D23*
X368940000Y-56470000D03*
D24*
X368940000Y-52290000D03*
X377600000Y-52290000D03*
D23*
X377600000Y-56470000D03*
%TD*%
D16*
%TO.C,VT401*%
X235950000Y-143460000D03*
D17*
X235950000Y-148540000D03*
X248650000Y-143460000D03*
X248650000Y-148540000D03*
%TD*%
D10*
%TO.C,SW1*%
X271108000Y-83171000D03*
X271108000Y-80631000D03*
X271108000Y-78091000D03*
X276188000Y-83171000D03*
X276188000Y-80631000D03*
X276188000Y-78091000D03*
%TD*%
D12*
%TO.C,RV3*%
X231648000Y-74225000D03*
X234148000Y-74225000D03*
X236648000Y-74225000D03*
X231648000Y-71725000D03*
X234148000Y-71725000D03*
X236648000Y-71725000D03*
D13*
X229398000Y-64225000D03*
X238898000Y-64225000D03*
%TD*%
D14*
%TO.C,SW4*%
X112576000Y-132413000D03*
X125076000Y-132413000D03*
X112576000Y-137493000D03*
X125076000Y-137493000D03*
%TD*%
%TO.C,SW7*%
X128076000Y-145113000D03*
X140576000Y-145113000D03*
X128076000Y-150193000D03*
X140576000Y-150193000D03*
%TD*%
D25*
%TO.C,ENC0*%
X121076000Y-116403000D03*
X132076000Y-116453000D03*
D10*
X124076000Y-123903000D03*
X129076000Y-123903000D03*
X126576000Y-123903000D03*
X124076000Y-109403000D03*
X129076000Y-109403000D03*
%TD*%
D18*
%TO.C,TP5*%
X122000000Y-54000000D03*
%TD*%
D26*
%TO.C,R204*%
X154250000Y-134000000D03*
X155750000Y-134000000D03*
%TD*%
D27*
%TO.C,U202*%
X224855000Y-137290000D03*
X226125000Y-137290000D03*
X227395000Y-137290000D03*
X228665000Y-137290000D03*
X228665000Y-142700000D03*
X227395000Y-142700000D03*
X226125000Y-142700000D03*
X224855000Y-142700000D03*
%TD*%
D28*
%TO.C,J4*%
X173150000Y-51500000D03*
X173150000Y-55000000D03*
X173150000Y-58500000D03*
%TD*%
D29*
%TO.C,C210*%
X191898000Y-142000000D03*
X193898000Y-142000000D03*
%TD*%
D26*
%TO.C,R511*%
X357920000Y-58695000D03*
X359420000Y-58695000D03*
%TD*%
%TO.C,R114*%
X168628000Y-94000000D03*
X170128000Y-94000000D03*
%TD*%
D27*
%TO.C,U203*%
X161279000Y-137290000D03*
X162549000Y-137290000D03*
X163819000Y-137290000D03*
X165089000Y-137290000D03*
X165089000Y-142700000D03*
X163819000Y-142700000D03*
X162549000Y-142700000D03*
X161279000Y-142700000D03*
%TD*%
D30*
%TO.C,RT501*%
X336422000Y-64378000D03*
D31*
X337672000Y-67278000D03*
D30*
X338922000Y-64378000D03*
%TD*%
D29*
%TO.C,C110*%
X191970000Y-104470000D03*
X193970000Y-104470000D03*
%TD*%
D26*
%TO.C,R221*%
X192423000Y-161000000D03*
X193923000Y-161000000D03*
%TD*%
%TO.C,R223*%
X196723000Y-153000000D03*
X198223000Y-153000000D03*
%TD*%
D29*
%TO.C,C512*%
X279345000Y-87020000D03*
X281345000Y-87020000D03*
%TD*%
D26*
%TO.C,R515*%
X324770000Y-77995000D03*
X326270000Y-77995000D03*
%TD*%
D28*
%TO.C,J3*%
X151150000Y-51500000D03*
X151150000Y-55000000D03*
X151150000Y-58500000D03*
%TD*%
D26*
%TO.C,R222*%
X199148000Y-134000000D03*
X200648000Y-134000000D03*
%TD*%
D32*
%TO.C,D207*%
X212586000Y-146000000D03*
X215966000Y-146000000D03*
%TD*%
D30*
%TO.C,RT301*%
X219195000Y-114043000D03*
D31*
X220445000Y-116943000D03*
D30*
X221695000Y-114043000D03*
%TD*%
D18*
%TO.C,TP9*%
X172128000Y-146000000D03*
%TD*%
D27*
%TO.C,U103*%
X161279000Y-97290000D03*
X162549000Y-97290000D03*
X163819000Y-97290000D03*
X165089000Y-97290000D03*
X165089000Y-102700000D03*
X163819000Y-102700000D03*
X162549000Y-102700000D03*
X161279000Y-102700000D03*
%TD*%
D26*
%TO.C,R106*%
X147250000Y-98000000D03*
X148750000Y-98000000D03*
%TD*%
%TO.C,R104*%
X154250000Y-94000000D03*
X155750000Y-94000000D03*
%TD*%
D33*
%TO.C,C108*%
X163457000Y-93813000D03*
X164857000Y-93813000D03*
%TD*%
%TO.C,C216*%
X224876000Y-153000000D03*
X226276000Y-153000000D03*
%TD*%
D26*
%TO.C,R122*%
X199220000Y-96470000D03*
X200720000Y-96470000D03*
%TD*%
D33*
%TO.C,C207*%
X157186000Y-142922000D03*
X158586000Y-142922000D03*
%TD*%
D32*
%TO.C,D106*%
X169988000Y-121000000D03*
X173368000Y-121000000D03*
%TD*%
D26*
%TO.C,R131*%
X239276000Y-100470000D03*
X240776000Y-100470000D03*
%TD*%
%TO.C,R113*%
X168628000Y-102000000D03*
X170128000Y-102000000D03*
%TD*%
D33*
%TO.C,C31*%
X371295000Y-72545000D03*
X369895000Y-72545000D03*
%TD*%
D30*
%TO.C,RT504*%
X286480000Y-91184000D03*
D31*
X287730000Y-94084000D03*
D30*
X288980000Y-91184000D03*
%TD*%
D32*
%TO.C,D204*%
X170205000Y-154595000D03*
X173585000Y-154595000D03*
%TD*%
D26*
%TO.C,R509*%
X353970000Y-69645000D03*
X355470000Y-69645000D03*
%TD*%
D34*
%TO.C,Q2*%
X215276000Y-133050000D03*
X215276000Y-134950000D03*
X213276000Y-134000000D03*
%TD*%
D35*
%TO.C,R517*%
X265470000Y-79345000D03*
X265470000Y-77845000D03*
%TD*%
D26*
%TO.C,R512*%
X342018000Y-77321000D03*
X343518000Y-77321000D03*
%TD*%
D29*
%TO.C,C220*%
X238954000Y-134000000D03*
X240954000Y-134000000D03*
%TD*%
%TO.C,C120*%
X239026000Y-96470000D03*
X241026000Y-96470000D03*
%TD*%
D26*
%TO.C,R120*%
X192220000Y-100470000D03*
X193720000Y-100470000D03*
%TD*%
D28*
%TO.C,J2*%
X129150000Y-51500000D03*
X129150000Y-55000000D03*
X129150000Y-58500000D03*
%TD*%
D26*
%TO.C,R127*%
X224826000Y-117000000D03*
X226326000Y-117000000D03*
%TD*%
%TO.C,R212*%
X168628000Y-138000000D03*
X170128000Y-138000000D03*
%TD*%
D36*
%TO.C,U204*%
X179975000Y-153300000D03*
X181255000Y-153300000D03*
X182525000Y-153300000D03*
X183795000Y-153300000D03*
X185055000Y-153300000D03*
X186325000Y-153300000D03*
X187595000Y-153300000D03*
X188875000Y-153300000D03*
X188875000Y-160700000D03*
X187595000Y-160700000D03*
X186325000Y-160700000D03*
X185055000Y-160700000D03*
X183795000Y-160700000D03*
X182525000Y-160700000D03*
X181255000Y-160700000D03*
X179975000Y-160700000D03*
%TD*%
D26*
%TO.C,R121*%
X192423000Y-121000000D03*
X193923000Y-121000000D03*
%TD*%
D33*
%TO.C,C28*%
X364795000Y-63120000D03*
X363395000Y-63120000D03*
%TD*%
D18*
%TO.C,TP13*%
X176570000Y-156845000D03*
%TD*%
D26*
%TO.C,R117*%
X170928000Y-113000000D03*
X172428000Y-113000000D03*
%TD*%
D27*
%TO.C,U102*%
X224927000Y-99760000D03*
X226197000Y-99760000D03*
X227467000Y-99760000D03*
X228737000Y-99760000D03*
X228737000Y-105170000D03*
X227467000Y-105170000D03*
X226197000Y-105170000D03*
X224927000Y-105170000D03*
%TD*%
D28*
%TO.C,J5*%
X195150000Y-51500000D03*
X195150000Y-55000000D03*
X195150000Y-58500000D03*
%TD*%
D26*
%TO.C,R224*%
X199148000Y-142000000D03*
X200648000Y-142000000D03*
%TD*%
%TO.C,R22*%
X358495000Y-62420000D03*
X356995000Y-62420000D03*
%TD*%
%TO.C,R132*%
X239276000Y-104470000D03*
X240776000Y-104470000D03*
%TD*%
%TO.C,R230*%
X217826000Y-146000000D03*
X219326000Y-146000000D03*
%TD*%
%TO.C,R516*%
X321270000Y-77995000D03*
X322770000Y-77995000D03*
%TD*%
D18*
%TO.C,TP8*%
X172128000Y-106000000D03*
%TD*%
D32*
%TO.C,D206*%
X170205000Y-158595000D03*
X173585000Y-158595000D03*
%TD*%
D26*
%TO.C,R115*%
X159628000Y-121000000D03*
X161128000Y-121000000D03*
%TD*%
D33*
%TO.C,C40*%
X157300000Y-163500000D03*
X158700000Y-163500000D03*
%TD*%
D37*
%TO.C,D3*%
X364300000Y-66000000D03*
X368700000Y-66000000D03*
%TD*%
D38*
%TO.C,U9*%
X342054000Y-62320000D03*
X343334000Y-62320000D03*
X344594000Y-62320000D03*
X345864000Y-62320000D03*
X345864000Y-67680000D03*
X344594000Y-67680000D03*
X343334000Y-67680000D03*
X342054000Y-67680000D03*
%TD*%
D26*
%TO.C,R218*%
X168628000Y-146000000D03*
X170128000Y-146000000D03*
%TD*%
D33*
%TO.C,C41*%
X161300000Y-163500000D03*
X162700000Y-163500000D03*
%TD*%
D30*
%TO.C,RT502*%
X336304000Y-72230000D03*
D31*
X337554000Y-75130000D03*
D30*
X338804000Y-72230000D03*
%TD*%
D26*
%TO.C,R229*%
X217826000Y-142000000D03*
X219326000Y-142000000D03*
%TD*%
%TO.C,R125*%
X224826000Y-121000000D03*
X226326000Y-121000000D03*
%TD*%
D32*
%TO.C,D107*%
X209655000Y-110945000D03*
X213035000Y-110945000D03*
%TD*%
D39*
%TO.C,U8*%
X151187000Y-159295000D03*
X151187000Y-161595000D03*
X151187000Y-163895000D03*
D40*
X145247000Y-161595000D03*
%TD*%
D18*
%TO.C,TP11*%
X233350000Y-157053000D03*
%TD*%
D26*
%TO.C,R228*%
X213526000Y-142000000D03*
X215026000Y-142000000D03*
%TD*%
%TO.C,R211*%
X159845000Y-154595000D03*
X161345000Y-154595000D03*
%TD*%
D18*
%TO.C,TP7*%
X152280000Y-134347000D03*
%TD*%
D26*
%TO.C,R213*%
X168628000Y-142000000D03*
X170128000Y-142000000D03*
%TD*%
%TO.C,R123*%
X196723000Y-113000000D03*
X198223000Y-113000000D03*
%TD*%
D33*
%TO.C,C121*%
X205549000Y-108770000D03*
X206949000Y-108770000D03*
%TD*%
%TO.C,C507*%
X338454000Y-69530000D03*
X339854000Y-69530000D03*
%TD*%
D26*
%TO.C,R207*%
X147250000Y-134000000D03*
X148750000Y-134000000D03*
%TD*%
%TO.C,R514*%
X306170000Y-77170000D03*
X307670000Y-77170000D03*
%TD*%
D33*
%TO.C,C109*%
X180155000Y-123984000D03*
X181555000Y-123984000D03*
%TD*%
D26*
%TO.C,R225*%
X224826000Y-161000000D03*
X226326000Y-161000000D03*
%TD*%
D33*
%TO.C,C509*%
X280480000Y-97625000D03*
X281880000Y-97625000D03*
%TD*%
D29*
%TO.C,C42*%
X165000000Y-163500000D03*
X167000000Y-163500000D03*
%TD*%
D33*
%TO.C,C208*%
X163457000Y-133813000D03*
X164857000Y-133813000D03*
%TD*%
%TO.C,C214*%
X192473000Y-157000000D03*
X193873000Y-157000000D03*
%TD*%
D26*
%TO.C,R220*%
X192148000Y-138000000D03*
X193648000Y-138000000D03*
%TD*%
D28*
%TO.C,J6*%
X344845000Y-51500000D03*
X344845000Y-55000000D03*
X344845000Y-58500000D03*
%TD*%
D33*
%TO.C,C222*%
X208355000Y-133813000D03*
X209755000Y-133813000D03*
%TD*%
D34*
%TO.C,Q1*%
X215299000Y-93748000D03*
X215299000Y-95648000D03*
X213299000Y-94698000D03*
%TD*%
D26*
%TO.C,R513*%
X310945000Y-77095000D03*
X312445000Y-77095000D03*
%TD*%
%TO.C,R214*%
X168628000Y-134000000D03*
X170128000Y-134000000D03*
%TD*%
D18*
%TO.C,TP15*%
X251324000Y-140992000D03*
%TD*%
%TO.C,TP10*%
X231095000Y-123948000D03*
%TD*%
D26*
%TO.C,R23*%
X353020000Y-65095000D03*
X354520000Y-65095000D03*
%TD*%
D32*
%TO.C,D205*%
X163205000Y-158595000D03*
X166585000Y-158595000D03*
%TD*%
D33*
%TO.C,C116*%
X228045000Y-112895000D03*
X229445000Y-112895000D03*
%TD*%
D26*
%TO.C,R107*%
X147250000Y-94000000D03*
X148750000Y-94000000D03*
%TD*%
D29*
%TO.C,C119*%
X213348000Y-100470000D03*
X215348000Y-100470000D03*
%TD*%
D26*
%TO.C,R227*%
X224826000Y-157000000D03*
X226326000Y-157000000D03*
%TD*%
D29*
%TO.C,C506*%
X342725000Y-71402000D03*
X344725000Y-71402000D03*
%TD*%
D41*
%TO.C,U10*%
X275870000Y-95175000D03*
X275870000Y-93895000D03*
X275870000Y-92635000D03*
X275870000Y-91365000D03*
X281230000Y-91365000D03*
X281230000Y-92635000D03*
X281230000Y-93895000D03*
X281230000Y-95175000D03*
%TD*%
D20*
%TO.C,U201*%
X180478000Y-147620000D03*
D12*
X180478000Y-145080000D03*
X180478000Y-134920000D03*
X180478000Y-132380000D03*
X188098000Y-132380000D03*
X188098000Y-134920000D03*
X188098000Y-145080000D03*
X188098000Y-147620000D03*
%TD*%
D26*
%TO.C,R130*%
X214895000Y-110945000D03*
X216395000Y-110945000D03*
%TD*%
%TO.C,R206*%
X147250000Y-138000000D03*
X148750000Y-138000000D03*
%TD*%
D42*
%TO.C,J7*%
X270200000Y-57600000D03*
X272700000Y-65100000D03*
X272700000Y-72500000D03*
X267700000Y-72500000D03*
%TD*%
D33*
%TO.C,C209*%
X180155000Y-163984000D03*
X181555000Y-163984000D03*
%TD*%
D26*
%TO.C,R128*%
X213598000Y-104470000D03*
X215098000Y-104470000D03*
%TD*%
D27*
%TO.C,U106*%
X206249000Y-99760000D03*
X207519000Y-99760000D03*
X208789000Y-99760000D03*
X210059000Y-99760000D03*
X210059000Y-105170000D03*
X208789000Y-105170000D03*
X207519000Y-105170000D03*
X206249000Y-105170000D03*
%TD*%
D33*
%TO.C,C105*%
X225159000Y-108647000D03*
X226559000Y-108647000D03*
%TD*%
D29*
%TO.C,C113*%
X198970000Y-100470000D03*
X200970000Y-100470000D03*
%TD*%
D26*
%TO.C,R124*%
X199220000Y-104470000D03*
X200720000Y-104470000D03*
%TD*%
%TO.C,R210*%
X159845000Y-150595000D03*
X161345000Y-150595000D03*
%TD*%
D43*
%TO.C,C505*%
X351820000Y-60495000D03*
X351820000Y-58495000D03*
%TD*%
D44*
%TO.C,C508*%
X348214000Y-62870000D03*
X348214000Y-61470000D03*
%TD*%
D26*
%TO.C,R510*%
X351645000Y-54095000D03*
X353145000Y-54095000D03*
%TD*%
D45*
%TO.C,U7*%
X315605000Y-112955000D03*
X310525000Y-112955000D03*
X323225000Y-133275000D03*
X313065000Y-133275000D03*
X302905000Y-133275000D03*
X302905000Y-112955000D03*
%TD*%
D33*
%TO.C,C107*%
X157186000Y-102922000D03*
X158586000Y-102922000D03*
%TD*%
D35*
%TO.C,R518*%
X293945000Y-82845000D03*
X293945000Y-81345000D03*
%TD*%
D33*
%TO.C,C111*%
X191078000Y-93520000D03*
X192478000Y-93520000D03*
%TD*%
D32*
%TO.C,D104*%
X169988000Y-117000000D03*
X173368000Y-117000000D03*
%TD*%
D33*
%TO.C,C205*%
X225087000Y-146177000D03*
X226487000Y-146177000D03*
%TD*%
D30*
%TO.C,RT503*%
X267456000Y-94222000D03*
D31*
X266206000Y-91322000D03*
D30*
X264956000Y-94222000D03*
%TD*%
D18*
%TO.C,TP6*%
X152280000Y-94347000D03*
%TD*%
D42*
%TO.C,J10*%
X328000000Y-57600000D03*
X330500000Y-65100000D03*
X330500000Y-72500000D03*
X325500000Y-72500000D03*
%TD*%
D32*
%TO.C,D203*%
X163205000Y-154595000D03*
X166585000Y-154595000D03*
%TD*%
D26*
%TO.C,R112*%
X168628000Y-98000000D03*
X170128000Y-98000000D03*
%TD*%
D42*
%TO.C,J9*%
X313000000Y-57600000D03*
X315500000Y-65100000D03*
X315500000Y-72500000D03*
X310500000Y-72500000D03*
%TD*%
D44*
%TO.C,C510*%
X272820000Y-92015000D03*
X272820000Y-90615000D03*
%TD*%
D29*
%TO.C,C219*%
X213276000Y-138000000D03*
X215276000Y-138000000D03*
%TD*%
D35*
%TO.C,R522*%
X285120000Y-98495000D03*
X285120000Y-96995000D03*
%TD*%
D26*
%TO.C,R521*%
X275120000Y-97895000D03*
X276620000Y-97895000D03*
%TD*%
D46*
%TO.C,J1*%
X380120000Y-81620000D03*
X380120000Y-89620000D03*
D47*
X369120000Y-88820000D03*
X369120000Y-87720000D03*
X369120000Y-86620000D03*
X369120000Y-85520000D03*
X369120000Y-84420000D03*
X369120000Y-83320000D03*
X369120000Y-82220000D03*
X369120000Y-81120000D03*
D48*
X370120000Y-78820000D03*
D49*
X379720000Y-78820000D03*
X379720000Y-94320000D03*
D50*
X370120000Y-93420000D03*
D47*
X369120000Y-80020000D03*
%TD*%
D33*
%TO.C,C114*%
X192473000Y-117000000D03*
X193873000Y-117000000D03*
%TD*%
D26*
%TO.C,R126*%
X232295000Y-112895000D03*
X233795000Y-112895000D03*
%TD*%
%TO.C,R217*%
X171145000Y-150595000D03*
X172645000Y-150595000D03*
%TD*%
D51*
%TO.C,C29*%
X360915000Y-76945000D03*
X355575000Y-76945000D03*
%TD*%
D26*
%TO.C,R216*%
X164145000Y-150595000D03*
X165645000Y-150595000D03*
%TD*%
%TO.C,R118*%
X168628000Y-106000000D03*
X170128000Y-106000000D03*
%TD*%
%TO.C,R116*%
X163928000Y-113000000D03*
X165428000Y-113000000D03*
%TD*%
D33*
%TO.C,C122*%
X208427000Y-96283000D03*
X209827000Y-96283000D03*
%TD*%
D32*
%TO.C,D105*%
X162988000Y-121000000D03*
X166368000Y-121000000D03*
%TD*%
D18*
%TO.C,TP14*%
X163201000Y-111003000D03*
%TD*%
D32*
%TO.C,D103*%
X162988000Y-117000000D03*
X166368000Y-117000000D03*
%TD*%
D33*
%TO.C,C206*%
X231365000Y-137290000D03*
X232765000Y-137290000D03*
%TD*%
D52*
%TO.C,F1*%
X366170000Y-69770000D03*
X362470000Y-69770000D03*
%TD*%
D18*
%TO.C,TP12*%
X176045000Y-109295000D03*
%TD*%
D26*
%TO.C,R219*%
X192148000Y-134000000D03*
X193648000Y-134000000D03*
%TD*%
D29*
%TO.C,C30*%
X366845000Y-78270000D03*
X364845000Y-78270000D03*
%TD*%
D36*
%TO.C,U104*%
X179975000Y-113300000D03*
X181255000Y-113300000D03*
X182525000Y-113300000D03*
X183795000Y-113300000D03*
X185055000Y-113300000D03*
X186325000Y-113300000D03*
X187595000Y-113300000D03*
X188875000Y-113300000D03*
X188875000Y-120700000D03*
X187595000Y-120700000D03*
X186325000Y-120700000D03*
X185055000Y-120700000D03*
X183795000Y-120700000D03*
X182525000Y-120700000D03*
X181255000Y-120700000D03*
X179975000Y-120700000D03*
%TD*%
D42*
%TO.C,J8*%
X287200000Y-57600000D03*
X289700000Y-65100000D03*
X289700000Y-72500000D03*
X284700000Y-72500000D03*
%TD*%
D33*
%TO.C,C106*%
X231437000Y-99760000D03*
X232837000Y-99760000D03*
%TD*%
D26*
%TO.C,R231*%
X239204000Y-138000000D03*
X240704000Y-138000000D03*
%TD*%
D29*
%TO.C,C213*%
X198898000Y-138000000D03*
X200898000Y-138000000D03*
%TD*%
D20*
%TO.C,U101*%
X180235000Y-109540000D03*
D12*
X180235000Y-107000000D03*
X180235000Y-96840000D03*
X180235000Y-94300000D03*
X187855000Y-94300000D03*
X187855000Y-96840000D03*
X187855000Y-107000000D03*
X187855000Y-109540000D03*
%TD*%
D27*
%TO.C,U206*%
X206177000Y-137290000D03*
X207447000Y-137290000D03*
X208717000Y-137290000D03*
X209987000Y-137290000D03*
X209987000Y-142700000D03*
X208717000Y-142700000D03*
X207447000Y-142700000D03*
X206177000Y-142700000D03*
%TD*%
D26*
%TO.C,R226*%
X229126000Y-153000000D03*
X230626000Y-153000000D03*
%TD*%
%TO.C,R232*%
X239204000Y-142000000D03*
X240704000Y-142000000D03*
%TD*%
D43*
%TO.C,C511*%
X271806000Y-97177000D03*
X271806000Y-95177000D03*
%TD*%
D35*
%TO.C,R520*%
X284230000Y-92115000D03*
X284230000Y-90615000D03*
%TD*%
D26*
%TO.C,R110*%
X159628000Y-113000000D03*
X161128000Y-113000000D03*
%TD*%
%TO.C,R111*%
X159628000Y-117000000D03*
X161128000Y-117000000D03*
%TD*%
%TO.C,R129*%
X217898000Y-104470000D03*
X219398000Y-104470000D03*
%TD*%
D30*
%TO.C,RT401*%
X219168000Y-149488000D03*
D31*
X220418000Y-152388000D03*
D30*
X221668000Y-149488000D03*
%TD*%
D26*
%TO.C,R119*%
X192220000Y-96470000D03*
X193720000Y-96470000D03*
%TD*%
D33*
%TO.C,C211*%
X186566000Y-128467000D03*
X187966000Y-128467000D03*
%TD*%
%TO.C,C221*%
X206409000Y-146177000D03*
X207809000Y-146177000D03*
%TD*%
D26*
%TO.C,R215*%
X159845000Y-158595000D03*
X161345000Y-158595000D03*
%TD*%
D35*
%TO.C,R519*%
X266270000Y-84220000D03*
X266270000Y-82720000D03*
%TD*%
M02*
