%TF.GenerationSoftware,KiCad,Pcbnew,7.0.8*%
%TF.CreationDate,2026-09-20T16:03:26-05:00*%
%TF.ProjectId,vuulgaris,7675756c-6761-4726-9973-2e6b69636164,1.0*%
%TF.SameCoordinates,Original*%
%TF.FileFunction,Copper,L1,Top*%
%TF.FilePolarity,Positive*%
%FSLAX46Y46*%
G04 Gerber Fmt 4.6, Leading zero omitted, Abs format (unit mm)*
G04 Created by KiCad (PCBNEW 7.0.8) date 2026-09-20 16:03:26*
%MOMM*%
%LPD*%
G01*
G04 APERTURE LIST*
G04 Aperture macros list*
%AMRoundRect*
0 Rectangle with rounded corners*
0 $1 Rounding radius*
0 $2 $3 $4 $5 $6 $7 $8 $9 X,Y pos of 4 corners*
0 Add a 4 corners polygon primitive as box body*
4,1,4,$2,$3,$4,$5,$6,$7,$8,$9,$2,$3,0*
0 Add four circle primitives for the rounded corners*
1,1,$1+$1,$2,$3*
1,1,$1+$1,$4,$5*
1,1,$1+$1,$6,$7*
1,1,$1+$1,$8,$9*
0 Add four rect primitives between the rounded corners*
20,1,$1+$1,$2,$3,$4,$5,0*
20,1,$1+$1,$4,$5,$6,$7,0*
20,1,$1+$1,$6,$7,$8,$9,0*
20,1,$1+$1,$8,$9,$2,$3,0*%
%AMFreePoly0*
4,1,5,0.300000,-0.650000,-0.300000,-0.650000,-0.300000,0.650000,0.300000,0.650000,0.300000,-0.650000,0.300000,-0.650000,$1*%
G04 Aperture macros list end*
%TA.AperFunction,ComponentPad*%
%ADD10C,1.800000*%
%TD*%
%TA.AperFunction,ComponentPad*%
%ADD11O,3.300000X3.500000*%
%TD*%
%TA.AperFunction,SMDPad,CuDef*%
%ADD12RoundRect,0.150000X-0.825000X-0.150000X0.825000X-0.150000X0.825000X0.150000X-0.825000X0.150000X0*%
%TD*%
%TA.AperFunction,SMDPad,CuDef*%
%ADD13R,0.800000X0.900000*%
%TD*%
%TA.AperFunction,SMDPad,CuDef*%
%ADD14R,0.806000X0.864000*%
%TD*%
%TA.AperFunction,SMDPad,CuDef*%
%ADD15R,1.200000X0.950000*%
%TD*%
%TA.AperFunction,ComponentPad*%
%ADD16C,1.600000*%
%TD*%
%TA.AperFunction,ComponentPad*%
%ADD17O,2.600000X1.600000*%
%TD*%
%TA.AperFunction,SMDPad,CuDef*%
%ADD18R,0.566000X0.540000*%
%TD*%
%TA.AperFunction,SMDPad,CuDef*%
%ADD19R,1.133000X1.377000*%
%TD*%
%TA.AperFunction,ComponentPad*%
%ADD20C,2.200000*%
%TD*%
%TA.AperFunction,SMDPad,CuDef*%
%ADD21R,2.500000X1.100000*%
%TD*%
%TA.AperFunction,SMDPad,CuDef*%
%ADD22R,2.340000X3.600000*%
%TD*%
%TA.AperFunction,SMDPad,CuDef*%
%ADD23R,1.350000X1.410000*%
%TD*%
%TA.AperFunction,ComponentPad*%
%ADD24C,1.879600*%
%TD*%
%TA.AperFunction,SMDPad,CuDef*%
%ADD25R,1.410000X1.350000*%
%TD*%
%TA.AperFunction,ComponentPad*%
%ADD26R,1.700000X1.700000*%
%TD*%
%TA.AperFunction,ComponentPad*%
%ADD27C,1.700000*%
%TD*%
%TA.AperFunction,SMDPad,CuDef*%
%ADD28R,0.900000X0.800000*%
%TD*%
%TA.AperFunction,SMDPad,CuDef*%
%ADD29R,1.100000X2.500000*%
%TD*%
%TA.AperFunction,SMDPad,CuDef*%
%ADD30R,3.600000X2.340000*%
%TD*%
%TA.AperFunction,SMDPad,CuDef*%
%ADD31O,0.600000X2.300000*%
%TD*%
%TA.AperFunction,SMDPad,CuDef*%
%ADD32R,3.500000X1.200000*%
%TD*%
%TA.AperFunction,SMDPad,CuDef*%
%ADD33R,2.700000X0.910000*%
%TD*%
%TA.AperFunction,ComponentPad*%
%ADD34C,2.000000*%
%TD*%
%TA.AperFunction,SMDPad,CuDef*%
%ADD35R,0.500000X0.540000*%
%TD*%
%TA.AperFunction,ComponentPad*%
%ADD36R,1.600000X1.600000*%
%TD*%
%TA.AperFunction,SMDPad,CuDef*%
%ADD37R,0.864000X0.806000*%
%TD*%
%TA.AperFunction,ComponentPad*%
%ADD38C,1.524000*%
%TD*%
%TA.AperFunction,SMDPad,CuDef*%
%ADD39R,0.540000X0.500000*%
%TD*%
%TA.AperFunction,ComponentPad*%
%ADD40O,1.200000X2.000000*%
%TD*%
%TA.AperFunction,ComponentPad*%
%ADD41O,1.200000X1.800000*%
%TD*%
%TA.AperFunction,SMDPad,CuDef*%
%ADD42FreePoly0,180.000000*%
%TD*%
%TA.AperFunction,SMDPad,CuDef*%
%ADD43R,0.300000X1.300000*%
%TD*%
%TA.AperFunction,SMDPad,CuDef*%
%ADD44R,0.800000X0.864000*%
%TD*%
%TA.AperFunction,ComponentPad*%
%ADD45O,2.200000X3.500000*%
%TD*%
%TA.AperFunction,ComponentPad*%
%ADD46R,3.100000X1.600000*%
%TD*%
%TA.AperFunction,ComponentPad*%
%ADD47O,1.800000X3.000000*%
%TD*%
%TA.AperFunction,ComponentPad*%
%ADD48C,2.400000*%
%TD*%
%TA.AperFunction,ViaPad*%
%ADD49C,0.800000*%
%TD*%
%TA.AperFunction,Conductor*%
%ADD50C,0.500000*%
%TD*%
%TA.AperFunction,Conductor*%
%ADD51C,0.250000*%
%TD*%
%TA.AperFunction,Conductor*%
%ADD52C,0.375000*%
%TD*%
%TA.AperFunction,Conductor*%
%ADD53C,0.187400*%
%TD*%
%TA.AperFunction,Conductor*%
%ADD54C,0.600000*%
%TD*%
%TA.AperFunction,Conductor*%
%ADD55C,0.450000*%
%TD*%
%TA.AperFunction,Conductor*%
%ADD56C,0.360000*%
%TD*%
%TA.AperFunction,Conductor*%
%ADD57C,0.799800*%
%TD*%
%TA.AperFunction,Conductor*%
%ADD58C,0.750000*%
%TD*%
G04 APERTURE END LIST*
D10*
%TO.P,ENC3,A,A*%
%TO.N,/ENC3_A*%
X137608000Y-71895000D03*
%TO.P,ENC3,B,B*%
%TO.N,/ENC3_B*%
X142688000Y-71895000D03*
%TO.P,ENC3,C,C*%
%TO.N,/GND*%
X140148000Y-71895000D03*
D11*
%TO.P,ENC3,D,D*%
X145748000Y-64395000D03*
%TO.P,ENC3,E,E*%
X134548000Y-64395000D03*
%TD*%
D12*
%TO.P,U401,1,OUT_A*%
%TO.N,/LPG_ABUF_R*%
X218725000Y-142190000D03*
%TO.P,U401,2,IN_A-*%
%TO.N,/LPG_AFB_R*%
X218725000Y-143460000D03*
%TO.P,U401,3,IN_A+*%
%TO.N,/LPG_INF_R*%
X218725000Y-144730000D03*
%TO.P,U401,4,V+*%
%TO.N,/POS12V*%
X218725000Y-146000000D03*
%TO.P,U401,5,IN_B+*%
%TO.N,/LPG_BP_R*%
X218725000Y-147270000D03*
%TO.P,U401,6,IN_B-*%
%TO.N,/LPG_SUM_R*%
X218725000Y-148540000D03*
%TO.P,U401,7,OUT_B*%
%TO.N,/LPG_BOUT_R*%
X218725000Y-149810000D03*
%TO.P,U401,8,OUT_C*%
%TO.N,/LPG_OUT_R*%
X223675000Y-149810000D03*
%TO.P,U401,9,IN_C-*%
%TO.N,/LPG_CFB_R*%
X223675000Y-148540000D03*
%TO.P,U401,10,IN_C+*%
%TO.N,/LPG_LDR_R*%
X223675000Y-147270000D03*
%TO.P,U401,11,V-*%
%TO.N,/NEG12V*%
X223675000Y-146000000D03*
%TO.P,U401,12,IN_D+*%
%TO.N,/LPG_OUT_R*%
X223675000Y-144730000D03*
%TO.P,U401,13,IN_D-*%
%TO.N,/LPG_RESW_R*%
X223675000Y-143460000D03*
%TO.P,U401,14,OUT_D*%
%TO.N,/LPG_RES_R*%
X223675000Y-142190000D03*
%TD*%
D13*
%TO.P,C409,1*%
%TO.N,/LPG_LDR_R*%
X206300000Y-142000000D03*
%TO.P,C409,2*%
%TO.N,/GND*%
X207700000Y-142000000D03*
%TD*%
D14*
%TO.P,R323,1*%
%TO.N,/LPG_ENV*%
X251150000Y-139000000D03*
%TO.P,R323,2*%
%TO.N,/LPG_CVI_L*%
X252650000Y-139000000D03*
%TD*%
%TO.P,R314,1*%
%TO.N,/LPG_CFB_L*%
X206250000Y-126000000D03*
%TO.P,R314,2*%
%TO.N,/LPG_OUT_L*%
X207750000Y-126000000D03*
%TD*%
D15*
%TO.P,D301,1,C*%
%TO.N,/GND*%
X233945000Y-121895000D03*
%TO.P,D301,2,A*%
%TO.N,/LPG_LED_L*%
X230545000Y-121895000D03*
%TD*%
D14*
%TO.P,R507,1*%
%TO.N,/SD_D0*%
X375250000Y-75000000D03*
%TO.P,R507,2*%
%TO.N,/P3V3_DAISY*%
X376750000Y-75000000D03*
%TD*%
D16*
%TO.P,RV5,1,1*%
%TO.N,/GND*%
X253648000Y-74225000D03*
%TO.P,RV5,2,2*%
%TO.N,/BBD_FB_L*%
X256148000Y-74225000D03*
%TO.P,RV5,3,3*%
%TO.N,/BBD_WETAC_L*%
X258648000Y-74225000D03*
%TO.P,RV5,4,4*%
%TO.N,/GND*%
X253648000Y-71725000D03*
%TO.P,RV5,5,5*%
%TO.N,/BBD_FB_R*%
X256148000Y-71725000D03*
%TO.P,RV5,6,6*%
%TO.N,/BBD_WETAC_R*%
X258648000Y-71725000D03*
D17*
%TO.P,RV5,7,7*%
%TO.N,/GND*%
X251398000Y-64225000D03*
%TO.P,RV5,8,8*%
X260898000Y-64225000D03*
%TD*%
D18*
%TO.P,R21,1,1*%
%TO.N,/I2C_SDA*%
X377150000Y-120020000D03*
%TO.P,R21,2,2*%
%TO.N,/P3V3_DAISY*%
X378010000Y-120020000D03*
%TD*%
D10*
%TO.P,ENC5,A,A*%
%TO.N,/ENC5_A*%
X159608000Y-71895000D03*
%TO.P,ENC5,B,B*%
%TO.N,/ENC5_B*%
X164688000Y-71895000D03*
%TO.P,ENC5,C,C*%
%TO.N,/GND*%
X162148000Y-71895000D03*
D11*
%TO.P,ENC5,D,D*%
X167748000Y-64395000D03*
%TO.P,ENC5,E,E*%
X156548000Y-64395000D03*
%TD*%
D10*
%TO.P,ENC2,A,A*%
%TO.N,/ENC2_A*%
X115608000Y-88351000D03*
%TO.P,ENC2,B,B*%
%TO.N,/ENC2_B*%
X120688000Y-88351000D03*
%TO.P,ENC2,C,C*%
%TO.N,/GND*%
X118148000Y-88351000D03*
D11*
%TO.P,ENC2,D,D*%
X123748000Y-80851000D03*
%TO.P,ENC2,E,E*%
X112548000Y-80851000D03*
%TD*%
D19*
%TO.P,FB1,1,1*%
%TO.N,/P5V*%
X328295000Y-105470000D03*
%TO.P,FB1,2,2*%
%TO.N,/P5V_OLED*%
X330295000Y-105470000D03*
%TD*%
D18*
%TO.P,R20,1,1*%
%TO.N,/I2C_SCL*%
X373140000Y-119920000D03*
%TO.P,R20,2,2*%
%TO.N,/P3V3_DAISY*%
X374000000Y-119920000D03*
%TD*%
D20*
%TO.P,SW5,1,1*%
%TO.N,/BTN2*%
X128076000Y-132413000D03*
%TO.P,SW5,2,2*%
%TO.N,/GND*%
X140576000Y-132413000D03*
%TO.P,SW5,3,3*%
%TO.N,/BTN2*%
X128076000Y-137493000D03*
%TO.P,SW5,4,4*%
%TO.N,/GND*%
X140576000Y-137493000D03*
%TD*%
D14*
%TO.P,R311,1*%
%TO.N,/LPG_ABUF_L*%
X279995000Y-108895000D03*
%TO.P,R311,2*%
%TO.N,/LPG_AFB_L*%
X281495000Y-108895000D03*
%TD*%
D13*
%TO.P,C310,1*%
%TO.N,/LPG_RESW_L*%
X199300000Y-118000000D03*
%TO.P,C310,2*%
%TO.N,/LPG_RES_L*%
X200700000Y-118000000D03*
%TD*%
D14*
%TO.P,R408,1*%
%TO.N,/LPG_BP_R*%
X222250000Y-159000000D03*
%TO.P,R408,2*%
%TO.N,/GND*%
X223750000Y-159000000D03*
%TD*%
D21*
%TO.P,U5,1,GND*%
%TO.N,/GND*%
X315640000Y-107945000D03*
%TO.P,U5,2,VOUT*%
%TO.N,/P3V3_OLED*%
X315640000Y-105645000D03*
%TO.P,U5,3,VIN*%
%TO.N,/P5V_OLED*%
X315640000Y-103345000D03*
D22*
%TO.P,U5,4,VOUT*%
%TO.N,/P3V3_OLED*%
X309700000Y-105645000D03*
%TD*%
D23*
%TO.P,C20,1,1*%
%TO.N,/P3V3_OLED*%
X302645000Y-106495000D03*
%TO.P,C20,2,2*%
%TO.N,/GND*%
X302645000Y-108495000D03*
%TD*%
D10*
%TO.P,ENC1,A,A*%
%TO.N,/ENC1_A*%
X115608000Y-71895000D03*
%TO.P,ENC1,B,B*%
%TO.N,/ENC1_B*%
X120688000Y-71895000D03*
%TO.P,ENC1,C,C*%
%TO.N,/GND*%
X118148000Y-71895000D03*
D11*
%TO.P,ENC1,D,D*%
X123748000Y-64395000D03*
%TO.P,ENC1,E,E*%
X112548000Y-64395000D03*
%TD*%
D24*
%TO.P,U1,A1,-12V*%
%TO.N,/NEG12V*%
X379115000Y-99225000D03*
%TO.P,U1,A2,UART_RX*%
%TO.N,/MSP430_TXD*%
X379115000Y-101765000D03*
%TO.P,U1,A3,UART_TX*%
%TO.N,/MSP430_RXD*%
X379115000Y-104305000D03*
%TO.P,U1,A4,GND*%
%TO.N,/GND*%
X379115000Y-106845000D03*
%TO.P,U1,A5,+12V*%
%TO.N,/POS12V*%
X379115000Y-109385000D03*
%TO.P,U1,A6,+5V*%
%TO.N,/P5V*%
X376575000Y-109385000D03*
%TO.P,U1,A7,GND*%
%TO.N,/GND*%
X376575000Y-106845000D03*
%TO.P,U1,A8,USB_DM*%
%TO.N,unconnected-(U1-USB_DM-PadA8)*%
X376575000Y-104305000D03*
%TO.P,U1,A9,USB_DP*%
%TO.N,/OLED_RES*%
X376575000Y-101765000D03*
%TO.P,U1,A10,+3V3*%
%TO.N,/P3V3_DAISY*%
X376575000Y-99225000D03*
%TO.P,U1,B1,AUDIO_OUT_R*%
%TO.N,/AUDIO_OUT_R*%
X381925000Y-160575000D03*
%TO.P,U1,B2,AUDIO_OUT_L*%
%TO.N,/AUDIO_OUT_L*%
X379385000Y-160575000D03*
%TO.P,U1,B3,AUDIO_IN_R*%
%TO.N,/AUDIO_IN_R*%
X376845000Y-160575000D03*
%TO.P,U1,B4,AUDIO_IN_L*%
%TO.N,/AUDIO_IN_L*%
X374305000Y-160575000D03*
%TO.P,U1,B5,GATE_OUT_1*%
%TO.N,/GATE_OUT_1*%
X371765000Y-160575000D03*
%TO.P,U1,B6,GATE_OUT_2*%
%TO.N,/GATE_OUT_2*%
X371765000Y-158035000D03*
%TO.P,U1,B7,I2C1_SCL*%
%TO.N,/I2C_SCL*%
X374305000Y-158035000D03*
%TO.P,U1,B8,I2C1_SDA*%
%TO.N,/I2C_SDA*%
X376845000Y-158035000D03*
%TO.P,U1,B9,GATE_IN_2*%
%TO.N,unconnected-(U1-GATE_IN_2-PadB9)*%
X379385000Y-158035000D03*
%TO.P,U1,B10,GATE_IN_1*%
%TO.N,/GATE_IN*%
X381925000Y-158035000D03*
%TO.P,U1,C1,CV_OUT_2*%
%TO.N,/TIME_CV*%
X355925000Y-160575000D03*
%TO.P,U1,C2,CV4*%
%TO.N,unconnected-(U1-CV4-PadC2)*%
X353385000Y-160575000D03*
%TO.P,U1,C3,CV3*%
%TO.N,unconnected-(U1-CV3-PadC3)*%
X350845000Y-160575000D03*
%TO.P,U1,C4,CV2*%
%TO.N,unconnected-(U1-CV2-PadC4)*%
X348305000Y-160575000D03*
%TO.P,U1,C5,CV1*%
%TO.N,unconnected-(U1-CV1-PadC5)*%
X345765000Y-160575000D03*
%TO.P,U1,C6,CV5*%
%TO.N,unconnected-(U1-CV5-PadC6)*%
X345765000Y-158035000D03*
%TO.P,U1,C7,CV6*%
%TO.N,unconnected-(U1-CV6-PadC7)*%
X348305000Y-158035000D03*
%TO.P,U1,C8,CV7*%
%TO.N,unconnected-(U1-CV7-PadC8)*%
X350845000Y-158035000D03*
%TO.P,U1,C9,CV8*%
%TO.N,/CV_IN_JACK*%
X353385000Y-158035000D03*
%TO.P,U1,C10,CV_OUT_1*%
%TO.N,/LPG_ENV*%
X355925000Y-158035000D03*
%TO.P,U1,D1,SPI_NSS*%
%TO.N,/OLED_CS*%
X351115000Y-99225000D03*
%TO.P,U1,D2,SDMMC_D3*%
%TO.N,/OLED_DC*%
X351115000Y-101765000D03*
%TO.P,U1,D3,SDMMC_D2*%
%TO.N,unconnected-(U1-SDMMC_D2-PadD3)*%
X351115000Y-104305000D03*
%TO.P,U1,D4,SDMMC_D1*%
%TO.N,unconnected-(U1-SDMMC_D1-PadD4)*%
X351115000Y-106845000D03*
%TO.P,U1,D5,SDMMC_D0*%
%TO.N,/SD_D0*%
X351115000Y-109385000D03*
%TO.P,U1,D6,SDMMC_CK*%
%TO.N,/SD_CLK*%
X348575000Y-109385000D03*
%TO.P,U1,D7,SDMMC_CMD*%
%TO.N,/SD_CMD*%
X348575000Y-106845000D03*
%TO.P,U1,D8,SPI_MISO*%
%TO.N,unconnected-(U1-SPI_MISO-PadD8)*%
X348575000Y-104305000D03*
%TO.P,U1,D9,SPI_MOSI*%
%TO.N,/OLED_MOSI*%
X348575000Y-101765000D03*
%TO.P,U1,D10,SPI_SCK*%
%TO.N,/OLED_SCK*%
X348575000Y-99225000D03*
%TD*%
D25*
%TO.P,C501,1*%
%TO.N,/EXT_AMP_OUT_L*%
X271550000Y-93765000D03*
%TO.P,C501,2*%
%TO.N,/SRC_EXT_L*%
X273550000Y-93765000D03*
%TD*%
D14*
%TO.P,R310,1*%
%TO.N,/AUDIO_OUT_L*%
X275495000Y-116895000D03*
%TO.P,R310,2*%
%TO.N,/GND*%
X276995000Y-116895000D03*
%TD*%
%TO.P,R313,1*%
%TO.N,/LPG_LDR_L*%
X206250000Y-122000000D03*
%TO.P,R313,2*%
%TO.N,/GND*%
X207750000Y-122000000D03*
%TD*%
%TO.P,R428,1*%
%TO.N,/LPG_CVW_R*%
X255650000Y-159000000D03*
%TO.P,R428,2*%
%TO.N,/LPG_SUMCV_R*%
X257150000Y-159000000D03*
%TD*%
D13*
%TO.P,C303,1*%
%TO.N,/POS12V*%
X234651000Y-126714000D03*
%TO.P,C303,2*%
%TO.N,/GND*%
X236051000Y-126714000D03*
%TD*%
D10*
%TO.P,ENC4,A,A*%
%TO.N,/ENC4_A*%
X137608000Y-88351000D03*
%TO.P,ENC4,B,B*%
%TO.N,/ENC4_B*%
X142688000Y-88351000D03*
%TO.P,ENC4,C,C*%
%TO.N,/GND*%
X140148000Y-88351000D03*
D11*
%TO.P,ENC4,D,D*%
X145748000Y-80851000D03*
%TO.P,ENC4,E,E*%
X134548000Y-80851000D03*
%TD*%
D14*
%TO.P,R430,1*%
%TO.N,/LPG_SUMCV_R*%
X255650000Y-163000000D03*
%TO.P,R430,2*%
%TO.N,/LPG_CVD_R*%
X257150000Y-163000000D03*
%TD*%
D26*
%TO.P,VT301,1,A*%
%TO.N,/LPG_LED_L*%
X233695000Y-110355000D03*
D27*
%TO.P,VT301,2,K*%
%TO.N,/LPG_LEDM_L*%
X233695000Y-115435000D03*
%TO.P,VT301,3,CELL1*%
%TO.N,/LPG_ABUF_L*%
X246395000Y-110355000D03*
%TO.P,VT301,4,CELL2*%
%TO.N,/LPG_MID_L*%
X246395000Y-115435000D03*
%TD*%
D13*
%TO.P,C307,1*%
%TO.N,/LPG_MID_L*%
X268545000Y-108895000D03*
%TO.P,C307,2*%
%TO.N,/GND*%
X269945000Y-108895000D03*
%TD*%
D20*
%TO.P,SW9,1,1*%
%TO.N,/BTN6*%
X128076000Y-157813000D03*
%TO.P,SW9,2,2*%
%TO.N,/GND*%
X140576000Y-157813000D03*
%TO.P,SW9,3,3*%
%TO.N,/BTN6*%
X128076000Y-162893000D03*
%TO.P,SW9,4,4*%
%TO.N,/GND*%
X140576000Y-162893000D03*
%TD*%
D14*
%TO.P,R501,1*%
%TO.N,/AUDIO_IN_L*%
X277800000Y-93765000D03*
%TO.P,R501,2*%
%TO.N,/GND*%
X279300000Y-93765000D03*
%TD*%
%TO.P,R420,1*%
%TO.N,/LPG_CVI_R*%
X255650000Y-155000000D03*
%TO.P,R420,2*%
%TO.N,/LPG_ENVN_R*%
X257150000Y-155000000D03*
%TD*%
D13*
%TO.P,C305,1*%
%TO.N,/LPG_SUM_L*%
X217800000Y-139000000D03*
%TO.P,C305,2*%
%TO.N,/LPG_C5_L*%
X219200000Y-139000000D03*
%TD*%
D14*
%TO.P,R315,1*%
%TO.N,/LPG_OUT_L*%
X210750000Y-118000000D03*
%TO.P,R315,2*%
%TO.N,/BBD_IN_L*%
X212250000Y-118000000D03*
%TD*%
D16*
%TO.P,RV6,1,1*%
%TO.N,/BBD_DRY_L*%
X253648000Y-90681000D03*
%TO.P,RV6,2,2*%
%TO.N,/BBD_MIXW_L*%
X256148000Y-90681000D03*
%TO.P,RV6,3,3*%
%TO.N,/BBD_WETAC_L*%
X258648000Y-90681000D03*
%TO.P,RV6,4,4*%
%TO.N,/BBD_DRY_R*%
X253648000Y-88181000D03*
%TO.P,RV6,5,5*%
%TO.N,/BBD_MIXW_R*%
X256148000Y-88181000D03*
%TO.P,RV6,6,6*%
%TO.N,/BBD_WETAC_R*%
X258648000Y-88181000D03*
D17*
%TO.P,RV6,7,7*%
%TO.N,/GND*%
X251398000Y-80681000D03*
%TO.P,RV6,8,8*%
X260898000Y-80681000D03*
%TD*%
D13*
%TO.P,C407,1*%
%TO.N,/LPG_MID_R*%
X270800000Y-142000000D03*
%TO.P,C407,2*%
%TO.N,/GND*%
X272200000Y-142000000D03*
%TD*%
D14*
%TO.P,R328,1*%
%TO.N,/LPG_CVW_L*%
X253395000Y-125895000D03*
%TO.P,R328,2*%
%TO.N,/LPG_SUMCV_L*%
X254895000Y-125895000D03*
%TD*%
D13*
%TO.P,C308,1*%
%TO.N,/LPG_MID_L*%
X268545000Y-112895000D03*
%TO.P,C308,2*%
%TO.N,/LPG_VCFSW_L*%
X269945000Y-112895000D03*
%TD*%
D10*
%TO.P,ENC8,A,A*%
%TO.N,/ENC8_A*%
X181608000Y-88351000D03*
%TO.P,ENC8,B,B*%
%TO.N,/ENC8_B*%
X186688000Y-88351000D03*
%TO.P,ENC8,C,C*%
%TO.N,/GND*%
X184148000Y-88351000D03*
D11*
%TO.P,ENC8,D,D*%
X189748000Y-80851000D03*
%TO.P,ENC8,E,E*%
X178548000Y-80851000D03*
%TD*%
D16*
%TO.P,RV1,1,1*%
%TO.N,/POS12V*%
X209648000Y-74225000D03*
%TO.P,RV1,2,2*%
%TO.N,/LPG_OFS_L*%
X212148000Y-74225000D03*
%TO.P,RV1,3,3*%
%TO.N,/GND*%
X214648000Y-74225000D03*
%TO.P,RV1,4,4*%
%TO.N,/POS12V*%
X209648000Y-71725000D03*
%TO.P,RV1,5,5*%
%TO.N,/LPG_OFS_R*%
X212148000Y-71725000D03*
%TO.P,RV1,6,6*%
%TO.N,/GND*%
X214648000Y-71725000D03*
D17*
%TO.P,RV1,7,7*%
X207398000Y-64225000D03*
%TO.P,RV1,8,8*%
X216898000Y-64225000D03*
%TD*%
D28*
%TO.P,C404,1*%
%TO.N,/NEG12V*%
X250275000Y-158300000D03*
%TO.P,C404,2*%
%TO.N,/GND*%
X250275000Y-159700000D03*
%TD*%
D14*
%TO.P,R318,1*%
%TO.N,/LPG_RESL_L*%
X199250000Y-122000000D03*
%TO.P,R318,2*%
%TO.N,/GND*%
X200750000Y-122000000D03*
%TD*%
D29*
%TO.P,U6,1,GND*%
%TO.N,/GND*%
X331870000Y-120040000D03*
%TO.P,U6,2,VOUT*%
%TO.N,/P3V3_MSP430*%
X334170000Y-120040000D03*
%TO.P,U6,3,VIN*%
%TO.N,/P5V_MSP*%
X336470000Y-120040000D03*
D30*
%TO.P,U6,4,VOUT*%
%TO.N,/P3V3_MSP430*%
X334170000Y-114100000D03*
%TD*%
D31*
%TO.P,U3,1,GPB0*%
%TO.N,/ENC5_A*%
X142750000Y-110060000D03*
%TO.P,U3,2,GPB1*%
%TO.N,/ENC5_B*%
X144020000Y-110060000D03*
%TO.P,U3,3,GPB2*%
%TO.N,/ENC6_A*%
X145280000Y-110060000D03*
%TO.P,U3,4,GPB3*%
%TO.N,/ENC6_B*%
X146550000Y-110060000D03*
%TO.P,U3,5,GPB4*%
%TO.N,/ENC7_A*%
X147830000Y-110060000D03*
%TO.P,U3,6,GPB5*%
%TO.N,/ENC7_B*%
X149090000Y-110060000D03*
%TO.P,U3,7,GPB6*%
%TO.N,/ENC8_A*%
X150360000Y-110060000D03*
%TO.P,U3,8,GPB7*%
%TO.N,/ENC8_B*%
X151640000Y-110060000D03*
%TO.P,U3,9,VDD*%
%TO.N,/P3V3_DAISY*%
X152910000Y-110060000D03*
%TO.P,U3,10,VSS*%
%TO.N,/GND*%
X154170000Y-110060000D03*
%TO.P,U3,11,NC*%
%TO.N,unconnected-(U3-NC-Pad11)*%
X155440000Y-110060000D03*
%TO.P,U3,12,SCL*%
%TO.N,/I2C_SCL*%
X156720000Y-110060000D03*
%TO.P,U3,13,SDA*%
%TO.N,/I2C_SDA*%
X157980000Y-110060000D03*
%TO.P,U3,14,NC*%
%TO.N,unconnected-(U3-NC-Pad14)*%
X159250000Y-110060000D03*
%TO.P,U3,15,A0*%
%TO.N,/GND*%
X159250000Y-99940000D03*
%TO.P,U3,16,A1*%
X157980000Y-99940000D03*
%TO.P,U3,17,A2*%
X156720000Y-99940000D03*
%TO.P,U3,18,~{RESET}*%
%TO.N,/P3V3_DAISY*%
X155440000Y-99940000D03*
%TO.P,U3,19,INTB*%
%TO.N,unconnected-(U3-INTB-Pad19)*%
X154170000Y-99940000D03*
%TO.P,U3,20,INTA*%
%TO.N,unconnected-(U3-INTA-Pad20)*%
X152910000Y-99940000D03*
%TO.P,U3,21,GPA0*%
%TO.N,/ENC1_A*%
X151640000Y-99940000D03*
%TO.P,U3,22,GPA1*%
%TO.N,/ENC1_B*%
X150360000Y-99940000D03*
%TO.P,U3,23,GPA2*%
%TO.N,/ENC2_A*%
X149090000Y-99940000D03*
%TO.P,U3,24,GPA3*%
%TO.N,/ENC2_B*%
X147830000Y-99940000D03*
%TO.P,U3,25,GPA4*%
%TO.N,/ENC3_A*%
X146550000Y-99940000D03*
%TO.P,U3,26,GPA5*%
%TO.N,/ENC3_B*%
X145280000Y-99940000D03*
%TO.P,U3,27,GPA6*%
%TO.N,/ENC4_A*%
X144020000Y-99940000D03*
%TO.P,U3,28,GPA7*%
%TO.N,/ENC4_B*%
X142750000Y-99940000D03*
%TD*%
D32*
%TO.P,C37,1,1*%
%TO.N,/GND*%
X292730000Y-137400000D03*
%TO.P,C37,2,2*%
%TO.N,/NEG12V*%
X298070000Y-137400000D03*
%TD*%
D14*
%TO.P,R411,1*%
%TO.N,/LPG_ABUF_R*%
X282250000Y-142000000D03*
%TO.P,R411,2*%
%TO.N,/LPG_AFB_R*%
X283750000Y-142000000D03*
%TD*%
D33*
%TO.P,C33,1,1*%
%TO.N,/GND*%
X292120000Y-115620000D03*
%TO.P,C33,2,2*%
%TO.N,/NEG12V_RAW*%
X296920000Y-115620000D03*
%TD*%
D13*
%TO.P,C410,1*%
%TO.N,/LPG_RESW_R*%
X199300000Y-142000000D03*
%TO.P,C410,2*%
%TO.N,/LPG_RES_R*%
X200700000Y-142000000D03*
%TD*%
D12*
%TO.P,U402,1,OUT_A*%
%TO.N,/LPG_ENVN_R*%
X241725000Y-155190000D03*
%TO.P,U402,2,IN_A-*%
%TO.N,/LPG_CVI_R*%
X241725000Y-156460000D03*
%TO.P,U402,3,IN_A+*%
%TO.N,/GND*%
X241725000Y-157730000D03*
%TO.P,U402,4,V+*%
%TO.N,/POS12V*%
X241725000Y-159000000D03*
%TO.P,U402,5,IN_B+*%
%TO.N,/GND*%
X241725000Y-160270000D03*
%TO.P,U402,6,IN_B-*%
%TO.N,/LPG_NC_R*%
X241725000Y-161540000D03*
%TO.P,U402,7,OUT_B*%
X241725000Y-162810000D03*
%TO.P,U402,8,OUT_C*%
%TO.N,/LPG_CV_R*%
X246675000Y-162810000D03*
%TO.P,U402,9,IN_C-*%
%TO.N,/LPG_CVC_R*%
X246675000Y-161540000D03*
%TO.P,U402,10,IN_C+*%
%TO.N,/GND*%
X246675000Y-160270000D03*
%TO.P,U402,11,V-*%
%TO.N,/NEG12V*%
X246675000Y-159000000D03*
%TO.P,U402,12,IN_D+*%
%TO.N,/GND*%
X246675000Y-157730000D03*
%TO.P,U402,13,IN_D-*%
%TO.N,/LPG_SUMCV_R*%
X246675000Y-156460000D03*
%TO.P,U402,14,OUT_D*%
%TO.N,/LPG_CVD_R*%
X246675000Y-155190000D03*
%TD*%
D34*
%TO.P,TP3,1,1*%
%TO.N,/P5V*%
X113000000Y-54000000D03*
%TD*%
D14*
%TO.P,R404,1*%
%TO.N,/LPG_C5_R*%
X222250000Y-155000000D03*
%TO.P,R404,2*%
%TO.N,/LPG_CV_R*%
X223750000Y-155000000D03*
%TD*%
D16*
%TO.P,RV4,1,1*%
%TO.N,/BBD_TIMEHI_L*%
X231648000Y-90681000D03*
%TO.P,RV4,2,2*%
%TO.N,/BBD_TIMEW_L*%
X234148000Y-90681000D03*
%TO.P,RV4,3,3*%
%TO.N,/BBD_TIMELO_L*%
X236648000Y-90681000D03*
%TO.P,RV4,4,4*%
%TO.N,/BBD_TIMEHI_R*%
X231648000Y-88181000D03*
%TO.P,RV4,5,5*%
%TO.N,/BBD_TIMEW_R*%
X234148000Y-88181000D03*
%TO.P,RV4,6,6*%
%TO.N,/BBD_TIMELO_R*%
X236648000Y-88181000D03*
D17*
%TO.P,RV4,7,7*%
%TO.N,/GND*%
X229398000Y-80681000D03*
%TO.P,RV4,8,8*%
X238898000Y-80681000D03*
%TD*%
D14*
%TO.P,R320,1*%
%TO.N,/LPG_CVI_L*%
X253395000Y-121895000D03*
%TO.P,R320,2*%
%TO.N,/LPG_ENVN_L*%
X254895000Y-121895000D03*
%TD*%
%TO.P,R407,1*%
%TO.N,/LPG_T1_R*%
X229250000Y-155000000D03*
%TO.P,R407,2*%
%TO.N,/LPG_LED_R*%
X230750000Y-155000000D03*
%TD*%
D10*
%TO.P,ENC7,A,A*%
%TO.N,/ENC7_A*%
X181608000Y-71895000D03*
%TO.P,ENC7,B,B*%
%TO.N,/ENC7_B*%
X186688000Y-71895000D03*
%TO.P,ENC7,C,C*%
%TO.N,/GND*%
X184148000Y-71895000D03*
D11*
%TO.P,ENC7,D,D*%
X189748000Y-64395000D03*
%TO.P,ENC7,E,E*%
X178548000Y-64395000D03*
%TD*%
D13*
%TO.P,C39,1,1*%
%TO.N,/NEG12V*%
X284390000Y-127090000D03*
%TO.P,C39,2,2*%
%TO.N,/GND*%
X285790000Y-127090000D03*
%TD*%
D20*
%TO.P,SW6,1,1*%
%TO.N,/BTN3*%
X112576000Y-145113000D03*
%TO.P,SW6,2,2*%
%TO.N,/GND*%
X125076000Y-145113000D03*
%TO.P,SW6,3,3*%
%TO.N,/BTN3*%
X112576000Y-150193000D03*
%TO.P,SW6,4,4*%
%TO.N,/GND*%
X125076000Y-150193000D03*
%TD*%
D35*
%TO.P,C27,1,1*%
%TO.N,/P3V3_DAISY*%
X369705000Y-120070000D03*
%TO.P,C27,2,2*%
%TO.N,/GND*%
X370545000Y-120070000D03*
%TD*%
%TO.P,C26,1,1*%
%TO.N,/P3V3_DAISY*%
X153325000Y-113995000D03*
%TO.P,C26,2,2*%
%TO.N,/GND*%
X154165000Y-113995000D03*
%TD*%
D19*
%TO.P,FB2,1,1*%
%TO.N,/P5V*%
X329820000Y-108995000D03*
%TO.P,FB2,2,2*%
%TO.N,/P5V_MSP*%
X327820000Y-108995000D03*
%TD*%
D14*
%TO.P,R423,1*%
%TO.N,/LPG_ENV*%
X251150000Y-163000000D03*
%TO.P,R423,2*%
%TO.N,/LPG_CVI_R*%
X252650000Y-163000000D03*
%TD*%
%TO.P,R304,1*%
%TO.N,/LPG_C5_L*%
X219995000Y-121895000D03*
%TO.P,R304,2*%
%TO.N,/LPG_CV_L*%
X221495000Y-121895000D03*
%TD*%
D20*
%TO.P,SW8,1,1*%
%TO.N,/BTN5*%
X112576000Y-157813000D03*
%TO.P,SW8,2,2*%
%TO.N,/GND*%
X125076000Y-157813000D03*
%TO.P,SW8,3,3*%
%TO.N,/BTN5*%
X112576000Y-162893000D03*
%TO.P,SW8,4,4*%
%TO.N,/GND*%
X125076000Y-162893000D03*
%TD*%
D34*
%TO.P,TP2,1,1*%
%TO.N,/NEG12V*%
X108500000Y-54000000D03*
%TD*%
D13*
%TO.P,C302,1*%
%TO.N,/NEG12V*%
X224920000Y-112895000D03*
%TO.P,C302,2*%
%TO.N,/GND*%
X226320000Y-112895000D03*
%TD*%
D14*
%TO.P,R405,1*%
%TO.N,/LPG_SUM_R*%
X217750000Y-159000000D03*
%TO.P,R405,2*%
%TO.N,/LPG_CV_R*%
X219250000Y-159000000D03*
%TD*%
D25*
%TO.P,C504,1*%
%TO.N,/BBD_OUT_R*%
X289550000Y-97765000D03*
%TO.P,C504,2*%
%TO.N,/SRC_RSMP_R*%
X291550000Y-97765000D03*
%TD*%
D13*
%TO.P,C34,1,1*%
%TO.N,/GND*%
X293820000Y-106620000D03*
%TO.P,C34,2,2*%
%TO.N,/POS12V_RAW*%
X295220000Y-106620000D03*
%TD*%
D14*
%TO.P,R417,1*%
%TO.N,/LPG_LED_R*%
X229250000Y-163000000D03*
%TO.P,R417,2*%
%TO.N,/GND*%
X230750000Y-163000000D03*
%TD*%
D12*
%TO.P,U301,1,OUT_A*%
%TO.N,/LPG_ABUF_L*%
X216470000Y-109085000D03*
%TO.P,U301,2,IN_A-*%
%TO.N,/LPG_AFB_L*%
X216470000Y-110355000D03*
%TO.P,U301,3,IN_A+*%
%TO.N,/LPG_INF_L*%
X216470000Y-111625000D03*
%TO.P,U301,4,V+*%
%TO.N,/POS12V*%
X216470000Y-112895000D03*
%TO.P,U301,5,IN_B+*%
%TO.N,/LPG_BP_L*%
X216470000Y-114165000D03*
%TO.P,U301,6,IN_B-*%
%TO.N,/LPG_SUM_L*%
X216470000Y-115435000D03*
%TO.P,U301,7,OUT_B*%
%TO.N,/LPG_BOUT_L*%
X216470000Y-116705000D03*
%TO.P,U301,8,OUT_C*%
%TO.N,/LPG_OUT_L*%
X221420000Y-116705000D03*
%TO.P,U301,9,IN_C-*%
%TO.N,/LPG_CFB_L*%
X221420000Y-115435000D03*
%TO.P,U301,10,IN_C+*%
%TO.N,/LPG_LDR_L*%
X221420000Y-114165000D03*
%TO.P,U301,11,V-*%
%TO.N,/NEG12V*%
X221420000Y-112895000D03*
%TO.P,U301,12,IN_D+*%
%TO.N,/LPG_OUT_L*%
X221420000Y-111625000D03*
%TO.P,U301,13,IN_D-*%
%TO.N,/LPG_RESW_L*%
X221420000Y-110355000D03*
%TO.P,U301,14,OUT_D*%
%TO.N,/LPG_RES_L*%
X221420000Y-109085000D03*
%TD*%
D36*
%TO.P,DS1,1,GND*%
%TO.N,/GND*%
X298048000Y-84709000D03*
D16*
%TO.P,DS1,2,VCC*%
%TO.N,/P3V3_OLED*%
X298048000Y-82169000D03*
%TO.P,DS1,3,SCL*%
%TO.N,/OLED_SCK*%
X298048000Y-79629000D03*
%TO.P,DS1,4,SDA*%
%TO.N,/OLED_MOSI*%
X298048000Y-77089000D03*
%TO.P,DS1,5,RES*%
%TO.N,/OLED_RES*%
X298048000Y-74549000D03*
%TO.P,DS1,6,DC*%
%TO.N,/OLED_DC*%
X298048000Y-72009000D03*
%TO.P,DS1,7,CS1*%
%TO.N,/OLED_CS*%
X298048000Y-69469000D03*
%TO.P,DS1,8,FS0*%
%TO.N,unconnected-(DS1-FS0-Pad8)*%
X298048000Y-66929000D03*
%TO.P,DS1,9,CS2*%
%TO.N,/OLED_FONTCS*%
X298048000Y-64389000D03*
%TD*%
D34*
%TO.P,TP1,1,1*%
%TO.N,/POS12V*%
X104000000Y-54000000D03*
%TD*%
D37*
%TO.P,R503,1*%
%TO.N,/LPG_ENV*%
X128820000Y-63045000D03*
%TO.P,R503,2*%
%TO.N,/CVOUT_JACK*%
X128820000Y-64545000D03*
%TD*%
D14*
%TO.P,R305,1*%
%TO.N,/LPG_SUM_L*%
X215495000Y-125895000D03*
%TO.P,R305,2*%
%TO.N,/LPG_CV_L*%
X216995000Y-125895000D03*
%TD*%
D34*
%TO.P,TP4,1,1*%
%TO.N,/P5V_BBD*%
X117500000Y-54000000D03*
%TD*%
D25*
%TO.P,C25,1,1*%
%TO.N,/P5V_MSP*%
X329170000Y-123070000D03*
%TO.P,C25,2,2*%
%TO.N,/GND*%
X327170000Y-123070000D03*
%TD*%
D14*
%TO.P,R409,1*%
%TO.N,/LPG_INF_R*%
X277750000Y-146000000D03*
%TO.P,R409,2*%
%TO.N,/GND*%
X279250000Y-146000000D03*
%TD*%
%TO.P,R309,1*%
%TO.N,/LPG_INF_L*%
X275495000Y-112895000D03*
%TO.P,R309,2*%
%TO.N,/GND*%
X276995000Y-112895000D03*
%TD*%
D13*
%TO.P,C401,1*%
%TO.N,/POS12V*%
X213906000Y-146819000D03*
%TO.P,C401,2*%
%TO.N,/GND*%
X215306000Y-146819000D03*
%TD*%
D14*
%TO.P,R410,1*%
%TO.N,/AUDIO_OUT_R*%
X277750000Y-150000000D03*
%TO.P,R410,2*%
%TO.N,/GND*%
X279250000Y-150000000D03*
%TD*%
D25*
%TO.P,C502,1*%
%TO.N,/EXT_AMP_OUT_R*%
X289550000Y-93765000D03*
%TO.P,C502,2*%
%TO.N,/SRC_EXT_R*%
X291550000Y-93765000D03*
%TD*%
D12*
%TO.P,U302,1,OUT_A*%
%TO.N,/LPG_ENVN_L*%
X239470000Y-122085000D03*
%TO.P,U302,2,IN_A-*%
%TO.N,/LPG_CVI_L*%
X239470000Y-123355000D03*
%TO.P,U302,3,IN_A+*%
%TO.N,/GND*%
X239470000Y-124625000D03*
%TO.P,U302,4,V+*%
%TO.N,/POS12V*%
X239470000Y-125895000D03*
%TO.P,U302,5,IN_B+*%
%TO.N,/GND*%
X239470000Y-127165000D03*
%TO.P,U302,6,IN_B-*%
%TO.N,/LPG_NC_L*%
X239470000Y-128435000D03*
%TO.P,U302,7,OUT_B*%
X239470000Y-129705000D03*
%TO.P,U302,8,OUT_C*%
%TO.N,/LPG_CV_L*%
X244420000Y-129705000D03*
%TO.P,U302,9,IN_C-*%
%TO.N,/LPG_CVC_L*%
X244420000Y-128435000D03*
%TO.P,U302,10,IN_C+*%
%TO.N,/GND*%
X244420000Y-127165000D03*
%TO.P,U302,11,V-*%
%TO.N,/NEG12V*%
X244420000Y-125895000D03*
%TO.P,U302,12,IN_D+*%
%TO.N,/GND*%
X244420000Y-124625000D03*
%TO.P,U302,13,IN_D-*%
%TO.N,/LPG_SUMCV_L*%
X244420000Y-123355000D03*
%TO.P,U302,14,OUT_D*%
%TO.N,/LPG_CVD_L*%
X244420000Y-122085000D03*
%TD*%
D26*
%TO.P,VT302,1,A*%
%TO.N,/LPG_LEDM_L*%
X251495000Y-110355000D03*
D27*
%TO.P,VT302,2,K*%
%TO.N,/LPG_LEDK_L*%
X251495000Y-115435000D03*
%TO.P,VT302,3,CELL1*%
%TO.N,/LPG_MID_L*%
X264195000Y-110355000D03*
%TO.P,VT302,4,CELL2*%
%TO.N,/LPG_LDR_L*%
X264195000Y-115435000D03*
%TD*%
D14*
%TO.P,R431,1*%
%TO.N,/LPG_CVD_R*%
X260150000Y-155000000D03*
%TO.P,R431,2*%
%TO.N,/LPG_CVC_R*%
X261650000Y-155000000D03*
%TD*%
D10*
%TO.P,SW2,1,A_NC*%
%TO.N,/SRC_EXT_L*%
X284108000Y-83171000D03*
%TO.P,SW2,2,A_COM*%
%TO.N,/AUDIO_IN_L*%
X284108000Y-80631000D03*
%TO.P,SW2,3,A_NO*%
%TO.N,/SRC_RSMP_L*%
X284108000Y-78091000D03*
%TO.P,SW2,4,B_NC*%
%TO.N,/SRC_EXT_R*%
X289188000Y-83171000D03*
%TO.P,SW2,5,B_COM*%
%TO.N,/AUDIO_IN_R*%
X289188000Y-80631000D03*
%TO.P,SW2,6,B_NO*%
%TO.N,/SRC_RSMP_R*%
X289188000Y-78091000D03*
%TD*%
D38*
%TO.P,J12,1,1*%
%TO.N,/P3V3_MSP430*%
X316920000Y-142770000D03*
%TO.P,J12,2,2*%
%TO.N,/GND*%
X316920000Y-140230000D03*
%TO.P,J12,3,3*%
%TO.N,/MSP430_TXD*%
X319460000Y-142770000D03*
%TO.P,J12,4,4*%
%TO.N,/GND*%
X319460000Y-140230000D03*
%TO.P,J12,5,5*%
%TO.N,/MSP430_RXD*%
X322000000Y-142770000D03*
%TO.P,J12,6,6*%
%TO.N,/GND*%
X322000000Y-140230000D03*
%TO.P,J12,7,7*%
%TO.N,/MSP_RST*%
X324540000Y-142770000D03*
%TO.P,J12,8,8*%
%TO.N,/GND*%
X324540000Y-140230000D03*
%TO.P,J12,9,9*%
%TO.N,/MSP_TEST*%
X327080000Y-142770000D03*
%TO.P,J12,10,10*%
%TO.N,/GND*%
X327080000Y-140230000D03*
%TD*%
D35*
%TO.P,C23,1,1*%
%TO.N,/P3V3_MSP430*%
X340590000Y-117070000D03*
%TO.P,C23,2,2*%
%TO.N,/GND*%
X339750000Y-117070000D03*
%TD*%
D13*
%TO.P,C405,1*%
%TO.N,/LPG_SUM_R*%
X217800000Y-163000000D03*
%TO.P,C405,2*%
%TO.N,/LPG_C5_R*%
X219200000Y-163000000D03*
%TD*%
D14*
%TO.P,R414,1*%
%TO.N,/LPG_CFB_R*%
X206250000Y-150000000D03*
%TO.P,R414,2*%
%TO.N,/LPG_OUT_R*%
X207750000Y-150000000D03*
%TD*%
D26*
%TO.P,VT402,1,A*%
%TO.N,/LPG_LEDM_R*%
X253750000Y-143460000D03*
D27*
%TO.P,VT402,2,K*%
%TO.N,/LPG_LEDK_R*%
X253750000Y-148540000D03*
%TO.P,VT402,3,CELL1*%
%TO.N,/LPG_MID_R*%
X266450000Y-143460000D03*
%TO.P,VT402,4,CELL2*%
%TO.N,/LPG_LDR_R*%
X266450000Y-148540000D03*
%TD*%
D10*
%TO.P,ENC6,A,A*%
%TO.N,/ENC6_A*%
X159608000Y-88351000D03*
%TO.P,ENC6,B,B*%
%TO.N,/ENC6_B*%
X164688000Y-88351000D03*
%TO.P,ENC6,C,C*%
%TO.N,/GND*%
X162148000Y-88351000D03*
D11*
%TO.P,ENC6,D,D*%
X167748000Y-80851000D03*
%TO.P,ENC6,E,E*%
X156548000Y-80851000D03*
%TD*%
D14*
%TO.P,R506,1*%
%TO.N,/SD_CMD*%
X371250000Y-75000000D03*
%TO.P,R506,2*%
%TO.N,/P3V3_DAISY*%
X372750000Y-75000000D03*
%TD*%
D15*
%TO.P,D401,1,C*%
%TO.N,/GND*%
X236200000Y-155000000D03*
%TO.P,D401,2,A*%
%TO.N,/LPG_LED_R*%
X232800000Y-155000000D03*
%TD*%
D13*
%TO.P,C301,1*%
%TO.N,/POS12V*%
X211651000Y-113714000D03*
%TO.P,C301,2*%
%TO.N,/GND*%
X213051000Y-113714000D03*
%TD*%
D16*
%TO.P,RV2,1,1*%
%TO.N,/LPG_RES_L*%
X209648000Y-90681000D03*
%TO.P,RV2,2,2*%
%TO.N,/LPG_RESW_L*%
X212148000Y-90681000D03*
%TO.P,RV2,3,3*%
%TO.N,/LPG_RESL_L*%
X214648000Y-90681000D03*
%TO.P,RV2,4,4*%
%TO.N,/LPG_RES_R*%
X209648000Y-88181000D03*
%TO.P,RV2,5,5*%
%TO.N,/LPG_RESW_R*%
X212148000Y-88181000D03*
%TO.P,RV2,6,6*%
%TO.N,/LPG_RESL_R*%
X214648000Y-88181000D03*
D17*
%TO.P,RV2,7,7*%
%TO.N,/GND*%
X207398000Y-80681000D03*
%TO.P,RV2,8,8*%
X216898000Y-80681000D03*
%TD*%
D32*
%TO.P,C36,1,1*%
%TO.N,/POS12V*%
X291725000Y-126245000D03*
%TO.P,C36,2,2*%
%TO.N,/GND*%
X297065000Y-126245000D03*
%TD*%
D39*
%TO.P,C21,1,1*%
%TO.N,/P3V3_OLED*%
X306470000Y-107325000D03*
%TO.P,C21,2,2*%
%TO.N,/GND*%
X306470000Y-108165000D03*
%TD*%
D33*
%TO.P,C32,1,1*%
%TO.N,/POS12V_RAW*%
X295120000Y-102870000D03*
%TO.P,C32,2,2*%
%TO.N,/GND*%
X299920000Y-102870000D03*
%TD*%
D31*
%TO.P,U4,1,GPB0*%
%TO.N,/ENC0_A*%
X174950000Y-125060000D03*
%TO.P,U4,2,GPB1*%
%TO.N,/ENC0_B*%
X176220000Y-125060000D03*
%TO.P,U4,3,GPB2*%
%TO.N,/ENC0_PUSH*%
X177480000Y-125060000D03*
%TO.P,U4,4,GPB3*%
%TO.N,/MSP_RST*%
X178750000Y-125060000D03*
%TO.P,U4,5,GPB4*%
%TO.N,unconnected-(U4-GPB4-Pad5)*%
X180030000Y-125060000D03*
%TO.P,U4,6,GPB5*%
%TO.N,unconnected-(U4-GPB5-Pad6)*%
X181290000Y-125060000D03*
%TO.P,U4,7,GPB6*%
%TO.N,unconnected-(U4-GPB6-Pad7)*%
X182560000Y-125060000D03*
%TO.P,U4,8,GPB7*%
%TO.N,unconnected-(U4-GPB7-Pad8)*%
X183840000Y-125060000D03*
%TO.P,U4,9,VDD*%
%TO.N,/P3V3_DAISY*%
X185110000Y-125060000D03*
%TO.P,U4,10,VSS*%
%TO.N,/GND*%
X186370000Y-125060000D03*
%TO.P,U4,11,NC*%
%TO.N,unconnected-(U4-NC-Pad11)*%
X187640000Y-125060000D03*
%TO.P,U4,12,SCL*%
%TO.N,/I2C_SCL*%
X188920000Y-125060000D03*
%TO.P,U4,13,SDA*%
%TO.N,/I2C_SDA*%
X190180000Y-125060000D03*
%TO.P,U4,14,NC*%
%TO.N,unconnected-(U4-NC-Pad14)*%
X191450000Y-125060000D03*
%TO.P,U4,15,A0*%
%TO.N,/P3V3_DAISY*%
X191450000Y-114940000D03*
%TO.P,U4,16,A1*%
%TO.N,/GND*%
X190180000Y-114940000D03*
%TO.P,U4,17,A2*%
X188920000Y-114940000D03*
%TO.P,U4,18,~{RESET}*%
%TO.N,/P3V3_DAISY*%
X187640000Y-114940000D03*
%TO.P,U4,19,INTB*%
%TO.N,unconnected-(U4-INTB-Pad19)*%
X186370000Y-114940000D03*
%TO.P,U4,20,INTA*%
%TO.N,unconnected-(U4-INTA-Pad20)*%
X185110000Y-114940000D03*
%TO.P,U4,21,GPA0*%
%TO.N,/BTN5*%
X183840000Y-114940000D03*
%TO.P,U4,22,GPA1*%
%TO.N,/BTN6*%
X182560000Y-114940000D03*
%TO.P,U4,23,GPA2*%
%TO.N,unconnected-(U4-GPA2-Pad23)*%
X181290000Y-114940000D03*
%TO.P,U4,24,GPA3*%
%TO.N,unconnected-(U4-GPA3-Pad24)*%
X180030000Y-114940000D03*
%TO.P,U4,25,GPA4*%
%TO.N,/BTN1*%
X178750000Y-114940000D03*
%TO.P,U4,26,GPA5*%
%TO.N,/BTN2*%
X177480000Y-114940000D03*
%TO.P,U4,27,GPA6*%
%TO.N,/BTN3*%
X176220000Y-114940000D03*
%TO.P,U4,28,GPA7*%
%TO.N,/BTN4*%
X174950000Y-114940000D03*
%TD*%
D13*
%TO.P,C38,1,1*%
%TO.N,/GND*%
X284265000Y-110090000D03*
%TO.P,C38,2,2*%
%TO.N,/POS12V*%
X285665000Y-110090000D03*
%TD*%
D14*
%TO.P,R330,1*%
%TO.N,/LPG_SUMCV_L*%
X255650000Y-139000000D03*
%TO.P,R330,2*%
%TO.N,/LPG_CVD_L*%
X257150000Y-139000000D03*
%TD*%
D37*
%TO.P,R504,1*%
%TO.N,/GATE_OUT_1*%
X150345000Y-62895000D03*
%TO.P,R504,2*%
%TO.N,/GATEOUT_JACK*%
X150345000Y-64395000D03*
%TD*%
D40*
%TO.P,J11,1,EH*%
%TO.N,/GND*%
X368940000Y-56470000D03*
D41*
%TO.P,J11,2,EH*%
X368940000Y-52290000D03*
%TO.P,J11,3,EH*%
X377600000Y-52290000D03*
D40*
%TO.P,J11,4,EH*%
X377600000Y-56470000D03*
D42*
%TO.P,J11,A1B12,GND*%
X376470000Y-57230000D03*
%TO.P,J11,A4B9,VBUS*%
%TO.N,/VBUS*%
X375670000Y-57230000D03*
D43*
%TO.P,J11,A5,CC1*%
%TO.N,/CC1*%
X374520000Y-57230000D03*
%TO.P,J11,A6,DP1*%
%TO.N,unconnected-(J11-DP1-PadA6)*%
X373520000Y-57230000D03*
%TO.P,J11,A7,DN1*%
%TO.N,unconnected-(J11-DN1-PadA7)*%
X373020000Y-57230000D03*
%TO.P,J11,A8,SBU1*%
%TO.N,unconnected-(J11-SBU1-PadA8)*%
X372020000Y-57230000D03*
D42*
%TO.P,J11,B1A12,GND*%
%TO.N,/GND*%
X370070000Y-57230000D03*
%TO.P,J11,B4A9,VBUS*%
%TO.N,/VBUS*%
X370870000Y-57230000D03*
D43*
%TO.P,J11,B5,CC2*%
%TO.N,/CC2*%
X371520000Y-57230000D03*
%TO.P,J11,B6,DP2*%
%TO.N,unconnected-(J11-DP2-PadB6)*%
X372520000Y-57230000D03*
%TO.P,J11,B7,DN2*%
%TO.N,unconnected-(J11-DN2-PadB7)*%
X374020000Y-57230000D03*
%TO.P,J11,B8,SBU2*%
%TO.N,unconnected-(J11-SBU2-PadB8)*%
X375020000Y-57230000D03*
%TD*%
D14*
%TO.P,R303,1*%
%TO.N,/LPG_OFS_L*%
X215495000Y-121895000D03*
%TO.P,R303,2*%
%TO.N,/LPG_SUM_L*%
X216995000Y-121895000D03*
%TD*%
D13*
%TO.P,C408,1*%
%TO.N,/LPG_MID_R*%
X270800000Y-146000000D03*
%TO.P,C408,2*%
%TO.N,/LPG_VCFSW_R*%
X272200000Y-146000000D03*
%TD*%
D14*
%TO.P,R433,1*%
%TO.N,/LPG_CVC_R*%
X260150000Y-159000000D03*
%TO.P,R433,2*%
%TO.N,/LPG_CV_R*%
X261650000Y-159000000D03*
%TD*%
%TO.P,R24,1,1*%
%TO.N,/LED_POS*%
X285910000Y-123290000D03*
%TO.P,R24,2,2*%
%TO.N,/POS12V*%
X287410000Y-123290000D03*
%TD*%
%TO.P,R505,1*%
%TO.N,/OLED_FONTCS*%
X307250000Y-98000000D03*
%TO.P,R505,2*%
%TO.N,/P3V3_OLED*%
X308750000Y-98000000D03*
%TD*%
%TO.P,R406,1*%
%TO.N,/LPG_BOUT_R*%
X229250000Y-159000000D03*
%TO.P,R406,2*%
%TO.N,/LPG_LEDK_R*%
X230750000Y-159000000D03*
%TD*%
%TO.P,R508,1*%
%TO.N,/SD_DAT3*%
X379250000Y-75000000D03*
%TO.P,R508,2*%
%TO.N,/P3V3_DAISY*%
X380750000Y-75000000D03*
%TD*%
%TO.P,R331,1*%
%TO.N,/LPG_CVD_L*%
X257895000Y-121895000D03*
%TO.P,R331,2*%
%TO.N,/LPG_CVC_L*%
X259395000Y-121895000D03*
%TD*%
%TO.P,R415,1*%
%TO.N,/LPG_OUT_R*%
X210750000Y-142000000D03*
%TO.P,R415,2*%
%TO.N,/BBD_IN_R*%
X212250000Y-142000000D03*
%TD*%
D13*
%TO.P,C402,1*%
%TO.N,/NEG12V*%
X227175000Y-146000000D03*
%TO.P,C402,2*%
%TO.N,/GND*%
X228575000Y-146000000D03*
%TD*%
D26*
%TO.P,VT401,1,A*%
%TO.N,/LPG_LED_R*%
X235950000Y-143460000D03*
D27*
%TO.P,VT401,2,K*%
%TO.N,/LPG_LEDM_R*%
X235950000Y-148540000D03*
%TO.P,VT401,3,CELL1*%
%TO.N,/LPG_ABUF_R*%
X248650000Y-143460000D03*
%TO.P,VT401,4,CELL2*%
%TO.N,/LPG_MID_R*%
X248650000Y-148540000D03*
%TD*%
D14*
%TO.P,R403,1*%
%TO.N,/LPG_OFS_R*%
X217750000Y-155000000D03*
%TO.P,R403,2*%
%TO.N,/LPG_SUM_R*%
X219250000Y-155000000D03*
%TD*%
D25*
%TO.P,C503,1*%
%TO.N,/BBD_OUT_L*%
X271550000Y-97765000D03*
%TO.P,C503,2*%
%TO.N,/SRC_RSMP_L*%
X273550000Y-97765000D03*
%TD*%
D13*
%TO.P,C309,1*%
%TO.N,/LPG_LDR_L*%
X206300000Y-118000000D03*
%TO.P,C309,2*%
%TO.N,/GND*%
X207700000Y-118000000D03*
%TD*%
D10*
%TO.P,SW1,1,A_NC*%
%TO.N,/LPG_RES_L*%
X271108000Y-83171000D03*
%TO.P,SW1,2,A_COM*%
%TO.N,/LPG_VCFSW_L*%
X271108000Y-80631000D03*
%TO.P,SW1,3,A_NO*%
%TO.N,unconnected-(SW1-A_NO-Pad3)*%
X271108000Y-78091000D03*
%TO.P,SW1,4,B_NC*%
%TO.N,/LPG_RES_R*%
X276188000Y-83171000D03*
%TO.P,SW1,5,B_COM*%
%TO.N,/LPG_VCFSW_R*%
X276188000Y-80631000D03*
%TO.P,SW1,6,B_NO*%
%TO.N,unconnected-(SW1-B_NO-Pad6)*%
X276188000Y-78091000D03*
%TD*%
D16*
%TO.P,RV3,1,1*%
%TO.N,/LPG_ENV*%
X231648000Y-74225000D03*
%TO.P,RV3,2,2*%
%TO.N,/LPG_CVW_L*%
X234148000Y-74225000D03*
%TO.P,RV3,3,3*%
%TO.N,/LPG_ENVN_L*%
X236648000Y-74225000D03*
%TO.P,RV3,4,4*%
%TO.N,/LPG_ENV*%
X231648000Y-71725000D03*
%TO.P,RV3,5,5*%
%TO.N,/LPG_CVW_R*%
X234148000Y-71725000D03*
%TO.P,RV3,6,6*%
%TO.N,/LPG_ENVN_R*%
X236648000Y-71725000D03*
D17*
%TO.P,RV3,7,7*%
%TO.N,/GND*%
X229398000Y-64225000D03*
%TO.P,RV3,8,8*%
X238898000Y-64225000D03*
%TD*%
D14*
%TO.P,R308,1*%
%TO.N,/LPG_BP_L*%
X219995000Y-125895000D03*
%TO.P,R308,2*%
%TO.N,/GND*%
X221495000Y-125895000D03*
%TD*%
%TO.P,R418,1*%
%TO.N,/LPG_RESL_R*%
X199250000Y-146000000D03*
%TO.P,R418,2*%
%TO.N,/GND*%
X200750000Y-146000000D03*
%TD*%
%TO.P,R317,1*%
%TO.N,/LPG_LED_L*%
X229250000Y-139000000D03*
%TO.P,R317,2*%
%TO.N,/GND*%
X230750000Y-139000000D03*
%TD*%
D25*
%TO.P,C24,1,1*%
%TO.N,/P5V_OLED*%
X319670000Y-103445000D03*
%TO.P,C24,2,2*%
%TO.N,/GND*%
X321670000Y-103445000D03*
%TD*%
D20*
%TO.P,SW4,1,1*%
%TO.N,/BTN1*%
X112576000Y-132413000D03*
%TO.P,SW4,2,2*%
%TO.N,/GND*%
X125076000Y-132413000D03*
%TO.P,SW4,3,3*%
%TO.N,/BTN1*%
X112576000Y-137493000D03*
%TO.P,SW4,4,4*%
%TO.N,/GND*%
X125076000Y-137493000D03*
%TD*%
D14*
%TO.P,R502,1*%
%TO.N,/AUDIO_IN_R*%
X277800000Y-97765000D03*
%TO.P,R502,2*%
%TO.N,/GND*%
X279300000Y-97765000D03*
%TD*%
%TO.P,R307,1*%
%TO.N,/LPG_T1_L*%
X226995000Y-121895000D03*
%TO.P,R307,2*%
%TO.N,/LPG_LED_L*%
X228495000Y-121895000D03*
%TD*%
D20*
%TO.P,SW7,1,1*%
%TO.N,/BTN4*%
X128076000Y-145113000D03*
%TO.P,SW7,2,2*%
%TO.N,/GND*%
X140576000Y-145113000D03*
%TO.P,SW7,3,3*%
%TO.N,/BTN4*%
X128076000Y-150193000D03*
%TO.P,SW7,4,4*%
%TO.N,/GND*%
X140576000Y-150193000D03*
%TD*%
D13*
%TO.P,C35,1,1*%
%TO.N,/NEG12V_RAW*%
X293820000Y-119620000D03*
%TO.P,C35,2,2*%
%TO.N,/GND*%
X295220000Y-119620000D03*
%TD*%
D44*
%TO.P,L1,1,1*%
%TO.N,/POS12V_RAW*%
X289570000Y-101570000D03*
%TO.P,L1,2,2*%
%TO.N,/POS12V*%
X290970000Y-101570000D03*
%TD*%
D23*
%TO.P,C22,1,1*%
%TO.N,/P3V3_MSP430*%
X328170000Y-116070000D03*
%TO.P,C22,2,2*%
%TO.N,/GND*%
X328170000Y-118070000D03*
%TD*%
D25*
%TO.P,C406,1*%
%TO.N,/AUDIO_OUT_R*%
X277500000Y-142000000D03*
%TO.P,C406,2*%
%TO.N,/LPG_INF_R*%
X279500000Y-142000000D03*
%TD*%
D45*
%TO.P,ENC0,6,EH*%
%TO.N,/GND*%
X121076000Y-116403000D03*
%TO.P,ENC0,7,EH*%
X132076000Y-116453000D03*
D10*
%TO.P,ENC0,A,A*%
%TO.N,/ENC0_A*%
X124076000Y-123903000D03*
%TO.P,ENC0,B,B*%
%TO.N,/ENC0_B*%
X129076000Y-123903000D03*
%TO.P,ENC0,C,C*%
%TO.N,/GND*%
X126576000Y-123903000D03*
%TO.P,ENC0,D,D*%
%TO.N,/ENC0_PUSH*%
X124076000Y-109403000D03*
%TO.P,ENC0,E,E*%
%TO.N,/GND*%
X129076000Y-109403000D03*
%TD*%
D37*
%TO.P,R25,1,1*%
%TO.N,/LED_NEG*%
X283315000Y-120665000D03*
%TO.P,R25,2,2*%
%TO.N,/NEG12V*%
X283315000Y-119165000D03*
%TD*%
D14*
%TO.P,R333,1*%
%TO.N,/LPG_CVC_L*%
X257895000Y-125895000D03*
%TO.P,R333,2*%
%TO.N,/LPG_CV_L*%
X259395000Y-125895000D03*
%TD*%
D44*
%TO.P,L2,1,1*%
%TO.N,/NEG12V_RAW*%
X284240000Y-103915000D03*
%TO.P,L2,2,2*%
%TO.N,/NEG12V*%
X285640000Y-103915000D03*
%TD*%
D35*
%TO.P,D1,1,A*%
%TO.N,/LED_POS*%
X285465000Y-115115000D03*
%TO.P,D1,2,K*%
%TO.N,/GND*%
X284625000Y-115115000D03*
%TD*%
%TO.P,D2,1,A*%
%TO.N,/GND*%
X288830000Y-140695000D03*
%TO.P,D2,2,K*%
%TO.N,/LED_NEG*%
X287990000Y-140695000D03*
%TD*%
D14*
%TO.P,R413,1*%
%TO.N,/LPG_LDR_R*%
X206250000Y-146000000D03*
%TO.P,R413,2*%
%TO.N,/GND*%
X207750000Y-146000000D03*
%TD*%
D25*
%TO.P,C306,1*%
%TO.N,/AUDIO_OUT_L*%
X275245000Y-108895000D03*
%TO.P,C306,2*%
%TO.N,/LPG_INF_L*%
X277245000Y-108895000D03*
%TD*%
D14*
%TO.P,R306,1*%
%TO.N,/LPG_BOUT_L*%
X226995000Y-125895000D03*
%TO.P,R306,2*%
%TO.N,/LPG_LEDK_L*%
X228495000Y-125895000D03*
%TD*%
D34*
%TO.P,TP5,1,1*%
%TO.N,/GND*%
X122000000Y-54000000D03*
%TD*%
D13*
%TO.P,C304,1*%
%TO.N,/NEG12V*%
X247920000Y-125895000D03*
%TO.P,C304,2*%
%TO.N,/GND*%
X249320000Y-125895000D03*
%TD*%
%TO.P,C403,1*%
%TO.N,/POS12V*%
X236906000Y-159819000D03*
%TO.P,C403,2*%
%TO.N,/GND*%
X238306000Y-159819000D03*
%TD*%
D46*
%TO.P,J4,1,1*%
%TO.N,/GND*%
X173150000Y-51500000D03*
%TO.P,J4,2,2*%
X173150000Y-55000000D03*
%TO.P,J4,3,3*%
%TO.N,/CV_IN_JACK*%
X173150000Y-58500000D03*
%TD*%
%TO.P,J3,1,1*%
%TO.N,/GND*%
X151150000Y-51500000D03*
%TO.P,J3,2,2*%
X151150000Y-55000000D03*
%TO.P,J3,3,3*%
%TO.N,/GATEOUT_JACK*%
X151150000Y-58500000D03*
%TD*%
D34*
%TO.P,TP9,1,1*%
%TO.N,/BBD_SIGIN_R*%
X172128000Y-146000000D03*
%TD*%
D46*
%TO.P,J2,1,1*%
%TO.N,/GND*%
X129150000Y-51500000D03*
%TO.P,J2,2,2*%
X129150000Y-55000000D03*
%TO.P,J2,3,3*%
%TO.N,/CVOUT_JACK*%
X129150000Y-58500000D03*
%TD*%
D34*
%TO.P,TP13,1,1*%
%TO.N,/BBD_CLK_R*%
X176570000Y-156845000D03*
%TD*%
D46*
%TO.P,J5,1,1*%
%TO.N,/GND*%
X195150000Y-51500000D03*
%TO.P,J5,2,2*%
X195150000Y-55000000D03*
%TO.P,J5,3,3*%
%TO.N,/GATE_IN*%
X195150000Y-58500000D03*
%TD*%
D34*
%TO.P,TP8,1,1*%
%TO.N,/BBD_SIGIN_L*%
X172128000Y-106000000D03*
%TD*%
%TO.P,TP11,1,1*%
%TO.N,/LPG_LED_R*%
X233350000Y-157053000D03*
%TD*%
%TO.P,TP7,1,1*%
%TO.N,/BBD_DRY_R*%
X152280000Y-134347000D03*
%TD*%
D46*
%TO.P,J6,1,1*%
%TO.N,/GND*%
X344845000Y-51500000D03*
%TO.P,J6,2,2*%
%TO.N,/HP_OUT_R*%
X344845000Y-55000000D03*
%TO.P,J6,3,3*%
%TO.N,/HP_OUT_L*%
X344845000Y-58500000D03*
%TD*%
D34*
%TO.P,TP15,1,1*%
%TO.N,/LPG_ENV*%
X251324000Y-140992000D03*
%TD*%
%TO.P,TP10,1,1*%
%TO.N,/LPG_LED_L*%
X231095000Y-123948000D03*
%TD*%
D36*
%TO.P,U201,1,GND*%
%TO.N,/GND*%
X180478000Y-147620000D03*
D16*
%TO.P,U201,2,CP2*%
%TO.N,/BBD_CLKN_R*%
X180478000Y-145080000D03*
%TO.P,U201,3,OUT1*%
%TO.N,unconnected-(U201-OUT1-Pad3)*%
X180478000Y-134920000D03*
%TO.P,U201,4,OUT2*%
%TO.N,/BBD_RAW_R*%
X180478000Y-132380000D03*
%TO.P,U201,5,VDD*%
%TO.N,/P5V_BBD*%
X188098000Y-132380000D03*
%TO.P,U201,6,CP1*%
%TO.N,/BBD_CLK_R*%
X188098000Y-134920000D03*
%TO.P,U201,7,IN*%
%TO.N,/BBD_SIGIN_R*%
X188098000Y-145080000D03*
%TO.P,U201,8,VGG*%
%TO.N,/BBD_VGG_R*%
X188098000Y-147620000D03*
%TD*%
D47*
%TO.P,J7,2,2*%
%TO.N,/GND*%
X270200000Y-57600000D03*
%TO.P,J7,3,3*%
X272700000Y-65100000D03*
%TO.P,J7,4,4*%
%TO.N,/EXT_IN_L*%
X272700000Y-72500000D03*
%TO.P,J7,5,5*%
%TO.N,/GND*%
X267700000Y-72500000D03*
%TD*%
D48*
%TO.P,U7,1,+Vin*%
%TO.N,/VBUS_F*%
X315605000Y-112955000D03*
%TO.P,U7,2,-Vin*%
%TO.N,/GND*%
X310525000Y-112955000D03*
%TO.P,U7,3,+Vout*%
%TO.N,/POS12V_RAW*%
X323225000Y-133275000D03*
%TO.P,U7,4,Common*%
%TO.N,/GND*%
X313065000Y-133275000D03*
%TO.P,U7,5,-Vout*%
%TO.N,/NEG12V_RAW*%
X302905000Y-133275000D03*
%TO.P,U7,6,R.C.*%
%TO.N,unconnected-(U7-R.C.-Pad6)*%
X302905000Y-112955000D03*
%TD*%
D34*
%TO.P,TP6,1,1*%
%TO.N,/BBD_DRY_L*%
X152280000Y-94347000D03*
%TD*%
D47*
%TO.P,J10,2,2*%
%TO.N,/GND*%
X328000000Y-57600000D03*
%TO.P,J10,3,3*%
%TO.N,unconnected-(J10-Pad3)*%
X330500000Y-65100000D03*
%TO.P,J10,4,4*%
%TO.N,/LINE_OUT_R*%
X330500000Y-72500000D03*
%TO.P,J10,5,5*%
%TO.N,/GND*%
X325500000Y-72500000D03*
%TD*%
%TO.P,J9,2,2*%
%TO.N,/GND*%
X313000000Y-57600000D03*
%TO.P,J9,3,3*%
%TO.N,unconnected-(J9-Pad3)*%
X315500000Y-65100000D03*
%TO.P,J9,4,4*%
%TO.N,/LINE_OUT_L*%
X315500000Y-72500000D03*
%TO.P,J9,5,5*%
%TO.N,/GND*%
X310500000Y-72500000D03*
%TD*%
D34*
%TO.P,TP14,1,1*%
%TO.N,/TIME_CV*%
X163201000Y-111003000D03*
%TD*%
%TO.P,TP12,1,1*%
%TO.N,/BBD_CLK_L*%
X176045000Y-109295000D03*
%TD*%
D47*
%TO.P,J8,2,2*%
%TO.N,/GND*%
X287200000Y-57600000D03*
%TO.P,J8,3,3*%
X289700000Y-65100000D03*
%TO.P,J8,4,4*%
%TO.N,/EXT_IN_R*%
X289700000Y-72500000D03*
%TO.P,J8,5,5*%
%TO.N,/GND*%
X284700000Y-72500000D03*
%TD*%
D36*
%TO.P,U101,1,GND*%
%TO.N,/GND*%
X180235000Y-109540000D03*
D16*
%TO.P,U101,2,CP2*%
%TO.N,/BBD_CLKN_L*%
X180235000Y-107000000D03*
%TO.P,U101,3,OUT1*%
%TO.N,unconnected-(U101-OUT1-Pad3)*%
X180235000Y-96840000D03*
%TO.P,U101,4,OUT2*%
%TO.N,/BBD_RAW_L*%
X180235000Y-94300000D03*
%TO.P,U101,5,VDD*%
%TO.N,/P5V_BBD*%
X187855000Y-94300000D03*
%TO.P,U101,6,CP1*%
%TO.N,/BBD_CLK_L*%
X187855000Y-96840000D03*
%TO.P,U101,7,IN*%
%TO.N,/BBD_SIGIN_L*%
X187855000Y-107000000D03*
%TO.P,U101,8,VGG*%
%TO.N,/BBD_VGG_L*%
X187855000Y-109540000D03*
%TD*%
D49*
%TO.N,/GND*%
X250370000Y-125895000D03*
X207809000Y-147227000D03*
X301160100Y-109979900D03*
X220365200Y-141400000D03*
X163819000Y-99090000D03*
X340222000Y-64378000D03*
X167000000Y-164800000D03*
X165141700Y-132750500D03*
X327170000Y-124370000D03*
X306702900Y-109034300D03*
X226604700Y-113957500D03*
X241070000Y-124625000D03*
X371945000Y-71419200D03*
X278045000Y-116895000D03*
X186370000Y-126810000D03*
X315640000Y-109095000D03*
X207415300Y-116937500D03*
X159750000Y-163500000D03*
X216698000Y-100470000D03*
X148750000Y-139050000D03*
X277220000Y-98934200D03*
X227609000Y-108647000D03*
X149220000Y-96670000D03*
X276995000Y-113945000D03*
X193492200Y-93791800D03*
X172474200Y-158297400D03*
X231800000Y-163000000D03*
X233945000Y-122995000D03*
X165268000Y-121000000D03*
X357245000Y-75745000D03*
X157980000Y-98190000D03*
X155065000Y-113995000D03*
X232765000Y-136240000D03*
X289730000Y-140695000D03*
X340059700Y-71893500D03*
X226326000Y-158050000D03*
X273920000Y-90615000D03*
X161345000Y-155645000D03*
X162700000Y-164550000D03*
X190745000Y-113170000D03*
X284070000Y-96995000D03*
X163366100Y-138980400D03*
X187966000Y-129517000D03*
X321670000Y-102145000D03*
X201802500Y-97095000D03*
X215306000Y-148669000D03*
X356995000Y-61370000D03*
X208800000Y-122000000D03*
X159636000Y-142922000D03*
X241063800Y-127592100D03*
X200648000Y-135050000D03*
X208832500Y-146625000D03*
X294104700Y-107682500D03*
X160528000Y-118039200D03*
X362380800Y-63391800D03*
X295220000Y-118520000D03*
X193648000Y-139050000D03*
X348214000Y-59270000D03*
X368917900Y-77617900D03*
X367670000Y-83320000D03*
X251325000Y-159700000D03*
X370300000Y-66000000D03*
X285790000Y-128140000D03*
X188875000Y-111900000D03*
X228396200Y-148086200D03*
X236200000Y-156100000D03*
X280300000Y-146000000D03*
X151187000Y-157995000D03*
X200720000Y-105520000D03*
X219398000Y-103420000D03*
X280300000Y-150000000D03*
X231676000Y-153000000D03*
X193923000Y-122050000D03*
X308720000Y-77170000D03*
X322770000Y-79045000D03*
X376470100Y-58580000D03*
X379720000Y-95520000D03*
X370545000Y-120970000D03*
X243325000Y-160270000D03*
X190920000Y-154695000D03*
X272200000Y-143050000D03*
X234845000Y-112895000D03*
X193898000Y-143300000D03*
X194973000Y-161000000D03*
X199273000Y-153000000D03*
X296215000Y-127717200D03*
X339750000Y-117970000D03*
X231789200Y-138400000D03*
X240125000Y-157730000D03*
X207999000Y-108770000D03*
X222545000Y-125895000D03*
X229625000Y-146000000D03*
X216870000Y-135520000D03*
X154842900Y-112571400D03*
X160169200Y-99020800D03*
X371520000Y-93420000D03*
X181270300Y-122921500D03*
X279300000Y-92715000D03*
X210452000Y-95200500D03*
X201800000Y-122000000D03*
X281255000Y-98707500D03*
X159636000Y-102922000D03*
X165474200Y-158297400D03*
X213335700Y-114776500D03*
X199913400Y-113452900D03*
X293180700Y-116680700D03*
X200648000Y-143500000D03*
X235766300Y-125651500D03*
X293053500Y-138607400D03*
X279300000Y-98815000D03*
X283250800Y-110361800D03*
X267332500Y-82435300D03*
X283958200Y-89600800D03*
X209755000Y-134863000D03*
X238306000Y-158769000D03*
X380445000Y-77564300D03*
X270229700Y-109957500D03*
X299635300Y-101807500D03*
X233887000Y-99760000D03*
X367595000Y-64200000D03*
X245081200Y-158157100D03*
X241956900Y-125285000D03*
X182605000Y-163984000D03*
X209245000Y-144845000D03*
X226326000Y-118050000D03*
X353020000Y-64045000D03*
X340904000Y-71348700D03*
X224800000Y-159000000D03*
X166370000Y-92920000D03*
X200750000Y-147050000D03*
X193845000Y-102170000D03*
X366845000Y-79570000D03*
X246020000Y-127165000D03*
X156720000Y-98190000D03*
X329470000Y-118070000D03*
X248275000Y-160270000D03*
X174450500Y-120375000D03*
X331870000Y-121940000D03*
X284625000Y-116015000D03*
%TO.N,/P3V3_OLED*%
X302646000Y-105153500D03*
%TO.N,/P3V3_MSP430*%
X334170000Y-121991300D03*
X331763700Y-114254600D03*
%TO.N,/P5V_OLED*%
X330295000Y-104121700D03*
X319846400Y-104748100D03*
%TO.N,/P5V_MSP*%
X329570000Y-121775100D03*
X327820000Y-110307400D03*
%TO.N,/P3V3_DAISY*%
X153325000Y-112830700D03*
X377320700Y-76064700D03*
X155622900Y-101724600D03*
X188224200Y-116505100D03*
X374902600Y-119826400D03*
X368823800Y-120070000D03*
X372750000Y-76084000D03*
X367669300Y-85520000D03*
%TO.N,/ENC0_A*%
X174752200Y-123304600D03*
%TO.N,/ENC0_B*%
X175813600Y-122584900D03*
%TO.N,/ENC0_PUSH*%
X160630300Y-126658000D03*
X176540500Y-123283800D03*
%TO.N,/ENC1_B*%
X149778500Y-98374600D03*
%TO.N,/ENC1_A*%
X151025300Y-98384000D03*
%TO.N,/ENC2_B*%
X146520000Y-96213200D03*
%TO.N,/ENC2_A*%
X147974500Y-96174700D03*
%TO.N,/ENC3_B*%
X145280000Y-101718600D03*
%TO.N,/ENC3_A*%
X145848100Y-97761200D03*
%TO.N,/ENC4_A*%
X144020000Y-97761200D03*
%TO.N,/ENC5_B*%
X145140600Y-108275100D03*
%TO.N,/ENC5_A*%
X143311600Y-108483300D03*
%TO.N,/ENC6_B*%
X147380200Y-108366100D03*
%TO.N,/ENC6_A*%
X146366700Y-108280400D03*
%TO.N,/ENC7_B*%
X164873700Y-105996000D03*
X150088200Y-107881800D03*
%TO.N,/ENC7_A*%
X164870400Y-104993900D03*
X149096900Y-108307400D03*
%TO.N,/ENC8_B*%
X166792300Y-107905400D03*
X151640000Y-111838100D03*
%TO.N,/ENC8_A*%
X166621100Y-112546400D03*
%TO.N,/LPG_C5_L*%
X219200000Y-137923800D03*
X219995000Y-122952800D03*
%TO.N,/LPG_SUM_L*%
X217322900Y-118034300D03*
X217073100Y-137988600D03*
%TO.N,/P5V*%
X331008100Y-109164900D03*
X118640800Y-51495400D03*
%TO.N,/SD_D0*%
X370534000Y-82538400D03*
%TO.N,/SD_CLK*%
X367704400Y-84420000D03*
%TO.N,/SD_CMD*%
X371333400Y-77713000D03*
X370530500Y-86620000D03*
%TO.N,/OLED_FONTCS*%
X306236800Y-98000000D03*
%TO.N,/SD_DAT3*%
X377664700Y-74144600D03*
X370534100Y-87720000D03*
X372107200Y-76915900D03*
%TO.N,/I2C_SCL*%
X340814000Y-131044500D03*
X156720000Y-111840200D03*
X188454500Y-123388400D03*
X373088600Y-119023200D03*
X160443900Y-119969100D03*
%TO.N,/I2C_SDA*%
X190180000Y-123300900D03*
X170065300Y-114047000D03*
X376863000Y-120903900D03*
%TO.N,/NEG12V*%
X229283100Y-98233300D03*
X283296500Y-127088400D03*
X225035600Y-114012300D03*
X271701700Y-92348400D03*
X349321300Y-63300800D03*
X215071700Y-140069400D03*
X286441700Y-105177900D03*
X210285900Y-101400800D03*
X165090200Y-138997400D03*
X247721900Y-127040700D03*
X228739300Y-140144200D03*
X251426600Y-158300000D03*
X210486200Y-138816700D03*
X222135300Y-146631600D03*
X300510700Y-137400000D03*
X169108200Y-95115600D03*
X306249900Y-99635900D03*
X165233100Y-99167900D03*
X283203600Y-118098900D03*
%TO.N,/POS12V*%
X210564200Y-113714000D03*
X309190100Y-96568700D03*
X206249000Y-103541500D03*
X161106000Y-104399700D03*
X223733700Y-121000000D03*
X205453100Y-141004000D03*
X285990600Y-108951300D03*
X223756300Y-160989400D03*
X292075000Y-101570000D03*
X341226500Y-69193400D03*
X220421600Y-145580800D03*
X158505400Y-113167900D03*
X239727700Y-160111800D03*
X279745800Y-95889100D03*
X215976700Y-86820700D03*
X224371700Y-107611200D03*
X214256000Y-81938400D03*
X294171300Y-126245000D03*
X158735700Y-150595000D03*
X153892400Y-163500000D03*
X211453200Y-146652200D03*
X161368900Y-144339200D03*
X218125100Y-112475800D03*
%TO.N,/AUDIO_OUT_R*%
X281500000Y-152000000D03*
X288573600Y-144727100D03*
X277219400Y-143282500D03*
%TO.N,/AUDIO_OUT_L*%
X275126100Y-110182700D03*
X280333000Y-118900000D03*
%TO.N,/AUDIO_IN_R*%
X282889300Y-97001700D03*
%TO.N,/AUDIO_IN_L*%
X277800000Y-92676500D03*
%TO.N,/GATE_OUT_1*%
X151390200Y-62895000D03*
X159606700Y-61189000D03*
%TO.N,/GATE_OUT_2*%
X195849700Y-124297100D03*
X169905200Y-112541900D03*
X191490300Y-122449000D03*
X170249800Y-151398500D03*
X190073700Y-153223700D03*
X363579200Y-157752400D03*
%TO.N,/BBD_TIMEHI_L*%
X195400400Y-113859400D03*
X160851700Y-111964800D03*
%TO.N,/LPG_ENV*%
X129856100Y-63045000D03*
X157090000Y-59754300D03*
X251150000Y-161964400D03*
%TO.N,/BBD_TIMEW_L*%
X196127300Y-106531900D03*
%TO.N,/BTN1*%
X178750000Y-116705800D03*
%TO.N,/BTN2*%
X177203500Y-116693400D03*
%TO.N,/BTN3*%
X174891800Y-117759000D03*
%TO.N,/BTN4*%
X172190300Y-116488200D03*
%TO.N,/LPG_VCFSW_L*%
X270967700Y-112895000D03*
%TO.N,/LPG_LDR_L*%
X222974400Y-114809000D03*
X205277900Y-118000000D03*
%TO.N,/LPG_RES_L*%
X201705500Y-117721400D03*
X222844000Y-109729000D03*
%TO.N,/LPG_RESW_L*%
X198298000Y-118155000D03*
X219977500Y-111000500D03*
%TO.N,/LPG_C5_R*%
X220204400Y-163000000D03*
X219850000Y-157814000D03*
%TO.N,/LPG_SUM_R*%
X218520100Y-154023100D03*
X217298300Y-149184000D03*
%TO.N,/LPG_VCFSW_R*%
X268972300Y-81887400D03*
X273230300Y-146000000D03*
%TO.N,/LPG_LDR_R*%
X206465500Y-148434700D03*
X225100900Y-147914000D03*
%TO.N,/LPG_RES_R*%
X222758300Y-141273300D03*
X201701900Y-142000000D03*
%TO.N,/LPG_RESW_R*%
X198131700Y-142000000D03*
X221282700Y-143460000D03*
%TO.N,/LPG_LED_L*%
X229478600Y-136043200D03*
%TO.N,/BBD_TIMELO_L*%
X167068800Y-115038600D03*
X165103600Y-115302100D03*
%TO.N,/BBD_TIMEHI_R*%
X162074900Y-149612000D03*
%TO.N,/BBD_TIMEW_R*%
X159884900Y-159630200D03*
%TO.N,/BBD_TIMELO_R*%
X160602900Y-153647400D03*
%TO.N,/BBD_FB_L*%
X168628000Y-96948100D03*
%TO.N,/EXT_IN_R*%
X292963900Y-82115100D03*
%TO.N,/SRC_RSMP_L*%
X273830600Y-99047500D03*
%TO.N,/SRC_RSMP_R*%
X290543900Y-96499800D03*
%TO.N,/VBUS*%
X365795000Y-61520000D03*
%TO.N,/VBUS_F*%
X360915000Y-78596700D03*
%TO.N,/POS12V_RAW*%
X296721600Y-106620000D03*
%TO.N,/NEG12V_RAW*%
X297099400Y-114433900D03*
X283996500Y-105486700D03*
%TO.N,/LED_NEG*%
X287137200Y-140537500D03*
X283598500Y-121678400D03*
%TO.N,/CC1*%
X359505600Y-62420000D03*
X374243900Y-58483000D03*
%TO.N,/CC2*%
X370520000Y-60745000D03*
%TO.N,/BBD_WETAC_L*%
X238267100Y-104749000D03*
X241339000Y-95155100D03*
%TO.N,/BBD_FB_R*%
X168628000Y-136929700D03*
%TO.N,/BBD_WETAC_R*%
X239204000Y-140951400D03*
X242288600Y-133756600D03*
%TO.N,/BBD_MIXW_L*%
X168456200Y-103461100D03*
%TO.N,/BBD_DRY_R*%
X230223800Y-134949900D03*
%TO.N,/BBD_MIXW_R*%
X165735800Y-143997800D03*
X235698800Y-86671500D03*
%TO.N,/P5V_BBD*%
X162061300Y-118030000D03*
X153097700Y-159295000D03*
X169211500Y-115771900D03*
X171306900Y-154595000D03*
X179038600Y-161056200D03*
X163205000Y-153384100D03*
X182713400Y-122139100D03*
%TO.N,/BBD_VGG_L*%
X191524900Y-105760900D03*
%TO.N,/BBD_AC_L*%
X200971600Y-99192000D03*
X207363800Y-98044700D03*
%TO.N,/BBD_RAW_L*%
X198196700Y-96749300D03*
%TO.N,/BTN5*%
X182942400Y-116728500D03*
%TO.N,/BTN6*%
X181449600Y-116694200D03*
%TO.N,/TIME_CV*%
X190873200Y-151559600D03*
X163120600Y-150595000D03*
X172084100Y-114764000D03*
%TO.N,/BBD_CLK_L*%
X181845000Y-109345000D03*
%TO.N,/BBD_WET_L*%
X216395000Y-108182200D03*
X207944700Y-106741500D03*
X238745800Y-97752100D03*
%TO.N,/BBD_VGG_R*%
X191709800Y-143294100D03*
%TO.N,/BBD_RAW_R*%
X194695600Y-132714000D03*
%TO.N,/BBD_C1B_R*%
X194880800Y-157159000D03*
X188615000Y-154721100D03*
%TO.N,/BBD_TRIGIN_R*%
X227291100Y-153000000D03*
X228943700Y-144280600D03*
%TO.N,/BBD_WET_R*%
X208115600Y-140925600D03*
X217280400Y-147914000D03*
%TO.N,/BBD_SH_G_L*%
X214368100Y-106079100D03*
X213299000Y-93765700D03*
%TO.N,/BBD_VCOCV_R*%
X162720400Y-159773200D03*
X188576000Y-162124900D03*
%TO.N,/BBD_INH_R*%
X184834500Y-154719500D03*
X174160900Y-153385500D03*
%TO.N,/BBD_SH_G_R*%
X216058300Y-142000000D03*
X213276000Y-133048600D03*
%TO.N,/BBD_TRIG_R*%
X226431600Y-141082000D03*
X213676600Y-145472100D03*
%TO.N,/BBD_SH_IN_L*%
X207798900Y-101590300D03*
X213160300Y-103413300D03*
X213976600Y-95640800D03*
%TO.N,/BBD_SH_IN_R*%
X207196500Y-135698000D03*
X214255900Y-141004300D03*
X213636200Y-134938000D03*
%TO.N,/BBD_GAIN_L*%
X157174700Y-94210200D03*
X167622800Y-94000000D03*
%TO.N,/BBD_IN_L*%
X150935700Y-101503200D03*
%TO.N,/BBD_INF_L*%
X149776500Y-94000000D03*
X226264300Y-98179200D03*
%TO.N,/BBD_SUM_L*%
X170396300Y-95769200D03*
X162838800Y-98881700D03*
%TO.N,/BBD_SIGIN_L*%
X161279000Y-95701600D03*
%TO.N,/BBD_VCOR1_L*%
X187220400Y-117557600D03*
X193828400Y-114399700D03*
%TO.N,/BBD_TRIGREF_L*%
X231263600Y-112895000D03*
X227771000Y-106775900D03*
%TO.N,/BBD_OUT_L*%
X291033000Y-76011100D03*
X270242200Y-97496300D03*
X353099500Y-60493400D03*
X309926800Y-77095000D03*
%TO.N,/BBD_MIX_L*%
X167683300Y-104221800D03*
X238253100Y-100470000D03*
%TO.N,/BBD_GAIN_R*%
X156764900Y-133715000D03*
X167618700Y-133720600D03*
%TO.N,/BBD_IN_R*%
X146235200Y-137581400D03*
%TO.N,/BBD_INF_R*%
X148750000Y-135100700D03*
X227239700Y-135710900D03*
%TO.N,/BBD_SUM_R*%
X162549000Y-135708700D03*
X170126800Y-139068400D03*
%TO.N,/BBD_SIGIN_R*%
X161230700Y-138874400D03*
%TO.N,/BBD_VCOR1_R*%
X195688000Y-153258600D03*
X189782500Y-160126400D03*
%TO.N,/BBD_TRIGREF_R*%
X226326000Y-159952900D03*
X227108500Y-144282500D03*
X227205300Y-154342800D03*
%TO.N,/BBD_OUT_R*%
X288971400Y-96488100D03*
X283193000Y-100702200D03*
X241734000Y-138000000D03*
X265017900Y-102553400D03*
X342330100Y-72715300D03*
X305197600Y-98653000D03*
X325499900Y-78986600D03*
%TO.N,/BBD_MIX_R*%
X163378800Y-140957900D03*
X171344100Y-137192300D03*
X238174000Y-138000000D03*
%TO.N,/LPG_ENVN_L*%
X254165100Y-122865100D03*
X260572500Y-75351900D03*
%TO.N,/LPG_CVI_L*%
X241056100Y-123355000D03*
X253677200Y-139000000D03*
X251686300Y-122161600D03*
%TO.N,/LPG_CVW_L*%
X252362600Y-125895000D03*
X258944000Y-82170300D03*
%TO.N,/BBD_C1A_L*%
X189789200Y-117426600D03*
X186296300Y-111898900D03*
%TO.N,/BBD_CLKN_R*%
X181255000Y-151877600D03*
%TO.N,/LPG_CV_L*%
X246004200Y-129856200D03*
X259395000Y-124834000D03*
X219592500Y-124558000D03*
%TO.N,/LPG_CVW_R*%
X254643600Y-159000000D03*
%TO.N,/LPG_CV_R*%
X262657900Y-159000000D03*
X246842900Y-163716400D03*
%TO.N,/LPG_OFS_L*%
X229457200Y-123679700D03*
X214472500Y-122055400D03*
%TO.N,/LPG_BOUT_L*%
X225974900Y-125955800D03*
X215568500Y-117609300D03*
%TO.N,/LPG_T1_L*%
X221793100Y-118291100D03*
%TO.N,/LPG_ABUF_L*%
X218062600Y-108918500D03*
X223007100Y-111578400D03*
X279995000Y-107830900D03*
%TO.N,/LPG_OUT_L*%
X207750000Y-124922600D03*
X209729700Y-118000000D03*
X221684700Y-119295200D03*
%TO.N,/LPG_CFB_L*%
X223007200Y-116740400D03*
X206250000Y-124940100D03*
%TO.N,/LPG_RESL_L*%
X198238900Y-122008500D03*
%TO.N,/LPG_OFS_R*%
X207454300Y-87094300D03*
X217449800Y-153945100D03*
%TO.N,/LPG_BOUT_R*%
X226978400Y-155954100D03*
X222031100Y-151575600D03*
%TO.N,/LPG_T1_R*%
X228218300Y-154698200D03*
%TO.N,/LPG_BP_R*%
X220161500Y-147914000D03*
X224483900Y-158034800D03*
%TO.N,/LPG_ABUF_R*%
X282250000Y-143042800D03*
%TO.N,/LPG_RESL_R*%
X198215100Y-146000000D03*
%TO.N,/LPG_CVD_L*%
X256888300Y-121895000D03*
X258159000Y-139000000D03*
X246047800Y-122044400D03*
%TO.N,/LPG_CVC_L*%
X257895000Y-126962100D03*
X246680200Y-129080100D03*
%TO.N,/LPG_ENVN_R*%
X256446000Y-156017100D03*
X243327200Y-154844300D03*
%TO.N,/LPG_SUMCV_R*%
X248129700Y-155818000D03*
X257151200Y-157958500D03*
%TO.N,/LPG_CVD_R*%
X247580300Y-154284700D03*
X256661800Y-161943800D03*
X259123100Y-155000000D03*
%TO.N,/LPG_CVC_R*%
X258267900Y-159309700D03*
X245095600Y-161059400D03*
%TO.N,/HP_IN_R*%
X350614300Y-54095000D03*
X346055100Y-71402000D03*
X339884500Y-67080900D03*
%TO.N,/HP_OUT_R*%
X344533800Y-77321000D03*
%TO.N,/HP_DIV_L*%
X356493000Y-69645000D03*
X337398900Y-65712000D03*
%TO.N,/HP_DIV_R*%
X336600300Y-70806800D03*
X353802800Y-53066600D03*
%TO.N,/HP_BUF_L*%
X356892000Y-58695000D03*
X343635000Y-60759600D03*
%TO.N,/HP_BUF_R*%
X342325300Y-76254800D03*
X343334000Y-69234700D03*
%TO.N,/HP_W_R*%
X339993300Y-73355400D03*
X345580200Y-69223200D03*
%TO.N,/EXT_AMP_OUT_L*%
X274309000Y-95175000D03*
X270233300Y-93782900D03*
%TO.N,/EXT_AMP_OUT_R*%
X283269000Y-93895000D03*
%TO.N,/EXT_PROT_L*%
X264429500Y-77845000D03*
X265020500Y-96769400D03*
%TO.N,/EXT_PROT_R*%
X293134500Y-80432100D03*
X279979900Y-85722600D03*
%TO.N,/LINE_OUT_R*%
X326270000Y-76929200D03*
%TO.N,/EXT_FB_L*%
X278603300Y-94823900D03*
X270092900Y-91897900D03*
%TO.N,/EXT_FB_R*%
X284804000Y-94055100D03*
X282767900Y-92944800D03*
%TD*%
D50*
%TO.N,/GND*%
X376470100Y-57230000D02*
X376470100Y-58580000D01*
X236200000Y-155000000D02*
X236200000Y-156100000D01*
X186370000Y-125060000D02*
X186370000Y-126810000D01*
X284265000Y-110090000D02*
X283250800Y-110361800D01*
X246675000Y-157730000D02*
X245081200Y-158157100D01*
X207750000Y-122000000D02*
X208800000Y-122000000D01*
X370545000Y-120070000D02*
X370545000Y-120970000D01*
X279250000Y-150000000D02*
X280300000Y-150000000D01*
X207750000Y-146000000D02*
X208832500Y-146625000D01*
X315640000Y-107945000D02*
X315640000Y-109095000D01*
X250275000Y-159700000D02*
X251325000Y-159700000D01*
X233945000Y-121895000D02*
X233945000Y-122995000D01*
X321670000Y-103445000D02*
X321670000Y-102145000D01*
X200750000Y-146000000D02*
X200750000Y-147050000D01*
D51*
X209245000Y-144845000D02*
X209220000Y-144820000D01*
X369700000Y-57230000D02*
X368940000Y-56470000D01*
D50*
X236051000Y-126714000D02*
X235766300Y-125651500D01*
X241725000Y-157730000D02*
X240125000Y-157730000D01*
X244420000Y-124625000D02*
X241956900Y-125285000D01*
D51*
X376470000Y-57230000D02*
X376840000Y-57230000D01*
D50*
X279250000Y-146000000D02*
X280300000Y-146000000D01*
X154170000Y-110060000D02*
X154842900Y-112571400D01*
X279300000Y-97765000D02*
X279300000Y-98815000D01*
D51*
X190745000Y-113170000D02*
X190180000Y-113735000D01*
X190180000Y-114940000D02*
X188920000Y-114940000D01*
D50*
X230750000Y-163000000D02*
X231800000Y-163000000D01*
X239470000Y-127165000D02*
X241063800Y-127592100D01*
X207700000Y-118000000D02*
X207415300Y-116937500D01*
X302645000Y-108495000D02*
X301160100Y-109979900D01*
X249320000Y-125895000D02*
X250370000Y-125895000D01*
X244420000Y-127165000D02*
X246020000Y-127165000D01*
X276995000Y-112895000D02*
X276995000Y-113945000D01*
D51*
X207700000Y-142000000D02*
X207700000Y-143300000D01*
D50*
X200750000Y-122000000D02*
X201800000Y-122000000D01*
X292730000Y-137400000D02*
X293053500Y-138607400D01*
X288830000Y-140695000D02*
X289730000Y-140695000D01*
D51*
X370070000Y-57230000D02*
X369700000Y-57230000D01*
D50*
X157980000Y-99940000D02*
X157980000Y-98190000D01*
X159250000Y-99940000D02*
X160169200Y-99020800D01*
X269945000Y-108895000D02*
X270229700Y-109957500D01*
X228575000Y-146000000D02*
X229625000Y-146000000D01*
X241725000Y-160270000D02*
X243325000Y-160270000D01*
X156720000Y-99940000D02*
X156720000Y-98190000D01*
X339750000Y-117070000D02*
X339750000Y-117970000D01*
X293820000Y-106620000D02*
X294104700Y-107682500D01*
D51*
X190180000Y-113755000D02*
X190180000Y-114940000D01*
D50*
X221495000Y-125895000D02*
X222545000Y-125895000D01*
X246675000Y-160270000D02*
X248275000Y-160270000D01*
D51*
X190180000Y-113735000D02*
X190180000Y-114940000D01*
D50*
X285790000Y-127090000D02*
X285790000Y-128140000D01*
X284625000Y-115115000D02*
X284625000Y-116015000D01*
D51*
X207700000Y-143300000D02*
X209245000Y-144845000D01*
D50*
X297065000Y-126245000D02*
X296215000Y-127717200D01*
X215306000Y-146819000D02*
X215306000Y-148669000D01*
X279300000Y-93765000D02*
X279300000Y-92715000D01*
X238306000Y-159819000D02*
X238306000Y-158769000D01*
X328170000Y-118070000D02*
X329470000Y-118070000D01*
X306470000Y-108165000D02*
X306702900Y-109034300D01*
X226320000Y-112895000D02*
X226604700Y-113957500D01*
X327170000Y-123070000D02*
X327170000Y-124370000D01*
X213051000Y-113714000D02*
X213335700Y-114776500D01*
X331870000Y-120040000D02*
X331870000Y-121940000D01*
D51*
X376840000Y-57230000D02*
X377600000Y-56470000D01*
D50*
X276995000Y-116895000D02*
X278045000Y-116895000D01*
X223750000Y-159000000D02*
X224800000Y-159000000D01*
X154165000Y-113995000D02*
X155065000Y-113995000D01*
X272200000Y-142000000D02*
X272200000Y-143050000D01*
X299920000Y-102870000D02*
X299635300Y-101807500D01*
X230750000Y-139000000D02*
X231789200Y-138400000D01*
X239470000Y-124625000D02*
X241070000Y-124625000D01*
X292120000Y-115620000D02*
X293180700Y-116680700D01*
X295220000Y-119620000D02*
X295220000Y-118520000D01*
%TO.N,/P3V3_OLED*%
X306470000Y-107325000D02*
X304601700Y-107325000D01*
X309700000Y-105645000D02*
X309700000Y-107896700D01*
X306470000Y-107325000D02*
X307721000Y-107325000D01*
X309700000Y-103393300D02*
X311118900Y-103393300D01*
X309700000Y-98095300D02*
X309604700Y-98000000D01*
X302645000Y-106495000D02*
X303771700Y-106495000D01*
X307721000Y-107325000D02*
X308292700Y-107896700D01*
X304601700Y-107325000D02*
X303771700Y-106495000D01*
X309700000Y-103393300D02*
X309700000Y-98095300D01*
X308292700Y-107896700D02*
X309700000Y-107896700D01*
X309700000Y-105645000D02*
X309700000Y-103393300D01*
X311118900Y-103393300D02*
X313370600Y-105645000D01*
X302645000Y-106495000D02*
X302645000Y-105154500D01*
X302645000Y-105154500D02*
X302646000Y-105153500D01*
X308750000Y-98000000D02*
X309604700Y-98000000D01*
X313370600Y-105645000D02*
X315640000Y-105645000D01*
%TO.N,/P3V3_MSP430*%
X328170000Y-116070000D02*
X329296700Y-116070000D01*
X334170000Y-114100000D02*
X331918300Y-114100000D01*
X334170000Y-121991300D02*
X334170000Y-120040000D01*
X334170000Y-114100000D02*
X338341700Y-114100000D01*
X340590000Y-117070000D02*
X340590000Y-116348300D01*
X338341700Y-114100000D02*
X340590000Y-116348300D01*
X331112100Y-114254600D02*
X329296700Y-116070000D01*
X331763700Y-114254600D02*
X331112100Y-114254600D01*
X331763700Y-114254600D02*
X331918300Y-114100000D01*
%TO.N,/P5V_OLED*%
X330295000Y-105470000D02*
X330295000Y-104121700D01*
X319670000Y-103445000D02*
X317441700Y-103445000D01*
X315640000Y-103345000D02*
X317341700Y-103345000D01*
X319846400Y-104748100D02*
X319670000Y-104571700D01*
X319670000Y-103445000D02*
X319670000Y-104571700D01*
X317441700Y-103445000D02*
X317341700Y-103345000D01*
%TO.N,/P5V_MSP*%
X329401800Y-121943300D02*
X329170000Y-121943300D01*
X335141700Y-123070000D02*
X329170000Y-123070000D01*
X327820000Y-108995000D02*
X327820000Y-110307400D01*
X336470000Y-120040000D02*
X336470000Y-121741700D01*
X336470000Y-121741700D02*
X335141700Y-123070000D01*
X329170000Y-123070000D02*
X329170000Y-121943300D01*
X329570000Y-121775100D02*
X329401800Y-121943300D01*
%TO.N,/P3V3_DAISY*%
X376750000Y-75000000D02*
X377604700Y-75000000D01*
X377982900Y-119271200D02*
X375457800Y-119271200D01*
X378010000Y-119298300D02*
X377982900Y-119271200D01*
X155440000Y-99940000D02*
X155440000Y-101541700D01*
X185110000Y-118395500D02*
X185110000Y-118936800D01*
X153325000Y-112830700D02*
X153325000Y-112076700D01*
X378010000Y-120020000D02*
X378010000Y-119298300D01*
X186938600Y-116566900D02*
X185110000Y-118395500D01*
X185110000Y-118936800D02*
X185110000Y-125060000D01*
X377139700Y-75883700D02*
X376750000Y-75883700D01*
X153325000Y-113273300D02*
X153325000Y-112830700D01*
X185110000Y-118936800D02*
X157545100Y-118936800D01*
X187640000Y-116541700D02*
X187640000Y-116566900D01*
X157545100Y-118936800D02*
X153325000Y-114716700D01*
X191450000Y-114940000D02*
X191450000Y-116541700D01*
X155440000Y-101541700D02*
X155622900Y-101724600D01*
X376750000Y-75000000D02*
X376750000Y-75883700D01*
X152910000Y-110060000D02*
X152910000Y-111661700D01*
X191424800Y-116566900D02*
X188224200Y-116566900D01*
X378396600Y-75882400D02*
X377604700Y-75090500D01*
X153325000Y-113995000D02*
X153325000Y-114716700D01*
X153325000Y-112076700D02*
X152910000Y-111661700D01*
X187640000Y-114940000D02*
X187640000Y-116541700D01*
X369003300Y-120070000D02*
X368823800Y-120070000D01*
X188224200Y-116566900D02*
X187640000Y-116566900D01*
X372750000Y-76084000D02*
X372750000Y-75000000D01*
X369705000Y-120070000D02*
X369003300Y-120070000D01*
D52*
X380750000Y-75882400D02*
X378396600Y-75882400D01*
D50*
X377604700Y-75090500D02*
X377604700Y-75000000D01*
X380750000Y-75000000D02*
X380750000Y-75882400D01*
X374000000Y-119920000D02*
X374734700Y-119920000D01*
X188224200Y-116566900D02*
X188224200Y-116505100D01*
X375457800Y-119271200D02*
X374902600Y-119826400D01*
X187640000Y-116566900D02*
X186938600Y-116566900D01*
X374828300Y-119826400D02*
X374902600Y-119826400D01*
X153325000Y-113995000D02*
X153325000Y-113273300D01*
X374734700Y-119920000D02*
X374828300Y-119826400D01*
X191450000Y-116541700D02*
X191424800Y-116566900D01*
X377320700Y-76064700D02*
X377139700Y-75883700D01*
D51*
%TO.N,/OLED_SCK*%
X317644000Y-99225000D02*
X348575000Y-99225000D01*
X298048000Y-79629000D02*
X317644000Y-99225000D01*
%TO.N,/ENC0_A*%
X174752200Y-123385300D02*
X174752200Y-123304600D01*
X174950000Y-123583100D02*
X174752200Y-123385300D01*
X174950000Y-125060000D02*
X174950000Y-123583100D01*
%TO.N,/ENC0_B*%
X175813600Y-124653600D02*
X175813600Y-122584900D01*
X176220000Y-125060000D02*
X175813600Y-124653600D01*
%TO.N,/ENC0_PUSH*%
X177480000Y-125060000D02*
X177480000Y-123583100D01*
X176839800Y-123583100D02*
X177480000Y-123583100D01*
X176540500Y-123283800D02*
X176839800Y-123583100D01*
%TO.N,/ENC1_B*%
X149778500Y-98374600D02*
X149778500Y-99358500D01*
X149778500Y-99358500D02*
X150360000Y-99940000D01*
%TO.N,/ENC1_A*%
X151640000Y-98463100D02*
X151104400Y-98463100D01*
X151640000Y-99940000D02*
X151640000Y-98463100D01*
X151104400Y-98463100D02*
X151025300Y-98384000D01*
%TO.N,/ENC2_B*%
X147830000Y-97523200D02*
X146520000Y-96213200D01*
X147830000Y-99940000D02*
X147830000Y-97523200D01*
%TO.N,/ENC2_A*%
X147974500Y-96174700D02*
X147974500Y-97031304D01*
X147974500Y-97031304D02*
X148455000Y-97511804D01*
X148455000Y-97511804D02*
X148455000Y-99305000D01*
X148455000Y-99305000D02*
X149090000Y-99940000D01*
%TO.N,/ENC3_B*%
X145280000Y-101718600D02*
X145280000Y-99940000D01*
%TO.N,/ENC3_A*%
X146550000Y-99940000D02*
X146550000Y-98463100D01*
X146550000Y-98463100D02*
X145848100Y-97761200D01*
%TO.N,/ENC4_B*%
X142750000Y-99940000D02*
X142750000Y-98463100D01*
X142688000Y-88351000D02*
X142688000Y-98401100D01*
X142688000Y-98401100D02*
X142750000Y-98463100D01*
%TO.N,/ENC4_A*%
X144020000Y-99940000D02*
X144020000Y-97761200D01*
%TO.N,/ENC5_B*%
X144020000Y-109395700D02*
X145140600Y-108275100D01*
X144020000Y-110060000D02*
X144020000Y-109395700D01*
%TO.N,/ENC5_A*%
X143311600Y-108483300D02*
X143211800Y-108583100D01*
X143211800Y-108583100D02*
X142750000Y-108583100D01*
X142750000Y-110060000D02*
X142750000Y-108583100D01*
%TO.N,/ENC6_B*%
X146550000Y-109196300D02*
X146550000Y-110060000D01*
X147380200Y-108366100D02*
X146550000Y-109196300D01*
%TO.N,/ENC6_A*%
X146366700Y-108280400D02*
X145280000Y-109367100D01*
X145280000Y-109367100D02*
X145280000Y-110060000D01*
%TO.N,/ENC7_B*%
X150088200Y-108543600D02*
X150088200Y-107881800D01*
X149090000Y-109541800D02*
X150088200Y-108543600D01*
X149090000Y-110060000D02*
X149090000Y-109541800D01*
%TO.N,/ENC7_A*%
X147830000Y-109574300D02*
X147830000Y-110060000D01*
X149096900Y-108307400D02*
X147830000Y-109574300D01*
%TO.N,/ENC8_B*%
X151640000Y-111838100D02*
X151640000Y-110060000D01*
%TO.N,/ENC8_A*%
X151352300Y-108556800D02*
X162631500Y-108556800D01*
X162631500Y-108556800D02*
X166621100Y-112546400D01*
X150360000Y-110060000D02*
X150360000Y-109549100D01*
X150360000Y-109549100D02*
X151352300Y-108556800D01*
%TO.N,/LPG_C5_L*%
X219995000Y-122952800D02*
X219995000Y-121895000D01*
X219200000Y-139000000D02*
X219200000Y-137923800D01*
%TO.N,/LPG_SUM_L*%
X216995000Y-118362200D02*
X216995000Y-121895000D01*
X217800000Y-139000000D02*
X217073100Y-139000000D01*
X217787700Y-117569500D02*
X217322900Y-118034300D01*
X217073100Y-139000000D02*
X217073100Y-137988600D01*
X217787700Y-116079000D02*
X217787700Y-117569500D01*
X216995000Y-121895000D02*
X216265100Y-121895000D01*
X216265100Y-125854800D02*
X216224900Y-125895000D01*
X215495000Y-125895000D02*
X216224900Y-125895000D01*
D53*
X217787700Y-116079000D02*
X217114000Y-116079000D01*
X217114000Y-116079000D02*
X216470000Y-115435000D01*
D51*
X216265100Y-121895000D02*
X216265100Y-125854800D01*
X217322900Y-118034300D02*
X216995000Y-118362200D01*
D50*
%TO.N,/P5V*%
X330838200Y-108995000D02*
X331008100Y-109164900D01*
X329820000Y-108995000D02*
X330838200Y-108995000D01*
X115504600Y-51495400D02*
X118640800Y-51495400D01*
X329820000Y-106995000D02*
X328295000Y-105470000D01*
X113000000Y-54000000D02*
X115504600Y-51495400D01*
X329820000Y-108995000D02*
X329820000Y-106995000D01*
D51*
%TO.N,/SD_D0*%
X370534000Y-82538400D02*
X375250000Y-77822400D01*
X375250000Y-77822400D02*
X375250000Y-75000000D01*
%TO.N,/SD_CMD*%
X371250000Y-75000000D02*
X371250000Y-77629600D01*
X371250000Y-77629600D02*
X371333400Y-77713000D01*
%TO.N,/CVOUT_JACK*%
X128272600Y-63815100D02*
X128820000Y-63815100D01*
X129150000Y-58500000D02*
X129150000Y-59626900D01*
X128048400Y-60728500D02*
X128048400Y-63590900D01*
X128048400Y-63590900D02*
X128272600Y-63815100D01*
X128820000Y-64545000D02*
X128820000Y-63815100D01*
X129150000Y-59626900D02*
X128048400Y-60728500D01*
%TO.N,/GATEOUT_JACK*%
X151150000Y-59626900D02*
X149573400Y-61203500D01*
X151150000Y-58500000D02*
X151150000Y-59626900D01*
X149797600Y-63665100D02*
X150345000Y-63665100D01*
X149573400Y-61203500D02*
X149573400Y-63440900D01*
X149573400Y-63440900D02*
X149797600Y-63665100D01*
X150345000Y-64395000D02*
X150345000Y-63665100D01*
%TO.N,/OLED_FONTCS*%
X306520100Y-98000000D02*
X306236800Y-98000000D01*
X307250000Y-98000000D02*
X306520100Y-98000000D01*
%TO.N,/SD_DAT3*%
X379250000Y-75000000D02*
X378520100Y-75000000D01*
X377664700Y-74144600D02*
X378520100Y-75000000D01*
%TO.N,/SRC_EXT_L*%
X274515900Y-92763100D02*
X273550000Y-92763100D01*
X284108000Y-83171000D02*
X274515900Y-92763100D01*
X273550000Y-93765000D02*
X273550000Y-92763100D01*
%TO.N,/SRC_EXT_R*%
X289188000Y-83171000D02*
X289188000Y-90401100D01*
X291550000Y-93765000D02*
X291550000Y-92763100D01*
X289188000Y-90401100D02*
X291550000Y-92763100D01*
%TO.N,/I2C_SCL*%
X188920000Y-125060000D02*
X188920000Y-123583100D01*
X156720000Y-111840200D02*
X156720000Y-110060000D01*
X373140000Y-119074600D02*
X373088600Y-119023200D01*
X188649200Y-123583100D02*
X188454500Y-123388400D01*
X188920000Y-123583100D02*
X188649200Y-123583100D01*
X373140000Y-119323100D02*
X373140000Y-119074600D01*
X373140000Y-119920000D02*
X373140000Y-119323100D01*
%TO.N,/I2C_SDA*%
X377150000Y-120020000D02*
X377150000Y-120616900D01*
X376863000Y-120903900D02*
X377150000Y-120616900D01*
X160490100Y-114047000D02*
X170065300Y-114047000D01*
X190180000Y-125060000D02*
X190180000Y-123300900D01*
X157980000Y-111536900D02*
X160490100Y-114047000D01*
X157980000Y-110060000D02*
X157980000Y-111536900D01*
D54*
%TO.N,/NEG12V*%
X247920000Y-126896700D02*
X247865900Y-126896700D01*
D55*
X247094200Y-158580800D02*
X246675000Y-159000000D01*
D54*
X222411000Y-146519700D02*
X222299100Y-146631600D01*
X247920000Y-125895000D02*
X247920000Y-126896700D01*
X250275000Y-158300000D02*
X249555600Y-158300000D01*
X283315000Y-119165000D02*
X283315000Y-118210300D01*
X283438300Y-127090000D02*
X283298100Y-127090000D01*
X300371700Y-137400000D02*
X300510700Y-137400000D01*
X224920000Y-112895000D02*
X224920000Y-113896700D01*
X205062400Y-140051000D02*
X166143800Y-140051000D01*
X285640000Y-104898700D02*
X286162500Y-104898700D01*
X214479800Y-97206900D02*
X210285900Y-101400800D01*
X284390000Y-127090000D02*
X283438300Y-127090000D01*
X286162500Y-104898700D02*
X286441700Y-105177900D01*
X206296700Y-138816700D02*
X205062400Y-140051000D01*
X247865900Y-126896700D02*
X247721900Y-127040700D01*
D55*
X249274800Y-158580800D02*
X247094200Y-158580800D01*
D54*
X283298100Y-127090000D02*
X283296500Y-127088400D01*
D55*
X250275000Y-158300000D02*
X251201700Y-158300000D01*
D54*
X285640000Y-103915000D02*
X285640000Y-104898700D01*
X223675000Y-146000000D02*
X227175000Y-146000000D01*
D56*
X222795900Y-146519700D02*
X222896400Y-146419200D01*
D54*
X166143800Y-140051000D02*
X165090200Y-138997400D01*
X249555600Y-158300000D02*
X249274800Y-158580800D01*
X229283100Y-98233300D02*
X228256700Y-97206900D01*
X247920000Y-125895000D02*
X244420000Y-125895000D01*
D55*
X223255800Y-146419200D02*
X223675000Y-146000000D01*
D54*
X222299100Y-146631600D02*
X222135300Y-146631600D01*
X224920000Y-113896700D02*
X225035600Y-114012300D01*
X228256700Y-97206900D02*
X214479800Y-97206900D01*
D55*
X251201700Y-158300000D02*
X251426600Y-158300000D01*
D56*
X222411000Y-146519700D02*
X222795900Y-146519700D01*
D54*
X210486200Y-138816700D02*
X206296700Y-138816700D01*
X221420000Y-112895000D02*
X224920000Y-112895000D01*
D55*
X222896400Y-146419200D02*
X223255800Y-146419200D01*
D54*
X283315000Y-118210300D02*
X283203600Y-118098900D01*
X298070000Y-137400000D02*
X300371700Y-137400000D01*
%TO.N,/POS12V*%
X239727700Y-160111800D02*
X238707900Y-161131600D01*
X213906000Y-146588800D02*
X214677500Y-145817300D01*
D55*
X220421600Y-145580900D02*
X220421600Y-145580800D01*
D54*
X271962100Y-124294600D02*
X288364700Y-124294600D01*
X237921100Y-121605600D02*
X238615400Y-120911300D01*
X294026700Y-126245000D02*
X294171300Y-126245000D01*
X236642300Y-128026600D02*
X235838400Y-128026600D01*
D55*
X216889200Y-112475800D02*
X216470000Y-112895000D01*
X237921200Y-126747700D02*
X238773900Y-125895000D01*
D54*
X291725000Y-126245000D02*
X289423300Y-126245000D01*
X285853600Y-109088300D02*
X285665000Y-109088300D01*
X211651000Y-113714000D02*
X210699300Y-113714000D01*
X287410000Y-123290000D02*
X288364700Y-123290000D01*
X297076300Y-96568700D02*
X309190100Y-96568700D01*
X289423300Y-125353200D02*
X288364700Y-124294600D01*
D55*
X239727700Y-160111800D02*
X240839500Y-159000000D01*
D54*
X223733700Y-125129800D02*
X223733700Y-121000000D01*
X164774500Y-140933600D02*
X161368900Y-144339200D01*
X212787500Y-146652200D02*
X212954300Y-146819000D01*
X218542300Y-145817300D02*
X218725000Y-146000000D01*
X213906000Y-146819000D02*
X213906000Y-146588800D01*
D55*
X240839500Y-159000000D02*
X241725000Y-159000000D01*
D54*
X292075000Y-101570000D02*
X290970000Y-101570000D01*
D55*
X236906000Y-159944200D02*
X238093400Y-161131600D01*
D54*
X289423300Y-126245000D02*
X289423300Y-125353200D01*
X285990600Y-108951300D02*
X285853600Y-109088300D01*
X210699300Y-113714000D02*
X210564200Y-113714000D01*
X234651000Y-126714000D02*
X234651000Y-126839200D01*
D55*
X234651000Y-126839200D02*
X235838400Y-128026600D01*
D54*
X205382700Y-140933600D02*
X164774500Y-140933600D01*
X288364700Y-124294600D02*
X288364700Y-123290000D01*
X237921200Y-126747700D02*
X237921100Y-126747700D01*
X213906000Y-146819000D02*
X212954300Y-146819000D01*
D55*
X218125100Y-112475800D02*
X216889200Y-112475800D01*
X218725000Y-146000000D02*
X219144100Y-145580900D01*
D54*
X234535900Y-126954300D02*
X225558200Y-126954300D01*
D55*
X238773900Y-125895000D02*
X239470000Y-125895000D01*
X237001200Y-127667700D02*
X237921200Y-126747700D01*
D54*
X225558200Y-126954300D02*
X223733700Y-125129800D01*
X234651000Y-126839200D02*
X234535900Y-126954300D01*
X237001200Y-127667700D02*
X236642300Y-128026600D01*
X236906000Y-159819000D02*
X236906000Y-159944200D01*
D55*
X219144100Y-145580900D02*
X220421600Y-145580900D01*
D54*
X291725000Y-126245000D02*
X294026700Y-126245000D01*
X268578800Y-120911300D02*
X271962100Y-124294600D01*
X205453100Y-141004000D02*
X205382700Y-140933600D01*
X238707900Y-161131600D02*
X238093400Y-161131600D01*
X211453200Y-146652200D02*
X212787500Y-146652200D01*
X237921100Y-126747700D02*
X237921100Y-121605600D01*
X214677500Y-145817300D02*
X218542300Y-145817300D01*
X285665000Y-110090000D02*
X285665000Y-109088300D01*
X292075000Y-101570000D02*
X297076300Y-96568700D01*
X238615400Y-120911300D02*
X268578800Y-120911300D01*
D51*
%TO.N,/AUDIO_OUT_R*%
X277500000Y-142000000D02*
X277500000Y-143001900D01*
X277750000Y-152000000D02*
X281500000Y-152000000D01*
X277750000Y-150000000D02*
X277750000Y-152000000D01*
X277219400Y-143282500D02*
X277500000Y-143001900D01*
%TO.N,/AUDIO_OUT_L*%
X275245000Y-109896900D02*
X275126100Y-110015800D01*
X275495000Y-116895000D02*
X275495000Y-118900000D01*
X275126100Y-110015800D02*
X275126100Y-110182700D01*
X275495000Y-118900000D02*
X280333000Y-118900000D01*
X275245000Y-108895000D02*
X275245000Y-109896900D01*
%TO.N,/AUDIO_IN_R*%
X277800000Y-97765000D02*
X278529900Y-97765000D01*
X278529900Y-97765000D02*
X278529900Y-97217600D01*
X278529900Y-97217600D02*
X278745800Y-97001700D01*
X278745800Y-97001700D02*
X282889300Y-97001700D01*
%TO.N,/AUDIO_IN_L*%
X277800000Y-93765000D02*
X277800000Y-92676500D01*
%TO.N,/GATE_OUT_1*%
X151103900Y-62895000D02*
X151390200Y-62895000D01*
X150345000Y-62895000D02*
X151103900Y-62895000D01*
%TO.N,/GATE_OUT_2*%
X177280900Y-151398500D02*
X170249800Y-151398500D01*
X371482400Y-157752400D02*
X363579200Y-157752400D01*
X195849700Y-124297100D02*
X193338400Y-124297100D01*
X371765000Y-158035000D02*
X371482400Y-157752400D01*
X193338400Y-124297100D02*
X191490300Y-122449000D01*
X189794700Y-153502700D02*
X179385100Y-153502700D01*
X190073700Y-153223700D02*
X189794700Y-153502700D01*
X179385100Y-153502700D02*
X177280900Y-151398500D01*
%TO.N,/BBD_TIMEHI_L*%
X162158300Y-113271400D02*
X169600395Y-113271400D01*
X189169801Y-113266900D02*
X190066701Y-112370000D01*
X193911000Y-112370000D02*
X195400400Y-113859400D01*
X160851700Y-111964800D02*
X162158300Y-113271400D01*
X169600395Y-113271400D02*
X169604895Y-113266900D01*
X190066701Y-112370000D02*
X193911000Y-112370000D01*
X169604895Y-113266900D02*
X189169801Y-113266900D01*
%TO.N,/LPG_ENV*%
X251150000Y-140818000D02*
X251150000Y-139000000D01*
X251324000Y-140992000D02*
X251150000Y-140818000D01*
X128820000Y-63045000D02*
X129856100Y-63045000D01*
X251150000Y-163000000D02*
X251150000Y-161964400D01*
%TO.N,/BTN1*%
X178750000Y-114940000D02*
X178750000Y-116705800D01*
%TO.N,/BTN2*%
X177480000Y-116416900D02*
X177203500Y-116693400D01*
X177480000Y-114940000D02*
X177480000Y-116416900D01*
%TO.N,/BTN3*%
X176220000Y-116416900D02*
X174891800Y-117745100D01*
X174891800Y-117745100D02*
X174891800Y-117759000D01*
X176220000Y-114940000D02*
X176220000Y-116416900D01*
%TO.N,/BTN4*%
X174950000Y-114940000D02*
X174950000Y-116416900D01*
X172261600Y-116416900D02*
X172190300Y-116488200D01*
X174950000Y-116416900D02*
X172261600Y-116416900D01*
%TO.N,/LPG_INF_L*%
X275495000Y-111646900D02*
X277245000Y-109896900D01*
X277245000Y-107893100D02*
X225778400Y-107893100D01*
X217229700Y-111625000D02*
X216470000Y-111625000D01*
X275495000Y-112895000D02*
X275495000Y-111646900D01*
X220419500Y-108435200D02*
X217229700Y-111625000D01*
X225236300Y-108435200D02*
X220419500Y-108435200D01*
X277245000Y-108895000D02*
X277245000Y-107893100D01*
X225778400Y-107893100D02*
X225236300Y-108435200D01*
X277245000Y-108895000D02*
X277245000Y-109896900D01*
%TO.N,/LPG_MID_L*%
X264195000Y-110355000D02*
X266358100Y-110355000D01*
X266358100Y-110355000D02*
X267818100Y-108895000D01*
X268545000Y-108895000D02*
X268545000Y-112895000D01*
X268545000Y-108895000D02*
X267818100Y-108895000D01*
%TO.N,/LPG_VCFSW_L*%
X269945000Y-112895000D02*
X270671900Y-112895000D01*
X270671900Y-112895000D02*
X270967700Y-112895000D01*
%TO.N,/LPG_LDR_L*%
X206250000Y-121241100D02*
X206300000Y-121191100D01*
X262988800Y-114228800D02*
X231322600Y-114228800D01*
X206300000Y-118000000D02*
X205573100Y-118000000D01*
X230742400Y-114809000D02*
X222974400Y-114809000D01*
X231322600Y-114228800D02*
X230742400Y-114809000D01*
X264195000Y-115435000D02*
X262988800Y-114228800D01*
D53*
X222974400Y-114809000D02*
X222064000Y-114809000D01*
X222064000Y-114809000D02*
X221420000Y-114165000D01*
D51*
X205573100Y-118000000D02*
X205277900Y-118000000D01*
X206250000Y-122000000D02*
X206250000Y-121241100D01*
X206300000Y-121191100D02*
X206300000Y-118000000D01*
D53*
%TO.N,/LPG_RES_L*%
X222844000Y-109729000D02*
X222064000Y-109729000D01*
D51*
X200700000Y-118000000D02*
X201426900Y-118000000D01*
D53*
X222064000Y-109729000D02*
X221420000Y-109085000D01*
D51*
X201426900Y-118000000D02*
X201705500Y-117721400D01*
%TO.N,/LPG_RESW_L*%
X221420000Y-110355000D02*
X220623000Y-110355000D01*
X198298000Y-118155000D02*
X198418100Y-118155000D01*
X198418100Y-118155000D02*
X198573100Y-118000000D01*
X220623000Y-110355000D02*
X219977500Y-111000500D01*
X199300000Y-118000000D02*
X198573100Y-118000000D01*
%TO.N,/LPG_C5_R*%
X219200000Y-163000000D02*
X219926900Y-163000000D01*
X219926900Y-163000000D02*
X220204400Y-163000000D01*
X221905100Y-155758900D02*
X219850000Y-157814000D01*
X222250000Y-155758900D02*
X221905100Y-155758900D01*
X222250000Y-155000000D02*
X222250000Y-155758900D01*
%TO.N,/LPG_SUM_R*%
X219250000Y-155000000D02*
X218520100Y-155000000D01*
D53*
X218081000Y-149184000D02*
X218725000Y-148540000D01*
D51*
X218520100Y-154023100D02*
X218520100Y-155000000D01*
X217800000Y-159808900D02*
X217800000Y-163000000D01*
X217750000Y-159000000D02*
X217750000Y-159758900D01*
X217750000Y-159758900D02*
X217800000Y-159808900D01*
X218520100Y-155000000D02*
X218520100Y-158959800D01*
D53*
X217298300Y-149184000D02*
X218081000Y-149184000D01*
D51*
X217750000Y-159000000D02*
X218479900Y-159000000D01*
X218520100Y-158959800D02*
X218479900Y-159000000D01*
%TO.N,/LPG_INF_R*%
X226634200Y-145092000D02*
X225643200Y-144101000D01*
X276608200Y-146776900D02*
X238032200Y-146776900D01*
X222386200Y-144101000D02*
X221757200Y-144730000D01*
X225643200Y-144101000D02*
X222386200Y-144101000D01*
X238032200Y-146776900D02*
X236347300Y-145092000D01*
X279500000Y-142000000D02*
X279500000Y-143001900D01*
X278479900Y-146000000D02*
X278479900Y-144022000D01*
X236347300Y-145092000D02*
X226634200Y-145092000D01*
X278479900Y-144022000D02*
X279500000Y-143001900D01*
X277385100Y-146000000D02*
X276608200Y-146776900D01*
X277750000Y-146000000D02*
X277385100Y-146000000D01*
X221757200Y-144730000D02*
X218725000Y-144730000D01*
X277750000Y-146000000D02*
X278479900Y-146000000D01*
%TO.N,/LPG_MID_R*%
X270800000Y-142000000D02*
X270073100Y-142000000D01*
X266450000Y-143460000D02*
X268613100Y-143460000D01*
X268613100Y-143460000D02*
X270073100Y-142000000D01*
X270800000Y-142000000D02*
X270800000Y-146000000D01*
%TO.N,/LPG_VCFSW_R*%
X272200000Y-146000000D02*
X272926900Y-146000000D01*
X272926900Y-146000000D02*
X273230300Y-146000000D01*
X274931600Y-81887400D02*
X268972300Y-81887400D01*
X276188000Y-80631000D02*
X274931600Y-81887400D01*
%TO.N,/LPG_LDR_R*%
X206300000Y-145191100D02*
X206300000Y-142000000D01*
X265267800Y-147357800D02*
X225657100Y-147357800D01*
X206250000Y-145241100D02*
X206300000Y-145191100D01*
X206250000Y-148219200D02*
X206465500Y-148434700D01*
X225657100Y-147357800D02*
X225100900Y-147914000D01*
X206250000Y-146000000D02*
X206250000Y-145241100D01*
D53*
X224319000Y-147914000D02*
X225100900Y-147914000D01*
D51*
X206250000Y-146000000D02*
X206250000Y-148219200D01*
X266450000Y-148540000D02*
X265267800Y-147357800D01*
D53*
X223675000Y-147270000D02*
X224319000Y-147914000D01*
D51*
%TO.N,/LPG_RES_R*%
X223675000Y-142190000D02*
X222758300Y-141273300D01*
X201426900Y-142000000D02*
X201701900Y-142000000D01*
X200700000Y-142000000D02*
X201426900Y-142000000D01*
X211952300Y-85876700D02*
X273482300Y-85876700D01*
X209648000Y-88181000D02*
X211952300Y-85876700D01*
X273482300Y-85876700D02*
X276188000Y-83171000D01*
%TO.N,/LPG_RESW_R*%
X198573100Y-142000000D02*
X198131700Y-142000000D01*
X199300000Y-142000000D02*
X198573100Y-142000000D01*
X223675000Y-143460000D02*
X221282700Y-143460000D01*
%TO.N,/LPG_LED_L*%
X229250000Y-139000000D02*
X229250000Y-138241100D01*
X229478600Y-138012500D02*
X229478600Y-136043200D01*
X231095000Y-123948000D02*
X230545000Y-123398000D01*
X230545000Y-121895000D02*
X228495000Y-121895000D01*
X229250000Y-138241100D02*
X229478600Y-138012500D01*
X230545000Y-123398000D02*
X230545000Y-121895000D01*
%TO.N,/LPG_LED_R*%
X233350000Y-157053000D02*
X232800000Y-156503000D01*
X230020100Y-159000000D02*
X230020100Y-155757000D01*
X232800000Y-156503000D02*
X232800000Y-155000000D01*
X230020100Y-155757000D02*
X230750000Y-155028000D01*
X230020100Y-159000000D02*
X230020100Y-162959800D01*
X229250000Y-163000000D02*
X229979900Y-163000000D01*
X232800000Y-155000000D02*
X230750000Y-155000000D01*
X230020100Y-162959800D02*
X229979900Y-163000000D01*
%TO.N,/BBD_TIMELO_L*%
X166805300Y-115302100D02*
X167068800Y-115038600D01*
X165103600Y-115302100D02*
X166805300Y-115302100D01*
%TO.N,/SRC_RSMP_L*%
X273830600Y-99047500D02*
X273550000Y-98766900D01*
X273550000Y-97765000D02*
X273550000Y-98766900D01*
%TO.N,/SRC_RSMP_R*%
X290807200Y-96763100D02*
X290543900Y-96499800D01*
X291550000Y-96763100D02*
X290807200Y-96763100D01*
X291550000Y-97765000D02*
X291550000Y-96763100D01*
%TO.N,/VBUS*%
X365795000Y-61520000D02*
X365820000Y-61545000D01*
D57*
X365745000Y-61545000D02*
X367745000Y-61545000D01*
D51*
X371799974Y-55690406D02*
X374740026Y-55690406D01*
D58*
X367745000Y-61545000D02*
X370870000Y-58420000D01*
D51*
X375670000Y-56620380D02*
X375670000Y-57230000D01*
X365820000Y-61545000D02*
X365845000Y-61545000D01*
X370870000Y-57230000D02*
X370870000Y-57910570D01*
X365745000Y-61545000D02*
X365770000Y-61545000D01*
X365770000Y-61545000D02*
X365795000Y-61520000D01*
D54*
X370870000Y-57910570D02*
X370870000Y-58420000D01*
D51*
X374740026Y-55690406D02*
X375670000Y-56620380D01*
X370870000Y-57230000D02*
X370870000Y-56620380D01*
X370870000Y-56620380D02*
X371799974Y-55690406D01*
D54*
%TO.N,/POS12V_RAW*%
X295220000Y-103976700D02*
X295220000Y-106620000D01*
X289886300Y-102870000D02*
X289570000Y-102553700D01*
X295120000Y-103876700D02*
X295220000Y-103976700D01*
X295120000Y-102870000D02*
X289886300Y-102870000D01*
X295220000Y-106620000D02*
X296721600Y-106620000D01*
X289570000Y-101570000D02*
X289570000Y-102553700D01*
X295120000Y-102870000D02*
X295120000Y-103876700D01*
%TO.N,/NEG12V_RAW*%
X296920000Y-116626700D02*
X295811600Y-116626700D01*
X284240000Y-104898700D02*
X283996500Y-105142200D01*
X296920000Y-115620000D02*
X296920000Y-116626700D01*
X284240000Y-103915000D02*
X284240000Y-104898700D01*
X283996500Y-105142200D02*
X283996500Y-105486700D01*
X297099400Y-114433900D02*
X296920000Y-114613300D01*
X296920000Y-115620000D02*
X296920000Y-114613300D01*
X293820000Y-119620000D02*
X293820000Y-118618300D01*
X295811600Y-116626700D02*
X293820000Y-118618300D01*
D51*
%TO.N,/LED_POS*%
X285180100Y-122672800D02*
X285465000Y-122387900D01*
X285465000Y-122387900D02*
X285465000Y-115115000D01*
X285910000Y-123290000D02*
X285180100Y-123290000D01*
X285180100Y-123290000D02*
X285180100Y-122672800D01*
%TO.N,/LED_NEG*%
X287990000Y-140695000D02*
X287413100Y-140695000D01*
X287137200Y-140537500D02*
X287255600Y-140537500D01*
X283315000Y-120665000D02*
X283315000Y-121394900D01*
X287255600Y-140537500D02*
X287413100Y-140695000D01*
X283315000Y-121394900D02*
X283598500Y-121678400D01*
%TO.N,/CC1*%
X374243900Y-58483000D02*
X374520000Y-58206900D01*
X374520000Y-57230000D02*
X374520000Y-58206900D01*
%TO.N,/CC2*%
X371595000Y-59645000D02*
X370520000Y-60720000D01*
X370520000Y-60745000D02*
X370495000Y-60745000D01*
X371545000Y-58014620D02*
X371595000Y-58064620D01*
X371545000Y-57255000D02*
X371545000Y-58014620D01*
X370495000Y-60745000D02*
X370570000Y-60670000D01*
X370520000Y-60720000D02*
X370520000Y-60745000D01*
X371520000Y-57230000D02*
X371545000Y-57255000D01*
X371595000Y-58064620D02*
X371595000Y-59645000D01*
%TO.N,/BBD_DRY_R*%
X189420200Y-133846800D02*
X229120700Y-133846800D01*
X174126100Y-133768900D02*
X189342300Y-133768900D01*
X152384100Y-134451100D02*
X173443900Y-134451100D01*
X189342300Y-133768900D02*
X189420200Y-133846800D01*
X229120700Y-133846800D02*
X230223800Y-134949900D01*
X152280000Y-134347000D02*
X152384100Y-134451100D01*
X173443900Y-134451100D02*
X174126100Y-133768900D01*
%TO.N,/BBD_MIXW_R*%
X256148000Y-88181000D02*
X254638500Y-86671500D01*
X254638500Y-86671500D02*
X235698800Y-86671500D01*
D50*
%TO.N,/P5V_BBD*%
X166953400Y-118030000D02*
X169211500Y-115771900D01*
X162061300Y-118030000D02*
X166953400Y-118030000D01*
D51*
%TO.N,/BBD_RAW_L*%
X180235000Y-94300000D02*
X181505000Y-95570000D01*
X197017400Y-95570000D02*
X198196700Y-96749300D01*
X181505000Y-95570000D02*
X197017400Y-95570000D01*
%TO.N,/BTN5*%
X183840000Y-114940000D02*
X183840000Y-116416900D01*
X183254000Y-116416900D02*
X182942400Y-116728500D01*
X183840000Y-116416900D02*
X183254000Y-116416900D01*
%TO.N,/BTN6*%
X182560000Y-114940000D02*
X182560000Y-115583800D01*
X182560000Y-115583800D02*
X181449600Y-116694200D01*
%TO.N,/BBD_CLK_L*%
X181845000Y-109989620D02*
X180539420Y-111295200D01*
X181845000Y-109345000D02*
X181845000Y-109989620D01*
X180539420Y-111295200D02*
X178045200Y-111295200D01*
X178045200Y-111295200D02*
X176045000Y-109295000D01*
%TO.N,/BBD_WET_L*%
X238745800Y-97752100D02*
X232010000Y-104487900D01*
X232010000Y-104487900D02*
X220089300Y-104487900D01*
X220089300Y-104487900D02*
X216395000Y-108182200D01*
%TO.N,/BBD_C1B_R*%
X189763900Y-155870000D02*
X188615000Y-154721100D01*
X193591800Y-155870000D02*
X189763900Y-155870000D01*
X194880800Y-157159000D02*
X193591800Y-155870000D01*
%TO.N,/BBD_SH_IN_L*%
X209621900Y-103413300D02*
X207798900Y-101590300D01*
X213160300Y-103413300D02*
X209621900Y-103413300D01*
%TO.N,/BBD_SH_IN_R*%
X207196500Y-135698000D02*
X212876200Y-135698000D01*
X212876200Y-135698000D02*
X213636200Y-134938000D01*
%TO.N,/BBD_IN_L*%
X156588900Y-107156400D02*
X150935700Y-101503200D01*
X212250000Y-118000000D02*
X211520100Y-118000000D01*
X166503600Y-111789800D02*
X161870200Y-107156400D01*
X189880305Y-111920000D02*
X189175305Y-112625000D01*
X211520100Y-118000000D02*
X211520100Y-117467400D01*
X211520100Y-117467400D02*
X205972700Y-111920000D01*
X205972700Y-111920000D02*
X189880305Y-111920000D01*
X180786100Y-112625000D02*
X179950900Y-111789800D01*
X189175305Y-112625000D02*
X180786100Y-112625000D01*
X161870200Y-107156400D02*
X156588900Y-107156400D01*
X179950900Y-111789800D02*
X166503600Y-111789800D01*
%TO.N,/BBD_INF_L*%
X151656500Y-92120000D02*
X199491300Y-92120000D01*
X149776500Y-94000000D02*
X151656500Y-92120000D01*
X209555800Y-102184500D02*
X222259000Y-102184500D01*
X199491300Y-92120000D02*
X209555800Y-102184500D01*
X222259000Y-102184500D02*
X226264300Y-98179200D01*
%TO.N,/BBD_SIGIN_L*%
X172128000Y-104927600D02*
X172128000Y-106000000D01*
X161279000Y-95701600D02*
X162902000Y-95701600D01*
X162902000Y-95701600D02*
X172128000Y-104927600D01*
%TO.N,/BBD_VCOR1_L*%
X187824200Y-118161400D02*
X187220400Y-117557600D01*
X193828400Y-114987800D02*
X190654800Y-118161400D01*
X193828400Y-114399700D02*
X193828400Y-114987800D01*
X190654800Y-118161400D02*
X187824200Y-118161400D01*
%TO.N,/BBD_OUT_L*%
X270510900Y-97765000D02*
X270242200Y-97496300D01*
X270518100Y-97765000D02*
X270510900Y-97765000D01*
X308746800Y-75915000D02*
X291129100Y-75915000D01*
X309926800Y-77095000D02*
X308746800Y-75915000D01*
X271550000Y-97765000D02*
X270518100Y-97765000D01*
X291129100Y-75915000D02*
X291033000Y-76011100D01*
%TO.N,/BBD_GAIN_R*%
X167613100Y-133715000D02*
X156764900Y-133715000D01*
X167618700Y-133720600D02*
X167613100Y-133715000D01*
%TO.N,/BBD_IN_R*%
X211520100Y-138744400D02*
X211520100Y-142000000D01*
X146235200Y-137581400D02*
X146692800Y-138039000D01*
X146692800Y-138039000D02*
X210814700Y-138039000D01*
X212250000Y-142000000D02*
X211520100Y-142000000D01*
X210814700Y-138039000D02*
X211520100Y-138744400D01*
%TO.N,/BBD_INF_R*%
X150128100Y-136478800D02*
X148750000Y-135100700D01*
X169024800Y-136152500D02*
X164270000Y-136152500D01*
X169301900Y-136429600D02*
X169024800Y-136152500D01*
X164270000Y-136152500D02*
X163943700Y-136478800D01*
X163943700Y-136478800D02*
X150128100Y-136478800D01*
X226521000Y-136429600D02*
X169301900Y-136429600D01*
X227239700Y-135710900D02*
X226521000Y-136429600D01*
%TO.N,/BBD_SIGIN_R*%
X172623000Y-146495000D02*
X172128000Y-146000000D01*
X160585300Y-139519800D02*
X160585300Y-144699300D01*
X188098000Y-145080000D02*
X186683000Y-146495000D01*
X161886000Y-146000000D02*
X172128000Y-146000000D01*
X160585300Y-144699300D02*
X161886000Y-146000000D01*
X186683000Y-146495000D02*
X172623000Y-146495000D01*
X161230700Y-138874400D02*
X160585300Y-139519800D01*
%TO.N,/BBD_OUT_R*%
X336058800Y-78986600D02*
X325499900Y-78986600D01*
X289550000Y-97765000D02*
X289550000Y-97264000D01*
X342330100Y-72715300D02*
X336058800Y-78986600D01*
X289246400Y-96763100D02*
X288971400Y-96488100D01*
X289550000Y-97264000D02*
X286111800Y-100702200D01*
X289550000Y-97264000D02*
X289550000Y-96763100D01*
X289550000Y-96763100D02*
X289246400Y-96763100D01*
X286111800Y-100702200D02*
X283193000Y-100702200D01*
%TO.N,/BBD_MIX_R*%
X228459100Y-140966100D02*
X224685300Y-137192300D01*
X238174000Y-138000000D02*
X233242700Y-138000000D01*
X224685300Y-137192300D02*
X171344100Y-137192300D01*
X233242700Y-138000000D02*
X230276600Y-140966100D01*
X230276600Y-140966100D02*
X228459100Y-140966100D01*
%TO.N,/LPG_ENVN_L*%
X245891700Y-122936100D02*
X254094100Y-122936100D01*
X239470000Y-122085000D02*
X242484100Y-122085000D01*
X242484100Y-122085000D02*
X243119100Y-122720000D01*
X254165100Y-121895000D02*
X254165100Y-122865100D01*
X254895000Y-121895000D02*
X254165100Y-121895000D01*
X245675600Y-122720000D02*
X245891700Y-122936100D01*
X254094100Y-122936100D02*
X254165100Y-122865100D01*
X243119100Y-122720000D02*
X245675600Y-122720000D01*
%TO.N,/LPG_SUMCV_L*%
X255624900Y-138216000D02*
X255650000Y-138241100D01*
D53*
X245861600Y-123997400D02*
X245062400Y-123997400D01*
D51*
X254165100Y-125895000D02*
X254165100Y-125347600D01*
X252814900Y-123997400D02*
X245861600Y-123997400D01*
X254895000Y-125895000D02*
X255624900Y-125895000D01*
X255650000Y-139000000D02*
X255650000Y-138241100D01*
D53*
X245062400Y-123997400D02*
X244420000Y-123355000D01*
D51*
X254165100Y-125347600D02*
X252814900Y-123997400D01*
X254895000Y-125895000D02*
X254165100Y-125895000D01*
X255624900Y-125895000D02*
X255624900Y-138216000D01*
%TO.N,/LPG_CVI_L*%
X239470000Y-123355000D02*
X241056100Y-123355000D01*
X253379900Y-139000000D02*
X253677200Y-139000000D01*
X252650000Y-139000000D02*
X253379900Y-139000000D01*
X253395000Y-121895000D02*
X251952900Y-121895000D01*
X251952900Y-121895000D02*
X251686300Y-122161600D01*
%TO.N,/LPG_CVW_L*%
X253395000Y-125895000D02*
X252665100Y-125895000D01*
X252665100Y-125895000D02*
X252362600Y-125895000D01*
%TO.N,/MSP_RST*%
X214341600Y-132323200D02*
X210129100Y-128110700D01*
X178750000Y-125060000D02*
X178750000Y-126536900D01*
X254515700Y-139223800D02*
X254515700Y-138733200D01*
X254515700Y-138733200D02*
X248105700Y-132323200D01*
X255050800Y-139758900D02*
X254515700Y-139223800D01*
X248105700Y-132323200D02*
X214341600Y-132323200D01*
X210129100Y-128110700D02*
X180323800Y-128110700D01*
X324540000Y-142770000D02*
X323270000Y-141500000D01*
X292055000Y-141500000D02*
X290313900Y-139758900D01*
X290313900Y-139758900D02*
X255050800Y-139758900D01*
X323270000Y-141500000D02*
X292055000Y-141500000D01*
X180323800Y-128110700D02*
X178750000Y-126536900D01*
%TO.N,/LPG_CV_L*%
X259395000Y-124834000D02*
X259395000Y-125895000D01*
X219592500Y-124556400D02*
X221495000Y-122653900D01*
X244420000Y-129705000D02*
X244571200Y-129856200D01*
X221495000Y-121895000D02*
X221495000Y-122653900D01*
X219592500Y-124558000D02*
X219592500Y-124556400D01*
X244571200Y-129856200D02*
X246004200Y-129856200D01*
X216995000Y-125895000D02*
X218255500Y-125895000D01*
X218255500Y-125895000D02*
X219592500Y-124558000D01*
D53*
%TO.N,/LPG_CVI_R*%
X242369000Y-157104000D02*
X241725000Y-156460000D01*
X243141100Y-157104000D02*
X242369000Y-157104000D01*
D51*
X252650000Y-157095000D02*
X252650000Y-163000000D01*
X252825100Y-157095000D02*
X252650000Y-157095000D01*
X254920100Y-155000000D02*
X252825100Y-157095000D01*
X252650000Y-157095000D02*
X243150100Y-157095000D01*
X243150100Y-157095000D02*
X243141100Y-157104000D01*
X255650000Y-155000000D02*
X254920100Y-155000000D01*
%TO.N,/LPG_CVW_R*%
X255650000Y-159000000D02*
X254920100Y-159000000D01*
X254920100Y-159000000D02*
X254643600Y-159000000D01*
%TO.N,/LPG_CV_R*%
X222424200Y-157605900D02*
X221374000Y-157605900D01*
X246574600Y-163448000D02*
X246675000Y-163347600D01*
X246574600Y-163448000D02*
X246842900Y-163716400D01*
X223750000Y-155000000D02*
X224479900Y-155000000D01*
X262379900Y-159000000D02*
X262657900Y-159000000D01*
X246236700Y-163785900D02*
X246574600Y-163448000D01*
X219250000Y-159000000D02*
X219615000Y-159000000D01*
X219615000Y-159000000D02*
X219979900Y-159000000D01*
X224400900Y-163785900D02*
X246236700Y-163785900D01*
X261650000Y-159000000D02*
X262379900Y-159000000D01*
X224479900Y-155000000D02*
X224479900Y-155550200D01*
X224479900Y-155550200D02*
X222424200Y-157605900D01*
X221374000Y-157605900D02*
X219979900Y-159000000D01*
X246675000Y-163347600D02*
X246675000Y-162810000D01*
X219615000Y-159000000D02*
X224400900Y-163785900D01*
%TO.N,/LPG_OFS_L*%
X214765100Y-121895000D02*
X214604700Y-122055400D01*
X214604700Y-122055400D02*
X214472500Y-122055400D01*
X215495000Y-121895000D02*
X214765100Y-121895000D01*
%TO.N,/LPG_BOUT_L*%
X226995000Y-125895000D02*
X226265100Y-125895000D01*
X226204300Y-125955800D02*
X225974900Y-125955800D01*
X215568500Y-117606500D02*
X215568500Y-117609300D01*
X216470000Y-116705000D02*
X215568500Y-117606500D01*
X226265100Y-125895000D02*
X226204300Y-125955800D01*
%TO.N,/LPG_T1_L*%
X221793100Y-118291100D02*
X222661200Y-118291100D01*
X222661200Y-118291100D02*
X226265100Y-121895000D01*
X226995000Y-121895000D02*
X226265100Y-121895000D01*
%TO.N,/LPG_BP_L*%
X219995000Y-125895000D02*
X220724900Y-125895000D01*
X222281200Y-120919600D02*
X222281200Y-123608800D01*
X216891800Y-114165000D02*
X219238000Y-116511200D01*
X216470000Y-114165000D02*
X216891800Y-114165000D01*
X220724900Y-125165100D02*
X220724900Y-125895000D01*
X219238000Y-117876400D02*
X222281200Y-120919600D01*
X219238000Y-116511200D02*
X219238000Y-117876400D01*
X222281200Y-123608800D02*
X220724900Y-125165100D01*
%TO.N,/LPG_AFB_L*%
X279367300Y-106008400D02*
X281495000Y-108136100D01*
X222074000Y-106008400D02*
X279367300Y-106008400D01*
X217727400Y-110355000D02*
X222074000Y-106008400D01*
X281495000Y-108895000D02*
X281495000Y-108136100D01*
X216470000Y-110355000D02*
X217727400Y-110355000D01*
%TO.N,/LPG_ABUF_L*%
X216470000Y-109085000D02*
X216636500Y-108918500D01*
X245171600Y-111578400D02*
X223007100Y-111578400D01*
X246395000Y-110355000D02*
X245171600Y-111578400D01*
X279995000Y-107830900D02*
X279995000Y-108895000D01*
X216636500Y-108918500D02*
X218062600Y-108918500D01*
%TO.N,/LPG_OUT_L*%
X210750000Y-118000000D02*
X210020100Y-118000000D01*
X207750000Y-126000000D02*
X207750000Y-124922600D01*
X221046400Y-118656900D02*
X221046400Y-116705000D01*
X220053800Y-115765800D02*
X220053800Y-112219200D01*
X210020100Y-118000000D02*
X209729700Y-118000000D01*
D53*
X220825800Y-112219200D02*
X221420000Y-111625000D01*
X220053800Y-112219200D02*
X220825800Y-112219200D01*
D51*
X220993000Y-116705000D02*
X220053800Y-115765800D01*
X221420000Y-116705000D02*
X221046400Y-116705000D01*
X221684700Y-119295200D02*
X221046400Y-118656900D01*
X221046400Y-116705000D02*
X220993000Y-116705000D01*
%TO.N,/LPG_CFB_L*%
X223007200Y-116598900D02*
X223007200Y-116740400D01*
X221843300Y-115435000D02*
X223007200Y-116598900D01*
X206250000Y-124940100D02*
X206250000Y-126000000D01*
X221420000Y-115435000D02*
X221843300Y-115435000D01*
%TO.N,/LPG_RESL_L*%
X199250000Y-122000000D02*
X198520100Y-122000000D01*
X198520100Y-122000000D02*
X198511600Y-122008500D01*
X198511600Y-122008500D02*
X198238900Y-122008500D01*
%TO.N,/LPG_OFS_R*%
X211009200Y-72863800D02*
X211009200Y-83539400D01*
X217449800Y-153945100D02*
X217745800Y-154241100D01*
X217750000Y-155000000D02*
X217750000Y-154241100D01*
X211009200Y-83539400D02*
X207454300Y-87094300D01*
X212148000Y-71725000D02*
X211009200Y-72863800D01*
X217745800Y-154241100D02*
X217750000Y-154241100D01*
%TO.N,/LPG_BOUT_R*%
X218725000Y-149810000D02*
X220265500Y-149810000D01*
X220265500Y-149810000D02*
X222031100Y-151575600D01*
X226978400Y-157458300D02*
X226978400Y-155954100D01*
X228520100Y-159000000D02*
X226978400Y-157458300D01*
X229250000Y-159000000D02*
X228520100Y-159000000D01*
%TO.N,/LPG_T1_R*%
X228520100Y-155000000D02*
X228218300Y-154698200D01*
X229250000Y-155000000D02*
X228520100Y-155000000D01*
D53*
%TO.N,/LPG_BP_R*%
X219369000Y-147914000D02*
X220161500Y-147914000D01*
D51*
X223397700Y-158034800D02*
X224483900Y-158034800D01*
X222250000Y-159000000D02*
X222979900Y-159000000D01*
X222979900Y-159000000D02*
X222979900Y-158452600D01*
X222979900Y-158452600D02*
X223397700Y-158034800D01*
D53*
X218725000Y-147270000D02*
X219369000Y-147914000D01*
D51*
%TO.N,/LPG_AFB_R*%
X218695000Y-140503100D02*
X224137600Y-140503100D01*
X282696400Y-143812500D02*
X283750000Y-142758900D01*
X283750000Y-142000000D02*
X283750000Y-142758900D01*
X248191800Y-140214700D02*
X250343500Y-142366400D01*
X217387900Y-142571700D02*
X217387900Y-141810200D01*
X281460600Y-143337700D02*
X281935400Y-143812500D01*
X225467200Y-141832700D02*
X233518300Y-141832700D01*
X280337500Y-140941600D02*
X281460600Y-142064700D01*
X250343500Y-142366400D02*
X252293100Y-142366400D01*
X281935400Y-143812500D02*
X282696400Y-143812500D01*
X281460600Y-142064700D02*
X281460600Y-143337700D01*
X253717900Y-140941600D02*
X280337500Y-140941600D01*
X218725000Y-143460000D02*
X218276200Y-143460000D01*
X218276200Y-143460000D02*
X217387900Y-142571700D01*
X224137600Y-140503100D02*
X225467200Y-141832700D01*
X235136300Y-140214700D02*
X248191800Y-140214700D01*
X217387900Y-141810200D02*
X218695000Y-140503100D01*
X233518300Y-141832700D02*
X235136300Y-140214700D01*
X252293100Y-142366400D02*
X253717900Y-140941600D01*
%TO.N,/LPG_ABUF_R*%
X233932300Y-142283100D02*
X247473100Y-142283100D01*
X282250000Y-142000000D02*
X282250000Y-143042800D01*
X233390400Y-142825000D02*
X233932300Y-142283100D01*
X218725000Y-142190000D02*
X221040700Y-142190000D01*
X221675700Y-142825000D02*
X233390400Y-142825000D01*
X221040700Y-142190000D02*
X221675700Y-142825000D01*
X247473100Y-142283100D02*
X248650000Y-143460000D01*
%TO.N,/LPG_OUT_R*%
X221319300Y-147851400D02*
X223277900Y-149810000D01*
X223277900Y-149810000D02*
X223675000Y-149810000D01*
X222350300Y-152315700D02*
X213230200Y-152315700D01*
X210170000Y-142580000D02*
X210750000Y-142000000D01*
X210170000Y-148309900D02*
X210170000Y-142580000D01*
X208479900Y-150000000D02*
X209697200Y-148782700D01*
X221319300Y-146294300D02*
X221319300Y-147851400D01*
X223675000Y-144730000D02*
X222883600Y-144730000D01*
X222883600Y-144730000D02*
X221319300Y-146294300D01*
X209697200Y-148782700D02*
X210170000Y-148309900D01*
X223675000Y-150991000D02*
X222350300Y-152315700D01*
X207750000Y-150000000D02*
X208479900Y-150000000D01*
X213230200Y-152315700D02*
X209697200Y-148782700D01*
X223675000Y-149810000D02*
X223675000Y-150991000D01*
%TO.N,/LPG_CFB_R*%
X206979900Y-150000000D02*
X206979900Y-150547400D01*
X222555600Y-152771500D02*
X225006900Y-150320200D01*
X225006900Y-150320200D02*
X225006900Y-149463200D01*
X209204000Y-152771500D02*
X222555600Y-152771500D01*
X225006900Y-149463200D02*
X224083700Y-148540000D01*
X206250000Y-150000000D02*
X206979900Y-150000000D01*
X206979900Y-150547400D02*
X209204000Y-152771500D01*
X224083700Y-148540000D02*
X223675000Y-148540000D01*
%TO.N,/LPG_RESL_R*%
X198520100Y-146000000D02*
X198215100Y-146000000D01*
X199250000Y-146000000D02*
X198520100Y-146000000D01*
%TO.N,/LPG_CVD_L*%
X257895000Y-121895000D02*
X257165100Y-121895000D01*
X257879900Y-139000000D02*
X258159000Y-139000000D01*
X244460600Y-122044400D02*
X246047800Y-122044400D01*
X257150000Y-139000000D02*
X257879900Y-139000000D01*
X244420000Y-122085000D02*
X244460600Y-122044400D01*
X257165100Y-121895000D02*
X256888300Y-121895000D01*
%TO.N,/LPG_CVC_L*%
X257895000Y-125895000D02*
X258624900Y-125895000D01*
X257895000Y-125895000D02*
X257895000Y-126962100D01*
X258665100Y-125854800D02*
X258624900Y-125895000D01*
D53*
X244420000Y-128435000D02*
X245065000Y-129080000D01*
D51*
X259395000Y-121895000D02*
X258665100Y-121895000D01*
D53*
X245065000Y-129080000D02*
X246680200Y-129080000D01*
D51*
X258665100Y-121895000D02*
X258665100Y-125854800D01*
D53*
X246680200Y-129080000D02*
X246680200Y-129080100D01*
D51*
%TO.N,/LPG_ENVN_R*%
X256704200Y-155758900D02*
X257150000Y-155758900D01*
X257150000Y-155000000D02*
X257150000Y-155758900D01*
X242070700Y-154844300D02*
X241725000Y-155190000D01*
X243327200Y-154844300D02*
X242070700Y-154844300D01*
X256446000Y-156017100D02*
X256704200Y-155758900D01*
%TO.N,/LPG_SUMCV_R*%
X256420100Y-159000000D02*
X256420100Y-160877700D01*
X255650100Y-162241100D02*
X255650000Y-162241100D01*
D53*
X247317000Y-155818000D02*
X248129700Y-155818000D01*
D51*
X255650000Y-163000000D02*
X255650000Y-162241100D01*
X257150000Y-159000000D02*
X257150000Y-157959700D01*
X257150000Y-157959700D02*
X257151200Y-157958500D01*
D53*
X246675000Y-156460000D02*
X247317000Y-155818000D01*
D51*
X255650100Y-161647700D02*
X255650100Y-162241100D01*
X257150000Y-159000000D02*
X256420100Y-159000000D01*
X256420100Y-160877700D02*
X255650100Y-161647700D01*
%TO.N,/LPG_CVD_R*%
X260150000Y-155000000D02*
X259420100Y-155000000D01*
X257150000Y-162241100D02*
X256959100Y-162241100D01*
X247580300Y-154284700D02*
X246675000Y-155190000D01*
X256959100Y-162241100D02*
X256661800Y-161943800D01*
X257150000Y-163000000D02*
X257150000Y-162241100D01*
X259420100Y-155000000D02*
X259123100Y-155000000D01*
%TO.N,/LPG_CVC_R*%
X258267900Y-159309700D02*
X259110400Y-159309700D01*
X246194400Y-161059400D02*
X246675000Y-161540000D01*
X260150000Y-159000000D02*
X260879900Y-159000000D01*
X260879900Y-159000000D02*
X260879900Y-155040200D01*
X259110400Y-159309700D02*
X259420100Y-159000000D01*
X245095600Y-161059400D02*
X246194400Y-161059400D01*
X260150000Y-159000000D02*
X259420100Y-159000000D01*
X260879900Y-155040200D02*
X260920100Y-155000000D01*
X261650000Y-155000000D02*
X260920100Y-155000000D01*
%TO.N,/LPG_NC_L*%
X239470000Y-128435000D02*
X239470000Y-129705000D01*
%TO.N,/LPG_NC_R*%
X241725000Y-161540000D02*
X241725000Y-162810000D01*
%TO.N,/HP_IN_R*%
X346055100Y-70844600D02*
X342291500Y-67081000D01*
X339884500Y-67081000D02*
X339884500Y-67080900D01*
X342291500Y-67081000D02*
X339884500Y-67081000D01*
X346055100Y-71402000D02*
X346055100Y-70844600D01*
%TO.N,/HP_OUT_R*%
X341782000Y-71121400D02*
X344533800Y-73873200D01*
X344281600Y-56126900D02*
X336618100Y-63790400D01*
X341704900Y-71121400D02*
X341782000Y-71121400D01*
X344845000Y-56126900D02*
X344281600Y-56126900D01*
X336618100Y-66034600D02*
X341704900Y-71121400D01*
X344533800Y-73873200D02*
X344533800Y-77321000D01*
X336618100Y-63790400D02*
X336618100Y-66034600D01*
X344845000Y-55000000D02*
X344845000Y-56126900D01*
%TO.N,/HP_DIV_L*%
X356493000Y-69645000D02*
X352560000Y-65712000D01*
X352560000Y-65712000D02*
X337398900Y-65712000D01*
%TO.N,/HP_BUF_L*%
X356892000Y-58695000D02*
X351353500Y-58695000D01*
X351353500Y-58695000D02*
X349288900Y-60759600D01*
X349288900Y-60759600D02*
X343635000Y-60759600D01*
%TO.N,/EXT_AMP_OUT_L*%
X271550000Y-93765000D02*
X270518100Y-93765000D01*
X270251200Y-93765000D02*
X270233300Y-93782900D01*
X270518100Y-93765000D02*
X270251200Y-93765000D01*
%TO.N,/EXT_AMP_OUT_R*%
X284066300Y-93764900D02*
X284066300Y-93765000D01*
X284066300Y-93765000D02*
X283399000Y-93765000D01*
X284503000Y-93328200D02*
X284066300Y-93764900D01*
X289550000Y-93765000D02*
X288518100Y-93765000D01*
X288081300Y-93328200D02*
X284503000Y-93328200D01*
X288518100Y-93765000D02*
X288081300Y-93328200D01*
X283399000Y-93765000D02*
X283269000Y-93895000D01*
%TO.N,/LPG_LEDK_L*%
X228600000Y-122750000D02*
X228600000Y-125895000D01*
X229420000Y-122750000D02*
X228600000Y-122750000D01*
X229420000Y-117600000D02*
X229420000Y-122750000D01*
X251495000Y-115435000D02*
X249330000Y-117600000D01*
X228600000Y-125895000D02*
X228495000Y-125895000D01*
X249330000Y-117600000D02*
X229420000Y-117600000D01*
%TO.N,/LPG_LEDK_R*%
X251585000Y-150705000D02*
X232550000Y-150705000D01*
X231675000Y-154000000D02*
X231675000Y-155855000D01*
X231675000Y-155855000D02*
X230855000Y-155855000D01*
X230855000Y-159000000D02*
X230750000Y-159000000D01*
X232550000Y-150705000D02*
X232550000Y-154000000D01*
X253750000Y-148540000D02*
X251585000Y-150705000D01*
X230855000Y-155855000D02*
X230855000Y-159000000D01*
X232550000Y-154000000D02*
X231675000Y-154000000D01*
%TD*%
M02*
