%TF.GenerationSoftware,KiCad,Pcbnew,7.0.8*%
%TF.CreationDate,2026-09-23T02:51:34-05:00*%
%TF.ProjectId,vuulgaris,7675756c-6761-4726-9973-2e6b69636164,1.0*%
%TF.SameCoordinates,Original*%
%TF.FileFunction,Paste,Top*%
%TF.FilePolarity,Positive*%
%FSLAX46Y46*%
G04 Gerber Fmt 4.6, Leading zero omitted, Abs format (unit mm)*
G04 Created by KiCad (PCBNEW 7.0.8) date 2026-09-23 02:51:34*
%MOMM*%
%LPD*%
G01*
G04 APERTURE LIST*
G04 Aperture macros list*
%AMRoundRect*
0 Rectangle with rounded corners*
0 $1 Rounding radius*
0 $2 $3 $4 $5 $6 $7 $8 $9 X,Y pos of 4 corners*
0 Add a 4 corners polygon primitive as box body*
4,1,4,$2,$3,$4,$5,$6,$7,$8,$9,$2,$3,0*
0 Add four circle primitives for the rounded corners*
1,1,$1+$1,$2,$3*
1,1,$1+$1,$4,$5*
1,1,$1+$1,$6,$7*
1,1,$1+$1,$8,$9*
0 Add four rect primitives between the rounded corners*
20,1,$1+$1,$2,$3,$4,$5,0*
20,1,$1+$1,$4,$5,$6,$7,0*
20,1,$1+$1,$6,$7,$8,$9,0*
20,1,$1+$1,$8,$9,$2,$3,0*%
%AMFreePoly0*
4,1,5,0.300000,-0.650000,-0.300000,-0.650000,-0.300000,0.650000,0.300000,0.650000,0.300000,-0.650000,0.300000,-0.650000,$1*%
G04 Aperture macros list end*
%ADD10RoundRect,0.150000X-0.825000X-0.150000X0.825000X-0.150000X0.825000X0.150000X-0.825000X0.150000X0*%
%ADD11R,0.800000X0.900000*%
%ADD12R,0.806000X0.864000*%
%ADD13R,1.200000X0.950000*%
%ADD14R,0.566000X0.540000*%
%ADD15R,1.133000X1.377000*%
%ADD16R,2.500000X1.100000*%
%ADD17R,2.340000X3.600000*%
%ADD18R,1.350000X1.410000*%
%ADD19R,1.410000X1.350000*%
%ADD20R,0.900000X0.800000*%
%ADD21R,1.100000X2.500000*%
%ADD22R,3.600000X2.340000*%
%ADD23O,0.600000X2.300000*%
%ADD24R,3.500000X1.200000*%
%ADD25R,2.700000X0.910000*%
%ADD26R,0.500000X0.540000*%
%ADD27R,0.864000X0.806000*%
%ADD28R,0.540000X0.500000*%
%ADD29FreePoly0,180.000000*%
%ADD30R,0.300000X1.300000*%
%ADD31R,0.800000X0.864000*%
G04 APERTURE END LIST*
D10*
%TO.C,U401*%
X218725000Y-142190000D03*
X218725000Y-143460000D03*
X218725000Y-144730000D03*
X218725000Y-146000000D03*
X218725000Y-147270000D03*
X218725000Y-148540000D03*
X218725000Y-149810000D03*
X223675000Y-149810000D03*
X223675000Y-148540000D03*
X223675000Y-147270000D03*
X223675000Y-146000000D03*
X223675000Y-144730000D03*
X223675000Y-143460000D03*
X223675000Y-142190000D03*
%TD*%
D11*
%TO.C,C409*%
X206300000Y-142000000D03*
X207700000Y-142000000D03*
%TD*%
D12*
%TO.C,R323*%
X251150000Y-139000000D03*
X252650000Y-139000000D03*
%TD*%
%TO.C,R314*%
X206250000Y-126000000D03*
X207750000Y-126000000D03*
%TD*%
D13*
%TO.C,D301*%
X233945000Y-121895000D03*
X230545000Y-121895000D03*
%TD*%
D12*
%TO.C,R507*%
X375250000Y-75000000D03*
X376750000Y-75000000D03*
%TD*%
D14*
%TO.C,R21*%
X377150000Y-120020000D03*
X378010000Y-120020000D03*
%TD*%
D15*
%TO.C,FB1*%
X328295000Y-105470000D03*
X330295000Y-105470000D03*
%TD*%
D14*
%TO.C,R20*%
X373140000Y-119920000D03*
X374000000Y-119920000D03*
%TD*%
D12*
%TO.C,R311*%
X279995000Y-108895000D03*
X281495000Y-108895000D03*
%TD*%
D11*
%TO.C,C310*%
X199300000Y-118000000D03*
X200700000Y-118000000D03*
%TD*%
D12*
%TO.C,R408*%
X222250000Y-159000000D03*
X223750000Y-159000000D03*
%TD*%
D16*
%TO.C,U5*%
X315640000Y-107945000D03*
X315640000Y-105645000D03*
X315640000Y-103345000D03*
D17*
X309700000Y-105645000D03*
%TD*%
D18*
%TO.C,C20*%
X302645000Y-106495000D03*
X302645000Y-108495000D03*
%TD*%
D19*
%TO.C,C501*%
X271550000Y-93765000D03*
X273550000Y-93765000D03*
%TD*%
D12*
%TO.C,R310*%
X275495000Y-116895000D03*
X276995000Y-116895000D03*
%TD*%
%TO.C,R313*%
X206250000Y-122000000D03*
X207750000Y-122000000D03*
%TD*%
%TO.C,R428*%
X255650000Y-159000000D03*
X257150000Y-159000000D03*
%TD*%
D11*
%TO.C,C303*%
X234651000Y-126714000D03*
X236051000Y-126714000D03*
%TD*%
D12*
%TO.C,R430*%
X255650000Y-163000000D03*
X257150000Y-163000000D03*
%TD*%
D11*
%TO.C,C307*%
X268545000Y-108895000D03*
X269945000Y-108895000D03*
%TD*%
D12*
%TO.C,R501*%
X277800000Y-93765000D03*
X279300000Y-93765000D03*
%TD*%
%TO.C,R420*%
X255650000Y-155000000D03*
X257150000Y-155000000D03*
%TD*%
D11*
%TO.C,C305*%
X217800000Y-139000000D03*
X219200000Y-139000000D03*
%TD*%
D12*
%TO.C,R315*%
X210750000Y-118000000D03*
X212250000Y-118000000D03*
%TD*%
D11*
%TO.C,C407*%
X270800000Y-142000000D03*
X272200000Y-142000000D03*
%TD*%
D12*
%TO.C,R328*%
X253395000Y-125895000D03*
X254895000Y-125895000D03*
%TD*%
D11*
%TO.C,C308*%
X268545000Y-112895000D03*
X269945000Y-112895000D03*
%TD*%
D20*
%TO.C,C404*%
X250275000Y-158300000D03*
X250275000Y-159700000D03*
%TD*%
D12*
%TO.C,R318*%
X199250000Y-122000000D03*
X200750000Y-122000000D03*
%TD*%
D21*
%TO.C,U6*%
X331870000Y-120040000D03*
X334170000Y-120040000D03*
X336470000Y-120040000D03*
D22*
X334170000Y-114100000D03*
%TD*%
D23*
%TO.C,U3*%
X142750000Y-110060000D03*
X144020000Y-110060000D03*
X145280000Y-110060000D03*
X146550000Y-110060000D03*
X147830000Y-110060000D03*
X149090000Y-110060000D03*
X150360000Y-110060000D03*
X151640000Y-110060000D03*
X152910000Y-110060000D03*
X154170000Y-110060000D03*
X155440000Y-110060000D03*
X156720000Y-110060000D03*
X157980000Y-110060000D03*
X159250000Y-110060000D03*
X159250000Y-99940000D03*
X157980000Y-99940000D03*
X156720000Y-99940000D03*
X155440000Y-99940000D03*
X154170000Y-99940000D03*
X152910000Y-99940000D03*
X151640000Y-99940000D03*
X150360000Y-99940000D03*
X149090000Y-99940000D03*
X147830000Y-99940000D03*
X146550000Y-99940000D03*
X145280000Y-99940000D03*
X144020000Y-99940000D03*
X142750000Y-99940000D03*
%TD*%
D24*
%TO.C,C37*%
X292730000Y-137400000D03*
X298070000Y-137400000D03*
%TD*%
D12*
%TO.C,R411*%
X282250000Y-142000000D03*
X283750000Y-142000000D03*
%TD*%
D25*
%TO.C,C33*%
X292120000Y-115620000D03*
X296920000Y-115620000D03*
%TD*%
D11*
%TO.C,C410*%
X199300000Y-142000000D03*
X200700000Y-142000000D03*
%TD*%
D10*
%TO.C,U402*%
X241725000Y-155190000D03*
X241725000Y-156460000D03*
X241725000Y-157730000D03*
X241725000Y-159000000D03*
X241725000Y-160270000D03*
X241725000Y-161540000D03*
X241725000Y-162810000D03*
X246675000Y-162810000D03*
X246675000Y-161540000D03*
X246675000Y-160270000D03*
X246675000Y-159000000D03*
X246675000Y-157730000D03*
X246675000Y-156460000D03*
X246675000Y-155190000D03*
%TD*%
D12*
%TO.C,R404*%
X222250000Y-155000000D03*
X223750000Y-155000000D03*
%TD*%
%TO.C,R320*%
X253395000Y-121895000D03*
X254895000Y-121895000D03*
%TD*%
%TO.C,R407*%
X229250000Y-155000000D03*
X230750000Y-155000000D03*
%TD*%
D11*
%TO.C,C39*%
X284390000Y-127090000D03*
X285790000Y-127090000D03*
%TD*%
D26*
%TO.C,C27*%
X369705000Y-120070000D03*
X370545000Y-120070000D03*
%TD*%
%TO.C,C26*%
X153325000Y-113995000D03*
X154165000Y-113995000D03*
%TD*%
D15*
%TO.C,FB2*%
X329820000Y-108995000D03*
X327820000Y-108995000D03*
%TD*%
D12*
%TO.C,R423*%
X251150000Y-163000000D03*
X252650000Y-163000000D03*
%TD*%
%TO.C,R304*%
X219995000Y-121895000D03*
X221495000Y-121895000D03*
%TD*%
D11*
%TO.C,C302*%
X224920000Y-112895000D03*
X226320000Y-112895000D03*
%TD*%
D12*
%TO.C,R405*%
X217750000Y-159000000D03*
X219250000Y-159000000D03*
%TD*%
D19*
%TO.C,C504*%
X289550000Y-97765000D03*
X291550000Y-97765000D03*
%TD*%
D11*
%TO.C,C34*%
X293820000Y-106620000D03*
X295220000Y-106620000D03*
%TD*%
D12*
%TO.C,R417*%
X229250000Y-163000000D03*
X230750000Y-163000000D03*
%TD*%
D10*
%TO.C,U301*%
X216470000Y-109085000D03*
X216470000Y-110355000D03*
X216470000Y-111625000D03*
X216470000Y-112895000D03*
X216470000Y-114165000D03*
X216470000Y-115435000D03*
X216470000Y-116705000D03*
X221420000Y-116705000D03*
X221420000Y-115435000D03*
X221420000Y-114165000D03*
X221420000Y-112895000D03*
X221420000Y-111625000D03*
X221420000Y-110355000D03*
X221420000Y-109085000D03*
%TD*%
D27*
%TO.C,R503*%
X128820000Y-63045000D03*
X128820000Y-64545000D03*
%TD*%
D12*
%TO.C,R305*%
X215495000Y-125895000D03*
X216995000Y-125895000D03*
%TD*%
D19*
%TO.C,C25*%
X329170000Y-123070000D03*
X327170000Y-123070000D03*
%TD*%
D12*
%TO.C,R409*%
X277750000Y-146000000D03*
X279250000Y-146000000D03*
%TD*%
%TO.C,R309*%
X275495000Y-112895000D03*
X276995000Y-112895000D03*
%TD*%
D11*
%TO.C,C401*%
X213906000Y-146819000D03*
X215306000Y-146819000D03*
%TD*%
D12*
%TO.C,R410*%
X277750000Y-150000000D03*
X279250000Y-150000000D03*
%TD*%
D19*
%TO.C,C502*%
X289550000Y-93765000D03*
X291550000Y-93765000D03*
%TD*%
D10*
%TO.C,U302*%
X239470000Y-122085000D03*
X239470000Y-123355000D03*
X239470000Y-124625000D03*
X239470000Y-125895000D03*
X239470000Y-127165000D03*
X239470000Y-128435000D03*
X239470000Y-129705000D03*
X244420000Y-129705000D03*
X244420000Y-128435000D03*
X244420000Y-127165000D03*
X244420000Y-125895000D03*
X244420000Y-124625000D03*
X244420000Y-123355000D03*
X244420000Y-122085000D03*
%TD*%
D12*
%TO.C,R431*%
X260150000Y-155000000D03*
X261650000Y-155000000D03*
%TD*%
D26*
%TO.C,C23*%
X340590000Y-117070000D03*
X339750000Y-117070000D03*
%TD*%
D11*
%TO.C,C405*%
X217800000Y-163000000D03*
X219200000Y-163000000D03*
%TD*%
D12*
%TO.C,R414*%
X206250000Y-150000000D03*
X207750000Y-150000000D03*
%TD*%
%TO.C,R506*%
X371250000Y-75000000D03*
X372750000Y-75000000D03*
%TD*%
D13*
%TO.C,D401*%
X236200000Y-155000000D03*
X232800000Y-155000000D03*
%TD*%
D11*
%TO.C,C301*%
X211651000Y-113714000D03*
X213051000Y-113714000D03*
%TD*%
D24*
%TO.C,C36*%
X291725000Y-126245000D03*
X297065000Y-126245000D03*
%TD*%
D28*
%TO.C,C21*%
X306470000Y-107325000D03*
X306470000Y-108165000D03*
%TD*%
D25*
%TO.C,C32*%
X295120000Y-102870000D03*
X299920000Y-102870000D03*
%TD*%
D23*
%TO.C,U4*%
X174950000Y-125060000D03*
X176220000Y-125060000D03*
X177480000Y-125060000D03*
X178750000Y-125060000D03*
X180030000Y-125060000D03*
X181290000Y-125060000D03*
X182560000Y-125060000D03*
X183840000Y-125060000D03*
X185110000Y-125060000D03*
X186370000Y-125060000D03*
X187640000Y-125060000D03*
X188920000Y-125060000D03*
X190180000Y-125060000D03*
X191450000Y-125060000D03*
X191450000Y-114940000D03*
X190180000Y-114940000D03*
X188920000Y-114940000D03*
X187640000Y-114940000D03*
X186370000Y-114940000D03*
X185110000Y-114940000D03*
X183840000Y-114940000D03*
X182560000Y-114940000D03*
X181290000Y-114940000D03*
X180030000Y-114940000D03*
X178750000Y-114940000D03*
X177480000Y-114940000D03*
X176220000Y-114940000D03*
X174950000Y-114940000D03*
%TD*%
D11*
%TO.C,C38*%
X284265000Y-110090000D03*
X285665000Y-110090000D03*
%TD*%
D12*
%TO.C,R330*%
X255650000Y-139000000D03*
X257150000Y-139000000D03*
%TD*%
D27*
%TO.C,R504*%
X150345000Y-62895000D03*
X150345000Y-64395000D03*
%TD*%
D29*
%TO.C,J11*%
X376470000Y-48230000D03*
X375670000Y-48230000D03*
D30*
X374520000Y-48230000D03*
X373520000Y-48230000D03*
X373020000Y-48230000D03*
X372020000Y-48230000D03*
D29*
X370070000Y-48230000D03*
X370870000Y-48230000D03*
D30*
X371520000Y-48230000D03*
X372520000Y-48230000D03*
X374020000Y-48230000D03*
X375020000Y-48230000D03*
%TD*%
D12*
%TO.C,R303*%
X215495000Y-121895000D03*
X216995000Y-121895000D03*
%TD*%
D11*
%TO.C,C408*%
X270800000Y-146000000D03*
X272200000Y-146000000D03*
%TD*%
D12*
%TO.C,R433*%
X260150000Y-159000000D03*
X261650000Y-159000000D03*
%TD*%
%TO.C,R24*%
X285910000Y-123290000D03*
X287410000Y-123290000D03*
%TD*%
%TO.C,R505*%
X307250000Y-98000000D03*
X308750000Y-98000000D03*
%TD*%
%TO.C,R406*%
X229250000Y-159000000D03*
X230750000Y-159000000D03*
%TD*%
%TO.C,R508*%
X379250000Y-75000000D03*
X380750000Y-75000000D03*
%TD*%
%TO.C,R331*%
X257895000Y-121895000D03*
X259395000Y-121895000D03*
%TD*%
%TO.C,R415*%
X210750000Y-142000000D03*
X212250000Y-142000000D03*
%TD*%
D11*
%TO.C,C402*%
X227175000Y-146000000D03*
X228575000Y-146000000D03*
%TD*%
D12*
%TO.C,R403*%
X217750000Y-155000000D03*
X219250000Y-155000000D03*
%TD*%
D19*
%TO.C,C503*%
X271550000Y-97765000D03*
X273550000Y-97765000D03*
%TD*%
D11*
%TO.C,C309*%
X206300000Y-118000000D03*
X207700000Y-118000000D03*
%TD*%
D12*
%TO.C,R308*%
X219995000Y-125895000D03*
X221495000Y-125895000D03*
%TD*%
%TO.C,R418*%
X199250000Y-146000000D03*
X200750000Y-146000000D03*
%TD*%
%TO.C,R317*%
X229250000Y-139000000D03*
X230750000Y-139000000D03*
%TD*%
D19*
%TO.C,C24*%
X319670000Y-103445000D03*
X321670000Y-103445000D03*
%TD*%
D12*
%TO.C,R502*%
X277800000Y-97765000D03*
X279300000Y-97765000D03*
%TD*%
%TO.C,R307*%
X226995000Y-121895000D03*
X228495000Y-121895000D03*
%TD*%
D11*
%TO.C,C35*%
X293820000Y-119620000D03*
X295220000Y-119620000D03*
%TD*%
D31*
%TO.C,L1*%
X289570000Y-101570000D03*
X290970000Y-101570000D03*
%TD*%
D18*
%TO.C,C22*%
X328170000Y-116070000D03*
X328170000Y-118070000D03*
%TD*%
D19*
%TO.C,C406*%
X277500000Y-142000000D03*
X279500000Y-142000000D03*
%TD*%
D27*
%TO.C,R25*%
X283315000Y-120665000D03*
X283315000Y-119165000D03*
%TD*%
D12*
%TO.C,R333*%
X257895000Y-125895000D03*
X259395000Y-125895000D03*
%TD*%
D31*
%TO.C,L2*%
X284240000Y-103915000D03*
X285640000Y-103915000D03*
%TD*%
D26*
%TO.C,D1*%
X285465000Y-115115000D03*
X284625000Y-115115000D03*
%TD*%
%TO.C,D2*%
X288830000Y-140695000D03*
X287990000Y-140695000D03*
%TD*%
D12*
%TO.C,R413*%
X206250000Y-146000000D03*
X207750000Y-146000000D03*
%TD*%
D19*
%TO.C,C306*%
X275245000Y-108895000D03*
X277245000Y-108895000D03*
%TD*%
D12*
%TO.C,R306*%
X226995000Y-125895000D03*
X228495000Y-125895000D03*
%TD*%
D11*
%TO.C,C304*%
X247920000Y-125895000D03*
X249320000Y-125895000D03*
%TD*%
%TO.C,C403*%
X236906000Y-159819000D03*
X238306000Y-159819000D03*
%TD*%
M02*
