%TF.GenerationSoftware,KiCad,Pcbnew,7.0.8*%
%TF.CreationDate,2026-09-10T15:50:06-05:00*%
%TF.ProjectId,vuulgaris,7675756c-6761-4726-9973-2e6b69636164,1.0*%
%TF.SameCoordinates,Original*%
%TF.FileFunction,Copper,L4,Bot*%
%TF.FilePolarity,Positive*%
%FSLAX46Y46*%
G04 Gerber Fmt 4.6, Leading zero omitted, Abs format (unit mm)*
G04 Created by KiCad (PCBNEW 7.0.8) date 2026-09-10 15:50:06*
%MOMM*%
%LPD*%
G01*
G04 APERTURE LIST*
%TA.AperFunction,ComponentPad*%
%ADD10C,1.800000*%
%TD*%
%TA.AperFunction,ComponentPad*%
%ADD11O,3.300000X3.500000*%
%TD*%
%TA.AperFunction,ComponentPad*%
%ADD12C,1.600000*%
%TD*%
%TA.AperFunction,ComponentPad*%
%ADD13O,2.600000X1.600000*%
%TD*%
%TA.AperFunction,ComponentPad*%
%ADD14C,2.200000*%
%TD*%
%TA.AperFunction,ComponentPad*%
%ADD15C,1.879600*%
%TD*%
%TA.AperFunction,ComponentPad*%
%ADD16R,1.700000X1.700000*%
%TD*%
%TA.AperFunction,ComponentPad*%
%ADD17C,1.700000*%
%TD*%
%TA.AperFunction,ComponentPad*%
%ADD18C,2.000000*%
%TD*%
%TA.AperFunction,ComponentPad*%
%ADD19R,1.600000X1.600000*%
%TD*%
%TA.AperFunction,ComponentPad*%
%ADD20C,1.524000*%
%TD*%
%TA.AperFunction,ComponentPad*%
%ADD21O,1.200000X2.000000*%
%TD*%
%TA.AperFunction,ComponentPad*%
%ADD22O,1.200000X1.800000*%
%TD*%
%TA.AperFunction,ComponentPad*%
%ADD23O,2.200000X3.500000*%
%TD*%
%TA.AperFunction,SMDPad,CuDef*%
%ADD24R,0.806000X0.864000*%
%TD*%
%TA.AperFunction,SMDPad,CuDef*%
%ADD25O,0.568000X1.950000*%
%TD*%
%TA.AperFunction,ComponentPad*%
%ADD26R,3.100000X1.600000*%
%TD*%
%TA.AperFunction,SMDPad,CuDef*%
%ADD27R,1.410000X1.350000*%
%TD*%
%TA.AperFunction,SMDPad,CuDef*%
%ADD28R,1.300000X1.600000*%
%TD*%
%TA.AperFunction,SMDPad,CuDef*%
%ADD29R,2.000000X1.600000*%
%TD*%
%TA.AperFunction,SMDPad,CuDef*%
%ADD30R,0.950000X1.150000*%
%TD*%
%TA.AperFunction,SMDPad,CuDef*%
%ADD31R,0.800000X0.900000*%
%TD*%
%TA.AperFunction,SMDPad,CuDef*%
%ADD32R,1.000000X0.650000*%
%TD*%
%TA.AperFunction,SMDPad,CuDef*%
%ADD33R,0.864000X0.806000*%
%TD*%
%TA.AperFunction,SMDPad,CuDef*%
%ADD34O,0.595000X1.598000*%
%TD*%
%TA.AperFunction,SMDPad,CuDef*%
%ADD35O,0.630000X1.865000*%
%TD*%
%TA.AperFunction,SMDPad,CuDef*%
%ADD36R,2.500000X1.100000*%
%TD*%
%TA.AperFunction,SMDPad,CuDef*%
%ADD37R,2.340000X3.600000*%
%TD*%
%TA.AperFunction,SMDPad,CuDef*%
%ADD38O,1.865000X0.630000*%
%TD*%
%TA.AperFunction,ComponentPad*%
%ADD39O,1.800000X3.000000*%
%TD*%
%TA.AperFunction,SMDPad,CuDef*%
%ADD40R,1.350000X1.410000*%
%TD*%
%TA.AperFunction,SMDPad,CuDef*%
%ADD41R,0.900000X0.800000*%
%TD*%
%TA.AperFunction,ComponentPad*%
%ADD42C,2.400000*%
%TD*%
%TA.AperFunction,SMDPad,CuDef*%
%ADD43R,1.600000X0.700000*%
%TD*%
%TA.AperFunction,SMDPad,CuDef*%
%ADD44R,1.500000X1.200000*%
%TD*%
%TA.AperFunction,SMDPad,CuDef*%
%ADD45R,2.200000X1.200000*%
%TD*%
%TA.AperFunction,SMDPad,CuDef*%
%ADD46R,1.500000X1.600000*%
%TD*%
%TA.AperFunction,SMDPad,CuDef*%
%ADD47R,3.500000X1.200000*%
%TD*%
%TA.AperFunction,SMDPad,CuDef*%
%ADD48R,1.407000X3.499000*%
%TD*%
%TA.AperFunction,ViaPad*%
%ADD49C,0.800000*%
%TD*%
%TA.AperFunction,Conductor*%
%ADD50C,0.250000*%
%TD*%
%TA.AperFunction,Conductor*%
%ADD51C,0.500000*%
%TD*%
%TA.AperFunction,Conductor*%
%ADD52C,0.187400*%
%TD*%
%TA.AperFunction,Conductor*%
%ADD53C,0.600000*%
%TD*%
%TA.AperFunction,Conductor*%
%ADD54C,0.450000*%
%TD*%
%TA.AperFunction,Conductor*%
%ADD55C,1.500000*%
%TD*%
%TA.AperFunction,Conductor*%
%ADD56C,0.799800*%
%TD*%
%TA.AperFunction,Conductor*%
%ADD57C,0.375000*%
%TD*%
G04 APERTURE END LIST*
D10*
%TO.P,ENC3,A,A*%
%TO.N,/ENC3_A*%
X137608000Y-71895000D03*
%TO.P,ENC3,B,B*%
%TO.N,/ENC3_B*%
X142688000Y-71895000D03*
%TO.P,ENC3,C,C*%
%TO.N,/GND*%
X140148000Y-71895000D03*
D11*
%TO.P,ENC3,D,D*%
X145748000Y-64395000D03*
%TO.P,ENC3,E,E*%
X134548000Y-64395000D03*
%TD*%
D12*
%TO.P,RV5,1,1*%
%TO.N,/GND*%
X253648000Y-74225000D03*
%TO.P,RV5,2,2*%
%TO.N,/BBD_FB_L*%
X256148000Y-74225000D03*
%TO.P,RV5,3,3*%
%TO.N,/BBD_WETAC_L*%
X258648000Y-74225000D03*
%TO.P,RV5,4,4*%
%TO.N,/GND*%
X253648000Y-71725000D03*
%TO.P,RV5,5,5*%
%TO.N,/BBD_FB_R*%
X256148000Y-71725000D03*
%TO.P,RV5,6,6*%
%TO.N,/BBD_WETAC_R*%
X258648000Y-71725000D03*
D13*
%TO.P,RV5,7,7*%
%TO.N,/GND*%
X251398000Y-64225000D03*
%TO.P,RV5,8,8*%
X260898000Y-64225000D03*
%TD*%
D10*
%TO.P,ENC5,A,A*%
%TO.N,/ENC5_A*%
X159608000Y-71895000D03*
%TO.P,ENC5,B,B*%
%TO.N,/ENC5_B*%
X164688000Y-71895000D03*
%TO.P,ENC5,C,C*%
%TO.N,/GND*%
X162148000Y-71895000D03*
D11*
%TO.P,ENC5,D,D*%
X167748000Y-64395000D03*
%TO.P,ENC5,E,E*%
X156548000Y-64395000D03*
%TD*%
D10*
%TO.P,ENC2,A,A*%
%TO.N,/ENC2_A*%
X115608000Y-88351000D03*
%TO.P,ENC2,B,B*%
%TO.N,/ENC2_B*%
X120688000Y-88351000D03*
%TO.P,ENC2,C,C*%
%TO.N,/GND*%
X118148000Y-88351000D03*
D11*
%TO.P,ENC2,D,D*%
X123748000Y-80851000D03*
%TO.P,ENC2,E,E*%
X112548000Y-80851000D03*
%TD*%
D14*
%TO.P,SW5,1,1*%
%TO.N,/BTN2*%
X128076000Y-132413000D03*
%TO.P,SW5,2,2*%
%TO.N,/GND*%
X140576000Y-132413000D03*
%TO.P,SW5,3,3*%
%TO.N,/BTN2*%
X128076000Y-137493000D03*
%TO.P,SW5,4,4*%
%TO.N,/GND*%
X140576000Y-137493000D03*
%TD*%
D10*
%TO.P,ENC1,A,A*%
%TO.N,/ENC1_A*%
X115608000Y-71895000D03*
%TO.P,ENC1,B,B*%
%TO.N,/ENC1_B*%
X120688000Y-71895000D03*
%TO.P,ENC1,C,C*%
%TO.N,/GND*%
X118148000Y-71895000D03*
D11*
%TO.P,ENC1,D,D*%
X123748000Y-64395000D03*
%TO.P,ENC1,E,E*%
X112548000Y-64395000D03*
%TD*%
D15*
%TO.P,U1,A1,-12V*%
%TO.N,/NEG12V*%
X379115000Y-99225000D03*
%TO.P,U1,A2,UART_RX*%
%TO.N,/MSP430_TXD*%
X379115000Y-101765000D03*
%TO.P,U1,A3,UART_TX*%
%TO.N,/MSP430_RXD*%
X379115000Y-104305000D03*
%TO.P,U1,A4,GND*%
%TO.N,/GND*%
X379115000Y-106845000D03*
%TO.P,U1,A5,+12V*%
%TO.N,/POS12V*%
X379115000Y-109385000D03*
%TO.P,U1,A6,+5V*%
%TO.N,/P5V*%
X376575000Y-109385000D03*
%TO.P,U1,A7,GND*%
%TO.N,/GND*%
X376575000Y-106845000D03*
%TO.P,U1,A8,USB_DM*%
%TO.N,unconnected-(U1-USB_DM-PadA8)*%
X376575000Y-104305000D03*
%TO.P,U1,A9,USB_DP*%
%TO.N,/OLED_RES*%
X376575000Y-101765000D03*
%TO.P,U1,A10,+3V3*%
%TO.N,/P3V3_DAISY*%
X376575000Y-99225000D03*
%TO.P,U1,B1,AUDIO_OUT_R*%
%TO.N,/AUDIO_OUT_R*%
X381925000Y-160575000D03*
%TO.P,U1,B2,AUDIO_OUT_L*%
%TO.N,/AUDIO_OUT_L*%
X379385000Y-160575000D03*
%TO.P,U1,B3,AUDIO_IN_R*%
%TO.N,/AUDIO_IN_R*%
X376845000Y-160575000D03*
%TO.P,U1,B4,AUDIO_IN_L*%
%TO.N,/AUDIO_IN_L*%
X374305000Y-160575000D03*
%TO.P,U1,B5,GATE_OUT_1*%
%TO.N,/GATE_OUT_1*%
X371765000Y-160575000D03*
%TO.P,U1,B6,GATE_OUT_2*%
%TO.N,/GATE_OUT_2*%
X371765000Y-158035000D03*
%TO.P,U1,B7,I2C1_SCL*%
%TO.N,/I2C_SCL*%
X374305000Y-158035000D03*
%TO.P,U1,B8,I2C1_SDA*%
%TO.N,/I2C_SDA*%
X376845000Y-158035000D03*
%TO.P,U1,B9,GATE_IN_2*%
%TO.N,unconnected-(U1-GATE_IN_2-PadB9)*%
X379385000Y-158035000D03*
%TO.P,U1,B10,GATE_IN_1*%
%TO.N,/GATE_IN*%
X381925000Y-158035000D03*
%TO.P,U1,C1,CV_OUT_2*%
%TO.N,/TIME_CV*%
X355925000Y-160575000D03*
%TO.P,U1,C2,CV4*%
%TO.N,unconnected-(U1-CV4-PadC2)*%
X353385000Y-160575000D03*
%TO.P,U1,C3,CV3*%
%TO.N,unconnected-(U1-CV3-PadC3)*%
X350845000Y-160575000D03*
%TO.P,U1,C4,CV2*%
%TO.N,unconnected-(U1-CV2-PadC4)*%
X348305000Y-160575000D03*
%TO.P,U1,C5,CV1*%
%TO.N,unconnected-(U1-CV1-PadC5)*%
X345765000Y-160575000D03*
%TO.P,U1,C6,CV5*%
%TO.N,unconnected-(U1-CV5-PadC6)*%
X345765000Y-158035000D03*
%TO.P,U1,C7,CV6*%
%TO.N,unconnected-(U1-CV6-PadC7)*%
X348305000Y-158035000D03*
%TO.P,U1,C8,CV7*%
%TO.N,unconnected-(U1-CV7-PadC8)*%
X350845000Y-158035000D03*
%TO.P,U1,C9,CV8*%
%TO.N,/CV_IN_JACK*%
X353385000Y-158035000D03*
%TO.P,U1,C10,CV_OUT_1*%
%TO.N,/LPG_ENV*%
X355925000Y-158035000D03*
%TO.P,U1,D1,SPI_NSS*%
%TO.N,/OLED_CS*%
X351115000Y-99225000D03*
%TO.P,U1,D2,SDMMC_D3*%
%TO.N,/OLED_DC*%
X351115000Y-101765000D03*
%TO.P,U1,D3,SDMMC_D2*%
%TO.N,unconnected-(U1-SDMMC_D2-PadD3)*%
X351115000Y-104305000D03*
%TO.P,U1,D4,SDMMC_D1*%
%TO.N,unconnected-(U1-SDMMC_D1-PadD4)*%
X351115000Y-106845000D03*
%TO.P,U1,D5,SDMMC_D0*%
%TO.N,/SD_D0*%
X351115000Y-109385000D03*
%TO.P,U1,D6,SDMMC_CK*%
%TO.N,/SD_CLK*%
X348575000Y-109385000D03*
%TO.P,U1,D7,SDMMC_CMD*%
%TO.N,/SD_CMD*%
X348575000Y-106845000D03*
%TO.P,U1,D8,SPI_MISO*%
%TO.N,unconnected-(U1-SPI_MISO-PadD8)*%
X348575000Y-104305000D03*
%TO.P,U1,D9,SPI_MOSI*%
%TO.N,/OLED_MOSI*%
X348575000Y-101765000D03*
%TO.P,U1,D10,SPI_SCK*%
%TO.N,/OLED_SCK*%
X348575000Y-99225000D03*
%TD*%
D10*
%TO.P,ENC4,A,A*%
%TO.N,/ENC4_A*%
X137608000Y-88351000D03*
%TO.P,ENC4,B,B*%
%TO.N,/ENC4_B*%
X142688000Y-88351000D03*
%TO.P,ENC4,C,C*%
%TO.N,/GND*%
X140148000Y-88351000D03*
D11*
%TO.P,ENC4,D,D*%
X145748000Y-80851000D03*
%TO.P,ENC4,E,E*%
X134548000Y-80851000D03*
%TD*%
D16*
%TO.P,VT301,1,A*%
%TO.N,/LPG_LED_L*%
X233695000Y-110355000D03*
D17*
%TO.P,VT301,2,K*%
%TO.N,/LPG_LEDM_L*%
X233695000Y-115435000D03*
%TO.P,VT301,3,CELL1*%
%TO.N,/LPG_ABUF_L*%
X246395000Y-110355000D03*
%TO.P,VT301,4,CELL2*%
%TO.N,/LPG_MID_L*%
X246395000Y-115435000D03*
%TD*%
D14*
%TO.P,SW9,1,1*%
%TO.N,/BTN6*%
X128076000Y-157813000D03*
%TO.P,SW9,2,2*%
%TO.N,/GND*%
X140576000Y-157813000D03*
%TO.P,SW9,3,3*%
%TO.N,/BTN6*%
X128076000Y-162893000D03*
%TO.P,SW9,4,4*%
%TO.N,/GND*%
X140576000Y-162893000D03*
%TD*%
D12*
%TO.P,RV6,1,1*%
%TO.N,/BBD_DRY_L*%
X253648000Y-90681000D03*
%TO.P,RV6,2,2*%
%TO.N,/BBD_MIXW_L*%
X256148000Y-90681000D03*
%TO.P,RV6,3,3*%
%TO.N,/BBD_WETAC_L*%
X258648000Y-90681000D03*
%TO.P,RV6,4,4*%
%TO.N,/BBD_DRY_R*%
X253648000Y-88181000D03*
%TO.P,RV6,5,5*%
%TO.N,/BBD_MIXW_R*%
X256148000Y-88181000D03*
%TO.P,RV6,6,6*%
%TO.N,/BBD_WETAC_R*%
X258648000Y-88181000D03*
D13*
%TO.P,RV6,7,7*%
%TO.N,/GND*%
X251398000Y-80681000D03*
%TO.P,RV6,8,8*%
X260898000Y-80681000D03*
%TD*%
D10*
%TO.P,ENC8,A,A*%
%TO.N,/ENC8_A*%
X181608000Y-88351000D03*
%TO.P,ENC8,B,B*%
%TO.N,/ENC8_B*%
X186688000Y-88351000D03*
%TO.P,ENC8,C,C*%
%TO.N,/GND*%
X184148000Y-88351000D03*
D11*
%TO.P,ENC8,D,D*%
X189748000Y-80851000D03*
%TO.P,ENC8,E,E*%
X178548000Y-80851000D03*
%TD*%
D12*
%TO.P,RV1,1,1*%
%TO.N,/POS12V*%
X209648000Y-74225000D03*
%TO.P,RV1,2,2*%
%TO.N,/LPG_OFS_L*%
X212148000Y-74225000D03*
%TO.P,RV1,3,3*%
%TO.N,/GND*%
X214648000Y-74225000D03*
%TO.P,RV1,4,4*%
%TO.N,/POS12V*%
X209648000Y-71725000D03*
%TO.P,RV1,5,5*%
%TO.N,/LPG_OFS_R*%
X212148000Y-71725000D03*
%TO.P,RV1,6,6*%
%TO.N,/GND*%
X214648000Y-71725000D03*
D13*
%TO.P,RV1,7,7*%
X207398000Y-64225000D03*
%TO.P,RV1,8,8*%
X216898000Y-64225000D03*
%TD*%
D18*
%TO.P,TP3,1,1*%
%TO.N,/P5V*%
X113000000Y-54000000D03*
%TD*%
D12*
%TO.P,RV4,1,1*%
%TO.N,/BBD_TIMEHI_L*%
X231648000Y-90681000D03*
%TO.P,RV4,2,2*%
%TO.N,/BBD_TIMEW_L*%
X234148000Y-90681000D03*
%TO.P,RV4,3,3*%
%TO.N,/BBD_TIMELO_L*%
X236648000Y-90681000D03*
%TO.P,RV4,4,4*%
%TO.N,/BBD_TIMEHI_R*%
X231648000Y-88181000D03*
%TO.P,RV4,5,5*%
%TO.N,/BBD_TIMEW_R*%
X234148000Y-88181000D03*
%TO.P,RV4,6,6*%
%TO.N,/BBD_TIMELO_R*%
X236648000Y-88181000D03*
D13*
%TO.P,RV4,7,7*%
%TO.N,/GND*%
X229398000Y-80681000D03*
%TO.P,RV4,8,8*%
X238898000Y-80681000D03*
%TD*%
D10*
%TO.P,ENC7,A,A*%
%TO.N,/ENC7_A*%
X181608000Y-71895000D03*
%TO.P,ENC7,B,B*%
%TO.N,/ENC7_B*%
X186688000Y-71895000D03*
%TO.P,ENC7,C,C*%
%TO.N,/GND*%
X184148000Y-71895000D03*
D11*
%TO.P,ENC7,D,D*%
X189748000Y-64395000D03*
%TO.P,ENC7,E,E*%
X178548000Y-64395000D03*
%TD*%
D14*
%TO.P,SW6,1,1*%
%TO.N,/BTN3*%
X112576000Y-145113000D03*
%TO.P,SW6,2,2*%
%TO.N,/GND*%
X125076000Y-145113000D03*
%TO.P,SW6,3,3*%
%TO.N,/BTN3*%
X112576000Y-150193000D03*
%TO.P,SW6,4,4*%
%TO.N,/GND*%
X125076000Y-150193000D03*
%TD*%
%TO.P,SW8,1,1*%
%TO.N,/BTN5*%
X112576000Y-157813000D03*
%TO.P,SW8,2,2*%
%TO.N,/GND*%
X125076000Y-157813000D03*
%TO.P,SW8,3,3*%
%TO.N,/BTN5*%
X112576000Y-162893000D03*
%TO.P,SW8,4,4*%
%TO.N,/GND*%
X125076000Y-162893000D03*
%TD*%
D18*
%TO.P,TP2,1,1*%
%TO.N,/NEG12V*%
X108500000Y-54000000D03*
%TD*%
D19*
%TO.P,DS1,1,GND*%
%TO.N,/GND*%
X298048000Y-84709000D03*
D12*
%TO.P,DS1,2,VCC*%
%TO.N,/P3V3_OLED*%
X298048000Y-82169000D03*
%TO.P,DS1,3,SCL*%
%TO.N,/OLED_SCK*%
X298048000Y-79629000D03*
%TO.P,DS1,4,SDA*%
%TO.N,/OLED_MOSI*%
X298048000Y-77089000D03*
%TO.P,DS1,5,RES*%
%TO.N,/OLED_RES*%
X298048000Y-74549000D03*
%TO.P,DS1,6,DC*%
%TO.N,/OLED_DC*%
X298048000Y-72009000D03*
%TO.P,DS1,7,CS1*%
%TO.N,/OLED_CS*%
X298048000Y-69469000D03*
%TO.P,DS1,8,FS0*%
%TO.N,unconnected-(DS1-FS0-Pad8)*%
X298048000Y-66929000D03*
%TO.P,DS1,9,CS2*%
%TO.N,/OLED_FONTCS*%
X298048000Y-64389000D03*
%TD*%
D18*
%TO.P,TP1,1,1*%
%TO.N,/POS12V*%
X104000000Y-54000000D03*
%TD*%
%TO.P,TP4,1,1*%
%TO.N,/P5V_BBD*%
X117500000Y-54000000D03*
%TD*%
D16*
%TO.P,VT302,1,A*%
%TO.N,/LPG_LEDM_L*%
X251495000Y-110355000D03*
D17*
%TO.P,VT302,2,K*%
%TO.N,/GND*%
X251495000Y-115435000D03*
%TO.P,VT302,3,CELL1*%
%TO.N,/LPG_MID_L*%
X264195000Y-110355000D03*
%TO.P,VT302,4,CELL2*%
%TO.N,/LPG_LDR_L*%
X264195000Y-115435000D03*
%TD*%
D10*
%TO.P,SW2,1,A_NC*%
%TO.N,/SRC_EXT_L*%
X284108000Y-83171000D03*
%TO.P,SW2,2,A_COM*%
%TO.N,/AUDIO_IN_L*%
X284108000Y-80631000D03*
%TO.P,SW2,3,A_NO*%
%TO.N,/SRC_RSMP_L*%
X284108000Y-78091000D03*
%TO.P,SW2,4,B_NC*%
%TO.N,/SRC_EXT_R*%
X289188000Y-83171000D03*
%TO.P,SW2,5,B_COM*%
%TO.N,/AUDIO_IN_R*%
X289188000Y-80631000D03*
%TO.P,SW2,6,B_NO*%
%TO.N,/SRC_RSMP_R*%
X289188000Y-78091000D03*
%TD*%
D20*
%TO.P,J12,1,1*%
%TO.N,/P3V3_MSP430*%
X316920000Y-142770000D03*
%TO.P,J12,2,2*%
%TO.N,/GND*%
X316920000Y-140230000D03*
%TO.P,J12,3,3*%
%TO.N,/MSP430_TXD*%
X319460000Y-142770000D03*
%TO.P,J12,4,4*%
%TO.N,/GND*%
X319460000Y-140230000D03*
%TO.P,J12,5,5*%
%TO.N,/MSP430_RXD*%
X322000000Y-142770000D03*
%TO.P,J12,6,6*%
%TO.N,/GND*%
X322000000Y-140230000D03*
%TO.P,J12,7,7*%
%TO.N,/MSP_RST*%
X324540000Y-142770000D03*
%TO.P,J12,8,8*%
%TO.N,/GND*%
X324540000Y-140230000D03*
%TO.P,J12,9,9*%
%TO.N,/MSP_TEST*%
X327080000Y-142770000D03*
%TO.P,J12,10,10*%
%TO.N,/GND*%
X327080000Y-140230000D03*
%TD*%
D16*
%TO.P,VT402,1,A*%
%TO.N,/LPG_LEDM_R*%
X253750000Y-143460000D03*
D17*
%TO.P,VT402,2,K*%
%TO.N,/GND*%
X253750000Y-148540000D03*
%TO.P,VT402,3,CELL1*%
%TO.N,/LPG_MID_R*%
X266450000Y-143460000D03*
%TO.P,VT402,4,CELL2*%
%TO.N,/LPG_LDR_R*%
X266450000Y-148540000D03*
%TD*%
D10*
%TO.P,ENC6,A,A*%
%TO.N,/ENC6_A*%
X159608000Y-88351000D03*
%TO.P,ENC6,B,B*%
%TO.N,/ENC6_B*%
X164688000Y-88351000D03*
%TO.P,ENC6,C,C*%
%TO.N,/GND*%
X162148000Y-88351000D03*
D11*
%TO.P,ENC6,D,D*%
X167748000Y-80851000D03*
%TO.P,ENC6,E,E*%
X156548000Y-80851000D03*
%TD*%
D12*
%TO.P,RV2,1,1*%
%TO.N,/LPG_RES_L*%
X209648000Y-90681000D03*
%TO.P,RV2,2,2*%
%TO.N,/LPG_RESW_L*%
X212148000Y-90681000D03*
%TO.P,RV2,3,3*%
%TO.N,/LPG_RESL_L*%
X214648000Y-90681000D03*
%TO.P,RV2,4,4*%
%TO.N,/LPG_RES_R*%
X209648000Y-88181000D03*
%TO.P,RV2,5,5*%
%TO.N,/LPG_RESW_R*%
X212148000Y-88181000D03*
%TO.P,RV2,6,6*%
%TO.N,/LPG_RESL_R*%
X214648000Y-88181000D03*
D13*
%TO.P,RV2,7,7*%
%TO.N,/GND*%
X207398000Y-80681000D03*
%TO.P,RV2,8,8*%
X216898000Y-80681000D03*
%TD*%
D21*
%TO.P,J11,1,EH*%
%TO.N,/GND*%
X368940000Y-56470000D03*
D22*
%TO.P,J11,2,EH*%
X368940000Y-52290000D03*
%TO.P,J11,3,EH*%
X377600000Y-52290000D03*
D21*
%TO.P,J11,4,EH*%
X377600000Y-56470000D03*
%TD*%
D16*
%TO.P,VT401,1,A*%
%TO.N,/LPG_LED_R*%
X235950000Y-143460000D03*
D17*
%TO.P,VT401,2,K*%
%TO.N,/LPG_LEDM_R*%
X235950000Y-148540000D03*
%TO.P,VT401,3,CELL1*%
%TO.N,/LPG_ABUF_R*%
X248650000Y-143460000D03*
%TO.P,VT401,4,CELL2*%
%TO.N,/LPG_MID_R*%
X248650000Y-148540000D03*
%TD*%
D10*
%TO.P,SW1,1,A_NC*%
%TO.N,/LPG_RES_L*%
X271108000Y-83171000D03*
%TO.P,SW1,2,A_COM*%
%TO.N,/LPG_VCFSW_L*%
X271108000Y-80631000D03*
%TO.P,SW1,3,A_NO*%
%TO.N,unconnected-(SW1-A_NO-Pad3)*%
X271108000Y-78091000D03*
%TO.P,SW1,4,B_NC*%
%TO.N,/LPG_RES_R*%
X276188000Y-83171000D03*
%TO.P,SW1,5,B_COM*%
%TO.N,/LPG_VCFSW_R*%
X276188000Y-80631000D03*
%TO.P,SW1,6,B_NO*%
%TO.N,unconnected-(SW1-B_NO-Pad6)*%
X276188000Y-78091000D03*
%TD*%
D12*
%TO.P,RV3,1,1*%
%TO.N,/LPG_ENV*%
X231648000Y-74225000D03*
%TO.P,RV3,2,2*%
%TO.N,/LPG_CVW_L*%
X234148000Y-74225000D03*
%TO.P,RV3,3,3*%
%TO.N,/LPG_ENVN_L*%
X236648000Y-74225000D03*
%TO.P,RV3,4,4*%
%TO.N,/LPG_ENV*%
X231648000Y-71725000D03*
%TO.P,RV3,5,5*%
%TO.N,/LPG_CVW_R*%
X234148000Y-71725000D03*
%TO.P,RV3,6,6*%
%TO.N,/LPG_ENVN_R*%
X236648000Y-71725000D03*
D13*
%TO.P,RV3,7,7*%
%TO.N,/GND*%
X229398000Y-64225000D03*
%TO.P,RV3,8,8*%
X238898000Y-64225000D03*
%TD*%
D14*
%TO.P,SW4,1,1*%
%TO.N,/BTN1*%
X112576000Y-132413000D03*
%TO.P,SW4,2,2*%
%TO.N,/GND*%
X125076000Y-132413000D03*
%TO.P,SW4,3,3*%
%TO.N,/BTN1*%
X112576000Y-137493000D03*
%TO.P,SW4,4,4*%
%TO.N,/GND*%
X125076000Y-137493000D03*
%TD*%
%TO.P,SW7,1,1*%
%TO.N,/BTN4*%
X128076000Y-145113000D03*
%TO.P,SW7,2,2*%
%TO.N,/GND*%
X140576000Y-145113000D03*
%TO.P,SW7,3,3*%
%TO.N,/BTN4*%
X128076000Y-150193000D03*
%TO.P,SW7,4,4*%
%TO.N,/GND*%
X140576000Y-150193000D03*
%TD*%
D23*
%TO.P,ENC0,6,EH*%
%TO.N,/GND*%
X121076000Y-116403000D03*
%TO.P,ENC0,7,EH*%
X132076000Y-116453000D03*
D10*
%TO.P,ENC0,A,A*%
%TO.N,/ENC0_A*%
X124076000Y-123903000D03*
%TO.P,ENC0,B,B*%
%TO.N,/ENC0_B*%
X129076000Y-123903000D03*
%TO.P,ENC0,C,C*%
%TO.N,/GND*%
X126576000Y-123903000D03*
%TO.P,ENC0,D,D*%
%TO.N,/ENC0_PUSH*%
X124076000Y-109403000D03*
%TO.P,ENC0,E,E*%
%TO.N,/GND*%
X129076000Y-109403000D03*
%TD*%
D18*
%TO.P,TP5,1,1*%
%TO.N,/GND*%
X122000000Y-54000000D03*
%TD*%
D24*
%TO.P,R204,1*%
%TO.N,/BBD_DRY_R*%
X154250000Y-134000000D03*
%TO.P,R204,2*%
%TO.N,/BBD_GAIN_R*%
X155750000Y-134000000D03*
%TD*%
D25*
%TO.P,U202,1,1OUT*%
%TO.N,/BBD_DRY_R*%
X224855000Y-137290000D03*
%TO.P,U202,2,1IN-*%
X226125000Y-137290000D03*
%TO.P,U202,3,1IN+*%
%TO.N,/BBD_INF_R*%
X227395000Y-137290000D03*
%TO.P,U202,4,V-*%
%TO.N,/NEG12V*%
X228665000Y-137290000D03*
%TO.P,U202,5,2IN+*%
%TO.N,/BBD_TRIGIN_R*%
X228665000Y-142700000D03*
%TO.P,U202,6,2IN-*%
%TO.N,/BBD_TRIGREF_R*%
X227395000Y-142700000D03*
%TO.P,U202,7,2OUT*%
%TO.N,/BBD_TRIG_R*%
X226125000Y-142700000D03*
%TO.P,U202,8,V+*%
%TO.N,/POS12V*%
X224855000Y-142700000D03*
%TD*%
D26*
%TO.P,J4,1,1*%
%TO.N,/GND*%
X173150000Y-51500000D03*
%TO.P,J4,2,2*%
X173150000Y-55000000D03*
%TO.P,J4,3,3*%
%TO.N,/CV_IN_JACK*%
X173150000Y-58500000D03*
%TD*%
D27*
%TO.P,C210,1*%
%TO.N,/BBD_VGG_R*%
X191898000Y-142000000D03*
%TO.P,C210,2*%
%TO.N,/GND*%
X193898000Y-142000000D03*
%TD*%
D24*
%TO.P,R511,1*%
%TO.N,/HP_BUF_L*%
X357920000Y-58695000D03*
%TO.P,R511,2*%
%TO.N,/HP_OUT_L*%
X359420000Y-58695000D03*
%TD*%
%TO.P,R114,1*%
%TO.N,/BBD_GAIN_L*%
X168628000Y-94000000D03*
%TO.P,R114,2*%
%TO.N,/BBD_SUM_L*%
X170128000Y-94000000D03*
%TD*%
D25*
%TO.P,U203,1,1OUT*%
%TO.N,/BBD_SIGIN_R*%
X161279000Y-137290000D03*
%TO.P,U203,2,1IN-*%
%TO.N,/BBD_SUM_R*%
X162549000Y-137290000D03*
%TO.P,U203,3,1IN+*%
%TO.N,/GND*%
X163819000Y-137290000D03*
%TO.P,U203,4,V-*%
%TO.N,/NEG12V*%
X165089000Y-137290000D03*
%TO.P,U203,5,2IN+*%
%TO.N,/BBD_MIXW_R*%
X165089000Y-142700000D03*
%TO.P,U203,6,2IN-*%
%TO.N,/BBD_MIX_R*%
X163819000Y-142700000D03*
%TO.P,U203,7,2OUT*%
X162549000Y-142700000D03*
%TO.P,U203,8,V+*%
%TO.N,/POS12V*%
X161279000Y-142700000D03*
%TD*%
D28*
%TO.P,RT501,1,1*%
%TO.N,/HP_DIV_L*%
X336422000Y-64378000D03*
D29*
%TO.P,RT501,2,WIPER*%
%TO.N,/HP_W_L*%
X337672000Y-67278000D03*
D28*
%TO.P,RT501,3,3*%
%TO.N,/GND*%
X338922000Y-64378000D03*
%TD*%
D27*
%TO.P,C110,1*%
%TO.N,/BBD_VGG_L*%
X191970000Y-104470000D03*
%TO.P,C110,2*%
%TO.N,/GND*%
X193970000Y-104470000D03*
%TD*%
D24*
%TO.P,R221,1*%
%TO.N,/BBD_VCOR2_R*%
X192423000Y-161000000D03*
%TO.P,R221,2*%
%TO.N,/GND*%
X193923000Y-161000000D03*
%TD*%
%TO.P,R223,1*%
%TO.N,/BBD_VCOR1_R*%
X196723000Y-153000000D03*
%TO.P,R223,2*%
%TO.N,/GND*%
X198223000Y-153000000D03*
%TD*%
D27*
%TO.P,C512,1*%
%TO.N,/EXT_PROT_R*%
X279345000Y-87020000D03*
%TO.P,C512,2*%
%TO.N,/EXT_AMP_IN_R*%
X281345000Y-87020000D03*
%TD*%
D24*
%TO.P,R515,1*%
%TO.N,/BBD_OUT_R*%
X324770000Y-77995000D03*
%TO.P,R515,2*%
%TO.N,/LINE_OUT_R*%
X326270000Y-77995000D03*
%TD*%
D26*
%TO.P,J3,1,1*%
%TO.N,/GND*%
X151150000Y-51500000D03*
%TO.P,J3,2,2*%
X151150000Y-55000000D03*
%TO.P,J3,3,3*%
%TO.N,/GATEOUT_JACK*%
X151150000Y-58500000D03*
%TD*%
D24*
%TO.P,R222,1*%
%TO.N,/BBD_RAW_R*%
X199148000Y-134000000D03*
%TO.P,R222,2*%
%TO.N,/GND*%
X200648000Y-134000000D03*
%TD*%
D30*
%TO.P,D207,1,K*%
%TO.N,/BBD_TRIG_R*%
X212586000Y-146000000D03*
%TO.P,D207,2,A*%
%TO.N,/BBD_SH_G_R*%
X215966000Y-146000000D03*
%TD*%
D28*
%TO.P,RT301,1,1*%
%TO.N,/LPG_SUM_L*%
X219195000Y-114043000D03*
D29*
%TO.P,RT301,2,WIPER*%
%TO.N,/LPG_T1_L*%
X220445000Y-116943000D03*
D28*
%TO.P,RT301,3,3*%
X221695000Y-114043000D03*
%TD*%
D18*
%TO.P,TP9,1,1*%
%TO.N,/BBD_SIGIN_R*%
X172128000Y-146000000D03*
%TD*%
D25*
%TO.P,U103,1,1OUT*%
%TO.N,/BBD_SIGIN_L*%
X161279000Y-97290000D03*
%TO.P,U103,2,1IN-*%
%TO.N,/BBD_SUM_L*%
X162549000Y-97290000D03*
%TO.P,U103,3,1IN+*%
%TO.N,/GND*%
X163819000Y-97290000D03*
%TO.P,U103,4,V-*%
%TO.N,/NEG12V*%
X165089000Y-97290000D03*
%TO.P,U103,5,2IN+*%
%TO.N,/BBD_MIXW_L*%
X165089000Y-102700000D03*
%TO.P,U103,6,2IN-*%
%TO.N,/BBD_MIX_L*%
X163819000Y-102700000D03*
%TO.P,U103,7,2OUT*%
X162549000Y-102700000D03*
%TO.P,U103,8,V+*%
%TO.N,/POS12V*%
X161279000Y-102700000D03*
%TD*%
D24*
%TO.P,R106,1*%
%TO.N,/BBD_IN_L*%
X147250000Y-98000000D03*
%TO.P,R106,2*%
%TO.N,/GND*%
X148750000Y-98000000D03*
%TD*%
%TO.P,R104,1*%
%TO.N,/BBD_DRY_L*%
X154250000Y-94000000D03*
%TO.P,R104,2*%
%TO.N,/BBD_GAIN_L*%
X155750000Y-94000000D03*
%TD*%
D31*
%TO.P,C108,1*%
%TO.N,/NEG12V*%
X163457000Y-93813000D03*
%TO.P,C108,2*%
%TO.N,/GND*%
X164857000Y-93813000D03*
%TD*%
%TO.P,C216,1*%
%TO.N,/BBD_CLK_R*%
X224876000Y-153000000D03*
%TO.P,C216,2*%
%TO.N,/BBD_TRIGIN_R*%
X226276000Y-153000000D03*
%TD*%
D24*
%TO.P,R122,1*%
%TO.N,/BBD_RAW_L*%
X199220000Y-96470000D03*
%TO.P,R122,2*%
%TO.N,/GND*%
X200720000Y-96470000D03*
%TD*%
D31*
%TO.P,C207,1*%
%TO.N,/POS12V*%
X157186000Y-142922000D03*
%TO.P,C207,2*%
%TO.N,/GND*%
X158586000Y-142922000D03*
%TD*%
D30*
%TO.P,D106,1,K*%
%TO.N,/BBD_INH_L*%
X169988000Y-121000000D03*
%TO.P,D106,2,A*%
%TO.N,/GND*%
X173368000Y-121000000D03*
%TD*%
D24*
%TO.P,R131,1*%
%TO.N,/BBD_MIX_L*%
X239276000Y-100470000D03*
%TO.P,R131,2*%
%TO.N,/BBD_OUT_L*%
X240776000Y-100470000D03*
%TD*%
%TO.P,R113,1*%
%TO.N,/NEG12V*%
X168628000Y-102000000D03*
%TO.P,R113,2*%
%TO.N,/BBD_SUM_L*%
X170128000Y-102000000D03*
%TD*%
D31*
%TO.P,C31,1,1*%
%TO.N,/GND*%
X371295000Y-72545000D03*
%TO.P,C31,2,2*%
%TO.N,/VBUS_F*%
X369895000Y-72545000D03*
%TD*%
D28*
%TO.P,RT504,1,1*%
%TO.N,/EXT_AMP_OUT_R*%
X286480000Y-91184000D03*
D29*
%TO.P,RT504,2,WIPER*%
%TO.N,/EXT_FB_R*%
X287730000Y-94084000D03*
D28*
%TO.P,RT504,3,3*%
X288980000Y-91184000D03*
%TD*%
D30*
%TO.P,D204,1,K*%
%TO.N,/P5V_BBD*%
X170205000Y-154595000D03*
%TO.P,D204,2,A*%
%TO.N,/BBD_INH_R*%
X173585000Y-154595000D03*
%TD*%
D24*
%TO.P,R509,1*%
%TO.N,/HP_IN_L*%
X353970000Y-69645000D03*
%TO.P,R509,2*%
%TO.N,/HP_DIV_L*%
X355470000Y-69645000D03*
%TD*%
D32*
%TO.P,Q2,1,D*%
%TO.N,/BBD_SH_IN_R*%
X215276000Y-133050000D03*
%TO.P,Q2,2,S*%
%TO.N,/BBD_SH_HOLD_R*%
X215276000Y-134950000D03*
%TO.P,Q2,3,G*%
%TO.N,/BBD_SH_G_R*%
X213276000Y-134000000D03*
%TD*%
D33*
%TO.P,R517,1*%
%TO.N,/EXT_IN_L*%
X265470000Y-79345000D03*
%TO.P,R517,2*%
%TO.N,/EXT_PROT_L*%
X265470000Y-77845000D03*
%TD*%
D24*
%TO.P,R512,1*%
%TO.N,/HP_BUF_R*%
X342018000Y-77321000D03*
%TO.P,R512,2*%
%TO.N,/HP_OUT_R*%
X343518000Y-77321000D03*
%TD*%
D27*
%TO.P,C220,1*%
%TO.N,/BBD_WET_R*%
X238954000Y-134000000D03*
%TO.P,C220,2*%
%TO.N,/BBD_WETAC_R*%
X240954000Y-134000000D03*
%TD*%
%TO.P,C120,1*%
%TO.N,/BBD_WET_L*%
X239026000Y-96470000D03*
%TO.P,C120,2*%
%TO.N,/BBD_WETAC_L*%
X241026000Y-96470000D03*
%TD*%
D24*
%TO.P,R120,1*%
%TO.N,/BBD_VGG_L*%
X192220000Y-100470000D03*
%TO.P,R120,2*%
%TO.N,/GND*%
X193720000Y-100470000D03*
%TD*%
D26*
%TO.P,J2,1,1*%
%TO.N,/GND*%
X129150000Y-51500000D03*
%TO.P,J2,2,2*%
X129150000Y-55000000D03*
%TO.P,J2,3,3*%
%TO.N,/CVOUT_JACK*%
X129150000Y-58500000D03*
%TD*%
D24*
%TO.P,R127,1*%
%TO.N,/BBD_TRIGIN_L*%
X224826000Y-117000000D03*
%TO.P,R127,2*%
%TO.N,/GND*%
X226326000Y-117000000D03*
%TD*%
%TO.P,R212,1*%
%TO.N,/BBD_FB_R*%
X168628000Y-138000000D03*
%TO.P,R212,2*%
%TO.N,/BBD_SUM_R*%
X170128000Y-138000000D03*
%TD*%
D34*
%TO.P,U204,1,PHASEPULSES*%
%TO.N,unconnected-(U204-PHASEPULSES-Pad1)*%
X179975000Y-153300000D03*
%TO.P,U204,2,PHASECOMPIOUT*%
%TO.N,/BBD_CLKN_R*%
X181255000Y-153300000D03*
%TO.P,U204,3,COMPIN*%
%TO.N,/BBD_CLK_R*%
X182525000Y-153300000D03*
%TO.P,U204,4,VCOOUT*%
X183795000Y-153300000D03*
%TO.P,U204,5,INHIBIT*%
%TO.N,/BBD_INH_R*%
X185055000Y-153300000D03*
%TO.P,U204,6,CI(1)*%
%TO.N,/BBD_C1A_R*%
X186325000Y-153300000D03*
%TO.P,U204,7,CI(2)*%
%TO.N,/BBD_C1B_R*%
X187595000Y-153300000D03*
%TO.P,U204,8,VSS*%
%TO.N,/GND*%
X188875000Y-153300000D03*
%TO.P,U204,9,VCOIN*%
%TO.N,/BBD_VCOCV_R*%
X188875000Y-160700000D03*
%TO.P,U204,10,DEMODULATIONOUT*%
%TO.N,unconnected-(U204-DEMODULATIONOUT-Pad10)*%
X187595000Y-160700000D03*
%TO.P,U204,11,R1TOVSS*%
%TO.N,/BBD_VCOR1_R*%
X186325000Y-160700000D03*
%TO.P,U204,12,R2TOVSS*%
%TO.N,/BBD_VCOR2_R*%
X185055000Y-160700000D03*
%TO.P,U204,13,PHASECOMPIIOUT*%
%TO.N,unconnected-(U204-PHASECOMPIIOUT-Pad13)*%
X183795000Y-160700000D03*
%TO.P,U204,14,SIGNALIN*%
%TO.N,/P5V_BBD*%
X182525000Y-160700000D03*
%TO.P,U204,15,ZENER*%
%TO.N,unconnected-(U204-ZENER-Pad15)*%
X181255000Y-160700000D03*
%TO.P,U204,16,VDD*%
%TO.N,/P5V_BBD*%
X179975000Y-160700000D03*
%TD*%
D24*
%TO.P,R121,1*%
%TO.N,/BBD_VCOR2_L*%
X192423000Y-121000000D03*
%TO.P,R121,2*%
%TO.N,/GND*%
X193923000Y-121000000D03*
%TD*%
D31*
%TO.P,C28,1,1*%
%TO.N,/VBUS*%
X364795000Y-63120000D03*
%TO.P,C28,2,2*%
%TO.N,/GND*%
X363395000Y-63120000D03*
%TD*%
D18*
%TO.P,TP13,1,1*%
%TO.N,/BBD_CLK_R*%
X176570000Y-156845000D03*
%TD*%
D24*
%TO.P,R117,1*%
%TO.N,/GATE_OUT_2*%
X170928000Y-113000000D03*
%TO.P,R117,2*%
%TO.N,/BBD_INH_L*%
X172428000Y-113000000D03*
%TD*%
D25*
%TO.P,U102,1,1OUT*%
%TO.N,/BBD_DRY_L*%
X224927000Y-99760000D03*
%TO.P,U102,2,1IN-*%
X226197000Y-99760000D03*
%TO.P,U102,3,1IN+*%
%TO.N,/BBD_INF_L*%
X227467000Y-99760000D03*
%TO.P,U102,4,V-*%
%TO.N,/NEG12V*%
X228737000Y-99760000D03*
%TO.P,U102,5,2IN+*%
%TO.N,/BBD_TRIGIN_L*%
X228737000Y-105170000D03*
%TO.P,U102,6,2IN-*%
%TO.N,/BBD_TRIGREF_L*%
X227467000Y-105170000D03*
%TO.P,U102,7,2OUT*%
%TO.N,/BBD_TRIG_L*%
X226197000Y-105170000D03*
%TO.P,U102,8,V+*%
%TO.N,/POS12V*%
X224927000Y-105170000D03*
%TD*%
D26*
%TO.P,J5,1,1*%
%TO.N,/GND*%
X195150000Y-51500000D03*
%TO.P,J5,2,2*%
X195150000Y-55000000D03*
%TO.P,J5,3,3*%
%TO.N,/GATE_IN*%
X195150000Y-58500000D03*
%TD*%
D24*
%TO.P,R224,1*%
%TO.N,/BBD_AC_R*%
X199148000Y-142000000D03*
%TO.P,R224,2*%
%TO.N,/GND*%
X200648000Y-142000000D03*
%TD*%
%TO.P,R22,1,1*%
%TO.N,/CC1*%
X358495000Y-62420000D03*
%TO.P,R22,2,2*%
%TO.N,/GND*%
X356995000Y-62420000D03*
%TD*%
%TO.P,R132,1*%
%TO.N,/BBD_WETAC_L*%
X239276000Y-104470000D03*
%TO.P,R132,2*%
%TO.N,/BBD_WETOUT_L*%
X240776000Y-104470000D03*
%TD*%
%TO.P,R230,1*%
%TO.N,/BBD_SH_FB_R*%
X217826000Y-146000000D03*
%TO.P,R230,2*%
%TO.N,/BBD_WET_R*%
X219326000Y-146000000D03*
%TD*%
%TO.P,R516,1*%
%TO.N,/LINE_OUT_R*%
X321270000Y-77995000D03*
%TO.P,R516,2*%
%TO.N,/GND*%
X322770000Y-77995000D03*
%TD*%
D18*
%TO.P,TP8,1,1*%
%TO.N,/BBD_SIGIN_L*%
X172128000Y-106000000D03*
%TD*%
D30*
%TO.P,D206,1,K*%
%TO.N,/BBD_INH_R*%
X170205000Y-158595000D03*
%TO.P,D206,2,A*%
%TO.N,/GND*%
X173585000Y-158595000D03*
%TD*%
D24*
%TO.P,R115,1*%
%TO.N,/BBD_TIMEW_L*%
X159628000Y-121000000D03*
%TO.P,R115,2*%
%TO.N,/BBD_VCOCV_L*%
X161128000Y-121000000D03*
%TD*%
D31*
%TO.P,C40,1*%
%TO.N,/POS12V*%
X157300000Y-163500000D03*
%TO.P,C40,2*%
%TO.N,/GND*%
X158700000Y-163500000D03*
%TD*%
D35*
%TO.P,U9,1,1OUT*%
%TO.N,/HP_BUF_L*%
X342054000Y-62320000D03*
%TO.P,U9,2,1IN-*%
X343334000Y-62320000D03*
%TO.P,U9,3,1IN+*%
%TO.N,/HP_W_L*%
X344594000Y-62320000D03*
%TO.P,U9,4,V-*%
%TO.N,/NEG12V*%
X345864000Y-62320000D03*
%TO.P,U9,5,2IN+*%
%TO.N,/HP_W_R*%
X345864000Y-67680000D03*
%TO.P,U9,6,2IN-*%
%TO.N,/HP_BUF_R*%
X344594000Y-67680000D03*
%TO.P,U9,7,2OUT*%
X343334000Y-67680000D03*
%TO.P,U9,8,V+*%
%TO.N,/POS12V*%
X342054000Y-67680000D03*
%TD*%
D24*
%TO.P,R218,1*%
%TO.N,/BBD_SUM_R*%
X168628000Y-146000000D03*
%TO.P,R218,2*%
%TO.N,/BBD_SIGIN_R*%
X170128000Y-146000000D03*
%TD*%
D31*
%TO.P,C41,1*%
%TO.N,/P5V_BBD*%
X161300000Y-163500000D03*
%TO.P,C41,2*%
%TO.N,/GND*%
X162700000Y-163500000D03*
%TD*%
D28*
%TO.P,RT502,1,1*%
%TO.N,/HP_DIV_R*%
X336304000Y-72230000D03*
D29*
%TO.P,RT502,2,WIPER*%
%TO.N,/HP_W_R*%
X337554000Y-75130000D03*
D28*
%TO.P,RT502,3,3*%
%TO.N,/GND*%
X338804000Y-72230000D03*
%TD*%
D24*
%TO.P,R229,1*%
%TO.N,/BBD_SH_FB_R*%
X217826000Y-142000000D03*
%TO.P,R229,2*%
%TO.N,/GND*%
X219326000Y-142000000D03*
%TD*%
%TO.P,R125,1*%
%TO.N,/POS12V*%
X224826000Y-121000000D03*
%TO.P,R125,2*%
%TO.N,/BBD_TRIGREF_L*%
X226326000Y-121000000D03*
%TD*%
D30*
%TO.P,D107,1,K*%
%TO.N,/BBD_TRIG_L*%
X209655000Y-110945000D03*
%TO.P,D107,2,A*%
%TO.N,/BBD_SH_G_L*%
X213035000Y-110945000D03*
%TD*%
D36*
%TO.P,U8,1,GND*%
%TO.N,/GND*%
X151187000Y-159295000D03*
%TO.P,U8,2,VOUT*%
%TO.N,/P5V_BBD*%
X151187000Y-161595000D03*
%TO.P,U8,3,VIN*%
%TO.N,/POS12V*%
X151187000Y-163895000D03*
D37*
%TO.P,U8,4,VOUT*%
%TO.N,/P5V_BBD*%
X145247000Y-161595000D03*
%TD*%
D18*
%TO.P,TP11,1,1*%
%TO.N,/LPG_LED_R*%
X233350000Y-157053000D03*
%TD*%
D24*
%TO.P,R228,1*%
%TO.N,/BBD_SH_IN_R*%
X213526000Y-142000000D03*
%TO.P,R228,2*%
%TO.N,/BBD_SH_G_R*%
X215026000Y-142000000D03*
%TD*%
%TO.P,R211,1*%
%TO.N,/BBD_TIMELO_R*%
X159845000Y-154595000D03*
%TO.P,R211,2*%
%TO.N,/GND*%
X161345000Y-154595000D03*
%TD*%
D18*
%TO.P,TP7,1,1*%
%TO.N,/BBD_DRY_R*%
X152280000Y-134347000D03*
%TD*%
D24*
%TO.P,R213,1*%
%TO.N,/NEG12V*%
X168628000Y-142000000D03*
%TO.P,R213,2*%
%TO.N,/BBD_SUM_R*%
X170128000Y-142000000D03*
%TD*%
%TO.P,R123,1*%
%TO.N,/BBD_VCOR1_L*%
X196723000Y-113000000D03*
%TO.P,R123,2*%
%TO.N,/GND*%
X198223000Y-113000000D03*
%TD*%
D31*
%TO.P,C121,1*%
%TO.N,/POS12V*%
X205549000Y-108770000D03*
%TO.P,C121,2*%
%TO.N,/GND*%
X206949000Y-108770000D03*
%TD*%
%TO.P,C507,1*%
%TO.N,/POS12V*%
X338454000Y-69530000D03*
%TO.P,C507,2*%
%TO.N,/GND*%
X339854000Y-69530000D03*
%TD*%
D24*
%TO.P,R207,1*%
%TO.N,/BBD_IN_R*%
X147250000Y-134000000D03*
%TO.P,R207,2*%
%TO.N,/BBD_INF_R*%
X148750000Y-134000000D03*
%TD*%
%TO.P,R514,1*%
%TO.N,/LINE_OUT_L*%
X306170000Y-77170000D03*
%TO.P,R514,2*%
%TO.N,/GND*%
X307670000Y-77170000D03*
%TD*%
D31*
%TO.P,C109,1*%
%TO.N,/P5V_BBD*%
X180155000Y-123984000D03*
%TO.P,C109,2*%
%TO.N,/GND*%
X181555000Y-123984000D03*
%TD*%
D24*
%TO.P,R225,1*%
%TO.N,/POS12V*%
X224826000Y-161000000D03*
%TO.P,R225,2*%
%TO.N,/BBD_TRIGREF_R*%
X226326000Y-161000000D03*
%TD*%
D31*
%TO.P,C509,1*%
%TO.N,/POS12V*%
X280480000Y-97625000D03*
%TO.P,C509,2*%
%TO.N,/GND*%
X281880000Y-97625000D03*
%TD*%
D27*
%TO.P,C42,1*%
%TO.N,/P5V_BBD*%
X165000000Y-163500000D03*
%TO.P,C42,2*%
%TO.N,/GND*%
X167000000Y-163500000D03*
%TD*%
D31*
%TO.P,C208,1*%
%TO.N,/NEG12V*%
X163457000Y-133813000D03*
%TO.P,C208,2*%
%TO.N,/GND*%
X164857000Y-133813000D03*
%TD*%
%TO.P,C214,1*%
%TO.N,/BBD_C1A_R*%
X192473000Y-157000000D03*
%TO.P,C214,2*%
%TO.N,/BBD_C1B_R*%
X193873000Y-157000000D03*
%TD*%
D24*
%TO.P,R220,1*%
%TO.N,/BBD_VGG_R*%
X192148000Y-138000000D03*
%TO.P,R220,2*%
%TO.N,/GND*%
X193648000Y-138000000D03*
%TD*%
D26*
%TO.P,J6,1,1*%
%TO.N,/GND*%
X344845000Y-51500000D03*
%TO.P,J6,2,2*%
%TO.N,/HP_OUT_R*%
X344845000Y-55000000D03*
%TO.P,J6,3,3*%
%TO.N,/HP_OUT_L*%
X344845000Y-58500000D03*
%TD*%
D31*
%TO.P,C222,1*%
%TO.N,/NEG12V*%
X208355000Y-133813000D03*
%TO.P,C222,2*%
%TO.N,/GND*%
X209755000Y-133813000D03*
%TD*%
D32*
%TO.P,Q1,1,D*%
%TO.N,/BBD_SH_IN_L*%
X215299000Y-93748000D03*
%TO.P,Q1,2,S*%
%TO.N,/BBD_SH_HOLD_L*%
X215299000Y-95648000D03*
%TO.P,Q1,3,G*%
%TO.N,/BBD_SH_G_L*%
X213299000Y-94698000D03*
%TD*%
D24*
%TO.P,R513,1*%
%TO.N,/BBD_OUT_L*%
X310945000Y-77095000D03*
%TO.P,R513,2*%
%TO.N,/LINE_OUT_L*%
X312445000Y-77095000D03*
%TD*%
%TO.P,R214,1*%
%TO.N,/BBD_GAIN_R*%
X168628000Y-134000000D03*
%TO.P,R214,2*%
%TO.N,/BBD_SUM_R*%
X170128000Y-134000000D03*
%TD*%
D18*
%TO.P,TP15,1,1*%
%TO.N,/LPG_ENV*%
X251324000Y-140992000D03*
%TD*%
%TO.P,TP10,1,1*%
%TO.N,/LPG_LED_L*%
X231095000Y-123948000D03*
%TD*%
D24*
%TO.P,R23,1,1*%
%TO.N,/GND*%
X353020000Y-65095000D03*
%TO.P,R23,2,2*%
%TO.N,/CC2*%
X354520000Y-65095000D03*
%TD*%
D30*
%TO.P,D205,1,K*%
%TO.N,/BBD_VCOCV_R*%
X163205000Y-158595000D03*
%TO.P,D205,2,A*%
%TO.N,/GND*%
X166585000Y-158595000D03*
%TD*%
D31*
%TO.P,C116,1*%
%TO.N,/BBD_CLK_L*%
X228045000Y-112895000D03*
%TO.P,C116,2*%
%TO.N,/BBD_TRIGIN_L*%
X229445000Y-112895000D03*
%TD*%
D24*
%TO.P,R107,1*%
%TO.N,/BBD_IN_L*%
X147250000Y-94000000D03*
%TO.P,R107,2*%
%TO.N,/BBD_INF_L*%
X148750000Y-94000000D03*
%TD*%
D27*
%TO.P,C119,1*%
%TO.N,/BBD_SH_HOLD_L*%
X213348000Y-100470000D03*
%TO.P,C119,2*%
%TO.N,/GND*%
X215348000Y-100470000D03*
%TD*%
D24*
%TO.P,R227,1*%
%TO.N,/BBD_TRIGIN_R*%
X224826000Y-157000000D03*
%TO.P,R227,2*%
%TO.N,/GND*%
X226326000Y-157000000D03*
%TD*%
D27*
%TO.P,C506,1*%
%TO.N,/BBD_OUT_R*%
X342725000Y-71402000D03*
%TO.P,C506,2*%
%TO.N,/HP_IN_R*%
X344725000Y-71402000D03*
%TD*%
D38*
%TO.P,U10,1,1OUT*%
%TO.N,/EXT_AMP_OUT_L*%
X275870000Y-95175000D03*
%TO.P,U10,2,1IN-*%
%TO.N,/EXT_FB_L*%
X275870000Y-93895000D03*
%TO.P,U10,3,1IN+*%
%TO.N,/EXT_AMP_IN_L*%
X275870000Y-92635000D03*
%TO.P,U10,4,V-*%
%TO.N,/NEG12V*%
X275870000Y-91365000D03*
%TO.P,U10,5,2IN+*%
%TO.N,/EXT_AMP_IN_R*%
X281230000Y-91365000D03*
%TO.P,U10,6,2IN-*%
%TO.N,/EXT_FB_R*%
X281230000Y-92635000D03*
%TO.P,U10,7,2OUT*%
%TO.N,/EXT_AMP_OUT_R*%
X281230000Y-93895000D03*
%TO.P,U10,8,V+*%
%TO.N,/POS12V*%
X281230000Y-95175000D03*
%TD*%
D19*
%TO.P,U201,1,GND*%
%TO.N,/GND*%
X180478000Y-147620000D03*
D12*
%TO.P,U201,2,CP2*%
%TO.N,/BBD_CLKN_R*%
X180478000Y-145080000D03*
%TO.P,U201,3,OUT1*%
%TO.N,unconnected-(U201-OUT1-Pad3)*%
X180478000Y-134920000D03*
%TO.P,U201,4,OUT2*%
%TO.N,/BBD_RAW_R*%
X180478000Y-132380000D03*
%TO.P,U201,5,VDD*%
%TO.N,/P5V_BBD*%
X188098000Y-132380000D03*
%TO.P,U201,6,CP1*%
%TO.N,/BBD_CLK_R*%
X188098000Y-134920000D03*
%TO.P,U201,7,IN*%
%TO.N,/BBD_SIGIN_R*%
X188098000Y-145080000D03*
%TO.P,U201,8,VGG*%
%TO.N,/BBD_VGG_R*%
X188098000Y-147620000D03*
%TD*%
D24*
%TO.P,R130,1*%
%TO.N,/BBD_SH_FB_L*%
X214895000Y-110945000D03*
%TO.P,R130,2*%
%TO.N,/BBD_WET_L*%
X216395000Y-110945000D03*
%TD*%
%TO.P,R206,1*%
%TO.N,/BBD_IN_R*%
X147250000Y-138000000D03*
%TO.P,R206,2*%
%TO.N,/GND*%
X148750000Y-138000000D03*
%TD*%
D39*
%TO.P,J7,2,2*%
%TO.N,/GND*%
X270200000Y-57600000D03*
%TO.P,J7,3,3*%
X272700000Y-65100000D03*
%TO.P,J7,4,4*%
%TO.N,/EXT_IN_L*%
X272700000Y-72500000D03*
%TO.P,J7,5,5*%
%TO.N,/GND*%
X267700000Y-72500000D03*
%TD*%
D31*
%TO.P,C209,1*%
%TO.N,/P5V_BBD*%
X180155000Y-163984000D03*
%TO.P,C209,2*%
%TO.N,/GND*%
X181555000Y-163984000D03*
%TD*%
D24*
%TO.P,R128,1*%
%TO.N,/BBD_SH_IN_L*%
X213598000Y-104470000D03*
%TO.P,R128,2*%
%TO.N,/BBD_SH_G_L*%
X215098000Y-104470000D03*
%TD*%
D25*
%TO.P,U106,1,1OUT*%
%TO.N,/BBD_SH_IN_L*%
X206249000Y-99760000D03*
%TO.P,U106,2,1IN-*%
X207519000Y-99760000D03*
%TO.P,U106,3,1IN+*%
%TO.N,/BBD_AC_L*%
X208789000Y-99760000D03*
%TO.P,U106,4,V-*%
%TO.N,/NEG12V*%
X210059000Y-99760000D03*
%TO.P,U106,5,2IN+*%
%TO.N,/BBD_SH_HOLD_L*%
X210059000Y-105170000D03*
%TO.P,U106,6,2IN-*%
%TO.N,/BBD_SH_FB_L*%
X208789000Y-105170000D03*
%TO.P,U106,7,2OUT*%
%TO.N,/BBD_WET_L*%
X207519000Y-105170000D03*
%TO.P,U106,8,V+*%
%TO.N,/POS12V*%
X206249000Y-105170000D03*
%TD*%
D31*
%TO.P,C105,1*%
%TO.N,/POS12V*%
X225159000Y-108647000D03*
%TO.P,C105,2*%
%TO.N,/GND*%
X226559000Y-108647000D03*
%TD*%
D27*
%TO.P,C113,1*%
%TO.N,/BBD_RAW_L*%
X198970000Y-100470000D03*
%TO.P,C113,2*%
%TO.N,/BBD_AC_L*%
X200970000Y-100470000D03*
%TD*%
D24*
%TO.P,R124,1*%
%TO.N,/BBD_AC_L*%
X199220000Y-104470000D03*
%TO.P,R124,2*%
%TO.N,/GND*%
X200720000Y-104470000D03*
%TD*%
%TO.P,R210,1*%
%TO.N,/POS12V*%
X159845000Y-150595000D03*
%TO.P,R210,2*%
%TO.N,/BBD_TIMEHI_R*%
X161345000Y-150595000D03*
%TD*%
D40*
%TO.P,C505,1*%
%TO.N,/BBD_OUT_L*%
X351820000Y-60495000D03*
%TO.P,C505,2*%
%TO.N,/HP_IN_L*%
X351820000Y-58495000D03*
%TD*%
D41*
%TO.P,C508,1*%
%TO.N,/NEG12V*%
X348214000Y-62870000D03*
%TO.P,C508,2*%
%TO.N,/GND*%
X348214000Y-61470000D03*
%TD*%
D24*
%TO.P,R510,1*%
%TO.N,/HP_IN_R*%
X351645000Y-54095000D03*
%TO.P,R510,2*%
%TO.N,/HP_DIV_R*%
X353145000Y-54095000D03*
%TD*%
D42*
%TO.P,U7,1,+Vin*%
%TO.N,/VBUS_F*%
X315605000Y-112955000D03*
%TO.P,U7,2,-Vin*%
%TO.N,/GND*%
X310525000Y-112955000D03*
%TO.P,U7,3,+Vout*%
%TO.N,/POS12V_RAW*%
X323225000Y-133275000D03*
%TO.P,U7,4,Common*%
%TO.N,/GND*%
X313065000Y-133275000D03*
%TO.P,U7,5,-Vout*%
%TO.N,/NEG12V_RAW*%
X302905000Y-133275000D03*
%TO.P,U7,6,R.C.*%
%TO.N,unconnected-(U7-R.C.-Pad6)*%
X302905000Y-112955000D03*
%TD*%
D31*
%TO.P,C107,1*%
%TO.N,/POS12V*%
X157186000Y-102922000D03*
%TO.P,C107,2*%
%TO.N,/GND*%
X158586000Y-102922000D03*
%TD*%
D33*
%TO.P,R518,1*%
%TO.N,/EXT_IN_R*%
X293945000Y-82845000D03*
%TO.P,R518,2*%
%TO.N,/EXT_PROT_R*%
X293945000Y-81345000D03*
%TD*%
D31*
%TO.P,C111,1*%
%TO.N,/P5V_BBD*%
X191078000Y-93520000D03*
%TO.P,C111,2*%
%TO.N,/GND*%
X192478000Y-93520000D03*
%TD*%
D30*
%TO.P,D104,1,K*%
%TO.N,/P5V_BBD*%
X169988000Y-117000000D03*
%TO.P,D104,2,A*%
%TO.N,/BBD_INH_L*%
X173368000Y-117000000D03*
%TD*%
D31*
%TO.P,C205,1*%
%TO.N,/POS12V*%
X225087000Y-146177000D03*
%TO.P,C205,2*%
%TO.N,/GND*%
X226487000Y-146177000D03*
%TD*%
D28*
%TO.P,RT503,1,1*%
%TO.N,/EXT_AMP_OUT_L*%
X267456000Y-94222000D03*
D29*
%TO.P,RT503,2,WIPER*%
%TO.N,/EXT_FB_L*%
X266206000Y-91322000D03*
D28*
%TO.P,RT503,3,3*%
X264956000Y-94222000D03*
%TD*%
D18*
%TO.P,TP6,1,1*%
%TO.N,/BBD_DRY_L*%
X152280000Y-94347000D03*
%TD*%
D39*
%TO.P,J10,2,2*%
%TO.N,/GND*%
X328000000Y-57600000D03*
%TO.P,J10,3,3*%
%TO.N,unconnected-(J10-Pad3)*%
X330500000Y-65100000D03*
%TO.P,J10,4,4*%
%TO.N,/LINE_OUT_R*%
X330500000Y-72500000D03*
%TO.P,J10,5,5*%
%TO.N,/GND*%
X325500000Y-72500000D03*
%TD*%
D30*
%TO.P,D203,1,K*%
%TO.N,/P5V_BBD*%
X163205000Y-154595000D03*
%TO.P,D203,2,A*%
%TO.N,/BBD_VCOCV_R*%
X166585000Y-154595000D03*
%TD*%
D24*
%TO.P,R112,1*%
%TO.N,/BBD_FB_L*%
X168628000Y-98000000D03*
%TO.P,R112,2*%
%TO.N,/BBD_SUM_L*%
X170128000Y-98000000D03*
%TD*%
D39*
%TO.P,J9,2,2*%
%TO.N,/GND*%
X313000000Y-57600000D03*
%TO.P,J9,3,3*%
%TO.N,unconnected-(J9-Pad3)*%
X315500000Y-65100000D03*
%TO.P,J9,4,4*%
%TO.N,/LINE_OUT_L*%
X315500000Y-72500000D03*
%TO.P,J9,5,5*%
%TO.N,/GND*%
X310500000Y-72500000D03*
%TD*%
D41*
%TO.P,C510,1*%
%TO.N,/NEG12V*%
X272820000Y-92015000D03*
%TO.P,C510,2*%
%TO.N,/GND*%
X272820000Y-90615000D03*
%TD*%
D27*
%TO.P,C219,1*%
%TO.N,/BBD_SH_HOLD_R*%
X213276000Y-138000000D03*
%TO.P,C219,2*%
%TO.N,/GND*%
X215276000Y-138000000D03*
%TD*%
D33*
%TO.P,R522,1*%
%TO.N,/EXT_FB_R*%
X285120000Y-98495000D03*
%TO.P,R522,2*%
%TO.N,/GND*%
X285120000Y-96995000D03*
%TD*%
D24*
%TO.P,R521,1*%
%TO.N,/EXT_FB_L*%
X275120000Y-97895000D03*
%TO.P,R521,2*%
%TO.N,/GND*%
X276620000Y-97895000D03*
%TD*%
D43*
%TO.P,J1,1,DAT2*%
%TO.N,unconnected-(J1-DAT2-Pad1)*%
X369120000Y-88820000D03*
%TO.P,J1,2,CD/DAT3*%
%TO.N,/SD_DAT3*%
X369120000Y-87720000D03*
%TO.P,J1,3,CMD*%
%TO.N,/SD_CMD*%
X369120000Y-86620000D03*
%TO.P,J1,4,VDD*%
%TO.N,/P3V3_DAISY*%
X369120000Y-85520000D03*
%TO.P,J1,5,CLX*%
%TO.N,/SD_CLK*%
X369120000Y-84420000D03*
%TO.P,J1,6,VSS*%
%TO.N,/GND*%
X369120000Y-83320000D03*
%TO.P,J1,7,DAT0*%
%TO.N,/SD_D0*%
X369120000Y-82220000D03*
%TO.P,J1,8,DAT1*%
%TO.N,unconnected-(J1-DAT1-Pad8)*%
X369120000Y-81120000D03*
D44*
%TO.P,J1,10,10*%
%TO.N,/GND*%
X370120000Y-78820000D03*
D45*
%TO.P,J1,11,11*%
X379720000Y-78820000D03*
%TO.P,J1,12,12*%
X379720000Y-94320000D03*
D46*
%TO.P,J1,13,13*%
X370120000Y-93420000D03*
D43*
%TO.P,J1,CD,CD*%
%TO.N,unconnected-(J1-PadCD)*%
X369120000Y-80020000D03*
%TD*%
D31*
%TO.P,C114,1*%
%TO.N,/BBD_C1A_L*%
X192473000Y-117000000D03*
%TO.P,C114,2*%
%TO.N,/BBD_C1B_L*%
X193873000Y-117000000D03*
%TD*%
D24*
%TO.P,R126,1*%
%TO.N,/BBD_TRIGREF_L*%
X232295000Y-112895000D03*
%TO.P,R126,2*%
%TO.N,/GND*%
X233795000Y-112895000D03*
%TD*%
%TO.P,R217,1*%
%TO.N,/GATE_OUT_2*%
X171145000Y-150595000D03*
%TO.P,R217,2*%
%TO.N,/BBD_INH_R*%
X172645000Y-150595000D03*
%TD*%
D47*
%TO.P,C29,1,1*%
%TO.N,/VBUS_F*%
X360915000Y-76945000D03*
%TO.P,C29,2,2*%
%TO.N,/GND*%
X355575000Y-76945000D03*
%TD*%
D24*
%TO.P,R216,1*%
%TO.N,/TIME_CV*%
X164145000Y-150595000D03*
%TO.P,R216,2*%
%TO.N,/BBD_VCOCV_R*%
X165645000Y-150595000D03*
%TD*%
%TO.P,R118,1*%
%TO.N,/BBD_SUM_L*%
X168628000Y-106000000D03*
%TO.P,R118,2*%
%TO.N,/BBD_SIGIN_L*%
X170128000Y-106000000D03*
%TD*%
%TO.P,R116,1*%
%TO.N,/TIME_CV*%
X163928000Y-113000000D03*
%TO.P,R116,2*%
%TO.N,/BBD_VCOCV_L*%
X165428000Y-113000000D03*
%TD*%
D31*
%TO.P,C122,1*%
%TO.N,/NEG12V*%
X208427000Y-96283000D03*
%TO.P,C122,2*%
%TO.N,/GND*%
X209827000Y-96283000D03*
%TD*%
D30*
%TO.P,D105,1,K*%
%TO.N,/BBD_VCOCV_L*%
X162988000Y-121000000D03*
%TO.P,D105,2,A*%
%TO.N,/GND*%
X166368000Y-121000000D03*
%TD*%
D18*
%TO.P,TP14,1,1*%
%TO.N,/TIME_CV*%
X163201000Y-111003000D03*
%TD*%
D30*
%TO.P,D103,1,K*%
%TO.N,/P5V_BBD*%
X162988000Y-117000000D03*
%TO.P,D103,2,A*%
%TO.N,/BBD_VCOCV_L*%
X166368000Y-117000000D03*
%TD*%
D31*
%TO.P,C206,1*%
%TO.N,/NEG12V*%
X231365000Y-137290000D03*
%TO.P,C206,2*%
%TO.N,/GND*%
X232765000Y-137290000D03*
%TD*%
D48*
%TO.P,F1,1,1*%
%TO.N,/VBUS*%
X366170000Y-69770000D03*
%TO.P,F1,2,2*%
%TO.N,/VBUS_F*%
X362470000Y-69770000D03*
%TD*%
D18*
%TO.P,TP12,1,1*%
%TO.N,/BBD_CLK_L*%
X176045000Y-109295000D03*
%TD*%
D24*
%TO.P,R219,1*%
%TO.N,/P5V_BBD*%
X192148000Y-134000000D03*
%TO.P,R219,2*%
%TO.N,/BBD_VGG_R*%
X193648000Y-134000000D03*
%TD*%
D27*
%TO.P,C30,1,1*%
%TO.N,/GND*%
X366845000Y-78270000D03*
%TO.P,C30,2,2*%
%TO.N,/VBUS_F*%
X364845000Y-78270000D03*
%TD*%
D34*
%TO.P,U104,1,PHASEPULSES*%
%TO.N,unconnected-(U104-PHASEPULSES-Pad1)*%
X179975000Y-113300000D03*
%TO.P,U104,2,PHASECOMPIOUT*%
%TO.N,/BBD_CLKN_L*%
X181255000Y-113300000D03*
%TO.P,U104,3,COMPIN*%
%TO.N,/BBD_CLK_L*%
X182525000Y-113300000D03*
%TO.P,U104,4,VCOOUT*%
X183795000Y-113300000D03*
%TO.P,U104,5,INHIBIT*%
%TO.N,/BBD_INH_L*%
X185055000Y-113300000D03*
%TO.P,U104,6,CI(1)*%
%TO.N,/BBD_C1A_L*%
X186325000Y-113300000D03*
%TO.P,U104,7,CI(2)*%
%TO.N,/BBD_C1B_L*%
X187595000Y-113300000D03*
%TO.P,U104,8,VSS*%
%TO.N,/GND*%
X188875000Y-113300000D03*
%TO.P,U104,9,VCOIN*%
%TO.N,/BBD_VCOCV_L*%
X188875000Y-120700000D03*
%TO.P,U104,10,DEMODULATIONOUT*%
%TO.N,unconnected-(U104-DEMODULATIONOUT-Pad10)*%
X187595000Y-120700000D03*
%TO.P,U104,11,R1TOVSS*%
%TO.N,/BBD_VCOR1_L*%
X186325000Y-120700000D03*
%TO.P,U104,12,R2TOVSS*%
%TO.N,/BBD_VCOR2_L*%
X185055000Y-120700000D03*
%TO.P,U104,13,PHASECOMPIIOUT*%
%TO.N,unconnected-(U104-PHASECOMPIIOUT-Pad13)*%
X183795000Y-120700000D03*
%TO.P,U104,14,SIGNALIN*%
%TO.N,/P5V_BBD*%
X182525000Y-120700000D03*
%TO.P,U104,15,ZENER*%
%TO.N,unconnected-(U104-ZENER-Pad15)*%
X181255000Y-120700000D03*
%TO.P,U104,16,VDD*%
%TO.N,/P5V_BBD*%
X179975000Y-120700000D03*
%TD*%
D39*
%TO.P,J8,2,2*%
%TO.N,/GND*%
X287200000Y-57600000D03*
%TO.P,J8,3,3*%
X289700000Y-65100000D03*
%TO.P,J8,4,4*%
%TO.N,/EXT_IN_R*%
X289700000Y-72500000D03*
%TO.P,J8,5,5*%
%TO.N,/GND*%
X284700000Y-72500000D03*
%TD*%
D31*
%TO.P,C106,1*%
%TO.N,/NEG12V*%
X231437000Y-99760000D03*
%TO.P,C106,2*%
%TO.N,/GND*%
X232837000Y-99760000D03*
%TD*%
D24*
%TO.P,R231,1*%
%TO.N,/BBD_MIX_R*%
X239204000Y-138000000D03*
%TO.P,R231,2*%
%TO.N,/BBD_OUT_R*%
X240704000Y-138000000D03*
%TD*%
D27*
%TO.P,C213,1*%
%TO.N,/BBD_RAW_R*%
X198898000Y-138000000D03*
%TO.P,C213,2*%
%TO.N,/BBD_AC_R*%
X200898000Y-138000000D03*
%TD*%
D19*
%TO.P,U101,1,GND*%
%TO.N,/GND*%
X180235000Y-109540000D03*
D12*
%TO.P,U101,2,CP2*%
%TO.N,/BBD_CLKN_L*%
X180235000Y-107000000D03*
%TO.P,U101,3,OUT1*%
%TO.N,unconnected-(U101-OUT1-Pad3)*%
X180235000Y-96840000D03*
%TO.P,U101,4,OUT2*%
%TO.N,/BBD_RAW_L*%
X180235000Y-94300000D03*
%TO.P,U101,5,VDD*%
%TO.N,/P5V_BBD*%
X187855000Y-94300000D03*
%TO.P,U101,6,CP1*%
%TO.N,/BBD_CLK_L*%
X187855000Y-96840000D03*
%TO.P,U101,7,IN*%
%TO.N,/BBD_SIGIN_L*%
X187855000Y-107000000D03*
%TO.P,U101,8,VGG*%
%TO.N,/BBD_VGG_L*%
X187855000Y-109540000D03*
%TD*%
D25*
%TO.P,U206,1,1OUT*%
%TO.N,/BBD_SH_IN_R*%
X206177000Y-137290000D03*
%TO.P,U206,2,1IN-*%
X207447000Y-137290000D03*
%TO.P,U206,3,1IN+*%
%TO.N,/BBD_AC_R*%
X208717000Y-137290000D03*
%TO.P,U206,4,V-*%
%TO.N,/NEG12V*%
X209987000Y-137290000D03*
%TO.P,U206,5,2IN+*%
%TO.N,/BBD_SH_HOLD_R*%
X209987000Y-142700000D03*
%TO.P,U206,6,2IN-*%
%TO.N,/BBD_SH_FB_R*%
X208717000Y-142700000D03*
%TO.P,U206,7,2OUT*%
%TO.N,/BBD_WET_R*%
X207447000Y-142700000D03*
%TO.P,U206,8,V+*%
%TO.N,/POS12V*%
X206177000Y-142700000D03*
%TD*%
D24*
%TO.P,R226,1*%
%TO.N,/BBD_TRIGREF_R*%
X229126000Y-153000000D03*
%TO.P,R226,2*%
%TO.N,/GND*%
X230626000Y-153000000D03*
%TD*%
%TO.P,R232,1*%
%TO.N,/BBD_WETAC_R*%
X239204000Y-142000000D03*
%TO.P,R232,2*%
%TO.N,/BBD_WETOUT_R*%
X240704000Y-142000000D03*
%TD*%
D40*
%TO.P,C511,1*%
%TO.N,/EXT_PROT_L*%
X271806000Y-97177000D03*
%TO.P,C511,2*%
%TO.N,/EXT_AMP_IN_L*%
X271806000Y-95177000D03*
%TD*%
D33*
%TO.P,R520,1*%
%TO.N,/EXT_AMP_IN_R*%
X284230000Y-92115000D03*
%TO.P,R520,2*%
%TO.N,/GND*%
X284230000Y-90615000D03*
%TD*%
D24*
%TO.P,R110,1*%
%TO.N,/POS12V*%
X159628000Y-113000000D03*
%TO.P,R110,2*%
%TO.N,/BBD_TIMEHI_L*%
X161128000Y-113000000D03*
%TD*%
%TO.P,R111,1*%
%TO.N,/BBD_TIMELO_L*%
X159628000Y-117000000D03*
%TO.P,R111,2*%
%TO.N,/GND*%
X161128000Y-117000000D03*
%TD*%
%TO.P,R129,1*%
%TO.N,/BBD_SH_FB_L*%
X217898000Y-104470000D03*
%TO.P,R129,2*%
%TO.N,/GND*%
X219398000Y-104470000D03*
%TD*%
D28*
%TO.P,RT401,1,1*%
%TO.N,/LPG_SUM_R*%
X219168000Y-149488000D03*
D29*
%TO.P,RT401,2,WIPER*%
%TO.N,/LPG_T1_R*%
X220418000Y-152388000D03*
D28*
%TO.P,RT401,3,3*%
X221668000Y-149488000D03*
%TD*%
D24*
%TO.P,R119,1*%
%TO.N,/P5V_BBD*%
X192220000Y-96470000D03*
%TO.P,R119,2*%
%TO.N,/BBD_VGG_L*%
X193720000Y-96470000D03*
%TD*%
D31*
%TO.P,C211,1*%
%TO.N,/P5V_BBD*%
X186566000Y-128467000D03*
%TO.P,C211,2*%
%TO.N,/GND*%
X187966000Y-128467000D03*
%TD*%
%TO.P,C221,1*%
%TO.N,/POS12V*%
X206409000Y-146177000D03*
%TO.P,C221,2*%
%TO.N,/GND*%
X207809000Y-146177000D03*
%TD*%
D24*
%TO.P,R215,1*%
%TO.N,/BBD_TIMEW_R*%
X159845000Y-158595000D03*
%TO.P,R215,2*%
%TO.N,/BBD_VCOCV_R*%
X161345000Y-158595000D03*
%TD*%
D33*
%TO.P,R519,1*%
%TO.N,/EXT_AMP_IN_L*%
X266270000Y-84220000D03*
%TO.P,R519,2*%
%TO.N,/GND*%
X266270000Y-82720000D03*
%TD*%
D49*
%TO.N,/GND*%
X250370000Y-125895000D03*
X207809000Y-147227000D03*
X301160100Y-109979900D03*
X220365200Y-141400000D03*
X163819000Y-99090000D03*
X340222000Y-64378000D03*
X167000000Y-164800000D03*
X165141700Y-132750500D03*
X327170000Y-124370000D03*
X306702900Y-109034300D03*
X226604700Y-113957500D03*
X241070000Y-124625000D03*
X371945000Y-71419200D03*
X278045000Y-116895000D03*
X186370000Y-126810000D03*
X315640000Y-109095000D03*
X207415300Y-116937500D03*
X159750000Y-163500000D03*
X216698000Y-100470000D03*
X148750000Y-139050000D03*
X277220000Y-98934200D03*
X227609000Y-108647000D03*
X149220000Y-96670000D03*
X276995000Y-113945000D03*
X193492200Y-93791800D03*
X172474200Y-158297400D03*
X231800000Y-163000000D03*
X233945000Y-122995000D03*
X165268000Y-121000000D03*
X355575000Y-75745000D03*
X157980000Y-98190000D03*
X155065000Y-113995000D03*
X232765000Y-136240000D03*
X289730000Y-140695000D03*
X340059700Y-71893500D03*
X226326000Y-158050000D03*
X273920000Y-90615000D03*
X161345000Y-155645000D03*
X162700000Y-164550000D03*
X190745000Y-113170000D03*
X284070000Y-96995000D03*
X163366100Y-138980400D03*
X187966000Y-129517000D03*
X321670000Y-102145000D03*
X201802500Y-97095000D03*
X215306000Y-148669000D03*
X356995000Y-61370000D03*
X208800000Y-122000000D03*
X159636000Y-142922000D03*
X241063800Y-127592100D03*
X200648000Y-135050000D03*
X208832500Y-146625000D03*
X294104700Y-107682500D03*
X160528000Y-118039200D03*
X362380800Y-63391800D03*
X295220000Y-118520000D03*
X193648000Y-139050000D03*
X348214000Y-59270000D03*
X368917900Y-77617900D03*
X367670000Y-83320000D03*
X251325000Y-159700000D03*
X285790000Y-128140000D03*
X188875000Y-111900000D03*
X228396200Y-148086200D03*
X236200000Y-156100000D03*
X280300000Y-146000000D03*
X200720000Y-105520000D03*
X219398000Y-103420000D03*
X280300000Y-150000000D03*
X231676000Y-153000000D03*
X193923000Y-122050000D03*
X308720000Y-77170000D03*
X322770000Y-79045000D03*
X376470100Y-58580000D03*
X379720000Y-95520000D03*
X370545000Y-120970000D03*
X243325000Y-160270000D03*
X190920000Y-154695000D03*
X272200000Y-143050000D03*
X234845000Y-112895000D03*
X193898000Y-143300000D03*
X194973000Y-161000000D03*
X199273000Y-153000000D03*
X296215000Y-127717200D03*
X339750000Y-117970000D03*
X231789200Y-138400000D03*
X240125000Y-157730000D03*
X207999000Y-108770000D03*
X222545000Y-125895000D03*
X229625000Y-146000000D03*
X216870000Y-135520000D03*
X154842900Y-112571400D03*
X160169200Y-99020800D03*
X371520000Y-93420000D03*
X181270300Y-122921500D03*
X279300000Y-92715000D03*
X210452000Y-95200500D03*
X201800000Y-122000000D03*
X281255000Y-98707500D03*
X159636000Y-102922000D03*
X165474200Y-158297400D03*
X213335700Y-114776500D03*
X199913400Y-113452900D03*
X293180700Y-116680700D03*
X200648000Y-143500000D03*
X235766300Y-125651500D03*
X293053500Y-138607400D03*
X279300000Y-98815000D03*
X283250800Y-110361800D03*
X267332500Y-82435300D03*
X283958200Y-89600800D03*
X209755000Y-134863000D03*
X238306000Y-158769000D03*
X380445000Y-77564300D03*
X270229700Y-109957500D03*
X299635300Y-101807500D03*
X233887000Y-99760000D03*
X245081200Y-158157100D03*
X241956900Y-125285000D03*
X182605000Y-163984000D03*
X209245000Y-144845000D03*
X226326000Y-118050000D03*
X353020000Y-64045000D03*
X340904000Y-71348700D03*
X224800000Y-159000000D03*
X166370000Y-92920000D03*
X200750000Y-147050000D03*
X193845000Y-102170000D03*
X366845000Y-79570000D03*
X246020000Y-127165000D03*
X156720000Y-98190000D03*
X329470000Y-118070000D03*
X248275000Y-160270000D03*
X174450500Y-120375000D03*
X331870000Y-121940000D03*
X284625000Y-116015000D03*
%TO.N,/P3V3_OLED*%
X302646000Y-105153500D03*
%TO.N,/P3V3_MSP430*%
X334170000Y-121991300D03*
X331763700Y-114254600D03*
%TO.N,/P5V_OLED*%
X330295000Y-104121700D03*
X319846400Y-104748100D03*
%TO.N,/P5V_MSP*%
X329570000Y-121775100D03*
X327820000Y-110307400D03*
%TO.N,/P3V3_DAISY*%
X153325000Y-112830700D03*
X377320700Y-76064700D03*
X155622900Y-101724600D03*
X188224200Y-116505100D03*
X374902600Y-119826400D03*
X368823800Y-120070000D03*
X372750000Y-76084000D03*
X367669300Y-85520000D03*
%TO.N,/ENC0_A*%
X174752200Y-123304600D03*
%TO.N,/ENC0_B*%
X175813600Y-122584900D03*
%TO.N,/ENC0_PUSH*%
X160630300Y-126658000D03*
X176540500Y-123283800D03*
%TO.N,/ENC1_B*%
X149778500Y-98374600D03*
%TO.N,/ENC1_A*%
X151025300Y-98384000D03*
%TO.N,/ENC2_B*%
X146520000Y-96213200D03*
%TO.N,/ENC2_A*%
X147974500Y-96174700D03*
%TO.N,/ENC3_B*%
X145280000Y-101718600D03*
%TO.N,/ENC3_A*%
X145848100Y-97761200D03*
%TO.N,/ENC4_A*%
X144020000Y-97761200D03*
%TO.N,/ENC5_B*%
X145140600Y-108275100D03*
%TO.N,/ENC5_A*%
X143311600Y-108483300D03*
%TO.N,/ENC6_B*%
X147380200Y-108366100D03*
%TO.N,/ENC6_A*%
X146366700Y-108280400D03*
%TO.N,/ENC7_B*%
X164873700Y-105996000D03*
X150088200Y-107881800D03*
%TO.N,/ENC7_A*%
X164870400Y-104993900D03*
X149096900Y-108307400D03*
%TO.N,/ENC8_B*%
X166792300Y-107905400D03*
X151640000Y-111838100D03*
%TO.N,/ENC8_A*%
X166621100Y-112546400D03*
%TO.N,/LPG_C5_L*%
X219200000Y-137923800D03*
X219995000Y-122952800D03*
%TO.N,/LPG_SUM_L*%
X217322900Y-118034300D03*
X217073100Y-137988600D03*
%TO.N,/P5V*%
X331008100Y-109164900D03*
X118640800Y-51495400D03*
%TO.N,/SD_D0*%
X370534000Y-82538400D03*
%TO.N,/SD_CLK*%
X367704400Y-84420000D03*
%TO.N,/SD_CMD*%
X371333400Y-77713000D03*
X370530500Y-86620000D03*
%TO.N,/OLED_FONTCS*%
X306236800Y-98000000D03*
%TO.N,/SD_DAT3*%
X377664700Y-74144600D03*
X370534100Y-87720000D03*
X372107200Y-76915900D03*
%TO.N,/I2C_SCL*%
X340814000Y-131044500D03*
X156720000Y-111840200D03*
X188454500Y-123388400D03*
X373088600Y-119023200D03*
X160443900Y-119969100D03*
%TO.N,/I2C_SDA*%
X190180000Y-123300900D03*
X170065300Y-114047000D03*
X376863000Y-120903900D03*
%TO.N,/NEG12V*%
X229283100Y-98233300D03*
X283296500Y-127088400D03*
X225035600Y-114012300D03*
X271701700Y-92348400D03*
X349321300Y-63300800D03*
X215071700Y-140069400D03*
X286441700Y-105177900D03*
X210285900Y-101400800D03*
X165090200Y-138997400D03*
X247721900Y-127040700D03*
X228739300Y-140144200D03*
X251426600Y-158300000D03*
X210486200Y-138816700D03*
X222135300Y-146631600D03*
X300510700Y-137400000D03*
X169108200Y-95115600D03*
X306249900Y-99635900D03*
X165233100Y-99167900D03*
X283203600Y-118098900D03*
%TO.N,/POS12V*%
X210564200Y-113714000D03*
X309190100Y-96568700D03*
X206249000Y-103541500D03*
X161106000Y-104399700D03*
X223733700Y-121000000D03*
X205453100Y-141004000D03*
X285990600Y-108951300D03*
X223756300Y-160989400D03*
X292075000Y-101570000D03*
X341226500Y-69193400D03*
X220421600Y-145580800D03*
X158505400Y-113167900D03*
X239727700Y-160111800D03*
X279745800Y-95889100D03*
X215976700Y-86820700D03*
X224371700Y-107611200D03*
X214256000Y-81938400D03*
X294171300Y-126245000D03*
X158735700Y-150595000D03*
X153892400Y-163500000D03*
X211453200Y-146652200D03*
X161368900Y-144339200D03*
X218125100Y-112475800D03*
%TO.N,/AUDIO_OUT_R*%
X288573600Y-144727100D03*
X277219400Y-143282500D03*
%TO.N,/AUDIO_OUT_L*%
X275126100Y-110182700D03*
%TO.N,/AUDIO_IN_R*%
X282889300Y-97001700D03*
%TO.N,/AUDIO_IN_L*%
X277800000Y-92676500D03*
%TO.N,/GATE_OUT_1*%
X151390200Y-62895000D03*
X159606700Y-61189000D03*
%TO.N,/GATE_OUT_2*%
X195849700Y-124297100D03*
X169905200Y-112541900D03*
X191490300Y-122449000D03*
X170249800Y-151398500D03*
X190073700Y-153223700D03*
X363579200Y-157752400D03*
%TO.N,/BBD_TIMEHI_L*%
X195400400Y-113859400D03*
X160851700Y-111964800D03*
%TO.N,/LPG_ENV*%
X129856100Y-63045000D03*
X157090000Y-59754300D03*
X251150000Y-161964400D03*
%TO.N,/BBD_TIMEW_L*%
X196127300Y-106531900D03*
%TO.N,/BTN1*%
X178750000Y-116705800D03*
%TO.N,/BTN2*%
X177203500Y-116693400D03*
%TO.N,/BTN3*%
X174891800Y-117759000D03*
%TO.N,/BTN4*%
X172190300Y-116488200D03*
%TO.N,/LPG_VCFSW_L*%
X270967700Y-112895000D03*
%TO.N,/LPG_LDR_L*%
X222974400Y-114809000D03*
X205277900Y-118000000D03*
%TO.N,/LPG_RES_L*%
X201705500Y-117721400D03*
X222844000Y-109729000D03*
%TO.N,/LPG_RESW_L*%
X198298000Y-118155000D03*
X219977500Y-111000500D03*
%TO.N,/LPG_C5_R*%
X220204400Y-163000000D03*
X219850000Y-157814000D03*
%TO.N,/LPG_SUM_R*%
X218520100Y-154023100D03*
X217298300Y-149184000D03*
%TO.N,/LPG_VCFSW_R*%
X268972300Y-81887400D03*
X273230300Y-146000000D03*
%TO.N,/LPG_LDR_R*%
X206465500Y-148434700D03*
X225100900Y-147914000D03*
%TO.N,/LPG_RES_R*%
X222758300Y-141273300D03*
X201701900Y-142000000D03*
%TO.N,/LPG_RESW_R*%
X198131700Y-142000000D03*
X221282700Y-143460000D03*
%TO.N,/LPG_LED_L*%
X229478600Y-136043200D03*
%TO.N,/BBD_TIMELO_L*%
X167068800Y-115038600D03*
X165103600Y-115302100D03*
%TO.N,/BBD_TIMEHI_R*%
X162074900Y-149612000D03*
%TO.N,/BBD_TIMEW_R*%
X159884900Y-159630200D03*
%TO.N,/BBD_TIMELO_R*%
X160602900Y-153647400D03*
%TO.N,/BBD_FB_L*%
X168628000Y-96948100D03*
%TO.N,/EXT_IN_R*%
X292963900Y-82115100D03*
%TO.N,/SRC_RSMP_L*%
X273830600Y-99047500D03*
%TO.N,/SRC_RSMP_R*%
X290543900Y-96499800D03*
%TO.N,/VBUS*%
X365795000Y-61520000D03*
%TO.N,/VBUS_F*%
X360915000Y-78596700D03*
%TO.N,/POS12V_RAW*%
X296721600Y-106620000D03*
%TO.N,/NEG12V_RAW*%
X297099400Y-114433900D03*
X283996500Y-105486700D03*
%TO.N,/LED_NEG*%
X287137200Y-140537500D03*
X283598500Y-121678400D03*
%TO.N,/CC1*%
X359505600Y-62420000D03*
X374243900Y-58483000D03*
%TO.N,/CC2*%
X362668100Y-61897000D03*
X370520000Y-60745000D03*
%TO.N,/BBD_WETAC_L*%
X238267100Y-104749000D03*
X241339000Y-95155100D03*
%TO.N,/BBD_FB_R*%
X168628000Y-136929700D03*
%TO.N,/BBD_WETAC_R*%
X239204000Y-140951400D03*
X242288600Y-133756600D03*
%TO.N,/BBD_MIXW_L*%
X168456200Y-103461100D03*
%TO.N,/BBD_DRY_R*%
X230223800Y-134949900D03*
%TO.N,/BBD_MIXW_R*%
X165735800Y-143997800D03*
X235698800Y-86671500D03*
%TO.N,/P5V_BBD*%
X162061300Y-118030000D03*
X153097700Y-159295000D03*
X169211500Y-115771900D03*
X171306900Y-154595000D03*
X179038600Y-161056200D03*
X163205000Y-153384100D03*
X182713400Y-122139100D03*
%TO.N,/BBD_VGG_L*%
X191524900Y-105760900D03*
%TO.N,/BBD_AC_L*%
X200971600Y-99192000D03*
X207363800Y-98044700D03*
%TO.N,/BBD_RAW_L*%
X198196700Y-96749300D03*
%TO.N,/BTN5*%
X182942400Y-116728500D03*
%TO.N,/BTN6*%
X181449600Y-116694200D03*
%TO.N,/TIME_CV*%
X190873200Y-151559600D03*
X163120600Y-150595000D03*
X172084100Y-114764000D03*
%TO.N,/BBD_CLK_L*%
X181845000Y-109345000D03*
%TO.N,/BBD_WET_L*%
X216395000Y-108182200D03*
X207944700Y-106741500D03*
X238745800Y-97752100D03*
%TO.N,/BBD_VGG_R*%
X191709800Y-143294100D03*
%TO.N,/BBD_RAW_R*%
X194695600Y-132714000D03*
%TO.N,/BBD_C1B_R*%
X194880800Y-157159000D03*
X188615000Y-154721100D03*
%TO.N,/BBD_TRIGIN_R*%
X227291100Y-153000000D03*
X228943700Y-144280600D03*
%TO.N,/BBD_WET_R*%
X208115600Y-140925600D03*
X217280400Y-147914000D03*
%TO.N,/BBD_SH_G_L*%
X214368100Y-106079100D03*
X213299000Y-93765700D03*
%TO.N,/BBD_VCOCV_R*%
X162720400Y-159773200D03*
X188576000Y-162124900D03*
%TO.N,/BBD_INH_R*%
X184834500Y-154719500D03*
X174160900Y-153385500D03*
%TO.N,/BBD_SH_G_R*%
X216058300Y-142000000D03*
X213276000Y-133048600D03*
%TO.N,/BBD_TRIG_R*%
X226431600Y-141082000D03*
X213676600Y-145472100D03*
%TO.N,/BBD_SH_IN_L*%
X207798900Y-101590300D03*
X213160300Y-103413300D03*
X213976600Y-95640800D03*
%TO.N,/BBD_SH_IN_R*%
X207196500Y-135698000D03*
X214255900Y-141004300D03*
X213636200Y-134938000D03*
%TO.N,/BBD_GAIN_L*%
X157174700Y-94210200D03*
X167622800Y-94000000D03*
%TO.N,/BBD_IN_L*%
X150935700Y-101503200D03*
%TO.N,/BBD_INF_L*%
X149776500Y-94000000D03*
X226264300Y-98179200D03*
%TO.N,/BBD_SUM_L*%
X170396300Y-95769200D03*
X162838800Y-98881700D03*
%TO.N,/BBD_SIGIN_L*%
X161279000Y-95701600D03*
%TO.N,/BBD_VCOR1_L*%
X187220400Y-117557600D03*
X193828400Y-114399700D03*
%TO.N,/BBD_TRIGREF_L*%
X231263600Y-112895000D03*
X227771000Y-106775900D03*
%TO.N,/BBD_OUT_L*%
X291033000Y-76011100D03*
X270242200Y-97496300D03*
X353099500Y-60493400D03*
X309926800Y-77095000D03*
%TO.N,/BBD_MIX_L*%
X167683300Y-104221800D03*
X238253100Y-100470000D03*
%TO.N,/BBD_GAIN_R*%
X156764900Y-133715000D03*
X167618700Y-133720600D03*
%TO.N,/BBD_IN_R*%
X146235200Y-137581400D03*
%TO.N,/BBD_INF_R*%
X148750000Y-135100700D03*
X227239700Y-135710900D03*
%TO.N,/BBD_SUM_R*%
X162549000Y-135708700D03*
X170126800Y-139068400D03*
%TO.N,/BBD_SIGIN_R*%
X161230700Y-138874400D03*
%TO.N,/BBD_VCOR1_R*%
X195688000Y-153258600D03*
X189782500Y-160126400D03*
%TO.N,/BBD_TRIGREF_R*%
X226326000Y-159952900D03*
X227108500Y-144282500D03*
X227205300Y-154342800D03*
%TO.N,/BBD_OUT_R*%
X288971400Y-96488100D03*
X283193000Y-100702200D03*
X241734000Y-138000000D03*
X265017900Y-102553400D03*
X342330100Y-72715300D03*
X305197600Y-98653000D03*
X325499900Y-78986600D03*
%TO.N,/BBD_MIX_R*%
X163378800Y-140957900D03*
X171344100Y-137192300D03*
X238174000Y-138000000D03*
%TO.N,/LPG_ENVN_L*%
X254165100Y-122865100D03*
X260572500Y-75351900D03*
%TO.N,/LPG_CVI_L*%
X241056100Y-123355000D03*
X253677200Y-139000000D03*
X251686300Y-122161600D03*
%TO.N,/LPG_CVW_L*%
X252362600Y-125895000D03*
X258944000Y-82170300D03*
%TO.N,/BBD_C1A_L*%
X189789200Y-117426600D03*
X186296300Y-111898900D03*
%TO.N,/BBD_CLKN_R*%
X181255000Y-151877600D03*
%TO.N,/LPG_CV_L*%
X246004200Y-129856200D03*
X259395000Y-124834000D03*
X219592500Y-124558000D03*
%TO.N,/LPG_CVW_R*%
X254643600Y-159000000D03*
%TO.N,/LPG_CV_R*%
X262657900Y-159000000D03*
X246842900Y-163716400D03*
%TO.N,/LPG_OFS_L*%
X229457200Y-123679700D03*
X214472500Y-122055400D03*
%TO.N,/LPG_BOUT_L*%
X225974900Y-125955800D03*
X215568500Y-117609300D03*
%TO.N,/LPG_T1_L*%
X221793100Y-118291100D03*
%TO.N,/LPG_ABUF_L*%
X218062600Y-108918500D03*
X223007100Y-111578400D03*
X279995000Y-107830900D03*
%TO.N,/LPG_OUT_L*%
X207750000Y-124922600D03*
X209729700Y-118000000D03*
X221684700Y-119295200D03*
%TO.N,/LPG_CFB_L*%
X223007200Y-116740400D03*
X206250000Y-124940100D03*
%TO.N,/LPG_RESL_L*%
X198238900Y-122008500D03*
%TO.N,/LPG_OFS_R*%
X207454300Y-87094300D03*
X217449800Y-153945100D03*
%TO.N,/LPG_BOUT_R*%
X226978400Y-155954100D03*
X222031100Y-151575600D03*
%TO.N,/LPG_T1_R*%
X228218300Y-154698200D03*
%TO.N,/LPG_BP_R*%
X220161500Y-147914000D03*
X224483900Y-158034800D03*
%TO.N,/LPG_ABUF_R*%
X282250000Y-143042800D03*
%TO.N,/LPG_RESL_R*%
X198215100Y-146000000D03*
%TO.N,/LPG_CVD_L*%
X256888300Y-121895000D03*
X258159000Y-139000000D03*
X246047800Y-122044400D03*
%TO.N,/LPG_CVC_L*%
X257895000Y-126962100D03*
X246680200Y-129080100D03*
%TO.N,/LPG_ENVN_R*%
X256446000Y-156017100D03*
X243327200Y-154844300D03*
%TO.N,/LPG_SUMCV_R*%
X248129700Y-155818000D03*
X257151200Y-157958500D03*
%TO.N,/LPG_CVD_R*%
X247580300Y-154284700D03*
X256661800Y-161943800D03*
X259123100Y-155000000D03*
%TO.N,/LPG_CVC_R*%
X258267900Y-159309700D03*
X245095600Y-161059400D03*
%TO.N,/HP_IN_R*%
X350614300Y-54095000D03*
X346055100Y-71402000D03*
X339884500Y-67080900D03*
%TO.N,/HP_OUT_R*%
X344533800Y-77321000D03*
%TO.N,/HP_DIV_L*%
X356493000Y-69645000D03*
X337398900Y-65712000D03*
%TO.N,/HP_DIV_R*%
X336600300Y-70806800D03*
X353802800Y-53066600D03*
%TO.N,/HP_BUF_L*%
X356892000Y-58695000D03*
X343635000Y-60759600D03*
%TO.N,/HP_BUF_R*%
X342325300Y-76254800D03*
X343334000Y-69234700D03*
%TO.N,/HP_W_R*%
X339993300Y-73355400D03*
X345580200Y-69223200D03*
%TO.N,/EXT_AMP_OUT_L*%
X274309000Y-95175000D03*
X270233300Y-93782900D03*
%TO.N,/EXT_AMP_OUT_R*%
X283269000Y-93895000D03*
%TO.N,/EXT_PROT_L*%
X264429500Y-77845000D03*
X265020500Y-96769400D03*
%TO.N,/EXT_PROT_R*%
X293134500Y-80432100D03*
X279979900Y-85722600D03*
%TO.N,/LINE_OUT_R*%
X326270000Y-76929200D03*
%TO.N,/EXT_FB_L*%
X278603300Y-94823900D03*
X270092900Y-91897900D03*
%TO.N,/EXT_FB_R*%
X284804000Y-94055100D03*
X282767900Y-92944800D03*
%TO.N,/GND*%
X151187000Y-157995000D03*
%TD*%
D50*
%TO.N,/GND*%
X166370000Y-92870000D02*
X166345000Y-92895000D01*
D51*
X192478000Y-93520000D02*
X193492200Y-93791800D01*
D50*
X148750000Y-98000000D02*
X148750000Y-97365000D01*
X166320000Y-92920000D02*
X166370000Y-92920000D01*
D51*
X206949000Y-108770000D02*
X207999000Y-108770000D01*
X233795000Y-112895000D02*
X234845000Y-112895000D01*
X322770000Y-77995000D02*
X322770000Y-79045000D01*
X163819000Y-137290000D02*
X163366100Y-138980400D01*
X158586000Y-102922000D02*
X159636000Y-102922000D01*
X284230000Y-90615000D02*
X283958200Y-89600800D01*
X193898000Y-142000000D02*
X193898000Y-143300000D01*
D50*
X149220000Y-96670000D02*
X149220000Y-96895000D01*
D51*
X369120000Y-83320000D02*
X367670000Y-83320000D01*
D50*
X193845000Y-102170000D02*
X193695000Y-101945000D01*
D51*
X353020000Y-65095000D02*
X353020000Y-64045000D01*
X187966000Y-128467000D02*
X187966000Y-129517000D01*
D50*
X148750000Y-97365000D02*
X149220000Y-96895000D01*
X165427000Y-93813000D02*
X166320000Y-92920000D01*
D51*
X226326000Y-117000000D02*
X226326000Y-118050000D01*
X226326000Y-157000000D02*
X226326000Y-158050000D01*
X198223000Y-153000000D02*
X199273000Y-153000000D01*
X281880000Y-97625000D02*
X281255000Y-98707500D01*
X226487000Y-146177000D02*
X228396200Y-148086200D01*
X193648000Y-138000000D02*
X193648000Y-139050000D01*
X158700000Y-163500000D02*
X159750000Y-163500000D01*
X338922000Y-64378000D02*
X340222000Y-64378000D01*
D50*
X216870000Y-135495000D02*
X216845000Y-135520000D01*
D51*
X379720000Y-78820000D02*
X380445000Y-77564300D01*
X215348000Y-100470000D02*
X216698000Y-100470000D01*
X188875000Y-113300000D02*
X188875000Y-111900000D01*
X232837000Y-99760000D02*
X233887000Y-99760000D01*
X355575000Y-76945000D02*
X355575000Y-75745000D01*
X219326000Y-142000000D02*
X220365200Y-141400000D01*
X164857000Y-133813000D02*
X165141700Y-132750500D01*
X161128000Y-117000000D02*
X160528000Y-118039200D01*
D50*
X190245000Y-154670000D02*
X190795000Y-154670000D01*
D51*
X209827000Y-96283000D02*
X210452000Y-95200500D01*
X173368000Y-121000000D02*
X174450500Y-120375000D01*
X200720000Y-104470000D02*
X200720000Y-105520000D01*
X356995000Y-62420000D02*
X356995000Y-61370000D01*
X379720000Y-94320000D02*
X379720000Y-95520000D01*
D50*
X216870000Y-135520000D02*
X216870000Y-135495000D01*
X215276000Y-137089000D02*
X216845000Y-135520000D01*
D51*
X363395000Y-63120000D02*
X362380800Y-63391800D01*
X370120000Y-93420000D02*
X371520000Y-93420000D01*
D50*
X188875000Y-153300000D02*
X190245000Y-154670000D01*
X190795000Y-154670000D02*
X190920000Y-154695000D01*
D51*
X232765000Y-137290000D02*
X232765000Y-136240000D01*
X161345000Y-154595000D02*
X161345000Y-155645000D01*
X371295000Y-72545000D02*
X371945000Y-71419200D01*
D50*
X193720000Y-101920000D02*
X193845000Y-102170000D01*
D51*
X181555000Y-163984000D02*
X182605000Y-163984000D01*
X285120000Y-96995000D02*
X284070000Y-96995000D01*
X166368000Y-121000000D02*
X165268000Y-121000000D01*
X193923000Y-121000000D02*
X193923000Y-122050000D01*
D50*
X193845000Y-104345000D02*
X193970000Y-104470000D01*
D51*
X370120000Y-78820000D02*
X368917900Y-77617900D01*
X230626000Y-153000000D02*
X231676000Y-153000000D01*
X339854000Y-69530000D02*
X340904000Y-71348700D01*
X181555000Y-123984000D02*
X181270300Y-122921500D01*
D50*
X190845000Y-154670000D02*
X190820000Y-154670000D01*
D51*
X148750000Y-138000000D02*
X148750000Y-139050000D01*
X163819000Y-97290000D02*
X163819000Y-99090000D01*
D50*
X166370000Y-92920000D02*
X166370000Y-92870000D01*
D51*
X200648000Y-142000000D02*
X200648000Y-143500000D01*
D50*
X193845000Y-102170000D02*
X193845000Y-104345000D01*
D51*
X193923000Y-161000000D02*
X194973000Y-161000000D01*
X366845000Y-78270000D02*
X366845000Y-79570000D01*
X348214000Y-61470000D02*
X348214000Y-59270000D01*
X209755000Y-133813000D02*
X209755000Y-134863000D01*
X200720000Y-96470000D02*
X201802500Y-97095000D01*
D50*
X193720000Y-100470000D02*
X193720000Y-101920000D01*
D51*
X276620000Y-97895000D02*
X277220000Y-98934200D01*
X167000000Y-163500000D02*
X167000000Y-164800000D01*
X207809000Y-146177000D02*
X207809000Y-147227000D01*
X307670000Y-77170000D02*
X308720000Y-77170000D01*
X272820000Y-90615000D02*
X273920000Y-90615000D01*
X166585000Y-158595000D02*
X165474200Y-158297400D01*
D50*
X215276000Y-138000000D02*
X215276000Y-137089000D01*
D51*
X266270000Y-82720000D02*
X267332500Y-82435300D01*
X200648000Y-134000000D02*
X200648000Y-135050000D01*
X173585000Y-158595000D02*
X172474200Y-158297400D01*
X338804000Y-72230000D02*
X340059700Y-71893500D01*
X198223000Y-113000000D02*
X199913400Y-113452900D01*
X162700000Y-163500000D02*
X162700000Y-164550000D01*
D50*
X164857000Y-93813000D02*
X165427000Y-93813000D01*
D51*
X219398000Y-104470000D02*
X219398000Y-103420000D01*
X226559000Y-108647000D02*
X227609000Y-108647000D01*
X158586000Y-142922000D02*
X159636000Y-142922000D01*
D50*
X216845000Y-135520000D02*
X216870000Y-135520000D01*
X190920000Y-154695000D02*
X190845000Y-154670000D01*
D51*
%TO.N,/P5V_OLED*%
X320472800Y-104121700D02*
X319846400Y-104748100D01*
X330295000Y-104121700D02*
X320472800Y-104121700D01*
%TO.N,/P3V3_DAISY*%
X229642900Y-121933900D02*
X215992200Y-121933900D01*
X195625900Y-118295900D02*
X189374000Y-118295900D01*
X369120000Y-85520000D02*
X367669300Y-85520000D01*
X372769300Y-76064700D02*
X372750000Y-76084000D01*
X231506800Y-120070000D02*
X229642900Y-121933900D01*
X214175900Y-120117600D02*
X197447600Y-120117600D01*
X368823800Y-120070000D02*
X231506800Y-120070000D01*
X215992200Y-121933900D02*
X214175900Y-120117600D01*
X197447600Y-120117600D02*
X195625900Y-118295900D01*
X377320700Y-76064700D02*
X372769300Y-76064700D01*
X188524200Y-116805100D02*
X188224200Y-116505100D01*
X188524200Y-117446100D02*
X188524200Y-116805100D01*
X189374000Y-118295900D02*
X188524200Y-117446100D01*
D50*
%TO.N,/OLED_RES*%
X320981200Y-97482200D02*
X372292200Y-97482200D01*
X372292200Y-97482200D02*
X376575000Y-101765000D01*
X298048000Y-74549000D02*
X320981200Y-97482200D01*
%TO.N,/ENC0_A*%
X125356500Y-125183500D02*
X172873300Y-125183500D01*
X124076000Y-123903000D02*
X125356500Y-125183500D01*
X172873300Y-125183500D02*
X174752200Y-123304600D01*
%TO.N,/ENC0_B*%
X173125500Y-123903000D02*
X174482900Y-122545600D01*
X175774300Y-122545600D02*
X175813600Y-122584900D01*
X129076000Y-123903000D02*
X173125500Y-123903000D01*
X174482900Y-122545600D02*
X175774300Y-122545600D01*
%TO.N,/ENC0_PUSH*%
X173166300Y-126658000D02*
X160630300Y-126658000D01*
X176540500Y-123283800D02*
X173166300Y-126658000D01*
%TO.N,/ENC7_B*%
X151974000Y-105996000D02*
X164873700Y-105996000D01*
X150088200Y-107881800D02*
X151974000Y-105996000D01*
%TO.N,/ENC7_A*%
X164595300Y-105269000D02*
X164870400Y-104993900D01*
X149096900Y-108307400D02*
X149096900Y-107809000D01*
X149096900Y-107809000D02*
X151636900Y-105269000D01*
X151636900Y-105269000D02*
X164595300Y-105269000D01*
%TO.N,/ENC8_B*%
X151640000Y-111838100D02*
X155572600Y-107905500D01*
X166792300Y-107905500D02*
X166792300Y-107905400D01*
X155572600Y-107905500D02*
X166792300Y-107905500D01*
%TO.N,/LPG_SUM_L*%
X217322900Y-114938200D02*
X217322900Y-118034300D01*
X218218100Y-114043000D02*
X217322900Y-114938200D01*
X219195000Y-114043000D02*
X218218100Y-114043000D01*
D51*
%TO.N,/P5V*%
X332624500Y-110781300D02*
X331008100Y-109164900D01*
X375178700Y-110781300D02*
X332624500Y-110781300D01*
X376575000Y-109385000D02*
X375178700Y-110781300D01*
D52*
%TO.N,/SD_D0*%
X370215600Y-82220000D02*
X370534000Y-82538400D01*
X369120000Y-82220000D02*
X370215600Y-82220000D01*
%TO.N,/SD_CLK*%
X368024400Y-84420000D02*
X367704400Y-84420000D01*
X369120000Y-84420000D02*
X368024400Y-84420000D01*
D50*
%TO.N,/SD_CMD*%
X370530500Y-86620000D02*
X369120000Y-86620000D01*
%TO.N,/SD_DAT3*%
X371972500Y-75775500D02*
X371972500Y-76781200D01*
D52*
X370215600Y-87720000D02*
X370534100Y-87720000D01*
D50*
X373603400Y-74144600D02*
X371972500Y-75775500D01*
X371972500Y-76781200D02*
X372107200Y-76915900D01*
D52*
X369120000Y-87720000D02*
X370215600Y-87720000D01*
D50*
X377664700Y-74144600D02*
X373603400Y-74144600D01*
%TO.N,/EXT_IN_L*%
X272700000Y-72500000D02*
X272700000Y-74326900D01*
X272700000Y-74326900D02*
X267681900Y-79345000D01*
X267681900Y-79345000D02*
X265470000Y-79345000D01*
%TO.N,/I2C_SCL*%
X176654600Y-119509900D02*
X173787700Y-122376800D01*
X173787700Y-122376800D02*
X161143600Y-122376800D01*
X184430600Y-121869000D02*
X184430600Y-119882800D01*
X161143600Y-122376800D02*
X160398100Y-121631300D01*
X184057700Y-119509900D02*
X176654600Y-119509900D01*
X185950000Y-123388400D02*
X184430600Y-121869000D01*
X188454500Y-123388400D02*
X185950000Y-123388400D01*
X196110600Y-131044500D02*
X340814000Y-131044500D01*
X160398100Y-120014900D02*
X160443900Y-119969100D01*
X184430600Y-119882800D02*
X184057700Y-119509900D01*
X160398100Y-121631300D02*
X160398100Y-120014900D01*
X188454500Y-123388400D02*
X196110600Y-131044500D01*
%TO.N,/I2C_SDA*%
X197471700Y-130592600D02*
X190180000Y-123300900D01*
X248085100Y-129671400D02*
X247163900Y-130592600D01*
X247163900Y-130592600D02*
X197471700Y-130592600D01*
X368095500Y-129671400D02*
X248085100Y-129671400D01*
X376863000Y-120903900D02*
X368095500Y-129671400D01*
D53*
%TO.N,/NEG12V*%
X272820000Y-92015000D02*
X271818300Y-92015000D01*
X348214000Y-62870000D02*
X349215700Y-62870000D01*
X209303600Y-135763300D02*
X209987000Y-135763300D01*
X229124500Y-138816700D02*
X228665000Y-138816700D01*
X208355000Y-134814700D02*
X209303600Y-135763300D01*
X210059000Y-99760000D02*
X210059000Y-101286700D01*
X210059000Y-101286700D02*
X210171800Y-101286700D01*
X165090200Y-138997400D02*
X165090200Y-139416900D01*
D54*
X273820200Y-91769800D02*
X274056000Y-91769800D01*
D53*
X168628000Y-142000000D02*
X167673300Y-142000000D01*
X209375600Y-98233300D02*
X210059000Y-98233300D01*
X348214000Y-62870000D02*
X347212300Y-62870000D01*
X210171800Y-101286700D02*
X210285900Y-101400800D01*
X163457000Y-134814700D02*
X164405600Y-135763300D01*
X291983700Y-99635900D02*
X286441700Y-105177900D01*
X215481900Y-139659200D02*
X215071700Y-140069400D01*
X273575000Y-92015000D02*
X273820200Y-91769800D01*
X209987000Y-138816700D02*
X210486200Y-138816700D01*
X228665000Y-137290000D02*
X228665000Y-138816700D01*
X163457000Y-93813000D02*
X163457000Y-94814700D01*
X280075000Y-123866900D02*
X283296500Y-127088400D01*
X164405600Y-95763300D02*
X165089000Y-95763300D01*
X250895700Y-123866900D02*
X280075000Y-123866900D01*
X165233100Y-98960800D02*
X165233100Y-99167900D01*
X349215700Y-62870000D02*
X349215700Y-63195200D01*
X167673300Y-101608100D02*
X167673300Y-102000000D01*
X306249900Y-99635900D02*
X291983700Y-99635900D01*
X165089000Y-95763300D02*
X168460500Y-95763300D01*
X163457000Y-94814700D02*
X164405600Y-95763300D01*
X272820000Y-92015000D02*
X273575000Y-92015000D01*
X228739300Y-140144200D02*
X228665000Y-140069900D01*
X228665000Y-139659200D02*
X215481900Y-139659200D01*
X165090200Y-139416900D02*
X167673300Y-142000000D01*
X228665000Y-140069900D02*
X228665000Y-139659200D01*
X228737000Y-99760000D02*
X228737000Y-101286700D01*
X347212300Y-62870000D02*
X346278100Y-63804200D01*
X230485300Y-99997900D02*
X229196500Y-101286700D01*
X346278100Y-63804200D02*
X345864000Y-63804200D01*
X163457000Y-133813000D02*
X163457000Y-134814700D01*
X168460500Y-95763300D02*
X169108200Y-95115600D01*
X168628000Y-102000000D02*
X167673300Y-102000000D01*
X247721900Y-127040700D02*
X250895700Y-123866900D01*
X210059000Y-99760000D02*
X210059000Y-98233300D01*
D54*
X275870000Y-91365000D02*
X274460800Y-91365000D01*
D53*
X231437000Y-99760000D02*
X230485300Y-99760000D01*
X230413300Y-137290000D02*
X230413300Y-137527900D01*
X208355000Y-133813000D02*
X208355000Y-134814700D01*
X271818300Y-92015000D02*
X271701700Y-92131600D01*
X165233100Y-99167900D02*
X167673300Y-101608100D01*
X165089000Y-138996200D02*
X165090200Y-138997400D01*
X229196500Y-101286700D02*
X228737000Y-101286700D01*
X165089000Y-98816700D02*
X165233100Y-98960800D01*
X228737000Y-99760000D02*
X228737000Y-98233300D01*
X165089000Y-137290000D02*
X165089000Y-135763300D01*
X209987000Y-137290000D02*
X209987000Y-138816700D01*
X230413300Y-137527900D02*
X229124500Y-138816700D01*
X165089000Y-97290000D02*
X165089000Y-98816700D01*
X165089000Y-97290000D02*
X165089000Y-95763300D01*
X345864000Y-62320000D02*
X345864000Y-63804200D01*
D54*
X274056000Y-91769800D02*
X274460800Y-91365000D01*
D53*
X231365000Y-137290000D02*
X230413300Y-137290000D01*
X164405600Y-135763300D02*
X165089000Y-135763300D01*
X271701700Y-92131600D02*
X271701700Y-92348400D01*
X230485300Y-99760000D02*
X230485300Y-99997900D01*
X209987000Y-137290000D02*
X209987000Y-135763300D01*
X165089000Y-137290000D02*
X165089000Y-138996200D01*
X228737000Y-98233300D02*
X229283100Y-98233300D01*
X349215700Y-63195200D02*
X349321300Y-63300800D01*
X208427000Y-96283000D02*
X208427000Y-97284700D01*
X208427000Y-97284700D02*
X209375600Y-98233300D01*
X228665000Y-139659200D02*
X228665000Y-138816700D01*
%TO.N,/POS12V*%
X223871300Y-161000000D02*
X223860700Y-160989400D01*
X159845000Y-150595000D02*
X159845000Y-145863100D01*
X279745800Y-95889100D02*
X279745800Y-95175000D01*
X281230000Y-95175000D02*
X279745800Y-95175000D01*
X205549000Y-107396700D02*
X206249000Y-106696700D01*
X205622400Y-141173300D02*
X205453100Y-141004000D01*
X153383700Y-163500000D02*
X153892400Y-163500000D01*
X206249000Y-105170000D02*
X206249000Y-103541500D01*
X342054000Y-67680000D02*
X342054000Y-69164200D01*
X157186000Y-142922000D02*
X157186000Y-143923700D01*
X225159000Y-108398500D02*
X225159000Y-107645300D01*
X223860700Y-160989400D02*
X223756300Y-160989400D01*
X341475400Y-68944500D02*
X341226500Y-69193400D01*
X341475400Y-68944500D02*
X341695000Y-69164200D01*
X206177000Y-142700000D02*
X206177000Y-141173300D01*
X206409000Y-145175300D02*
X206177000Y-144943300D01*
X206177000Y-144943300D02*
X206177000Y-142700000D01*
X216886900Y-113714000D02*
X218125100Y-112475800D01*
X224855000Y-144943300D02*
X221059100Y-144943300D01*
X157186000Y-102922000D02*
X157186000Y-101920300D01*
X152988700Y-163895000D02*
X153383700Y-163500000D01*
X157300000Y-163500000D02*
X153892400Y-163500000D01*
X158673300Y-113000000D02*
X158505400Y-113167900D01*
D54*
X340674700Y-68241500D02*
X340723500Y-68192700D01*
D53*
X161279000Y-104226700D02*
X161106000Y-104399700D01*
X157933000Y-101173300D02*
X161279000Y-101173300D01*
X161279000Y-143923700D02*
X157186000Y-143923700D01*
X159628000Y-113000000D02*
X158673300Y-113000000D01*
D54*
X339222200Y-68529800D02*
X340368900Y-68529800D01*
D53*
X225159000Y-108398500D02*
X224371700Y-107611200D01*
X221059100Y-144943300D02*
X220421600Y-145580800D01*
X340657200Y-68241500D02*
X340674700Y-68241500D01*
X225159000Y-107645300D02*
X224927000Y-107413300D01*
X225159000Y-108647000D02*
X225159000Y-108398500D01*
X159845000Y-145863100D02*
X161368900Y-144339200D01*
X159845000Y-150595000D02*
X158890300Y-150595000D01*
X161279000Y-102700000D02*
X161279000Y-104226700D01*
X206249000Y-105170000D02*
X206249000Y-106696700D01*
X158890300Y-150595000D02*
X158735700Y-150595000D01*
X224855000Y-144943300D02*
X224855000Y-142700000D01*
X338454000Y-69298000D02*
X339222200Y-68529800D01*
X224826000Y-161000000D02*
X223871300Y-161000000D01*
X205549000Y-108770000D02*
X205549000Y-107396700D01*
X280480000Y-96623300D02*
X279745800Y-95889100D01*
D54*
X340368900Y-68529800D02*
X340657200Y-68241500D01*
D53*
X340723500Y-68192700D02*
X341475400Y-68944500D01*
X223871300Y-121000000D02*
X223733700Y-121000000D01*
X161279000Y-143923700D02*
X161279000Y-144249300D01*
X151187000Y-163895000D02*
X152988700Y-163895000D01*
X157186000Y-101920300D02*
X157933000Y-101173300D01*
X215976700Y-86820700D02*
X214256000Y-85100000D01*
X206409000Y-146177000D02*
X206409000Y-145175300D01*
X338454000Y-69530000D02*
X338454000Y-69298000D01*
X341695000Y-69164200D02*
X342054000Y-69164200D01*
X161279000Y-102700000D02*
X161279000Y-101173300D01*
X224826000Y-121000000D02*
X223871300Y-121000000D01*
X161279000Y-144249300D02*
X161368900Y-144339200D01*
X161279000Y-143923700D02*
X161279000Y-142700000D01*
X210564200Y-113714000D02*
X216886900Y-113714000D01*
X214256000Y-85100000D02*
X214256000Y-81938400D01*
X224927000Y-107413300D02*
X224927000Y-105170000D01*
X280480000Y-97625000D02*
X280480000Y-96623300D01*
X225087000Y-146177000D02*
X225087000Y-145175300D01*
X206177000Y-141173300D02*
X205622400Y-141173300D01*
X225087000Y-145175300D02*
X224855000Y-144943300D01*
D50*
%TO.N,/AUDIO_OUT_R*%
X278664000Y-144727100D02*
X288573600Y-144727100D01*
X277219400Y-143282500D02*
X278664000Y-144727100D01*
%TO.N,/GATE_OUT_1*%
X151390200Y-62895000D02*
X153096200Y-61189000D01*
X153096200Y-61189000D02*
X159606700Y-61189000D01*
%TO.N,/GATE_OUT_2*%
X170415100Y-150595000D02*
X170415100Y-151233200D01*
X169905200Y-112541900D02*
X170198100Y-112834800D01*
X170415100Y-151233200D02*
X170249800Y-151398500D01*
X170198100Y-112834800D02*
X170198100Y-113000000D01*
X170928000Y-113000000D02*
X170198100Y-113000000D01*
X171145000Y-150595000D02*
X170415100Y-150595000D01*
%TO.N,/BBD_TIMEHI_L*%
X161128000Y-113000000D02*
X161128000Y-112241100D01*
X161128000Y-112241100D02*
X160851700Y-111964800D01*
%TO.N,/LPG_ENV*%
X133146800Y-59754300D02*
X157090000Y-59754300D01*
X251150000Y-161964400D02*
X251899400Y-161215000D01*
X251899400Y-161215000D02*
X341261300Y-161215000D01*
X341261300Y-161215000D02*
X343171300Y-159305000D01*
X354655000Y-159305000D02*
X355925000Y-158035000D01*
X343171300Y-159305000D02*
X354655000Y-159305000D01*
X129856100Y-63045000D02*
X133146800Y-59754300D01*
%TO.N,/BBD_TIMEW_L*%
X190548300Y-105832800D02*
X191247400Y-106531900D01*
X160870200Y-109676100D02*
X173116600Y-109676100D01*
X159628000Y-121000000D02*
X158898100Y-121000000D01*
X158898100Y-121000000D02*
X157728600Y-119830500D01*
X191247400Y-106531900D02*
X196127300Y-106531900D01*
X157728600Y-119830500D02*
X157728600Y-112817700D01*
X173116600Y-109676100D02*
X176959900Y-105832800D01*
X157728600Y-112817700D02*
X160870200Y-109676100D01*
X176959900Y-105832800D02*
X190548300Y-105832800D01*
%TO.N,/BTN4*%
X128076000Y-145113000D02*
X128076000Y-150193000D01*
%TO.N,/LPG_RES_L*%
X209648000Y-90681000D02*
X211021100Y-89307900D01*
X234770900Y-83464500D02*
X270814500Y-83464500D01*
X270814500Y-83464500D02*
X271108000Y-83171000D01*
X228927500Y-89307900D02*
X234770900Y-83464500D01*
X211021100Y-89307900D02*
X228927500Y-89307900D01*
%TO.N,/LPG_SUM_R*%
X217298300Y-149184000D02*
X217887100Y-149184000D01*
X217887100Y-149184000D02*
X218191100Y-149488000D01*
X219168000Y-149488000D02*
X218191100Y-149488000D01*
%TO.N,/LPG_MID_R*%
X250911800Y-146278200D02*
X263631800Y-146278200D01*
X248650000Y-148540000D02*
X250911800Y-146278200D01*
X263631800Y-146278200D02*
X266450000Y-143460000D01*
%TO.N,/LPG_LDR_R*%
X219974400Y-150655600D02*
X208686400Y-150655600D01*
X220665100Y-149964900D02*
X219974400Y-150655600D01*
X208686400Y-150655600D02*
X206465500Y-148434700D01*
X221310400Y-147914000D02*
X220665100Y-148559300D01*
X220665100Y-148559300D02*
X220665100Y-149964900D01*
X225100900Y-147914000D02*
X221310400Y-147914000D01*
%TO.N,/BBD_TIMELO_L*%
X160357900Y-116452600D02*
X160357900Y-117000000D01*
X161508400Y-115302100D02*
X160357900Y-116452600D01*
X165103600Y-115302100D02*
X161508400Y-115302100D01*
X159628000Y-117000000D02*
X160357900Y-117000000D01*
%TO.N,/BBD_TIMEHI_R*%
X161345000Y-150595000D02*
X162074900Y-150595000D01*
X162074900Y-150595000D02*
X162074900Y-149612000D01*
%TO.N,/BBD_TIMEW_R*%
X159845000Y-159590300D02*
X159884900Y-159630200D01*
X159845000Y-158595000D02*
X159845000Y-159590300D01*
%TO.N,/BBD_TIMELO_R*%
X159845000Y-154595000D02*
X160574900Y-154595000D01*
X160574900Y-153675400D02*
X160602900Y-153647400D01*
X160574900Y-154595000D02*
X160574900Y-153675400D01*
%TO.N,/BBD_FB_L*%
X168628000Y-98000000D02*
X168628000Y-96948100D01*
%TO.N,/EXT_IN_R*%
X293945000Y-82115100D02*
X292963900Y-82115100D01*
X293945000Y-82845000D02*
X293945000Y-82115100D01*
D55*
%TO.N,/VBUS*%
X366170000Y-65945000D02*
X366170000Y-69770000D01*
D56*
X364795000Y-62495000D02*
X365745000Y-61545000D01*
X364845200Y-64321800D02*
X364795000Y-64271600D01*
D55*
X364845200Y-64620200D02*
X366170000Y-65945000D01*
D56*
X364795000Y-63120000D02*
X364795000Y-62495000D01*
X364795000Y-63120000D02*
X364795000Y-64271600D01*
X364845200Y-64620200D02*
X364845200Y-64321800D01*
D55*
%TO.N,/VBUS_F*%
X363088300Y-78270000D02*
X361763300Y-76945000D01*
X360915000Y-76945000D02*
X360915000Y-74568800D01*
X360915000Y-74568800D02*
X362470000Y-73013800D01*
X364845000Y-78270000D02*
X363088300Y-78270000D01*
X362470000Y-73013800D02*
X369426200Y-73013800D01*
X361763300Y-76945000D02*
X360915000Y-76945000D01*
X362470000Y-73013800D02*
X362470000Y-72571200D01*
D56*
X369426200Y-73013800D02*
X369895000Y-72545000D01*
D55*
X362470000Y-69770000D02*
X362470000Y-72571200D01*
X360915000Y-76945000D02*
X360915000Y-78596700D01*
D53*
%TO.N,/NEG12V_RAW*%
X292943700Y-114433900D02*
X297099400Y-114433900D01*
X283996500Y-105486700D02*
X292943700Y-114433900D01*
D50*
%TO.N,/CC1*%
X359224900Y-62420000D02*
X359505600Y-62420000D01*
X358495000Y-62420000D02*
X359224900Y-62420000D01*
%TO.N,/CC2*%
X363820100Y-60745000D02*
X362668100Y-61897000D01*
X354520000Y-65095000D02*
X359470100Y-65095000D01*
X370520000Y-60745000D02*
X363820100Y-60745000D01*
X359470100Y-65095000D02*
X362668100Y-61897000D01*
%TO.N,/BBD_WETAC_L*%
X238546100Y-104470000D02*
X238267100Y-104749000D01*
X239276000Y-104470000D02*
X238546100Y-104470000D01*
X241339000Y-95155100D02*
X241026000Y-95468100D01*
X241026000Y-96470000D02*
X241026000Y-95468100D01*
%TO.N,/BBD_FB_R*%
X168628000Y-136929700D02*
X168628000Y-138000000D01*
%TO.N,/BBD_WETAC_R*%
X239204000Y-140951400D02*
X239204000Y-142000000D01*
X242229300Y-133756600D02*
X242288600Y-133756600D01*
X240954000Y-134000000D02*
X241985900Y-134000000D01*
X241985900Y-134000000D02*
X242229300Y-133756600D01*
%TO.N,/BBD_DRY_L*%
X230305700Y-93109900D02*
X251219100Y-93109900D01*
X226197000Y-99760000D02*
X226197000Y-101061900D01*
X209189122Y-91806000D02*
X209003122Y-91620000D01*
X153173100Y-94347000D02*
X153520100Y-94000000D01*
X209003122Y-91620000D02*
X156630000Y-91620000D01*
X154250000Y-94000000D02*
X153520100Y-94000000D01*
X224927000Y-99760000D02*
X224927000Y-101061900D01*
X226197000Y-101061900D02*
X224927000Y-101061900D01*
X224927000Y-99760000D02*
X224927000Y-98633300D01*
X224927000Y-98488600D02*
X218058400Y-91620000D01*
X251219100Y-93109900D02*
X253648000Y-90681000D01*
X224927000Y-98488600D02*
X230305700Y-93109900D01*
X156630000Y-91620000D02*
X154250000Y-94000000D01*
X218058400Y-91620000D02*
X217872400Y-91806000D01*
X152280000Y-94347000D02*
X153173100Y-94347000D01*
X217872400Y-91806000D02*
X209189122Y-91806000D01*
X224927000Y-98488600D02*
X224927000Y-98633300D01*
%TO.N,/BBD_MIXW_L*%
X165089000Y-102700000D02*
X165850100Y-103461100D01*
X165850100Y-103461100D02*
X168456200Y-103461100D01*
%TO.N,/BBD_DRY_R*%
X153173100Y-134347000D02*
X153520100Y-134000000D01*
X226125000Y-137290000D02*
X226125000Y-135756300D01*
X154250000Y-134000000D02*
X153520100Y-134000000D01*
X226125000Y-135756300D02*
X226931400Y-134949900D01*
X152280000Y-134347000D02*
X153173100Y-134347000D01*
X224855000Y-137290000D02*
X224855000Y-138591900D01*
X226931400Y-134949900D02*
X230223800Y-134949900D01*
X226125000Y-137290000D02*
X226125000Y-138591900D01*
X226125000Y-138591900D02*
X224855000Y-138591900D01*
%TO.N,/BBD_MIXW_R*%
X165731700Y-144001900D02*
X165735800Y-143997800D01*
X165089000Y-144001900D02*
X165731700Y-144001900D01*
X165089000Y-142700000D02*
X165089000Y-144001900D01*
D51*
%TO.N,/P5V_BBD*%
X179975000Y-121950700D02*
X180122200Y-121950700D01*
X191078000Y-93520000D02*
X190226300Y-93520000D01*
X180122200Y-121950700D02*
X180155000Y-121983500D01*
X163843300Y-162892500D02*
X163843300Y-163500000D01*
X180122200Y-161950700D02*
X180155000Y-161983500D01*
X153097700Y-159295000D02*
X157995400Y-159295000D01*
X179975000Y-160700000D02*
X179975000Y-161950700D01*
X180155000Y-124885700D02*
X183736300Y-128467000D01*
X163205000Y-154595000D02*
X163205000Y-153384100D01*
X188098000Y-132380000D02*
X186566000Y-130848000D01*
X180155000Y-163082300D02*
X180155000Y-161983500D01*
X162061300Y-117000000D02*
X162061300Y-118030000D01*
X157995400Y-159295000D02*
X161300000Y-162599600D01*
X179975000Y-160700000D02*
X179618800Y-161056200D01*
X180155000Y-121983500D02*
X182492200Y-121983500D01*
X186566000Y-130848000D02*
X186566000Y-128467000D01*
X180155000Y-123984000D02*
X180155000Y-124885700D01*
X179975000Y-161950700D02*
X180122200Y-161950700D01*
X161300000Y-163500000D02*
X161300000Y-162599600D01*
X182525000Y-120700000D02*
X182525000Y-121950700D01*
X189673300Y-132380000D02*
X191293300Y-134000000D01*
X180155000Y-161983500D02*
X182492200Y-161983500D01*
X169211500Y-115771900D02*
X169412900Y-115973300D01*
X183736300Y-128467000D02*
X186566000Y-128467000D01*
D57*
X161300000Y-162599600D02*
X163550400Y-162599600D01*
D51*
X182525000Y-121950700D02*
X182713400Y-122139100D01*
X189446300Y-94300000D02*
X189446300Y-94551000D01*
X192220000Y-96470000D02*
X191365300Y-96470000D01*
X179618800Y-161056200D02*
X179038600Y-161056200D01*
X189446300Y-94300000D02*
X190226300Y-93520000D01*
X169988000Y-117000000D02*
X169988000Y-115973300D01*
X192148000Y-134000000D02*
X191293300Y-134000000D01*
X163550400Y-162599600D02*
X163843300Y-162892500D01*
X170205000Y-154595000D02*
X171131700Y-154595000D01*
X165000000Y-163500000D02*
X163843300Y-163500000D01*
X182525000Y-160700000D02*
X182525000Y-161950700D01*
X180155000Y-123984000D02*
X180155000Y-123082300D01*
X179975000Y-120700000D02*
X179975000Y-121950700D01*
X162988000Y-117000000D02*
X162061300Y-117000000D01*
X182492200Y-121983500D02*
X182525000Y-121950700D01*
X188098000Y-132380000D02*
X189673300Y-132380000D01*
X169412900Y-115973300D02*
X169988000Y-115973300D01*
X171131700Y-154595000D02*
X171306900Y-154595000D01*
X187855000Y-94300000D02*
X189446300Y-94300000D01*
X182492200Y-161983500D02*
X182525000Y-161950700D01*
X180155000Y-163984000D02*
X180155000Y-163082300D01*
X180155000Y-123082300D02*
X180155000Y-121983500D01*
X189446300Y-94551000D02*
X191365300Y-96470000D01*
D50*
%TO.N,/BBD_VGG_L*%
X192220000Y-100470000D02*
X192220000Y-101228900D01*
X193720000Y-96470000D02*
X192990100Y-96470000D01*
X191970000Y-104470000D02*
X191970000Y-101478900D01*
X191970000Y-105471900D02*
X191813900Y-105471900D01*
X192949900Y-100470000D02*
X192949900Y-96510200D01*
X191813900Y-105471900D02*
X191524900Y-105760900D01*
X191970000Y-101478900D02*
X192220000Y-101228900D01*
X191970000Y-104470000D02*
X191970000Y-105471900D01*
X192949900Y-96510200D02*
X192990100Y-96470000D01*
X192220000Y-100470000D02*
X192949900Y-100470000D01*
%TO.N,/BBD_AC_L*%
X199220000Y-104470000D02*
X199220000Y-103221900D01*
X200970000Y-100470000D02*
X200970000Y-101471900D01*
X200970000Y-100470000D02*
X200970000Y-99193600D01*
X208789000Y-99469900D02*
X207363800Y-98044700D01*
X199220000Y-103221900D02*
X200970000Y-101471900D01*
X208789000Y-99760000D02*
X208789000Y-99469900D01*
X200970000Y-99193600D02*
X200971600Y-99192000D01*
%TO.N,/BBD_RAW_L*%
X199220000Y-96470000D02*
X199220000Y-97228900D01*
X199220000Y-96470000D02*
X198490100Y-96470000D01*
X199220000Y-97228900D02*
X198970000Y-97478900D01*
X198490100Y-96470000D02*
X198210800Y-96749300D01*
X198210800Y-96749300D02*
X198196700Y-96749300D01*
X198970000Y-97478900D02*
X198970000Y-100470000D01*
%TO.N,/BBD_C1B_L*%
X187595000Y-113300000D02*
X187595000Y-114425900D01*
X191298900Y-114425900D02*
X187595000Y-114425900D01*
X193873000Y-117000000D02*
X191298900Y-114425900D01*
%TO.N,/BTN6*%
X128076000Y-157813000D02*
X128076000Y-162893000D01*
%TO.N,/TIME_CV*%
X189114700Y-149801100D02*
X190873200Y-151559600D01*
X172015500Y-114832600D02*
X172084100Y-114764000D01*
X167699200Y-112709100D02*
X169822700Y-114832600D01*
X163928000Y-111730000D02*
X166915600Y-111730000D01*
X169822700Y-114832600D02*
X172015500Y-114832600D01*
X164145000Y-150595000D02*
X164874900Y-150595000D01*
X164874900Y-150595000D02*
X164874900Y-150047600D01*
X165121400Y-149801100D02*
X189114700Y-149801100D01*
X163201000Y-111003000D02*
X163928000Y-111730000D01*
X163415100Y-150595000D02*
X163120600Y-150595000D01*
X164145000Y-150595000D02*
X163415100Y-150595000D01*
X163928000Y-111730000D02*
X163928000Y-113000000D01*
X167699200Y-112513600D02*
X167699200Y-112709100D01*
X164874900Y-150047600D02*
X165121400Y-149801100D01*
X166915600Y-111730000D02*
X167699200Y-112513600D01*
%TO.N,/BBD_TRIGIN_L*%
X229445000Y-107179900D02*
X229445000Y-112895000D01*
X224826000Y-117000000D02*
X225555900Y-117000000D01*
X228737000Y-105170000D02*
X228737000Y-106471900D01*
X226325300Y-116014700D02*
X225940500Y-116014700D01*
X228737000Y-106471900D02*
X229445000Y-107179900D01*
X225940500Y-116014700D02*
X225555900Y-116399300D01*
X225555900Y-116399300D02*
X225555900Y-117000000D01*
X229445000Y-112895000D02*
X226325300Y-116014700D01*
%TO.N,/BBD_CLK_L*%
X182525000Y-113300000D02*
X182525000Y-114425900D01*
X183641500Y-111141500D02*
X206534700Y-111141500D01*
X219090700Y-110237000D02*
X220485500Y-110237000D01*
X181845000Y-109345000D02*
X183641500Y-111141500D01*
X220485500Y-110237000D02*
X223143500Y-112895000D01*
X223143500Y-112895000D02*
X228045000Y-112895000D01*
X181845000Y-109345000D02*
X182525000Y-110025000D01*
X182525000Y-110025000D02*
X182525000Y-113300000D01*
X183795000Y-113300000D02*
X183795000Y-114425900D01*
X216533800Y-112793900D02*
X219090700Y-110237000D01*
X208187100Y-112793900D02*
X216533800Y-112793900D01*
X183795000Y-114425900D02*
X182525000Y-114425900D01*
X206534700Y-111141500D02*
X208187100Y-112793900D01*
%TO.N,/BBD_SH_HOLD_L*%
X210059000Y-105170000D02*
X210059000Y-103868100D01*
X212455200Y-101471900D02*
X213348000Y-101471900D01*
X213348000Y-100470000D02*
X213348000Y-98250900D01*
X213348000Y-98250900D02*
X215299000Y-96299900D01*
X210059000Y-103868100D02*
X212455200Y-101471900D01*
X213348000Y-100470000D02*
X213348000Y-101471900D01*
X215299000Y-95648000D02*
X215299000Y-96299900D01*
%TO.N,/BBD_WET_L*%
X207519000Y-106471900D02*
X207675100Y-106471900D01*
X216395000Y-108182200D02*
X216395000Y-110945000D01*
X207675100Y-106471900D02*
X207944700Y-106741500D01*
X239026000Y-97471900D02*
X238745800Y-97752100D01*
X239026000Y-96470000D02*
X239026000Y-97471900D01*
X207519000Y-105170000D02*
X207519000Y-106471900D01*
%TO.N,/BBD_VGG_R*%
X191898000Y-142000000D02*
X191898000Y-143105900D01*
X192877900Y-138000000D02*
X192877900Y-134040200D01*
X191898000Y-142000000D02*
X191898000Y-139008900D01*
X192148000Y-138000000D02*
X192877900Y-138000000D01*
X192148000Y-138000000D02*
X192148000Y-138758900D01*
X193648000Y-134000000D02*
X192918100Y-134000000D01*
X191898000Y-139008900D02*
X192148000Y-138758900D01*
X192877900Y-134040200D02*
X192918100Y-134000000D01*
X191898000Y-143105900D02*
X191709800Y-143294100D01*
%TO.N,/BBD_AC_R*%
X200898000Y-138000000D02*
X201929900Y-138000000D01*
X208717000Y-137290000D02*
X208717000Y-138591900D01*
X200898000Y-138000000D02*
X200898000Y-139001900D01*
D52*
X207758900Y-139083000D02*
X207758900Y-138987400D01*
D50*
X207758900Y-139083000D02*
X203012900Y-139083000D01*
X199148000Y-142000000D02*
X199877900Y-142000000D01*
X200898000Y-139001900D02*
X199877900Y-140022000D01*
X208154400Y-138591900D02*
X208717000Y-138591900D01*
X199877900Y-140022000D02*
X199877900Y-142000000D01*
X203012900Y-139083000D02*
X201929900Y-138000000D01*
D52*
X207758900Y-138987400D02*
X208154400Y-138591900D01*
D50*
%TO.N,/BBD_RAW_R*%
X199148000Y-134000000D02*
X199148000Y-134758900D01*
X197132100Y-132714000D02*
X194695600Y-132714000D01*
X198898000Y-135008900D02*
X198898000Y-138000000D01*
X198418100Y-134000000D02*
X197132100Y-132714000D01*
X199148000Y-134758900D02*
X198898000Y-135008900D01*
X199148000Y-134000000D02*
X198418100Y-134000000D01*
%TO.N,/BBD_C1B_R*%
X187595000Y-153300000D02*
X187595000Y-154425900D01*
X187595000Y-154425900D02*
X188319800Y-154425900D01*
X188319800Y-154425900D02*
X188615000Y-154721100D01*
X194880800Y-157159000D02*
X194758900Y-157159000D01*
X194758900Y-157159000D02*
X194599900Y-157000000D01*
X193873000Y-157000000D02*
X194599900Y-157000000D01*
%TO.N,/BBD_TRIGIN_R*%
X226276000Y-153000000D02*
X227002900Y-153000000D01*
X226276000Y-153000000D02*
X226276000Y-153776900D01*
X225555900Y-154497000D02*
X226276000Y-153776900D01*
X228665000Y-142700000D02*
X228665000Y-144001900D01*
X224826000Y-157000000D02*
X225555900Y-157000000D01*
X225555900Y-157000000D02*
X225555900Y-154497000D01*
X227002900Y-153000000D02*
X227291100Y-153000000D01*
X228943700Y-144280600D02*
X228665000Y-144001900D01*
%TO.N,/BBD_CLK_R*%
X183795000Y-153300000D02*
X183795000Y-152174100D01*
X190299800Y-152174100D02*
X192887000Y-154761300D01*
X176570000Y-156845000D02*
X180105900Y-156845000D01*
X222387800Y-154761300D02*
X224149100Y-153000000D01*
X224876000Y-153000000D02*
X224149100Y-153000000D01*
X183795000Y-152174100D02*
X190299800Y-152174100D01*
X182525000Y-153300000D02*
X182525000Y-154425900D01*
X183795000Y-153300000D02*
X183795000Y-154425900D01*
X192887000Y-154761300D02*
X222387800Y-154761300D01*
X180105900Y-156845000D02*
X182525000Y-154425900D01*
X183795000Y-154425900D02*
X182525000Y-154425900D01*
%TO.N,/BBD_SH_HOLD_R*%
X213276000Y-138000000D02*
X213276000Y-136998100D01*
X213276000Y-138000000D02*
X213276000Y-139001900D01*
X213879800Y-136998100D02*
X215276000Y-135601900D01*
X210879800Y-141398100D02*
X213276000Y-139001900D01*
X213276000Y-136998100D02*
X213879800Y-136998100D01*
X209987000Y-141398100D02*
X210879800Y-141398100D01*
X215276000Y-134950000D02*
X215276000Y-135601900D01*
X209987000Y-142700000D02*
X209987000Y-141398100D01*
%TO.N,/BBD_WET_R*%
X218596100Y-146598300D02*
X218596100Y-146000000D01*
X217280400Y-147914000D02*
X218596100Y-146598300D01*
X228463800Y-140967400D02*
X227849600Y-140353200D01*
X207447000Y-142700000D02*
X207447000Y-141398100D01*
X238954000Y-134000000D02*
X238954000Y-135001900D01*
X219326000Y-143623300D02*
X219326000Y-146000000D01*
X238954000Y-135001900D02*
X232988500Y-140967400D01*
X208115600Y-140925600D02*
X207643100Y-141398100D01*
X222596100Y-140353200D02*
X219326000Y-143623300D01*
X232988500Y-140967400D02*
X228463800Y-140967400D01*
X207643100Y-141398100D02*
X207447000Y-141398100D01*
X227849600Y-140353200D02*
X222596100Y-140353200D01*
X219326000Y-146000000D02*
X218596100Y-146000000D01*
%TO.N,/BBD_VCOCV_L*%
X187947300Y-117256500D02*
X187521500Y-116830700D01*
X187521500Y-116830700D02*
X186495300Y-116830700D01*
X173837000Y-119018700D02*
X170953900Y-121901800D01*
X165428000Y-113000000D02*
X165428000Y-113758900D01*
X163389000Y-121000000D02*
X163789900Y-121000000D01*
X165872800Y-115856800D02*
X165872800Y-114203700D01*
X170953900Y-121901900D02*
X164691800Y-121901900D01*
X165872800Y-114203700D02*
X165428000Y-113758900D01*
X170953900Y-121901800D02*
X170953900Y-121901900D01*
X163789900Y-118776200D02*
X165566100Y-117000000D01*
X164691800Y-121901900D02*
X163789900Y-121000000D01*
X165566100Y-116163500D02*
X165872800Y-115856800D01*
X188875000Y-120700000D02*
X188875000Y-119574100D01*
X187947300Y-118646400D02*
X187947300Y-117256500D01*
X163789900Y-121000000D02*
X163789900Y-118776200D01*
X162988000Y-121000000D02*
X163389000Y-121000000D01*
X184307300Y-119018700D02*
X173837000Y-119018700D01*
X166368000Y-117000000D02*
X165566100Y-117000000D01*
X165566100Y-117000000D02*
X165566100Y-116163500D01*
X162988000Y-121000000D02*
X161128000Y-121000000D01*
X186495300Y-116830700D02*
X184307300Y-119018700D01*
X188875000Y-119574100D02*
X187947300Y-118646400D01*
%TO.N,/BBD_INH_L*%
X173368000Y-117000000D02*
X173368000Y-113210100D01*
X173952000Y-118485900D02*
X182230600Y-118485900D01*
X173368000Y-113210100D02*
X173157900Y-113000000D01*
X185055000Y-115661500D02*
X185055000Y-113300000D01*
X173368000Y-117901900D02*
X173952000Y-118485900D01*
X173368000Y-117000000D02*
X173368000Y-117901900D01*
X173368000Y-118421900D02*
X173368000Y-117901900D01*
X170789900Y-121000000D02*
X173368000Y-118421900D01*
X182230600Y-118485900D02*
X185055000Y-115661500D01*
X172428000Y-113000000D02*
X173157900Y-113000000D01*
X169988000Y-121000000D02*
X170789900Y-121000000D01*
%TO.N,/BBD_SH_G_L*%
X213836900Y-106610300D02*
X213836900Y-110945000D01*
X214368100Y-106079100D02*
X213836900Y-106610300D01*
X215098000Y-104470000D02*
X214368100Y-104470000D01*
X213035000Y-110945000D02*
X213836900Y-110945000D01*
X213299000Y-94698000D02*
X213299000Y-93765700D01*
X214368100Y-106079100D02*
X214368100Y-104470000D01*
%TO.N,/BBD_TRIG_L*%
X209655000Y-110945000D02*
X210056000Y-110945000D01*
X216328700Y-112319000D02*
X211430000Y-112319000D01*
X218202100Y-110214500D02*
X218202100Y-110445600D01*
X224611300Y-103805300D02*
X218202100Y-110214500D01*
X218202100Y-110445600D02*
X216328700Y-112319000D01*
X211430000Y-112319000D02*
X210056000Y-110945000D01*
X226197000Y-103868100D02*
X226134200Y-103805300D01*
X226134200Y-103805300D02*
X224611300Y-103805300D01*
X226197000Y-105170000D02*
X226197000Y-103868100D01*
%TO.N,/BBD_VCOCV_R*%
X165783100Y-154595000D02*
X165783100Y-151492000D01*
X163205000Y-157173100D02*
X165783100Y-154595000D01*
X165645000Y-150595000D02*
X165645000Y-151353900D01*
X163205000Y-158595000D02*
X163205000Y-159496900D01*
X188875000Y-160700000D02*
X188875000Y-161825900D01*
X163205000Y-158595000D02*
X163205000Y-157173100D01*
X162996700Y-159496900D02*
X163205000Y-159496900D01*
X166585000Y-154595000D02*
X165783100Y-154595000D01*
X163205000Y-158595000D02*
X161345000Y-158595000D01*
X165783100Y-151492000D02*
X165645000Y-151353900D01*
X188576000Y-162124900D02*
X188875000Y-161825900D01*
X162720400Y-159773200D02*
X162996700Y-159496900D01*
%TO.N,/BBD_INH_R*%
X171006900Y-158595000D02*
X171006900Y-156539500D01*
X172951400Y-154595000D02*
X174160900Y-153385500D01*
X172951400Y-154595000D02*
X172783100Y-154595000D01*
X173585000Y-154595000D02*
X172951400Y-154595000D01*
X172645000Y-150595000D02*
X172645000Y-151353900D01*
X185055000Y-153300000D02*
X185055000Y-154425900D01*
X170205000Y-158595000D02*
X171006900Y-158595000D01*
X185055000Y-154425900D02*
X184834500Y-154646400D01*
X172783100Y-154595000D02*
X172783100Y-151492000D01*
X171006900Y-156539500D02*
X172951400Y-154595000D01*
X184834500Y-154646400D02*
X184834500Y-154719500D01*
X172783100Y-151492000D02*
X172645000Y-151353900D01*
%TO.N,/BBD_SH_G_R*%
X215026000Y-142000000D02*
X215755900Y-142000000D01*
X215164100Y-146000000D02*
X215164100Y-142897000D01*
X215164100Y-142897000D02*
X215026000Y-142758900D01*
X215966000Y-146000000D02*
X215164100Y-146000000D01*
X215755900Y-142000000D02*
X216058300Y-142000000D01*
X215026000Y-142000000D02*
X215026000Y-142758900D01*
X213276000Y-133048600D02*
X213276000Y-134000000D01*
%TO.N,/BBD_TRIG_R*%
X213387900Y-146000000D02*
X213387900Y-145760800D01*
X226125000Y-142700000D02*
X226125000Y-141398100D01*
X212586000Y-146000000D02*
X213387900Y-146000000D01*
X213387900Y-145760800D02*
X213676600Y-145472100D01*
X226431600Y-141091500D02*
X226431600Y-141082000D01*
X226125000Y-141398100D02*
X226431600Y-141091500D01*
%TO.N,/BBD_SH_IN_L*%
X207519000Y-101061900D02*
X206249000Y-101061900D01*
X206249000Y-99760000D02*
X206249000Y-101061900D01*
X215217500Y-94399900D02*
X213976600Y-95640800D01*
X215299000Y-93748000D02*
X215299000Y-94399900D01*
X207519000Y-101061900D02*
X207519000Y-101310400D01*
X207519000Y-99760000D02*
X207519000Y-101061900D01*
X213598000Y-103711100D02*
X213458100Y-103711100D01*
X213458100Y-103711100D02*
X213160300Y-103413300D01*
X207519000Y-101310400D02*
X207798900Y-101590300D01*
X215299000Y-94399900D02*
X215217500Y-94399900D01*
X213598000Y-104470000D02*
X213598000Y-103711100D01*
%TO.N,/BBD_SH_IN_R*%
X207447000Y-137290000D02*
X207447000Y-135988100D01*
X213636200Y-134938000D02*
X214872300Y-133701900D01*
X207447000Y-137290000D02*
X207447000Y-138591900D01*
X207196500Y-135737600D02*
X207447000Y-135988100D01*
X214255900Y-142000000D02*
X214255900Y-141004300D01*
X206177000Y-137290000D02*
X206177000Y-138591900D01*
X207196500Y-135698000D02*
X207196500Y-135737600D01*
X207447000Y-138591900D02*
X206177000Y-138591900D01*
X213526000Y-142000000D02*
X214255900Y-142000000D01*
X214872300Y-133701900D02*
X215276000Y-133701900D01*
X215276000Y-133050000D02*
X215276000Y-133701900D01*
%TO.N,/BBD_GAIN_L*%
X168628000Y-94000000D02*
X167898100Y-94000000D01*
X156479900Y-94000000D02*
X156964500Y-94000000D01*
X155750000Y-94000000D02*
X156479900Y-94000000D01*
X167898100Y-94000000D02*
X167622800Y-94000000D01*
X156964500Y-94000000D02*
X157174700Y-94210200D01*
%TO.N,/BBD_IN_L*%
X150935700Y-101503200D02*
X147979900Y-98547400D01*
X147250000Y-98000000D02*
X147979900Y-98000000D01*
X147979900Y-98547400D02*
X147979900Y-98000000D01*
X147250000Y-98000000D02*
X147250000Y-94000000D01*
%TO.N,/BBD_INF_L*%
X226543200Y-98458100D02*
X226264300Y-98179200D01*
X148750000Y-94000000D02*
X149479900Y-94000000D01*
X227467000Y-98458100D02*
X226543200Y-98458100D01*
X149479900Y-94000000D02*
X149776500Y-94000000D01*
X227467000Y-99760000D02*
X227467000Y-98458100D01*
%TO.N,/BBD_SUM_L*%
X169357900Y-106000000D02*
X169357900Y-102770100D01*
X170396300Y-95769200D02*
X170396300Y-95027200D01*
X170128000Y-94000000D02*
X170128000Y-94758900D01*
X170128000Y-96037500D02*
X170396300Y-95769200D01*
X168628000Y-106000000D02*
X169357900Y-106000000D01*
X170396300Y-95027200D02*
X170128000Y-94758900D01*
X162549000Y-97290000D02*
X162549000Y-98591900D01*
X162549000Y-98591900D02*
X162838800Y-98881700D01*
X170128000Y-98000000D02*
X170128000Y-96037500D01*
X170128000Y-98000000D02*
X170128000Y-102000000D01*
X169357900Y-102770100D02*
X170128000Y-102000000D01*
%TO.N,/BBD_SIGIN_L*%
X161279000Y-95701600D02*
X161279000Y-97290000D01*
X172128000Y-106000000D02*
X170128000Y-106000000D01*
%TO.N,/BBD_VCOR2_L*%
X190867200Y-121825900D02*
X191693100Y-121000000D01*
X185055000Y-120700000D02*
X185055000Y-121825900D01*
X192423000Y-121000000D02*
X191693100Y-121000000D01*
X185055000Y-121825900D02*
X190867200Y-121825900D01*
%TO.N,/BBD_VCOR1_L*%
X193828400Y-114399700D02*
X195228100Y-113000000D01*
X195228100Y-113000000D02*
X196723000Y-113000000D01*
X186325000Y-118453000D02*
X187220400Y-117557600D01*
X186325000Y-120700000D02*
X186325000Y-118453000D01*
%TO.N,/BBD_TRIGREF_L*%
X227467000Y-105170000D02*
X227467000Y-106471900D01*
X231263600Y-115303500D02*
X226326000Y-120241100D01*
X227771000Y-106775900D02*
X227467000Y-106471900D01*
X226326000Y-121000000D02*
X226326000Y-120241100D01*
X231263600Y-112895000D02*
X231263600Y-115303500D01*
X232295000Y-112895000D02*
X231565100Y-112895000D01*
X231565100Y-112895000D02*
X231263600Y-112895000D01*
%TO.N,/BBD_SH_FB_L*%
X208789000Y-108252500D02*
X208789000Y-106471900D01*
X208789000Y-105170000D02*
X208789000Y-106471900D01*
X215624900Y-110945000D02*
X215624900Y-106013200D01*
X212402100Y-111865600D02*
X208789000Y-108252500D01*
X214895000Y-110945000D02*
X213974400Y-111865600D01*
X217898000Y-104470000D02*
X217168100Y-104470000D01*
X215624900Y-106013200D02*
X217168100Y-104470000D01*
X213974400Y-111865600D02*
X212402100Y-111865600D01*
X214895000Y-110945000D02*
X215624900Y-110945000D01*
%TO.N,/BBD_OUT_L*%
X352821900Y-60495000D02*
X353097900Y-60495000D01*
X310215100Y-77095000D02*
X309926800Y-77095000D01*
X241505900Y-100470000D02*
X244479600Y-97496300D01*
X244479600Y-97496300D02*
X270242200Y-97496300D01*
X310945000Y-77095000D02*
X310215100Y-77095000D01*
X240776000Y-100470000D02*
X241505900Y-100470000D01*
X351820000Y-60495000D02*
X352821900Y-60495000D01*
X353097900Y-60495000D02*
X353099500Y-60493400D01*
%TO.N,/BBD_MIX_L*%
X162549000Y-104001900D02*
X163819000Y-104001900D01*
X163819000Y-102700000D02*
X163819000Y-103888500D01*
X164040400Y-104221800D02*
X167683300Y-104221800D01*
X163819000Y-104000400D02*
X164040400Y-104221800D01*
X238546100Y-100470000D02*
X238253100Y-100470000D01*
X162549000Y-102700000D02*
X162549000Y-104001900D01*
X239276000Y-100470000D02*
X238546100Y-100470000D01*
X163819000Y-104000400D02*
X163819000Y-104001900D01*
X163819000Y-103888500D02*
X163819000Y-104000400D01*
%TO.N,/BBD_GAIN_R*%
X168628000Y-134000000D02*
X167898100Y-134000000D01*
X167618700Y-133720600D02*
X167898100Y-134000000D01*
X155750000Y-134000000D02*
X156479900Y-134000000D01*
X156764900Y-133715000D02*
X156479900Y-134000000D01*
%TO.N,/BBD_IN_R*%
X147250000Y-138000000D02*
X146520100Y-138000000D01*
X146520100Y-137866300D02*
X146520100Y-138000000D01*
X147250000Y-138000000D02*
X147250000Y-134000000D01*
X146235200Y-137581400D02*
X146520100Y-137866300D01*
%TO.N,/BBD_INF_R*%
X227395000Y-135988100D02*
X227239700Y-135832800D01*
X227395000Y-137290000D02*
X227395000Y-135988100D01*
X148750000Y-135100700D02*
X148750000Y-134000000D01*
X227239700Y-135832800D02*
X227239700Y-135710900D01*
%TO.N,/BBD_SUM_R*%
X170128000Y-142000000D02*
X169357900Y-142770100D01*
X170128000Y-138000000D02*
X170128000Y-134000000D01*
X170128000Y-139068400D02*
X170128000Y-138000000D01*
X170128000Y-142000000D02*
X170128000Y-139068400D01*
X169357900Y-142770100D02*
X169357900Y-146000000D01*
X170128000Y-139068400D02*
X170126800Y-139068400D01*
X168628000Y-146000000D02*
X169357900Y-146000000D01*
X162549000Y-137290000D02*
X162549000Y-135708700D01*
%TO.N,/BBD_SIGIN_R*%
X161279000Y-138826100D02*
X161230700Y-138874400D01*
X172128000Y-146000000D02*
X170128000Y-146000000D01*
X161279000Y-137290000D02*
X161279000Y-138826100D01*
%TO.N,/BBD_VCOR2_R*%
X185055000Y-160700000D02*
X185055000Y-159574100D01*
X191693100Y-161000000D02*
X189774400Y-159081300D01*
X192423000Y-161000000D02*
X191693100Y-161000000D01*
X189774400Y-159081300D02*
X185547800Y-159081300D01*
X185547800Y-159081300D02*
X185055000Y-159574100D01*
%TO.N,/BBD_VCOR1_R*%
X189782500Y-160126400D02*
X189230200Y-159574100D01*
X186325000Y-160700000D02*
X186325000Y-159574100D01*
X189230200Y-159574100D02*
X186325000Y-159574100D01*
X196723000Y-153000000D02*
X195993100Y-153000000D01*
X195688000Y-153258600D02*
X195734500Y-153258600D01*
X195734500Y-153258600D02*
X195993100Y-153000000D01*
%TO.N,/BBD_TRIGREF_R*%
X227205300Y-154342800D02*
X228396100Y-153152000D01*
X227389100Y-144001900D02*
X227108500Y-144282500D01*
X226326000Y-161000000D02*
X226326000Y-159952900D01*
X228396100Y-153152000D02*
X228396100Y-153000000D01*
X229126000Y-153000000D02*
X228396100Y-153000000D01*
X227395000Y-142700000D02*
X227395000Y-144001900D01*
X227395000Y-144001900D02*
X227389100Y-144001900D01*
%TO.N,/BBD_SH_FB_R*%
X214403500Y-145171000D02*
X213234400Y-144001900D01*
X217096100Y-146456200D02*
X216639900Y-146912400D01*
X217096100Y-146000000D02*
X217096100Y-146456200D01*
X214403500Y-145998600D02*
X214403500Y-145171000D01*
X216639900Y-146912400D02*
X215317300Y-146912400D01*
X217826000Y-142000000D02*
X217826000Y-146000000D01*
X215317300Y-146912400D02*
X214403500Y-145998600D01*
X213234400Y-144001900D02*
X208717000Y-144001900D01*
X217826000Y-146000000D02*
X217096100Y-146000000D01*
X208717000Y-142700000D02*
X208717000Y-144001900D01*
%TO.N,/BBD_OUT_R*%
X291136300Y-98653000D02*
X305197600Y-98653000D01*
X240704000Y-138000000D02*
X241433900Y-138000000D01*
X342641500Y-72403900D02*
X342725000Y-72403900D01*
X281341800Y-102553400D02*
X265017900Y-102553400D01*
X283193000Y-100702200D02*
X281341800Y-102553400D01*
X288971400Y-96488100D02*
X291136300Y-98653000D01*
X342725000Y-71402000D02*
X342725000Y-72403900D01*
X342330100Y-72715300D02*
X342641500Y-72403900D01*
X324770000Y-77995000D02*
X325499900Y-77995000D01*
X325499900Y-77995000D02*
X325499900Y-78986600D01*
X241433900Y-138000000D02*
X241734000Y-138000000D01*
%TO.N,/BBD_MIX_R*%
X162549000Y-144001900D02*
X163819000Y-144001900D01*
X239204000Y-138000000D02*
X238474100Y-138000000D01*
X163819000Y-141398100D02*
X163378800Y-140957900D01*
X162549000Y-142700000D02*
X162549000Y-144001900D01*
X163819000Y-142700000D02*
X163819000Y-141398100D01*
X163819000Y-142700000D02*
X163819000Y-144001900D01*
X238474100Y-138000000D02*
X238174000Y-138000000D01*
%TO.N,/LPG_ENVN_L*%
X237774900Y-75351900D02*
X236648000Y-74225000D01*
X260572500Y-75351900D02*
X237774900Y-75351900D01*
%TO.N,/LPG_CVW_L*%
X234148000Y-74225000D02*
X238579000Y-78656000D01*
X255429700Y-78656000D02*
X258944000Y-82170300D01*
X238579000Y-78656000D02*
X255429700Y-78656000D01*
%TO.N,/BBD_C1A_L*%
X186325000Y-113300000D02*
X186325000Y-111927600D01*
X186325000Y-111927600D02*
X186296300Y-111898900D01*
X190215800Y-117000000D02*
X189789200Y-117426600D01*
X192473000Y-117000000D02*
X190215800Y-117000000D01*
%TO.N,/BBD_C1A_R*%
X186325000Y-153300000D02*
X186325000Y-154425900D01*
X192473000Y-157000000D02*
X188899100Y-157000000D01*
X188899100Y-157000000D02*
X186325000Y-154425900D01*
%TO.N,/BBD_CLKN_L*%
X181255000Y-113300000D02*
X181255000Y-112174100D01*
X179100800Y-108134200D02*
X179100800Y-110523500D01*
X180751400Y-112174100D02*
X181255000Y-112174100D01*
X180235000Y-107000000D02*
X179100800Y-108134200D01*
X179100800Y-110523500D02*
X180751400Y-112174100D01*
%TO.N,/BBD_CLKN_R*%
X181255000Y-151877600D02*
X181255000Y-153300000D01*
%TO.N,/LPG_CV_L*%
X245930800Y-128322800D02*
X223357300Y-128322800D01*
X252804400Y-128322800D02*
X245930800Y-128322800D01*
X259395000Y-124834000D02*
X256293200Y-124834000D01*
X245930800Y-128322800D02*
X245930800Y-129782800D01*
X256293200Y-124834000D02*
X252804400Y-128322800D01*
X223357300Y-128322800D02*
X219592500Y-124558000D01*
X245930800Y-129782800D02*
X246004200Y-129856200D01*
%TO.N,/LPG_OFS_L*%
X216096800Y-123679700D02*
X229457200Y-123679700D01*
X214472500Y-122055400D02*
X216096800Y-123679700D01*
%TO.N,/LPG_T1_L*%
X221695000Y-115169900D02*
X221091200Y-115169900D01*
X221571900Y-118069900D02*
X220445000Y-118069900D01*
X221091200Y-115169900D02*
X220445000Y-115816100D01*
X220445000Y-116943000D02*
X220445000Y-115816100D01*
X221793100Y-118291100D02*
X221571900Y-118069900D01*
X221695000Y-114043000D02*
X221695000Y-115169900D01*
X220445000Y-116943000D02*
X220445000Y-118069900D01*
%TO.N,/LPG_ABUF_L*%
X248919100Y-107830900D02*
X279995000Y-107830900D01*
X246395000Y-110355000D02*
X248919100Y-107830900D01*
%TO.N,/LPG_OUT_L*%
X211024900Y-119295200D02*
X221684700Y-119295200D01*
X209729700Y-118000000D02*
X211024900Y-119295200D01*
%TO.N,/LPG_T1_R*%
X228100400Y-150614900D02*
X221668000Y-150614900D01*
X228218300Y-154698200D02*
X228729600Y-154698200D01*
X229876000Y-153551800D02*
X229876000Y-152390500D01*
X228729600Y-154698200D02*
X229876000Y-153551800D01*
X221064200Y-150614900D02*
X220418000Y-151261100D01*
X220418000Y-152388000D02*
X220418000Y-151261100D01*
X221668000Y-150614900D02*
X221064200Y-150614900D01*
X229876000Y-152390500D02*
X228100400Y-150614900D01*
X221668000Y-149488000D02*
X221668000Y-150614900D01*
%TO.N,/LPG_ABUF_R*%
X248650000Y-143460000D02*
X251215300Y-143460000D01*
X251215300Y-143460000D02*
X252402700Y-142272600D01*
X252402700Y-142272600D02*
X281479800Y-142272600D01*
X281479800Y-142272600D02*
X282250000Y-143042800D01*
%TO.N,/LPG_CVC_L*%
X255777000Y-129080100D02*
X257895000Y-126962100D01*
X246680200Y-129080100D02*
X255777000Y-129080100D01*
%TO.N,/LPG_ENVN_R*%
X255440500Y-155011600D02*
X256446000Y-156017100D01*
X243494500Y-155011600D02*
X255440500Y-155011600D01*
X243327200Y-154844300D02*
X243494500Y-155011600D01*
%TO.N,/LPG_LEDM_L*%
X251495000Y-110355000D02*
X250318100Y-110355000D01*
X250318100Y-110355000D02*
X249141200Y-111531900D01*
X249141200Y-111531900D02*
X237598100Y-111531900D01*
X237598100Y-111531900D02*
X233695000Y-115435000D01*
%TO.N,/LPG_LEDM_R*%
X239853100Y-144636900D02*
X251396200Y-144636900D01*
X235950000Y-148540000D02*
X239853100Y-144636900D01*
X253750000Y-143460000D02*
X252573100Y-143460000D01*
X251396200Y-144636900D02*
X252573100Y-143460000D01*
%TO.N,/LPG_SUMCV_R*%
X255010700Y-155818000D02*
X257151200Y-157958500D01*
X248129700Y-155818000D02*
X255010700Y-155818000D01*
%TO.N,/LPG_CVD_R*%
X259123100Y-155000000D02*
X258407800Y-154284700D01*
X258407800Y-154284700D02*
X247580300Y-154284700D01*
%TO.N,/HP_IN_L*%
X351820000Y-58495000D02*
X350818100Y-58495000D01*
X353970000Y-69645000D02*
X353240100Y-69645000D01*
X350818100Y-67223000D02*
X353240100Y-69645000D01*
X350818100Y-58495000D02*
X350818100Y-67223000D01*
%TO.N,/HP_IN_R*%
X350915100Y-54095000D02*
X350614300Y-54095000D01*
X344725000Y-71402000D02*
X345756900Y-71402000D01*
X351645000Y-54095000D02*
X350915100Y-54095000D01*
X345756900Y-71402000D02*
X346055100Y-71402000D01*
%TO.N,/HP_OUT_L*%
X358690100Y-58147600D02*
X357996200Y-57453700D01*
X359420000Y-58695000D02*
X358690100Y-58695000D01*
X347768200Y-57453700D02*
X346721900Y-58500000D01*
X357996200Y-57453700D02*
X347768200Y-57453700D01*
X344845000Y-58500000D02*
X346721900Y-58500000D01*
X358690100Y-58695000D02*
X358690100Y-58147600D01*
%TO.N,/HP_OUT_R*%
X344247900Y-77321000D02*
X344533800Y-77321000D01*
X343518000Y-77321000D02*
X344247900Y-77321000D01*
%TO.N,/HP_DIV_L*%
X337398900Y-64378000D02*
X337398900Y-65712000D01*
X355470000Y-69645000D02*
X356199900Y-69645000D01*
X336422000Y-64378000D02*
X337398900Y-64378000D01*
X356199900Y-69645000D02*
X356493000Y-69645000D01*
%TO.N,/HP_DIV_R*%
X336600300Y-70806800D02*
X336304000Y-71103100D01*
X353145000Y-54095000D02*
X353145000Y-53336100D01*
X353802800Y-53066600D02*
X353533300Y-53336100D01*
X353533300Y-53336100D02*
X353145000Y-53336100D01*
X336304000Y-72230000D02*
X336304000Y-71103100D01*
%TO.N,/HP_BUF_L*%
X343334000Y-62320000D02*
X343334000Y-63579400D01*
X342054000Y-62320000D02*
X342054000Y-63579400D01*
X357920000Y-58695000D02*
X357190100Y-58695000D01*
X343334000Y-61060600D02*
X343635000Y-60759600D01*
X343334000Y-63579400D02*
X342054000Y-63579400D01*
X343334000Y-62320000D02*
X343334000Y-61060600D01*
X357190100Y-58695000D02*
X356892000Y-58695000D01*
%TO.N,/HP_BUF_R*%
X342325300Y-76254800D02*
X342018000Y-76562100D01*
X343334000Y-68939400D02*
X343334000Y-69234700D01*
X343334000Y-68939400D02*
X344594000Y-68939400D01*
X342018000Y-77321000D02*
X342018000Y-76562100D01*
X343334000Y-67680000D02*
X343334000Y-68939400D01*
X344594000Y-67680000D02*
X344594000Y-68939400D01*
%TO.N,/HP_W_L*%
X344594000Y-62320000D02*
X344594000Y-63579400D01*
X344594000Y-63579400D02*
X341820400Y-66353000D01*
X341820400Y-66353000D02*
X339584500Y-66353000D01*
X339584500Y-66353000D02*
X338998900Y-66938600D01*
X338998900Y-66938600D02*
X338998900Y-67278000D01*
X337672000Y-67278000D02*
X338998900Y-67278000D01*
D52*
%TO.N,/HP_W_R*%
X338233000Y-73355400D02*
X337554000Y-74034400D01*
D50*
X345864000Y-68939400D02*
X345580200Y-69223200D01*
D52*
X337554000Y-75130000D02*
X337554000Y-74034400D01*
X339993300Y-73355400D02*
X338233000Y-73355400D01*
D50*
X345864000Y-67680000D02*
X345864000Y-68939400D01*
%TO.N,/EXT_AMP_OUT_L*%
X267456000Y-94222000D02*
X268432900Y-94222000D01*
X274610600Y-95175000D02*
X274309000Y-95175000D01*
X275870000Y-95175000D02*
X274610600Y-95175000D01*
X268432900Y-94222000D02*
X268872000Y-93782900D01*
X268872000Y-93782900D02*
X270233300Y-93782900D01*
%TO.N,/EXT_AMP_OUT_R*%
X283269000Y-93895000D02*
X283769000Y-93895000D01*
X286480000Y-91184000D02*
X285503100Y-91184000D01*
X285503100Y-92160900D02*
X285503100Y-91184000D01*
X283769000Y-93895000D02*
X285503100Y-92160900D01*
X283269000Y-93895000D02*
X281230000Y-93895000D01*
%TO.N,/EXT_AMP_IN_L*%
X270819800Y-92564900D02*
X270819800Y-88010900D01*
D52*
X274022300Y-93254600D02*
X274641900Y-92635000D01*
X273420000Y-93254600D02*
X274022300Y-93254600D01*
D50*
X272807900Y-95177000D02*
X272807900Y-93866700D01*
X270819800Y-88010900D02*
X267028900Y-84220000D01*
X271806000Y-95177000D02*
X272807900Y-95177000D01*
X272807900Y-93866700D02*
X272121600Y-93866700D01*
X272807900Y-93866700D02*
X273420000Y-93254600D01*
X272121600Y-93866700D02*
X270819800Y-92564900D01*
X266270000Y-84220000D02*
X267028900Y-84220000D01*
D52*
X275870000Y-92635000D02*
X274641900Y-92635000D01*
D50*
%TO.N,/EXT_PROT_L*%
X265470000Y-77845000D02*
X264429500Y-77845000D01*
X271806000Y-97177000D02*
X271398400Y-96769400D01*
X271398400Y-96769400D02*
X265020500Y-96769400D01*
D52*
%TO.N,/EXT_AMP_IN_R*%
X283472600Y-91994600D02*
X283087700Y-91994600D01*
D50*
X282489400Y-91365000D02*
X282489400Y-89166300D01*
X282489400Y-89166300D02*
X281345000Y-88021900D01*
X281230000Y-91365000D02*
X282489400Y-91365000D01*
D52*
X281230000Y-91365000D02*
X282458100Y-91365000D01*
X283087700Y-91994600D02*
X282458100Y-91365000D01*
D50*
X284230000Y-92115000D02*
X283593000Y-92115000D01*
X283593000Y-92115000D02*
X283472600Y-91994600D01*
X281345000Y-87020000D02*
X281345000Y-88021900D01*
%TO.N,/EXT_PROT_R*%
X293317500Y-80615100D02*
X293945000Y-80615100D01*
X279345000Y-87020000D02*
X279345000Y-86018100D01*
X293945000Y-81345000D02*
X293945000Y-80615100D01*
X279684400Y-86018100D02*
X279345000Y-86018100D01*
X279979900Y-85722600D02*
X279684400Y-86018100D01*
X293134500Y-80432100D02*
X293317500Y-80615100D01*
%TO.N,/LINE_OUT_L*%
X306941600Y-76412600D02*
X306899900Y-76454300D01*
X306899900Y-76454300D02*
X306899900Y-77170000D01*
X312445000Y-77095000D02*
X313174900Y-77095000D01*
X315500000Y-72500000D02*
X315500000Y-74326900D01*
D52*
X309190700Y-76412600D02*
X306941600Y-76412600D01*
D50*
X313174900Y-76274900D02*
X313174900Y-77095000D01*
X313552000Y-76274900D02*
X313174900Y-76274900D01*
X309328400Y-76274900D02*
X309190700Y-76412600D01*
X313174900Y-76274900D02*
X309328400Y-76274900D01*
X306170000Y-77170000D02*
X306899900Y-77170000D01*
X315500000Y-74326900D02*
X313552000Y-76274900D01*
%TO.N,/LINE_OUT_R*%
X326270000Y-77196000D02*
X326270000Y-77995000D01*
X326270000Y-77196000D02*
X322251500Y-77196000D01*
X322251500Y-77196000D02*
X321999900Y-77447600D01*
X321270000Y-77995000D02*
X321999900Y-77995000D01*
X321999900Y-77447600D02*
X321999900Y-77995000D01*
X326270000Y-76929200D02*
X326270000Y-77196000D01*
%TO.N,/EXT_FB_L*%
X275120000Y-97895000D02*
X275849900Y-97895000D01*
D52*
X277737700Y-94534600D02*
X277098100Y-93895000D01*
D50*
X269517000Y-91322000D02*
X270092900Y-91897900D01*
X264956000Y-93095100D02*
X265559800Y-93095100D01*
X266206000Y-91322000D02*
X266206000Y-92448900D01*
X266206000Y-91322000D02*
X269517000Y-91322000D01*
X264956000Y-94222000D02*
X264956000Y-93095100D01*
X278603300Y-94823900D02*
X278603300Y-94534600D01*
X265559800Y-93095100D02*
X266206000Y-92448900D01*
X275849900Y-97345400D02*
X275849900Y-97895000D01*
D52*
X278603300Y-94534600D02*
X277737700Y-94534600D01*
D50*
X278371400Y-94823900D02*
X275849900Y-97345400D01*
X278603300Y-94823900D02*
X278371400Y-94823900D01*
D52*
X275870000Y-93895000D02*
X277098100Y-93895000D01*
D50*
%TO.N,/EXT_FB_R*%
X284804000Y-94055100D02*
X285375800Y-93483300D01*
X285120000Y-98495000D02*
X285120000Y-97765100D01*
X288980000Y-92310900D02*
X288376200Y-92310900D01*
X287730000Y-95702500D02*
X285667400Y-97765100D01*
D52*
X282767900Y-92944800D02*
X282458100Y-92635000D01*
D50*
X287730000Y-94084000D02*
X287730000Y-93483300D01*
X285667400Y-97765100D02*
X285120000Y-97765100D01*
D52*
X281230000Y-92635000D02*
X282458100Y-92635000D01*
D50*
X288980000Y-91184000D02*
X288980000Y-92310900D01*
X287730000Y-93483300D02*
X287730000Y-92957100D01*
X287730000Y-94084000D02*
X287730000Y-95702500D01*
X285375800Y-93483300D02*
X287730000Y-93483300D01*
X288376200Y-92310900D02*
X287730000Y-92957100D01*
D51*
%TO.N,/P5V_BBD*%
X145247000Y-161595000D02*
X151187000Y-161595000D01*
X151187000Y-161595000D02*
X153097700Y-161595000D01*
X153097700Y-161595000D02*
X153097700Y-159295000D01*
%TO.N,/GND*%
X151187000Y-159295000D02*
X151187000Y-157995000D01*
%TD*%
M02*
