%TF.GenerationSoftware,KiCad,Pcbnew,7.0.8*%
%TF.CreationDate,2026-09-29T15:25:07-05:00*%
%TF.ProjectId,vuulgaris-faceplate,7675756c-6761-4726-9973-2d6661636570,0*%
%TF.SameCoordinates,Original*%
%TF.FileFunction,Copper,L4,Bot*%
%TF.FilePolarity,Positive*%
%FSLAX46Y46*%
G04 Gerber Fmt 4.6, Leading zero omitted, Abs format (unit mm)*
G04 Created by KiCad (PCBNEW 7.0.8) date 2026-09-29 15:25:07*
%MOMM*%
%LPD*%
G01*
G04 APERTURE LIST*
G04 Aperture macros list*
%AMRoundRect*
0 Rectangle with rounded corners*
0 $1 Rounding radius*
0 $2 $3 $4 $5 $6 $7 $8 $9 X,Y pos of 4 corners*
0 Add a 4 corners polygon primitive as box body*
4,1,4,$2,$3,$4,$5,$6,$7,$8,$9,$2,$3,0*
0 Add four circle primitives for the rounded corners*
1,1,$1+$1,$2,$3*
1,1,$1+$1,$4,$5*
1,1,$1+$1,$6,$7*
1,1,$1+$1,$8,$9*
0 Add four rect primitives between the rounded corners*
20,1,$1+$1,$2,$3,$4,$5,0*
20,1,$1+$1,$4,$5,$6,$7,0*
20,1,$1+$1,$6,$7,$8,$9,0*
20,1,$1+$1,$8,$9,$2,$3,0*%
G04 Aperture macros list end*
%TA.AperFunction,SMDPad,CuDef*%
%ADD10R,0.864000X0.806000*%
%TD*%
%TA.AperFunction,SMDPad,CuDef*%
%ADD11R,0.806000X0.864000*%
%TD*%
%TA.AperFunction,SMDPad,CuDef*%
%ADD12R,1.350000X1.410000*%
%TD*%
%TA.AperFunction,SMDPad,CuDef*%
%ADD13RoundRect,0.049984X-0.170016X-0.270016X0.170016X-0.270016X0.170016X0.270016X-0.170016X0.270016X0*%
%TD*%
%TA.AperFunction,SMDPad,CuDef*%
%ADD14C,1.500000*%
%TD*%
%TA.AperFunction,SMDPad,CuDef*%
%ADD15R,0.800000X0.900000*%
%TD*%
%TA.AperFunction,SMDPad,CuDef*%
%ADD16RoundRect,0.050010X0.099990X-0.749990X0.099990X0.749990X-0.099990X0.749990X-0.099990X-0.749990X0*%
%TD*%
%TA.AperFunction,SMDPad,CuDef*%
%ADD17RoundRect,0.050010X-0.749990X-0.099990X0.749990X-0.099990X0.749990X0.099990X-0.749990X0.099990X0*%
%TD*%
%TA.AperFunction,SMDPad,CuDef*%
%ADD18R,1.800000X1.000000*%
%TD*%
%TA.AperFunction,SMDPad,CuDef*%
%ADD19R,0.900000X0.800000*%
%TD*%
%TA.AperFunction,SMDPad,CuDef*%
%ADD20R,1.020000X4.650000*%
%TD*%
%TA.AperFunction,ViaPad*%
%ADD21C,0.600000*%
%TD*%
%TA.AperFunction,ViaPad*%
%ADD22C,0.500000*%
%TD*%
%TA.AperFunction,Conductor*%
%ADD23C,0.300000*%
%TD*%
%TA.AperFunction,Conductor*%
%ADD24C,0.225000*%
%TD*%
%TA.AperFunction,Conductor*%
%ADD25C,0.500000*%
%TD*%
%TA.AperFunction,Conductor*%
%ADD26C,0.250000*%
%TD*%
%TA.AperFunction,Conductor*%
%ADD27C,0.187400*%
%TD*%
%TA.AperFunction,Conductor*%
%ADD28C,0.150000*%
%TD*%
%TA.AperFunction,Conductor*%
%ADD29C,0.112400*%
%TD*%
G04 APERTURE END LIST*
D10*
%TO.P,R42,1*%
%TO.N,/PAD4_RX1*%
X383500000Y-144400000D03*
%TO.P,R42,2*%
%TO.N,/CAP1.3*%
X383500000Y-145900000D03*
%TD*%
D11*
%TO.P,R3,1*%
%TO.N,/P3V3_MSP430*%
X381750000Y-160200000D03*
%TO.P,R3,2*%
%TO.N,/MSP430_RXD*%
X383250000Y-160200000D03*
%TD*%
D10*
%TO.P,R2,1*%
%TO.N,/P3V3_MSP430*%
X362000000Y-160275000D03*
%TO.P,R2,2*%
%TO.N,/MSP430_TXD*%
X362000000Y-161775000D03*
%TD*%
%TO.P,R44,1*%
%TO.N,/PAD4_RX3*%
X390920000Y-144400000D03*
%TO.P,R44,2*%
%TO.N,/CAP3.3*%
X390920000Y-145900000D03*
%TD*%
%TO.P,R1,1*%
%TO.N,/P3V3_MSP430*%
X382775000Y-163600000D03*
%TO.P,R1,2*%
%TO.N,/MSP_RST*%
X382775000Y-162100000D03*
%TD*%
D12*
%TO.P,C1,1*%
%TO.N,/P3V3_MSP430*%
X378300000Y-157200000D03*
%TO.P,C1,2*%
%TO.N,/GND*%
X378300000Y-155200000D03*
%TD*%
D13*
%TO.P,D43,1,A1*%
%TO.N,/PAD4_RX2*%
X388000000Y-143150000D03*
%TO.P,D43,2,A2*%
%TO.N,/GND*%
X388700000Y-143150000D03*
%TD*%
D10*
%TO.P,R24,1*%
%TO.N,/PAD2_RX3*%
X390920000Y-132400000D03*
%TO.P,R24,2*%
%TO.N,/CAP3.1*%
X390920000Y-133900000D03*
%TD*%
%TO.P,R22,1*%
%TO.N,/PAD2_RX1*%
X383500000Y-132400000D03*
%TO.P,R22,2*%
%TO.N,/CAP1.1*%
X383500000Y-133900000D03*
%TD*%
D13*
%TO.P,D44,1,A1*%
%TO.N,/PAD4_RX3*%
X390920000Y-143150000D03*
%TO.P,D44,2,A2*%
%TO.N,/GND*%
X391620000Y-143150000D03*
%TD*%
D14*
%TO.P,TP3,1,1*%
%TO.N,/P3V3_MSP430*%
X344000000Y-160375000D03*
%TD*%
D13*
%TO.P,D12,1,A1*%
%TO.N,/PAD1_RX1*%
X383500000Y-125150000D03*
%TO.P,D12,2,A2*%
%TO.N,/GND*%
X384200000Y-125150000D03*
%TD*%
D10*
%TO.P,R23,1*%
%TO.N,/PAD2_RX2*%
X388000000Y-132400000D03*
%TO.P,R23,2*%
%TO.N,/CAP2.1*%
X388000000Y-133900000D03*
%TD*%
%TO.P,R33,1*%
%TO.N,/PAD3_RX2*%
X388000000Y-138400000D03*
%TO.P,R33,2*%
%TO.N,/CAP2.2*%
X388000000Y-139900000D03*
%TD*%
%TO.P,R32,1*%
%TO.N,/PAD3_RX1*%
X383500000Y-138400000D03*
%TO.P,R32,2*%
%TO.N,/CAP1.2*%
X383500000Y-139900000D03*
%TD*%
D13*
%TO.P,D21,1,A1*%
%TO.N,/PAD2_RX0*%
X380300000Y-131150000D03*
%TO.P,D21,2,A2*%
%TO.N,/GND*%
X381000000Y-131150000D03*
%TD*%
%TO.P,D24,1,A1*%
%TO.N,/PAD2_RX3*%
X390920000Y-131150000D03*
%TO.P,D24,2,A2*%
%TO.N,/GND*%
X391620000Y-131150000D03*
%TD*%
D10*
%TO.P,R34,1*%
%TO.N,/PAD3_RX3*%
X390920000Y-138400000D03*
%TO.P,R34,2*%
%TO.N,/CAP3.2*%
X390920000Y-139900000D03*
%TD*%
D13*
%TO.P,D31,1,A1*%
%TO.N,/PAD3_RX0*%
X380300000Y-137150000D03*
%TO.P,D31,2,A2*%
%TO.N,/GND*%
X381000000Y-137150000D03*
%TD*%
D15*
%TO.P,C6,1*%
%TO.N,/MSP_XOUT*%
X388750000Y-165900000D03*
%TO.P,C6,2*%
%TO.N,/GND*%
X387350000Y-165900000D03*
%TD*%
D13*
%TO.P,D33,1,A1*%
%TO.N,/PAD3_RX2*%
X388000000Y-137150000D03*
%TO.P,D33,2,A2*%
%TO.N,/GND*%
X388700000Y-137150000D03*
%TD*%
%TO.P,D32,1,A1*%
%TO.N,/PAD3_RX1*%
X383500000Y-137150000D03*
%TO.P,D32,2,A2*%
%TO.N,/GND*%
X384200000Y-137150000D03*
%TD*%
D15*
%TO.P,C5,1*%
%TO.N,/MSP_XIN*%
X388750000Y-163400000D03*
%TO.P,C5,2*%
%TO.N,/GND*%
X387350000Y-163400000D03*
%TD*%
D12*
%TO.P,C3,1*%
%TO.N,/MSP_VREG*%
X385250000Y-146875000D03*
%TO.P,C3,2*%
%TO.N,/GND*%
X385250000Y-144875000D03*
%TD*%
D10*
%TO.P,R21,1*%
%TO.N,/PAD2_RX0*%
X380300000Y-132400000D03*
%TO.P,R21,2*%
%TO.N,/CAP0.1*%
X380300000Y-133900000D03*
%TD*%
D14*
%TO.P,TP4,1,1*%
%TO.N,/GND*%
X340900000Y-159250000D03*
%TD*%
D10*
%TO.P,R31,1*%
%TO.N,/PAD3_RX0*%
X380300000Y-138400000D03*
%TO.P,R31,2*%
%TO.N,/CAP0.2*%
X380300000Y-139900000D03*
%TD*%
D13*
%TO.P,D42,1,A1*%
%TO.N,/PAD4_RX1*%
X383500000Y-143150000D03*
%TO.P,D42,2,A2*%
%TO.N,/GND*%
X384200000Y-143150000D03*
%TD*%
%TO.P,D11,1,A1*%
%TO.N,/PAD1_RX0*%
X380300000Y-125150000D03*
%TO.P,D11,2,A2*%
%TO.N,/GND*%
X381000000Y-125150000D03*
%TD*%
D10*
%TO.P,R14,1*%
%TO.N,/PAD1_RX3*%
X390920000Y-126400000D03*
%TO.P,R14,2*%
%TO.N,/CAP3.0*%
X390920000Y-127900000D03*
%TD*%
D16*
%TO.P,U1,1,DVCC*%
%TO.N,/P3V3_MSP430*%
X387200000Y-158100000D03*
%TO.P,U1,2,~{RST}/NMI/SBWTDIO*%
%TO.N,/MSP_RST*%
X386700000Y-158100000D03*
%TO.P,U1,3,TEST/SBWTCK*%
%TO.N,/MSP_TEST*%
X386200000Y-158100000D03*
%TO.P,U1,4,P1.4/UCA0TXD/UCA0SIMO/TA1.2/TCK/A4/VREF+*%
%TO.N,/MSP430_TXD*%
X385700000Y-158100000D03*
%TO.P,U1,5,P1.5/UCA0RXD/UCA0SOMI/TA1.1/TMS/A5*%
%TO.N,/MSP430_RXD*%
X385200000Y-158100000D03*
%TO.P,U1,6,P1.6/UCA0CLK/TA1CLK/TDI/TCLK/A6*%
%TO.N,unconnected-(U1-P1.6{slash}UCA0CLK{slash}TA1CLK{slash}TDI{slash}TCLK{slash}A6-Pad6)*%
X384700000Y-158100000D03*
%TO.P,U1,7,P1.7/UCA0STE/SMCLK/TDO/A7*%
%TO.N,unconnected-(U1-P1.7{slash}UCA0STE{slash}SMCLK{slash}TDO{slash}A7-Pad7)*%
X384200000Y-158100000D03*
%TO.P,U1,8,P4.3/UCB1SOMI/UCB1SCL/TB0.5/A8*%
%TO.N,unconnected-(U1-P4.3{slash}UCB1SOMI{slash}UCB1SCL{slash}TB0.5{slash}A8-Pad8)*%
X383700000Y-158100000D03*
%TO.P,U1,9,P4.4/UCB1SIMO/UCB1SDA/TB0.6/A9*%
%TO.N,unconnected-(U1-P4.4{slash}UCB1SIMO{slash}UCB1SDA{slash}TB0.6{slash}A9-Pad9)*%
X383200000Y-158100000D03*
%TO.P,U1,10,P5.3/UCB1CLK/TA3.0/A10*%
%TO.N,unconnected-(U1-P5.3{slash}UCB1CLK{slash}TA3.0{slash}A10-Pad10)*%
X382700000Y-158100000D03*
%TO.P,U1,11,P5.4/UCB1STE/TA3CLK/A11*%
%TO.N,unconnected-(U1-P5.4{slash}UCB1STE{slash}TA3CLK{slash}A11-Pad11)*%
X382200000Y-158100000D03*
%TO.P,U1,12,P1.0/UCB0STE/TA0CLK/A0/Veref+*%
%TO.N,unconnected-(U1-P1.0{slash}UCB0STE{slash}TA0CLK{slash}A0{slash}Veref+-Pad12)*%
X381700000Y-158100000D03*
D17*
%TO.P,U1,13,P1.1/UCB0CLK/TA0.1/COMP0.0/A1*%
%TO.N,unconnected-(U1-P1.1{slash}UCB0CLK{slash}TA0.1{slash}COMP0.0{slash}A1-Pad13)*%
X380350000Y-156750000D03*
%TO.P,U1,14,P1.2/UCB0SIMO/UCB0SDA/TA0.2/A2/Veref-*%
%TO.N,unconnected-(U1-P1.2{slash}UCB0SIMO{slash}UCB0SDA{slash}TA0.2{slash}A2{slash}Veref--Pad14)*%
X380350000Y-156250000D03*
%TO.P,U1,15,P1.3/UCB0SOMI/UCB0SCL/MCLK/A3*%
%TO.N,unconnected-(U1-P1.3{slash}UCB0SOMI{slash}UCB0SCL{slash}MCLK{slash}A3-Pad15)*%
X380350000Y-155750000D03*
%TO.P,U1,16,P2.2/SYNC/ACLK/COMP0.1*%
%TO.N,unconnected-(U1-P2.2{slash}SYNC{slash}ACLK{slash}COMP0.1-Pad16)*%
X380350000Y-155250000D03*
%TO.P,U1,17,P4.5/UCB0SOMI/UCB0SCL/TA3.2*%
%TO.N,unconnected-(U1-P4.5{slash}UCB0SOMI{slash}UCB0SCL{slash}TA3.2-Pad17)*%
X380350000Y-154750000D03*
%TO.P,U1,18,P4.6/UCB0SIMO/UCB0SDA/TA3.1*%
%TO.N,unconnected-(U1-P4.6{slash}UCB0SIMO{slash}UCB0SDA{slash}TA3.1-Pad18)*%
X380350000Y-154250000D03*
%TO.P,U1,19,P5.5/UCB0CLK/TA2CLK*%
%TO.N,unconnected-(U1-P5.5{slash}UCB0CLK{slash}TA2CLK-Pad19)*%
X380350000Y-153750000D03*
%TO.P,U1,20,P5.6/UCB0STE/TA2.0*%
%TO.N,unconnected-(U1-P5.6{slash}UCB0STE{slash}TA2.0-Pad20)*%
X380350000Y-153250000D03*
%TO.P,U1,21,P5.7/TA2.1/COMP0.2*%
%TO.N,unconnected-(U1-P5.7{slash}TA2.1{slash}COMP0.2-Pad21)*%
X380350000Y-152750000D03*
%TO.P,U1,22,P6.0/TA2.2/COMP0.3*%
%TO.N,unconnected-(U1-P6.0{slash}TA2.2{slash}COMP0.3-Pad22)*%
X380350000Y-152250000D03*
%TO.P,U1,23,P3.0/TA2.2/CAP0.0*%
%TO.N,/CAP0.0*%
X380350000Y-151750000D03*
%TO.P,U1,24,P3.3/TA2.1/CAP0.1*%
%TO.N,/CAP0.1*%
X380350000Y-151250000D03*
D16*
%TO.P,U1,25,P2.3/TA2.0/CAP0.2*%
%TO.N,/CAP0.2*%
X381700000Y-149900000D03*
%TO.P,U1,26,P3.4/TA2CLK/COMP0OUT/CAP0.3*%
%TO.N,/CAP0.3*%
X382200000Y-149900000D03*
%TO.P,U1,27,P3.1/UCA1STE/CAP1.0*%
%TO.N,/CAP1.0*%
X382700000Y-149900000D03*
%TO.P,U1,28,P2.4/UCA1CLK/CAP1.1*%
%TO.N,/CAP1.1*%
X383200000Y-149900000D03*
%TO.P,U1,29,P2.5/UCA1RXD/UCA1SOMI/CAP1.2*%
%TO.N,/CAP1.2*%
X383700000Y-149900000D03*
%TO.P,U1,30,P2.6/UCA1TXD/UCA1SIMO/CAP1.3*%
%TO.N,/CAP1.3*%
X384200000Y-149900000D03*
%TO.P,U1,31,VREG*%
%TO.N,/MSP_VREG*%
X384700000Y-149900000D03*
%TO.P,U1,32,P3.7/TA3.2/CAP2.0*%
%TO.N,/CAP2.0*%
X385200000Y-149900000D03*
%TO.P,U1,33,P4.0/TA3.1/CAP2.1*%
%TO.N,/CAP2.1*%
X385700000Y-149900000D03*
%TO.P,U1,34,P4.1/TA3.0/CAP2.2*%
%TO.N,/CAP2.2*%
X386200000Y-149900000D03*
%TO.P,U1,35,P4.2/TA3CLK/CAP2.3*%
%TO.N,/CAP2.3*%
X386700000Y-149900000D03*
%TO.P,U1,36,P2.7/UCB1STE/CAP3.0*%
%TO.N,/CAP3.0*%
X387200000Y-149900000D03*
D17*
%TO.P,U1,37,P3.5/UCB1CLK/TB0TRG/CAP3.1*%
%TO.N,/CAP3.1*%
X388550000Y-151250000D03*
%TO.P,U1,38,P3.2/UCB1SIMO/UCB1SDA/CAP3.2*%
%TO.N,/CAP3.2*%
X388550000Y-151750000D03*
%TO.P,U1,39,P3.6/UCB1SOMI/UCB1SCL/CAP3.3*%
%TO.N,/CAP3.3*%
X388550000Y-152250000D03*
%TO.P,U1,40,P6.1/TB0CLK*%
%TO.N,unconnected-(U1-P6.1{slash}TB0CLK-Pad40)*%
X388550000Y-152750000D03*
%TO.P,U1,41,P6.2/TB0.0*%
%TO.N,unconnected-(U1-P6.2{slash}TB0.0-Pad41)*%
X388550000Y-153250000D03*
%TO.P,U1,42,P4.7/UCA0STE/TB0.1*%
%TO.N,unconnected-(U1-P4.7{slash}UCA0STE{slash}TB0.1-Pad42)*%
X388550000Y-153750000D03*
%TO.P,U1,43,P5.0/UCA0CLK/TB0.2*%
%TO.N,unconnected-(U1-P5.0{slash}UCA0CLK{slash}TB0.2-Pad43)*%
X388550000Y-154250000D03*
%TO.P,U1,44,P5.1/UCA0RXD/UCA0SOMI/TB0.3*%
%TO.N,unconnected-(U1-P5.1{slash}UCA0RXD{slash}UCA0SOMI{slash}TB0.3-Pad44)*%
X388550000Y-154750000D03*
%TO.P,U1,45,P5.2/UCA0TXD/UCA0SIMO/TB0.4*%
%TO.N,unconnected-(U1-P5.2{slash}UCA0TXD{slash}UCA0SIMO{slash}TB0.4-Pad45)*%
X388550000Y-155250000D03*
%TO.P,U1,46,P2.0/XOUT*%
%TO.N,/MSP_XOUT*%
X388550000Y-155750000D03*
%TO.P,U1,47,P2.1/XIN*%
%TO.N,/MSP_XIN*%
X388550000Y-156250000D03*
%TO.P,U1,48,DVSS*%
%TO.N,/GND*%
X388550000Y-156750000D03*
%TD*%
D13*
%TO.P,D41,1,A1*%
%TO.N,/PAD4_RX0*%
X380300000Y-143150000D03*
%TO.P,D41,2,A2*%
%TO.N,/GND*%
X381000000Y-143150000D03*
%TD*%
D10*
%TO.P,R43,1*%
%TO.N,/PAD4_RX2*%
X388000000Y-144400000D03*
%TO.P,R43,2*%
%TO.N,/CAP2.3*%
X388000000Y-145900000D03*
%TD*%
D14*
%TO.P,TP5,1,1*%
%TO.N,/MSP430_TXD*%
X347600000Y-161675000D03*
%TD*%
D13*
%TO.P,D34,1,A1*%
%TO.N,/PAD3_RX3*%
X390920000Y-137150000D03*
%TO.P,D34,2,A2*%
%TO.N,/GND*%
X391620000Y-137150000D03*
%TD*%
D15*
%TO.P,C2,1*%
%TO.N,/P3V3_MSP430*%
X387650000Y-161175000D03*
%TO.P,C2,2*%
%TO.N,/GND*%
X389050000Y-161175000D03*
%TD*%
D13*
%TO.P,D22,1,A1*%
%TO.N,/PAD2_RX1*%
X383500000Y-131150000D03*
%TO.P,D22,2,A2*%
%TO.N,/GND*%
X384200000Y-131150000D03*
%TD*%
D18*
%TO.P,Y1,1,1*%
%TO.N,/MSP_XIN*%
X390900000Y-163000000D03*
%TO.P,Y1,2,2*%
%TO.N,/MSP_XOUT*%
X390900000Y-165500000D03*
%TD*%
D10*
%TO.P,R11,1*%
%TO.N,/PAD1_RX0*%
X380300000Y-126400000D03*
%TO.P,R11,2*%
%TO.N,/CAP0.0*%
X380300000Y-127900000D03*
%TD*%
D13*
%TO.P,D14,1,A1*%
%TO.N,/PAD1_RX3*%
X390920000Y-125150000D03*
%TO.P,D14,2,A2*%
%TO.N,/GND*%
X391620000Y-125150000D03*
%TD*%
D14*
%TO.P,TP2,1,1*%
%TO.N,/MSP_RST*%
X354800000Y-164275000D03*
%TD*%
D10*
%TO.P,R13,1*%
%TO.N,/PAD1_RX2*%
X388000000Y-126400000D03*
%TO.P,R13,2*%
%TO.N,/CAP2.0*%
X388000000Y-127900000D03*
%TD*%
D14*
%TO.P,TP1,1,1*%
%TO.N,/MSP_TEST*%
X358400000Y-165575000D03*
%TD*%
D10*
%TO.P,R12,1*%
%TO.N,/PAD1_RX1*%
X383500000Y-126400000D03*
%TO.P,R12,2*%
%TO.N,/CAP1.0*%
X383500000Y-127900000D03*
%TD*%
D13*
%TO.P,D23,1,A1*%
%TO.N,/PAD2_RX2*%
X388000000Y-131150000D03*
%TO.P,D23,2,A2*%
%TO.N,/GND*%
X388700000Y-131150000D03*
%TD*%
D19*
%TO.P,C4,1*%
%TO.N,/MSP_RST*%
X380725000Y-162200000D03*
%TO.P,C4,2*%
%TO.N,/GND*%
X380725000Y-163600000D03*
%TD*%
D13*
%TO.P,D13,1,A1*%
%TO.N,/PAD1_RX2*%
X388000000Y-125150000D03*
%TO.P,D13,2,A2*%
%TO.N,/GND*%
X388700000Y-125150000D03*
%TD*%
D20*
%TO.P,J1,1,Pin_1*%
%TO.N,/MSP_TEST*%
X334075000Y-165925000D03*
%TO.P,J1,2,Pin_2*%
%TO.N,/GND*%
X334075000Y-159075000D03*
%TO.P,J1,3,Pin_3*%
%TO.N,/MSP_RST*%
X331535000Y-165925000D03*
%TO.P,J1,4,Pin_4*%
%TO.N,/GND*%
X331535000Y-159075000D03*
%TO.P,J1,5,Pin_5*%
%TO.N,/MSP430_RXD*%
X328995000Y-165925000D03*
%TO.P,J1,6,Pin_6*%
%TO.N,/GND*%
X328995000Y-159075000D03*
%TO.P,J1,7,Pin_7*%
%TO.N,/MSP430_TXD*%
X326455000Y-165925000D03*
%TO.P,J1,8,Pin_8*%
%TO.N,/GND*%
X326455000Y-159075000D03*
%TO.P,J1,9,Pin_9*%
%TO.N,/P3V3_MSP430*%
X323915000Y-165925000D03*
%TO.P,J1,10,Pin_10*%
%TO.N,/GND*%
X323915000Y-159075000D03*
%TD*%
D14*
%TO.P,TP6,1,1*%
%TO.N,/MSP430_RXD*%
X351200000Y-162975000D03*
%TD*%
D10*
%TO.P,R41,1*%
%TO.N,/PAD4_RX0*%
X380300000Y-144400000D03*
%TO.P,R41,2*%
%TO.N,/CAP0.3*%
X380300000Y-145900000D03*
%TD*%
D21*
%TO.N,/GND*%
X335900000Y-159075000D03*
X389250000Y-125150000D03*
X388550000Y-157350000D03*
X389250000Y-131150000D03*
X389890000Y-161175000D03*
X386510000Y-165900000D03*
X381240000Y-143870000D03*
X392170000Y-137150000D03*
X380437020Y-161058640D03*
X384750000Y-143150000D03*
X384750000Y-125150000D03*
X378300000Y-154000000D03*
X381550000Y-125150000D03*
X381550000Y-131150000D03*
X388849999Y-140750000D03*
X381550000Y-137150000D03*
X392170000Y-125150000D03*
X384750000Y-137150000D03*
X384750000Y-131150000D03*
X392170000Y-131150000D03*
X389250000Y-137150000D03*
X386510000Y-163760000D03*
X393180000Y-143150000D03*
%TO.N,/MSP430_RXD*%
X379550000Y-164750500D03*
X384200000Y-160200000D03*
%TO.N,/MSP430_TXD*%
X379518950Y-161038180D03*
X385700000Y-160900000D03*
%TO.N,/MSP_RST*%
X386680400Y-159807599D03*
X384950000Y-162259500D03*
%TO.N,/MSP_TEST*%
X387161100Y-162134400D03*
X386200000Y-156785800D03*
D22*
%TO.N,/PAD1_RX0*%
X177237857Y-112953499D03*
X192357857Y-112953499D03*
X198837857Y-112953499D03*
X343557857Y-112953499D03*
X209637857Y-112953499D03*
X188037857Y-112953499D03*
X350037857Y-112953499D03*
X354357857Y-112953499D03*
X194517857Y-112953499D03*
X332757857Y-112953499D03*
X380700000Y-122850000D03*
X190197857Y-112953499D03*
X200997857Y-112953499D03*
X358677857Y-112953499D03*
X367317857Y-112953499D03*
X211797857Y-112780868D03*
X360837857Y-112953499D03*
X207477857Y-112953499D03*
X352197857Y-112953499D03*
X164277857Y-112953499D03*
X168597857Y-112953499D03*
X328437857Y-112953499D03*
X347877857Y-112953499D03*
X181557857Y-112953499D03*
X356517857Y-112953499D03*
X172917857Y-112953499D03*
X339237857Y-112953499D03*
X166437857Y-112953499D03*
X179397857Y-112953499D03*
X330597857Y-112953499D03*
X334917857Y-112953499D03*
X365157857Y-112953499D03*
X375957857Y-112953499D03*
X369477857Y-112953499D03*
X341397857Y-112953499D03*
X196677857Y-112953499D03*
X203157857Y-112953499D03*
X175077857Y-112953499D03*
X362997857Y-112953499D03*
X185877857Y-112953499D03*
X205317857Y-112953499D03*
X371637857Y-112953499D03*
X326277857Y-112780868D03*
X337077857Y-112953499D03*
X345717857Y-112953499D03*
X170757857Y-112953499D03*
X162117857Y-112953499D03*
X183717857Y-112953499D03*
X373797857Y-112953499D03*
%TO.N,/PAD1_RX1*%
X196677857Y-121953499D03*
X207477857Y-121953499D03*
X183717857Y-121953499D03*
X235557857Y-121953499D03*
X175077857Y-121953499D03*
X198837857Y-121953499D03*
X181557857Y-121953499D03*
X192357857Y-121953499D03*
X170757857Y-121953499D03*
X177237857Y-121953499D03*
X263637857Y-121953499D03*
X222597857Y-121953499D03*
X213957857Y-121953499D03*
X254997857Y-121953499D03*
X224757857Y-121953499D03*
X179397857Y-121953499D03*
X190197857Y-121953499D03*
X205317857Y-121953499D03*
X233397857Y-121953499D03*
X226917857Y-121953499D03*
X252837857Y-121953499D03*
X229077857Y-121953499D03*
X203157857Y-121953499D03*
X194517857Y-121953499D03*
X246357857Y-121953499D03*
X172917857Y-121953499D03*
X216117857Y-121953499D03*
X164277857Y-122126131D03*
X237717857Y-121953499D03*
X244197857Y-121953499D03*
X261477857Y-121953499D03*
X209637857Y-121953499D03*
X166437857Y-121953499D03*
X383500000Y-123850000D03*
X231237857Y-121953499D03*
X185877857Y-121953499D03*
X257157857Y-121953499D03*
X220437857Y-121953499D03*
X239877857Y-121953499D03*
X168597857Y-121953499D03*
X218277857Y-121953499D03*
X200997857Y-121953499D03*
X248517857Y-121953499D03*
X265797857Y-122126131D03*
X259317857Y-121953499D03*
X211797857Y-121953499D03*
X188037857Y-121953499D03*
X250677857Y-121953499D03*
X242037857Y-121953499D03*
%TO.N,/PAD1_RX2*%
X250677857Y-112953499D03*
X291717857Y-112953499D03*
X237717857Y-112953499D03*
X285237857Y-112953499D03*
X265797857Y-112953499D03*
X302517857Y-112953499D03*
X296037857Y-112953499D03*
X248517857Y-112953499D03*
X311157857Y-112953499D03*
X278757857Y-112953499D03*
X263637857Y-112953499D03*
X300357857Y-112953499D03*
X218277857Y-112780868D03*
X289557857Y-112953499D03*
X280917857Y-112953499D03*
X308997857Y-112953499D03*
X235557857Y-112953499D03*
X293877857Y-112953499D03*
X388000000Y-123350000D03*
X261477857Y-112953499D03*
X244197857Y-112953499D03*
X222597857Y-112953499D03*
X298197857Y-112953499D03*
X229077857Y-112953499D03*
X242037857Y-112953499D03*
X287397857Y-112953499D03*
X226917857Y-112953499D03*
X306837857Y-112953499D03*
X270117857Y-112953499D03*
X220437857Y-112953499D03*
X274437857Y-112953499D03*
X276597857Y-112953499D03*
X315477857Y-112953499D03*
X272277857Y-112953499D03*
X283077857Y-112953499D03*
X313317857Y-112953499D03*
X317637857Y-112953499D03*
X231237857Y-112953499D03*
X233397857Y-112953499D03*
X252837857Y-112953499D03*
X259317857Y-112953499D03*
X239877857Y-112953499D03*
X304677857Y-112953499D03*
X246357857Y-112953499D03*
X257157857Y-112953499D03*
X319797857Y-112780868D03*
X267957857Y-112953499D03*
X224757857Y-112953499D03*
X254997857Y-112953499D03*
%TO.N,/PAD1_RX3*%
X330597857Y-121953499D03*
X291717857Y-121953499D03*
X332757857Y-121953499D03*
X313317857Y-121953499D03*
X343557857Y-121953499D03*
X369477857Y-121953499D03*
X317637857Y-121953499D03*
X358677857Y-121953499D03*
X276597857Y-121953499D03*
X319797857Y-121953499D03*
X283077857Y-121953499D03*
X339237857Y-121953499D03*
X287397857Y-121953499D03*
X337077857Y-121953499D03*
X341397857Y-121953499D03*
X296037857Y-121953499D03*
X272277857Y-122126131D03*
X274437857Y-121953499D03*
X298197857Y-121953499D03*
X324117857Y-121953499D03*
X367317857Y-121953499D03*
X362997857Y-121953499D03*
X321957857Y-121953499D03*
X354357857Y-121953499D03*
X280917857Y-121953499D03*
X350037857Y-121953499D03*
X390920000Y-124350000D03*
X334917857Y-121953499D03*
X304677857Y-121953499D03*
X326277857Y-121953499D03*
X371637857Y-121953499D03*
X365157857Y-121953499D03*
X360837857Y-121953499D03*
X278757857Y-121953499D03*
X289557857Y-121953499D03*
X308997857Y-121953499D03*
X328437857Y-121953499D03*
X347877857Y-121953499D03*
X373797857Y-122126131D03*
X285237857Y-121953499D03*
X293877857Y-121953499D03*
X302517857Y-121953499D03*
X300357857Y-121953499D03*
X306837857Y-121953499D03*
X356517857Y-121953499D03*
X311157857Y-121953499D03*
X315477857Y-121953499D03*
X345717857Y-121953499D03*
X352197857Y-121953499D03*
%TO.N,/PAD2_RX0*%
X172917857Y-130953499D03*
X371637857Y-130953499D03*
X373797857Y-130953499D03*
X170757857Y-130953499D03*
X375957857Y-130953499D03*
X175077857Y-130953499D03*
X334917857Y-130953499D03*
X207477857Y-130953499D03*
X188037857Y-130953499D03*
X352197857Y-130953499D03*
X330597857Y-130953499D03*
X345717857Y-130953499D03*
X328437857Y-130953499D03*
X179397857Y-130953499D03*
X337077857Y-130953499D03*
X358677857Y-130953499D03*
X168597857Y-130953499D03*
X164277857Y-130953499D03*
X203157857Y-130953499D03*
X185877857Y-130953499D03*
X190197857Y-130953499D03*
X341397857Y-130953499D03*
X367317857Y-130953499D03*
X354357857Y-130953499D03*
X347877857Y-130953499D03*
X362997857Y-130953499D03*
X211797857Y-130780868D03*
X192357857Y-130953499D03*
X166437857Y-130953499D03*
X343557857Y-130953499D03*
X205317857Y-130953499D03*
X200997857Y-130953499D03*
X162117857Y-130953499D03*
X198837857Y-130953499D03*
X194517857Y-130953499D03*
X350037857Y-130953499D03*
X365157857Y-130953499D03*
X181557857Y-130953499D03*
X209637857Y-130953499D03*
X360837857Y-130953499D03*
X332757857Y-130953499D03*
X356517857Y-130953499D03*
X183717857Y-130953499D03*
X326277857Y-130780868D03*
X196677857Y-130953499D03*
X177237857Y-130953499D03*
X369477857Y-130953499D03*
X339237857Y-130953499D03*
X380700000Y-128850000D03*
%TO.N,/PAD2_RX1*%
X244197857Y-139953500D03*
X172917857Y-139953500D03*
X192357857Y-139953500D03*
X198837857Y-139953500D03*
X261477857Y-139953500D03*
X254997857Y-139953500D03*
X194517857Y-139953500D03*
X188037857Y-139953500D03*
X224757857Y-139953500D03*
X183717857Y-139953500D03*
X250677857Y-139953500D03*
X257157857Y-139953500D03*
X259317857Y-139953500D03*
X220437857Y-139953500D03*
X207477857Y-139953500D03*
X211797857Y-139953500D03*
X213957857Y-139953500D03*
X205317857Y-139953500D03*
X218277857Y-139953500D03*
X175077857Y-139953500D03*
X177237857Y-139953500D03*
X209637857Y-139953500D03*
X383500000Y-129850000D03*
X170757857Y-139953500D03*
X181557857Y-139953500D03*
X237717857Y-139953500D03*
X185877857Y-139953500D03*
X231237857Y-139953500D03*
X166437857Y-139953500D03*
X216117857Y-139953500D03*
X233397857Y-139953500D03*
X229077857Y-139953500D03*
X190197857Y-139953500D03*
X179397857Y-139953500D03*
X222597857Y-139953500D03*
X252837857Y-139953500D03*
X164277857Y-140126131D03*
X203157857Y-139953500D03*
X263637857Y-139953500D03*
X265797857Y-140126131D03*
X226917857Y-139953500D03*
X196677857Y-139953500D03*
X200997857Y-139953500D03*
X248517857Y-139953500D03*
X168597857Y-139953500D03*
X235557857Y-139953500D03*
X239877857Y-139953500D03*
X242037857Y-139953500D03*
X246357857Y-139953500D03*
%TO.N,/PAD2_RX2*%
X315477857Y-130953499D03*
X289557857Y-130953499D03*
X296037857Y-130953499D03*
X242037857Y-130953499D03*
X283077857Y-130953499D03*
X244197857Y-130953499D03*
X388000000Y-129350000D03*
X311157857Y-130953499D03*
X267957857Y-130953499D03*
X265797857Y-130953499D03*
X304677857Y-130953499D03*
X319797857Y-130780868D03*
X285237857Y-130953499D03*
X291717857Y-130953499D03*
X300357857Y-130953499D03*
X280917857Y-130953499D03*
X252837857Y-130953499D03*
X270117857Y-130953499D03*
X306837857Y-130953499D03*
X259317857Y-130953499D03*
X235557857Y-130953499D03*
X274437857Y-130953499D03*
X246357857Y-130953499D03*
X276597857Y-130953499D03*
X220437857Y-130953499D03*
X302517857Y-130953499D03*
X218277857Y-130780868D03*
X222597857Y-130953499D03*
X278757857Y-130953499D03*
X250677857Y-130953499D03*
X287397857Y-130953499D03*
X239877857Y-130953499D03*
X293877857Y-130953499D03*
X298197857Y-130953499D03*
X317637857Y-130953499D03*
X263637857Y-130953499D03*
X261477857Y-130953499D03*
X308997857Y-130953499D03*
X224757857Y-130953499D03*
X257157857Y-130953499D03*
X237717857Y-130953499D03*
X231237857Y-130953499D03*
X248517857Y-130953499D03*
X233397857Y-130953499D03*
X229077857Y-130953499D03*
X313317857Y-130953499D03*
X272277857Y-130953499D03*
X254997857Y-130953499D03*
X226917857Y-130953499D03*
%TO.N,/PAD2_RX3*%
X283077857Y-139953500D03*
X326277857Y-139953500D03*
X345717857Y-139953500D03*
X369477857Y-139953500D03*
X289557857Y-139953500D03*
X321957857Y-139953500D03*
X337077857Y-139953500D03*
X287397857Y-139953500D03*
X313317857Y-139953500D03*
X365157857Y-139953500D03*
X311157857Y-139953500D03*
X291717857Y-139953500D03*
X296037857Y-139953500D03*
X278757857Y-139953500D03*
X317637857Y-139953500D03*
X304677857Y-139953500D03*
X306837857Y-139953500D03*
X280917857Y-139953500D03*
X352197857Y-139953500D03*
X360837857Y-139953500D03*
X330597857Y-139953500D03*
X300357857Y-139953500D03*
X302517857Y-139953500D03*
X274437857Y-139953500D03*
X328437857Y-139953500D03*
X356517857Y-139953500D03*
X315477857Y-139953500D03*
X272277857Y-140126131D03*
X285237857Y-139953500D03*
X276597857Y-139953500D03*
X343557857Y-139953500D03*
X358677857Y-139953500D03*
X354357857Y-139953500D03*
X308997857Y-139953500D03*
X298197857Y-139953500D03*
X367317857Y-139953500D03*
X341397857Y-139953500D03*
X373797857Y-140126131D03*
X390920000Y-130350000D03*
X332757857Y-139953500D03*
X347877857Y-139953500D03*
X334917857Y-139953500D03*
X324117857Y-139953500D03*
X371637857Y-139953500D03*
X339237857Y-139953500D03*
X350037857Y-139953500D03*
X319797857Y-139953500D03*
X362997857Y-139953500D03*
X293877857Y-139953500D03*
%TO.N,/PAD3_RX0*%
X205317857Y-148953500D03*
X356517857Y-148953500D03*
X369477857Y-148953500D03*
X179397857Y-148953500D03*
X337077857Y-148953500D03*
X375957857Y-148953500D03*
X358677857Y-148953500D03*
X177237857Y-148953500D03*
X183717857Y-148953500D03*
X198837857Y-148953500D03*
X211797857Y-148780868D03*
X196677857Y-148953500D03*
X371637857Y-148953500D03*
X172917857Y-148953500D03*
X380700000Y-134850000D03*
X203157857Y-148953500D03*
X332757857Y-148953500D03*
X343557857Y-148953500D03*
X162117857Y-148953500D03*
X170757857Y-148953500D03*
X166437857Y-148953500D03*
X328437857Y-148953500D03*
X209637857Y-148953500D03*
X326277857Y-148780868D03*
X350037857Y-148953500D03*
X365157857Y-148953500D03*
X367317857Y-148953500D03*
X339237857Y-148953500D03*
X200997857Y-148953500D03*
X194517857Y-148953500D03*
X207477857Y-148953500D03*
X188037857Y-148953500D03*
X334917857Y-148953500D03*
X362997857Y-148953500D03*
X181557857Y-148953500D03*
X168597857Y-148953500D03*
X330597857Y-148953500D03*
X352197857Y-148953500D03*
X345717857Y-148953500D03*
X185877857Y-148953500D03*
X354357857Y-148953500D03*
X373797857Y-148953500D03*
X347877857Y-148953500D03*
X190197857Y-148953500D03*
X175077857Y-148953500D03*
X360837857Y-148953500D03*
X192357857Y-148953500D03*
X341397857Y-148953500D03*
X164277857Y-148953500D03*
%TO.N,/PAD3_RX1*%
X239877857Y-157953500D03*
X383500000Y-135850000D03*
X175077857Y-157953500D03*
X244197857Y-157953500D03*
X190197857Y-157953500D03*
X233397857Y-157953500D03*
X242037857Y-157953500D03*
X177237857Y-157953500D03*
X265797857Y-158126131D03*
X222597857Y-157953500D03*
X166437857Y-157953500D03*
X183717857Y-157953500D03*
X237717857Y-157953500D03*
X181557857Y-157953500D03*
X207477857Y-157953500D03*
X261477857Y-157953500D03*
X172917857Y-157953500D03*
X220437857Y-157953500D03*
X168597857Y-157953500D03*
X192357857Y-157953500D03*
X246357857Y-157953500D03*
X179397857Y-157953500D03*
X226917857Y-157953500D03*
X211797857Y-157953500D03*
X203157857Y-157953500D03*
X196677857Y-157953500D03*
X164277857Y-158126131D03*
X194517857Y-157953500D03*
X250677857Y-157953500D03*
X257157857Y-157953500D03*
X185877857Y-157953500D03*
X209637857Y-157953500D03*
X188037857Y-157953500D03*
X200997857Y-157953500D03*
X235557857Y-157953500D03*
X252837857Y-157953500D03*
X198837857Y-157953500D03*
X205317857Y-157953500D03*
X259317857Y-157953500D03*
X231237857Y-157953500D03*
X213957857Y-157953500D03*
X263637857Y-157953500D03*
X216117857Y-157953500D03*
X248517857Y-157953500D03*
X170757857Y-157953500D03*
X224757857Y-157953500D03*
X254997857Y-157953500D03*
X229077857Y-157953500D03*
X218277857Y-157953500D03*
%TO.N,/PAD3_RX2*%
X231237857Y-148953500D03*
X259317857Y-148953500D03*
X252837857Y-148953500D03*
X285237857Y-148953500D03*
X246357857Y-148953500D03*
X233397857Y-148953500D03*
X226917857Y-148953500D03*
X272277857Y-148953500D03*
X311157857Y-148953500D03*
X296037857Y-148953500D03*
X235557857Y-148953500D03*
X229077857Y-148953500D03*
X248517857Y-148953500D03*
X270117857Y-148953500D03*
X250677857Y-148953500D03*
X298197857Y-148953500D03*
X222597857Y-148953500D03*
X308997857Y-148953500D03*
X278757857Y-148953500D03*
X220437857Y-148953500D03*
X304677857Y-148953500D03*
X319797857Y-148780868D03*
X276597857Y-148953500D03*
X293877857Y-148953500D03*
X261477857Y-148953500D03*
X306837857Y-148953500D03*
X283077857Y-148953500D03*
X388000000Y-135350000D03*
X300357857Y-148953500D03*
X280917857Y-148953500D03*
X257157857Y-148953500D03*
X315477857Y-148953500D03*
X267957857Y-148953500D03*
X239877857Y-148953500D03*
X218277857Y-148780868D03*
X242037857Y-148953500D03*
X289557857Y-148953500D03*
X302517857Y-148953500D03*
X317637857Y-148953500D03*
X224757857Y-148953500D03*
X263637857Y-148953500D03*
X244197857Y-148953500D03*
X274437857Y-148953500D03*
X265797857Y-148953500D03*
X313317857Y-148953500D03*
X237717857Y-148953500D03*
X254997857Y-148953500D03*
X291717857Y-148953500D03*
X287397857Y-148953500D03*
%TO.N,/PAD3_RX3*%
X347877857Y-157953500D03*
X302517857Y-157953500D03*
X367317857Y-157953500D03*
X352197857Y-157953500D03*
X369477857Y-157953500D03*
X345717857Y-157953500D03*
X358677857Y-157953500D03*
X308997857Y-157953500D03*
X334917857Y-156253499D03*
X356517857Y-157953500D03*
X319797857Y-157953500D03*
X324117857Y-156253499D03*
X321957857Y-157953500D03*
X354357857Y-157953500D03*
X373797857Y-158126131D03*
X390920000Y-136350000D03*
X296037857Y-157953500D03*
X365157857Y-157953500D03*
X315477857Y-157953500D03*
X313317857Y-157953500D03*
X272277857Y-158126131D03*
X280917857Y-157953500D03*
X278757857Y-157953500D03*
X326277857Y-156253499D03*
X362997857Y-157953500D03*
X283077857Y-157953500D03*
X289557857Y-157953500D03*
X274437857Y-157953500D03*
X285237857Y-157953500D03*
X343557857Y-157953500D03*
X371637857Y-157953500D03*
X337077857Y-157953500D03*
X332757857Y-156253499D03*
X291717857Y-157953500D03*
X276597857Y-157953500D03*
X298197857Y-157953500D03*
X360837857Y-157953500D03*
X300357857Y-157953500D03*
X311157857Y-157953500D03*
X304677857Y-157953500D03*
X339237857Y-157953500D03*
X350037857Y-157953500D03*
X330597857Y-156253499D03*
X287397857Y-157953500D03*
X293877857Y-157953500D03*
X317637857Y-157953500D03*
X328437857Y-156253499D03*
X341397857Y-157953500D03*
X306837857Y-157953500D03*
%TO.N,/PAD4_RX0*%
X337077857Y-166953500D03*
X172917857Y-166953500D03*
X190197857Y-166953500D03*
X196677857Y-166953500D03*
X170757857Y-166953500D03*
X345717857Y-166953500D03*
X177237857Y-166953500D03*
X362997857Y-166953500D03*
X369477857Y-166953500D03*
X339237857Y-166953500D03*
X164277857Y-166953500D03*
X380700000Y-142350000D03*
X188037857Y-166953500D03*
X166437857Y-166953500D03*
X207477857Y-166953500D03*
X205317857Y-166953500D03*
X360837857Y-166953500D03*
X367317857Y-166953500D03*
X203157857Y-166953500D03*
X352197857Y-166953500D03*
X371637857Y-166953500D03*
X211797857Y-166780868D03*
X354357857Y-166953500D03*
X343557857Y-166953500D03*
X358677857Y-166953500D03*
X168597857Y-166953500D03*
X192357857Y-166953500D03*
X194517857Y-166953500D03*
X181557857Y-166953500D03*
X198837857Y-166953500D03*
X162117857Y-166953500D03*
X341397857Y-166953500D03*
X356517857Y-166953500D03*
X183717857Y-166953500D03*
X200997857Y-166953500D03*
X365157857Y-166953500D03*
X209637857Y-166953500D03*
X375957857Y-166953500D03*
X179397857Y-166953500D03*
X373797857Y-166953500D03*
X347877857Y-166953500D03*
X350037857Y-166953500D03*
X175077857Y-166953500D03*
X185877857Y-166953500D03*
%TO.N,/PAD4_RX1*%
X198837857Y-175953500D03*
X259317857Y-175953500D03*
X248517857Y-175953500D03*
X200997857Y-175953500D03*
X190197857Y-175953500D03*
X237717857Y-175953500D03*
X188037857Y-175953500D03*
X224757857Y-175953500D03*
X216117857Y-175953500D03*
X185877857Y-175953500D03*
X265797857Y-176126131D03*
X222597857Y-175953500D03*
X192357857Y-175953500D03*
X246357857Y-175953500D03*
X235557857Y-175953500D03*
X233397857Y-175953500D03*
X239877857Y-175953500D03*
X194517857Y-175953500D03*
X205317857Y-175953500D03*
X263637857Y-175953500D03*
X242037857Y-175953500D03*
X231237857Y-175953500D03*
X252837857Y-175953500D03*
X257157857Y-175953500D03*
X207477857Y-175953500D03*
X244197857Y-175953500D03*
X196677857Y-175953500D03*
X166437857Y-175953500D03*
X213957857Y-175953500D03*
X172917857Y-175953500D03*
X164277857Y-176126131D03*
X220437857Y-175953500D03*
X261477857Y-175953500D03*
X229077857Y-175953500D03*
X177237857Y-175953500D03*
X175077857Y-175953500D03*
X170757857Y-175953500D03*
X226917857Y-175953500D03*
X211797857Y-175953500D03*
X254997857Y-175953500D03*
X179397857Y-175953500D03*
X168597857Y-175953500D03*
X181557857Y-175953500D03*
X203157857Y-175953500D03*
X183717857Y-175953500D03*
X209637857Y-175953500D03*
X218277857Y-175953500D03*
X250677857Y-175953500D03*
X383500000Y-141350000D03*
%TO.N,/PAD4_RX2*%
X274437857Y-166953500D03*
X267957857Y-166953500D03*
X308997857Y-166953500D03*
X302517857Y-166953500D03*
X220437857Y-166953500D03*
X293877857Y-166953500D03*
X298197857Y-166953500D03*
X319797857Y-166780868D03*
X261477857Y-166953500D03*
X242037857Y-166953500D03*
X317637857Y-166953500D03*
X246357857Y-166953500D03*
X265797857Y-166953500D03*
X231237857Y-166953500D03*
X313317857Y-166953500D03*
X224757857Y-166953500D03*
X222597857Y-166953500D03*
X229077857Y-166953500D03*
X306837857Y-166953500D03*
X244197857Y-166953500D03*
X315477857Y-166953500D03*
X257157857Y-166953500D03*
X272277857Y-166953500D03*
X235557857Y-166953500D03*
X239877857Y-166953500D03*
X278757857Y-166953500D03*
X300357857Y-166953500D03*
X254997857Y-166953500D03*
X252837857Y-166953500D03*
X237717857Y-166953500D03*
X289557857Y-166953500D03*
X259317857Y-166953500D03*
X263637857Y-166953500D03*
X285237857Y-166953500D03*
X276597857Y-166953500D03*
X270117857Y-166953500D03*
X250677857Y-166953500D03*
X287397857Y-166953500D03*
X218277857Y-166780868D03*
X233397857Y-166953500D03*
X291717857Y-166953500D03*
X248517857Y-166953500D03*
X388000000Y-141850000D03*
X283077857Y-166953500D03*
X311157857Y-166953500D03*
X296037857Y-166953500D03*
X304677857Y-166953500D03*
X280917857Y-166953500D03*
X226917857Y-166953500D03*
%TO.N,/PAD4_RX3*%
X321957857Y-175953500D03*
X272277857Y-176126131D03*
X358677857Y-175953500D03*
X324117857Y-175953500D03*
X298197857Y-175953500D03*
X362997857Y-175953500D03*
X293877857Y-175953500D03*
X369477857Y-175953500D03*
X287397857Y-175953500D03*
X354357857Y-175953500D03*
X339237857Y-175953500D03*
X334917857Y-175953500D03*
X347877857Y-175953500D03*
X278757857Y-175953500D03*
X341397857Y-175953500D03*
X283077857Y-175953500D03*
X365157857Y-175953500D03*
X280917857Y-175953500D03*
X328437857Y-175953500D03*
X360837857Y-175953500D03*
X371637857Y-175953500D03*
X350037857Y-175953500D03*
X337077857Y-175953500D03*
X304677857Y-175953500D03*
X317637857Y-175953500D03*
X332757857Y-175953500D03*
X296037857Y-175953500D03*
X343557857Y-175953500D03*
X291717857Y-175953500D03*
X276597857Y-175953500D03*
X315477857Y-175953500D03*
X373797857Y-176126131D03*
X274437857Y-175953500D03*
X313317857Y-175953500D03*
X311157857Y-175953500D03*
X306837857Y-175953500D03*
X326277857Y-175953500D03*
X300357857Y-175953500D03*
X302517857Y-175953500D03*
X308997857Y-175953500D03*
X367317857Y-175953500D03*
X356517857Y-175953500D03*
X289557857Y-175953500D03*
X352197857Y-175953500D03*
X319797857Y-175953500D03*
X345717857Y-175953500D03*
X390920000Y-140850000D03*
X285237857Y-175953500D03*
X330597857Y-175953500D03*
%TO.N,/CAP2.0*%
X384778500Y-139852200D03*
X381525000Y-139852200D03*
%TD*%
D23*
%TO.N,/GND*%
X385250000Y-144875000D02*
X384750000Y-143150000D01*
X389050000Y-157645700D02*
X388550000Y-157145700D01*
D24*
X388550000Y-157145700D02*
X388550000Y-156750000D01*
D23*
X387350000Y-163400000D02*
X387350000Y-165900000D01*
D25*
X323915000Y-159075000D02*
X326455000Y-159075000D01*
D23*
X381000000Y-143150000D02*
X381240000Y-143870000D01*
X389050000Y-161976900D02*
X388773100Y-161976900D01*
X384200000Y-131150000D02*
X384750000Y-131150000D01*
X384200000Y-125150000D02*
X384750000Y-125150000D01*
X379925000Y-161570660D02*
X379925000Y-162800000D01*
X387350000Y-165900000D02*
X386510000Y-165900000D01*
X378300000Y-155200000D02*
X378300000Y-154000000D01*
X334075000Y-159075000D02*
X335900000Y-159075000D01*
X389050000Y-161175000D02*
X389050000Y-161976900D01*
X391620000Y-143150000D02*
X393180000Y-143150000D01*
X388773100Y-161976900D02*
X387350000Y-163400000D01*
X391620000Y-137150000D02*
X392170000Y-137150000D01*
X388550000Y-156750000D02*
X388550000Y-157350000D01*
X388700000Y-137150000D02*
X389250000Y-137150000D01*
X384200000Y-143150000D02*
X384750000Y-143150000D01*
X389050000Y-161175000D02*
X389050000Y-157645700D01*
D25*
X326455000Y-159075000D02*
X328995000Y-159075000D01*
X328995000Y-159075000D02*
X331535000Y-159075000D01*
D23*
X384200000Y-137150000D02*
X384750000Y-137150000D01*
X387350000Y-163400000D02*
X386510000Y-163760000D01*
X381000000Y-125150000D02*
X381550000Y-125150000D01*
D25*
X331535000Y-159075000D02*
X334075000Y-159075000D01*
D23*
X389050000Y-161175000D02*
X389890000Y-161175000D01*
X388700000Y-125150000D02*
X389250000Y-125150000D01*
X388700000Y-131150000D02*
X389250000Y-131150000D01*
X380437020Y-161058640D02*
X379925000Y-161570660D01*
X379925000Y-162800000D02*
X380725000Y-163600000D01*
X335900000Y-159075000D02*
X340900000Y-159250000D01*
X391620000Y-125150000D02*
X392170000Y-125150000D01*
X391620000Y-131150000D02*
X392170000Y-131150000D01*
X381000000Y-137150000D02*
X381550000Y-137150000D01*
X388700000Y-143150000D02*
X388849999Y-140750000D01*
X381000000Y-131150000D02*
X381550000Y-131150000D01*
D26*
%TO.N,/MSP430_RXD*%
X328995000Y-165925000D02*
X328995000Y-163725000D01*
X351200000Y-162975000D02*
X377774500Y-162975000D01*
X328995000Y-162825000D02*
X336000000Y-162825000D01*
X328995000Y-163725000D02*
X328995000Y-162825000D01*
X377774500Y-162975000D02*
X379550000Y-164750500D01*
X384200000Y-160200000D02*
X385200000Y-159200000D01*
X384200000Y-160200000D02*
X383250000Y-160200000D01*
X385200000Y-159200000D02*
X385200000Y-158100000D01*
X336000000Y-162825000D02*
X339500000Y-162975000D01*
X339500000Y-162975000D02*
X351200000Y-162975000D01*
%TO.N,/MSP430_TXD*%
X347600000Y-161675000D02*
X362000000Y-161675000D01*
X385700000Y-160900000D02*
X385700000Y-158100000D01*
X326455000Y-165925000D02*
X326455000Y-163725000D01*
X326455000Y-162375000D02*
X336600000Y-162375000D01*
X326455000Y-163725000D02*
X326455000Y-162375000D01*
X378882130Y-161675000D02*
X379518950Y-161038180D01*
X362000000Y-161675000D02*
X362000000Y-161775000D01*
X336600000Y-162375000D02*
X339500000Y-161675000D01*
X362000000Y-161675000D02*
X378882130Y-161675000D01*
X339500000Y-161675000D02*
X347600000Y-161675000D01*
%TO.N,/MSP_RST*%
X383392600Y-164329900D02*
X384950000Y-162772499D01*
X336000000Y-163274999D02*
X339500000Y-164275000D01*
X354800000Y-164275000D02*
X377500000Y-164275000D01*
X386700000Y-159788000D02*
X386700000Y-158100000D01*
X381587300Y-163089100D02*
X381415600Y-162917400D01*
D27*
X381415600Y-162917400D02*
X381317400Y-162917400D01*
D26*
X381200000Y-165375000D02*
X381587300Y-164987700D01*
X380725000Y-162325000D02*
X380725000Y-162200000D01*
X386680400Y-159807599D02*
X386700000Y-159788000D01*
X381846500Y-162829900D02*
X382775000Y-162829900D01*
X331535000Y-163274999D02*
X336000000Y-163274999D01*
X381587300Y-163089100D02*
X381846500Y-162829900D01*
X339500000Y-164275000D02*
X354800000Y-164275000D01*
X382775000Y-162829900D02*
X382775000Y-162100000D01*
D27*
X381317400Y-162917400D02*
X380725000Y-162325000D01*
D26*
X331535000Y-163725000D02*
X331535000Y-163274999D01*
X381587300Y-164108000D02*
X381587300Y-163089100D01*
X381809200Y-164329900D02*
X383392600Y-164329900D01*
X381587300Y-164987700D02*
X381587300Y-164108000D01*
X381587300Y-164108000D02*
X381809200Y-164329900D01*
X384950000Y-162772499D02*
X384950000Y-162259500D01*
X377500000Y-164275000D02*
X378600000Y-165375000D01*
X378600000Y-165375000D02*
X381200000Y-165375000D01*
X331535000Y-165925000D02*
X331535000Y-163725000D01*
%TO.N,/MSP_TEST*%
X336000000Y-164024999D02*
X339500000Y-165575000D01*
X383120500Y-166175000D02*
X387161100Y-162134400D01*
X334075000Y-165925000D02*
X334075000Y-164024999D01*
X339500000Y-165575000D02*
X358400000Y-165575000D01*
X358400000Y-165575000D02*
X359000000Y-166175000D01*
X334075000Y-164024999D02*
X336000000Y-164024999D01*
X386200000Y-156785800D02*
X386200000Y-158100000D01*
X359000000Y-166175000D02*
X383120500Y-166175000D01*
D23*
%TO.N,/P3V3_MSP430*%
X387650000Y-161175000D02*
X387650000Y-158550000D01*
X362000000Y-160375000D02*
X362000000Y-160275000D01*
X386470200Y-161602900D02*
X383565500Y-161602900D01*
X387650000Y-161175000D02*
X386898100Y-161175000D01*
X379326900Y-157200000D02*
X379326900Y-158531799D01*
X362000000Y-160375000D02*
X377500000Y-160375000D01*
X323915000Y-165925000D02*
X323915000Y-163750000D01*
X386898100Y-161175000D02*
X386470200Y-161602900D01*
X323915000Y-161899999D02*
X336000000Y-161899999D01*
X344000000Y-160375000D02*
X362000000Y-160375000D01*
X379326900Y-158531799D02*
X380995100Y-160200000D01*
X383565500Y-161602900D02*
X383565500Y-162809500D01*
X378300000Y-157200000D02*
X379326900Y-157200000D01*
X381750000Y-160200000D02*
X380995100Y-160200000D01*
X383565500Y-162809500D02*
X382775000Y-163600000D01*
X336000000Y-161899999D02*
X339500000Y-160375000D01*
D24*
X387650000Y-158550000D02*
X387200000Y-158100000D01*
D23*
X377500000Y-160375000D02*
X380820099Y-160375000D01*
X323915000Y-163750000D02*
X323915000Y-161899999D01*
X383565500Y-161538500D02*
X383131000Y-161104000D01*
X380820099Y-160375000D02*
X380995100Y-160200000D01*
X383565500Y-161602900D02*
X383565500Y-161538500D01*
X383131000Y-161104000D02*
X382654000Y-161104000D01*
X382654000Y-161104000D02*
X381750000Y-160200000D01*
X339500000Y-160375000D02*
X344000000Y-160375000D01*
D26*
%TO.N,/MSP_VREG*%
X385250000Y-146875000D02*
X385250000Y-147906900D01*
X384700000Y-148456900D02*
X384700000Y-149900000D01*
X385250000Y-147906900D02*
X384700000Y-148456900D01*
%TO.N,/MSP_XIN*%
X390900000Y-157655400D02*
X389494600Y-156250000D01*
X389673100Y-163203800D02*
X389476900Y-163400000D01*
X390900000Y-163000000D02*
X389673100Y-163000000D01*
X389494600Y-156250000D02*
X388550000Y-156250000D01*
X388750000Y-163400000D02*
X389476900Y-163400000D01*
X389673100Y-163000000D02*
X389673100Y-163203800D01*
X390900000Y-163000000D02*
X390900000Y-157655400D01*
%TO.N,/MSP_XOUT*%
X392126900Y-165500000D02*
X392126900Y-158236700D01*
X389673100Y-165500000D02*
X389476900Y-165696200D01*
X389640200Y-155750000D02*
X388550000Y-155750000D01*
X392126900Y-158236700D02*
X389640200Y-155750000D01*
X390900000Y-165500000D02*
X389673100Y-165500000D01*
X388750000Y-165900000D02*
X389476900Y-165900000D01*
X389476900Y-165696200D02*
X389476900Y-165900000D01*
X390900000Y-165500000D02*
X392126900Y-165500000D01*
D28*
%TO.N,/PAD1_RX0*%
X380700000Y-122850000D02*
X380300000Y-125150000D01*
X380300000Y-125150000D02*
X380300000Y-126400000D01*
%TO.N,/PAD1_RX1*%
X383500000Y-125150000D02*
X383500000Y-126400000D01*
X383500000Y-123850000D02*
X383500000Y-125150000D01*
%TO.N,/PAD1_RX2*%
X388000000Y-125150000D02*
X388000000Y-126400000D01*
X388000000Y-123350000D02*
X388000000Y-125150000D01*
%TO.N,/PAD1_RX3*%
X390920000Y-124350000D02*
X390920000Y-125150000D01*
X390920000Y-125150000D02*
X390920000Y-126400000D01*
%TO.N,/PAD2_RX0*%
X380700000Y-128850000D02*
X380300000Y-131150000D01*
X380300000Y-131150000D02*
X380300000Y-132400000D01*
%TO.N,/PAD2_RX1*%
X383500000Y-131150000D02*
X383500000Y-132400000D01*
X383500000Y-129850000D02*
X383500000Y-131150000D01*
%TO.N,/PAD2_RX2*%
X388000000Y-129350000D02*
X388000000Y-131150000D01*
X388000000Y-131150000D02*
X388000000Y-132400000D01*
%TO.N,/PAD2_RX3*%
X390920000Y-130350000D02*
X390920000Y-131150000D01*
X390920000Y-131150000D02*
X390920000Y-132400000D01*
%TO.N,/PAD3_RX0*%
X380700000Y-134850000D02*
X380300000Y-137150000D01*
X380300000Y-137150000D02*
X380300000Y-138400000D01*
%TO.N,/PAD3_RX1*%
X383500000Y-137150000D02*
X383500000Y-138400000D01*
X383500000Y-135850000D02*
X383500000Y-137150000D01*
%TO.N,/PAD3_RX2*%
X388000000Y-135350000D02*
X388000000Y-137150000D01*
X388000000Y-137150000D02*
X388000000Y-138400000D01*
%TO.N,/PAD3_RX3*%
X390920000Y-137150000D02*
X390920000Y-138400000D01*
X390920000Y-136350000D02*
X390920000Y-137150000D01*
%TO.N,/PAD4_RX0*%
X380700000Y-142350000D02*
X380300000Y-143150000D01*
X380300000Y-143150000D02*
X380300000Y-144400000D01*
%TO.N,/PAD4_RX1*%
X383500000Y-143150000D02*
X383500000Y-144400000D01*
X383500000Y-141350000D02*
X383500000Y-143150000D01*
%TO.N,/PAD4_RX2*%
X388000000Y-141850000D02*
X388000000Y-143150000D01*
X388000000Y-143150000D02*
X388000000Y-144400000D01*
%TO.N,/PAD4_RX3*%
X390920000Y-140850000D02*
X390920000Y-143150000D01*
X390920000Y-143150000D02*
X390920000Y-144400000D01*
%TO.N,/CAP0.0*%
X378703099Y-130126800D02*
X378703099Y-150920700D01*
X379532400Y-151750000D02*
X380350000Y-151750000D01*
X380300000Y-128529900D02*
X378703099Y-130126800D01*
X380300000Y-127900000D02*
X380300000Y-128529900D01*
X378703099Y-150920700D02*
X379532400Y-151750000D01*
%TO.N,/CAP1.0*%
X383500000Y-127900000D02*
X383500000Y-128529900D01*
X382223800Y-129806100D02*
X383500000Y-128529900D01*
X382223800Y-147887700D02*
X382223800Y-129806100D01*
X382700000Y-149900000D02*
X382700000Y-148363900D01*
X382700000Y-148363900D02*
X382223800Y-147887700D01*
%TO.N,/CAP2.0*%
X385200000Y-149900000D02*
X385200000Y-150750900D01*
X380942900Y-139270100D02*
X381525000Y-139852200D01*
X379306900Y-139735100D02*
X379771900Y-139270100D01*
X388000000Y-127900000D02*
X388000000Y-128529900D01*
X385200000Y-150750900D02*
X384964000Y-150986900D01*
X385559400Y-139071299D02*
X384778500Y-139852200D01*
X388000000Y-128529900D02*
X385559400Y-130970499D01*
X381516100Y-150986900D02*
X379306900Y-148777700D01*
X379306900Y-148777700D02*
X379306900Y-139735100D01*
X384964000Y-150986900D02*
X381516100Y-150986900D01*
X379771900Y-139270100D02*
X380942900Y-139270100D01*
X385559400Y-130970499D02*
X385559400Y-139071299D01*
%TO.N,/CAP3.0*%
X390920000Y-127900000D02*
X390920000Y-128529900D01*
X389864600Y-129585299D02*
X390920000Y-128529900D01*
X387200000Y-149900000D02*
X389596300Y-147503700D01*
X389596300Y-147503700D02*
X389596300Y-137643900D01*
X389596300Y-137643900D02*
X389864600Y-137375600D01*
X389864600Y-137375600D02*
X389864600Y-129585299D01*
%TO.N,/CAP0.1*%
X380300000Y-134529900D02*
X379005000Y-135824900D01*
X379005000Y-149905000D02*
X380350000Y-151250000D01*
X380300000Y-133900000D02*
X380300000Y-134529900D01*
X379005000Y-135824900D02*
X379005000Y-149905000D01*
%TO.N,/CAP1.1*%
X383200000Y-149900000D02*
X383200000Y-148374900D01*
X383500000Y-133900000D02*
X383500000Y-134529900D01*
X382525700Y-147700600D02*
X382525700Y-135504200D01*
X382525700Y-135504200D02*
X383500000Y-134529900D01*
X383200000Y-148374900D02*
X382525700Y-147700600D01*
%TO.N,/CAP2.1*%
X386306299Y-136223600D02*
X388000000Y-134529900D01*
X388000000Y-133900000D02*
X388000000Y-134529900D01*
X385700000Y-148239400D02*
X386306299Y-147633100D01*
X385700000Y-149900000D02*
X385700000Y-148239400D01*
X386306299Y-147633100D02*
X386306299Y-136223600D01*
%TO.N,/CAP3.1*%
X390290100Y-135159800D02*
X390920000Y-134529900D01*
X390920000Y-133900000D02*
X390920000Y-134529900D01*
X389898200Y-137769000D02*
X390290100Y-137377100D01*
X389898200Y-149901799D02*
X389898200Y-137769000D01*
X390290100Y-137377100D02*
X390290100Y-135159800D01*
X388550000Y-151250000D02*
X389898200Y-149901799D01*
%TO.N,/CAP0.2*%
X380300000Y-139900000D02*
X380300000Y-140529900D01*
X381700000Y-149900000D02*
X379641100Y-147841100D01*
X379641100Y-147841100D02*
X379641100Y-141188800D01*
X379641100Y-141188800D02*
X380300000Y-140529900D01*
%TO.N,/CAP1.2*%
X383700000Y-149900000D02*
X383700000Y-148447800D01*
X383500000Y-139900000D02*
X383500000Y-140529900D01*
X382830000Y-141199900D02*
X383500000Y-140529900D01*
X382830000Y-147577800D02*
X382830000Y-141199900D01*
X383700000Y-148447800D02*
X382830000Y-147577800D01*
%TO.N,/CAP2.2*%
X386200000Y-148238600D02*
X386608200Y-147830400D01*
X386608200Y-147830400D02*
X386608200Y-141921700D01*
X388000000Y-139900000D02*
X388000000Y-140529900D01*
X386608200Y-141921700D02*
X388000000Y-140529900D01*
X386200000Y-149900000D02*
X386200000Y-148238600D01*
%TO.N,/CAP3.2*%
X389384700Y-151750000D02*
X390200099Y-150934600D01*
X388550000Y-151750000D02*
X389384700Y-151750000D01*
X390200099Y-150934600D02*
X390200099Y-140619900D01*
X390200099Y-140619900D02*
X390920000Y-139900000D01*
%TO.N,/CAP0.3*%
X380300000Y-146529900D02*
X382200000Y-148429900D01*
X380300000Y-145900000D02*
X380300000Y-146529900D01*
X382200000Y-148429900D02*
X382200000Y-149900000D01*
%TO.N,/CAP1.3*%
X383500000Y-146529900D02*
X384200000Y-147229900D01*
X384200000Y-147229900D02*
X384200000Y-149900000D01*
X383500000Y-145900000D02*
X383500000Y-146529900D01*
%TO.N,/CAP2.3*%
X388000000Y-145900000D02*
X388000000Y-146529900D01*
X386700000Y-149900000D02*
X386700000Y-148165600D01*
X386700000Y-148165600D02*
X388000000Y-146865600D01*
X388000000Y-146865600D02*
X388000000Y-146529900D01*
D29*
%TO.N,/CAP3.3*%
X390664500Y-152125600D02*
X388674400Y-152125600D01*
D28*
X390920000Y-145900000D02*
X390920000Y-146529900D01*
D29*
X388674400Y-152125600D02*
X388550000Y-152250000D01*
D28*
X390664500Y-146785399D02*
X390664500Y-152125600D01*
X390920000Y-146529900D02*
X390664500Y-146785399D01*
%TD*%
M02*
