%TF.GenerationSoftware,KiCad,Pcbnew,7.0.8*%
%TF.CreationDate,2026-09-29T15:25:07-05:00*%
%TF.ProjectId,vuulgaris-faceplate,7675756c-6761-4726-9973-2d6661636570,0*%
%TF.SameCoordinates,Original*%
%TF.FileFunction,Legend,Bot*%
%TF.FilePolarity,Positive*%
%FSLAX46Y46*%
G04 Gerber Fmt 4.6, Leading zero omitted, Abs format (unit mm)*
G04 Created by KiCad (PCBNEW 7.0.8) date 2026-09-29 15:25:07*
%MOMM*%
%LPD*%
G01*
G04 APERTURE LIST*
%ADD10C,0.120000*%
%ADD11C,0.150000*%
%ADD12C,0.060000*%
%ADD13C,0.250000*%
%ADD14C,0.210000*%
G04 APERTURE END LIST*
D10*
X382663855Y-144635714D02*
X382282902Y-144369047D01*
X382663855Y-144178571D02*
X381863855Y-144178571D01*
X381863855Y-144178571D02*
X381863855Y-144483333D01*
X381863855Y-144483333D02*
X381901950Y-144559523D01*
X381901950Y-144559523D02*
X381940045Y-144597618D01*
X381940045Y-144597618D02*
X382016236Y-144635714D01*
X382016236Y-144635714D02*
X382130521Y-144635714D01*
X382130521Y-144635714D02*
X382206712Y-144597618D01*
X382206712Y-144597618D02*
X382244807Y-144559523D01*
X382244807Y-144559523D02*
X382282902Y-144483333D01*
X382282902Y-144483333D02*
X382282902Y-144178571D01*
X382130521Y-145321428D02*
X382663855Y-145321428D01*
X381825760Y-145130952D02*
X382397188Y-144940475D01*
X382397188Y-144940475D02*
X382397188Y-145435714D01*
X381940045Y-145702380D02*
X381901950Y-145740476D01*
X381901950Y-145740476D02*
X381863855Y-145816666D01*
X381863855Y-145816666D02*
X381863855Y-146007142D01*
X381863855Y-146007142D02*
X381901950Y-146083333D01*
X381901950Y-146083333D02*
X381940045Y-146121428D01*
X381940045Y-146121428D02*
X382016236Y-146159523D01*
X382016236Y-146159523D02*
X382092426Y-146159523D01*
X382092426Y-146159523D02*
X382206712Y-146121428D01*
X382206712Y-146121428D02*
X382663855Y-145664285D01*
X382663855Y-145664285D02*
X382663855Y-146159523D01*
X380133332Y-160563855D02*
X380399999Y-160182902D01*
X380590475Y-160563855D02*
X380590475Y-159763855D01*
X380590475Y-159763855D02*
X380285713Y-159763855D01*
X380285713Y-159763855D02*
X380209523Y-159801950D01*
X380209523Y-159801950D02*
X380171428Y-159840045D01*
X380171428Y-159840045D02*
X380133332Y-159916236D01*
X380133332Y-159916236D02*
X380133332Y-160030521D01*
X380133332Y-160030521D02*
X380171428Y-160106712D01*
X380171428Y-160106712D02*
X380209523Y-160144807D01*
X380209523Y-160144807D02*
X380285713Y-160182902D01*
X380285713Y-160182902D02*
X380590475Y-160182902D01*
X379866666Y-159763855D02*
X379371428Y-159763855D01*
X379371428Y-159763855D02*
X379638094Y-160068617D01*
X379638094Y-160068617D02*
X379523809Y-160068617D01*
X379523809Y-160068617D02*
X379447618Y-160106712D01*
X379447618Y-160106712D02*
X379409523Y-160144807D01*
X379409523Y-160144807D02*
X379371428Y-160220998D01*
X379371428Y-160220998D02*
X379371428Y-160411474D01*
X379371428Y-160411474D02*
X379409523Y-160487664D01*
X379409523Y-160487664D02*
X379447618Y-160525760D01*
X379447618Y-160525760D02*
X379523809Y-160563855D01*
X379523809Y-160563855D02*
X379752380Y-160563855D01*
X379752380Y-160563855D02*
X379828571Y-160525760D01*
X379828571Y-160525760D02*
X379866666Y-160487664D01*
X363733332Y-161388855D02*
X363999999Y-161007902D01*
X364190475Y-161388855D02*
X364190475Y-160588855D01*
X364190475Y-160588855D02*
X363885713Y-160588855D01*
X363885713Y-160588855D02*
X363809523Y-160626950D01*
X363809523Y-160626950D02*
X363771428Y-160665045D01*
X363771428Y-160665045D02*
X363733332Y-160741236D01*
X363733332Y-160741236D02*
X363733332Y-160855521D01*
X363733332Y-160855521D02*
X363771428Y-160931712D01*
X363771428Y-160931712D02*
X363809523Y-160969807D01*
X363809523Y-160969807D02*
X363885713Y-161007902D01*
X363885713Y-161007902D02*
X364190475Y-161007902D01*
X363428571Y-160665045D02*
X363390475Y-160626950D01*
X363390475Y-160626950D02*
X363314285Y-160588855D01*
X363314285Y-160588855D02*
X363123809Y-160588855D01*
X363123809Y-160588855D02*
X363047618Y-160626950D01*
X363047618Y-160626950D02*
X363009523Y-160665045D01*
X363009523Y-160665045D02*
X362971428Y-160741236D01*
X362971428Y-160741236D02*
X362971428Y-160817426D01*
X362971428Y-160817426D02*
X363009523Y-160931712D01*
X363009523Y-160931712D02*
X363466666Y-161388855D01*
X363466666Y-161388855D02*
X362971428Y-161388855D01*
X390083855Y-144635714D02*
X389702902Y-144369047D01*
X390083855Y-144178571D02*
X389283855Y-144178571D01*
X389283855Y-144178571D02*
X389283855Y-144483333D01*
X389283855Y-144483333D02*
X389321950Y-144559523D01*
X389321950Y-144559523D02*
X389360045Y-144597618D01*
X389360045Y-144597618D02*
X389436236Y-144635714D01*
X389436236Y-144635714D02*
X389550521Y-144635714D01*
X389550521Y-144635714D02*
X389626712Y-144597618D01*
X389626712Y-144597618D02*
X389664807Y-144559523D01*
X389664807Y-144559523D02*
X389702902Y-144483333D01*
X389702902Y-144483333D02*
X389702902Y-144178571D01*
X389550521Y-145321428D02*
X390083855Y-145321428D01*
X389245760Y-145130952D02*
X389817188Y-144940475D01*
X389817188Y-144940475D02*
X389817188Y-145435714D01*
X389550521Y-146083333D02*
X390083855Y-146083333D01*
X389245760Y-145892857D02*
X389817188Y-145702380D01*
X389817188Y-145702380D02*
X389817188Y-146197619D01*
X382908332Y-166013855D02*
X383174999Y-165632902D01*
X383365475Y-166013855D02*
X383365475Y-165213855D01*
X383365475Y-165213855D02*
X383060713Y-165213855D01*
X383060713Y-165213855D02*
X382984523Y-165251950D01*
X382984523Y-165251950D02*
X382946428Y-165290045D01*
X382946428Y-165290045D02*
X382908332Y-165366236D01*
X382908332Y-165366236D02*
X382908332Y-165480521D01*
X382908332Y-165480521D02*
X382946428Y-165556712D01*
X382946428Y-165556712D02*
X382984523Y-165594807D01*
X382984523Y-165594807D02*
X383060713Y-165632902D01*
X383060713Y-165632902D02*
X383365475Y-165632902D01*
X382146428Y-166013855D02*
X382603571Y-166013855D01*
X382374999Y-166013855D02*
X382374999Y-165213855D01*
X382374999Y-165213855D02*
X382451190Y-165328140D01*
X382451190Y-165328140D02*
X382527380Y-165404331D01*
X382527380Y-165404331D02*
X382603571Y-165442426D01*
X378433332Y-153887664D02*
X378471428Y-153925760D01*
X378471428Y-153925760D02*
X378585713Y-153963855D01*
X378585713Y-153963855D02*
X378661904Y-153963855D01*
X378661904Y-153963855D02*
X378776190Y-153925760D01*
X378776190Y-153925760D02*
X378852380Y-153849569D01*
X378852380Y-153849569D02*
X378890475Y-153773379D01*
X378890475Y-153773379D02*
X378928571Y-153620998D01*
X378928571Y-153620998D02*
X378928571Y-153506712D01*
X378928571Y-153506712D02*
X378890475Y-153354331D01*
X378890475Y-153354331D02*
X378852380Y-153278140D01*
X378852380Y-153278140D02*
X378776190Y-153201950D01*
X378776190Y-153201950D02*
X378661904Y-153163855D01*
X378661904Y-153163855D02*
X378585713Y-153163855D01*
X378585713Y-153163855D02*
X378471428Y-153201950D01*
X378471428Y-153201950D02*
X378433332Y-153240045D01*
X377671428Y-153963855D02*
X378128571Y-153963855D01*
X377899999Y-153963855D02*
X377899999Y-153163855D01*
X377899999Y-153163855D02*
X377976190Y-153278140D01*
X377976190Y-153278140D02*
X378052380Y-153354331D01*
X378052380Y-153354331D02*
X378128571Y-153392426D01*
X390083855Y-132635714D02*
X389702902Y-132369047D01*
X390083855Y-132178571D02*
X389283855Y-132178571D01*
X389283855Y-132178571D02*
X389283855Y-132483333D01*
X389283855Y-132483333D02*
X389321950Y-132559523D01*
X389321950Y-132559523D02*
X389360045Y-132597618D01*
X389360045Y-132597618D02*
X389436236Y-132635714D01*
X389436236Y-132635714D02*
X389550521Y-132635714D01*
X389550521Y-132635714D02*
X389626712Y-132597618D01*
X389626712Y-132597618D02*
X389664807Y-132559523D01*
X389664807Y-132559523D02*
X389702902Y-132483333D01*
X389702902Y-132483333D02*
X389702902Y-132178571D01*
X389360045Y-132940475D02*
X389321950Y-132978571D01*
X389321950Y-132978571D02*
X389283855Y-133054761D01*
X389283855Y-133054761D02*
X389283855Y-133245237D01*
X389283855Y-133245237D02*
X389321950Y-133321428D01*
X389321950Y-133321428D02*
X389360045Y-133359523D01*
X389360045Y-133359523D02*
X389436236Y-133397618D01*
X389436236Y-133397618D02*
X389512426Y-133397618D01*
X389512426Y-133397618D02*
X389626712Y-133359523D01*
X389626712Y-133359523D02*
X390083855Y-132902380D01*
X390083855Y-132902380D02*
X390083855Y-133397618D01*
X389550521Y-134083333D02*
X390083855Y-134083333D01*
X389245760Y-133892857D02*
X389817188Y-133702380D01*
X389817188Y-133702380D02*
X389817188Y-134197619D01*
X382663855Y-132635714D02*
X382282902Y-132369047D01*
X382663855Y-132178571D02*
X381863855Y-132178571D01*
X381863855Y-132178571D02*
X381863855Y-132483333D01*
X381863855Y-132483333D02*
X381901950Y-132559523D01*
X381901950Y-132559523D02*
X381940045Y-132597618D01*
X381940045Y-132597618D02*
X382016236Y-132635714D01*
X382016236Y-132635714D02*
X382130521Y-132635714D01*
X382130521Y-132635714D02*
X382206712Y-132597618D01*
X382206712Y-132597618D02*
X382244807Y-132559523D01*
X382244807Y-132559523D02*
X382282902Y-132483333D01*
X382282902Y-132483333D02*
X382282902Y-132178571D01*
X381940045Y-132940475D02*
X381901950Y-132978571D01*
X381901950Y-132978571D02*
X381863855Y-133054761D01*
X381863855Y-133054761D02*
X381863855Y-133245237D01*
X381863855Y-133245237D02*
X381901950Y-133321428D01*
X381901950Y-133321428D02*
X381940045Y-133359523D01*
X381940045Y-133359523D02*
X382016236Y-133397618D01*
X382016236Y-133397618D02*
X382092426Y-133397618D01*
X382092426Y-133397618D02*
X382206712Y-133359523D01*
X382206712Y-133359523D02*
X382663855Y-132902380D01*
X382663855Y-132902380D02*
X382663855Y-133397618D01*
X381940045Y-133702380D02*
X381901950Y-133740476D01*
X381901950Y-133740476D02*
X381863855Y-133816666D01*
X381863855Y-133816666D02*
X381863855Y-134007142D01*
X381863855Y-134007142D02*
X381901950Y-134083333D01*
X381901950Y-134083333D02*
X381940045Y-134121428D01*
X381940045Y-134121428D02*
X382016236Y-134159523D01*
X382016236Y-134159523D02*
X382092426Y-134159523D01*
X382092426Y-134159523D02*
X382206712Y-134121428D01*
X382206712Y-134121428D02*
X382663855Y-133664285D01*
X382663855Y-133664285D02*
X382663855Y-134159523D01*
X347220476Y-159588855D02*
X346725238Y-159588855D01*
X346725238Y-159588855D02*
X346991904Y-159893617D01*
X346991904Y-159893617D02*
X346877619Y-159893617D01*
X346877619Y-159893617D02*
X346801428Y-159931712D01*
X346801428Y-159931712D02*
X346763333Y-159969807D01*
X346763333Y-159969807D02*
X346725238Y-160045998D01*
X346725238Y-160045998D02*
X346725238Y-160236474D01*
X346725238Y-160236474D02*
X346763333Y-160312664D01*
X346763333Y-160312664D02*
X346801428Y-160350760D01*
X346801428Y-160350760D02*
X346877619Y-160388855D01*
X346877619Y-160388855D02*
X347106190Y-160388855D01*
X347106190Y-160388855D02*
X347182381Y-160350760D01*
X347182381Y-160350760D02*
X347220476Y-160312664D01*
X346496666Y-159588855D02*
X346229999Y-160388855D01*
X346229999Y-160388855D02*
X345963333Y-159588855D01*
X345772857Y-159588855D02*
X345277619Y-159588855D01*
X345277619Y-159588855D02*
X345544285Y-159893617D01*
X345544285Y-159893617D02*
X345430000Y-159893617D01*
X345430000Y-159893617D02*
X345353809Y-159931712D01*
X345353809Y-159931712D02*
X345315714Y-159969807D01*
X345315714Y-159969807D02*
X345277619Y-160045998D01*
X345277619Y-160045998D02*
X345277619Y-160236474D01*
X345277619Y-160236474D02*
X345315714Y-160312664D01*
X345315714Y-160312664D02*
X345353809Y-160350760D01*
X345353809Y-160350760D02*
X345430000Y-160388855D01*
X345430000Y-160388855D02*
X345658571Y-160388855D01*
X345658571Y-160388855D02*
X345734762Y-160350760D01*
X345734762Y-160350760D02*
X345772857Y-160312664D01*
X387163855Y-132635714D02*
X386782902Y-132369047D01*
X387163855Y-132178571D02*
X386363855Y-132178571D01*
X386363855Y-132178571D02*
X386363855Y-132483333D01*
X386363855Y-132483333D02*
X386401950Y-132559523D01*
X386401950Y-132559523D02*
X386440045Y-132597618D01*
X386440045Y-132597618D02*
X386516236Y-132635714D01*
X386516236Y-132635714D02*
X386630521Y-132635714D01*
X386630521Y-132635714D02*
X386706712Y-132597618D01*
X386706712Y-132597618D02*
X386744807Y-132559523D01*
X386744807Y-132559523D02*
X386782902Y-132483333D01*
X386782902Y-132483333D02*
X386782902Y-132178571D01*
X386440045Y-132940475D02*
X386401950Y-132978571D01*
X386401950Y-132978571D02*
X386363855Y-133054761D01*
X386363855Y-133054761D02*
X386363855Y-133245237D01*
X386363855Y-133245237D02*
X386401950Y-133321428D01*
X386401950Y-133321428D02*
X386440045Y-133359523D01*
X386440045Y-133359523D02*
X386516236Y-133397618D01*
X386516236Y-133397618D02*
X386592426Y-133397618D01*
X386592426Y-133397618D02*
X386706712Y-133359523D01*
X386706712Y-133359523D02*
X387163855Y-132902380D01*
X387163855Y-132902380D02*
X387163855Y-133397618D01*
X386363855Y-133664285D02*
X386363855Y-134159523D01*
X386363855Y-134159523D02*
X386668617Y-133892857D01*
X386668617Y-133892857D02*
X386668617Y-134007142D01*
X386668617Y-134007142D02*
X386706712Y-134083333D01*
X386706712Y-134083333D02*
X386744807Y-134121428D01*
X386744807Y-134121428D02*
X386820998Y-134159523D01*
X386820998Y-134159523D02*
X387011474Y-134159523D01*
X387011474Y-134159523D02*
X387087664Y-134121428D01*
X387087664Y-134121428D02*
X387125760Y-134083333D01*
X387125760Y-134083333D02*
X387163855Y-134007142D01*
X387163855Y-134007142D02*
X387163855Y-133778571D01*
X387163855Y-133778571D02*
X387125760Y-133702380D01*
X387125760Y-133702380D02*
X387087664Y-133664285D01*
X387163855Y-138635714D02*
X386782902Y-138369047D01*
X387163855Y-138178571D02*
X386363855Y-138178571D01*
X386363855Y-138178571D02*
X386363855Y-138483333D01*
X386363855Y-138483333D02*
X386401950Y-138559523D01*
X386401950Y-138559523D02*
X386440045Y-138597618D01*
X386440045Y-138597618D02*
X386516236Y-138635714D01*
X386516236Y-138635714D02*
X386630521Y-138635714D01*
X386630521Y-138635714D02*
X386706712Y-138597618D01*
X386706712Y-138597618D02*
X386744807Y-138559523D01*
X386744807Y-138559523D02*
X386782902Y-138483333D01*
X386782902Y-138483333D02*
X386782902Y-138178571D01*
X386363855Y-138902380D02*
X386363855Y-139397618D01*
X386363855Y-139397618D02*
X386668617Y-139130952D01*
X386668617Y-139130952D02*
X386668617Y-139245237D01*
X386668617Y-139245237D02*
X386706712Y-139321428D01*
X386706712Y-139321428D02*
X386744807Y-139359523D01*
X386744807Y-139359523D02*
X386820998Y-139397618D01*
X386820998Y-139397618D02*
X387011474Y-139397618D01*
X387011474Y-139397618D02*
X387087664Y-139359523D01*
X387087664Y-139359523D02*
X387125760Y-139321428D01*
X387125760Y-139321428D02*
X387163855Y-139245237D01*
X387163855Y-139245237D02*
X387163855Y-139016666D01*
X387163855Y-139016666D02*
X387125760Y-138940475D01*
X387125760Y-138940475D02*
X387087664Y-138902380D01*
X386363855Y-139664285D02*
X386363855Y-140159523D01*
X386363855Y-140159523D02*
X386668617Y-139892857D01*
X386668617Y-139892857D02*
X386668617Y-140007142D01*
X386668617Y-140007142D02*
X386706712Y-140083333D01*
X386706712Y-140083333D02*
X386744807Y-140121428D01*
X386744807Y-140121428D02*
X386820998Y-140159523D01*
X386820998Y-140159523D02*
X387011474Y-140159523D01*
X387011474Y-140159523D02*
X387087664Y-140121428D01*
X387087664Y-140121428D02*
X387125760Y-140083333D01*
X387125760Y-140083333D02*
X387163855Y-140007142D01*
X387163855Y-140007142D02*
X387163855Y-139778571D01*
X387163855Y-139778571D02*
X387125760Y-139702380D01*
X387125760Y-139702380D02*
X387087664Y-139664285D01*
X382663855Y-138635714D02*
X382282902Y-138369047D01*
X382663855Y-138178571D02*
X381863855Y-138178571D01*
X381863855Y-138178571D02*
X381863855Y-138483333D01*
X381863855Y-138483333D02*
X381901950Y-138559523D01*
X381901950Y-138559523D02*
X381940045Y-138597618D01*
X381940045Y-138597618D02*
X382016236Y-138635714D01*
X382016236Y-138635714D02*
X382130521Y-138635714D01*
X382130521Y-138635714D02*
X382206712Y-138597618D01*
X382206712Y-138597618D02*
X382244807Y-138559523D01*
X382244807Y-138559523D02*
X382282902Y-138483333D01*
X382282902Y-138483333D02*
X382282902Y-138178571D01*
X381863855Y-138902380D02*
X381863855Y-139397618D01*
X381863855Y-139397618D02*
X382168617Y-139130952D01*
X382168617Y-139130952D02*
X382168617Y-139245237D01*
X382168617Y-139245237D02*
X382206712Y-139321428D01*
X382206712Y-139321428D02*
X382244807Y-139359523D01*
X382244807Y-139359523D02*
X382320998Y-139397618D01*
X382320998Y-139397618D02*
X382511474Y-139397618D01*
X382511474Y-139397618D02*
X382587664Y-139359523D01*
X382587664Y-139359523D02*
X382625760Y-139321428D01*
X382625760Y-139321428D02*
X382663855Y-139245237D01*
X382663855Y-139245237D02*
X382663855Y-139016666D01*
X382663855Y-139016666D02*
X382625760Y-138940475D01*
X382625760Y-138940475D02*
X382587664Y-138902380D01*
X381940045Y-139702380D02*
X381901950Y-139740476D01*
X381901950Y-139740476D02*
X381863855Y-139816666D01*
X381863855Y-139816666D02*
X381863855Y-140007142D01*
X381863855Y-140007142D02*
X381901950Y-140083333D01*
X381901950Y-140083333D02*
X381940045Y-140121428D01*
X381940045Y-140121428D02*
X382016236Y-140159523D01*
X382016236Y-140159523D02*
X382092426Y-140159523D01*
X382092426Y-140159523D02*
X382206712Y-140121428D01*
X382206712Y-140121428D02*
X382663855Y-139664285D01*
X382663855Y-139664285D02*
X382663855Y-140159523D01*
X390083855Y-138635714D02*
X389702902Y-138369047D01*
X390083855Y-138178571D02*
X389283855Y-138178571D01*
X389283855Y-138178571D02*
X389283855Y-138483333D01*
X389283855Y-138483333D02*
X389321950Y-138559523D01*
X389321950Y-138559523D02*
X389360045Y-138597618D01*
X389360045Y-138597618D02*
X389436236Y-138635714D01*
X389436236Y-138635714D02*
X389550521Y-138635714D01*
X389550521Y-138635714D02*
X389626712Y-138597618D01*
X389626712Y-138597618D02*
X389664807Y-138559523D01*
X389664807Y-138559523D02*
X389702902Y-138483333D01*
X389702902Y-138483333D02*
X389702902Y-138178571D01*
X389283855Y-138902380D02*
X389283855Y-139397618D01*
X389283855Y-139397618D02*
X389588617Y-139130952D01*
X389588617Y-139130952D02*
X389588617Y-139245237D01*
X389588617Y-139245237D02*
X389626712Y-139321428D01*
X389626712Y-139321428D02*
X389664807Y-139359523D01*
X389664807Y-139359523D02*
X389740998Y-139397618D01*
X389740998Y-139397618D02*
X389931474Y-139397618D01*
X389931474Y-139397618D02*
X390007664Y-139359523D01*
X390007664Y-139359523D02*
X390045760Y-139321428D01*
X390045760Y-139321428D02*
X390083855Y-139245237D01*
X390083855Y-139245237D02*
X390083855Y-139016666D01*
X390083855Y-139016666D02*
X390045760Y-138940475D01*
X390045760Y-138940475D02*
X390007664Y-138902380D01*
X389550521Y-140083333D02*
X390083855Y-140083333D01*
X389245760Y-139892857D02*
X389817188Y-139702380D01*
X389817188Y-139702380D02*
X389817188Y-140197619D01*
X385683332Y-166187664D02*
X385721428Y-166225760D01*
X385721428Y-166225760D02*
X385835713Y-166263855D01*
X385835713Y-166263855D02*
X385911904Y-166263855D01*
X385911904Y-166263855D02*
X386026190Y-166225760D01*
X386026190Y-166225760D02*
X386102380Y-166149569D01*
X386102380Y-166149569D02*
X386140475Y-166073379D01*
X386140475Y-166073379D02*
X386178571Y-165920998D01*
X386178571Y-165920998D02*
X386178571Y-165806712D01*
X386178571Y-165806712D02*
X386140475Y-165654331D01*
X386140475Y-165654331D02*
X386102380Y-165578140D01*
X386102380Y-165578140D02*
X386026190Y-165501950D01*
X386026190Y-165501950D02*
X385911904Y-165463855D01*
X385911904Y-165463855D02*
X385835713Y-165463855D01*
X385835713Y-165463855D02*
X385721428Y-165501950D01*
X385721428Y-165501950D02*
X385683332Y-165540045D01*
X384997618Y-165463855D02*
X385149999Y-165463855D01*
X385149999Y-165463855D02*
X385226190Y-165501950D01*
X385226190Y-165501950D02*
X385264285Y-165540045D01*
X385264285Y-165540045D02*
X385340475Y-165654331D01*
X385340475Y-165654331D02*
X385378571Y-165806712D01*
X385378571Y-165806712D02*
X385378571Y-166111474D01*
X385378571Y-166111474D02*
X385340475Y-166187664D01*
X385340475Y-166187664D02*
X385302380Y-166225760D01*
X385302380Y-166225760D02*
X385226190Y-166263855D01*
X385226190Y-166263855D02*
X385073809Y-166263855D01*
X385073809Y-166263855D02*
X384997618Y-166225760D01*
X384997618Y-166225760D02*
X384959523Y-166187664D01*
X384959523Y-166187664D02*
X384921428Y-166111474D01*
X384921428Y-166111474D02*
X384921428Y-165920998D01*
X384921428Y-165920998D02*
X384959523Y-165844807D01*
X384959523Y-165844807D02*
X384997618Y-165806712D01*
X384997618Y-165806712D02*
X385073809Y-165768617D01*
X385073809Y-165768617D02*
X385226190Y-165768617D01*
X385226190Y-165768617D02*
X385302380Y-165806712D01*
X385302380Y-165806712D02*
X385340475Y-165844807D01*
X385340475Y-165844807D02*
X385378571Y-165920998D01*
X385683332Y-163687664D02*
X385721428Y-163725760D01*
X385721428Y-163725760D02*
X385835713Y-163763855D01*
X385835713Y-163763855D02*
X385911904Y-163763855D01*
X385911904Y-163763855D02*
X386026190Y-163725760D01*
X386026190Y-163725760D02*
X386102380Y-163649569D01*
X386102380Y-163649569D02*
X386140475Y-163573379D01*
X386140475Y-163573379D02*
X386178571Y-163420998D01*
X386178571Y-163420998D02*
X386178571Y-163306712D01*
X386178571Y-163306712D02*
X386140475Y-163154331D01*
X386140475Y-163154331D02*
X386102380Y-163078140D01*
X386102380Y-163078140D02*
X386026190Y-163001950D01*
X386026190Y-163001950D02*
X385911904Y-162963855D01*
X385911904Y-162963855D02*
X385835713Y-162963855D01*
X385835713Y-162963855D02*
X385721428Y-163001950D01*
X385721428Y-163001950D02*
X385683332Y-163040045D01*
X384959523Y-162963855D02*
X385340475Y-162963855D01*
X385340475Y-162963855D02*
X385378571Y-163344807D01*
X385378571Y-163344807D02*
X385340475Y-163306712D01*
X385340475Y-163306712D02*
X385264285Y-163268617D01*
X385264285Y-163268617D02*
X385073809Y-163268617D01*
X385073809Y-163268617D02*
X384997618Y-163306712D01*
X384997618Y-163306712D02*
X384959523Y-163344807D01*
X384959523Y-163344807D02*
X384921428Y-163420998D01*
X384921428Y-163420998D02*
X384921428Y-163611474D01*
X384921428Y-163611474D02*
X384959523Y-163687664D01*
X384959523Y-163687664D02*
X384997618Y-163725760D01*
X384997618Y-163725760D02*
X385073809Y-163763855D01*
X385073809Y-163763855D02*
X385264285Y-163763855D01*
X385264285Y-163763855D02*
X385340475Y-163725760D01*
X385340475Y-163725760D02*
X385378571Y-163687664D01*
X385383332Y-142887664D02*
X385421428Y-142925760D01*
X385421428Y-142925760D02*
X385535713Y-142963855D01*
X385535713Y-142963855D02*
X385611904Y-142963855D01*
X385611904Y-142963855D02*
X385726190Y-142925760D01*
X385726190Y-142925760D02*
X385802380Y-142849569D01*
X385802380Y-142849569D02*
X385840475Y-142773379D01*
X385840475Y-142773379D02*
X385878571Y-142620998D01*
X385878571Y-142620998D02*
X385878571Y-142506712D01*
X385878571Y-142506712D02*
X385840475Y-142354331D01*
X385840475Y-142354331D02*
X385802380Y-142278140D01*
X385802380Y-142278140D02*
X385726190Y-142201950D01*
X385726190Y-142201950D02*
X385611904Y-142163855D01*
X385611904Y-142163855D02*
X385535713Y-142163855D01*
X385535713Y-142163855D02*
X385421428Y-142201950D01*
X385421428Y-142201950D02*
X385383332Y-142240045D01*
X385116666Y-142163855D02*
X384621428Y-142163855D01*
X384621428Y-142163855D02*
X384888094Y-142468617D01*
X384888094Y-142468617D02*
X384773809Y-142468617D01*
X384773809Y-142468617D02*
X384697618Y-142506712D01*
X384697618Y-142506712D02*
X384659523Y-142544807D01*
X384659523Y-142544807D02*
X384621428Y-142620998D01*
X384621428Y-142620998D02*
X384621428Y-142811474D01*
X384621428Y-142811474D02*
X384659523Y-142887664D01*
X384659523Y-142887664D02*
X384697618Y-142925760D01*
X384697618Y-142925760D02*
X384773809Y-142963855D01*
X384773809Y-142963855D02*
X385002380Y-142963855D01*
X385002380Y-142963855D02*
X385078571Y-142925760D01*
X385078571Y-142925760D02*
X385116666Y-142887664D01*
X379463855Y-132635714D02*
X379082902Y-132369047D01*
X379463855Y-132178571D02*
X378663855Y-132178571D01*
X378663855Y-132178571D02*
X378663855Y-132483333D01*
X378663855Y-132483333D02*
X378701950Y-132559523D01*
X378701950Y-132559523D02*
X378740045Y-132597618D01*
X378740045Y-132597618D02*
X378816236Y-132635714D01*
X378816236Y-132635714D02*
X378930521Y-132635714D01*
X378930521Y-132635714D02*
X379006712Y-132597618D01*
X379006712Y-132597618D02*
X379044807Y-132559523D01*
X379044807Y-132559523D02*
X379082902Y-132483333D01*
X379082902Y-132483333D02*
X379082902Y-132178571D01*
X378740045Y-132940475D02*
X378701950Y-132978571D01*
X378701950Y-132978571D02*
X378663855Y-133054761D01*
X378663855Y-133054761D02*
X378663855Y-133245237D01*
X378663855Y-133245237D02*
X378701950Y-133321428D01*
X378701950Y-133321428D02*
X378740045Y-133359523D01*
X378740045Y-133359523D02*
X378816236Y-133397618D01*
X378816236Y-133397618D02*
X378892426Y-133397618D01*
X378892426Y-133397618D02*
X379006712Y-133359523D01*
X379006712Y-133359523D02*
X379463855Y-132902380D01*
X379463855Y-132902380D02*
X379463855Y-133397618D01*
X379463855Y-134159523D02*
X379463855Y-133702380D01*
X379463855Y-133930952D02*
X378663855Y-133930952D01*
X378663855Y-133930952D02*
X378778140Y-133854761D01*
X378778140Y-133854761D02*
X378854331Y-133778571D01*
X378854331Y-133778571D02*
X378892426Y-133702380D01*
X343739523Y-158501950D02*
X343815713Y-158463855D01*
X343815713Y-158463855D02*
X343929999Y-158463855D01*
X343929999Y-158463855D02*
X344044285Y-158501950D01*
X344044285Y-158501950D02*
X344120475Y-158578140D01*
X344120475Y-158578140D02*
X344158570Y-158654331D01*
X344158570Y-158654331D02*
X344196666Y-158806712D01*
X344196666Y-158806712D02*
X344196666Y-158920998D01*
X344196666Y-158920998D02*
X344158570Y-159073379D01*
X344158570Y-159073379D02*
X344120475Y-159149569D01*
X344120475Y-159149569D02*
X344044285Y-159225760D01*
X344044285Y-159225760D02*
X343929999Y-159263855D01*
X343929999Y-159263855D02*
X343853808Y-159263855D01*
X343853808Y-159263855D02*
X343739523Y-159225760D01*
X343739523Y-159225760D02*
X343701427Y-159187664D01*
X343701427Y-159187664D02*
X343701427Y-158920998D01*
X343701427Y-158920998D02*
X343853808Y-158920998D01*
X343358570Y-159263855D02*
X343358570Y-158463855D01*
X343358570Y-158463855D02*
X342901427Y-159263855D01*
X342901427Y-159263855D02*
X342901427Y-158463855D01*
X342520475Y-159263855D02*
X342520475Y-158463855D01*
X342520475Y-158463855D02*
X342329999Y-158463855D01*
X342329999Y-158463855D02*
X342215713Y-158501950D01*
X342215713Y-158501950D02*
X342139523Y-158578140D01*
X342139523Y-158578140D02*
X342101428Y-158654331D01*
X342101428Y-158654331D02*
X342063332Y-158806712D01*
X342063332Y-158806712D02*
X342063332Y-158920998D01*
X342063332Y-158920998D02*
X342101428Y-159073379D01*
X342101428Y-159073379D02*
X342139523Y-159149569D01*
X342139523Y-159149569D02*
X342215713Y-159225760D01*
X342215713Y-159225760D02*
X342329999Y-159263855D01*
X342329999Y-159263855D02*
X342520475Y-159263855D01*
X379463855Y-138635714D02*
X379082902Y-138369047D01*
X379463855Y-138178571D02*
X378663855Y-138178571D01*
X378663855Y-138178571D02*
X378663855Y-138483333D01*
X378663855Y-138483333D02*
X378701950Y-138559523D01*
X378701950Y-138559523D02*
X378740045Y-138597618D01*
X378740045Y-138597618D02*
X378816236Y-138635714D01*
X378816236Y-138635714D02*
X378930521Y-138635714D01*
X378930521Y-138635714D02*
X379006712Y-138597618D01*
X379006712Y-138597618D02*
X379044807Y-138559523D01*
X379044807Y-138559523D02*
X379082902Y-138483333D01*
X379082902Y-138483333D02*
X379082902Y-138178571D01*
X378663855Y-138902380D02*
X378663855Y-139397618D01*
X378663855Y-139397618D02*
X378968617Y-139130952D01*
X378968617Y-139130952D02*
X378968617Y-139245237D01*
X378968617Y-139245237D02*
X379006712Y-139321428D01*
X379006712Y-139321428D02*
X379044807Y-139359523D01*
X379044807Y-139359523D02*
X379120998Y-139397618D01*
X379120998Y-139397618D02*
X379311474Y-139397618D01*
X379311474Y-139397618D02*
X379387664Y-139359523D01*
X379387664Y-139359523D02*
X379425760Y-139321428D01*
X379425760Y-139321428D02*
X379463855Y-139245237D01*
X379463855Y-139245237D02*
X379463855Y-139016666D01*
X379463855Y-139016666D02*
X379425760Y-138940475D01*
X379425760Y-138940475D02*
X379387664Y-138902380D01*
X379463855Y-140159523D02*
X379463855Y-139702380D01*
X379463855Y-139930952D02*
X378663855Y-139930952D01*
X378663855Y-139930952D02*
X378778140Y-139854761D01*
X378778140Y-139854761D02*
X378854331Y-139778571D01*
X378854331Y-139778571D02*
X378892426Y-139702380D01*
X390083855Y-126635714D02*
X389702902Y-126369047D01*
X390083855Y-126178571D02*
X389283855Y-126178571D01*
X389283855Y-126178571D02*
X389283855Y-126483333D01*
X389283855Y-126483333D02*
X389321950Y-126559523D01*
X389321950Y-126559523D02*
X389360045Y-126597618D01*
X389360045Y-126597618D02*
X389436236Y-126635714D01*
X389436236Y-126635714D02*
X389550521Y-126635714D01*
X389550521Y-126635714D02*
X389626712Y-126597618D01*
X389626712Y-126597618D02*
X389664807Y-126559523D01*
X389664807Y-126559523D02*
X389702902Y-126483333D01*
X389702902Y-126483333D02*
X389702902Y-126178571D01*
X390083855Y-127397618D02*
X390083855Y-126940475D01*
X390083855Y-127169047D02*
X389283855Y-127169047D01*
X389283855Y-127169047D02*
X389398140Y-127092856D01*
X389398140Y-127092856D02*
X389474331Y-127016666D01*
X389474331Y-127016666D02*
X389512426Y-126940475D01*
X389550521Y-128083333D02*
X390083855Y-128083333D01*
X389245760Y-127892857D02*
X389817188Y-127702380D01*
X389817188Y-127702380D02*
X389817188Y-128197619D01*
D11*
X389904819Y-153238095D02*
X390714342Y-153238095D01*
X390714342Y-153238095D02*
X390809580Y-153285714D01*
X390809580Y-153285714D02*
X390857200Y-153333333D01*
X390857200Y-153333333D02*
X390904819Y-153428571D01*
X390904819Y-153428571D02*
X390904819Y-153619047D01*
X390904819Y-153619047D02*
X390857200Y-153714285D01*
X390857200Y-153714285D02*
X390809580Y-153761904D01*
X390809580Y-153761904D02*
X390714342Y-153809523D01*
X390714342Y-153809523D02*
X389904819Y-153809523D01*
X390904819Y-154809523D02*
X390904819Y-154238095D01*
X390904819Y-154523809D02*
X389904819Y-154523809D01*
X389904819Y-154523809D02*
X390047676Y-154428571D01*
X390047676Y-154428571D02*
X390142914Y-154333333D01*
X390142914Y-154333333D02*
X390190533Y-154238095D01*
D10*
X387163855Y-144635714D02*
X386782902Y-144369047D01*
X387163855Y-144178571D02*
X386363855Y-144178571D01*
X386363855Y-144178571D02*
X386363855Y-144483333D01*
X386363855Y-144483333D02*
X386401950Y-144559523D01*
X386401950Y-144559523D02*
X386440045Y-144597618D01*
X386440045Y-144597618D02*
X386516236Y-144635714D01*
X386516236Y-144635714D02*
X386630521Y-144635714D01*
X386630521Y-144635714D02*
X386706712Y-144597618D01*
X386706712Y-144597618D02*
X386744807Y-144559523D01*
X386744807Y-144559523D02*
X386782902Y-144483333D01*
X386782902Y-144483333D02*
X386782902Y-144178571D01*
X386630521Y-145321428D02*
X387163855Y-145321428D01*
X386325760Y-145130952D02*
X386897188Y-144940475D01*
X386897188Y-144940475D02*
X386897188Y-145435714D01*
X386363855Y-145664285D02*
X386363855Y-146159523D01*
X386363855Y-146159523D02*
X386668617Y-145892857D01*
X386668617Y-145892857D02*
X386668617Y-146007142D01*
X386668617Y-146007142D02*
X386706712Y-146083333D01*
X386706712Y-146083333D02*
X386744807Y-146121428D01*
X386744807Y-146121428D02*
X386820998Y-146159523D01*
X386820998Y-146159523D02*
X387011474Y-146159523D01*
X387011474Y-146159523D02*
X387087664Y-146121428D01*
X387087664Y-146121428D02*
X387125760Y-146083333D01*
X387125760Y-146083333D02*
X387163855Y-146007142D01*
X387163855Y-146007142D02*
X387163855Y-145778571D01*
X387163855Y-145778571D02*
X387125760Y-145702380D01*
X387125760Y-145702380D02*
X387087664Y-145664285D01*
X350129523Y-160888855D02*
X349672380Y-160888855D01*
X349900952Y-161688855D02*
X349900952Y-160888855D01*
X349481904Y-160888855D02*
X348948570Y-161688855D01*
X348948570Y-160888855D02*
X349481904Y-161688855D01*
X385683332Y-161762664D02*
X385721428Y-161800760D01*
X385721428Y-161800760D02*
X385835713Y-161838855D01*
X385835713Y-161838855D02*
X385911904Y-161838855D01*
X385911904Y-161838855D02*
X386026190Y-161800760D01*
X386026190Y-161800760D02*
X386102380Y-161724569D01*
X386102380Y-161724569D02*
X386140475Y-161648379D01*
X386140475Y-161648379D02*
X386178571Y-161495998D01*
X386178571Y-161495998D02*
X386178571Y-161381712D01*
X386178571Y-161381712D02*
X386140475Y-161229331D01*
X386140475Y-161229331D02*
X386102380Y-161153140D01*
X386102380Y-161153140D02*
X386026190Y-161076950D01*
X386026190Y-161076950D02*
X385911904Y-161038855D01*
X385911904Y-161038855D02*
X385835713Y-161038855D01*
X385835713Y-161038855D02*
X385721428Y-161076950D01*
X385721428Y-161076950D02*
X385683332Y-161115045D01*
X385378571Y-161115045D02*
X385340475Y-161076950D01*
X385340475Y-161076950D02*
X385264285Y-161038855D01*
X385264285Y-161038855D02*
X385073809Y-161038855D01*
X385073809Y-161038855D02*
X384997618Y-161076950D01*
X384997618Y-161076950D02*
X384959523Y-161115045D01*
X384959523Y-161115045D02*
X384921428Y-161191236D01*
X384921428Y-161191236D02*
X384921428Y-161267426D01*
X384921428Y-161267426D02*
X384959523Y-161381712D01*
X384959523Y-161381712D02*
X385416666Y-161838855D01*
X385416666Y-161838855D02*
X384921428Y-161838855D01*
X391280951Y-167432902D02*
X391280951Y-167813855D01*
X391547618Y-167013855D02*
X391280951Y-167432902D01*
X391280951Y-167432902D02*
X391014285Y-167013855D01*
X390328571Y-167813855D02*
X390785714Y-167813855D01*
X390557142Y-167813855D02*
X390557142Y-167013855D01*
X390557142Y-167013855D02*
X390633333Y-167128140D01*
X390633333Y-167128140D02*
X390709523Y-167204331D01*
X390709523Y-167204331D02*
X390785714Y-167242426D01*
X379463855Y-126635714D02*
X379082902Y-126369047D01*
X379463855Y-126178571D02*
X378663855Y-126178571D01*
X378663855Y-126178571D02*
X378663855Y-126483333D01*
X378663855Y-126483333D02*
X378701950Y-126559523D01*
X378701950Y-126559523D02*
X378740045Y-126597618D01*
X378740045Y-126597618D02*
X378816236Y-126635714D01*
X378816236Y-126635714D02*
X378930521Y-126635714D01*
X378930521Y-126635714D02*
X379006712Y-126597618D01*
X379006712Y-126597618D02*
X379044807Y-126559523D01*
X379044807Y-126559523D02*
X379082902Y-126483333D01*
X379082902Y-126483333D02*
X379082902Y-126178571D01*
X379463855Y-127397618D02*
X379463855Y-126940475D01*
X379463855Y-127169047D02*
X378663855Y-127169047D01*
X378663855Y-127169047D02*
X378778140Y-127092856D01*
X378778140Y-127092856D02*
X378854331Y-127016666D01*
X378854331Y-127016666D02*
X378892426Y-126940475D01*
X379463855Y-128159523D02*
X379463855Y-127702380D01*
X379463855Y-127930952D02*
X378663855Y-127930952D01*
X378663855Y-127930952D02*
X378778140Y-127854761D01*
X378778140Y-127854761D02*
X378854331Y-127778571D01*
X378854331Y-127778571D02*
X378892426Y-127702380D01*
X357468094Y-164288855D02*
X357734761Y-163907902D01*
X357925237Y-164288855D02*
X357925237Y-163488855D01*
X357925237Y-163488855D02*
X357620475Y-163488855D01*
X357620475Y-163488855D02*
X357544285Y-163526950D01*
X357544285Y-163526950D02*
X357506190Y-163565045D01*
X357506190Y-163565045D02*
X357468094Y-163641236D01*
X357468094Y-163641236D02*
X357468094Y-163755521D01*
X357468094Y-163755521D02*
X357506190Y-163831712D01*
X357506190Y-163831712D02*
X357544285Y-163869807D01*
X357544285Y-163869807D02*
X357620475Y-163907902D01*
X357620475Y-163907902D02*
X357925237Y-163907902D01*
X357163333Y-164250760D02*
X357049047Y-164288855D01*
X357049047Y-164288855D02*
X356858571Y-164288855D01*
X356858571Y-164288855D02*
X356782380Y-164250760D01*
X356782380Y-164250760D02*
X356744285Y-164212664D01*
X356744285Y-164212664D02*
X356706190Y-164136474D01*
X356706190Y-164136474D02*
X356706190Y-164060283D01*
X356706190Y-164060283D02*
X356744285Y-163984093D01*
X356744285Y-163984093D02*
X356782380Y-163945998D01*
X356782380Y-163945998D02*
X356858571Y-163907902D01*
X356858571Y-163907902D02*
X357010952Y-163869807D01*
X357010952Y-163869807D02*
X357087142Y-163831712D01*
X357087142Y-163831712D02*
X357125237Y-163793617D01*
X357125237Y-163793617D02*
X357163333Y-163717426D01*
X357163333Y-163717426D02*
X357163333Y-163641236D01*
X357163333Y-163641236D02*
X357125237Y-163565045D01*
X357125237Y-163565045D02*
X357087142Y-163526950D01*
X357087142Y-163526950D02*
X357010952Y-163488855D01*
X357010952Y-163488855D02*
X356820475Y-163488855D01*
X356820475Y-163488855D02*
X356706190Y-163526950D01*
X356477618Y-163488855D02*
X356020475Y-163488855D01*
X356249047Y-164288855D02*
X356249047Y-163488855D01*
X387163855Y-126635714D02*
X386782902Y-126369047D01*
X387163855Y-126178571D02*
X386363855Y-126178571D01*
X386363855Y-126178571D02*
X386363855Y-126483333D01*
X386363855Y-126483333D02*
X386401950Y-126559523D01*
X386401950Y-126559523D02*
X386440045Y-126597618D01*
X386440045Y-126597618D02*
X386516236Y-126635714D01*
X386516236Y-126635714D02*
X386630521Y-126635714D01*
X386630521Y-126635714D02*
X386706712Y-126597618D01*
X386706712Y-126597618D02*
X386744807Y-126559523D01*
X386744807Y-126559523D02*
X386782902Y-126483333D01*
X386782902Y-126483333D02*
X386782902Y-126178571D01*
X387163855Y-127397618D02*
X387163855Y-126940475D01*
X387163855Y-127169047D02*
X386363855Y-127169047D01*
X386363855Y-127169047D02*
X386478140Y-127092856D01*
X386478140Y-127092856D02*
X386554331Y-127016666D01*
X386554331Y-127016666D02*
X386592426Y-126940475D01*
X386363855Y-127664285D02*
X386363855Y-128159523D01*
X386363855Y-128159523D02*
X386668617Y-127892857D01*
X386668617Y-127892857D02*
X386668617Y-128007142D01*
X386668617Y-128007142D02*
X386706712Y-128083333D01*
X386706712Y-128083333D02*
X386744807Y-128121428D01*
X386744807Y-128121428D02*
X386820998Y-128159523D01*
X386820998Y-128159523D02*
X387011474Y-128159523D01*
X387011474Y-128159523D02*
X387087664Y-128121428D01*
X387087664Y-128121428D02*
X387125760Y-128083333D01*
X387125760Y-128083333D02*
X387163855Y-128007142D01*
X387163855Y-128007142D02*
X387163855Y-127778571D01*
X387163855Y-127778571D02*
X387125760Y-127702380D01*
X387125760Y-127702380D02*
X387087664Y-127664285D01*
X362216190Y-164788855D02*
X361759047Y-164788855D01*
X361987619Y-165588855D02*
X361987619Y-164788855D01*
X361492380Y-165169807D02*
X361225714Y-165169807D01*
X361111428Y-165588855D02*
X361492380Y-165588855D01*
X361492380Y-165588855D02*
X361492380Y-164788855D01*
X361492380Y-164788855D02*
X361111428Y-164788855D01*
X360806666Y-165550760D02*
X360692380Y-165588855D01*
X360692380Y-165588855D02*
X360501904Y-165588855D01*
X360501904Y-165588855D02*
X360425713Y-165550760D01*
X360425713Y-165550760D02*
X360387618Y-165512664D01*
X360387618Y-165512664D02*
X360349523Y-165436474D01*
X360349523Y-165436474D02*
X360349523Y-165360283D01*
X360349523Y-165360283D02*
X360387618Y-165284093D01*
X360387618Y-165284093D02*
X360425713Y-165245998D01*
X360425713Y-165245998D02*
X360501904Y-165207902D01*
X360501904Y-165207902D02*
X360654285Y-165169807D01*
X360654285Y-165169807D02*
X360730475Y-165131712D01*
X360730475Y-165131712D02*
X360768570Y-165093617D01*
X360768570Y-165093617D02*
X360806666Y-165017426D01*
X360806666Y-165017426D02*
X360806666Y-164941236D01*
X360806666Y-164941236D02*
X360768570Y-164865045D01*
X360768570Y-164865045D02*
X360730475Y-164826950D01*
X360730475Y-164826950D02*
X360654285Y-164788855D01*
X360654285Y-164788855D02*
X360463808Y-164788855D01*
X360463808Y-164788855D02*
X360349523Y-164826950D01*
X360120951Y-164788855D02*
X359663808Y-164788855D01*
X359892380Y-165588855D02*
X359892380Y-164788855D01*
X382663855Y-126635714D02*
X382282902Y-126369047D01*
X382663855Y-126178571D02*
X381863855Y-126178571D01*
X381863855Y-126178571D02*
X381863855Y-126483333D01*
X381863855Y-126483333D02*
X381901950Y-126559523D01*
X381901950Y-126559523D02*
X381940045Y-126597618D01*
X381940045Y-126597618D02*
X382016236Y-126635714D01*
X382016236Y-126635714D02*
X382130521Y-126635714D01*
X382130521Y-126635714D02*
X382206712Y-126597618D01*
X382206712Y-126597618D02*
X382244807Y-126559523D01*
X382244807Y-126559523D02*
X382282902Y-126483333D01*
X382282902Y-126483333D02*
X382282902Y-126178571D01*
X382663855Y-127397618D02*
X382663855Y-126940475D01*
X382663855Y-127169047D02*
X381863855Y-127169047D01*
X381863855Y-127169047D02*
X381978140Y-127092856D01*
X381978140Y-127092856D02*
X382054331Y-127016666D01*
X382054331Y-127016666D02*
X382092426Y-126940475D01*
X381940045Y-127702380D02*
X381901950Y-127740476D01*
X381901950Y-127740476D02*
X381863855Y-127816666D01*
X381863855Y-127816666D02*
X381863855Y-128007142D01*
X381863855Y-128007142D02*
X381901950Y-128083333D01*
X381901950Y-128083333D02*
X381940045Y-128121428D01*
X381940045Y-128121428D02*
X382016236Y-128159523D01*
X382016236Y-128159523D02*
X382092426Y-128159523D01*
X382092426Y-128159523D02*
X382206712Y-128121428D01*
X382206712Y-128121428D02*
X382663855Y-127664285D01*
X382663855Y-127664285D02*
X382663855Y-128159523D01*
X380858332Y-165987664D02*
X380896428Y-166025760D01*
X380896428Y-166025760D02*
X381010713Y-166063855D01*
X381010713Y-166063855D02*
X381086904Y-166063855D01*
X381086904Y-166063855D02*
X381201190Y-166025760D01*
X381201190Y-166025760D02*
X381277380Y-165949569D01*
X381277380Y-165949569D02*
X381315475Y-165873379D01*
X381315475Y-165873379D02*
X381353571Y-165720998D01*
X381353571Y-165720998D02*
X381353571Y-165606712D01*
X381353571Y-165606712D02*
X381315475Y-165454331D01*
X381315475Y-165454331D02*
X381277380Y-165378140D01*
X381277380Y-165378140D02*
X381201190Y-165301950D01*
X381201190Y-165301950D02*
X381086904Y-165263855D01*
X381086904Y-165263855D02*
X381010713Y-165263855D01*
X381010713Y-165263855D02*
X380896428Y-165301950D01*
X380896428Y-165301950D02*
X380858332Y-165340045D01*
X380172618Y-165530521D02*
X380172618Y-166063855D01*
X380363094Y-165225760D02*
X380553571Y-165797188D01*
X380553571Y-165797188D02*
X380058332Y-165797188D01*
D11*
X329328333Y-154954819D02*
X329328333Y-155669104D01*
X329328333Y-155669104D02*
X329375952Y-155811961D01*
X329375952Y-155811961D02*
X329471190Y-155907200D01*
X329471190Y-155907200D02*
X329614047Y-155954819D01*
X329614047Y-155954819D02*
X329709285Y-155954819D01*
X328328333Y-155954819D02*
X328899761Y-155954819D01*
X328614047Y-155954819D02*
X328614047Y-154954819D01*
X328614047Y-154954819D02*
X328709285Y-155097676D01*
X328709285Y-155097676D02*
X328804523Y-155192914D01*
X328804523Y-155192914D02*
X328899761Y-155240533D01*
D10*
X353253332Y-162988855D02*
X353519999Y-162607902D01*
X353710475Y-162988855D02*
X353710475Y-162188855D01*
X353710475Y-162188855D02*
X353405713Y-162188855D01*
X353405713Y-162188855D02*
X353329523Y-162226950D01*
X353329523Y-162226950D02*
X353291428Y-162265045D01*
X353291428Y-162265045D02*
X353253332Y-162341236D01*
X353253332Y-162341236D02*
X353253332Y-162455521D01*
X353253332Y-162455521D02*
X353291428Y-162531712D01*
X353291428Y-162531712D02*
X353329523Y-162569807D01*
X353329523Y-162569807D02*
X353405713Y-162607902D01*
X353405713Y-162607902D02*
X353710475Y-162607902D01*
X352986666Y-162188855D02*
X352453332Y-162988855D01*
X352453332Y-162188855D02*
X352986666Y-162988855D01*
X379463855Y-144635714D02*
X379082902Y-144369047D01*
X379463855Y-144178571D02*
X378663855Y-144178571D01*
X378663855Y-144178571D02*
X378663855Y-144483333D01*
X378663855Y-144483333D02*
X378701950Y-144559523D01*
X378701950Y-144559523D02*
X378740045Y-144597618D01*
X378740045Y-144597618D02*
X378816236Y-144635714D01*
X378816236Y-144635714D02*
X378930521Y-144635714D01*
X378930521Y-144635714D02*
X379006712Y-144597618D01*
X379006712Y-144597618D02*
X379044807Y-144559523D01*
X379044807Y-144559523D02*
X379082902Y-144483333D01*
X379082902Y-144483333D02*
X379082902Y-144178571D01*
X378930521Y-145321428D02*
X379463855Y-145321428D01*
X378625760Y-145130952D02*
X379197188Y-144940475D01*
X379197188Y-144940475D02*
X379197188Y-145435714D01*
X379463855Y-146159523D02*
X379463855Y-145702380D01*
X379463855Y-145930952D02*
X378663855Y-145930952D01*
X378663855Y-145930952D02*
X378778140Y-145854761D01*
X378778140Y-145854761D02*
X378854331Y-145778571D01*
X378854331Y-145778571D02*
X378892426Y-145702380D01*
D11*
%TO.C,R42*%
X384160000Y-143760000D02*
X382840000Y-143760000D01*
X382840000Y-143760000D02*
X382840000Y-144720000D01*
X384160000Y-144720000D02*
X384160000Y-143760000D01*
X384160000Y-145580000D02*
X384160000Y-146540000D01*
X384160000Y-146540000D02*
X382840000Y-146540000D01*
X382840000Y-146540000D02*
X382840000Y-145580000D01*
D12*
X383930000Y-144350000D02*
G75*
G03*
X383930000Y-144350000I-30000J0D01*
G01*
D11*
%TO.C,R3*%
X381110000Y-159540000D02*
X381110000Y-160860000D01*
X381110000Y-160860000D02*
X382070000Y-160860000D01*
X382070000Y-159540000D02*
X381110000Y-159540000D01*
X382930000Y-159540000D02*
X383890000Y-159540000D01*
X383890000Y-159540000D02*
X383890000Y-160860000D01*
X383890000Y-160860000D02*
X382930000Y-160860000D01*
D12*
X381730000Y-159800000D02*
G75*
G03*
X381730000Y-159800000I-30000J0D01*
G01*
D11*
%TO.C,R2*%
X362660000Y-159635000D02*
X361340000Y-159635000D01*
X361340000Y-159635000D02*
X361340000Y-160595000D01*
X362660000Y-160595000D02*
X362660000Y-159635000D01*
X362660000Y-161455000D02*
X362660000Y-162415000D01*
X362660000Y-162415000D02*
X361340000Y-162415000D01*
X361340000Y-162415000D02*
X361340000Y-161455000D01*
D12*
X362430000Y-160225000D02*
G75*
G03*
X362430000Y-160225000I-30000J0D01*
G01*
D11*
%TO.C,R44*%
X391580000Y-143760000D02*
X390260000Y-143760000D01*
X390260000Y-143760000D02*
X390260000Y-144720000D01*
X391580000Y-144720000D02*
X391580000Y-143760000D01*
X391580000Y-145580000D02*
X391580000Y-146540000D01*
X391580000Y-146540000D02*
X390260000Y-146540000D01*
X390260000Y-146540000D02*
X390260000Y-145580000D01*
D12*
X391350000Y-144350000D02*
G75*
G03*
X391350000Y-144350000I-30000J0D01*
G01*
D11*
%TO.C,R1*%
X382115000Y-164240000D02*
X383435000Y-164240000D01*
X383435000Y-164240000D02*
X383435000Y-163280000D01*
X382115000Y-163280000D02*
X382115000Y-164240000D01*
X382115000Y-162420000D02*
X382115000Y-161460000D01*
X382115000Y-161460000D02*
X383435000Y-161460000D01*
X383435000Y-161460000D02*
X383435000Y-162420000D01*
D12*
X382405000Y-163650000D02*
G75*
G03*
X382405000Y-163650000I-30000J0D01*
G01*
D11*
%TO.C,C1*%
X377550000Y-158160000D02*
X379050000Y-158160000D01*
X379200000Y-158010000D02*
X379200000Y-156600000D01*
X377400000Y-156600000D02*
X377400000Y-158010000D01*
X377400000Y-155800000D02*
X377400000Y-154390000D01*
X379200000Y-154390000D02*
X379200000Y-155800000D01*
X377550000Y-154240000D02*
X379050000Y-154240000D01*
X377400000Y-158010000D02*
G75*
G03*
X377550000Y-158160000I150000J0D01*
G01*
X379050000Y-158160000D02*
G75*
G03*
X379200000Y-158010000I0J150000D01*
G01*
X377550000Y-154240000D02*
G75*
G03*
X377400000Y-154390000I0J-150000D01*
G01*
X379200000Y-154390000D02*
G75*
G03*
X379050000Y-154240000I-150000J0D01*
G01*
D12*
X377700000Y-157200000D02*
G75*
G03*
X377700000Y-157200000I-30000J0D01*
G01*
D11*
%TO.C,R24*%
X391580000Y-131760000D02*
X390260000Y-131760000D01*
X390260000Y-131760000D02*
X390260000Y-132720000D01*
X391580000Y-132720000D02*
X391580000Y-131760000D01*
X391580000Y-133580000D02*
X391580000Y-134540000D01*
X391580000Y-134540000D02*
X390260000Y-134540000D01*
X390260000Y-134540000D02*
X390260000Y-133580000D01*
D12*
X391350000Y-132350000D02*
G75*
G03*
X391350000Y-132350000I-30000J0D01*
G01*
D11*
%TO.C,R22*%
X384160000Y-131760000D02*
X382840000Y-131760000D01*
X382840000Y-131760000D02*
X382840000Y-132720000D01*
X384160000Y-132720000D02*
X384160000Y-131760000D01*
X384160000Y-133580000D02*
X384160000Y-134540000D01*
X384160000Y-134540000D02*
X382840000Y-134540000D01*
X382840000Y-134540000D02*
X382840000Y-133580000D01*
D12*
X383930000Y-132350000D02*
G75*
G03*
X383930000Y-132350000I-30000J0D01*
G01*
D10*
%TO.C,TP3*%
X344950000Y-160375000D02*
G75*
G03*
X344950000Y-160375000I-950000J0D01*
G01*
D11*
%TO.C,R23*%
X388660000Y-131760000D02*
X387340000Y-131760000D01*
X387340000Y-131760000D02*
X387340000Y-132720000D01*
X388660000Y-132720000D02*
X388660000Y-131760000D01*
X388660000Y-133580000D02*
X388660000Y-134540000D01*
X388660000Y-134540000D02*
X387340000Y-134540000D01*
X387340000Y-134540000D02*
X387340000Y-133580000D01*
D12*
X388430000Y-132350000D02*
G75*
G03*
X388430000Y-132350000I-30000J0D01*
G01*
D11*
%TO.C,R33*%
X388660000Y-137760000D02*
X387340000Y-137760000D01*
X387340000Y-137760000D02*
X387340000Y-138720000D01*
X388660000Y-138720000D02*
X388660000Y-137760000D01*
X388660000Y-139580000D02*
X388660000Y-140540000D01*
X388660000Y-140540000D02*
X387340000Y-140540000D01*
X387340000Y-140540000D02*
X387340000Y-139580000D01*
D12*
X388430000Y-138350000D02*
G75*
G03*
X388430000Y-138350000I-30000J0D01*
G01*
D11*
%TO.C,R32*%
X384160000Y-137760000D02*
X382840000Y-137760000D01*
X382840000Y-137760000D02*
X382840000Y-138720000D01*
X384160000Y-138720000D02*
X384160000Y-137760000D01*
X384160000Y-139580000D02*
X384160000Y-140540000D01*
X384160000Y-140540000D02*
X382840000Y-140540000D01*
X382840000Y-140540000D02*
X382840000Y-139580000D01*
D12*
X383930000Y-138350000D02*
G75*
G03*
X383930000Y-138350000I-30000J0D01*
G01*
D11*
%TO.C,R34*%
X391580000Y-137760000D02*
X390260000Y-137760000D01*
X390260000Y-137760000D02*
X390260000Y-138720000D01*
X391580000Y-138720000D02*
X391580000Y-137760000D01*
X391580000Y-139580000D02*
X391580000Y-140540000D01*
X391580000Y-140540000D02*
X390260000Y-140540000D01*
X390260000Y-140540000D02*
X390260000Y-139580000D01*
D12*
X391350000Y-138350000D02*
G75*
G03*
X391350000Y-138350000I-30000J0D01*
G01*
D13*
%TO.C,C6*%
X389440000Y-166300000D02*
X389440000Y-165500000D01*
X388330000Y-166610000D02*
X389130000Y-166610000D01*
X388330000Y-165190000D02*
X389130000Y-165190000D01*
X387770000Y-166610000D02*
X386970000Y-166610000D01*
X387770000Y-165190000D02*
X386970000Y-165190000D01*
X386660000Y-165500000D02*
X386660000Y-166300000D01*
X389130000Y-166610000D02*
G75*
G03*
X389440000Y-166300000I0J310000D01*
G01*
X389440000Y-165500000D02*
G75*
G03*
X389130000Y-165190000I-310000J0D01*
G01*
X386660000Y-166300000D02*
G75*
G03*
X386970000Y-166610000I310000J0D01*
G01*
X386970000Y-165190000D02*
G75*
G03*
X386660000Y-165500000I0J-310000D01*
G01*
D12*
X388880000Y-166300000D02*
G75*
G03*
X388880000Y-166300000I-30000J0D01*
G01*
D13*
%TO.C,C5*%
X389440000Y-163800000D02*
X389440000Y-163000000D01*
X388330000Y-164110000D02*
X389130000Y-164110000D01*
X388330000Y-162690000D02*
X389130000Y-162690000D01*
X387770000Y-164110000D02*
X386970000Y-164110000D01*
X387770000Y-162690000D02*
X386970000Y-162690000D01*
X386660000Y-163000000D02*
X386660000Y-163800000D01*
X389130000Y-164110000D02*
G75*
G03*
X389440000Y-163800000I0J310000D01*
G01*
X389440000Y-163000000D02*
G75*
G03*
X389130000Y-162690000I-310000J0D01*
G01*
X386660000Y-163800000D02*
G75*
G03*
X386970000Y-164110000I310000J0D01*
G01*
X386970000Y-162690000D02*
G75*
G03*
X386660000Y-163000000I0J-310000D01*
G01*
D12*
X388880000Y-163800000D02*
G75*
G03*
X388880000Y-163800000I-30000J0D01*
G01*
D11*
%TO.C,C3*%
X384500000Y-147835000D02*
X386000000Y-147835000D01*
X386150000Y-147685000D02*
X386150000Y-146275000D01*
X384350000Y-146275000D02*
X384350000Y-147685000D01*
X384350000Y-145475000D02*
X384350000Y-144065000D01*
X386150000Y-144065000D02*
X386150000Y-145475000D01*
X384500000Y-143915000D02*
X386000000Y-143915000D01*
X384350000Y-147685000D02*
G75*
G03*
X384500000Y-147835000I150000J0D01*
G01*
X386000000Y-147835000D02*
G75*
G03*
X386150000Y-147685000I0J150000D01*
G01*
X384500000Y-143915000D02*
G75*
G03*
X384350000Y-144065000I0J-150000D01*
G01*
X386150000Y-144065000D02*
G75*
G03*
X386000000Y-143915000I-150000J0D01*
G01*
D12*
X384650000Y-146875000D02*
G75*
G03*
X384650000Y-146875000I-30000J0D01*
G01*
D11*
%TO.C,R21*%
X380960000Y-131760000D02*
X379640000Y-131760000D01*
X379640000Y-131760000D02*
X379640000Y-132720000D01*
X380960000Y-132720000D02*
X380960000Y-131760000D01*
X380960000Y-133580000D02*
X380960000Y-134540000D01*
X380960000Y-134540000D02*
X379640000Y-134540000D01*
X379640000Y-134540000D02*
X379640000Y-133580000D01*
D12*
X380730000Y-132350000D02*
G75*
G03*
X380730000Y-132350000I-30000J0D01*
G01*
D10*
%TO.C,TP4*%
X341850000Y-159250000D02*
G75*
G03*
X341850000Y-159250000I-950000J0D01*
G01*
D11*
%TO.C,R31*%
X380960000Y-137760000D02*
X379640000Y-137760000D01*
X379640000Y-137760000D02*
X379640000Y-138720000D01*
X380960000Y-138720000D02*
X380960000Y-137760000D01*
X380960000Y-139580000D02*
X380960000Y-140540000D01*
X380960000Y-140540000D02*
X379640000Y-140540000D01*
X379640000Y-140540000D02*
X379640000Y-139580000D01*
D12*
X380730000Y-138350000D02*
G75*
G03*
X380730000Y-138350000I-30000J0D01*
G01*
D11*
%TO.C,R14*%
X391580000Y-125760000D02*
X390260000Y-125760000D01*
X390260000Y-125760000D02*
X390260000Y-126720000D01*
X391580000Y-126720000D02*
X391580000Y-125760000D01*
X391580000Y-127580000D02*
X391580000Y-128540000D01*
X391580000Y-128540000D02*
X390260000Y-128540000D01*
X390260000Y-128540000D02*
X390260000Y-127580000D01*
D12*
X391350000Y-126350000D02*
G75*
G03*
X391350000Y-126350000I-30000J0D01*
G01*
D10*
%TO.C,U1*%
X380840000Y-157610000D02*
X381250000Y-157610000D01*
X380840000Y-157610000D02*
X380840000Y-157200000D01*
X388060000Y-157200000D02*
X387650000Y-157610000D01*
X380840000Y-150390000D02*
X380840000Y-150800000D01*
X380840000Y-150390000D02*
X381250000Y-150390000D01*
X388060000Y-150390000D02*
X388060000Y-150800000D01*
X388060000Y-150390000D02*
X387650000Y-150390000D01*
D14*
X388105000Y-158100000D02*
G75*
G03*
X388105000Y-158100000I-105000J0D01*
G01*
D11*
%TO.C,R43*%
X388660000Y-143760000D02*
X387340000Y-143760000D01*
X387340000Y-143760000D02*
X387340000Y-144720000D01*
X388660000Y-144720000D02*
X388660000Y-143760000D01*
X388660000Y-145580000D02*
X388660000Y-146540000D01*
X388660000Y-146540000D02*
X387340000Y-146540000D01*
X387340000Y-146540000D02*
X387340000Y-145580000D01*
D12*
X388430000Y-144350000D02*
G75*
G03*
X388430000Y-144350000I-30000J0D01*
G01*
D10*
%TO.C,TP5*%
X348550000Y-161675000D02*
G75*
G03*
X348550000Y-161675000I-950000J0D01*
G01*
D13*
%TO.C,C2*%
X386960000Y-160775000D02*
X386960000Y-161575000D01*
X388070000Y-160465000D02*
X387270000Y-160465000D01*
X388070000Y-161885000D02*
X387270000Y-161885000D01*
X388630000Y-160465000D02*
X389430000Y-160465000D01*
X388630000Y-161885000D02*
X389430000Y-161885000D01*
X389740000Y-161575000D02*
X389740000Y-160775000D01*
X387270000Y-160465000D02*
G75*
G03*
X386960000Y-160775000I0J-310000D01*
G01*
X386960000Y-161575000D02*
G75*
G03*
X387270000Y-161885000I310000J0D01*
G01*
X389740000Y-160775000D02*
G75*
G03*
X389430000Y-160465000I-310000J0D01*
G01*
X389430000Y-161885000D02*
G75*
G03*
X389740000Y-161575000I0J310000D01*
G01*
D12*
X387580000Y-160775000D02*
G75*
G03*
X387580000Y-160775000I-30000J0D01*
G01*
D10*
%TO.C,Y1*%
X391950000Y-163650000D02*
X391950000Y-164850000D01*
X389850000Y-163650000D02*
X389850000Y-164850000D01*
D11*
%TO.C,R11*%
X380960000Y-125760000D02*
X379640000Y-125760000D01*
X379640000Y-125760000D02*
X379640000Y-126720000D01*
X380960000Y-126720000D02*
X380960000Y-125760000D01*
X380960000Y-127580000D02*
X380960000Y-128540000D01*
X380960000Y-128540000D02*
X379640000Y-128540000D01*
X379640000Y-128540000D02*
X379640000Y-127580000D01*
D12*
X380730000Y-126350000D02*
G75*
G03*
X380730000Y-126350000I-30000J0D01*
G01*
D10*
%TO.C,TP2*%
X355750000Y-164275000D02*
G75*
G03*
X355750000Y-164275000I-950000J0D01*
G01*
D11*
%TO.C,R13*%
X388660000Y-125760000D02*
X387340000Y-125760000D01*
X387340000Y-125760000D02*
X387340000Y-126720000D01*
X388660000Y-126720000D02*
X388660000Y-125760000D01*
X388660000Y-127580000D02*
X388660000Y-128540000D01*
X388660000Y-128540000D02*
X387340000Y-128540000D01*
X387340000Y-128540000D02*
X387340000Y-127580000D01*
D12*
X388430000Y-126350000D02*
G75*
G03*
X388430000Y-126350000I-30000J0D01*
G01*
D10*
%TO.C,TP1*%
X359350000Y-165575000D02*
G75*
G03*
X359350000Y-165575000I-950000J0D01*
G01*
D11*
%TO.C,R12*%
X384160000Y-125760000D02*
X382840000Y-125760000D01*
X382840000Y-125760000D02*
X382840000Y-126720000D01*
X384160000Y-126720000D02*
X384160000Y-125760000D01*
X384160000Y-127580000D02*
X384160000Y-128540000D01*
X384160000Y-128540000D02*
X382840000Y-128540000D01*
X382840000Y-128540000D02*
X382840000Y-127580000D01*
D12*
X383930000Y-126350000D02*
G75*
G03*
X383930000Y-126350000I-30000J0D01*
G01*
D13*
%TO.C,C4*%
X381125000Y-161510000D02*
X380325000Y-161510000D01*
X381435000Y-162620000D02*
X381435000Y-161820000D01*
X380015000Y-162620000D02*
X380015000Y-161820000D01*
X381435000Y-163180000D02*
X381435000Y-163980000D01*
X380015000Y-163180000D02*
X380015000Y-163980000D01*
X380325000Y-164290000D02*
X381125000Y-164290000D01*
X381435000Y-161820000D02*
G75*
G03*
X381125000Y-161510000I-310000J0D01*
G01*
X380325000Y-161510000D02*
G75*
G03*
X380015000Y-161820000I0J-310000D01*
G01*
X381125000Y-164290000D02*
G75*
G03*
X381435000Y-163980000I0J310000D01*
G01*
X380015000Y-163980000D02*
G75*
G03*
X380325000Y-164290000I310000J0D01*
G01*
D12*
X381155000Y-162100000D02*
G75*
G03*
X381155000Y-162100000I-30000J0D01*
G01*
D10*
%TO.C,J1*%
X339255000Y-167060000D02*
X334845000Y-167060000D01*
X339255000Y-157940000D02*
X339255000Y-167060000D01*
X339255000Y-157940000D02*
X334845000Y-157940000D01*
X323145000Y-167060000D02*
X318735000Y-167060000D01*
X323145000Y-157940000D02*
X318735000Y-157940000D01*
X318735000Y-157940000D02*
X318735000Y-167060000D01*
X336295000Y-168100000D02*
X335295000Y-167700000D01*
X336295000Y-167300000D01*
X336295000Y-168100000D01*
G36*
X336295000Y-168100000D02*
G01*
X335295000Y-167700000D01*
X336295000Y-167300000D01*
X336295000Y-168100000D01*
G37*
%TO.C,TP6*%
X352150000Y-162975000D02*
G75*
G03*
X352150000Y-162975000I-950000J0D01*
G01*
D11*
%TO.C,R41*%
X380960000Y-143760000D02*
X379640000Y-143760000D01*
X379640000Y-143760000D02*
X379640000Y-144720000D01*
X380960000Y-144720000D02*
X380960000Y-143760000D01*
X380960000Y-145580000D02*
X380960000Y-146540000D01*
X380960000Y-146540000D02*
X379640000Y-146540000D01*
X379640000Y-146540000D02*
X379640000Y-145580000D01*
D12*
X380730000Y-144350000D02*
G75*
G03*
X380730000Y-144350000I-30000J0D01*
G01*
%TD*%
M02*
