%TF.GenerationSoftware,KiCad,Pcbnew,7.0.8*%
%TF.CreationDate,2026-09-29T15:25:08-05:00*%
%TF.ProjectId,vuulgaris-faceplate,7675756c-6761-4726-9973-2d6661636570,0*%
%TF.SameCoordinates,Original*%
%TF.FileFunction,Drillmap*%
%TF.FilePolarity,Positive*%
%FSLAX45Y45*%
G04 Gerber Fmt 4.5, Leading zero omitted, Abs format (unit mm)*
G04 Created by KiCad (PCBNEW 7.0.8) date 2026-09-29 15:25:08*
%MOMM*%
%LPD*%
G01*
G04 APERTURE LIST*
%ADD10C,0.100000*%
%ADD11C,0.200000*%
%ADD12C,0.030000*%
G04 APERTURE END LIST*
D10*
X22289300Y-7322500D02*
G75*
G03*
X22289300Y-7322500I-375000J0D01*
G01*
X12989300Y-7339500D02*
G75*
G03*
X12989300Y-7339500I-475000J0D01*
G01*
X10000000Y-18181000D02*
G75*
G03*
X10600000Y-18781000I600000J0D01*
G01*
X36759286Y-9904850D02*
X30950251Y-9904850D01*
X39098571Y-18481000D02*
G75*
G03*
X39098571Y-18481000I-170000J0D01*
G01*
X30850251Y-9804850D02*
X30850251Y-6614850D01*
X14492100Y-14395300D02*
G75*
G03*
X14492100Y-14395300I-360000J0D01*
G01*
X12942100Y-14395300D02*
G75*
G03*
X12942100Y-14395300I-360000J0D01*
G01*
X12942100Y-15665300D02*
G75*
G03*
X12942100Y-15665300I-360000J0D01*
G01*
X19589300Y-7339500D02*
G75*
G03*
X19589300Y-7339500I-475000J0D01*
G01*
X19589300Y-8985100D02*
G75*
G03*
X19589300Y-8985100I-475000J0D01*
G01*
X26689300Y-7322500D02*
G75*
G03*
X26689300Y-7322500I-375000J0D01*
G01*
X14492100Y-16935300D02*
G75*
G03*
X14492100Y-16935300I-360000J0D01*
G01*
X11070000Y-5300000D02*
G75*
G03*
X11070000Y-5300000I-170000J0D01*
G01*
X17389300Y-8985100D02*
G75*
G03*
X17389300Y-8985100I-475000J0D01*
G01*
X36859286Y-6614850D02*
X36859286Y-9804850D01*
X12989300Y-8985100D02*
G75*
G03*
X12989300Y-8985100I-475000J0D01*
G01*
X28344300Y-8963100D02*
G75*
G03*
X28344300Y-8963100I-280000J0D01*
G01*
X14492100Y-15665300D02*
G75*
G03*
X14492100Y-15665300I-360000J0D01*
G01*
X24489300Y-7322500D02*
G75*
G03*
X24489300Y-7322500I-375000J0D01*
G01*
X30850250Y-9804850D02*
G75*
G03*
X30950251Y-9904850I100000J0D01*
G01*
X36759286Y-9904846D02*
G75*
G03*
X36859286Y-9804850I4J99996D01*
G01*
X15189300Y-8985100D02*
G75*
G03*
X15189300Y-8985100I-475000J0D01*
G01*
X36859290Y-6614850D02*
G75*
G03*
X36759286Y-6514850I-100000J0D01*
G01*
X29644300Y-8963100D02*
G75*
G03*
X29644300Y-8963100I-280000J0D01*
G01*
X30950251Y-6514851D02*
G75*
G03*
X30850251Y-6614850I-2J-99999D01*
G01*
X10000000Y-18181000D02*
X10000000Y-5600000D01*
X39828570Y-5600000D02*
G75*
G03*
X39228571Y-5000000I-600000J0D01*
G01*
X39098571Y-5300000D02*
G75*
G03*
X39098571Y-5300000I-170000J0D01*
G01*
X26689300Y-8968100D02*
G75*
G03*
X26689300Y-8968100I-375000J0D01*
G01*
X10600000Y-5000000D02*
G75*
G03*
X10000000Y-5600000I0J-600000D01*
G01*
X39228571Y-18781000D02*
X10600000Y-18781000D01*
X39828571Y-5600000D02*
X39828571Y-18181000D01*
X17389300Y-7339500D02*
G75*
G03*
X17389300Y-7339500I-475000J0D01*
G01*
X15189300Y-7339500D02*
G75*
G03*
X15189300Y-7339500I-475000J0D01*
G01*
X12942100Y-16935300D02*
G75*
G03*
X12942100Y-16935300I-360000J0D01*
G01*
X10600000Y-5000000D02*
X39228571Y-5000000D01*
X22289300Y-8968100D02*
G75*
G03*
X22289300Y-8968100I-375000J0D01*
G01*
X30950251Y-6514850D02*
X36759286Y-6514850D01*
X13857100Y-12545300D02*
G75*
G03*
X13857100Y-12545300I-500000J0D01*
G01*
X11070000Y-18481000D02*
G75*
G03*
X11070000Y-18481000I-170000J0D01*
G01*
X24489300Y-8968100D02*
G75*
G03*
X24489300Y-8968100I-375000J0D01*
G01*
X39228571Y-18781001D02*
G75*
G03*
X39828571Y-18181000I-1J600001D01*
G01*
D11*
D12*
X16196786Y-11280350D02*
X16226786Y-11310350D01*
X16226786Y-11280350D02*
X16196786Y-11310350D01*
X16196786Y-13080350D02*
X16226786Y-13110350D01*
X16226786Y-13080350D02*
X16196786Y-13110350D01*
X16196786Y-14880350D02*
X16226786Y-14910350D01*
X16226786Y-14880350D02*
X16196786Y-14910350D01*
X16196786Y-16680350D02*
X16226786Y-16710350D01*
X16226786Y-16680350D02*
X16196786Y-16710350D01*
X16412786Y-11280350D02*
X16442786Y-11310350D01*
X16442786Y-11280350D02*
X16412786Y-11310350D01*
X16412786Y-12197613D02*
X16442786Y-12227613D01*
X16442786Y-12197613D02*
X16412786Y-12227613D01*
X16412786Y-13080350D02*
X16442786Y-13110350D01*
X16442786Y-13080350D02*
X16412786Y-13110350D01*
X16412786Y-13997613D02*
X16442786Y-14027613D01*
X16442786Y-13997613D02*
X16412786Y-14027613D01*
X16412786Y-14880350D02*
X16442786Y-14910350D01*
X16442786Y-14880350D02*
X16412786Y-14910350D01*
X16412786Y-15797613D02*
X16442786Y-15827613D01*
X16442786Y-15797613D02*
X16412786Y-15827613D01*
X16412786Y-16680350D02*
X16442786Y-16710350D01*
X16442786Y-16680350D02*
X16412786Y-16710350D01*
X16412786Y-17597613D02*
X16442786Y-17627613D01*
X16442786Y-17597613D02*
X16412786Y-17627613D01*
X16628786Y-11280350D02*
X16658786Y-11310350D01*
X16658786Y-11280350D02*
X16628786Y-11310350D01*
X16628786Y-12180350D02*
X16658786Y-12210350D01*
X16658786Y-12180350D02*
X16628786Y-12210350D01*
X16628786Y-13080350D02*
X16658786Y-13110350D01*
X16658786Y-13080350D02*
X16628786Y-13110350D01*
X16628786Y-13980350D02*
X16658786Y-14010350D01*
X16658786Y-13980350D02*
X16628786Y-14010350D01*
X16628786Y-14880350D02*
X16658786Y-14910350D01*
X16658786Y-14880350D02*
X16628786Y-14910350D01*
X16628786Y-15780350D02*
X16658786Y-15810350D01*
X16658786Y-15780350D02*
X16628786Y-15810350D01*
X16628786Y-16680350D02*
X16658786Y-16710350D01*
X16658786Y-16680350D02*
X16628786Y-16710350D01*
X16628786Y-17580350D02*
X16658786Y-17610350D01*
X16658786Y-17580350D02*
X16628786Y-17610350D01*
X16844786Y-11280350D02*
X16874786Y-11310350D01*
X16874786Y-11280350D02*
X16844786Y-11310350D01*
X16844786Y-12180350D02*
X16874786Y-12210350D01*
X16874786Y-12180350D02*
X16844786Y-12210350D01*
X16844786Y-13080350D02*
X16874786Y-13110350D01*
X16874786Y-13080350D02*
X16844786Y-13110350D01*
X16844786Y-13980350D02*
X16874786Y-14010350D01*
X16874786Y-13980350D02*
X16844786Y-14010350D01*
X16844786Y-14880350D02*
X16874786Y-14910350D01*
X16874786Y-14880350D02*
X16844786Y-14910350D01*
X16844786Y-15780350D02*
X16874786Y-15810350D01*
X16874786Y-15780350D02*
X16844786Y-15810350D01*
X16844786Y-16680350D02*
X16874786Y-16710350D01*
X16874786Y-16680350D02*
X16844786Y-16710350D01*
X16844786Y-17580350D02*
X16874786Y-17610350D01*
X16874786Y-17580350D02*
X16844786Y-17610350D01*
X17060786Y-11280350D02*
X17090786Y-11310350D01*
X17090786Y-11280350D02*
X17060786Y-11310350D01*
X17060786Y-12180350D02*
X17090786Y-12210350D01*
X17090786Y-12180350D02*
X17060786Y-12210350D01*
X17060786Y-13080350D02*
X17090786Y-13110350D01*
X17090786Y-13080350D02*
X17060786Y-13110350D01*
X17060786Y-13980350D02*
X17090786Y-14010350D01*
X17090786Y-13980350D02*
X17060786Y-14010350D01*
X17060786Y-14880350D02*
X17090786Y-14910350D01*
X17090786Y-14880350D02*
X17060786Y-14910350D01*
X17060786Y-15780350D02*
X17090786Y-15810350D01*
X17090786Y-15780350D02*
X17060786Y-15810350D01*
X17060786Y-16680350D02*
X17090786Y-16710350D01*
X17090786Y-16680350D02*
X17060786Y-16710350D01*
X17060786Y-17580350D02*
X17090786Y-17610350D01*
X17090786Y-17580350D02*
X17060786Y-17610350D01*
X17276786Y-11280350D02*
X17306786Y-11310350D01*
X17306786Y-11280350D02*
X17276786Y-11310350D01*
X17276786Y-12180350D02*
X17306786Y-12210350D01*
X17306786Y-12180350D02*
X17276786Y-12210350D01*
X17276786Y-13080350D02*
X17306786Y-13110350D01*
X17306786Y-13080350D02*
X17276786Y-13110350D01*
X17276786Y-13980350D02*
X17306786Y-14010350D01*
X17306786Y-13980350D02*
X17276786Y-14010350D01*
X17276786Y-14880350D02*
X17306786Y-14910350D01*
X17306786Y-14880350D02*
X17276786Y-14910350D01*
X17276786Y-15780350D02*
X17306786Y-15810350D01*
X17306786Y-15780350D02*
X17276786Y-15810350D01*
X17276786Y-16680350D02*
X17306786Y-16710350D01*
X17306786Y-16680350D02*
X17276786Y-16710350D01*
X17276786Y-17580350D02*
X17306786Y-17610350D01*
X17306786Y-17580350D02*
X17276786Y-17610350D01*
X17492786Y-11280350D02*
X17522786Y-11310350D01*
X17522786Y-11280350D02*
X17492786Y-11310350D01*
X17492786Y-12180350D02*
X17522786Y-12210350D01*
X17522786Y-12180350D02*
X17492786Y-12210350D01*
X17492786Y-13080350D02*
X17522786Y-13110350D01*
X17522786Y-13080350D02*
X17492786Y-13110350D01*
X17492786Y-13980350D02*
X17522786Y-14010350D01*
X17522786Y-13980350D02*
X17492786Y-14010350D01*
X17492786Y-14880350D02*
X17522786Y-14910350D01*
X17522786Y-14880350D02*
X17492786Y-14910350D01*
X17492786Y-15780350D02*
X17522786Y-15810350D01*
X17522786Y-15780350D02*
X17492786Y-15810350D01*
X17492786Y-16680350D02*
X17522786Y-16710350D01*
X17522786Y-16680350D02*
X17492786Y-16710350D01*
X17492786Y-17580350D02*
X17522786Y-17610350D01*
X17522786Y-17580350D02*
X17492786Y-17610350D01*
X17708786Y-11280350D02*
X17738786Y-11310350D01*
X17738786Y-11280350D02*
X17708786Y-11310350D01*
X17708786Y-12180350D02*
X17738786Y-12210350D01*
X17738786Y-12180350D02*
X17708786Y-12210350D01*
X17708786Y-13080350D02*
X17738786Y-13110350D01*
X17738786Y-13080350D02*
X17708786Y-13110350D01*
X17708786Y-13980350D02*
X17738786Y-14010350D01*
X17738786Y-13980350D02*
X17708786Y-14010350D01*
X17708786Y-14880350D02*
X17738786Y-14910350D01*
X17738786Y-14880350D02*
X17708786Y-14910350D01*
X17708786Y-15780350D02*
X17738786Y-15810350D01*
X17738786Y-15780350D02*
X17708786Y-15810350D01*
X17708786Y-16680350D02*
X17738786Y-16710350D01*
X17738786Y-16680350D02*
X17708786Y-16710350D01*
X17708786Y-17580350D02*
X17738786Y-17610350D01*
X17738786Y-17580350D02*
X17708786Y-17610350D01*
X17924786Y-11280350D02*
X17954786Y-11310350D01*
X17954786Y-11280350D02*
X17924786Y-11310350D01*
X17924786Y-12180350D02*
X17954786Y-12210350D01*
X17954786Y-12180350D02*
X17924786Y-12210350D01*
X17924786Y-13080350D02*
X17954786Y-13110350D01*
X17954786Y-13080350D02*
X17924786Y-13110350D01*
X17924786Y-13980350D02*
X17954786Y-14010350D01*
X17954786Y-13980350D02*
X17924786Y-14010350D01*
X17924786Y-14880350D02*
X17954786Y-14910350D01*
X17954786Y-14880350D02*
X17924786Y-14910350D01*
X17924786Y-15780350D02*
X17954786Y-15810350D01*
X17954786Y-15780350D02*
X17924786Y-15810350D01*
X17924786Y-16680350D02*
X17954786Y-16710350D01*
X17954786Y-16680350D02*
X17924786Y-16710350D01*
X17924786Y-17580350D02*
X17954786Y-17610350D01*
X17954786Y-17580350D02*
X17924786Y-17610350D01*
X18140786Y-11280350D02*
X18170786Y-11310350D01*
X18170786Y-11280350D02*
X18140786Y-11310350D01*
X18140786Y-12180350D02*
X18170786Y-12210350D01*
X18170786Y-12180350D02*
X18140786Y-12210350D01*
X18140786Y-13080350D02*
X18170786Y-13110350D01*
X18170786Y-13080350D02*
X18140786Y-13110350D01*
X18140786Y-13980350D02*
X18170786Y-14010350D01*
X18170786Y-13980350D02*
X18140786Y-14010350D01*
X18140786Y-14880350D02*
X18170786Y-14910350D01*
X18170786Y-14880350D02*
X18140786Y-14910350D01*
X18140786Y-15780350D02*
X18170786Y-15810350D01*
X18170786Y-15780350D02*
X18140786Y-15810350D01*
X18140786Y-16680350D02*
X18170786Y-16710350D01*
X18170786Y-16680350D02*
X18140786Y-16710350D01*
X18140786Y-17580350D02*
X18170786Y-17610350D01*
X18170786Y-17580350D02*
X18140786Y-17610350D01*
X18356786Y-11280350D02*
X18386786Y-11310350D01*
X18386786Y-11280350D02*
X18356786Y-11310350D01*
X18356786Y-12180350D02*
X18386786Y-12210350D01*
X18386786Y-12180350D02*
X18356786Y-12210350D01*
X18356786Y-13080350D02*
X18386786Y-13110350D01*
X18386786Y-13080350D02*
X18356786Y-13110350D01*
X18356786Y-13980350D02*
X18386786Y-14010350D01*
X18386786Y-13980350D02*
X18356786Y-14010350D01*
X18356786Y-14880350D02*
X18386786Y-14910350D01*
X18386786Y-14880350D02*
X18356786Y-14910350D01*
X18356786Y-15780350D02*
X18386786Y-15810350D01*
X18386786Y-15780350D02*
X18356786Y-15810350D01*
X18356786Y-16680350D02*
X18386786Y-16710350D01*
X18386786Y-16680350D02*
X18356786Y-16710350D01*
X18356786Y-17580350D02*
X18386786Y-17610350D01*
X18386786Y-17580350D02*
X18356786Y-17610350D01*
X18572786Y-11280350D02*
X18602786Y-11310350D01*
X18602786Y-11280350D02*
X18572786Y-11310350D01*
X18572786Y-12180350D02*
X18602786Y-12210350D01*
X18602786Y-12180350D02*
X18572786Y-12210350D01*
X18572786Y-13080350D02*
X18602786Y-13110350D01*
X18602786Y-13080350D02*
X18572786Y-13110350D01*
X18572786Y-13980350D02*
X18602786Y-14010350D01*
X18602786Y-13980350D02*
X18572786Y-14010350D01*
X18572786Y-14880350D02*
X18602786Y-14910350D01*
X18602786Y-14880350D02*
X18572786Y-14910350D01*
X18572786Y-15780350D02*
X18602786Y-15810350D01*
X18602786Y-15780350D02*
X18572786Y-15810350D01*
X18572786Y-16680350D02*
X18602786Y-16710350D01*
X18602786Y-16680350D02*
X18572786Y-16710350D01*
X18572786Y-17580350D02*
X18602786Y-17610350D01*
X18602786Y-17580350D02*
X18572786Y-17610350D01*
X18788786Y-11280350D02*
X18818786Y-11310350D01*
X18818786Y-11280350D02*
X18788786Y-11310350D01*
X18788786Y-12180350D02*
X18818786Y-12210350D01*
X18818786Y-12180350D02*
X18788786Y-12210350D01*
X18788786Y-13080350D02*
X18818786Y-13110350D01*
X18818786Y-13080350D02*
X18788786Y-13110350D01*
X18788786Y-13980350D02*
X18818786Y-14010350D01*
X18818786Y-13980350D02*
X18788786Y-14010350D01*
X18788786Y-14880350D02*
X18818786Y-14910350D01*
X18818786Y-14880350D02*
X18788786Y-14910350D01*
X18788786Y-15780350D02*
X18818786Y-15810350D01*
X18818786Y-15780350D02*
X18788786Y-15810350D01*
X18788786Y-16680350D02*
X18818786Y-16710350D01*
X18818786Y-16680350D02*
X18788786Y-16710350D01*
X18788786Y-17580350D02*
X18818786Y-17610350D01*
X18818786Y-17580350D02*
X18788786Y-17610350D01*
X19004786Y-11280350D02*
X19034786Y-11310350D01*
X19034786Y-11280350D02*
X19004786Y-11310350D01*
X19004786Y-12180350D02*
X19034786Y-12210350D01*
X19034786Y-12180350D02*
X19004786Y-12210350D01*
X19004786Y-13080350D02*
X19034786Y-13110350D01*
X19034786Y-13080350D02*
X19004786Y-13110350D01*
X19004786Y-13980350D02*
X19034786Y-14010350D01*
X19034786Y-13980350D02*
X19004786Y-14010350D01*
X19004786Y-14880350D02*
X19034786Y-14910350D01*
X19034786Y-14880350D02*
X19004786Y-14910350D01*
X19004786Y-15780350D02*
X19034786Y-15810350D01*
X19034786Y-15780350D02*
X19004786Y-15810350D01*
X19004786Y-16680350D02*
X19034786Y-16710350D01*
X19034786Y-16680350D02*
X19004786Y-16710350D01*
X19004786Y-17580350D02*
X19034786Y-17610350D01*
X19034786Y-17580350D02*
X19004786Y-17610350D01*
X19220786Y-11280350D02*
X19250786Y-11310350D01*
X19250786Y-11280350D02*
X19220786Y-11310350D01*
X19220786Y-12180350D02*
X19250786Y-12210350D01*
X19250786Y-12180350D02*
X19220786Y-12210350D01*
X19220786Y-13080350D02*
X19250786Y-13110350D01*
X19250786Y-13080350D02*
X19220786Y-13110350D01*
X19220786Y-13980350D02*
X19250786Y-14010350D01*
X19250786Y-13980350D02*
X19220786Y-14010350D01*
X19220786Y-14880350D02*
X19250786Y-14910350D01*
X19250786Y-14880350D02*
X19220786Y-14910350D01*
X19220786Y-15780350D02*
X19250786Y-15810350D01*
X19250786Y-15780350D02*
X19220786Y-15810350D01*
X19220786Y-16680350D02*
X19250786Y-16710350D01*
X19250786Y-16680350D02*
X19220786Y-16710350D01*
X19220786Y-17580350D02*
X19250786Y-17610350D01*
X19250786Y-17580350D02*
X19220786Y-17610350D01*
X19436786Y-11280350D02*
X19466786Y-11310350D01*
X19466786Y-11280350D02*
X19436786Y-11310350D01*
X19436786Y-12180350D02*
X19466786Y-12210350D01*
X19466786Y-12180350D02*
X19436786Y-12210350D01*
X19436786Y-13080350D02*
X19466786Y-13110350D01*
X19466786Y-13080350D02*
X19436786Y-13110350D01*
X19436786Y-13980350D02*
X19466786Y-14010350D01*
X19466786Y-13980350D02*
X19436786Y-14010350D01*
X19436786Y-14880350D02*
X19466786Y-14910350D01*
X19466786Y-14880350D02*
X19436786Y-14910350D01*
X19436786Y-15780350D02*
X19466786Y-15810350D01*
X19466786Y-15780350D02*
X19436786Y-15810350D01*
X19436786Y-16680350D02*
X19466786Y-16710350D01*
X19466786Y-16680350D02*
X19436786Y-16710350D01*
X19436786Y-17580350D02*
X19466786Y-17610350D01*
X19466786Y-17580350D02*
X19436786Y-17610350D01*
X19652786Y-11280350D02*
X19682786Y-11310350D01*
X19682786Y-11280350D02*
X19652786Y-11310350D01*
X19652786Y-12180350D02*
X19682786Y-12210350D01*
X19682786Y-12180350D02*
X19652786Y-12210350D01*
X19652786Y-13080350D02*
X19682786Y-13110350D01*
X19682786Y-13080350D02*
X19652786Y-13110350D01*
X19652786Y-13980350D02*
X19682786Y-14010350D01*
X19682786Y-13980350D02*
X19652786Y-14010350D01*
X19652786Y-14880350D02*
X19682786Y-14910350D01*
X19682786Y-14880350D02*
X19652786Y-14910350D01*
X19652786Y-15780350D02*
X19682786Y-15810350D01*
X19682786Y-15780350D02*
X19652786Y-15810350D01*
X19652786Y-16680350D02*
X19682786Y-16710350D01*
X19682786Y-16680350D02*
X19652786Y-16710350D01*
X19652786Y-17580350D02*
X19682786Y-17610350D01*
X19682786Y-17580350D02*
X19652786Y-17610350D01*
X19868786Y-11280350D02*
X19898786Y-11310350D01*
X19898786Y-11280350D02*
X19868786Y-11310350D01*
X19868786Y-12180350D02*
X19898786Y-12210350D01*
X19898786Y-12180350D02*
X19868786Y-12210350D01*
X19868786Y-13080350D02*
X19898786Y-13110350D01*
X19898786Y-13080350D02*
X19868786Y-13110350D01*
X19868786Y-13980350D02*
X19898786Y-14010350D01*
X19898786Y-13980350D02*
X19868786Y-14010350D01*
X19868786Y-14880350D02*
X19898786Y-14910350D01*
X19898786Y-14880350D02*
X19868786Y-14910350D01*
X19868786Y-15780350D02*
X19898786Y-15810350D01*
X19898786Y-15780350D02*
X19868786Y-15810350D01*
X19868786Y-16680350D02*
X19898786Y-16710350D01*
X19898786Y-16680350D02*
X19868786Y-16710350D01*
X19868786Y-17580350D02*
X19898786Y-17610350D01*
X19898786Y-17580350D02*
X19868786Y-17610350D01*
X20084786Y-11280350D02*
X20114786Y-11310350D01*
X20114786Y-11280350D02*
X20084786Y-11310350D01*
X20084786Y-12180350D02*
X20114786Y-12210350D01*
X20114786Y-12180350D02*
X20084786Y-12210350D01*
X20084786Y-13080350D02*
X20114786Y-13110350D01*
X20114786Y-13080350D02*
X20084786Y-13110350D01*
X20084786Y-13980350D02*
X20114786Y-14010350D01*
X20114786Y-13980350D02*
X20084786Y-14010350D01*
X20084786Y-14880350D02*
X20114786Y-14910350D01*
X20114786Y-14880350D02*
X20084786Y-14910350D01*
X20084786Y-15780350D02*
X20114786Y-15810350D01*
X20114786Y-15780350D02*
X20084786Y-15810350D01*
X20084786Y-16680350D02*
X20114786Y-16710350D01*
X20114786Y-16680350D02*
X20084786Y-16710350D01*
X20084786Y-17580350D02*
X20114786Y-17610350D01*
X20114786Y-17580350D02*
X20084786Y-17610350D01*
X20300786Y-11280350D02*
X20330786Y-11310350D01*
X20330786Y-11280350D02*
X20300786Y-11310350D01*
X20300786Y-12180350D02*
X20330786Y-12210350D01*
X20330786Y-12180350D02*
X20300786Y-12210350D01*
X20300786Y-13080350D02*
X20330786Y-13110350D01*
X20330786Y-13080350D02*
X20300786Y-13110350D01*
X20300786Y-13980350D02*
X20330786Y-14010350D01*
X20330786Y-13980350D02*
X20300786Y-14010350D01*
X20300786Y-14880350D02*
X20330786Y-14910350D01*
X20330786Y-14880350D02*
X20300786Y-14910350D01*
X20300786Y-15780350D02*
X20330786Y-15810350D01*
X20330786Y-15780350D02*
X20300786Y-15810350D01*
X20300786Y-16680350D02*
X20330786Y-16710350D01*
X20330786Y-16680350D02*
X20300786Y-16710350D01*
X20300786Y-17580350D02*
X20330786Y-17610350D01*
X20330786Y-17580350D02*
X20300786Y-17610350D01*
X20516786Y-11280350D02*
X20546786Y-11310350D01*
X20546786Y-11280350D02*
X20516786Y-11310350D01*
X20516786Y-12180350D02*
X20546786Y-12210350D01*
X20546786Y-12180350D02*
X20516786Y-12210350D01*
X20516786Y-13080350D02*
X20546786Y-13110350D01*
X20546786Y-13080350D02*
X20516786Y-13110350D01*
X20516786Y-13980350D02*
X20546786Y-14010350D01*
X20546786Y-13980350D02*
X20516786Y-14010350D01*
X20516786Y-14880350D02*
X20546786Y-14910350D01*
X20546786Y-14880350D02*
X20516786Y-14910350D01*
X20516786Y-15780350D02*
X20546786Y-15810350D01*
X20546786Y-15780350D02*
X20516786Y-15810350D01*
X20516786Y-16680350D02*
X20546786Y-16710350D01*
X20546786Y-16680350D02*
X20516786Y-16710350D01*
X20516786Y-17580350D02*
X20546786Y-17610350D01*
X20546786Y-17580350D02*
X20516786Y-17610350D01*
X20732786Y-11280350D02*
X20762786Y-11310350D01*
X20762786Y-11280350D02*
X20732786Y-11310350D01*
X20732786Y-12180350D02*
X20762786Y-12210350D01*
X20762786Y-12180350D02*
X20732786Y-12210350D01*
X20732786Y-13080350D02*
X20762786Y-13110350D01*
X20762786Y-13080350D02*
X20732786Y-13110350D01*
X20732786Y-13980350D02*
X20762786Y-14010350D01*
X20762786Y-13980350D02*
X20732786Y-14010350D01*
X20732786Y-14880350D02*
X20762786Y-14910350D01*
X20762786Y-14880350D02*
X20732786Y-14910350D01*
X20732786Y-15780350D02*
X20762786Y-15810350D01*
X20762786Y-15780350D02*
X20732786Y-15810350D01*
X20732786Y-16680350D02*
X20762786Y-16710350D01*
X20762786Y-16680350D02*
X20732786Y-16710350D01*
X20732786Y-17580350D02*
X20762786Y-17610350D01*
X20762786Y-17580350D02*
X20732786Y-17610350D01*
X20948786Y-11280350D02*
X20978786Y-11310350D01*
X20978786Y-11280350D02*
X20948786Y-11310350D01*
X20948786Y-12180350D02*
X20978786Y-12210350D01*
X20978786Y-12180350D02*
X20948786Y-12210350D01*
X20948786Y-13080350D02*
X20978786Y-13110350D01*
X20978786Y-13080350D02*
X20948786Y-13110350D01*
X20948786Y-13980350D02*
X20978786Y-14010350D01*
X20978786Y-13980350D02*
X20948786Y-14010350D01*
X20948786Y-14880350D02*
X20978786Y-14910350D01*
X20978786Y-14880350D02*
X20948786Y-14910350D01*
X20948786Y-15780350D02*
X20978786Y-15810350D01*
X20978786Y-15780350D02*
X20948786Y-15810350D01*
X20948786Y-16680350D02*
X20978786Y-16710350D01*
X20978786Y-16680350D02*
X20948786Y-16710350D01*
X20948786Y-17580350D02*
X20978786Y-17610350D01*
X20978786Y-17580350D02*
X20948786Y-17610350D01*
X21164786Y-11263087D02*
X21194786Y-11293087D01*
X21194786Y-11263087D02*
X21164786Y-11293087D01*
X21164786Y-12180350D02*
X21194786Y-12210350D01*
X21194786Y-12180350D02*
X21164786Y-12210350D01*
X21164786Y-13063087D02*
X21194786Y-13093087D01*
X21194786Y-13063087D02*
X21164786Y-13093087D01*
X21164786Y-13980350D02*
X21194786Y-14010350D01*
X21194786Y-13980350D02*
X21164786Y-14010350D01*
X21164786Y-14863087D02*
X21194786Y-14893087D01*
X21194786Y-14863087D02*
X21164786Y-14893087D01*
X21164786Y-15780350D02*
X21194786Y-15810350D01*
X21194786Y-15780350D02*
X21164786Y-15810350D01*
X21164786Y-16663087D02*
X21194786Y-16693087D01*
X21194786Y-16663087D02*
X21164786Y-16693087D01*
X21164786Y-17580350D02*
X21194786Y-17610350D01*
X21194786Y-17580350D02*
X21164786Y-17610350D01*
X21380786Y-12180350D02*
X21410786Y-12210350D01*
X21410786Y-12180350D02*
X21380786Y-12210350D01*
X21380786Y-13980350D02*
X21410786Y-14010350D01*
X21410786Y-13980350D02*
X21380786Y-14010350D01*
X21380786Y-15780350D02*
X21410786Y-15810350D01*
X21410786Y-15780350D02*
X21380786Y-15810350D01*
X21380786Y-17580350D02*
X21410786Y-17610350D01*
X21410786Y-17580350D02*
X21380786Y-17610350D01*
X21596786Y-12180350D02*
X21626786Y-12210350D01*
X21626786Y-12180350D02*
X21596786Y-12210350D01*
X21596786Y-13980350D02*
X21626786Y-14010350D01*
X21626786Y-13980350D02*
X21596786Y-14010350D01*
X21596786Y-15780350D02*
X21626786Y-15810350D01*
X21626786Y-15780350D02*
X21596786Y-15810350D01*
X21596786Y-17580350D02*
X21626786Y-17610350D01*
X21626786Y-17580350D02*
X21596786Y-17610350D01*
X21812786Y-11263087D02*
X21842786Y-11293087D01*
X21842786Y-11263087D02*
X21812786Y-11293087D01*
X21812786Y-12180350D02*
X21842786Y-12210350D01*
X21842786Y-12180350D02*
X21812786Y-12210350D01*
X21812786Y-13063087D02*
X21842786Y-13093087D01*
X21842786Y-13063087D02*
X21812786Y-13093087D01*
X21812786Y-13980350D02*
X21842786Y-14010350D01*
X21842786Y-13980350D02*
X21812786Y-14010350D01*
X21812786Y-14863087D02*
X21842786Y-14893087D01*
X21842786Y-14863087D02*
X21812786Y-14893087D01*
X21812786Y-15780350D02*
X21842786Y-15810350D01*
X21842786Y-15780350D02*
X21812786Y-15810350D01*
X21812786Y-16663087D02*
X21842786Y-16693087D01*
X21842786Y-16663087D02*
X21812786Y-16693087D01*
X21812786Y-17580350D02*
X21842786Y-17610350D01*
X21842786Y-17580350D02*
X21812786Y-17610350D01*
X22028786Y-11280350D02*
X22058786Y-11310350D01*
X22058786Y-11280350D02*
X22028786Y-11310350D01*
X22028786Y-12180350D02*
X22058786Y-12210350D01*
X22058786Y-12180350D02*
X22028786Y-12210350D01*
X22028786Y-13080350D02*
X22058786Y-13110350D01*
X22058786Y-13080350D02*
X22028786Y-13110350D01*
X22028786Y-13980350D02*
X22058786Y-14010350D01*
X22058786Y-13980350D02*
X22028786Y-14010350D01*
X22028786Y-14880350D02*
X22058786Y-14910350D01*
X22058786Y-14880350D02*
X22028786Y-14910350D01*
X22028786Y-15780350D02*
X22058786Y-15810350D01*
X22058786Y-15780350D02*
X22028786Y-15810350D01*
X22028786Y-16680350D02*
X22058786Y-16710350D01*
X22058786Y-16680350D02*
X22028786Y-16710350D01*
X22028786Y-17580350D02*
X22058786Y-17610350D01*
X22058786Y-17580350D02*
X22028786Y-17610350D01*
X22244786Y-11280350D02*
X22274786Y-11310350D01*
X22274786Y-11280350D02*
X22244786Y-11310350D01*
X22244786Y-12180350D02*
X22274786Y-12210350D01*
X22274786Y-12180350D02*
X22244786Y-12210350D01*
X22244786Y-13080350D02*
X22274786Y-13110350D01*
X22274786Y-13080350D02*
X22244786Y-13110350D01*
X22244786Y-13980350D02*
X22274786Y-14010350D01*
X22274786Y-13980350D02*
X22244786Y-14010350D01*
X22244786Y-14880350D02*
X22274786Y-14910350D01*
X22274786Y-14880350D02*
X22244786Y-14910350D01*
X22244786Y-15780350D02*
X22274786Y-15810350D01*
X22274786Y-15780350D02*
X22244786Y-15810350D01*
X22244786Y-16680350D02*
X22274786Y-16710350D01*
X22274786Y-16680350D02*
X22244786Y-16710350D01*
X22244786Y-17580350D02*
X22274786Y-17610350D01*
X22274786Y-17580350D02*
X22244786Y-17610350D01*
X22460786Y-11280350D02*
X22490786Y-11310350D01*
X22490786Y-11280350D02*
X22460786Y-11310350D01*
X22460786Y-12180350D02*
X22490786Y-12210350D01*
X22490786Y-12180350D02*
X22460786Y-12210350D01*
X22460786Y-13080350D02*
X22490786Y-13110350D01*
X22490786Y-13080350D02*
X22460786Y-13110350D01*
X22460786Y-13980350D02*
X22490786Y-14010350D01*
X22490786Y-13980350D02*
X22460786Y-14010350D01*
X22460786Y-14880350D02*
X22490786Y-14910350D01*
X22490786Y-14880350D02*
X22460786Y-14910350D01*
X22460786Y-15780350D02*
X22490786Y-15810350D01*
X22490786Y-15780350D02*
X22460786Y-15810350D01*
X22460786Y-16680350D02*
X22490786Y-16710350D01*
X22490786Y-16680350D02*
X22460786Y-16710350D01*
X22460786Y-17580350D02*
X22490786Y-17610350D01*
X22490786Y-17580350D02*
X22460786Y-17610350D01*
X22676786Y-11280350D02*
X22706786Y-11310350D01*
X22706786Y-11280350D02*
X22676786Y-11310350D01*
X22676786Y-12180350D02*
X22706786Y-12210350D01*
X22706786Y-12180350D02*
X22676786Y-12210350D01*
X22676786Y-13080350D02*
X22706786Y-13110350D01*
X22706786Y-13080350D02*
X22676786Y-13110350D01*
X22676786Y-13980350D02*
X22706786Y-14010350D01*
X22706786Y-13980350D02*
X22676786Y-14010350D01*
X22676786Y-14880350D02*
X22706786Y-14910350D01*
X22706786Y-14880350D02*
X22676786Y-14910350D01*
X22676786Y-15780350D02*
X22706786Y-15810350D01*
X22706786Y-15780350D02*
X22676786Y-15810350D01*
X22676786Y-16680350D02*
X22706786Y-16710350D01*
X22706786Y-16680350D02*
X22676786Y-16710350D01*
X22676786Y-17580350D02*
X22706786Y-17610350D01*
X22706786Y-17580350D02*
X22676786Y-17610350D01*
X22892786Y-11280350D02*
X22922786Y-11310350D01*
X22922786Y-11280350D02*
X22892786Y-11310350D01*
X22892786Y-12180350D02*
X22922786Y-12210350D01*
X22922786Y-12180350D02*
X22892786Y-12210350D01*
X22892786Y-13080350D02*
X22922786Y-13110350D01*
X22922786Y-13080350D02*
X22892786Y-13110350D01*
X22892786Y-13980350D02*
X22922786Y-14010350D01*
X22922786Y-13980350D02*
X22892786Y-14010350D01*
X22892786Y-14880350D02*
X22922786Y-14910350D01*
X22922786Y-14880350D02*
X22892786Y-14910350D01*
X22892786Y-15780350D02*
X22922786Y-15810350D01*
X22922786Y-15780350D02*
X22892786Y-15810350D01*
X22892786Y-16680350D02*
X22922786Y-16710350D01*
X22922786Y-16680350D02*
X22892786Y-16710350D01*
X22892786Y-17580350D02*
X22922786Y-17610350D01*
X22922786Y-17580350D02*
X22892786Y-17610350D01*
X23108786Y-11280350D02*
X23138786Y-11310350D01*
X23138786Y-11280350D02*
X23108786Y-11310350D01*
X23108786Y-12180350D02*
X23138786Y-12210350D01*
X23138786Y-12180350D02*
X23108786Y-12210350D01*
X23108786Y-13080350D02*
X23138786Y-13110350D01*
X23138786Y-13080350D02*
X23108786Y-13110350D01*
X23108786Y-13980350D02*
X23138786Y-14010350D01*
X23138786Y-13980350D02*
X23108786Y-14010350D01*
X23108786Y-14880350D02*
X23138786Y-14910350D01*
X23138786Y-14880350D02*
X23108786Y-14910350D01*
X23108786Y-15780350D02*
X23138786Y-15810350D01*
X23138786Y-15780350D02*
X23108786Y-15810350D01*
X23108786Y-16680350D02*
X23138786Y-16710350D01*
X23138786Y-16680350D02*
X23108786Y-16710350D01*
X23108786Y-17580350D02*
X23138786Y-17610350D01*
X23138786Y-17580350D02*
X23108786Y-17610350D01*
X23324786Y-11280350D02*
X23354786Y-11310350D01*
X23354786Y-11280350D02*
X23324786Y-11310350D01*
X23324786Y-12180350D02*
X23354786Y-12210350D01*
X23354786Y-12180350D02*
X23324786Y-12210350D01*
X23324786Y-13080350D02*
X23354786Y-13110350D01*
X23354786Y-13080350D02*
X23324786Y-13110350D01*
X23324786Y-13980350D02*
X23354786Y-14010350D01*
X23354786Y-13980350D02*
X23324786Y-14010350D01*
X23324786Y-14880350D02*
X23354786Y-14910350D01*
X23354786Y-14880350D02*
X23324786Y-14910350D01*
X23324786Y-15780350D02*
X23354786Y-15810350D01*
X23354786Y-15780350D02*
X23324786Y-15810350D01*
X23324786Y-16680350D02*
X23354786Y-16710350D01*
X23354786Y-16680350D02*
X23324786Y-16710350D01*
X23324786Y-17580350D02*
X23354786Y-17610350D01*
X23354786Y-17580350D02*
X23324786Y-17610350D01*
X23540786Y-11280350D02*
X23570786Y-11310350D01*
X23570786Y-11280350D02*
X23540786Y-11310350D01*
X23540786Y-12180350D02*
X23570786Y-12210350D01*
X23570786Y-12180350D02*
X23540786Y-12210350D01*
X23540786Y-13080350D02*
X23570786Y-13110350D01*
X23570786Y-13080350D02*
X23540786Y-13110350D01*
X23540786Y-13980350D02*
X23570786Y-14010350D01*
X23570786Y-13980350D02*
X23540786Y-14010350D01*
X23540786Y-14880350D02*
X23570786Y-14910350D01*
X23570786Y-14880350D02*
X23540786Y-14910350D01*
X23540786Y-15780350D02*
X23570786Y-15810350D01*
X23570786Y-15780350D02*
X23540786Y-15810350D01*
X23540786Y-16680350D02*
X23570786Y-16710350D01*
X23570786Y-16680350D02*
X23540786Y-16710350D01*
X23540786Y-17580350D02*
X23570786Y-17610350D01*
X23570786Y-17580350D02*
X23540786Y-17610350D01*
X23756786Y-11280350D02*
X23786786Y-11310350D01*
X23786786Y-11280350D02*
X23756786Y-11310350D01*
X23756786Y-12180350D02*
X23786786Y-12210350D01*
X23786786Y-12180350D02*
X23756786Y-12210350D01*
X23756786Y-13080350D02*
X23786786Y-13110350D01*
X23786786Y-13080350D02*
X23756786Y-13110350D01*
X23756786Y-13980350D02*
X23786786Y-14010350D01*
X23786786Y-13980350D02*
X23756786Y-14010350D01*
X23756786Y-14880350D02*
X23786786Y-14910350D01*
X23786786Y-14880350D02*
X23756786Y-14910350D01*
X23756786Y-15780350D02*
X23786786Y-15810350D01*
X23786786Y-15780350D02*
X23756786Y-15810350D01*
X23756786Y-16680350D02*
X23786786Y-16710350D01*
X23786786Y-16680350D02*
X23756786Y-16710350D01*
X23756786Y-17580350D02*
X23786786Y-17610350D01*
X23786786Y-17580350D02*
X23756786Y-17610350D01*
X23972786Y-11280350D02*
X24002786Y-11310350D01*
X24002786Y-11280350D02*
X23972786Y-11310350D01*
X23972786Y-12180350D02*
X24002786Y-12210350D01*
X24002786Y-12180350D02*
X23972786Y-12210350D01*
X23972786Y-13080350D02*
X24002786Y-13110350D01*
X24002786Y-13080350D02*
X23972786Y-13110350D01*
X23972786Y-13980350D02*
X24002786Y-14010350D01*
X24002786Y-13980350D02*
X23972786Y-14010350D01*
X23972786Y-14880350D02*
X24002786Y-14910350D01*
X24002786Y-14880350D02*
X23972786Y-14910350D01*
X23972786Y-15780350D02*
X24002786Y-15810350D01*
X24002786Y-15780350D02*
X23972786Y-15810350D01*
X23972786Y-16680350D02*
X24002786Y-16710350D01*
X24002786Y-16680350D02*
X23972786Y-16710350D01*
X23972786Y-17580350D02*
X24002786Y-17610350D01*
X24002786Y-17580350D02*
X23972786Y-17610350D01*
X24188786Y-11280350D02*
X24218786Y-11310350D01*
X24218786Y-11280350D02*
X24188786Y-11310350D01*
X24188786Y-12180350D02*
X24218786Y-12210350D01*
X24218786Y-12180350D02*
X24188786Y-12210350D01*
X24188786Y-13080350D02*
X24218786Y-13110350D01*
X24218786Y-13080350D02*
X24188786Y-13110350D01*
X24188786Y-13980350D02*
X24218786Y-14010350D01*
X24218786Y-13980350D02*
X24188786Y-14010350D01*
X24188786Y-14880350D02*
X24218786Y-14910350D01*
X24218786Y-14880350D02*
X24188786Y-14910350D01*
X24188786Y-15780350D02*
X24218786Y-15810350D01*
X24218786Y-15780350D02*
X24188786Y-15810350D01*
X24188786Y-16680350D02*
X24218786Y-16710350D01*
X24218786Y-16680350D02*
X24188786Y-16710350D01*
X24188786Y-17580350D02*
X24218786Y-17610350D01*
X24218786Y-17580350D02*
X24188786Y-17610350D01*
X24404786Y-11280350D02*
X24434786Y-11310350D01*
X24434786Y-11280350D02*
X24404786Y-11310350D01*
X24404786Y-12180350D02*
X24434786Y-12210350D01*
X24434786Y-12180350D02*
X24404786Y-12210350D01*
X24404786Y-13080350D02*
X24434786Y-13110350D01*
X24434786Y-13080350D02*
X24404786Y-13110350D01*
X24404786Y-13980350D02*
X24434786Y-14010350D01*
X24434786Y-13980350D02*
X24404786Y-14010350D01*
X24404786Y-14880350D02*
X24434786Y-14910350D01*
X24434786Y-14880350D02*
X24404786Y-14910350D01*
X24404786Y-15780350D02*
X24434786Y-15810350D01*
X24434786Y-15780350D02*
X24404786Y-15810350D01*
X24404786Y-16680350D02*
X24434786Y-16710350D01*
X24434786Y-16680350D02*
X24404786Y-16710350D01*
X24404786Y-17580350D02*
X24434786Y-17610350D01*
X24434786Y-17580350D02*
X24404786Y-17610350D01*
X24620786Y-11280350D02*
X24650786Y-11310350D01*
X24650786Y-11280350D02*
X24620786Y-11310350D01*
X24620786Y-12180350D02*
X24650786Y-12210350D01*
X24650786Y-12180350D02*
X24620786Y-12210350D01*
X24620786Y-13080350D02*
X24650786Y-13110350D01*
X24650786Y-13080350D02*
X24620786Y-13110350D01*
X24620786Y-13980350D02*
X24650786Y-14010350D01*
X24650786Y-13980350D02*
X24620786Y-14010350D01*
X24620786Y-14880350D02*
X24650786Y-14910350D01*
X24650786Y-14880350D02*
X24620786Y-14910350D01*
X24620786Y-15780350D02*
X24650786Y-15810350D01*
X24650786Y-15780350D02*
X24620786Y-15810350D01*
X24620786Y-16680350D02*
X24650786Y-16710350D01*
X24650786Y-16680350D02*
X24620786Y-16710350D01*
X24620786Y-17580350D02*
X24650786Y-17610350D01*
X24650786Y-17580350D02*
X24620786Y-17610350D01*
X24836786Y-11280350D02*
X24866786Y-11310350D01*
X24866786Y-11280350D02*
X24836786Y-11310350D01*
X24836786Y-12180350D02*
X24866786Y-12210350D01*
X24866786Y-12180350D02*
X24836786Y-12210350D01*
X24836786Y-13080350D02*
X24866786Y-13110350D01*
X24866786Y-13080350D02*
X24836786Y-13110350D01*
X24836786Y-13980350D02*
X24866786Y-14010350D01*
X24866786Y-13980350D02*
X24836786Y-14010350D01*
X24836786Y-14880350D02*
X24866786Y-14910350D01*
X24866786Y-14880350D02*
X24836786Y-14910350D01*
X24836786Y-15780350D02*
X24866786Y-15810350D01*
X24866786Y-15780350D02*
X24836786Y-15810350D01*
X24836786Y-16680350D02*
X24866786Y-16710350D01*
X24866786Y-16680350D02*
X24836786Y-16710350D01*
X24836786Y-17580350D02*
X24866786Y-17610350D01*
X24866786Y-17580350D02*
X24836786Y-17610350D01*
X25052786Y-11280350D02*
X25082786Y-11310350D01*
X25082786Y-11280350D02*
X25052786Y-11310350D01*
X25052786Y-12180350D02*
X25082786Y-12210350D01*
X25082786Y-12180350D02*
X25052786Y-12210350D01*
X25052786Y-13080350D02*
X25082786Y-13110350D01*
X25082786Y-13080350D02*
X25052786Y-13110350D01*
X25052786Y-13980350D02*
X25082786Y-14010350D01*
X25082786Y-13980350D02*
X25052786Y-14010350D01*
X25052786Y-14880350D02*
X25082786Y-14910350D01*
X25082786Y-14880350D02*
X25052786Y-14910350D01*
X25052786Y-15780350D02*
X25082786Y-15810350D01*
X25082786Y-15780350D02*
X25052786Y-15810350D01*
X25052786Y-16680350D02*
X25082786Y-16710350D01*
X25082786Y-16680350D02*
X25052786Y-16710350D01*
X25052786Y-17580350D02*
X25082786Y-17610350D01*
X25082786Y-17580350D02*
X25052786Y-17610350D01*
X25268786Y-11280350D02*
X25298786Y-11310350D01*
X25298786Y-11280350D02*
X25268786Y-11310350D01*
X25268786Y-12180350D02*
X25298786Y-12210350D01*
X25298786Y-12180350D02*
X25268786Y-12210350D01*
X25268786Y-13080350D02*
X25298786Y-13110350D01*
X25298786Y-13080350D02*
X25268786Y-13110350D01*
X25268786Y-13980350D02*
X25298786Y-14010350D01*
X25298786Y-13980350D02*
X25268786Y-14010350D01*
X25268786Y-14880350D02*
X25298786Y-14910350D01*
X25298786Y-14880350D02*
X25268786Y-14910350D01*
X25268786Y-15780350D02*
X25298786Y-15810350D01*
X25298786Y-15780350D02*
X25268786Y-15810350D01*
X25268786Y-16680350D02*
X25298786Y-16710350D01*
X25298786Y-16680350D02*
X25268786Y-16710350D01*
X25268786Y-17580350D02*
X25298786Y-17610350D01*
X25298786Y-17580350D02*
X25268786Y-17610350D01*
X25484786Y-11280350D02*
X25514786Y-11310350D01*
X25514786Y-11280350D02*
X25484786Y-11310350D01*
X25484786Y-12180350D02*
X25514786Y-12210350D01*
X25514786Y-12180350D02*
X25484786Y-12210350D01*
X25484786Y-13080350D02*
X25514786Y-13110350D01*
X25514786Y-13080350D02*
X25484786Y-13110350D01*
X25484786Y-13980350D02*
X25514786Y-14010350D01*
X25514786Y-13980350D02*
X25484786Y-14010350D01*
X25484786Y-14880350D02*
X25514786Y-14910350D01*
X25514786Y-14880350D02*
X25484786Y-14910350D01*
X25484786Y-15780350D02*
X25514786Y-15810350D01*
X25514786Y-15780350D02*
X25484786Y-15810350D01*
X25484786Y-16680350D02*
X25514786Y-16710350D01*
X25514786Y-16680350D02*
X25484786Y-16710350D01*
X25484786Y-17580350D02*
X25514786Y-17610350D01*
X25514786Y-17580350D02*
X25484786Y-17610350D01*
X25700786Y-11280350D02*
X25730786Y-11310350D01*
X25730786Y-11280350D02*
X25700786Y-11310350D01*
X25700786Y-12180350D02*
X25730786Y-12210350D01*
X25730786Y-12180350D02*
X25700786Y-12210350D01*
X25700786Y-13080350D02*
X25730786Y-13110350D01*
X25730786Y-13080350D02*
X25700786Y-13110350D01*
X25700786Y-13980350D02*
X25730786Y-14010350D01*
X25730786Y-13980350D02*
X25700786Y-14010350D01*
X25700786Y-14880350D02*
X25730786Y-14910350D01*
X25730786Y-14880350D02*
X25700786Y-14910350D01*
X25700786Y-15780350D02*
X25730786Y-15810350D01*
X25730786Y-15780350D02*
X25700786Y-15810350D01*
X25700786Y-16680350D02*
X25730786Y-16710350D01*
X25730786Y-16680350D02*
X25700786Y-16710350D01*
X25700786Y-17580350D02*
X25730786Y-17610350D01*
X25730786Y-17580350D02*
X25700786Y-17610350D01*
X25916786Y-11280350D02*
X25946786Y-11310350D01*
X25946786Y-11280350D02*
X25916786Y-11310350D01*
X25916786Y-12180350D02*
X25946786Y-12210350D01*
X25946786Y-12180350D02*
X25916786Y-12210350D01*
X25916786Y-13080350D02*
X25946786Y-13110350D01*
X25946786Y-13080350D02*
X25916786Y-13110350D01*
X25916786Y-13980350D02*
X25946786Y-14010350D01*
X25946786Y-13980350D02*
X25916786Y-14010350D01*
X25916786Y-14880350D02*
X25946786Y-14910350D01*
X25946786Y-14880350D02*
X25916786Y-14910350D01*
X25916786Y-15780350D02*
X25946786Y-15810350D01*
X25946786Y-15780350D02*
X25916786Y-15810350D01*
X25916786Y-16680350D02*
X25946786Y-16710350D01*
X25946786Y-16680350D02*
X25916786Y-16710350D01*
X25916786Y-17580350D02*
X25946786Y-17610350D01*
X25946786Y-17580350D02*
X25916786Y-17610350D01*
X26132786Y-11280350D02*
X26162786Y-11310350D01*
X26162786Y-11280350D02*
X26132786Y-11310350D01*
X26132786Y-12180350D02*
X26162786Y-12210350D01*
X26162786Y-12180350D02*
X26132786Y-12210350D01*
X26132786Y-13080350D02*
X26162786Y-13110350D01*
X26162786Y-13080350D02*
X26132786Y-13110350D01*
X26132786Y-13980350D02*
X26162786Y-14010350D01*
X26162786Y-13980350D02*
X26132786Y-14010350D01*
X26132786Y-14880350D02*
X26162786Y-14910350D01*
X26162786Y-14880350D02*
X26132786Y-14910350D01*
X26132786Y-15780350D02*
X26162786Y-15810350D01*
X26162786Y-15780350D02*
X26132786Y-15810350D01*
X26132786Y-16680350D02*
X26162786Y-16710350D01*
X26162786Y-16680350D02*
X26132786Y-16710350D01*
X26132786Y-17580350D02*
X26162786Y-17610350D01*
X26162786Y-17580350D02*
X26132786Y-17610350D01*
X26348786Y-11280350D02*
X26378786Y-11310350D01*
X26378786Y-11280350D02*
X26348786Y-11310350D01*
X26348786Y-12180350D02*
X26378786Y-12210350D01*
X26378786Y-12180350D02*
X26348786Y-12210350D01*
X26348786Y-13080350D02*
X26378786Y-13110350D01*
X26378786Y-13080350D02*
X26348786Y-13110350D01*
X26348786Y-13980350D02*
X26378786Y-14010350D01*
X26378786Y-13980350D02*
X26348786Y-14010350D01*
X26348786Y-14880350D02*
X26378786Y-14910350D01*
X26378786Y-14880350D02*
X26348786Y-14910350D01*
X26348786Y-15780350D02*
X26378786Y-15810350D01*
X26378786Y-15780350D02*
X26348786Y-15810350D01*
X26348786Y-16680350D02*
X26378786Y-16710350D01*
X26378786Y-16680350D02*
X26348786Y-16710350D01*
X26348786Y-17580350D02*
X26378786Y-17610350D01*
X26378786Y-17580350D02*
X26348786Y-17610350D01*
X26564786Y-11280350D02*
X26594786Y-11310350D01*
X26594786Y-11280350D02*
X26564786Y-11310350D01*
X26564786Y-12197613D02*
X26594786Y-12227613D01*
X26594786Y-12197613D02*
X26564786Y-12227613D01*
X26564786Y-13080350D02*
X26594786Y-13110350D01*
X26594786Y-13080350D02*
X26564786Y-13110350D01*
X26564786Y-13997613D02*
X26594786Y-14027613D01*
X26594786Y-13997613D02*
X26564786Y-14027613D01*
X26564786Y-14880350D02*
X26594786Y-14910350D01*
X26594786Y-14880350D02*
X26564786Y-14910350D01*
X26564786Y-15797613D02*
X26594786Y-15827613D01*
X26594786Y-15797613D02*
X26564786Y-15827613D01*
X26564786Y-16680350D02*
X26594786Y-16710350D01*
X26594786Y-16680350D02*
X26564786Y-16710350D01*
X26564786Y-17597613D02*
X26594786Y-17627613D01*
X26594786Y-17597613D02*
X26564786Y-17627613D01*
X26780786Y-11280350D02*
X26810786Y-11310350D01*
X26810786Y-11280350D02*
X26780786Y-11310350D01*
X26780786Y-13080350D02*
X26810786Y-13110350D01*
X26810786Y-13080350D02*
X26780786Y-13110350D01*
X26780786Y-14880350D02*
X26810786Y-14910350D01*
X26810786Y-14880350D02*
X26780786Y-14910350D01*
X26780786Y-16680350D02*
X26810786Y-16710350D01*
X26810786Y-16680350D02*
X26780786Y-16710350D01*
X26996786Y-11280350D02*
X27026786Y-11310350D01*
X27026786Y-11280350D02*
X26996786Y-11310350D01*
X26996786Y-13080350D02*
X27026786Y-13110350D01*
X27026786Y-13080350D02*
X26996786Y-13110350D01*
X26996786Y-14880350D02*
X27026786Y-14910350D01*
X27026786Y-14880350D02*
X26996786Y-14910350D01*
X26996786Y-16680350D02*
X27026786Y-16710350D01*
X27026786Y-16680350D02*
X26996786Y-16710350D01*
X27212786Y-11280350D02*
X27242786Y-11310350D01*
X27242786Y-11280350D02*
X27212786Y-11310350D01*
X27212786Y-12197613D02*
X27242786Y-12227613D01*
X27242786Y-12197613D02*
X27212786Y-12227613D01*
X27212786Y-13080350D02*
X27242786Y-13110350D01*
X27242786Y-13080350D02*
X27212786Y-13110350D01*
X27212786Y-13997613D02*
X27242786Y-14027613D01*
X27242786Y-13997613D02*
X27212786Y-14027613D01*
X27212786Y-14880350D02*
X27242786Y-14910350D01*
X27242786Y-14880350D02*
X27212786Y-14910350D01*
X27212786Y-15797613D02*
X27242786Y-15827613D01*
X27242786Y-15797613D02*
X27212786Y-15827613D01*
X27212786Y-16680350D02*
X27242786Y-16710350D01*
X27242786Y-16680350D02*
X27212786Y-16710350D01*
X27212786Y-17597613D02*
X27242786Y-17627613D01*
X27242786Y-17597613D02*
X27212786Y-17627613D01*
X27428786Y-11280350D02*
X27458786Y-11310350D01*
X27458786Y-11280350D02*
X27428786Y-11310350D01*
X27428786Y-12180350D02*
X27458786Y-12210350D01*
X27458786Y-12180350D02*
X27428786Y-12210350D01*
X27428786Y-13080350D02*
X27458786Y-13110350D01*
X27458786Y-13080350D02*
X27428786Y-13110350D01*
X27428786Y-13980350D02*
X27458786Y-14010350D01*
X27458786Y-13980350D02*
X27428786Y-14010350D01*
X27428786Y-14880350D02*
X27458786Y-14910350D01*
X27458786Y-14880350D02*
X27428786Y-14910350D01*
X27428786Y-15780350D02*
X27458786Y-15810350D01*
X27458786Y-15780350D02*
X27428786Y-15810350D01*
X27428786Y-16680350D02*
X27458786Y-16710350D01*
X27458786Y-16680350D02*
X27428786Y-16710350D01*
X27428786Y-17580350D02*
X27458786Y-17610350D01*
X27458786Y-17580350D02*
X27428786Y-17610350D01*
X27644786Y-11280350D02*
X27674786Y-11310350D01*
X27674786Y-11280350D02*
X27644786Y-11310350D01*
X27644786Y-12180350D02*
X27674786Y-12210350D01*
X27674786Y-12180350D02*
X27644786Y-12210350D01*
X27644786Y-13080350D02*
X27674786Y-13110350D01*
X27674786Y-13080350D02*
X27644786Y-13110350D01*
X27644786Y-13980350D02*
X27674786Y-14010350D01*
X27674786Y-13980350D02*
X27644786Y-14010350D01*
X27644786Y-14880350D02*
X27674786Y-14910350D01*
X27674786Y-14880350D02*
X27644786Y-14910350D01*
X27644786Y-15780350D02*
X27674786Y-15810350D01*
X27674786Y-15780350D02*
X27644786Y-15810350D01*
X27644786Y-16680350D02*
X27674786Y-16710350D01*
X27674786Y-16680350D02*
X27644786Y-16710350D01*
X27644786Y-17580350D02*
X27674786Y-17610350D01*
X27674786Y-17580350D02*
X27644786Y-17610350D01*
X27860786Y-11280350D02*
X27890786Y-11310350D01*
X27890786Y-11280350D02*
X27860786Y-11310350D01*
X27860786Y-12180350D02*
X27890786Y-12210350D01*
X27890786Y-12180350D02*
X27860786Y-12210350D01*
X27860786Y-13080350D02*
X27890786Y-13110350D01*
X27890786Y-13080350D02*
X27860786Y-13110350D01*
X27860786Y-13980350D02*
X27890786Y-14010350D01*
X27890786Y-13980350D02*
X27860786Y-14010350D01*
X27860786Y-14880350D02*
X27890786Y-14910350D01*
X27890786Y-14880350D02*
X27860786Y-14910350D01*
X27860786Y-15780350D02*
X27890786Y-15810350D01*
X27890786Y-15780350D02*
X27860786Y-15810350D01*
X27860786Y-16680350D02*
X27890786Y-16710350D01*
X27890786Y-16680350D02*
X27860786Y-16710350D01*
X27860786Y-17580350D02*
X27890786Y-17610350D01*
X27890786Y-17580350D02*
X27860786Y-17610350D01*
X28076786Y-11280350D02*
X28106786Y-11310350D01*
X28106786Y-11280350D02*
X28076786Y-11310350D01*
X28076786Y-12180350D02*
X28106786Y-12210350D01*
X28106786Y-12180350D02*
X28076786Y-12210350D01*
X28076786Y-13080350D02*
X28106786Y-13110350D01*
X28106786Y-13080350D02*
X28076786Y-13110350D01*
X28076786Y-13980350D02*
X28106786Y-14010350D01*
X28106786Y-13980350D02*
X28076786Y-14010350D01*
X28076786Y-14880350D02*
X28106786Y-14910350D01*
X28106786Y-14880350D02*
X28076786Y-14910350D01*
X28076786Y-15780350D02*
X28106786Y-15810350D01*
X28106786Y-15780350D02*
X28076786Y-15810350D01*
X28076786Y-16680350D02*
X28106786Y-16710350D01*
X28106786Y-16680350D02*
X28076786Y-16710350D01*
X28076786Y-17580350D02*
X28106786Y-17610350D01*
X28106786Y-17580350D02*
X28076786Y-17610350D01*
X28292786Y-11280350D02*
X28322786Y-11310350D01*
X28322786Y-11280350D02*
X28292786Y-11310350D01*
X28292786Y-12180350D02*
X28322786Y-12210350D01*
X28322786Y-12180350D02*
X28292786Y-12210350D01*
X28292786Y-13080350D02*
X28322786Y-13110350D01*
X28322786Y-13080350D02*
X28292786Y-13110350D01*
X28292786Y-13980350D02*
X28322786Y-14010350D01*
X28322786Y-13980350D02*
X28292786Y-14010350D01*
X28292786Y-14880350D02*
X28322786Y-14910350D01*
X28322786Y-14880350D02*
X28292786Y-14910350D01*
X28292786Y-15780350D02*
X28322786Y-15810350D01*
X28322786Y-15780350D02*
X28292786Y-15810350D01*
X28292786Y-16680350D02*
X28322786Y-16710350D01*
X28322786Y-16680350D02*
X28292786Y-16710350D01*
X28292786Y-17580350D02*
X28322786Y-17610350D01*
X28322786Y-17580350D02*
X28292786Y-17610350D01*
X28508786Y-11280350D02*
X28538786Y-11310350D01*
X28538786Y-11280350D02*
X28508786Y-11310350D01*
X28508786Y-12180350D02*
X28538786Y-12210350D01*
X28538786Y-12180350D02*
X28508786Y-12210350D01*
X28508786Y-13080350D02*
X28538786Y-13110350D01*
X28538786Y-13080350D02*
X28508786Y-13110350D01*
X28508786Y-13980350D02*
X28538786Y-14010350D01*
X28538786Y-13980350D02*
X28508786Y-14010350D01*
X28508786Y-14880350D02*
X28538786Y-14910350D01*
X28538786Y-14880350D02*
X28508786Y-14910350D01*
X28508786Y-15780350D02*
X28538786Y-15810350D01*
X28538786Y-15780350D02*
X28508786Y-15810350D01*
X28508786Y-16680350D02*
X28538786Y-16710350D01*
X28538786Y-16680350D02*
X28508786Y-16710350D01*
X28508786Y-17580350D02*
X28538786Y-17610350D01*
X28538786Y-17580350D02*
X28508786Y-17610350D01*
X28724786Y-11280350D02*
X28754786Y-11310350D01*
X28754786Y-11280350D02*
X28724786Y-11310350D01*
X28724786Y-12180350D02*
X28754786Y-12210350D01*
X28754786Y-12180350D02*
X28724786Y-12210350D01*
X28724786Y-13080350D02*
X28754786Y-13110350D01*
X28754786Y-13080350D02*
X28724786Y-13110350D01*
X28724786Y-13980350D02*
X28754786Y-14010350D01*
X28754786Y-13980350D02*
X28724786Y-14010350D01*
X28724786Y-14880350D02*
X28754786Y-14910350D01*
X28754786Y-14880350D02*
X28724786Y-14910350D01*
X28724786Y-15780350D02*
X28754786Y-15810350D01*
X28754786Y-15780350D02*
X28724786Y-15810350D01*
X28724786Y-16680350D02*
X28754786Y-16710350D01*
X28754786Y-16680350D02*
X28724786Y-16710350D01*
X28724786Y-17580350D02*
X28754786Y-17610350D01*
X28754786Y-17580350D02*
X28724786Y-17610350D01*
X28940786Y-11280350D02*
X28970786Y-11310350D01*
X28970786Y-11280350D02*
X28940786Y-11310350D01*
X28940786Y-12180350D02*
X28970786Y-12210350D01*
X28970786Y-12180350D02*
X28940786Y-12210350D01*
X28940786Y-13080350D02*
X28970786Y-13110350D01*
X28970786Y-13080350D02*
X28940786Y-13110350D01*
X28940786Y-13980350D02*
X28970786Y-14010350D01*
X28970786Y-13980350D02*
X28940786Y-14010350D01*
X28940786Y-14880350D02*
X28970786Y-14910350D01*
X28970786Y-14880350D02*
X28940786Y-14910350D01*
X28940786Y-15780350D02*
X28970786Y-15810350D01*
X28970786Y-15780350D02*
X28940786Y-15810350D01*
X28940786Y-16680350D02*
X28970786Y-16710350D01*
X28970786Y-16680350D02*
X28940786Y-16710350D01*
X28940786Y-17580350D02*
X28970786Y-17610350D01*
X28970786Y-17580350D02*
X28940786Y-17610350D01*
X29156786Y-11280350D02*
X29186786Y-11310350D01*
X29186786Y-11280350D02*
X29156786Y-11310350D01*
X29156786Y-12180350D02*
X29186786Y-12210350D01*
X29186786Y-12180350D02*
X29156786Y-12210350D01*
X29156786Y-13080350D02*
X29186786Y-13110350D01*
X29186786Y-13080350D02*
X29156786Y-13110350D01*
X29156786Y-13980350D02*
X29186786Y-14010350D01*
X29186786Y-13980350D02*
X29156786Y-14010350D01*
X29156786Y-14880350D02*
X29186786Y-14910350D01*
X29186786Y-14880350D02*
X29156786Y-14910350D01*
X29156786Y-15780350D02*
X29186786Y-15810350D01*
X29186786Y-15780350D02*
X29156786Y-15810350D01*
X29156786Y-16680350D02*
X29186786Y-16710350D01*
X29186786Y-16680350D02*
X29156786Y-16710350D01*
X29156786Y-17580350D02*
X29186786Y-17610350D01*
X29186786Y-17580350D02*
X29156786Y-17610350D01*
X29372786Y-11280350D02*
X29402786Y-11310350D01*
X29402786Y-11280350D02*
X29372786Y-11310350D01*
X29372786Y-12180350D02*
X29402786Y-12210350D01*
X29402786Y-12180350D02*
X29372786Y-12210350D01*
X29372786Y-13080350D02*
X29402786Y-13110350D01*
X29402786Y-13080350D02*
X29372786Y-13110350D01*
X29372786Y-13980350D02*
X29402786Y-14010350D01*
X29402786Y-13980350D02*
X29372786Y-14010350D01*
X29372786Y-14880350D02*
X29402786Y-14910350D01*
X29402786Y-14880350D02*
X29372786Y-14910350D01*
X29372786Y-15780350D02*
X29402786Y-15810350D01*
X29402786Y-15780350D02*
X29372786Y-15810350D01*
X29372786Y-16680350D02*
X29402786Y-16710350D01*
X29402786Y-16680350D02*
X29372786Y-16710350D01*
X29372786Y-17580350D02*
X29402786Y-17610350D01*
X29402786Y-17580350D02*
X29372786Y-17610350D01*
X29588786Y-11280350D02*
X29618786Y-11310350D01*
X29618786Y-11280350D02*
X29588786Y-11310350D01*
X29588786Y-12180350D02*
X29618786Y-12210350D01*
X29618786Y-12180350D02*
X29588786Y-12210350D01*
X29588786Y-13080350D02*
X29618786Y-13110350D01*
X29618786Y-13080350D02*
X29588786Y-13110350D01*
X29588786Y-13980350D02*
X29618786Y-14010350D01*
X29618786Y-13980350D02*
X29588786Y-14010350D01*
X29588786Y-14880350D02*
X29618786Y-14910350D01*
X29618786Y-14880350D02*
X29588786Y-14910350D01*
X29588786Y-15780350D02*
X29618786Y-15810350D01*
X29618786Y-15780350D02*
X29588786Y-15810350D01*
X29588786Y-16680350D02*
X29618786Y-16710350D01*
X29618786Y-16680350D02*
X29588786Y-16710350D01*
X29588786Y-17580350D02*
X29618786Y-17610350D01*
X29618786Y-17580350D02*
X29588786Y-17610350D01*
X29804786Y-11280350D02*
X29834786Y-11310350D01*
X29834786Y-11280350D02*
X29804786Y-11310350D01*
X29804786Y-12180350D02*
X29834786Y-12210350D01*
X29834786Y-12180350D02*
X29804786Y-12210350D01*
X29804786Y-13080350D02*
X29834786Y-13110350D01*
X29834786Y-13080350D02*
X29804786Y-13110350D01*
X29804786Y-13980350D02*
X29834786Y-14010350D01*
X29834786Y-13980350D02*
X29804786Y-14010350D01*
X29804786Y-14880350D02*
X29834786Y-14910350D01*
X29834786Y-14880350D02*
X29804786Y-14910350D01*
X29804786Y-15780350D02*
X29834786Y-15810350D01*
X29834786Y-15780350D02*
X29804786Y-15810350D01*
X29804786Y-16680350D02*
X29834786Y-16710350D01*
X29834786Y-16680350D02*
X29804786Y-16710350D01*
X29804786Y-17580350D02*
X29834786Y-17610350D01*
X29834786Y-17580350D02*
X29804786Y-17610350D01*
X30020786Y-11280350D02*
X30050786Y-11310350D01*
X30050786Y-11280350D02*
X30020786Y-11310350D01*
X30020786Y-12180350D02*
X30050786Y-12210350D01*
X30050786Y-12180350D02*
X30020786Y-12210350D01*
X30020786Y-13080350D02*
X30050786Y-13110350D01*
X30050786Y-13080350D02*
X30020786Y-13110350D01*
X30020786Y-13980350D02*
X30050786Y-14010350D01*
X30050786Y-13980350D02*
X30020786Y-14010350D01*
X30020786Y-14880350D02*
X30050786Y-14910350D01*
X30050786Y-14880350D02*
X30020786Y-14910350D01*
X30020786Y-15780350D02*
X30050786Y-15810350D01*
X30050786Y-15780350D02*
X30020786Y-15810350D01*
X30020786Y-16680350D02*
X30050786Y-16710350D01*
X30050786Y-16680350D02*
X30020786Y-16710350D01*
X30020786Y-17580350D02*
X30050786Y-17610350D01*
X30050786Y-17580350D02*
X30020786Y-17610350D01*
X30236786Y-11280350D02*
X30266786Y-11310350D01*
X30266786Y-11280350D02*
X30236786Y-11310350D01*
X30236786Y-12180350D02*
X30266786Y-12210350D01*
X30266786Y-12180350D02*
X30236786Y-12210350D01*
X30236786Y-13080350D02*
X30266786Y-13110350D01*
X30266786Y-13080350D02*
X30236786Y-13110350D01*
X30236786Y-13980350D02*
X30266786Y-14010350D01*
X30266786Y-13980350D02*
X30236786Y-14010350D01*
X30236786Y-14880350D02*
X30266786Y-14910350D01*
X30266786Y-14880350D02*
X30236786Y-14910350D01*
X30236786Y-15780350D02*
X30266786Y-15810350D01*
X30266786Y-15780350D02*
X30236786Y-15810350D01*
X30236786Y-16680350D02*
X30266786Y-16710350D01*
X30266786Y-16680350D02*
X30236786Y-16710350D01*
X30236786Y-17580350D02*
X30266786Y-17610350D01*
X30266786Y-17580350D02*
X30236786Y-17610350D01*
X30452786Y-11280350D02*
X30482786Y-11310350D01*
X30482786Y-11280350D02*
X30452786Y-11310350D01*
X30452786Y-12180350D02*
X30482786Y-12210350D01*
X30482786Y-12180350D02*
X30452786Y-12210350D01*
X30452786Y-13080350D02*
X30482786Y-13110350D01*
X30482786Y-13080350D02*
X30452786Y-13110350D01*
X30452786Y-13980350D02*
X30482786Y-14010350D01*
X30482786Y-13980350D02*
X30452786Y-14010350D01*
X30452786Y-14880350D02*
X30482786Y-14910350D01*
X30482786Y-14880350D02*
X30452786Y-14910350D01*
X30452786Y-15780350D02*
X30482786Y-15810350D01*
X30482786Y-15780350D02*
X30452786Y-15810350D01*
X30452786Y-16680350D02*
X30482786Y-16710350D01*
X30482786Y-16680350D02*
X30452786Y-16710350D01*
X30452786Y-17580350D02*
X30482786Y-17610350D01*
X30482786Y-17580350D02*
X30452786Y-17610350D01*
X30668786Y-11280350D02*
X30698786Y-11310350D01*
X30698786Y-11280350D02*
X30668786Y-11310350D01*
X30668786Y-12180350D02*
X30698786Y-12210350D01*
X30698786Y-12180350D02*
X30668786Y-12210350D01*
X30668786Y-13080350D02*
X30698786Y-13110350D01*
X30698786Y-13080350D02*
X30668786Y-13110350D01*
X30668786Y-13980350D02*
X30698786Y-14010350D01*
X30698786Y-13980350D02*
X30668786Y-14010350D01*
X30668786Y-14880350D02*
X30698786Y-14910350D01*
X30698786Y-14880350D02*
X30668786Y-14910350D01*
X30668786Y-15780350D02*
X30698786Y-15810350D01*
X30698786Y-15780350D02*
X30668786Y-15810350D01*
X30668786Y-16680350D02*
X30698786Y-16710350D01*
X30698786Y-16680350D02*
X30668786Y-16710350D01*
X30668786Y-17580350D02*
X30698786Y-17610350D01*
X30698786Y-17580350D02*
X30668786Y-17610350D01*
X30884786Y-11280350D02*
X30914786Y-11310350D01*
X30914786Y-11280350D02*
X30884786Y-11310350D01*
X30884786Y-12180350D02*
X30914786Y-12210350D01*
X30914786Y-12180350D02*
X30884786Y-12210350D01*
X30884786Y-13080350D02*
X30914786Y-13110350D01*
X30914786Y-13080350D02*
X30884786Y-13110350D01*
X30884786Y-13980350D02*
X30914786Y-14010350D01*
X30914786Y-13980350D02*
X30884786Y-14010350D01*
X30884786Y-14880350D02*
X30914786Y-14910350D01*
X30914786Y-14880350D02*
X30884786Y-14910350D01*
X30884786Y-15780350D02*
X30914786Y-15810350D01*
X30914786Y-15780350D02*
X30884786Y-15810350D01*
X30884786Y-16680350D02*
X30914786Y-16710350D01*
X30914786Y-16680350D02*
X30884786Y-16710350D01*
X30884786Y-17580350D02*
X30914786Y-17610350D01*
X30914786Y-17580350D02*
X30884786Y-17610350D01*
X31100786Y-11280350D02*
X31130786Y-11310350D01*
X31130786Y-11280350D02*
X31100786Y-11310350D01*
X31100786Y-12180350D02*
X31130786Y-12210350D01*
X31130786Y-12180350D02*
X31100786Y-12210350D01*
X31100786Y-13080350D02*
X31130786Y-13110350D01*
X31130786Y-13080350D02*
X31100786Y-13110350D01*
X31100786Y-13980350D02*
X31130786Y-14010350D01*
X31130786Y-13980350D02*
X31100786Y-14010350D01*
X31100786Y-14880350D02*
X31130786Y-14910350D01*
X31130786Y-14880350D02*
X31100786Y-14910350D01*
X31100786Y-15780350D02*
X31130786Y-15810350D01*
X31130786Y-15780350D02*
X31100786Y-15810350D01*
X31100786Y-16680350D02*
X31130786Y-16710350D01*
X31130786Y-16680350D02*
X31100786Y-16710350D01*
X31100786Y-17580350D02*
X31130786Y-17610350D01*
X31130786Y-17580350D02*
X31100786Y-17610350D01*
X31316786Y-11280350D02*
X31346786Y-11310350D01*
X31346786Y-11280350D02*
X31316786Y-11310350D01*
X31316786Y-12180350D02*
X31346786Y-12210350D01*
X31346786Y-12180350D02*
X31316786Y-12210350D01*
X31316786Y-13080350D02*
X31346786Y-13110350D01*
X31346786Y-13080350D02*
X31316786Y-13110350D01*
X31316786Y-13980350D02*
X31346786Y-14010350D01*
X31346786Y-13980350D02*
X31316786Y-14010350D01*
X31316786Y-14880350D02*
X31346786Y-14910350D01*
X31346786Y-14880350D02*
X31316786Y-14910350D01*
X31316786Y-15780350D02*
X31346786Y-15810350D01*
X31346786Y-15780350D02*
X31316786Y-15810350D01*
X31316786Y-16680350D02*
X31346786Y-16710350D01*
X31346786Y-16680350D02*
X31316786Y-16710350D01*
X31316786Y-17580350D02*
X31346786Y-17610350D01*
X31346786Y-17580350D02*
X31316786Y-17610350D01*
X31532786Y-11280350D02*
X31562786Y-11310350D01*
X31562786Y-11280350D02*
X31532786Y-11310350D01*
X31532786Y-12180350D02*
X31562786Y-12210350D01*
X31562786Y-12180350D02*
X31532786Y-12210350D01*
X31532786Y-13080350D02*
X31562786Y-13110350D01*
X31562786Y-13080350D02*
X31532786Y-13110350D01*
X31532786Y-13980350D02*
X31562786Y-14010350D01*
X31562786Y-13980350D02*
X31532786Y-14010350D01*
X31532786Y-14880350D02*
X31562786Y-14910350D01*
X31562786Y-14880350D02*
X31532786Y-14910350D01*
X31532786Y-15780350D02*
X31562786Y-15810350D01*
X31562786Y-15780350D02*
X31532786Y-15810350D01*
X31532786Y-16680350D02*
X31562786Y-16710350D01*
X31562786Y-16680350D02*
X31532786Y-16710350D01*
X31532786Y-17580350D02*
X31562786Y-17610350D01*
X31562786Y-17580350D02*
X31532786Y-17610350D01*
X31748786Y-11280350D02*
X31778786Y-11310350D01*
X31778786Y-11280350D02*
X31748786Y-11310350D01*
X31748786Y-12180350D02*
X31778786Y-12210350D01*
X31778786Y-12180350D02*
X31748786Y-12210350D01*
X31748786Y-13080350D02*
X31778786Y-13110350D01*
X31778786Y-13080350D02*
X31748786Y-13110350D01*
X31748786Y-13980350D02*
X31778786Y-14010350D01*
X31778786Y-13980350D02*
X31748786Y-14010350D01*
X31748786Y-14880350D02*
X31778786Y-14910350D01*
X31778786Y-14880350D02*
X31748786Y-14910350D01*
X31748786Y-15780350D02*
X31778786Y-15810350D01*
X31778786Y-15780350D02*
X31748786Y-15810350D01*
X31748786Y-16680350D02*
X31778786Y-16710350D01*
X31778786Y-16680350D02*
X31748786Y-16710350D01*
X31748786Y-17580350D02*
X31778786Y-17610350D01*
X31778786Y-17580350D02*
X31748786Y-17610350D01*
X31964786Y-11263087D02*
X31994786Y-11293087D01*
X31994786Y-11263087D02*
X31964786Y-11293087D01*
X31964786Y-12180350D02*
X31994786Y-12210350D01*
X31994786Y-12180350D02*
X31964786Y-12210350D01*
X31964786Y-13063087D02*
X31994786Y-13093087D01*
X31994786Y-13063087D02*
X31964786Y-13093087D01*
X31964786Y-13980350D02*
X31994786Y-14010350D01*
X31994786Y-13980350D02*
X31964786Y-14010350D01*
X31964786Y-14863087D02*
X31994786Y-14893087D01*
X31994786Y-14863087D02*
X31964786Y-14893087D01*
X31964786Y-15780350D02*
X31994786Y-15810350D01*
X31994786Y-15780350D02*
X31964786Y-15810350D01*
X31964786Y-16663087D02*
X31994786Y-16693087D01*
X31994786Y-16663087D02*
X31964786Y-16693087D01*
X31964786Y-17580350D02*
X31994786Y-17610350D01*
X31994786Y-17580350D02*
X31964786Y-17610350D01*
X32180786Y-12180350D02*
X32210786Y-12210350D01*
X32210786Y-12180350D02*
X32180786Y-12210350D01*
X32180786Y-13980350D02*
X32210786Y-14010350D01*
X32210786Y-13980350D02*
X32180786Y-14010350D01*
X32180786Y-15780350D02*
X32210786Y-15810350D01*
X32210786Y-15780350D02*
X32180786Y-15810350D01*
X32180786Y-17580350D02*
X32210786Y-17610350D01*
X32210786Y-17580350D02*
X32180786Y-17610350D01*
X32396786Y-12180350D02*
X32426786Y-12210350D01*
X32426786Y-12180350D02*
X32396786Y-12210350D01*
X32396786Y-13980350D02*
X32426786Y-14010350D01*
X32426786Y-13980350D02*
X32396786Y-14010350D01*
X32396786Y-15610350D02*
X32426786Y-15640350D01*
X32426786Y-15610350D02*
X32396786Y-15640350D01*
X32396786Y-17580350D02*
X32426786Y-17610350D01*
X32426786Y-17580350D02*
X32396786Y-17610350D01*
X32612786Y-11263087D02*
X32642786Y-11293087D01*
X32642786Y-11263087D02*
X32612786Y-11293087D01*
X32612786Y-12180350D02*
X32642786Y-12210350D01*
X32642786Y-12180350D02*
X32612786Y-12210350D01*
X32612786Y-13063087D02*
X32642786Y-13093087D01*
X32642786Y-13063087D02*
X32612786Y-13093087D01*
X32612786Y-13980350D02*
X32642786Y-14010350D01*
X32642786Y-13980350D02*
X32612786Y-14010350D01*
X32612786Y-14863087D02*
X32642786Y-14893087D01*
X32642786Y-14863087D02*
X32612786Y-14893087D01*
X32612786Y-15610350D02*
X32642786Y-15640350D01*
X32642786Y-15610350D02*
X32612786Y-15640350D01*
X32612786Y-17580350D02*
X32642786Y-17610350D01*
X32642786Y-17580350D02*
X32612786Y-17610350D01*
X32828786Y-11280350D02*
X32858786Y-11310350D01*
X32858786Y-11280350D02*
X32828786Y-11310350D01*
X32828786Y-12180350D02*
X32858786Y-12210350D01*
X32858786Y-12180350D02*
X32828786Y-12210350D01*
X32828786Y-13080350D02*
X32858786Y-13110350D01*
X32858786Y-13080350D02*
X32828786Y-13110350D01*
X32828786Y-13980350D02*
X32858786Y-14010350D01*
X32858786Y-13980350D02*
X32828786Y-14010350D01*
X32828786Y-14880350D02*
X32858786Y-14910350D01*
X32858786Y-14880350D02*
X32828786Y-14910350D01*
X32828786Y-15610350D02*
X32858786Y-15640350D01*
X32858786Y-15610350D02*
X32828786Y-15640350D01*
X32828786Y-17580350D02*
X32858786Y-17610350D01*
X32858786Y-17580350D02*
X32828786Y-17610350D01*
X33044786Y-11280350D02*
X33074786Y-11310350D01*
X33074786Y-11280350D02*
X33044786Y-11310350D01*
X33044786Y-12180350D02*
X33074786Y-12210350D01*
X33074786Y-12180350D02*
X33044786Y-12210350D01*
X33044786Y-13080350D02*
X33074786Y-13110350D01*
X33074786Y-13080350D02*
X33044786Y-13110350D01*
X33044786Y-13980350D02*
X33074786Y-14010350D01*
X33074786Y-13980350D02*
X33044786Y-14010350D01*
X33044786Y-14880350D02*
X33074786Y-14910350D01*
X33074786Y-14880350D02*
X33044786Y-14910350D01*
X33044786Y-15610350D02*
X33074786Y-15640350D01*
X33074786Y-15610350D02*
X33044786Y-15640350D01*
X33044786Y-17580350D02*
X33074786Y-17610350D01*
X33074786Y-17580350D02*
X33044786Y-17610350D01*
X33260786Y-11280350D02*
X33290786Y-11310350D01*
X33290786Y-11280350D02*
X33260786Y-11310350D01*
X33260786Y-12180350D02*
X33290786Y-12210350D01*
X33290786Y-12180350D02*
X33260786Y-12210350D01*
X33260786Y-13080350D02*
X33290786Y-13110350D01*
X33290786Y-13080350D02*
X33260786Y-13110350D01*
X33260786Y-13980350D02*
X33290786Y-14010350D01*
X33290786Y-13980350D02*
X33260786Y-14010350D01*
X33260786Y-14880350D02*
X33290786Y-14910350D01*
X33290786Y-14880350D02*
X33260786Y-14910350D01*
X33260786Y-15610350D02*
X33290786Y-15640350D01*
X33290786Y-15610350D02*
X33260786Y-15640350D01*
X33260786Y-17580350D02*
X33290786Y-17610350D01*
X33290786Y-17580350D02*
X33260786Y-17610350D01*
X33476786Y-11280350D02*
X33506786Y-11310350D01*
X33506786Y-11280350D02*
X33476786Y-11310350D01*
X33476786Y-12180350D02*
X33506786Y-12210350D01*
X33506786Y-12180350D02*
X33476786Y-12210350D01*
X33476786Y-13080350D02*
X33506786Y-13110350D01*
X33506786Y-13080350D02*
X33476786Y-13110350D01*
X33476786Y-13980350D02*
X33506786Y-14010350D01*
X33506786Y-13980350D02*
X33476786Y-14010350D01*
X33476786Y-14880350D02*
X33506786Y-14910350D01*
X33506786Y-14880350D02*
X33476786Y-14910350D01*
X33476786Y-15610350D02*
X33506786Y-15640350D01*
X33506786Y-15610350D02*
X33476786Y-15640350D01*
X33476786Y-17580350D02*
X33506786Y-17610350D01*
X33506786Y-17580350D02*
X33476786Y-17610350D01*
X33575000Y-15892500D02*
X33605000Y-15922500D01*
X33605000Y-15892500D02*
X33575000Y-15922500D01*
X33692786Y-11280350D02*
X33722786Y-11310350D01*
X33722786Y-11280350D02*
X33692786Y-11310350D01*
X33692786Y-12180350D02*
X33722786Y-12210350D01*
X33722786Y-12180350D02*
X33692786Y-12210350D01*
X33692786Y-13080350D02*
X33722786Y-13110350D01*
X33722786Y-13080350D02*
X33692786Y-13110350D01*
X33692786Y-13980350D02*
X33722786Y-14010350D01*
X33722786Y-13980350D02*
X33692786Y-14010350D01*
X33692786Y-14880350D02*
X33722786Y-14910350D01*
X33722786Y-14880350D02*
X33692786Y-14910350D01*
X33692786Y-15780350D02*
X33722786Y-15810350D01*
X33722786Y-15780350D02*
X33692786Y-15810350D01*
X33692786Y-16680350D02*
X33722786Y-16710350D01*
X33722786Y-16680350D02*
X33692786Y-16710350D01*
X33692786Y-17580350D02*
X33722786Y-17610350D01*
X33722786Y-17580350D02*
X33692786Y-17610350D01*
X33908786Y-11280350D02*
X33938786Y-11310350D01*
X33938786Y-11280350D02*
X33908786Y-11310350D01*
X33908786Y-12180350D02*
X33938786Y-12210350D01*
X33938786Y-12180350D02*
X33908786Y-12210350D01*
X33908786Y-13080350D02*
X33938786Y-13110350D01*
X33938786Y-13080350D02*
X33908786Y-13110350D01*
X33908786Y-13980350D02*
X33938786Y-14010350D01*
X33938786Y-13980350D02*
X33908786Y-14010350D01*
X33908786Y-14880350D02*
X33938786Y-14910350D01*
X33938786Y-14880350D02*
X33908786Y-14910350D01*
X33908786Y-15780350D02*
X33938786Y-15810350D01*
X33938786Y-15780350D02*
X33908786Y-15810350D01*
X33908786Y-16680350D02*
X33938786Y-16710350D01*
X33938786Y-16680350D02*
X33908786Y-16710350D01*
X33908786Y-17580350D02*
X33938786Y-17610350D01*
X33938786Y-17580350D02*
X33908786Y-17610350D01*
X34124786Y-11280350D02*
X34154786Y-11310350D01*
X34154786Y-11280350D02*
X34124786Y-11310350D01*
X34124786Y-12180350D02*
X34154786Y-12210350D01*
X34154786Y-12180350D02*
X34124786Y-12210350D01*
X34124786Y-13080350D02*
X34154786Y-13110350D01*
X34154786Y-13080350D02*
X34124786Y-13110350D01*
X34124786Y-13980350D02*
X34154786Y-14010350D01*
X34154786Y-13980350D02*
X34124786Y-14010350D01*
X34124786Y-14880350D02*
X34154786Y-14910350D01*
X34154786Y-14880350D02*
X34124786Y-14910350D01*
X34124786Y-15780350D02*
X34154786Y-15810350D01*
X34154786Y-15780350D02*
X34124786Y-15810350D01*
X34124786Y-16680350D02*
X34154786Y-16710350D01*
X34154786Y-16680350D02*
X34124786Y-16710350D01*
X34124786Y-17580350D02*
X34154786Y-17610350D01*
X34154786Y-17580350D02*
X34124786Y-17610350D01*
X34340786Y-11280350D02*
X34370786Y-11310350D01*
X34370786Y-11280350D02*
X34340786Y-11310350D01*
X34340786Y-12180350D02*
X34370786Y-12210350D01*
X34370786Y-12180350D02*
X34340786Y-12210350D01*
X34340786Y-13080350D02*
X34370786Y-13110350D01*
X34370786Y-13080350D02*
X34340786Y-13110350D01*
X34340786Y-13980350D02*
X34370786Y-14010350D01*
X34370786Y-13980350D02*
X34340786Y-14010350D01*
X34340786Y-14880350D02*
X34370786Y-14910350D01*
X34370786Y-14880350D02*
X34340786Y-14910350D01*
X34340786Y-15780350D02*
X34370786Y-15810350D01*
X34370786Y-15780350D02*
X34340786Y-15810350D01*
X34340786Y-16680350D02*
X34370786Y-16710350D01*
X34370786Y-16680350D02*
X34340786Y-16710350D01*
X34340786Y-17580350D02*
X34370786Y-17610350D01*
X34370786Y-17580350D02*
X34340786Y-17610350D01*
X34556786Y-11280350D02*
X34586786Y-11310350D01*
X34586786Y-11280350D02*
X34556786Y-11310350D01*
X34556786Y-12180350D02*
X34586786Y-12210350D01*
X34586786Y-12180350D02*
X34556786Y-12210350D01*
X34556786Y-13080350D02*
X34586786Y-13110350D01*
X34586786Y-13080350D02*
X34556786Y-13110350D01*
X34556786Y-13980350D02*
X34586786Y-14010350D01*
X34586786Y-13980350D02*
X34556786Y-14010350D01*
X34556786Y-14880350D02*
X34586786Y-14910350D01*
X34586786Y-14880350D02*
X34556786Y-14910350D01*
X34556786Y-15780350D02*
X34586786Y-15810350D01*
X34586786Y-15780350D02*
X34556786Y-15810350D01*
X34556786Y-16680350D02*
X34586786Y-16710350D01*
X34586786Y-16680350D02*
X34556786Y-16710350D01*
X34556786Y-17580350D02*
X34586786Y-17610350D01*
X34586786Y-17580350D02*
X34556786Y-17610350D01*
X34772786Y-11280350D02*
X34802786Y-11310350D01*
X34802786Y-11280350D02*
X34772786Y-11310350D01*
X34772786Y-12180350D02*
X34802786Y-12210350D01*
X34802786Y-12180350D02*
X34772786Y-12210350D01*
X34772786Y-13080350D02*
X34802786Y-13110350D01*
X34802786Y-13080350D02*
X34772786Y-13110350D01*
X34772786Y-13980350D02*
X34802786Y-14010350D01*
X34802786Y-13980350D02*
X34772786Y-14010350D01*
X34772786Y-14880350D02*
X34802786Y-14910350D01*
X34802786Y-14880350D02*
X34772786Y-14910350D01*
X34772786Y-15780350D02*
X34802786Y-15810350D01*
X34802786Y-15780350D02*
X34772786Y-15810350D01*
X34772786Y-16680350D02*
X34802786Y-16710350D01*
X34802786Y-16680350D02*
X34772786Y-16710350D01*
X34772786Y-17580350D02*
X34802786Y-17610350D01*
X34802786Y-17580350D02*
X34772786Y-17610350D01*
X34988786Y-11280350D02*
X35018786Y-11310350D01*
X35018786Y-11280350D02*
X34988786Y-11310350D01*
X34988786Y-12180350D02*
X35018786Y-12210350D01*
X35018786Y-12180350D02*
X34988786Y-12210350D01*
X34988786Y-13080350D02*
X35018786Y-13110350D01*
X35018786Y-13080350D02*
X34988786Y-13110350D01*
X34988786Y-13980350D02*
X35018786Y-14010350D01*
X35018786Y-13980350D02*
X34988786Y-14010350D01*
X34988786Y-14880350D02*
X35018786Y-14910350D01*
X35018786Y-14880350D02*
X34988786Y-14910350D01*
X34988786Y-15780350D02*
X35018786Y-15810350D01*
X35018786Y-15780350D02*
X34988786Y-15810350D01*
X34988786Y-16680350D02*
X35018786Y-16710350D01*
X35018786Y-16680350D02*
X34988786Y-16710350D01*
X34988786Y-17580350D02*
X35018786Y-17610350D01*
X35018786Y-17580350D02*
X34988786Y-17610350D01*
X35204786Y-11280350D02*
X35234786Y-11310350D01*
X35234786Y-11280350D02*
X35204786Y-11310350D01*
X35204786Y-12180350D02*
X35234786Y-12210350D01*
X35234786Y-12180350D02*
X35204786Y-12210350D01*
X35204786Y-13080350D02*
X35234786Y-13110350D01*
X35234786Y-13080350D02*
X35204786Y-13110350D01*
X35204786Y-13980350D02*
X35234786Y-14010350D01*
X35234786Y-13980350D02*
X35204786Y-14010350D01*
X35204786Y-14880350D02*
X35234786Y-14910350D01*
X35234786Y-14880350D02*
X35204786Y-14910350D01*
X35204786Y-15780350D02*
X35234786Y-15810350D01*
X35234786Y-15780350D02*
X35204786Y-15810350D01*
X35204786Y-16680350D02*
X35234786Y-16710350D01*
X35234786Y-16680350D02*
X35204786Y-16710350D01*
X35204786Y-17580350D02*
X35234786Y-17610350D01*
X35234786Y-17580350D02*
X35204786Y-17610350D01*
X35420786Y-11280350D02*
X35450786Y-11310350D01*
X35450786Y-11280350D02*
X35420786Y-11310350D01*
X35420786Y-12180350D02*
X35450786Y-12210350D01*
X35450786Y-12180350D02*
X35420786Y-12210350D01*
X35420786Y-13080350D02*
X35450786Y-13110350D01*
X35450786Y-13080350D02*
X35420786Y-13110350D01*
X35420786Y-13980350D02*
X35450786Y-14010350D01*
X35450786Y-13980350D02*
X35420786Y-14010350D01*
X35420786Y-14880350D02*
X35450786Y-14910350D01*
X35450786Y-14880350D02*
X35420786Y-14910350D01*
X35420786Y-15780350D02*
X35450786Y-15810350D01*
X35450786Y-15780350D02*
X35420786Y-15810350D01*
X35420786Y-16680350D02*
X35450786Y-16710350D01*
X35450786Y-16680350D02*
X35420786Y-16710350D01*
X35420786Y-17580350D02*
X35450786Y-17610350D01*
X35450786Y-17580350D02*
X35420786Y-17610350D01*
X35636786Y-11280350D02*
X35666786Y-11310350D01*
X35666786Y-11280350D02*
X35636786Y-11310350D01*
X35636786Y-12180350D02*
X35666786Y-12210350D01*
X35666786Y-12180350D02*
X35636786Y-12210350D01*
X35636786Y-13080350D02*
X35666786Y-13110350D01*
X35666786Y-13080350D02*
X35636786Y-13110350D01*
X35636786Y-13980350D02*
X35666786Y-14010350D01*
X35666786Y-13980350D02*
X35636786Y-14010350D01*
X35636786Y-14880350D02*
X35666786Y-14910350D01*
X35666786Y-14880350D02*
X35636786Y-14910350D01*
X35636786Y-15780350D02*
X35666786Y-15810350D01*
X35666786Y-15780350D02*
X35636786Y-15810350D01*
X35636786Y-16680350D02*
X35666786Y-16710350D01*
X35666786Y-16680350D02*
X35636786Y-16710350D01*
X35636786Y-17580350D02*
X35666786Y-17610350D01*
X35666786Y-17580350D02*
X35636786Y-17610350D01*
X35852786Y-11280350D02*
X35882786Y-11310350D01*
X35882786Y-11280350D02*
X35852786Y-11310350D01*
X35852786Y-12180350D02*
X35882786Y-12210350D01*
X35882786Y-12180350D02*
X35852786Y-12210350D01*
X35852786Y-13080350D02*
X35882786Y-13110350D01*
X35882786Y-13080350D02*
X35852786Y-13110350D01*
X35852786Y-13980350D02*
X35882786Y-14010350D01*
X35882786Y-13980350D02*
X35852786Y-14010350D01*
X35852786Y-14880350D02*
X35882786Y-14910350D01*
X35882786Y-14880350D02*
X35852786Y-14910350D01*
X35852786Y-15780350D02*
X35882786Y-15810350D01*
X35882786Y-15780350D02*
X35852786Y-15810350D01*
X35852786Y-16680350D02*
X35882786Y-16710350D01*
X35882786Y-16680350D02*
X35852786Y-16710350D01*
X35852786Y-17580350D02*
X35882786Y-17610350D01*
X35882786Y-17580350D02*
X35852786Y-17610350D01*
X36068786Y-11280350D02*
X36098786Y-11310350D01*
X36098786Y-11280350D02*
X36068786Y-11310350D01*
X36068786Y-12180350D02*
X36098786Y-12210350D01*
X36098786Y-12180350D02*
X36068786Y-12210350D01*
X36068786Y-13080350D02*
X36098786Y-13110350D01*
X36098786Y-13080350D02*
X36068786Y-13110350D01*
X36068786Y-13980350D02*
X36098786Y-14010350D01*
X36098786Y-13980350D02*
X36068786Y-14010350D01*
X36068786Y-14880350D02*
X36098786Y-14910350D01*
X36098786Y-14880350D02*
X36068786Y-14910350D01*
X36068786Y-15780350D02*
X36098786Y-15810350D01*
X36098786Y-15780350D02*
X36068786Y-15810350D01*
X36068786Y-16680350D02*
X36098786Y-16710350D01*
X36098786Y-16680350D02*
X36068786Y-16710350D01*
X36068786Y-17580350D02*
X36098786Y-17610350D01*
X36098786Y-17580350D02*
X36068786Y-17610350D01*
X36284786Y-11280350D02*
X36314786Y-11310350D01*
X36314786Y-11280350D02*
X36284786Y-11310350D01*
X36284786Y-12180350D02*
X36314786Y-12210350D01*
X36314786Y-12180350D02*
X36284786Y-12210350D01*
X36284786Y-13080350D02*
X36314786Y-13110350D01*
X36314786Y-13080350D02*
X36284786Y-13110350D01*
X36284786Y-13980350D02*
X36314786Y-14010350D01*
X36314786Y-13980350D02*
X36284786Y-14010350D01*
X36284786Y-14880350D02*
X36314786Y-14910350D01*
X36314786Y-14880350D02*
X36284786Y-14910350D01*
X36284786Y-15780350D02*
X36314786Y-15810350D01*
X36314786Y-15780350D02*
X36284786Y-15810350D01*
X36284786Y-16680350D02*
X36314786Y-16710350D01*
X36314786Y-16680350D02*
X36284786Y-16710350D01*
X36284786Y-17580350D02*
X36314786Y-17610350D01*
X36314786Y-17580350D02*
X36284786Y-17610350D01*
X36500786Y-11280350D02*
X36530786Y-11310350D01*
X36530786Y-11280350D02*
X36500786Y-11310350D01*
X36500786Y-12180350D02*
X36530786Y-12210350D01*
X36530786Y-12180350D02*
X36500786Y-12210350D01*
X36500786Y-13080350D02*
X36530786Y-13110350D01*
X36530786Y-13080350D02*
X36500786Y-13110350D01*
X36500786Y-13980350D02*
X36530786Y-14010350D01*
X36530786Y-13980350D02*
X36500786Y-14010350D01*
X36500786Y-14880350D02*
X36530786Y-14910350D01*
X36530786Y-14880350D02*
X36500786Y-14910350D01*
X36500786Y-15780350D02*
X36530786Y-15810350D01*
X36530786Y-15780350D02*
X36500786Y-15810350D01*
X36500786Y-16680350D02*
X36530786Y-16710350D01*
X36530786Y-16680350D02*
X36500786Y-16710350D01*
X36500786Y-17580350D02*
X36530786Y-17610350D01*
X36530786Y-17580350D02*
X36500786Y-17610350D01*
X36716786Y-11280350D02*
X36746786Y-11310350D01*
X36746786Y-11280350D02*
X36716786Y-11310350D01*
X36716786Y-12180350D02*
X36746786Y-12210350D01*
X36746786Y-12180350D02*
X36716786Y-12210350D01*
X36716786Y-13080350D02*
X36746786Y-13110350D01*
X36746786Y-13080350D02*
X36716786Y-13110350D01*
X36716786Y-13980350D02*
X36746786Y-14010350D01*
X36746786Y-13980350D02*
X36716786Y-14010350D01*
X36716786Y-14880350D02*
X36746786Y-14910350D01*
X36746786Y-14880350D02*
X36716786Y-14910350D01*
X36716786Y-15780350D02*
X36746786Y-15810350D01*
X36746786Y-15780350D02*
X36716786Y-15810350D01*
X36716786Y-16680350D02*
X36746786Y-16710350D01*
X36746786Y-16680350D02*
X36716786Y-16710350D01*
X36716786Y-17580350D02*
X36746786Y-17610350D01*
X36746786Y-17580350D02*
X36716786Y-17610350D01*
X36932786Y-11280350D02*
X36962786Y-11310350D01*
X36962786Y-11280350D02*
X36932786Y-11310350D01*
X36932786Y-12180350D02*
X36962786Y-12210350D01*
X36962786Y-12180350D02*
X36932786Y-12210350D01*
X36932786Y-13080350D02*
X36962786Y-13110350D01*
X36962786Y-13080350D02*
X36932786Y-13110350D01*
X36932786Y-13980350D02*
X36962786Y-14010350D01*
X36962786Y-13980350D02*
X36932786Y-14010350D01*
X36932786Y-14880350D02*
X36962786Y-14910350D01*
X36962786Y-14880350D02*
X36932786Y-14910350D01*
X36932786Y-15780350D02*
X36962786Y-15810350D01*
X36962786Y-15780350D02*
X36932786Y-15810350D01*
X36932786Y-16680350D02*
X36962786Y-16710350D01*
X36962786Y-16680350D02*
X36932786Y-16710350D01*
X36932786Y-17580350D02*
X36962786Y-17610350D01*
X36962786Y-17580350D02*
X36932786Y-17610350D01*
X37148786Y-11280350D02*
X37178786Y-11310350D01*
X37178786Y-11280350D02*
X37148786Y-11310350D01*
X37148786Y-12180350D02*
X37178786Y-12210350D01*
X37178786Y-12180350D02*
X37148786Y-12210350D01*
X37148786Y-13080350D02*
X37178786Y-13110350D01*
X37178786Y-13080350D02*
X37148786Y-13110350D01*
X37148786Y-13980350D02*
X37178786Y-14010350D01*
X37178786Y-13980350D02*
X37148786Y-14010350D01*
X37148786Y-14880350D02*
X37178786Y-14910350D01*
X37178786Y-14880350D02*
X37148786Y-14910350D01*
X37148786Y-15780350D02*
X37178786Y-15810350D01*
X37178786Y-15780350D02*
X37148786Y-15810350D01*
X37148786Y-16680350D02*
X37178786Y-16710350D01*
X37178786Y-16680350D02*
X37148786Y-16710350D01*
X37148786Y-17580350D02*
X37178786Y-17610350D01*
X37178786Y-17580350D02*
X37148786Y-17610350D01*
X37364786Y-11280350D02*
X37394786Y-11310350D01*
X37394786Y-11280350D02*
X37364786Y-11310350D01*
X37364786Y-12197613D02*
X37394786Y-12227613D01*
X37394786Y-12197613D02*
X37364786Y-12227613D01*
X37364786Y-13080350D02*
X37394786Y-13110350D01*
X37394786Y-13080350D02*
X37364786Y-13110350D01*
X37364786Y-13997613D02*
X37394786Y-14027613D01*
X37394786Y-13997613D02*
X37364786Y-14027613D01*
X37364786Y-14880350D02*
X37394786Y-14910350D01*
X37394786Y-14880350D02*
X37364786Y-14910350D01*
X37364786Y-15797613D02*
X37394786Y-15827613D01*
X37394786Y-15797613D02*
X37364786Y-15827613D01*
X37364786Y-16680350D02*
X37394786Y-16710350D01*
X37394786Y-16680350D02*
X37364786Y-16710350D01*
X37364786Y-17597613D02*
X37394786Y-17627613D01*
X37394786Y-17597613D02*
X37364786Y-17627613D01*
X37580786Y-11280350D02*
X37610786Y-11310350D01*
X37610786Y-11280350D02*
X37580786Y-11310350D01*
X37580786Y-13080350D02*
X37610786Y-13110350D01*
X37610786Y-13080350D02*
X37580786Y-13110350D01*
X37580786Y-14880350D02*
X37610786Y-14910350D01*
X37610786Y-14880350D02*
X37580786Y-14910350D01*
X37580786Y-16680350D02*
X37610786Y-16710350D01*
X37610786Y-16680350D02*
X37580786Y-16710350D01*
X37815000Y-15385000D02*
X37845000Y-15415000D01*
X37845000Y-15385000D02*
X37815000Y-15415000D01*
X37936895Y-16088818D02*
X37966895Y-16118818D01*
X37966895Y-16088818D02*
X37936895Y-16118818D01*
X37940000Y-16460050D02*
X37970000Y-16490050D01*
X37970000Y-16460050D02*
X37940000Y-16490050D01*
X38028702Y-16090864D02*
X38058702Y-16120864D01*
X38058702Y-16090864D02*
X38028702Y-16120864D01*
X38055000Y-12270000D02*
X38085000Y-12300000D01*
X38085000Y-12270000D02*
X38055000Y-12300000D01*
X38055000Y-12870000D02*
X38085000Y-12900000D01*
X38085000Y-12870000D02*
X38055000Y-12900000D01*
X38055000Y-13470000D02*
X38085000Y-13500000D01*
X38085000Y-13470000D02*
X38055000Y-13500000D01*
X38055000Y-14220000D02*
X38085000Y-14250000D01*
X38085000Y-14220000D02*
X38055000Y-14250000D01*
X38109000Y-14372000D02*
X38139000Y-14402000D01*
X38139000Y-14372000D02*
X38109000Y-14402000D01*
X38137500Y-13970220D02*
X38167500Y-14000220D01*
X38167500Y-13970220D02*
X38137500Y-14000220D01*
X38140000Y-12500000D02*
X38170000Y-12530000D01*
X38170000Y-12500000D02*
X38140000Y-12530000D01*
X38140000Y-13100000D02*
X38170000Y-13130000D01*
X38170000Y-13100000D02*
X38140000Y-13130000D01*
X38140000Y-13700000D02*
X38170000Y-13730000D01*
X38170000Y-13700000D02*
X38140000Y-13730000D01*
X38335000Y-12370000D02*
X38365000Y-12400000D01*
X38365000Y-12370000D02*
X38335000Y-12400000D01*
X38335000Y-12970000D02*
X38365000Y-13000000D01*
X38365000Y-12970000D02*
X38335000Y-13000000D01*
X38335000Y-13570000D02*
X38365000Y-13600000D01*
X38365000Y-13570000D02*
X38335000Y-13600000D01*
X38335000Y-14120000D02*
X38365000Y-14150000D01*
X38365000Y-14120000D02*
X38335000Y-14150000D01*
X38405000Y-16005000D02*
X38435000Y-16035000D01*
X38435000Y-16005000D02*
X38405000Y-16035000D01*
X38460000Y-12500000D02*
X38490000Y-12530000D01*
X38490000Y-12500000D02*
X38460000Y-12530000D01*
X38460000Y-13100000D02*
X38490000Y-13130000D01*
X38490000Y-13100000D02*
X38460000Y-13130000D01*
X38460000Y-13700000D02*
X38490000Y-13730000D01*
X38490000Y-13700000D02*
X38460000Y-13730000D01*
X38460000Y-14300000D02*
X38490000Y-14330000D01*
X38490000Y-14300000D02*
X38460000Y-14330000D01*
X38462850Y-13970220D02*
X38492850Y-14000220D01*
X38492850Y-13970220D02*
X38462850Y-14000220D01*
X38480000Y-16210950D02*
X38510000Y-16240950D01*
X38510000Y-16210950D02*
X38480000Y-16240950D01*
X38555000Y-16075000D02*
X38585000Y-16105000D01*
X38585000Y-16075000D02*
X38555000Y-16105000D01*
X38605000Y-15663580D02*
X38635000Y-15693580D01*
X38635000Y-15663580D02*
X38605000Y-15693580D01*
X38636000Y-16361000D02*
X38666000Y-16391000D01*
X38666000Y-16361000D02*
X38636000Y-16391000D01*
X38636000Y-16575000D02*
X38666000Y-16605000D01*
X38666000Y-16575000D02*
X38636000Y-16605000D01*
X38653040Y-15965760D02*
X38683040Y-15995760D01*
X38683040Y-15965760D02*
X38653040Y-15995760D01*
X38701110Y-16198440D02*
X38731110Y-16228440D01*
X38731110Y-16198440D02*
X38701110Y-16228440D01*
X38785000Y-12320000D02*
X38815000Y-12350000D01*
X38815000Y-12320000D02*
X38785000Y-12350000D01*
X38785000Y-12920000D02*
X38815000Y-12950000D01*
X38815000Y-12920000D02*
X38785000Y-12950000D01*
X38785000Y-13520000D02*
X38815000Y-13550000D01*
X38815000Y-13520000D02*
X38785000Y-13550000D01*
X38785000Y-14170000D02*
X38815000Y-14200000D01*
X38815000Y-14170000D02*
X38785000Y-14200000D01*
X38840000Y-15720000D02*
X38870000Y-15750000D01*
X38870000Y-15720000D02*
X38840000Y-15750000D01*
X38870000Y-14060000D02*
X38900000Y-14090000D01*
X38900000Y-14060000D02*
X38870000Y-14090000D01*
X38910000Y-12500000D02*
X38940000Y-12530000D01*
X38940000Y-12500000D02*
X38910000Y-12530000D01*
X38910000Y-13100000D02*
X38940000Y-13130000D01*
X38940000Y-13100000D02*
X38910000Y-13130000D01*
X38910000Y-13700000D02*
X38940000Y-13730000D01*
X38940000Y-13700000D02*
X38910000Y-13730000D01*
X38974000Y-16102500D02*
X39004000Y-16132500D01*
X39004000Y-16102500D02*
X38974000Y-16132500D01*
X39077000Y-12420000D02*
X39107000Y-12450000D01*
X39107000Y-12420000D02*
X39077000Y-12450000D01*
X39077000Y-13020000D02*
X39107000Y-13050000D01*
X39107000Y-13020000D02*
X39077000Y-13050000D01*
X39077000Y-13620000D02*
X39107000Y-13650000D01*
X39107000Y-13620000D02*
X39077000Y-13650000D01*
X39077000Y-14070000D02*
X39107000Y-14100000D01*
X39107000Y-14070000D02*
X39077000Y-14100000D01*
X39202000Y-12500000D02*
X39232000Y-12530000D01*
X39232000Y-12500000D02*
X39202000Y-12530000D01*
X39202000Y-13100000D02*
X39232000Y-13130000D01*
X39232000Y-13100000D02*
X39202000Y-13130000D01*
X39202000Y-13700000D02*
X39232000Y-13730000D01*
X39232000Y-13700000D02*
X39202000Y-13730000D01*
X39303000Y-14300000D02*
X39333000Y-14330000D01*
X39333000Y-14300000D02*
X39303000Y-14330000D01*
D11*
X10255777Y-19097484D02*
X10255777Y-18897484D01*
X10255777Y-18897484D02*
X10303396Y-18897484D01*
X10303396Y-18897484D02*
X10331967Y-18907008D01*
X10331967Y-18907008D02*
X10351015Y-18926055D01*
X10351015Y-18926055D02*
X10360539Y-18945103D01*
X10360539Y-18945103D02*
X10370063Y-18983198D01*
X10370063Y-18983198D02*
X10370063Y-19011770D01*
X10370063Y-19011770D02*
X10360539Y-19049865D01*
X10360539Y-19049865D02*
X10351015Y-19068912D01*
X10351015Y-19068912D02*
X10331967Y-19087960D01*
X10331967Y-19087960D02*
X10303396Y-19097484D01*
X10303396Y-19097484D02*
X10255777Y-19097484D01*
X10455777Y-19097484D02*
X10455777Y-18964150D01*
X10455777Y-19002246D02*
X10465301Y-18983198D01*
X10465301Y-18983198D02*
X10474824Y-18973674D01*
X10474824Y-18973674D02*
X10493872Y-18964150D01*
X10493872Y-18964150D02*
X10512920Y-18964150D01*
X10579586Y-19097484D02*
X10579586Y-18964150D01*
X10579586Y-18897484D02*
X10570063Y-18907008D01*
X10570063Y-18907008D02*
X10579586Y-18916531D01*
X10579586Y-18916531D02*
X10589110Y-18907008D01*
X10589110Y-18907008D02*
X10579586Y-18897484D01*
X10579586Y-18897484D02*
X10579586Y-18916531D01*
X10703396Y-19097484D02*
X10684348Y-19087960D01*
X10684348Y-19087960D02*
X10674824Y-19068912D01*
X10674824Y-19068912D02*
X10674824Y-18897484D01*
X10808158Y-19097484D02*
X10789110Y-19087960D01*
X10789110Y-19087960D02*
X10779586Y-19068912D01*
X10779586Y-19068912D02*
X10779586Y-18897484D01*
X11036729Y-19097484D02*
X11036729Y-18897484D01*
X11036729Y-18897484D02*
X11103396Y-19040341D01*
X11103396Y-19040341D02*
X11170063Y-18897484D01*
X11170063Y-18897484D02*
X11170063Y-19097484D01*
X11351015Y-19097484D02*
X11351015Y-18992722D01*
X11351015Y-18992722D02*
X11341491Y-18973674D01*
X11341491Y-18973674D02*
X11322443Y-18964150D01*
X11322443Y-18964150D02*
X11284348Y-18964150D01*
X11284348Y-18964150D02*
X11265301Y-18973674D01*
X11351015Y-19087960D02*
X11331967Y-19097484D01*
X11331967Y-19097484D02*
X11284348Y-19097484D01*
X11284348Y-19097484D02*
X11265301Y-19087960D01*
X11265301Y-19087960D02*
X11255777Y-19068912D01*
X11255777Y-19068912D02*
X11255777Y-19049865D01*
X11255777Y-19049865D02*
X11265301Y-19030817D01*
X11265301Y-19030817D02*
X11284348Y-19021293D01*
X11284348Y-19021293D02*
X11331967Y-19021293D01*
X11331967Y-19021293D02*
X11351015Y-19011770D01*
X11446253Y-18964150D02*
X11446253Y-19164150D01*
X11446253Y-18973674D02*
X11465301Y-18964150D01*
X11465301Y-18964150D02*
X11503396Y-18964150D01*
X11503396Y-18964150D02*
X11522443Y-18973674D01*
X11522443Y-18973674D02*
X11531967Y-18983198D01*
X11531967Y-18983198D02*
X11541491Y-19002246D01*
X11541491Y-19002246D02*
X11541491Y-19059389D01*
X11541491Y-19059389D02*
X11531967Y-19078436D01*
X11531967Y-19078436D02*
X11522443Y-19087960D01*
X11522443Y-19087960D02*
X11503396Y-19097484D01*
X11503396Y-19097484D02*
X11465301Y-19097484D01*
X11465301Y-19097484D02*
X11446253Y-19087960D01*
X11627205Y-19078436D02*
X11636729Y-19087960D01*
X11636729Y-19087960D02*
X11627205Y-19097484D01*
X11627205Y-19097484D02*
X11617682Y-19087960D01*
X11617682Y-19087960D02*
X11627205Y-19078436D01*
X11627205Y-19078436D02*
X11627205Y-19097484D01*
X11627205Y-18973674D02*
X11636729Y-18983198D01*
X11636729Y-18983198D02*
X11627205Y-18992722D01*
X11627205Y-18992722D02*
X11617682Y-18983198D01*
X11617682Y-18983198D02*
X11627205Y-18973674D01*
X11627205Y-18973674D02*
X11627205Y-18992722D01*
D12*
X9965000Y-19411000D02*
X9995000Y-19441000D01*
X9995000Y-19411000D02*
X9965000Y-19441000D01*
D11*
X10293872Y-19317484D02*
X10312920Y-19317484D01*
X10312920Y-19317484D02*
X10331967Y-19327008D01*
X10331967Y-19327008D02*
X10341491Y-19336531D01*
X10341491Y-19336531D02*
X10351015Y-19355579D01*
X10351015Y-19355579D02*
X10360539Y-19393674D01*
X10360539Y-19393674D02*
X10360539Y-19441293D01*
X10360539Y-19441293D02*
X10351015Y-19479389D01*
X10351015Y-19479389D02*
X10341491Y-19498436D01*
X10341491Y-19498436D02*
X10331967Y-19507960D01*
X10331967Y-19507960D02*
X10312920Y-19517484D01*
X10312920Y-19517484D02*
X10293872Y-19517484D01*
X10293872Y-19517484D02*
X10274824Y-19507960D01*
X10274824Y-19507960D02*
X10265301Y-19498436D01*
X10265301Y-19498436D02*
X10255777Y-19479389D01*
X10255777Y-19479389D02*
X10246253Y-19441293D01*
X10246253Y-19441293D02*
X10246253Y-19393674D01*
X10246253Y-19393674D02*
X10255777Y-19355579D01*
X10255777Y-19355579D02*
X10265301Y-19336531D01*
X10265301Y-19336531D02*
X10274824Y-19327008D01*
X10274824Y-19327008D02*
X10293872Y-19317484D01*
X10446253Y-19498436D02*
X10455777Y-19507960D01*
X10455777Y-19507960D02*
X10446253Y-19517484D01*
X10446253Y-19517484D02*
X10436729Y-19507960D01*
X10436729Y-19507960D02*
X10446253Y-19498436D01*
X10446253Y-19498436D02*
X10446253Y-19517484D01*
X10522444Y-19317484D02*
X10646253Y-19317484D01*
X10646253Y-19317484D02*
X10579586Y-19393674D01*
X10579586Y-19393674D02*
X10608158Y-19393674D01*
X10608158Y-19393674D02*
X10627205Y-19403198D01*
X10627205Y-19403198D02*
X10636729Y-19412722D01*
X10636729Y-19412722D02*
X10646253Y-19431770D01*
X10646253Y-19431770D02*
X10646253Y-19479389D01*
X10646253Y-19479389D02*
X10636729Y-19498436D01*
X10636729Y-19498436D02*
X10627205Y-19507960D01*
X10627205Y-19507960D02*
X10608158Y-19517484D01*
X10608158Y-19517484D02*
X10551015Y-19517484D01*
X10551015Y-19517484D02*
X10531967Y-19507960D01*
X10531967Y-19507960D02*
X10522444Y-19498436D01*
X10770063Y-19317484D02*
X10789110Y-19317484D01*
X10789110Y-19317484D02*
X10808158Y-19327008D01*
X10808158Y-19327008D02*
X10817682Y-19336531D01*
X10817682Y-19336531D02*
X10827205Y-19355579D01*
X10827205Y-19355579D02*
X10836729Y-19393674D01*
X10836729Y-19393674D02*
X10836729Y-19441293D01*
X10836729Y-19441293D02*
X10827205Y-19479389D01*
X10827205Y-19479389D02*
X10817682Y-19498436D01*
X10817682Y-19498436D02*
X10808158Y-19507960D01*
X10808158Y-19507960D02*
X10789110Y-19517484D01*
X10789110Y-19517484D02*
X10770063Y-19517484D01*
X10770063Y-19517484D02*
X10751015Y-19507960D01*
X10751015Y-19507960D02*
X10741491Y-19498436D01*
X10741491Y-19498436D02*
X10731967Y-19479389D01*
X10731967Y-19479389D02*
X10722444Y-19441293D01*
X10722444Y-19441293D02*
X10722444Y-19393674D01*
X10722444Y-19393674D02*
X10731967Y-19355579D01*
X10731967Y-19355579D02*
X10741491Y-19336531D01*
X10741491Y-19336531D02*
X10751015Y-19327008D01*
X10751015Y-19327008D02*
X10770063Y-19317484D01*
X10960539Y-19317484D02*
X10979586Y-19317484D01*
X10979586Y-19317484D02*
X10998634Y-19327008D01*
X10998634Y-19327008D02*
X11008158Y-19336531D01*
X11008158Y-19336531D02*
X11017682Y-19355579D01*
X11017682Y-19355579D02*
X11027205Y-19393674D01*
X11027205Y-19393674D02*
X11027205Y-19441293D01*
X11027205Y-19441293D02*
X11017682Y-19479389D01*
X11017682Y-19479389D02*
X11008158Y-19498436D01*
X11008158Y-19498436D02*
X10998634Y-19507960D01*
X10998634Y-19507960D02*
X10979586Y-19517484D01*
X10979586Y-19517484D02*
X10960539Y-19517484D01*
X10960539Y-19517484D02*
X10941491Y-19507960D01*
X10941491Y-19507960D02*
X10931967Y-19498436D01*
X10931967Y-19498436D02*
X10922444Y-19479389D01*
X10922444Y-19479389D02*
X10912920Y-19441293D01*
X10912920Y-19441293D02*
X10912920Y-19393674D01*
X10912920Y-19393674D02*
X10922444Y-19355579D01*
X10922444Y-19355579D02*
X10931967Y-19336531D01*
X10931967Y-19336531D02*
X10941491Y-19327008D01*
X10941491Y-19327008D02*
X10960539Y-19317484D01*
X11112920Y-19517484D02*
X11112920Y-19384150D01*
X11112920Y-19403198D02*
X11122444Y-19393674D01*
X11122444Y-19393674D02*
X11141491Y-19384150D01*
X11141491Y-19384150D02*
X11170063Y-19384150D01*
X11170063Y-19384150D02*
X11189110Y-19393674D01*
X11189110Y-19393674D02*
X11198634Y-19412722D01*
X11198634Y-19412722D02*
X11198634Y-19517484D01*
X11198634Y-19412722D02*
X11208158Y-19393674D01*
X11208158Y-19393674D02*
X11227205Y-19384150D01*
X11227205Y-19384150D02*
X11255777Y-19384150D01*
X11255777Y-19384150D02*
X11274824Y-19393674D01*
X11274824Y-19393674D02*
X11284348Y-19412722D01*
X11284348Y-19412722D02*
X11284348Y-19517484D01*
X11379586Y-19517484D02*
X11379586Y-19384150D01*
X11379586Y-19403198D02*
X11389110Y-19393674D01*
X11389110Y-19393674D02*
X11408158Y-19384150D01*
X11408158Y-19384150D02*
X11436729Y-19384150D01*
X11436729Y-19384150D02*
X11455777Y-19393674D01*
X11455777Y-19393674D02*
X11465301Y-19412722D01*
X11465301Y-19412722D02*
X11465301Y-19517484D01*
X11465301Y-19412722D02*
X11474824Y-19393674D01*
X11474824Y-19393674D02*
X11493872Y-19384150D01*
X11493872Y-19384150D02*
X11522443Y-19384150D01*
X11522443Y-19384150D02*
X11541491Y-19393674D01*
X11541491Y-19393674D02*
X11551015Y-19412722D01*
X11551015Y-19412722D02*
X11551015Y-19517484D01*
X11941491Y-19307960D02*
X11770063Y-19565103D01*
X12198634Y-19317484D02*
X12217682Y-19317484D01*
X12217682Y-19317484D02*
X12236729Y-19327008D01*
X12236729Y-19327008D02*
X12246253Y-19336531D01*
X12246253Y-19336531D02*
X12255777Y-19355579D01*
X12255777Y-19355579D02*
X12265301Y-19393674D01*
X12265301Y-19393674D02*
X12265301Y-19441293D01*
X12265301Y-19441293D02*
X12255777Y-19479389D01*
X12255777Y-19479389D02*
X12246253Y-19498436D01*
X12246253Y-19498436D02*
X12236729Y-19507960D01*
X12236729Y-19507960D02*
X12217682Y-19517484D01*
X12217682Y-19517484D02*
X12198634Y-19517484D01*
X12198634Y-19517484D02*
X12179586Y-19507960D01*
X12179586Y-19507960D02*
X12170063Y-19498436D01*
X12170063Y-19498436D02*
X12160539Y-19479389D01*
X12160539Y-19479389D02*
X12151015Y-19441293D01*
X12151015Y-19441293D02*
X12151015Y-19393674D01*
X12151015Y-19393674D02*
X12160539Y-19355579D01*
X12160539Y-19355579D02*
X12170063Y-19336531D01*
X12170063Y-19336531D02*
X12179586Y-19327008D01*
X12179586Y-19327008D02*
X12198634Y-19317484D01*
X12351015Y-19498436D02*
X12360539Y-19507960D01*
X12360539Y-19507960D02*
X12351015Y-19517484D01*
X12351015Y-19517484D02*
X12341491Y-19507960D01*
X12341491Y-19507960D02*
X12351015Y-19498436D01*
X12351015Y-19498436D02*
X12351015Y-19517484D01*
X12484348Y-19317484D02*
X12503396Y-19317484D01*
X12503396Y-19317484D02*
X12522444Y-19327008D01*
X12522444Y-19327008D02*
X12531967Y-19336531D01*
X12531967Y-19336531D02*
X12541491Y-19355579D01*
X12541491Y-19355579D02*
X12551015Y-19393674D01*
X12551015Y-19393674D02*
X12551015Y-19441293D01*
X12551015Y-19441293D02*
X12541491Y-19479389D01*
X12541491Y-19479389D02*
X12531967Y-19498436D01*
X12531967Y-19498436D02*
X12522444Y-19507960D01*
X12522444Y-19507960D02*
X12503396Y-19517484D01*
X12503396Y-19517484D02*
X12484348Y-19517484D01*
X12484348Y-19517484D02*
X12465301Y-19507960D01*
X12465301Y-19507960D02*
X12455777Y-19498436D01*
X12455777Y-19498436D02*
X12446253Y-19479389D01*
X12446253Y-19479389D02*
X12436729Y-19441293D01*
X12436729Y-19441293D02*
X12436729Y-19393674D01*
X12436729Y-19393674D02*
X12446253Y-19355579D01*
X12446253Y-19355579D02*
X12455777Y-19336531D01*
X12455777Y-19336531D02*
X12465301Y-19327008D01*
X12465301Y-19327008D02*
X12484348Y-19317484D01*
X12741491Y-19517484D02*
X12627206Y-19517484D01*
X12684348Y-19517484D02*
X12684348Y-19317484D01*
X12684348Y-19317484D02*
X12665301Y-19346055D01*
X12665301Y-19346055D02*
X12646253Y-19365103D01*
X12646253Y-19365103D02*
X12627206Y-19374627D01*
X12931967Y-19517484D02*
X12817682Y-19517484D01*
X12874825Y-19517484D02*
X12874825Y-19317484D01*
X12874825Y-19317484D02*
X12855777Y-19346055D01*
X12855777Y-19346055D02*
X12836729Y-19365103D01*
X12836729Y-19365103D02*
X12817682Y-19374627D01*
X13046253Y-19403198D02*
X13027206Y-19393674D01*
X13027206Y-19393674D02*
X13017682Y-19384150D01*
X13017682Y-19384150D02*
X13008158Y-19365103D01*
X13008158Y-19365103D02*
X13008158Y-19355579D01*
X13008158Y-19355579D02*
X13017682Y-19336531D01*
X13017682Y-19336531D02*
X13027206Y-19327008D01*
X13027206Y-19327008D02*
X13046253Y-19317484D01*
X13046253Y-19317484D02*
X13084348Y-19317484D01*
X13084348Y-19317484D02*
X13103396Y-19327008D01*
X13103396Y-19327008D02*
X13112920Y-19336531D01*
X13112920Y-19336531D02*
X13122444Y-19355579D01*
X13122444Y-19355579D02*
X13122444Y-19365103D01*
X13122444Y-19365103D02*
X13112920Y-19384150D01*
X13112920Y-19384150D02*
X13103396Y-19393674D01*
X13103396Y-19393674D02*
X13084348Y-19403198D01*
X13084348Y-19403198D02*
X13046253Y-19403198D01*
X13046253Y-19403198D02*
X13027206Y-19412722D01*
X13027206Y-19412722D02*
X13017682Y-19422246D01*
X13017682Y-19422246D02*
X13008158Y-19441293D01*
X13008158Y-19441293D02*
X13008158Y-19479389D01*
X13008158Y-19479389D02*
X13017682Y-19498436D01*
X13017682Y-19498436D02*
X13027206Y-19507960D01*
X13027206Y-19507960D02*
X13046253Y-19517484D01*
X13046253Y-19517484D02*
X13084348Y-19517484D01*
X13084348Y-19517484D02*
X13103396Y-19507960D01*
X13103396Y-19507960D02*
X13112920Y-19498436D01*
X13112920Y-19498436D02*
X13122444Y-19479389D01*
X13122444Y-19479389D02*
X13122444Y-19441293D01*
X13122444Y-19441293D02*
X13112920Y-19422246D01*
X13112920Y-19422246D02*
X13103396Y-19412722D01*
X13103396Y-19412722D02*
X13084348Y-19403198D01*
X13198634Y-19317484D02*
X13198634Y-19355579D01*
X13274825Y-19317484D02*
X13274825Y-19355579D01*
X13570063Y-19593674D02*
X13560539Y-19584150D01*
X13560539Y-19584150D02*
X13541491Y-19555579D01*
X13541491Y-19555579D02*
X13531968Y-19536531D01*
X13531968Y-19536531D02*
X13522444Y-19507960D01*
X13522444Y-19507960D02*
X13512920Y-19460341D01*
X13512920Y-19460341D02*
X13512920Y-19422246D01*
X13512920Y-19422246D02*
X13522444Y-19374627D01*
X13522444Y-19374627D02*
X13531968Y-19346055D01*
X13531968Y-19346055D02*
X13541491Y-19327008D01*
X13541491Y-19327008D02*
X13560539Y-19298436D01*
X13560539Y-19298436D02*
X13570063Y-19288912D01*
X13674825Y-19403198D02*
X13655777Y-19393674D01*
X13655777Y-19393674D02*
X13646253Y-19384150D01*
X13646253Y-19384150D02*
X13636729Y-19365103D01*
X13636729Y-19365103D02*
X13636729Y-19355579D01*
X13636729Y-19355579D02*
X13646253Y-19336531D01*
X13646253Y-19336531D02*
X13655777Y-19327008D01*
X13655777Y-19327008D02*
X13674825Y-19317484D01*
X13674825Y-19317484D02*
X13712920Y-19317484D01*
X13712920Y-19317484D02*
X13731968Y-19327008D01*
X13731968Y-19327008D02*
X13741491Y-19336531D01*
X13741491Y-19336531D02*
X13751015Y-19355579D01*
X13751015Y-19355579D02*
X13751015Y-19365103D01*
X13751015Y-19365103D02*
X13741491Y-19384150D01*
X13741491Y-19384150D02*
X13731968Y-19393674D01*
X13731968Y-19393674D02*
X13712920Y-19403198D01*
X13712920Y-19403198D02*
X13674825Y-19403198D01*
X13674825Y-19403198D02*
X13655777Y-19412722D01*
X13655777Y-19412722D02*
X13646253Y-19422246D01*
X13646253Y-19422246D02*
X13636729Y-19441293D01*
X13636729Y-19441293D02*
X13636729Y-19479389D01*
X13636729Y-19479389D02*
X13646253Y-19498436D01*
X13646253Y-19498436D02*
X13655777Y-19507960D01*
X13655777Y-19507960D02*
X13674825Y-19517484D01*
X13674825Y-19517484D02*
X13712920Y-19517484D01*
X13712920Y-19517484D02*
X13731968Y-19507960D01*
X13731968Y-19507960D02*
X13741491Y-19498436D01*
X13741491Y-19498436D02*
X13751015Y-19479389D01*
X13751015Y-19479389D02*
X13751015Y-19441293D01*
X13751015Y-19441293D02*
X13741491Y-19422246D01*
X13741491Y-19422246D02*
X13731968Y-19412722D01*
X13731968Y-19412722D02*
X13712920Y-19403198D01*
X13941491Y-19517484D02*
X13827206Y-19517484D01*
X13884348Y-19517484D02*
X13884348Y-19317484D01*
X13884348Y-19317484D02*
X13865301Y-19346055D01*
X13865301Y-19346055D02*
X13846253Y-19365103D01*
X13846253Y-19365103D02*
X13827206Y-19374627D01*
X14017682Y-19336531D02*
X14027206Y-19327008D01*
X14027206Y-19327008D02*
X14046253Y-19317484D01*
X14046253Y-19317484D02*
X14093872Y-19317484D01*
X14093872Y-19317484D02*
X14112920Y-19327008D01*
X14112920Y-19327008D02*
X14122444Y-19336531D01*
X14122444Y-19336531D02*
X14131968Y-19355579D01*
X14131968Y-19355579D02*
X14131968Y-19374627D01*
X14131968Y-19374627D02*
X14122444Y-19403198D01*
X14122444Y-19403198D02*
X14008158Y-19517484D01*
X14008158Y-19517484D02*
X14131968Y-19517484D01*
X14370063Y-19517484D02*
X14370063Y-19317484D01*
X14455777Y-19517484D02*
X14455777Y-19412722D01*
X14455777Y-19412722D02*
X14446253Y-19393674D01*
X14446253Y-19393674D02*
X14427206Y-19384150D01*
X14427206Y-19384150D02*
X14398634Y-19384150D01*
X14398634Y-19384150D02*
X14379587Y-19393674D01*
X14379587Y-19393674D02*
X14370063Y-19403198D01*
X14579587Y-19517484D02*
X14560539Y-19507960D01*
X14560539Y-19507960D02*
X14551015Y-19498436D01*
X14551015Y-19498436D02*
X14541491Y-19479389D01*
X14541491Y-19479389D02*
X14541491Y-19422246D01*
X14541491Y-19422246D02*
X14551015Y-19403198D01*
X14551015Y-19403198D02*
X14560539Y-19393674D01*
X14560539Y-19393674D02*
X14579587Y-19384150D01*
X14579587Y-19384150D02*
X14608158Y-19384150D01*
X14608158Y-19384150D02*
X14627206Y-19393674D01*
X14627206Y-19393674D02*
X14636730Y-19403198D01*
X14636730Y-19403198D02*
X14646253Y-19422246D01*
X14646253Y-19422246D02*
X14646253Y-19479389D01*
X14646253Y-19479389D02*
X14636730Y-19498436D01*
X14636730Y-19498436D02*
X14627206Y-19507960D01*
X14627206Y-19507960D02*
X14608158Y-19517484D01*
X14608158Y-19517484D02*
X14579587Y-19517484D01*
X14760539Y-19517484D02*
X14741491Y-19507960D01*
X14741491Y-19507960D02*
X14731968Y-19488912D01*
X14731968Y-19488912D02*
X14731968Y-19317484D01*
X14912920Y-19507960D02*
X14893872Y-19517484D01*
X14893872Y-19517484D02*
X14855777Y-19517484D01*
X14855777Y-19517484D02*
X14836730Y-19507960D01*
X14836730Y-19507960D02*
X14827206Y-19488912D01*
X14827206Y-19488912D02*
X14827206Y-19412722D01*
X14827206Y-19412722D02*
X14836730Y-19393674D01*
X14836730Y-19393674D02*
X14855777Y-19384150D01*
X14855777Y-19384150D02*
X14893872Y-19384150D01*
X14893872Y-19384150D02*
X14912920Y-19393674D01*
X14912920Y-19393674D02*
X14922444Y-19412722D01*
X14922444Y-19412722D02*
X14922444Y-19431770D01*
X14922444Y-19431770D02*
X14827206Y-19450817D01*
X14998634Y-19507960D02*
X15017682Y-19517484D01*
X15017682Y-19517484D02*
X15055777Y-19517484D01*
X15055777Y-19517484D02*
X15074825Y-19507960D01*
X15074825Y-19507960D02*
X15084349Y-19488912D01*
X15084349Y-19488912D02*
X15084349Y-19479389D01*
X15084349Y-19479389D02*
X15074825Y-19460341D01*
X15074825Y-19460341D02*
X15055777Y-19450817D01*
X15055777Y-19450817D02*
X15027206Y-19450817D01*
X15027206Y-19450817D02*
X15008158Y-19441293D01*
X15008158Y-19441293D02*
X14998634Y-19422246D01*
X14998634Y-19422246D02*
X14998634Y-19412722D01*
X14998634Y-19412722D02*
X15008158Y-19393674D01*
X15008158Y-19393674D02*
X15027206Y-19384150D01*
X15027206Y-19384150D02*
X15055777Y-19384150D01*
X15055777Y-19384150D02*
X15074825Y-19393674D01*
X15151015Y-19593674D02*
X15160539Y-19584150D01*
X15160539Y-19584150D02*
X15179587Y-19555579D01*
X15179587Y-19555579D02*
X15189111Y-19536531D01*
X15189111Y-19536531D02*
X15198634Y-19507960D01*
X15198634Y-19507960D02*
X15208158Y-19460341D01*
X15208158Y-19460341D02*
X15208158Y-19422246D01*
X15208158Y-19422246D02*
X15198634Y-19374627D01*
X15198634Y-19374627D02*
X15189111Y-19346055D01*
X15189111Y-19346055D02*
X15179587Y-19327008D01*
X15179587Y-19327008D02*
X15160539Y-19298436D01*
X15160539Y-19298436D02*
X15151015Y-19288912D01*
M02*
