%TF.GenerationSoftware,KiCad,Pcbnew,7.0.8*%
%TF.CreationDate,2026-09-29T15:25:08-05:00*%
%TF.ProjectId,vuulgaris-faceplate,7675756c-6761-4726-9973-2d6661636570,0*%
%TF.SameCoordinates,Original*%
%TF.FileFunction,Drillmap*%
%TF.FilePolarity,Positive*%
%FSLAX45Y45*%
G04 Gerber Fmt 4.5, Leading zero omitted, Abs format (unit mm)*
G04 Created by KiCad (PCBNEW 7.0.8) date 2026-09-29 15:25:08*
%MOMM*%
%LPD*%
G01*
G04 APERTURE LIST*
%ADD10C,0.100000*%
%ADD11C,0.200000*%
G04 APERTURE END LIST*
D10*
X22289300Y-7322500D02*
G75*
G03*
X22289300Y-7322500I-375000J0D01*
G01*
X12989300Y-7339500D02*
G75*
G03*
X12989300Y-7339500I-475000J0D01*
G01*
X10000000Y-18181000D02*
G75*
G03*
X10600000Y-18781000I600000J0D01*
G01*
X36759286Y-9904850D02*
X30950251Y-9904850D01*
X39098571Y-18481000D02*
G75*
G03*
X39098571Y-18481000I-170000J0D01*
G01*
X30850251Y-9804850D02*
X30850251Y-6614850D01*
X14492100Y-14395300D02*
G75*
G03*
X14492100Y-14395300I-360000J0D01*
G01*
X12942100Y-14395300D02*
G75*
G03*
X12942100Y-14395300I-360000J0D01*
G01*
X12942100Y-15665300D02*
G75*
G03*
X12942100Y-15665300I-360000J0D01*
G01*
X19589300Y-7339500D02*
G75*
G03*
X19589300Y-7339500I-475000J0D01*
G01*
X19589300Y-8985100D02*
G75*
G03*
X19589300Y-8985100I-475000J0D01*
G01*
X26689300Y-7322500D02*
G75*
G03*
X26689300Y-7322500I-375000J0D01*
G01*
X14492100Y-16935300D02*
G75*
G03*
X14492100Y-16935300I-360000J0D01*
G01*
X11070000Y-5300000D02*
G75*
G03*
X11070000Y-5300000I-170000J0D01*
G01*
X17389300Y-8985100D02*
G75*
G03*
X17389300Y-8985100I-475000J0D01*
G01*
X36859286Y-6614850D02*
X36859286Y-9804850D01*
X12989300Y-8985100D02*
G75*
G03*
X12989300Y-8985100I-475000J0D01*
G01*
X28344300Y-8963100D02*
G75*
G03*
X28344300Y-8963100I-280000J0D01*
G01*
X14492100Y-15665300D02*
G75*
G03*
X14492100Y-15665300I-360000J0D01*
G01*
X24489300Y-7322500D02*
G75*
G03*
X24489300Y-7322500I-375000J0D01*
G01*
X30850250Y-9804850D02*
G75*
G03*
X30950251Y-9904850I100000J0D01*
G01*
X36759286Y-9904846D02*
G75*
G03*
X36859286Y-9804850I4J99996D01*
G01*
X15189300Y-8985100D02*
G75*
G03*
X15189300Y-8985100I-475000J0D01*
G01*
X36859290Y-6614850D02*
G75*
G03*
X36759286Y-6514850I-100000J0D01*
G01*
X29644300Y-8963100D02*
G75*
G03*
X29644300Y-8963100I-280000J0D01*
G01*
X30950251Y-6514851D02*
G75*
G03*
X30850251Y-6614850I-2J-99999D01*
G01*
X10000000Y-18181000D02*
X10000000Y-5600000D01*
X39828570Y-5600000D02*
G75*
G03*
X39228571Y-5000000I-600000J0D01*
G01*
X39098571Y-5300000D02*
G75*
G03*
X39098571Y-5300000I-170000J0D01*
G01*
X26689300Y-8968100D02*
G75*
G03*
X26689300Y-8968100I-375000J0D01*
G01*
X10600000Y-5000000D02*
G75*
G03*
X10000000Y-5600000I0J-600000D01*
G01*
X39228571Y-18781000D02*
X10600000Y-18781000D01*
X39828571Y-5600000D02*
X39828571Y-18181000D01*
X17389300Y-7339500D02*
G75*
G03*
X17389300Y-7339500I-475000J0D01*
G01*
X15189300Y-7339500D02*
G75*
G03*
X15189300Y-7339500I-475000J0D01*
G01*
X12942100Y-16935300D02*
G75*
G03*
X12942100Y-16935300I-360000J0D01*
G01*
X10600000Y-5000000D02*
X39228571Y-5000000D01*
X22289300Y-8968100D02*
G75*
G03*
X22289300Y-8968100I-375000J0D01*
G01*
X30950251Y-6514850D02*
X36759286Y-6514850D01*
X13857100Y-12545300D02*
G75*
G03*
X13857100Y-12545300I-500000J0D01*
G01*
X11070000Y-18481000D02*
G75*
G03*
X11070000Y-18481000I-170000J0D01*
G01*
X24489300Y-8968100D02*
G75*
G03*
X24489300Y-8968100I-375000J0D01*
G01*
X39228571Y-18781001D02*
G75*
G03*
X39828571Y-18181000I-1J600001D01*
G01*
D11*
X10255777Y-19097484D02*
X10255777Y-18897484D01*
X10255777Y-18897484D02*
X10303396Y-18897484D01*
X10303396Y-18897484D02*
X10331967Y-18907008D01*
X10331967Y-18907008D02*
X10351015Y-18926055D01*
X10351015Y-18926055D02*
X10360539Y-18945103D01*
X10360539Y-18945103D02*
X10370063Y-18983198D01*
X10370063Y-18983198D02*
X10370063Y-19011770D01*
X10370063Y-19011770D02*
X10360539Y-19049865D01*
X10360539Y-19049865D02*
X10351015Y-19068912D01*
X10351015Y-19068912D02*
X10331967Y-19087960D01*
X10331967Y-19087960D02*
X10303396Y-19097484D01*
X10303396Y-19097484D02*
X10255777Y-19097484D01*
X10455777Y-19097484D02*
X10455777Y-18964150D01*
X10455777Y-19002246D02*
X10465301Y-18983198D01*
X10465301Y-18983198D02*
X10474824Y-18973674D01*
X10474824Y-18973674D02*
X10493872Y-18964150D01*
X10493872Y-18964150D02*
X10512920Y-18964150D01*
X10579586Y-19097484D02*
X10579586Y-18964150D01*
X10579586Y-18897484D02*
X10570063Y-18907008D01*
X10570063Y-18907008D02*
X10579586Y-18916531D01*
X10579586Y-18916531D02*
X10589110Y-18907008D01*
X10589110Y-18907008D02*
X10579586Y-18897484D01*
X10579586Y-18897484D02*
X10579586Y-18916531D01*
X10703396Y-19097484D02*
X10684348Y-19087960D01*
X10684348Y-19087960D02*
X10674824Y-19068912D01*
X10674824Y-19068912D02*
X10674824Y-18897484D01*
X10808158Y-19097484D02*
X10789110Y-19087960D01*
X10789110Y-19087960D02*
X10779586Y-19068912D01*
X10779586Y-19068912D02*
X10779586Y-18897484D01*
X11036729Y-19097484D02*
X11036729Y-18897484D01*
X11036729Y-18897484D02*
X11103396Y-19040341D01*
X11103396Y-19040341D02*
X11170063Y-18897484D01*
X11170063Y-18897484D02*
X11170063Y-19097484D01*
X11351015Y-19097484D02*
X11351015Y-18992722D01*
X11351015Y-18992722D02*
X11341491Y-18973674D01*
X11341491Y-18973674D02*
X11322443Y-18964150D01*
X11322443Y-18964150D02*
X11284348Y-18964150D01*
X11284348Y-18964150D02*
X11265301Y-18973674D01*
X11351015Y-19087960D02*
X11331967Y-19097484D01*
X11331967Y-19097484D02*
X11284348Y-19097484D01*
X11284348Y-19097484D02*
X11265301Y-19087960D01*
X11265301Y-19087960D02*
X11255777Y-19068912D01*
X11255777Y-19068912D02*
X11255777Y-19049865D01*
X11255777Y-19049865D02*
X11265301Y-19030817D01*
X11265301Y-19030817D02*
X11284348Y-19021293D01*
X11284348Y-19021293D02*
X11331967Y-19021293D01*
X11331967Y-19021293D02*
X11351015Y-19011770D01*
X11446253Y-18964150D02*
X11446253Y-19164150D01*
X11446253Y-18973674D02*
X11465301Y-18964150D01*
X11465301Y-18964150D02*
X11503396Y-18964150D01*
X11503396Y-18964150D02*
X11522443Y-18973674D01*
X11522443Y-18973674D02*
X11531967Y-18983198D01*
X11531967Y-18983198D02*
X11541491Y-19002246D01*
X11541491Y-19002246D02*
X11541491Y-19059389D01*
X11541491Y-19059389D02*
X11531967Y-19078436D01*
X11531967Y-19078436D02*
X11522443Y-19087960D01*
X11522443Y-19087960D02*
X11503396Y-19097484D01*
X11503396Y-19097484D02*
X11465301Y-19097484D01*
X11465301Y-19097484D02*
X11446253Y-19087960D01*
X11627205Y-19078436D02*
X11636729Y-19087960D01*
X11636729Y-19087960D02*
X11627205Y-19097484D01*
X11627205Y-19097484D02*
X11617682Y-19087960D01*
X11617682Y-19087960D02*
X11627205Y-19078436D01*
X11627205Y-19078436D02*
X11627205Y-19097484D01*
X11627205Y-18973674D02*
X11636729Y-18983198D01*
X11636729Y-18983198D02*
X11627205Y-18992722D01*
X11627205Y-18992722D02*
X11617682Y-18983198D01*
X11617682Y-18983198D02*
X11627205Y-18973674D01*
X11627205Y-18973674D02*
X11627205Y-18992722D01*
M02*
