M48
; DRILL file {KiCad 7.0.8} date 2026 September 29, Tuesday 15:25:08
; FORMAT={-:-/ absolute / metric / decimal}
; #@! TF.CreationDate,2026-09-29T15:25:08-05:00
; #@! TF.GenerationSoftware,Kicad,Pcbnew,7.0.8
; #@! TF.FileFunction,Plated,1,4,PTH
FMAT,2
METRIC
; #@! TA.AperFunction,Plated,PTH,ViaDrill
T1C0.300
%
G90
G05
T1
X162.118Y-112.953
X162.118Y-130.953
X162.118Y-148.953
X162.118Y-166.953
X164.278Y-112.953
X164.278Y-122.126
X164.278Y-130.953
X164.278Y-140.126
X164.278Y-148.953
X164.278Y-158.126
X164.278Y-166.953
X164.278Y-176.126
X166.438Y-112.953
X166.438Y-121.953
X166.438Y-130.953
X166.438Y-139.953
X166.438Y-148.953
X166.438Y-157.953
X166.438Y-166.953
X166.438Y-175.953
X168.598Y-112.953
X168.598Y-121.953
X168.598Y-130.953
X168.598Y-139.953
X168.598Y-148.953
X168.598Y-157.953
X168.598Y-166.953
X168.598Y-175.953
X170.758Y-112.953
X170.758Y-121.953
X170.758Y-130.953
X170.758Y-139.953
X170.758Y-148.953
X170.758Y-157.953
X170.758Y-166.953
X170.758Y-175.953
X172.918Y-112.953
X172.918Y-121.953
X172.918Y-130.953
X172.918Y-139.953
X172.918Y-148.953
X172.918Y-157.953
X172.918Y-166.953
X172.918Y-175.953
X175.078Y-112.953
X175.078Y-121.953
X175.078Y-130.953
X175.078Y-139.953
X175.078Y-148.953
X175.078Y-157.953
X175.078Y-166.953
X175.078Y-175.953
X177.238Y-112.953
X177.238Y-121.953
X177.238Y-130.953
X177.238Y-139.953
X177.238Y-148.953
X177.238Y-157.953
X177.238Y-166.953
X177.238Y-175.953
X179.398Y-112.953
X179.398Y-121.953
X179.398Y-130.953
X179.398Y-139.953
X179.398Y-148.953
X179.398Y-157.953
X179.398Y-166.953
X179.398Y-175.953
X181.558Y-112.953
X181.558Y-121.953
X181.558Y-130.953
X181.558Y-139.953
X181.558Y-148.953
X181.558Y-157.953
X181.558Y-166.953
X181.558Y-175.953
X183.718Y-112.953
X183.718Y-121.953
X183.718Y-130.953
X183.718Y-139.953
X183.718Y-148.953
X183.718Y-157.953
X183.718Y-166.953
X183.718Y-175.953
X185.878Y-112.953
X185.878Y-121.953
X185.878Y-130.953
X185.878Y-139.953
X185.878Y-148.953
X185.878Y-157.953
X185.878Y-166.953
X185.878Y-175.953
X188.038Y-112.953
X188.038Y-121.953
X188.038Y-130.953
X188.038Y-139.953
X188.038Y-148.953
X188.038Y-157.953
X188.038Y-166.953
X188.038Y-175.953
X190.198Y-112.953
X190.198Y-121.953
X190.198Y-130.953
X190.198Y-139.953
X190.198Y-148.953
X190.198Y-157.953
X190.198Y-166.953
X190.198Y-175.953
X192.358Y-112.953
X192.358Y-121.953
X192.358Y-130.953
X192.358Y-139.953
X192.358Y-148.953
X192.358Y-157.953
X192.358Y-166.953
X192.358Y-175.953
X194.518Y-112.953
X194.518Y-121.953
X194.518Y-130.953
X194.518Y-139.953
X194.518Y-148.953
X194.518Y-157.953
X194.518Y-166.953
X194.518Y-175.953
X196.678Y-112.953
X196.678Y-121.953
X196.678Y-130.953
X196.678Y-139.953
X196.678Y-148.953
X196.678Y-157.953
X196.678Y-166.953
X196.678Y-175.953
X198.838Y-112.953
X198.838Y-121.953
X198.838Y-130.953
X198.838Y-139.953
X198.838Y-148.953
X198.838Y-157.953
X198.838Y-166.953
X198.838Y-175.953
X200.998Y-112.953
X200.998Y-121.953
X200.998Y-130.953
X200.998Y-139.953
X200.998Y-148.953
X200.998Y-157.953
X200.998Y-166.953
X200.998Y-175.953
X203.158Y-112.953
X203.158Y-121.953
X203.158Y-130.953
X203.158Y-139.953
X203.158Y-148.953
X203.158Y-157.953
X203.158Y-166.953
X203.158Y-175.953
X205.318Y-112.953
X205.318Y-121.953
X205.318Y-130.953
X205.318Y-139.953
X205.318Y-148.953
X205.318Y-157.953
X205.318Y-166.953
X205.318Y-175.953
X207.478Y-112.953
X207.478Y-121.953
X207.478Y-130.953
X207.478Y-139.953
X207.478Y-148.953
X207.478Y-157.953
X207.478Y-166.953
X207.478Y-175.953
X209.638Y-112.953
X209.638Y-121.953
X209.638Y-130.953
X209.638Y-139.953
X209.638Y-148.953
X209.638Y-157.953
X209.638Y-166.953
X209.638Y-175.953
X211.798Y-112.781
X211.798Y-121.953
X211.798Y-130.781
X211.798Y-139.953
X211.798Y-148.781
X211.798Y-157.953
X211.798Y-166.781
X211.798Y-175.953
X213.958Y-121.953
X213.958Y-139.953
X213.958Y-157.953
X213.958Y-175.953
X216.118Y-121.953
X216.118Y-139.953
X216.118Y-157.953
X216.118Y-175.953
X218.278Y-112.781
X218.278Y-121.953
X218.278Y-130.781
X218.278Y-139.953
X218.278Y-148.781
X218.278Y-157.953
X218.278Y-166.781
X218.278Y-175.953
X220.438Y-112.953
X220.438Y-121.953
X220.438Y-130.953
X220.438Y-139.953
X220.438Y-148.953
X220.438Y-157.953
X220.438Y-166.953
X220.438Y-175.953
X222.598Y-112.953
X222.598Y-121.953
X222.598Y-130.953
X222.598Y-139.953
X222.598Y-148.953
X222.598Y-157.953
X222.598Y-166.953
X222.598Y-175.953
X224.758Y-112.953
X224.758Y-121.953
X224.758Y-130.953
X224.758Y-139.953
X224.758Y-148.953
X224.758Y-157.953
X224.758Y-166.953
X224.758Y-175.953
X226.918Y-112.953
X226.918Y-121.953
X226.918Y-130.953
X226.918Y-139.953
X226.918Y-148.953
X226.918Y-157.953
X226.918Y-166.953
X226.918Y-175.953
X229.078Y-112.953
X229.078Y-121.953
X229.078Y-130.953
X229.078Y-139.953
X229.078Y-148.953
X229.078Y-157.953
X229.078Y-166.953
X229.078Y-175.953
X231.238Y-112.953
X231.238Y-121.953
X231.238Y-130.953
X231.238Y-139.953
X231.238Y-148.953
X231.238Y-157.953
X231.238Y-166.953
X231.238Y-175.953
X233.398Y-112.953
X233.398Y-121.953
X233.398Y-130.953
X233.398Y-139.953
X233.398Y-148.953
X233.398Y-157.953
X233.398Y-166.953
X233.398Y-175.953
X235.558Y-112.953
X235.558Y-121.953
X235.558Y-130.953
X235.558Y-139.953
X235.558Y-148.953
X235.558Y-157.953
X235.558Y-166.953
X235.558Y-175.953
X237.718Y-112.953
X237.718Y-121.953
X237.718Y-130.953
X237.718Y-139.953
X237.718Y-148.953
X237.718Y-157.953
X237.718Y-166.953
X237.718Y-175.953
X239.878Y-112.953
X239.878Y-121.953
X239.878Y-130.953
X239.878Y-139.953
X239.878Y-148.953
X239.878Y-157.953
X239.878Y-166.953
X239.878Y-175.953
X242.038Y-112.953
X242.038Y-121.953
X242.038Y-130.953
X242.038Y-139.953
X242.038Y-148.953
X242.038Y-157.953
X242.038Y-166.953
X242.038Y-175.953
X244.198Y-112.953
X244.198Y-121.953
X244.198Y-130.953
X244.198Y-139.953
X244.198Y-148.953
X244.198Y-157.953
X244.198Y-166.953
X244.198Y-175.953
X246.358Y-112.953
X246.358Y-121.953
X246.358Y-130.953
X246.358Y-139.953
X246.358Y-148.953
X246.358Y-157.953
X246.358Y-166.953
X246.358Y-175.953
X248.518Y-112.953
X248.518Y-121.953
X248.518Y-130.953
X248.518Y-139.953
X248.518Y-148.953
X248.518Y-157.953
X248.518Y-166.953
X248.518Y-175.953
X250.678Y-112.953
X250.678Y-121.953
X250.678Y-130.953
X250.678Y-139.953
X250.678Y-148.953
X250.678Y-157.953
X250.678Y-166.953
X250.678Y-175.953
X252.838Y-112.953
X252.838Y-121.953
X252.838Y-130.953
X252.838Y-139.953
X252.838Y-148.953
X252.838Y-157.953
X252.838Y-166.953
X252.838Y-175.953
X254.998Y-112.953
X254.998Y-121.953
X254.998Y-130.953
X254.998Y-139.953
X254.998Y-148.953
X254.998Y-157.953
X254.998Y-166.953
X254.998Y-175.953
X257.158Y-112.953
X257.158Y-121.953
X257.158Y-130.953
X257.158Y-139.953
X257.158Y-148.953
X257.158Y-157.953
X257.158Y-166.953
X257.158Y-175.953
X259.318Y-112.953
X259.318Y-121.953
X259.318Y-130.953
X259.318Y-139.953
X259.318Y-148.953
X259.318Y-157.953
X259.318Y-166.953
X259.318Y-175.953
X261.478Y-112.953
X261.478Y-121.953
X261.478Y-130.953
X261.478Y-139.953
X261.478Y-148.953
X261.478Y-157.953
X261.478Y-166.953
X261.478Y-175.953
X263.638Y-112.953
X263.638Y-121.953
X263.638Y-130.953
X263.638Y-139.953
X263.638Y-148.953
X263.638Y-157.953
X263.638Y-166.953
X263.638Y-175.953
X265.798Y-112.953
X265.798Y-122.126
X265.798Y-130.953
X265.798Y-140.126
X265.798Y-148.953
X265.798Y-158.126
X265.798Y-166.953
X265.798Y-176.126
X267.958Y-112.953
X267.958Y-130.953
X267.958Y-148.953
X267.958Y-166.953
X270.118Y-112.953
X270.118Y-130.953
X270.118Y-148.953
X270.118Y-166.953
X272.278Y-112.953
X272.278Y-122.126
X272.278Y-130.953
X272.278Y-140.126
X272.278Y-148.953
X272.278Y-158.126
X272.278Y-166.953
X272.278Y-176.126
X274.438Y-112.953
X274.438Y-121.953
X274.438Y-130.953
X274.438Y-139.953
X274.438Y-148.953
X274.438Y-157.953
X274.438Y-166.953
X274.438Y-175.953
X276.598Y-112.953
X276.598Y-121.953
X276.598Y-130.953
X276.598Y-139.953
X276.598Y-148.953
X276.598Y-157.953
X276.598Y-166.953
X276.598Y-175.953
X278.758Y-112.953
X278.758Y-121.953
X278.758Y-130.953
X278.758Y-139.953
X278.758Y-148.953
X278.758Y-157.953
X278.758Y-166.953
X278.758Y-175.953
X280.918Y-112.953
X280.918Y-121.953
X280.918Y-130.953
X280.918Y-139.953
X280.918Y-148.953
X280.918Y-157.953
X280.918Y-166.953
X280.918Y-175.953
X283.078Y-112.953
X283.078Y-121.953
X283.078Y-130.953
X283.078Y-139.953
X283.078Y-148.953
X283.078Y-157.953
X283.078Y-166.953
X283.078Y-175.953
X285.238Y-112.953
X285.238Y-121.953
X285.238Y-130.953
X285.238Y-139.953
X285.238Y-148.953
X285.238Y-157.953
X285.238Y-166.953
X285.238Y-175.953
X287.398Y-112.953
X287.398Y-121.953
X287.398Y-130.953
X287.398Y-139.953
X287.398Y-148.953
X287.398Y-157.953
X287.398Y-166.953
X287.398Y-175.953
X289.558Y-112.953
X289.558Y-121.953
X289.558Y-130.953
X289.558Y-139.953
X289.558Y-148.953
X289.558Y-157.953
X289.558Y-166.953
X289.558Y-175.953
X291.718Y-112.953
X291.718Y-121.953
X291.718Y-130.953
X291.718Y-139.953
X291.718Y-148.953
X291.718Y-157.953
X291.718Y-166.953
X291.718Y-175.953
X293.878Y-112.953
X293.878Y-121.953
X293.878Y-130.953
X293.878Y-139.953
X293.878Y-148.953
X293.878Y-157.953
X293.878Y-166.953
X293.878Y-175.953
X296.038Y-112.953
X296.038Y-121.953
X296.038Y-130.953
X296.038Y-139.953
X296.038Y-148.953
X296.038Y-157.953
X296.038Y-166.953
X296.038Y-175.953
X298.198Y-112.953
X298.198Y-121.953
X298.198Y-130.953
X298.198Y-139.953
X298.198Y-148.953
X298.198Y-157.953
X298.198Y-166.953
X298.198Y-175.953
X300.358Y-112.953
X300.358Y-121.953
X300.358Y-130.953
X300.358Y-139.953
X300.358Y-148.953
X300.358Y-157.953
X300.358Y-166.953
X300.358Y-175.953
X302.518Y-112.953
X302.518Y-121.953
X302.518Y-130.953
X302.518Y-139.953
X302.518Y-148.953
X302.518Y-157.953
X302.518Y-166.953
X302.518Y-175.953
X304.678Y-112.953
X304.678Y-121.953
X304.678Y-130.953
X304.678Y-139.953
X304.678Y-148.953
X304.678Y-157.953
X304.678Y-166.953
X304.678Y-175.953
X306.838Y-112.953
X306.838Y-121.953
X306.838Y-130.953
X306.838Y-139.953
X306.838Y-148.953
X306.838Y-157.953
X306.838Y-166.953
X306.838Y-175.953
X308.998Y-112.953
X308.998Y-121.953
X308.998Y-130.953
X308.998Y-139.953
X308.998Y-148.953
X308.998Y-157.953
X308.998Y-166.953
X308.998Y-175.953
X311.158Y-112.953
X311.158Y-121.953
X311.158Y-130.953
X311.158Y-139.953
X311.158Y-148.953
X311.158Y-157.953
X311.158Y-166.953
X311.158Y-175.953
X313.318Y-112.953
X313.318Y-121.953
X313.318Y-130.953
X313.318Y-139.953
X313.318Y-148.953
X313.318Y-157.953
X313.318Y-166.953
X313.318Y-175.953
X315.478Y-112.953
X315.478Y-121.953
X315.478Y-130.953
X315.478Y-139.953
X315.478Y-148.953
X315.478Y-157.953
X315.478Y-166.953
X315.478Y-175.953
X317.638Y-112.953
X317.638Y-121.953
X317.638Y-130.953
X317.638Y-139.953
X317.638Y-148.953
X317.638Y-157.953
X317.638Y-166.953
X317.638Y-175.953
X319.798Y-112.781
X319.798Y-121.953
X319.798Y-130.781
X319.798Y-139.953
X319.798Y-148.781
X319.798Y-157.953
X319.798Y-166.781
X319.798Y-175.953
X321.958Y-121.953
X321.958Y-139.953
X321.958Y-157.953
X321.958Y-175.953
X324.118Y-121.953
X324.118Y-139.953
X324.118Y-156.253
X324.118Y-175.953
X326.278Y-112.781
X326.278Y-121.953
X326.278Y-130.781
X326.278Y-139.953
X326.278Y-148.781
X326.278Y-156.253
X326.278Y-175.953
X328.438Y-112.953
X328.438Y-121.953
X328.438Y-130.953
X328.438Y-139.953
X328.438Y-148.953
X328.438Y-156.253
X328.438Y-175.953
X330.598Y-112.953
X330.598Y-121.953
X330.598Y-130.953
X330.598Y-139.953
X330.598Y-148.953
X330.598Y-156.253
X330.598Y-175.953
X332.758Y-112.953
X332.758Y-121.953
X332.758Y-130.953
X332.758Y-139.953
X332.758Y-148.953
X332.758Y-156.253
X332.758Y-175.953
X334.918Y-112.953
X334.918Y-121.953
X334.918Y-130.953
X334.918Y-139.953
X334.918Y-148.953
X334.918Y-156.253
X334.918Y-175.953
X335.9Y-159.075
X337.078Y-112.953
X337.078Y-121.953
X337.078Y-130.953
X337.078Y-139.953
X337.078Y-148.953
X337.078Y-157.953
X337.078Y-166.953
X337.078Y-175.953
X339.238Y-112.953
X339.238Y-121.953
X339.238Y-130.953
X339.238Y-139.953
X339.238Y-148.953
X339.238Y-157.953
X339.238Y-166.953
X339.238Y-175.953
X341.398Y-112.953
X341.398Y-121.953
X341.398Y-130.953
X341.398Y-139.953
X341.398Y-148.953
X341.398Y-157.953
X341.398Y-166.953
X341.398Y-175.953
X343.558Y-112.953
X343.558Y-121.953
X343.558Y-130.953
X343.558Y-139.953
X343.558Y-148.953
X343.558Y-157.953
X343.558Y-166.953
X343.558Y-175.953
X345.718Y-112.953
X345.718Y-121.953
X345.718Y-130.953
X345.718Y-139.953
X345.718Y-148.953
X345.718Y-157.953
X345.718Y-166.953
X345.718Y-175.953
X347.878Y-112.953
X347.878Y-121.953
X347.878Y-130.953
X347.878Y-139.953
X347.878Y-148.953
X347.878Y-157.953
X347.878Y-166.953
X347.878Y-175.953
X350.038Y-112.953
X350.038Y-121.953
X350.038Y-130.953
X350.038Y-139.953
X350.038Y-148.953
X350.038Y-157.953
X350.038Y-166.953
X350.038Y-175.953
X352.198Y-112.953
X352.198Y-121.953
X352.198Y-130.953
X352.198Y-139.953
X352.198Y-148.953
X352.198Y-157.953
X352.198Y-166.953
X352.198Y-175.953
X354.358Y-112.953
X354.358Y-121.953
X354.358Y-130.953
X354.358Y-139.953
X354.358Y-148.953
X354.358Y-157.953
X354.358Y-166.953
X354.358Y-175.953
X356.518Y-112.953
X356.518Y-121.953
X356.518Y-130.953
X356.518Y-139.953
X356.518Y-148.953
X356.518Y-157.953
X356.518Y-166.953
X356.518Y-175.953
X358.678Y-112.953
X358.678Y-121.953
X358.678Y-130.953
X358.678Y-139.953
X358.678Y-148.953
X358.678Y-157.953
X358.678Y-166.953
X358.678Y-175.953
X360.838Y-112.953
X360.838Y-121.953
X360.838Y-130.953
X360.838Y-139.953
X360.838Y-148.953
X360.838Y-157.953
X360.838Y-166.953
X360.838Y-175.953
X362.998Y-112.953
X362.998Y-121.953
X362.998Y-130.953
X362.998Y-139.953
X362.998Y-148.953
X362.998Y-157.953
X362.998Y-166.953
X362.998Y-175.953
X365.158Y-112.953
X365.158Y-121.953
X365.158Y-130.953
X365.158Y-139.953
X365.158Y-148.953
X365.158Y-157.953
X365.158Y-166.953
X365.158Y-175.953
X367.318Y-112.953
X367.318Y-121.953
X367.318Y-130.953
X367.318Y-139.953
X367.318Y-148.953
X367.318Y-157.953
X367.318Y-166.953
X367.318Y-175.953
X369.478Y-112.953
X369.478Y-121.953
X369.478Y-130.953
X369.478Y-139.953
X369.478Y-148.953
X369.478Y-157.953
X369.478Y-166.953
X369.478Y-175.953
X371.638Y-112.953
X371.638Y-121.953
X371.638Y-130.953
X371.638Y-139.953
X371.638Y-148.953
X371.638Y-157.953
X371.638Y-166.953
X371.638Y-175.953
X373.798Y-112.953
X373.798Y-122.126
X373.798Y-130.953
X373.798Y-140.126
X373.798Y-148.953
X373.798Y-158.126
X373.798Y-166.953
X373.798Y-176.126
X375.958Y-112.953
X375.958Y-130.953
X375.958Y-148.953
X375.958Y-166.953
X378.3Y-154.0
X379.519Y-161.038
X379.55Y-164.75
X380.437Y-161.059
X380.7Y-122.85
X380.7Y-128.85
X380.7Y-134.85
X380.7Y-142.35
X381.24Y-143.87
X381.525Y-139.852
X381.55Y-125.15
X381.55Y-131.15
X381.55Y-137.15
X383.5Y-123.85
X383.5Y-129.85
X383.5Y-135.85
X383.5Y-141.35
X384.2Y-160.2
X384.75Y-125.15
X384.75Y-131.15
X384.75Y-137.15
X384.75Y-143.15
X384.779Y-139.852
X384.95Y-162.26
X385.7Y-160.9
X386.2Y-156.786
X386.51Y-163.76
X386.51Y-165.9
X386.68Y-159.808
X387.161Y-162.134
X388.0Y-123.35
X388.0Y-129.35
X388.0Y-135.35
X388.0Y-141.85
X388.55Y-157.35
X388.85Y-140.75
X389.25Y-125.15
X389.25Y-131.15
X389.25Y-137.15
X389.89Y-161.175
X390.92Y-124.35
X390.92Y-130.35
X390.92Y-136.35
X390.92Y-140.85
X392.17Y-125.15
X392.17Y-131.15
X392.17Y-137.15
X393.18Y-143.15
T0
M30
