%TF.GenerationSoftware,KiCad,Pcbnew,7.0.8*%
%TF.CreationDate,2026-09-29T15:25:07-05:00*%
%TF.ProjectId,vuulgaris-faceplate,7675756c-6761-4726-9973-2d6661636570,0*%
%TF.SameCoordinates,Original*%
%TF.FileFunction,Profile,NP*%
%FSLAX46Y46*%
G04 Gerber Fmt 4.6, Leading zero omitted, Abs format (unit mm)*
G04 Created by KiCad (PCBNEW 7.0.8) date 2026-09-29 15:25:07*
%MOMM*%
%LPD*%
G01*
G04 APERTURE LIST*
%TA.AperFunction,Profile*%
%ADD10C,0.100000*%
%TD*%
G04 APERTURE END LIST*
D10*
X222893000Y-73225000D02*
G75*
G03*
X222893000Y-73225000I-3750000J0D01*
G01*
X129893000Y-73395000D02*
G75*
G03*
X129893000Y-73395000I-4750000J0D01*
G01*
X100000000Y-181810000D02*
G75*
G03*
X106000000Y-187810000I6000000J0D01*
G01*
X367592857Y-99048499D02*
X309502515Y-99048499D01*
X390985714Y-184810000D02*
G75*
G03*
X390985714Y-184810000I-1700000J0D01*
G01*
X308502515Y-98048499D02*
X308502515Y-66148500D01*
X144921000Y-143953000D02*
G75*
G03*
X144921000Y-143953000I-3600000J0D01*
G01*
X129420999Y-143953000D02*
G75*
G03*
X129420999Y-143953000I-3599999J0D01*
G01*
X129420999Y-156653000D02*
G75*
G03*
X129420999Y-156653000I-3599999J0D01*
G01*
X195893000Y-73395000D02*
G75*
G03*
X195893000Y-73395000I-4750000J0D01*
G01*
X195893000Y-89851000D02*
G75*
G03*
X195893000Y-89851000I-4750000J0D01*
G01*
X266893000Y-73225000D02*
G75*
G03*
X266893000Y-73225000I-3750000J0D01*
G01*
X144921000Y-169353000D02*
G75*
G03*
X144921000Y-169353000I-3600000J0D01*
G01*
X110700000Y-53000000D02*
G75*
G03*
X110700000Y-53000000I-1700000J0D01*
G01*
X173893000Y-89851000D02*
G75*
G03*
X173893000Y-89851000I-4750000J0D01*
G01*
X368592857Y-66148500D02*
X368592857Y-98048499D01*
X129893000Y-89851000D02*
G75*
G03*
X129893000Y-89851000I-4750000J0D01*
G01*
X283443000Y-89631000D02*
G75*
G03*
X283443000Y-89631000I-2800000J0D01*
G01*
X144921000Y-156653000D02*
G75*
G03*
X144921000Y-156653000I-3600000J0D01*
G01*
X244893000Y-73225000D02*
G75*
G03*
X244893000Y-73225000I-3750000J0D01*
G01*
X308502501Y-98048499D02*
G75*
G03*
X309502515Y-99048499I999999J-1D01*
G01*
X367592857Y-99048457D02*
G75*
G03*
X368592857Y-98048499I43J999957D01*
G01*
X151893000Y-89851000D02*
G75*
G03*
X151893000Y-89851000I-4750000J0D01*
G01*
X368592900Y-66148500D02*
G75*
G03*
X367592857Y-65148500I-1000000J0D01*
G01*
X296443000Y-89631000D02*
G75*
G03*
X296443000Y-89631000I-2800000J0D01*
G01*
X309502515Y-65148515D02*
G75*
G03*
X308502515Y-66148500I-15J-999985D01*
G01*
X100000000Y-181810000D02*
X100000000Y-56000000D01*
X398285700Y-56000000D02*
G75*
G03*
X392285714Y-50000000I-6000000J0D01*
G01*
X390985714Y-53000000D02*
G75*
G03*
X390985714Y-53000000I-1700000J0D01*
G01*
X266893000Y-89681000D02*
G75*
G03*
X266893000Y-89681000I-3750000J0D01*
G01*
X106000000Y-50000000D02*
G75*
G03*
X100000000Y-56000000I0J-6000000D01*
G01*
X392285714Y-187810000D02*
X106000000Y-187810000D01*
X398285714Y-56000000D02*
X398285714Y-181810000D01*
X173893000Y-73395000D02*
G75*
G03*
X173893000Y-73395000I-4750000J0D01*
G01*
X151893000Y-73395000D02*
G75*
G03*
X151893000Y-73395000I-4750000J0D01*
G01*
X129420999Y-169353000D02*
G75*
G03*
X129420999Y-169353000I-3599999J0D01*
G01*
X106000000Y-50000000D02*
X392285714Y-50000000D01*
X222893000Y-89681000D02*
G75*
G03*
X222893000Y-89681000I-3750000J0D01*
G01*
X309502515Y-65148500D02*
X367592857Y-65148500D01*
X138571000Y-125453000D02*
G75*
G03*
X138571000Y-125453000I-5000000J0D01*
G01*
X110700000Y-184810000D02*
G75*
G03*
X110700000Y-184810000I-1700000J0D01*
G01*
X244893000Y-89681000D02*
G75*
G03*
X244893000Y-89681000I-3750000J0D01*
G01*
X392285714Y-187810014D02*
G75*
G03*
X398285714Y-181810000I-14J6000014D01*
G01*
M02*
