%TF.GenerationSoftware,KiCad,Pcbnew,7.0.8*%
%TF.CreationDate,2026-09-29T15:25:07-05:00*%
%TF.ProjectId,vuulgaris-faceplate,7675756c-6761-4726-9973-2d6661636570,0*%
%TF.SameCoordinates,Original*%
%TF.FileFunction,Copper,L3,Inr*%
%TF.FilePolarity,Positive*%
%FSLAX46Y46*%
G04 Gerber Fmt 4.6, Leading zero omitted, Abs format (unit mm)*
G04 Created by KiCad (PCBNEW 7.0.8) date 2026-09-29 15:25:07*
%MOMM*%
%LPD*%
G01*
G04 APERTURE LIST*
%TA.AperFunction,ViaPad*%
%ADD10C,0.600000*%
%TD*%
%TA.AperFunction,ViaPad*%
%ADD11C,0.500000*%
%TD*%
%TA.AperFunction,Conductor*%
%ADD12C,0.150000*%
%TD*%
G04 APERTURE END LIST*
D10*
%TO.N,/GND*%
X335900000Y-159075000D03*
X389250000Y-125150000D03*
X388550000Y-157350000D03*
X389250000Y-131150000D03*
X389890000Y-161175000D03*
X386510000Y-165900000D03*
X381240000Y-143870000D03*
X392170000Y-137150000D03*
X380437020Y-161058640D03*
X384750000Y-143150000D03*
X384750000Y-125150000D03*
X378300000Y-154000000D03*
X381550000Y-125150000D03*
X381550000Y-131150000D03*
X388849999Y-140750000D03*
X381550000Y-137150000D03*
X392170000Y-125150000D03*
X384750000Y-137150000D03*
X384750000Y-131150000D03*
X392170000Y-131150000D03*
X389250000Y-137150000D03*
X386510000Y-163760000D03*
X393180000Y-143150000D03*
%TO.N,/MSP430_RXD*%
X379550000Y-164750500D03*
X384200000Y-160200000D03*
%TO.N,/MSP430_TXD*%
X379518950Y-161038180D03*
X385700000Y-160900000D03*
%TO.N,/MSP_RST*%
X386680400Y-159807599D03*
X384950000Y-162259500D03*
%TO.N,/MSP_TEST*%
X387161100Y-162134400D03*
X386200000Y-156785800D03*
D11*
%TO.N,/PAD1_RX0*%
X177237857Y-112953499D03*
X192357857Y-112953499D03*
X198837857Y-112953499D03*
X343557857Y-112953499D03*
X209637857Y-112953499D03*
X188037857Y-112953499D03*
X350037857Y-112953499D03*
X354357857Y-112953499D03*
X194517857Y-112953499D03*
X332757857Y-112953499D03*
X380700000Y-122850000D03*
X190197857Y-112953499D03*
X200997857Y-112953499D03*
X358677857Y-112953499D03*
X367317857Y-112953499D03*
X211797857Y-112780868D03*
X360837857Y-112953499D03*
X207477857Y-112953499D03*
X352197857Y-112953499D03*
X164277857Y-112953499D03*
X168597857Y-112953499D03*
X328437857Y-112953499D03*
X347877857Y-112953499D03*
X181557857Y-112953499D03*
X356517857Y-112953499D03*
X172917857Y-112953499D03*
X339237857Y-112953499D03*
X166437857Y-112953499D03*
X179397857Y-112953499D03*
X330597857Y-112953499D03*
X334917857Y-112953499D03*
X365157857Y-112953499D03*
X375957857Y-112953499D03*
X369477857Y-112953499D03*
X341397857Y-112953499D03*
X196677857Y-112953499D03*
X203157857Y-112953499D03*
X175077857Y-112953499D03*
X362997857Y-112953499D03*
X185877857Y-112953499D03*
X205317857Y-112953499D03*
X371637857Y-112953499D03*
X326277857Y-112780868D03*
X337077857Y-112953499D03*
X345717857Y-112953499D03*
X170757857Y-112953499D03*
X162117857Y-112953499D03*
X183717857Y-112953499D03*
X373797857Y-112953499D03*
%TO.N,/PAD1_RX1*%
X196677857Y-121953499D03*
X207477857Y-121953499D03*
X183717857Y-121953499D03*
X235557857Y-121953499D03*
X175077857Y-121953499D03*
X198837857Y-121953499D03*
X181557857Y-121953499D03*
X192357857Y-121953499D03*
X170757857Y-121953499D03*
X177237857Y-121953499D03*
X263637857Y-121953499D03*
X222597857Y-121953499D03*
X213957857Y-121953499D03*
X254997857Y-121953499D03*
X224757857Y-121953499D03*
X179397857Y-121953499D03*
X190197857Y-121953499D03*
X205317857Y-121953499D03*
X233397857Y-121953499D03*
X226917857Y-121953499D03*
X252837857Y-121953499D03*
X229077857Y-121953499D03*
X203157857Y-121953499D03*
X194517857Y-121953499D03*
X246357857Y-121953499D03*
X172917857Y-121953499D03*
X216117857Y-121953499D03*
X164277857Y-122126131D03*
X237717857Y-121953499D03*
X244197857Y-121953499D03*
X261477857Y-121953499D03*
X209637857Y-121953499D03*
X166437857Y-121953499D03*
X383500000Y-123850000D03*
X231237857Y-121953499D03*
X185877857Y-121953499D03*
X257157857Y-121953499D03*
X220437857Y-121953499D03*
X239877857Y-121953499D03*
X168597857Y-121953499D03*
X218277857Y-121953499D03*
X200997857Y-121953499D03*
X248517857Y-121953499D03*
X265797857Y-122126131D03*
X259317857Y-121953499D03*
X211797857Y-121953499D03*
X188037857Y-121953499D03*
X250677857Y-121953499D03*
X242037857Y-121953499D03*
%TO.N,/PAD1_RX2*%
X250677857Y-112953499D03*
X291717857Y-112953499D03*
X237717857Y-112953499D03*
X285237857Y-112953499D03*
X265797857Y-112953499D03*
X302517857Y-112953499D03*
X296037857Y-112953499D03*
X248517857Y-112953499D03*
X311157857Y-112953499D03*
X278757857Y-112953499D03*
X263637857Y-112953499D03*
X300357857Y-112953499D03*
X218277857Y-112780868D03*
X289557857Y-112953499D03*
X280917857Y-112953499D03*
X308997857Y-112953499D03*
X235557857Y-112953499D03*
X293877857Y-112953499D03*
X388000000Y-123350000D03*
X261477857Y-112953499D03*
X244197857Y-112953499D03*
X222597857Y-112953499D03*
X298197857Y-112953499D03*
X229077857Y-112953499D03*
X242037857Y-112953499D03*
X287397857Y-112953499D03*
X226917857Y-112953499D03*
X306837857Y-112953499D03*
X270117857Y-112953499D03*
X220437857Y-112953499D03*
X274437857Y-112953499D03*
X276597857Y-112953499D03*
X315477857Y-112953499D03*
X272277857Y-112953499D03*
X283077857Y-112953499D03*
X313317857Y-112953499D03*
X317637857Y-112953499D03*
X231237857Y-112953499D03*
X233397857Y-112953499D03*
X252837857Y-112953499D03*
X259317857Y-112953499D03*
X239877857Y-112953499D03*
X304677857Y-112953499D03*
X246357857Y-112953499D03*
X257157857Y-112953499D03*
X319797857Y-112780868D03*
X267957857Y-112953499D03*
X224757857Y-112953499D03*
X254997857Y-112953499D03*
%TO.N,/PAD1_RX3*%
X330597857Y-121953499D03*
X291717857Y-121953499D03*
X332757857Y-121953499D03*
X313317857Y-121953499D03*
X343557857Y-121953499D03*
X369477857Y-121953499D03*
X317637857Y-121953499D03*
X358677857Y-121953499D03*
X276597857Y-121953499D03*
X319797857Y-121953499D03*
X283077857Y-121953499D03*
X339237857Y-121953499D03*
X287397857Y-121953499D03*
X337077857Y-121953499D03*
X341397857Y-121953499D03*
X296037857Y-121953499D03*
X272277857Y-122126131D03*
X274437857Y-121953499D03*
X298197857Y-121953499D03*
X324117857Y-121953499D03*
X367317857Y-121953499D03*
X362997857Y-121953499D03*
X321957857Y-121953499D03*
X354357857Y-121953499D03*
X280917857Y-121953499D03*
X350037857Y-121953499D03*
X390920000Y-124350000D03*
X334917857Y-121953499D03*
X304677857Y-121953499D03*
X326277857Y-121953499D03*
X371637857Y-121953499D03*
X365157857Y-121953499D03*
X360837857Y-121953499D03*
X278757857Y-121953499D03*
X289557857Y-121953499D03*
X308997857Y-121953499D03*
X328437857Y-121953499D03*
X347877857Y-121953499D03*
X373797857Y-122126131D03*
X285237857Y-121953499D03*
X293877857Y-121953499D03*
X302517857Y-121953499D03*
X300357857Y-121953499D03*
X306837857Y-121953499D03*
X356517857Y-121953499D03*
X311157857Y-121953499D03*
X315477857Y-121953499D03*
X345717857Y-121953499D03*
X352197857Y-121953499D03*
%TO.N,/PAD2_RX0*%
X172917857Y-130953499D03*
X371637857Y-130953499D03*
X373797857Y-130953499D03*
X170757857Y-130953499D03*
X375957857Y-130953499D03*
X175077857Y-130953499D03*
X334917857Y-130953499D03*
X207477857Y-130953499D03*
X188037857Y-130953499D03*
X352197857Y-130953499D03*
X330597857Y-130953499D03*
X345717857Y-130953499D03*
X328437857Y-130953499D03*
X179397857Y-130953499D03*
X337077857Y-130953499D03*
X358677857Y-130953499D03*
X168597857Y-130953499D03*
X164277857Y-130953499D03*
X203157857Y-130953499D03*
X185877857Y-130953499D03*
X190197857Y-130953499D03*
X341397857Y-130953499D03*
X367317857Y-130953499D03*
X354357857Y-130953499D03*
X347877857Y-130953499D03*
X362997857Y-130953499D03*
X211797857Y-130780868D03*
X192357857Y-130953499D03*
X166437857Y-130953499D03*
X343557857Y-130953499D03*
X205317857Y-130953499D03*
X200997857Y-130953499D03*
X162117857Y-130953499D03*
X198837857Y-130953499D03*
X194517857Y-130953499D03*
X350037857Y-130953499D03*
X365157857Y-130953499D03*
X181557857Y-130953499D03*
X209637857Y-130953499D03*
X360837857Y-130953499D03*
X332757857Y-130953499D03*
X356517857Y-130953499D03*
X183717857Y-130953499D03*
X326277857Y-130780868D03*
X196677857Y-130953499D03*
X177237857Y-130953499D03*
X369477857Y-130953499D03*
X339237857Y-130953499D03*
X380700000Y-128850000D03*
%TO.N,/PAD2_RX1*%
X244197857Y-139953500D03*
X172917857Y-139953500D03*
X192357857Y-139953500D03*
X198837857Y-139953500D03*
X261477857Y-139953500D03*
X254997857Y-139953500D03*
X194517857Y-139953500D03*
X188037857Y-139953500D03*
X224757857Y-139953500D03*
X183717857Y-139953500D03*
X250677857Y-139953500D03*
X257157857Y-139953500D03*
X259317857Y-139953500D03*
X220437857Y-139953500D03*
X207477857Y-139953500D03*
X211797857Y-139953500D03*
X213957857Y-139953500D03*
X205317857Y-139953500D03*
X218277857Y-139953500D03*
X175077857Y-139953500D03*
X177237857Y-139953500D03*
X209637857Y-139953500D03*
X383500000Y-129850000D03*
X170757857Y-139953500D03*
X181557857Y-139953500D03*
X237717857Y-139953500D03*
X185877857Y-139953500D03*
X231237857Y-139953500D03*
X166437857Y-139953500D03*
X216117857Y-139953500D03*
X233397857Y-139953500D03*
X229077857Y-139953500D03*
X190197857Y-139953500D03*
X179397857Y-139953500D03*
X222597857Y-139953500D03*
X252837857Y-139953500D03*
X164277857Y-140126131D03*
X203157857Y-139953500D03*
X263637857Y-139953500D03*
X265797857Y-140126131D03*
X226917857Y-139953500D03*
X196677857Y-139953500D03*
X200997857Y-139953500D03*
X248517857Y-139953500D03*
X168597857Y-139953500D03*
X235557857Y-139953500D03*
X239877857Y-139953500D03*
X242037857Y-139953500D03*
X246357857Y-139953500D03*
%TO.N,/PAD2_RX2*%
X315477857Y-130953499D03*
X289557857Y-130953499D03*
X296037857Y-130953499D03*
X242037857Y-130953499D03*
X283077857Y-130953499D03*
X244197857Y-130953499D03*
X388000000Y-129350000D03*
X311157857Y-130953499D03*
X267957857Y-130953499D03*
X265797857Y-130953499D03*
X304677857Y-130953499D03*
X319797857Y-130780868D03*
X285237857Y-130953499D03*
X291717857Y-130953499D03*
X300357857Y-130953499D03*
X280917857Y-130953499D03*
X252837857Y-130953499D03*
X270117857Y-130953499D03*
X306837857Y-130953499D03*
X259317857Y-130953499D03*
X235557857Y-130953499D03*
X274437857Y-130953499D03*
X246357857Y-130953499D03*
X276597857Y-130953499D03*
X220437857Y-130953499D03*
X302517857Y-130953499D03*
X218277857Y-130780868D03*
X222597857Y-130953499D03*
X278757857Y-130953499D03*
X250677857Y-130953499D03*
X287397857Y-130953499D03*
X239877857Y-130953499D03*
X293877857Y-130953499D03*
X298197857Y-130953499D03*
X317637857Y-130953499D03*
X263637857Y-130953499D03*
X261477857Y-130953499D03*
X308997857Y-130953499D03*
X224757857Y-130953499D03*
X257157857Y-130953499D03*
X237717857Y-130953499D03*
X231237857Y-130953499D03*
X248517857Y-130953499D03*
X233397857Y-130953499D03*
X229077857Y-130953499D03*
X313317857Y-130953499D03*
X272277857Y-130953499D03*
X254997857Y-130953499D03*
X226917857Y-130953499D03*
%TO.N,/PAD2_RX3*%
X283077857Y-139953500D03*
X326277857Y-139953500D03*
X345717857Y-139953500D03*
X369477857Y-139953500D03*
X289557857Y-139953500D03*
X321957857Y-139953500D03*
X337077857Y-139953500D03*
X287397857Y-139953500D03*
X313317857Y-139953500D03*
X365157857Y-139953500D03*
X311157857Y-139953500D03*
X291717857Y-139953500D03*
X296037857Y-139953500D03*
X278757857Y-139953500D03*
X317637857Y-139953500D03*
X304677857Y-139953500D03*
X306837857Y-139953500D03*
X280917857Y-139953500D03*
X352197857Y-139953500D03*
X360837857Y-139953500D03*
X330597857Y-139953500D03*
X300357857Y-139953500D03*
X302517857Y-139953500D03*
X274437857Y-139953500D03*
X328437857Y-139953500D03*
X356517857Y-139953500D03*
X315477857Y-139953500D03*
X272277857Y-140126131D03*
X285237857Y-139953500D03*
X276597857Y-139953500D03*
X343557857Y-139953500D03*
X358677857Y-139953500D03*
X354357857Y-139953500D03*
X308997857Y-139953500D03*
X298197857Y-139953500D03*
X367317857Y-139953500D03*
X341397857Y-139953500D03*
X373797857Y-140126131D03*
X390920000Y-130350000D03*
X332757857Y-139953500D03*
X347877857Y-139953500D03*
X334917857Y-139953500D03*
X324117857Y-139953500D03*
X371637857Y-139953500D03*
X339237857Y-139953500D03*
X350037857Y-139953500D03*
X319797857Y-139953500D03*
X362997857Y-139953500D03*
X293877857Y-139953500D03*
%TO.N,/PAD3_RX0*%
X205317857Y-148953500D03*
X356517857Y-148953500D03*
X369477857Y-148953500D03*
X179397857Y-148953500D03*
X337077857Y-148953500D03*
X375957857Y-148953500D03*
X358677857Y-148953500D03*
X177237857Y-148953500D03*
X183717857Y-148953500D03*
X198837857Y-148953500D03*
X211797857Y-148780868D03*
X196677857Y-148953500D03*
X371637857Y-148953500D03*
X172917857Y-148953500D03*
X380700000Y-134850000D03*
X203157857Y-148953500D03*
X332757857Y-148953500D03*
X343557857Y-148953500D03*
X162117857Y-148953500D03*
X170757857Y-148953500D03*
X166437857Y-148953500D03*
X328437857Y-148953500D03*
X209637857Y-148953500D03*
X326277857Y-148780868D03*
X350037857Y-148953500D03*
X365157857Y-148953500D03*
X367317857Y-148953500D03*
X339237857Y-148953500D03*
X200997857Y-148953500D03*
X194517857Y-148953500D03*
X207477857Y-148953500D03*
X188037857Y-148953500D03*
X334917857Y-148953500D03*
X362997857Y-148953500D03*
X181557857Y-148953500D03*
X168597857Y-148953500D03*
X330597857Y-148953500D03*
X352197857Y-148953500D03*
X345717857Y-148953500D03*
X185877857Y-148953500D03*
X354357857Y-148953500D03*
X373797857Y-148953500D03*
X347877857Y-148953500D03*
X190197857Y-148953500D03*
X175077857Y-148953500D03*
X360837857Y-148953500D03*
X192357857Y-148953500D03*
X341397857Y-148953500D03*
X164277857Y-148953500D03*
%TO.N,/PAD3_RX1*%
X239877857Y-157953500D03*
X383500000Y-135850000D03*
X175077857Y-157953500D03*
X244197857Y-157953500D03*
X190197857Y-157953500D03*
X233397857Y-157953500D03*
X242037857Y-157953500D03*
X177237857Y-157953500D03*
X265797857Y-158126131D03*
X222597857Y-157953500D03*
X166437857Y-157953500D03*
X183717857Y-157953500D03*
X237717857Y-157953500D03*
X181557857Y-157953500D03*
X207477857Y-157953500D03*
X261477857Y-157953500D03*
X172917857Y-157953500D03*
X220437857Y-157953500D03*
X168597857Y-157953500D03*
X192357857Y-157953500D03*
X246357857Y-157953500D03*
X179397857Y-157953500D03*
X226917857Y-157953500D03*
X211797857Y-157953500D03*
X203157857Y-157953500D03*
X196677857Y-157953500D03*
X164277857Y-158126131D03*
X194517857Y-157953500D03*
X250677857Y-157953500D03*
X257157857Y-157953500D03*
X185877857Y-157953500D03*
X209637857Y-157953500D03*
X188037857Y-157953500D03*
X200997857Y-157953500D03*
X235557857Y-157953500D03*
X252837857Y-157953500D03*
X198837857Y-157953500D03*
X205317857Y-157953500D03*
X259317857Y-157953500D03*
X231237857Y-157953500D03*
X213957857Y-157953500D03*
X263637857Y-157953500D03*
X216117857Y-157953500D03*
X248517857Y-157953500D03*
X170757857Y-157953500D03*
X224757857Y-157953500D03*
X254997857Y-157953500D03*
X229077857Y-157953500D03*
X218277857Y-157953500D03*
%TO.N,/PAD3_RX2*%
X231237857Y-148953500D03*
X259317857Y-148953500D03*
X252837857Y-148953500D03*
X285237857Y-148953500D03*
X246357857Y-148953500D03*
X233397857Y-148953500D03*
X226917857Y-148953500D03*
X272277857Y-148953500D03*
X311157857Y-148953500D03*
X296037857Y-148953500D03*
X235557857Y-148953500D03*
X229077857Y-148953500D03*
X248517857Y-148953500D03*
X270117857Y-148953500D03*
X250677857Y-148953500D03*
X298197857Y-148953500D03*
X222597857Y-148953500D03*
X308997857Y-148953500D03*
X278757857Y-148953500D03*
X220437857Y-148953500D03*
X304677857Y-148953500D03*
X319797857Y-148780868D03*
X276597857Y-148953500D03*
X293877857Y-148953500D03*
X261477857Y-148953500D03*
X306837857Y-148953500D03*
X283077857Y-148953500D03*
X388000000Y-135350000D03*
X300357857Y-148953500D03*
X280917857Y-148953500D03*
X257157857Y-148953500D03*
X315477857Y-148953500D03*
X267957857Y-148953500D03*
X239877857Y-148953500D03*
X218277857Y-148780868D03*
X242037857Y-148953500D03*
X289557857Y-148953500D03*
X302517857Y-148953500D03*
X317637857Y-148953500D03*
X224757857Y-148953500D03*
X263637857Y-148953500D03*
X244197857Y-148953500D03*
X274437857Y-148953500D03*
X265797857Y-148953500D03*
X313317857Y-148953500D03*
X237717857Y-148953500D03*
X254997857Y-148953500D03*
X291717857Y-148953500D03*
X287397857Y-148953500D03*
%TO.N,/PAD3_RX3*%
X347877857Y-157953500D03*
X302517857Y-157953500D03*
X367317857Y-157953500D03*
X352197857Y-157953500D03*
X369477857Y-157953500D03*
X345717857Y-157953500D03*
X358677857Y-157953500D03*
X308997857Y-157953500D03*
X334917857Y-156253499D03*
X356517857Y-157953500D03*
X319797857Y-157953500D03*
X324117857Y-156253499D03*
X321957857Y-157953500D03*
X354357857Y-157953500D03*
X373797857Y-158126131D03*
X390920000Y-136350000D03*
X296037857Y-157953500D03*
X365157857Y-157953500D03*
X315477857Y-157953500D03*
X313317857Y-157953500D03*
X272277857Y-158126131D03*
X280917857Y-157953500D03*
X278757857Y-157953500D03*
X326277857Y-156253499D03*
X362997857Y-157953500D03*
X283077857Y-157953500D03*
X289557857Y-157953500D03*
X274437857Y-157953500D03*
X285237857Y-157953500D03*
X343557857Y-157953500D03*
X371637857Y-157953500D03*
X337077857Y-157953500D03*
X332757857Y-156253499D03*
X291717857Y-157953500D03*
X276597857Y-157953500D03*
X298197857Y-157953500D03*
X360837857Y-157953500D03*
X300357857Y-157953500D03*
X311157857Y-157953500D03*
X304677857Y-157953500D03*
X339237857Y-157953500D03*
X350037857Y-157953500D03*
X330597857Y-156253499D03*
X287397857Y-157953500D03*
X293877857Y-157953500D03*
X317637857Y-157953500D03*
X328437857Y-156253499D03*
X341397857Y-157953500D03*
X306837857Y-157953500D03*
%TO.N,/PAD4_RX0*%
X337077857Y-166953500D03*
X172917857Y-166953500D03*
X190197857Y-166953500D03*
X196677857Y-166953500D03*
X170757857Y-166953500D03*
X345717857Y-166953500D03*
X177237857Y-166953500D03*
X362997857Y-166953500D03*
X369477857Y-166953500D03*
X339237857Y-166953500D03*
X164277857Y-166953500D03*
X380700000Y-142350000D03*
X188037857Y-166953500D03*
X166437857Y-166953500D03*
X207477857Y-166953500D03*
X205317857Y-166953500D03*
X360837857Y-166953500D03*
X367317857Y-166953500D03*
X203157857Y-166953500D03*
X352197857Y-166953500D03*
X371637857Y-166953500D03*
X211797857Y-166780868D03*
X354357857Y-166953500D03*
X343557857Y-166953500D03*
X358677857Y-166953500D03*
X168597857Y-166953500D03*
X192357857Y-166953500D03*
X194517857Y-166953500D03*
X181557857Y-166953500D03*
X198837857Y-166953500D03*
X162117857Y-166953500D03*
X341397857Y-166953500D03*
X356517857Y-166953500D03*
X183717857Y-166953500D03*
X200997857Y-166953500D03*
X365157857Y-166953500D03*
X209637857Y-166953500D03*
X375957857Y-166953500D03*
X179397857Y-166953500D03*
X373797857Y-166953500D03*
X347877857Y-166953500D03*
X350037857Y-166953500D03*
X175077857Y-166953500D03*
X185877857Y-166953500D03*
%TO.N,/PAD4_RX1*%
X198837857Y-175953500D03*
X259317857Y-175953500D03*
X248517857Y-175953500D03*
X200997857Y-175953500D03*
X190197857Y-175953500D03*
X237717857Y-175953500D03*
X188037857Y-175953500D03*
X224757857Y-175953500D03*
X216117857Y-175953500D03*
X185877857Y-175953500D03*
X265797857Y-176126131D03*
X222597857Y-175953500D03*
X192357857Y-175953500D03*
X246357857Y-175953500D03*
X235557857Y-175953500D03*
X233397857Y-175953500D03*
X239877857Y-175953500D03*
X194517857Y-175953500D03*
X205317857Y-175953500D03*
X263637857Y-175953500D03*
X242037857Y-175953500D03*
X231237857Y-175953500D03*
X252837857Y-175953500D03*
X257157857Y-175953500D03*
X207477857Y-175953500D03*
X244197857Y-175953500D03*
X196677857Y-175953500D03*
X166437857Y-175953500D03*
X213957857Y-175953500D03*
X172917857Y-175953500D03*
X164277857Y-176126131D03*
X220437857Y-175953500D03*
X261477857Y-175953500D03*
X229077857Y-175953500D03*
X177237857Y-175953500D03*
X175077857Y-175953500D03*
X170757857Y-175953500D03*
X226917857Y-175953500D03*
X211797857Y-175953500D03*
X254997857Y-175953500D03*
X179397857Y-175953500D03*
X168597857Y-175953500D03*
X181557857Y-175953500D03*
X203157857Y-175953500D03*
X183717857Y-175953500D03*
X209637857Y-175953500D03*
X218277857Y-175953500D03*
X250677857Y-175953500D03*
X383500000Y-141350000D03*
%TO.N,/PAD4_RX2*%
X274437857Y-166953500D03*
X267957857Y-166953500D03*
X308997857Y-166953500D03*
X302517857Y-166953500D03*
X220437857Y-166953500D03*
X293877857Y-166953500D03*
X298197857Y-166953500D03*
X319797857Y-166780868D03*
X261477857Y-166953500D03*
X242037857Y-166953500D03*
X317637857Y-166953500D03*
X246357857Y-166953500D03*
X265797857Y-166953500D03*
X231237857Y-166953500D03*
X313317857Y-166953500D03*
X224757857Y-166953500D03*
X222597857Y-166953500D03*
X229077857Y-166953500D03*
X306837857Y-166953500D03*
X244197857Y-166953500D03*
X315477857Y-166953500D03*
X257157857Y-166953500D03*
X272277857Y-166953500D03*
X235557857Y-166953500D03*
X239877857Y-166953500D03*
X278757857Y-166953500D03*
X300357857Y-166953500D03*
X254997857Y-166953500D03*
X252837857Y-166953500D03*
X237717857Y-166953500D03*
X289557857Y-166953500D03*
X259317857Y-166953500D03*
X263637857Y-166953500D03*
X285237857Y-166953500D03*
X276597857Y-166953500D03*
X270117857Y-166953500D03*
X250677857Y-166953500D03*
X287397857Y-166953500D03*
X218277857Y-166780868D03*
X233397857Y-166953500D03*
X291717857Y-166953500D03*
X248517857Y-166953500D03*
X388000000Y-141850000D03*
X283077857Y-166953500D03*
X311157857Y-166953500D03*
X296037857Y-166953500D03*
X304677857Y-166953500D03*
X280917857Y-166953500D03*
X226917857Y-166953500D03*
%TO.N,/PAD4_RX3*%
X321957857Y-175953500D03*
X272277857Y-176126131D03*
X358677857Y-175953500D03*
X324117857Y-175953500D03*
X298197857Y-175953500D03*
X362997857Y-175953500D03*
X293877857Y-175953500D03*
X369477857Y-175953500D03*
X287397857Y-175953500D03*
X354357857Y-175953500D03*
X339237857Y-175953500D03*
X334917857Y-175953500D03*
X347877857Y-175953500D03*
X278757857Y-175953500D03*
X341397857Y-175953500D03*
X283077857Y-175953500D03*
X365157857Y-175953500D03*
X280917857Y-175953500D03*
X328437857Y-175953500D03*
X360837857Y-175953500D03*
X371637857Y-175953500D03*
X350037857Y-175953500D03*
X337077857Y-175953500D03*
X304677857Y-175953500D03*
X317637857Y-175953500D03*
X332757857Y-175953500D03*
X296037857Y-175953500D03*
X343557857Y-175953500D03*
X291717857Y-175953500D03*
X276597857Y-175953500D03*
X315477857Y-175953500D03*
X373797857Y-176126131D03*
X274437857Y-175953500D03*
X313317857Y-175953500D03*
X311157857Y-175953500D03*
X306837857Y-175953500D03*
X326277857Y-175953500D03*
X300357857Y-175953500D03*
X302517857Y-175953500D03*
X308997857Y-175953500D03*
X367317857Y-175953500D03*
X356517857Y-175953500D03*
X289557857Y-175953500D03*
X352197857Y-175953500D03*
X319797857Y-175953500D03*
X345717857Y-175953500D03*
X390920000Y-140850000D03*
X285237857Y-175953500D03*
X330597857Y-175953500D03*
%TO.N,/CAP2.0*%
X384778500Y-139852200D03*
X381525000Y-139852200D03*
%TD*%
D12*
%TO.N,/PAD1_RX0*%
X211797857Y-113753500D02*
X326277857Y-113753500D01*
X326277857Y-113753500D02*
X326277857Y-112780868D01*
X211797857Y-112780868D02*
X211797857Y-113753500D01*
%TO.N,/PAD2_RX0*%
X326277857Y-131753499D02*
X326277857Y-130780868D01*
X211797857Y-131753499D02*
X326277857Y-131753499D01*
X211797857Y-130780868D02*
X211797857Y-131753499D01*
%TO.N,/PAD3_RX0*%
X326277857Y-149753499D02*
X326277857Y-148780868D01*
X211797857Y-149753499D02*
X326277857Y-149753499D01*
X211797857Y-148780868D02*
X211797857Y-149753499D01*
%TO.N,/PAD4_RX0*%
X211797857Y-167753499D02*
X337077857Y-167753499D01*
X211797857Y-166780868D02*
X211797857Y-167753499D01*
X337077857Y-167753499D02*
X337077857Y-166953500D01*
%TD*%
%TA.AperFunction,Conductor*%
%TO.N,/GND*%
G36*
X337159191Y-158722407D02*
G01*
X337195155Y-158771907D01*
X337200000Y-158802500D01*
X337200000Y-159303500D01*
X334900000Y-159303500D01*
X334900000Y-158802500D01*
X334918907Y-158744309D01*
X334968407Y-158708345D01*
X334999000Y-158703500D01*
X337101000Y-158703500D01*
X337159191Y-158722407D01*
G37*
%TD.AperFunction*%
%TD*%
%TA.AperFunction,Conductor*%
%TO.N,/GND*%
G36*
X392730948Y-50317995D02*
G01*
X392734824Y-50318300D01*
X392870086Y-50334309D01*
X393175382Y-50370443D01*
X393179208Y-50371049D01*
X393454143Y-50425738D01*
X393614327Y-50457601D01*
X393618088Y-50458503D01*
X394045081Y-50578929D01*
X394048762Y-50580125D01*
X394269301Y-50661486D01*
X394464988Y-50733679D01*
X394468580Y-50735167D01*
X394871459Y-50920898D01*
X394874923Y-50922663D01*
X395261999Y-51139436D01*
X395265287Y-51141450D01*
X395634178Y-51387935D01*
X395637298Y-51390202D01*
X395958381Y-51643324D01*
X395985703Y-51664863D01*
X395988660Y-51667389D01*
X396314431Y-51968529D01*
X396317180Y-51971278D01*
X396618319Y-52297049D01*
X396620838Y-52299998D01*
X396895497Y-52648404D01*
X396897782Y-52651549D01*
X397144250Y-53020415D01*
X397146273Y-53023716D01*
X397363042Y-53410787D01*
X397364807Y-53414251D01*
X397550537Y-53817130D01*
X397552025Y-53820722D01*
X397566365Y-53859591D01*
X397705578Y-54236947D01*
X397706774Y-54240629D01*
X397827194Y-54667605D01*
X397828101Y-54671385D01*
X397914650Y-55106495D01*
X397915258Y-55110335D01*
X397967400Y-55550888D01*
X397967705Y-55554764D01*
X397985214Y-56000351D01*
X397985214Y-181810000D01*
X397967719Y-182255235D01*
X397967414Y-182259111D01*
X397915272Y-182699666D01*
X397914664Y-182703506D01*
X397828113Y-183138621D01*
X397827206Y-183142401D01*
X397706789Y-183569370D01*
X397705588Y-183573068D01*
X397552038Y-183989283D01*
X397550550Y-183992875D01*
X397364820Y-184395755D01*
X397363055Y-184399219D01*
X397146290Y-184786281D01*
X397144259Y-184789596D01*
X396897782Y-185158475D01*
X396895497Y-185161621D01*
X396620855Y-185510002D01*
X396618330Y-185512959D01*
X396317190Y-185838731D01*
X396314441Y-185841480D01*
X395988669Y-186142622D01*
X395985712Y-186145147D01*
X395637329Y-186419791D01*
X395634183Y-186422076D01*
X395265315Y-186668547D01*
X395262000Y-186670578D01*
X394874931Y-186887349D01*
X394871466Y-186889114D01*
X394468586Y-187074845D01*
X394464994Y-187076333D01*
X394048780Y-187229884D01*
X394045082Y-187231085D01*
X393618111Y-187351504D01*
X393614330Y-187352411D01*
X393179218Y-187438962D01*
X393175378Y-187439570D01*
X392734825Y-187491713D01*
X392730949Y-187492018D01*
X392286069Y-187509500D01*
X377741857Y-187509500D01*
X377683666Y-187490593D01*
X377647702Y-187441093D01*
X377642857Y-187410500D01*
X377642857Y-184810000D01*
X387280104Y-184810000D01*
X387300517Y-185095422D01*
X387300517Y-185095425D01*
X387300518Y-185095428D01*
X387315526Y-185164417D01*
X387361346Y-185375050D01*
X387461347Y-185643162D01*
X387461348Y-185643164D01*
X387598485Y-185894310D01*
X387598488Y-185894315D01*
X387769975Y-186123395D01*
X387972319Y-186325739D01*
X388201399Y-186497226D01*
X388452553Y-186634367D01*
X388720668Y-186734369D01*
X389000286Y-186795196D01*
X389285714Y-186815610D01*
X389571142Y-186795196D01*
X389850760Y-186734369D01*
X390118875Y-186634367D01*
X390370029Y-186497226D01*
X390599109Y-186325739D01*
X390801453Y-186123395D01*
X390972940Y-185894315D01*
X391110081Y-185643161D01*
X391210083Y-185375046D01*
X391270910Y-185095428D01*
X391291324Y-184810000D01*
X391270910Y-184524572D01*
X391210083Y-184244954D01*
X391110081Y-183976839D01*
X390972940Y-183725685D01*
X390801453Y-183496605D01*
X390599109Y-183294261D01*
X390370029Y-183122774D01*
X390370024Y-183122771D01*
X390118878Y-182985634D01*
X390118876Y-182985633D01*
X389850764Y-182885632D01*
X389850760Y-182885631D01*
X389571142Y-182824804D01*
X389571139Y-182824803D01*
X389571136Y-182824803D01*
X389285714Y-182804390D01*
X389000291Y-182824803D01*
X388720663Y-182885632D01*
X388452551Y-182985633D01*
X388452549Y-182985634D01*
X388201403Y-183122771D01*
X387972323Y-183294257D01*
X387769971Y-183496609D01*
X387598485Y-183725689D01*
X387461348Y-183976835D01*
X387461347Y-183976837D01*
X387361346Y-184244949D01*
X387300517Y-184524577D01*
X387280104Y-184810000D01*
X377642857Y-184810000D01*
X377642857Y-165703501D01*
X377642857Y-164750502D01*
X379044353Y-164750502D01*
X379064834Y-164892956D01*
X379124622Y-165023871D01*
X379124623Y-165023873D01*
X379218872Y-165132643D01*
X379218873Y-165132644D01*
X379339942Y-165210450D01*
X379339947Y-165210453D01*
X379446403Y-165241711D01*
X379478035Y-165250999D01*
X379478036Y-165250999D01*
X379478039Y-165251000D01*
X379478041Y-165251000D01*
X379621959Y-165251000D01*
X379621961Y-165251000D01*
X379760053Y-165210453D01*
X379881128Y-165132643D01*
X379975377Y-165023873D01*
X380035165Y-164892957D01*
X380055647Y-164750500D01*
X380035165Y-164608043D01*
X379975377Y-164477127D01*
X379881128Y-164368357D01*
X379881127Y-164368356D01*
X379881126Y-164368355D01*
X379760057Y-164290549D01*
X379760054Y-164290547D01*
X379760053Y-164290547D01*
X379760050Y-164290546D01*
X379621964Y-164250000D01*
X379621961Y-164250000D01*
X379478039Y-164250000D01*
X379478035Y-164250000D01*
X379339949Y-164290546D01*
X379339942Y-164290549D01*
X379218873Y-164368355D01*
X379124622Y-164477128D01*
X379064834Y-164608043D01*
X379044353Y-164750497D01*
X379044353Y-164750502D01*
X377642857Y-164750502D01*
X377642857Y-162259502D01*
X384444353Y-162259502D01*
X384464834Y-162401956D01*
X384467490Y-162407771D01*
X384524623Y-162532873D01*
X384613029Y-162634900D01*
X384618873Y-162641644D01*
X384739942Y-162719450D01*
X384739947Y-162719453D01*
X384846403Y-162750711D01*
X384878035Y-162759999D01*
X384878036Y-162759999D01*
X384878039Y-162760000D01*
X384878041Y-162760000D01*
X385021959Y-162760000D01*
X385021961Y-162760000D01*
X385160053Y-162719453D01*
X385281128Y-162641643D01*
X385375377Y-162532873D01*
X385435165Y-162401957D01*
X385441992Y-162354471D01*
X385455647Y-162259502D01*
X385455647Y-162259497D01*
X385437661Y-162134402D01*
X386655453Y-162134402D01*
X386675934Y-162276856D01*
X386733066Y-162401956D01*
X386735723Y-162407773D01*
X386829972Y-162516543D01*
X386829973Y-162516544D01*
X386855382Y-162532873D01*
X386951047Y-162594353D01*
X387057503Y-162625611D01*
X387089135Y-162634899D01*
X387089136Y-162634899D01*
X387089139Y-162634900D01*
X387089141Y-162634900D01*
X387233059Y-162634900D01*
X387233061Y-162634900D01*
X387371153Y-162594353D01*
X387492228Y-162516543D01*
X387586477Y-162407773D01*
X387646265Y-162276857D01*
X387666747Y-162134400D01*
X387664251Y-162117043D01*
X387646265Y-161991943D01*
X387643609Y-161986127D01*
X387586477Y-161861027D01*
X387492228Y-161752257D01*
X387492227Y-161752256D01*
X387492226Y-161752255D01*
X387371157Y-161674449D01*
X387371154Y-161674447D01*
X387371153Y-161674447D01*
X387371150Y-161674446D01*
X387233064Y-161633900D01*
X387233061Y-161633900D01*
X387089139Y-161633900D01*
X387089135Y-161633900D01*
X386951049Y-161674446D01*
X386951042Y-161674449D01*
X386829973Y-161752255D01*
X386735722Y-161861028D01*
X386675934Y-161991943D01*
X386655453Y-162134397D01*
X386655453Y-162134402D01*
X385437661Y-162134402D01*
X385435165Y-162117043D01*
X385375377Y-161986128D01*
X385375377Y-161986127D01*
X385281128Y-161877357D01*
X385281127Y-161877356D01*
X385281126Y-161877355D01*
X385160057Y-161799549D01*
X385160054Y-161799547D01*
X385160053Y-161799547D01*
X385160050Y-161799546D01*
X385021964Y-161759000D01*
X385021961Y-161759000D01*
X384878039Y-161759000D01*
X384878035Y-161759000D01*
X384739949Y-161799546D01*
X384739942Y-161799549D01*
X384618873Y-161877355D01*
X384524622Y-161986128D01*
X384464834Y-162117043D01*
X384444353Y-162259497D01*
X384444353Y-162259502D01*
X377642857Y-162259502D01*
X377642857Y-161038182D01*
X379013303Y-161038182D01*
X379033784Y-161180636D01*
X379080142Y-161282143D01*
X379093573Y-161311553D01*
X379187822Y-161420323D01*
X379187823Y-161420324D01*
X379308892Y-161498130D01*
X379308897Y-161498133D01*
X379415353Y-161529391D01*
X379446985Y-161538679D01*
X379446986Y-161538679D01*
X379446989Y-161538680D01*
X379446991Y-161538680D01*
X379590909Y-161538680D01*
X379590911Y-161538680D01*
X379729003Y-161498133D01*
X379850078Y-161420323D01*
X379944327Y-161311553D01*
X380004115Y-161180637D01*
X380024597Y-161038180D01*
X380004730Y-160900002D01*
X385194353Y-160900002D01*
X385214834Y-161042456D01*
X385274622Y-161173371D01*
X385274623Y-161173373D01*
X385368872Y-161282143D01*
X385368873Y-161282144D01*
X385489942Y-161359950D01*
X385489947Y-161359953D01*
X385596403Y-161391211D01*
X385628035Y-161400499D01*
X385628036Y-161400499D01*
X385628039Y-161400500D01*
X385628041Y-161400500D01*
X385771959Y-161400500D01*
X385771961Y-161400500D01*
X385910053Y-161359953D01*
X386031128Y-161282143D01*
X386125377Y-161173373D01*
X386185165Y-161042457D01*
X386205647Y-160900000D01*
X386185165Y-160757543D01*
X386125377Y-160626627D01*
X386031128Y-160517857D01*
X386031127Y-160517856D01*
X386031126Y-160517855D01*
X385910057Y-160440049D01*
X385910054Y-160440047D01*
X385910053Y-160440047D01*
X385910050Y-160440046D01*
X385771964Y-160399500D01*
X385771961Y-160399500D01*
X385628039Y-160399500D01*
X385628035Y-160399500D01*
X385489949Y-160440046D01*
X385489942Y-160440049D01*
X385368873Y-160517855D01*
X385274622Y-160626628D01*
X385214834Y-160757543D01*
X385194353Y-160899997D01*
X385194353Y-160900002D01*
X380004730Y-160900002D01*
X380004115Y-160895723D01*
X379944327Y-160764807D01*
X379850078Y-160656037D01*
X379850077Y-160656036D01*
X379850076Y-160656035D01*
X379729007Y-160578229D01*
X379729004Y-160578227D01*
X379729003Y-160578227D01*
X379729000Y-160578226D01*
X379590914Y-160537680D01*
X379590911Y-160537680D01*
X379446989Y-160537680D01*
X379446985Y-160537680D01*
X379308899Y-160578226D01*
X379308892Y-160578229D01*
X379187823Y-160656035D01*
X379093572Y-160764808D01*
X379033784Y-160895723D01*
X379013303Y-161038177D01*
X379013303Y-161038182D01*
X377642857Y-161038182D01*
X377642857Y-160200002D01*
X383694353Y-160200002D01*
X383714834Y-160342456D01*
X383740886Y-160399500D01*
X383774623Y-160473373D01*
X383830345Y-160537680D01*
X383868873Y-160582144D01*
X383989942Y-160659950D01*
X383989947Y-160659953D01*
X384096403Y-160691211D01*
X384128035Y-160700499D01*
X384128036Y-160700499D01*
X384128039Y-160700500D01*
X384128041Y-160700500D01*
X384271959Y-160700500D01*
X384271961Y-160700500D01*
X384410053Y-160659953D01*
X384531128Y-160582143D01*
X384625377Y-160473373D01*
X384685165Y-160342457D01*
X384705647Y-160200000D01*
X384704172Y-160189743D01*
X384685165Y-160057543D01*
X384625377Y-159926627D01*
X384531128Y-159817857D01*
X384531127Y-159817856D01*
X384531126Y-159817855D01*
X384515170Y-159807601D01*
X386174753Y-159807601D01*
X386195234Y-159950055D01*
X386244323Y-160057543D01*
X386255023Y-160080972D01*
X386349272Y-160189742D01*
X386349273Y-160189743D01*
X386470342Y-160267549D01*
X386470347Y-160267552D01*
X386576803Y-160298810D01*
X386608435Y-160308098D01*
X386608436Y-160308098D01*
X386608439Y-160308099D01*
X386608441Y-160308099D01*
X386752359Y-160308099D01*
X386752361Y-160308099D01*
X386890453Y-160267552D01*
X387011528Y-160189742D01*
X387105777Y-160080972D01*
X387165565Y-159950056D01*
X387184572Y-159817857D01*
X387186047Y-159807601D01*
X387186047Y-159807596D01*
X387165565Y-159665142D01*
X387105777Y-159534227D01*
X387105777Y-159534226D01*
X387011528Y-159425456D01*
X387011527Y-159425455D01*
X387011526Y-159425454D01*
X386890457Y-159347648D01*
X386890454Y-159347646D01*
X386890453Y-159347646D01*
X386890450Y-159347645D01*
X386752364Y-159307099D01*
X386752361Y-159307099D01*
X386608439Y-159307099D01*
X386608435Y-159307099D01*
X386470349Y-159347645D01*
X386470342Y-159347648D01*
X386349273Y-159425454D01*
X386255022Y-159534227D01*
X386195234Y-159665142D01*
X386174753Y-159807596D01*
X386174753Y-159807601D01*
X384515170Y-159807601D01*
X384410057Y-159740049D01*
X384410054Y-159740047D01*
X384410053Y-159740047D01*
X384410050Y-159740046D01*
X384271964Y-159699500D01*
X384271961Y-159699500D01*
X384128039Y-159699500D01*
X384128035Y-159699500D01*
X383989949Y-159740046D01*
X383989942Y-159740049D01*
X383868873Y-159817855D01*
X383774622Y-159926628D01*
X383714834Y-160057543D01*
X383694353Y-160199997D01*
X383694353Y-160200002D01*
X377642857Y-160200002D01*
X377642857Y-156785802D01*
X385694353Y-156785802D01*
X385714834Y-156928256D01*
X385774622Y-157059171D01*
X385774623Y-157059173D01*
X385868872Y-157167943D01*
X385868873Y-157167944D01*
X385989942Y-157245750D01*
X385989947Y-157245753D01*
X386096403Y-157277011D01*
X386128035Y-157286299D01*
X386128036Y-157286299D01*
X386128039Y-157286300D01*
X386128041Y-157286300D01*
X386271959Y-157286300D01*
X386271961Y-157286300D01*
X386410053Y-157245753D01*
X386531128Y-157167943D01*
X386625377Y-157059173D01*
X386685165Y-156928257D01*
X386705647Y-156785800D01*
X386685165Y-156643343D01*
X386625377Y-156512427D01*
X386531128Y-156403657D01*
X386531127Y-156403656D01*
X386531126Y-156403655D01*
X386410057Y-156325849D01*
X386410054Y-156325847D01*
X386410053Y-156325847D01*
X386410050Y-156325846D01*
X386271964Y-156285300D01*
X386271961Y-156285300D01*
X386128039Y-156285300D01*
X386128035Y-156285300D01*
X385989949Y-156325846D01*
X385989942Y-156325849D01*
X385868873Y-156403655D01*
X385774622Y-156512428D01*
X385714834Y-156643343D01*
X385694353Y-156785797D01*
X385694353Y-156785802D01*
X377642857Y-156785802D01*
X377642857Y-142350002D01*
X380244867Y-142350002D01*
X380263302Y-142478225D01*
X380317117Y-142596061D01*
X380317118Y-142596063D01*
X380401951Y-142693967D01*
X380401952Y-142693968D01*
X380510926Y-142764001D01*
X380510931Y-142764004D01*
X380635228Y-142800500D01*
X380635230Y-142800500D01*
X380764770Y-142800500D01*
X380764772Y-142800500D01*
X380889069Y-142764004D01*
X380998049Y-142693967D01*
X381082882Y-142596063D01*
X381136697Y-142478226D01*
X381155133Y-142350000D01*
X381136697Y-142221774D01*
X381082882Y-142103937D01*
X380998049Y-142006033D01*
X380998048Y-142006032D01*
X380998047Y-142006031D01*
X380889073Y-141935998D01*
X380889070Y-141935996D01*
X380889069Y-141935996D01*
X380889066Y-141935995D01*
X380764774Y-141899500D01*
X380764772Y-141899500D01*
X380635228Y-141899500D01*
X380635225Y-141899500D01*
X380510933Y-141935995D01*
X380510926Y-141935998D01*
X380401952Y-142006031D01*
X380317117Y-142103938D01*
X380263302Y-142221774D01*
X380244867Y-142349997D01*
X380244867Y-142350002D01*
X377642857Y-142350002D01*
X377642857Y-141850002D01*
X387544867Y-141850002D01*
X387563302Y-141978225D01*
X387576001Y-142006031D01*
X387617118Y-142096063D01*
X387623941Y-142103937D01*
X387701952Y-142193968D01*
X387810926Y-142264001D01*
X387810931Y-142264004D01*
X387935228Y-142300500D01*
X387935230Y-142300500D01*
X388064770Y-142300500D01*
X388064772Y-142300500D01*
X388189069Y-142264004D01*
X388298049Y-142193967D01*
X388382882Y-142096063D01*
X388436697Y-141978226D01*
X388455133Y-141850000D01*
X388436697Y-141721774D01*
X388382882Y-141603937D01*
X388298049Y-141506033D01*
X388298048Y-141506032D01*
X388298047Y-141506031D01*
X388189073Y-141435998D01*
X388189070Y-141435996D01*
X388189069Y-141435996D01*
X388189066Y-141435995D01*
X388064774Y-141399500D01*
X388064772Y-141399500D01*
X387935228Y-141399500D01*
X387935225Y-141399500D01*
X387810933Y-141435995D01*
X387810926Y-141435998D01*
X387701952Y-141506031D01*
X387617117Y-141603938D01*
X387563302Y-141721774D01*
X387544867Y-141849997D01*
X387544867Y-141850002D01*
X377642857Y-141850002D01*
X377642857Y-141350002D01*
X383044867Y-141350002D01*
X383063302Y-141478225D01*
X383076001Y-141506031D01*
X383117118Y-141596063D01*
X383123941Y-141603937D01*
X383201952Y-141693968D01*
X383310926Y-141764001D01*
X383310931Y-141764004D01*
X383435228Y-141800500D01*
X383435230Y-141800500D01*
X383564770Y-141800500D01*
X383564772Y-141800500D01*
X383689069Y-141764004D01*
X383798049Y-141693967D01*
X383882882Y-141596063D01*
X383936697Y-141478226D01*
X383955133Y-141350000D01*
X383936697Y-141221774D01*
X383882882Y-141103937D01*
X383798049Y-141006033D01*
X383798048Y-141006032D01*
X383798047Y-141006031D01*
X383689073Y-140935998D01*
X383689070Y-140935996D01*
X383689069Y-140935996D01*
X383689066Y-140935995D01*
X383564774Y-140899500D01*
X383564772Y-140899500D01*
X383435228Y-140899500D01*
X383435225Y-140899500D01*
X383310933Y-140935995D01*
X383310926Y-140935998D01*
X383201952Y-141006031D01*
X383117117Y-141103938D01*
X383063302Y-141221774D01*
X383044867Y-141349997D01*
X383044867Y-141350002D01*
X377642857Y-141350002D01*
X377642857Y-140850002D01*
X390464867Y-140850002D01*
X390483302Y-140978225D01*
X390496001Y-141006031D01*
X390537118Y-141096063D01*
X390543941Y-141103937D01*
X390621952Y-141193968D01*
X390730926Y-141264001D01*
X390730931Y-141264004D01*
X390855228Y-141300500D01*
X390855230Y-141300500D01*
X390984770Y-141300500D01*
X390984772Y-141300500D01*
X391109069Y-141264004D01*
X391218049Y-141193967D01*
X391302882Y-141096063D01*
X391356697Y-140978226D01*
X391375133Y-140850000D01*
X391356697Y-140721774D01*
X391302882Y-140603937D01*
X391218049Y-140506033D01*
X391218048Y-140506032D01*
X391218047Y-140506031D01*
X391109073Y-140435998D01*
X391109070Y-140435996D01*
X391109069Y-140435996D01*
X391109066Y-140435995D01*
X390984774Y-140399500D01*
X390984772Y-140399500D01*
X390855228Y-140399500D01*
X390855225Y-140399500D01*
X390730933Y-140435995D01*
X390730926Y-140435998D01*
X390621952Y-140506031D01*
X390537117Y-140603938D01*
X390483302Y-140721774D01*
X390464867Y-140849997D01*
X390464867Y-140850002D01*
X377642857Y-140850002D01*
X377642857Y-139852202D01*
X381069867Y-139852202D01*
X381088302Y-139980425D01*
X381142117Y-140098261D01*
X381142118Y-140098263D01*
X381226951Y-140196167D01*
X381226952Y-140196168D01*
X381335926Y-140266201D01*
X381335931Y-140266204D01*
X381460228Y-140302700D01*
X381460230Y-140302700D01*
X381589770Y-140302700D01*
X381589772Y-140302700D01*
X381714069Y-140266204D01*
X381823049Y-140196167D01*
X381907882Y-140098263D01*
X381961697Y-139980426D01*
X381980133Y-139852202D01*
X384323367Y-139852202D01*
X384341802Y-139980425D01*
X384395617Y-140098261D01*
X384395618Y-140098263D01*
X384480451Y-140196167D01*
X384480452Y-140196168D01*
X384589426Y-140266201D01*
X384589431Y-140266204D01*
X384713728Y-140302700D01*
X384713730Y-140302700D01*
X384843270Y-140302700D01*
X384843272Y-140302700D01*
X384967569Y-140266204D01*
X385076549Y-140196167D01*
X385161382Y-140098263D01*
X385215197Y-139980426D01*
X385233633Y-139852200D01*
X385215197Y-139723974D01*
X385161382Y-139606137D01*
X385076549Y-139508233D01*
X385076548Y-139508232D01*
X385076547Y-139508231D01*
X384967573Y-139438198D01*
X384967570Y-139438196D01*
X384967569Y-139438196D01*
X384967566Y-139438195D01*
X384843274Y-139401700D01*
X384843272Y-139401700D01*
X384713728Y-139401700D01*
X384713725Y-139401700D01*
X384589433Y-139438195D01*
X384589426Y-139438198D01*
X384480452Y-139508231D01*
X384395617Y-139606138D01*
X384341802Y-139723974D01*
X384323367Y-139852197D01*
X384323367Y-139852202D01*
X381980133Y-139852202D01*
X381980133Y-139852200D01*
X381961697Y-139723974D01*
X381907882Y-139606137D01*
X381823049Y-139508233D01*
X381823048Y-139508232D01*
X381823047Y-139508231D01*
X381714073Y-139438198D01*
X381714070Y-139438196D01*
X381714069Y-139438196D01*
X381714066Y-139438195D01*
X381589774Y-139401700D01*
X381589772Y-139401700D01*
X381460228Y-139401700D01*
X381460225Y-139401700D01*
X381335933Y-139438195D01*
X381335926Y-139438198D01*
X381226952Y-139508231D01*
X381142117Y-139606138D01*
X381088302Y-139723974D01*
X381069867Y-139852197D01*
X381069867Y-139852202D01*
X377642857Y-139852202D01*
X377642857Y-136350002D01*
X390464867Y-136350002D01*
X390483302Y-136478225D01*
X390537117Y-136596061D01*
X390537118Y-136596063D01*
X390621951Y-136693967D01*
X390621952Y-136693968D01*
X390730926Y-136764001D01*
X390730931Y-136764004D01*
X390855228Y-136800500D01*
X390855230Y-136800500D01*
X390984770Y-136800500D01*
X390984772Y-136800500D01*
X391109069Y-136764004D01*
X391218049Y-136693967D01*
X391302882Y-136596063D01*
X391356697Y-136478226D01*
X391375133Y-136350000D01*
X391356697Y-136221774D01*
X391302882Y-136103937D01*
X391218049Y-136006033D01*
X391218048Y-136006032D01*
X391218047Y-136006031D01*
X391109073Y-135935998D01*
X391109070Y-135935996D01*
X391109069Y-135935996D01*
X391109066Y-135935995D01*
X390984774Y-135899500D01*
X390984772Y-135899500D01*
X390855228Y-135899500D01*
X390855225Y-135899500D01*
X390730933Y-135935995D01*
X390730926Y-135935998D01*
X390621952Y-136006031D01*
X390537117Y-136103938D01*
X390483302Y-136221774D01*
X390464867Y-136349997D01*
X390464867Y-136350002D01*
X377642857Y-136350002D01*
X377642857Y-135850002D01*
X383044867Y-135850002D01*
X383063302Y-135978225D01*
X383076001Y-136006031D01*
X383117118Y-136096063D01*
X383123941Y-136103937D01*
X383201952Y-136193968D01*
X383310926Y-136264001D01*
X383310931Y-136264004D01*
X383435228Y-136300500D01*
X383435230Y-136300500D01*
X383564770Y-136300500D01*
X383564772Y-136300500D01*
X383689069Y-136264004D01*
X383798049Y-136193967D01*
X383882882Y-136096063D01*
X383936697Y-135978226D01*
X383955133Y-135850000D01*
X383936697Y-135721774D01*
X383882882Y-135603937D01*
X383798049Y-135506033D01*
X383798048Y-135506032D01*
X383798047Y-135506031D01*
X383689073Y-135435998D01*
X383689070Y-135435996D01*
X383689069Y-135435996D01*
X383689066Y-135435995D01*
X383564774Y-135399500D01*
X383564772Y-135399500D01*
X383435228Y-135399500D01*
X383435225Y-135399500D01*
X383310933Y-135435995D01*
X383310926Y-135435998D01*
X383201952Y-135506031D01*
X383117117Y-135603938D01*
X383063302Y-135721774D01*
X383044867Y-135849997D01*
X383044867Y-135850002D01*
X377642857Y-135850002D01*
X377642857Y-135350002D01*
X387544867Y-135350002D01*
X387563302Y-135478225D01*
X387576001Y-135506031D01*
X387617118Y-135596063D01*
X387623941Y-135603937D01*
X387701952Y-135693968D01*
X387810926Y-135764001D01*
X387810931Y-135764004D01*
X387935228Y-135800500D01*
X387935230Y-135800500D01*
X388064770Y-135800500D01*
X388064772Y-135800500D01*
X388189069Y-135764004D01*
X388298049Y-135693967D01*
X388382882Y-135596063D01*
X388436697Y-135478226D01*
X388455133Y-135350000D01*
X388436697Y-135221774D01*
X388382882Y-135103937D01*
X388298049Y-135006033D01*
X388298048Y-135006032D01*
X388298047Y-135006031D01*
X388189073Y-134935998D01*
X388189070Y-134935996D01*
X388189069Y-134935996D01*
X388189066Y-134935995D01*
X388064774Y-134899500D01*
X388064772Y-134899500D01*
X387935228Y-134899500D01*
X387935225Y-134899500D01*
X387810933Y-134935995D01*
X387810926Y-134935998D01*
X387701952Y-135006031D01*
X387617117Y-135103938D01*
X387563302Y-135221774D01*
X387544867Y-135349997D01*
X387544867Y-135350002D01*
X377642857Y-135350002D01*
X377642857Y-134850002D01*
X380244867Y-134850002D01*
X380263302Y-134978225D01*
X380276001Y-135006031D01*
X380317118Y-135096063D01*
X380323941Y-135103937D01*
X380401952Y-135193968D01*
X380510926Y-135264001D01*
X380510931Y-135264004D01*
X380635228Y-135300500D01*
X380635230Y-135300500D01*
X380764770Y-135300500D01*
X380764772Y-135300500D01*
X380889069Y-135264004D01*
X380998049Y-135193967D01*
X381082882Y-135096063D01*
X381136697Y-134978226D01*
X381155133Y-134850000D01*
X381136697Y-134721774D01*
X381082882Y-134603937D01*
X380998049Y-134506033D01*
X380998048Y-134506032D01*
X380998047Y-134506031D01*
X380889073Y-134435998D01*
X380889070Y-134435996D01*
X380889069Y-134435996D01*
X380889066Y-134435995D01*
X380764774Y-134399500D01*
X380764772Y-134399500D01*
X380635228Y-134399500D01*
X380635225Y-134399500D01*
X380510933Y-134435995D01*
X380510926Y-134435998D01*
X380401952Y-134506031D01*
X380317117Y-134603938D01*
X380263302Y-134721774D01*
X380244867Y-134849997D01*
X380244867Y-134850002D01*
X377642857Y-134850002D01*
X377642857Y-130350002D01*
X390464867Y-130350002D01*
X390483302Y-130478225D01*
X390537117Y-130596061D01*
X390537118Y-130596063D01*
X390621951Y-130693967D01*
X390621952Y-130693968D01*
X390730926Y-130764001D01*
X390730931Y-130764004D01*
X390855228Y-130800500D01*
X390855230Y-130800500D01*
X390984770Y-130800500D01*
X390984772Y-130800500D01*
X391109069Y-130764004D01*
X391218049Y-130693967D01*
X391302882Y-130596063D01*
X391356697Y-130478226D01*
X391375133Y-130350000D01*
X391356697Y-130221774D01*
X391302882Y-130103937D01*
X391218049Y-130006033D01*
X391218048Y-130006032D01*
X391218047Y-130006031D01*
X391109073Y-129935998D01*
X391109070Y-129935996D01*
X391109069Y-129935996D01*
X391109066Y-129935995D01*
X390984774Y-129899500D01*
X390984772Y-129899500D01*
X390855228Y-129899500D01*
X390855225Y-129899500D01*
X390730933Y-129935995D01*
X390730926Y-129935998D01*
X390621952Y-130006031D01*
X390537117Y-130103938D01*
X390483302Y-130221774D01*
X390464867Y-130349997D01*
X390464867Y-130350002D01*
X377642857Y-130350002D01*
X377642857Y-129850002D01*
X383044867Y-129850002D01*
X383063302Y-129978225D01*
X383076001Y-130006031D01*
X383117118Y-130096063D01*
X383123941Y-130103937D01*
X383201952Y-130193968D01*
X383310926Y-130264001D01*
X383310931Y-130264004D01*
X383435228Y-130300500D01*
X383435230Y-130300500D01*
X383564770Y-130300500D01*
X383564772Y-130300500D01*
X383689069Y-130264004D01*
X383798049Y-130193967D01*
X383882882Y-130096063D01*
X383936697Y-129978226D01*
X383955133Y-129850000D01*
X383936697Y-129721774D01*
X383882882Y-129603937D01*
X383798049Y-129506033D01*
X383798048Y-129506032D01*
X383798047Y-129506031D01*
X383689073Y-129435998D01*
X383689070Y-129435996D01*
X383689069Y-129435996D01*
X383689066Y-129435995D01*
X383564774Y-129399500D01*
X383564772Y-129399500D01*
X383435228Y-129399500D01*
X383435225Y-129399500D01*
X383310933Y-129435995D01*
X383310926Y-129435998D01*
X383201952Y-129506031D01*
X383117117Y-129603938D01*
X383063302Y-129721774D01*
X383044867Y-129849997D01*
X383044867Y-129850002D01*
X377642857Y-129850002D01*
X377642857Y-129350002D01*
X387544867Y-129350002D01*
X387563302Y-129478225D01*
X387576001Y-129506031D01*
X387617118Y-129596063D01*
X387623941Y-129603937D01*
X387701952Y-129693968D01*
X387810926Y-129764001D01*
X387810931Y-129764004D01*
X387935228Y-129800500D01*
X387935230Y-129800500D01*
X388064770Y-129800500D01*
X388064772Y-129800500D01*
X388189069Y-129764004D01*
X388298049Y-129693967D01*
X388382882Y-129596063D01*
X388436697Y-129478226D01*
X388455133Y-129350000D01*
X388436697Y-129221774D01*
X388382882Y-129103937D01*
X388298049Y-129006033D01*
X388298048Y-129006032D01*
X388298047Y-129006031D01*
X388189073Y-128935998D01*
X388189070Y-128935996D01*
X388189069Y-128935996D01*
X388189066Y-128935995D01*
X388064774Y-128899500D01*
X388064772Y-128899500D01*
X387935228Y-128899500D01*
X387935225Y-128899500D01*
X387810933Y-128935995D01*
X387810926Y-128935998D01*
X387701952Y-129006031D01*
X387617117Y-129103938D01*
X387563302Y-129221774D01*
X387544867Y-129349997D01*
X387544867Y-129350002D01*
X377642857Y-129350002D01*
X377642857Y-128850002D01*
X380244867Y-128850002D01*
X380263302Y-128978225D01*
X380276001Y-129006031D01*
X380317118Y-129096063D01*
X380323941Y-129103937D01*
X380401952Y-129193968D01*
X380510926Y-129264001D01*
X380510931Y-129264004D01*
X380635228Y-129300500D01*
X380635230Y-129300500D01*
X380764770Y-129300500D01*
X380764772Y-129300500D01*
X380889069Y-129264004D01*
X380998049Y-129193967D01*
X381082882Y-129096063D01*
X381136697Y-128978226D01*
X381155133Y-128850000D01*
X381136697Y-128721774D01*
X381082882Y-128603937D01*
X380998049Y-128506033D01*
X380998048Y-128506032D01*
X380998047Y-128506031D01*
X380889073Y-128435998D01*
X380889070Y-128435996D01*
X380889069Y-128435996D01*
X380889066Y-128435995D01*
X380764774Y-128399500D01*
X380764772Y-128399500D01*
X380635228Y-128399500D01*
X380635225Y-128399500D01*
X380510933Y-128435995D01*
X380510926Y-128435998D01*
X380401952Y-128506031D01*
X380317117Y-128603938D01*
X380263302Y-128721774D01*
X380244867Y-128849997D01*
X380244867Y-128850002D01*
X377642857Y-128850002D01*
X377642857Y-124350002D01*
X390464867Y-124350002D01*
X390483302Y-124478225D01*
X390537117Y-124596061D01*
X390537118Y-124596063D01*
X390621951Y-124693967D01*
X390621952Y-124693968D01*
X390730926Y-124764001D01*
X390730931Y-124764004D01*
X390855228Y-124800500D01*
X390855230Y-124800500D01*
X390984770Y-124800500D01*
X390984772Y-124800500D01*
X391109069Y-124764004D01*
X391218049Y-124693967D01*
X391302882Y-124596063D01*
X391356697Y-124478226D01*
X391375133Y-124350000D01*
X391356697Y-124221774D01*
X391302882Y-124103937D01*
X391218049Y-124006033D01*
X391218048Y-124006032D01*
X391218047Y-124006031D01*
X391109073Y-123935998D01*
X391109070Y-123935996D01*
X391109069Y-123935996D01*
X391109066Y-123935995D01*
X390984774Y-123899500D01*
X390984772Y-123899500D01*
X390855228Y-123899500D01*
X390855225Y-123899500D01*
X390730933Y-123935995D01*
X390730926Y-123935998D01*
X390621952Y-124006031D01*
X390537117Y-124103938D01*
X390483302Y-124221774D01*
X390464867Y-124349997D01*
X390464867Y-124350002D01*
X377642857Y-124350002D01*
X377642857Y-123850002D01*
X383044867Y-123850002D01*
X383063302Y-123978225D01*
X383076001Y-124006031D01*
X383117118Y-124096063D01*
X383123941Y-124103937D01*
X383201952Y-124193968D01*
X383310926Y-124264001D01*
X383310931Y-124264004D01*
X383435228Y-124300500D01*
X383435230Y-124300500D01*
X383564770Y-124300500D01*
X383564772Y-124300500D01*
X383689069Y-124264004D01*
X383798049Y-124193967D01*
X383882882Y-124096063D01*
X383936697Y-123978226D01*
X383955133Y-123850000D01*
X383936697Y-123721774D01*
X383882882Y-123603937D01*
X383798049Y-123506033D01*
X383798048Y-123506032D01*
X383798047Y-123506031D01*
X383689073Y-123435998D01*
X383689070Y-123435996D01*
X383689069Y-123435996D01*
X383689066Y-123435995D01*
X383564774Y-123399500D01*
X383564772Y-123399500D01*
X383435228Y-123399500D01*
X383435225Y-123399500D01*
X383310933Y-123435995D01*
X383310926Y-123435998D01*
X383201952Y-123506031D01*
X383117117Y-123603938D01*
X383063302Y-123721774D01*
X383044867Y-123849997D01*
X383044867Y-123850002D01*
X377642857Y-123850002D01*
X377642857Y-123350002D01*
X387544867Y-123350002D01*
X387563302Y-123478225D01*
X387576001Y-123506031D01*
X387617118Y-123596063D01*
X387623941Y-123603937D01*
X387701952Y-123693968D01*
X387810926Y-123764001D01*
X387810931Y-123764004D01*
X387935228Y-123800500D01*
X387935230Y-123800500D01*
X388064770Y-123800500D01*
X388064772Y-123800500D01*
X388189069Y-123764004D01*
X388298049Y-123693967D01*
X388382882Y-123596063D01*
X388436697Y-123478226D01*
X388455133Y-123350000D01*
X388436697Y-123221774D01*
X388382882Y-123103937D01*
X388298049Y-123006033D01*
X388298048Y-123006032D01*
X388298047Y-123006031D01*
X388189073Y-122935998D01*
X388189070Y-122935996D01*
X388189069Y-122935996D01*
X388189066Y-122935995D01*
X388064774Y-122899500D01*
X388064772Y-122899500D01*
X387935228Y-122899500D01*
X387935225Y-122899500D01*
X387810933Y-122935995D01*
X387810926Y-122935998D01*
X387701952Y-123006031D01*
X387617117Y-123103938D01*
X387563302Y-123221774D01*
X387544867Y-123349997D01*
X387544867Y-123350002D01*
X377642857Y-123350002D01*
X377642857Y-122850002D01*
X380244867Y-122850002D01*
X380263302Y-122978225D01*
X380276001Y-123006031D01*
X380317118Y-123096063D01*
X380323941Y-123103937D01*
X380401952Y-123193968D01*
X380510926Y-123264001D01*
X380510931Y-123264004D01*
X380635228Y-123300500D01*
X380635230Y-123300500D01*
X380764770Y-123300500D01*
X380764772Y-123300500D01*
X380889069Y-123264004D01*
X380998049Y-123193967D01*
X381082882Y-123096063D01*
X381136697Y-122978226D01*
X381155133Y-122850000D01*
X381136697Y-122721774D01*
X381082882Y-122603937D01*
X380998049Y-122506033D01*
X380998048Y-122506032D01*
X380998047Y-122506031D01*
X380889073Y-122435998D01*
X380889070Y-122435996D01*
X380889069Y-122435996D01*
X380889066Y-122435995D01*
X380764774Y-122399500D01*
X380764772Y-122399500D01*
X380635228Y-122399500D01*
X380635225Y-122399500D01*
X380510933Y-122435995D01*
X380510926Y-122435998D01*
X380401952Y-122506031D01*
X380317117Y-122603938D01*
X380263302Y-122721774D01*
X380244867Y-122849997D01*
X380244867Y-122850002D01*
X377642857Y-122850002D01*
X377642857Y-53000000D01*
X387280104Y-53000000D01*
X387300517Y-53285422D01*
X387300517Y-53285425D01*
X387300518Y-53285428D01*
X387328542Y-53414251D01*
X387361346Y-53565050D01*
X387461347Y-53833162D01*
X387461348Y-53833164D01*
X387507467Y-53917624D01*
X387598488Y-54084315D01*
X387769975Y-54313395D01*
X387972319Y-54515739D01*
X388201399Y-54687226D01*
X388452553Y-54824367D01*
X388720668Y-54924369D01*
X389000286Y-54985196D01*
X389285714Y-55005610D01*
X389571142Y-54985196D01*
X389850760Y-54924369D01*
X390118875Y-54824367D01*
X390370029Y-54687226D01*
X390599109Y-54515739D01*
X390801453Y-54313395D01*
X390972940Y-54084315D01*
X391110081Y-53833161D01*
X391210083Y-53565046D01*
X391270910Y-53285428D01*
X391291324Y-53000000D01*
X391270910Y-52714572D01*
X391210083Y-52434954D01*
X391110081Y-52166839D01*
X390972940Y-51915685D01*
X390801453Y-51686605D01*
X390599109Y-51484261D01*
X390370029Y-51312774D01*
X390202074Y-51221063D01*
X390118878Y-51175634D01*
X390118876Y-51175633D01*
X389850764Y-51075632D01*
X389850760Y-51075631D01*
X389571142Y-51014804D01*
X389571139Y-51014803D01*
X389571136Y-51014803D01*
X389285714Y-50994390D01*
X389000291Y-51014803D01*
X388720663Y-51075632D01*
X388452551Y-51175633D01*
X388452549Y-51175634D01*
X388201403Y-51312771D01*
X387972323Y-51484257D01*
X387769971Y-51686609D01*
X387598485Y-51915689D01*
X387461348Y-52166835D01*
X387461347Y-52166837D01*
X387361346Y-52434949D01*
X387300517Y-52714577D01*
X387280104Y-53000000D01*
X377642857Y-53000000D01*
X377642857Y-50399500D01*
X377661764Y-50341309D01*
X377711264Y-50305345D01*
X377741857Y-50300500D01*
X392238119Y-50300500D01*
X392285713Y-50300500D01*
X392730948Y-50317995D01*
G37*
%TD.AperFunction*%
%TD*%
%TA.AperFunction,Conductor*%
%TO.N,/GND*%
G36*
X377742857Y-165703500D02*
G01*
X318099000Y-165703500D01*
X318040809Y-165684593D01*
X318004845Y-165635093D01*
X318000000Y-165604500D01*
X318000000Y-159302500D01*
X318018907Y-159244309D01*
X318068407Y-159208345D01*
X318099000Y-159203500D01*
X334899999Y-159203500D01*
X377742857Y-159203500D01*
X377742857Y-165703500D01*
G37*
%TD.AperFunction*%
%TD*%
M02*
