%TF.GenerationSoftware,KiCad,Pcbnew,7.0.8*%
%TF.CreationDate,2026-09-29T15:25:07-05:00*%
%TF.ProjectId,vuulgaris-faceplate,7675756c-6761-4726-9973-2d6661636570,0*%
%TF.SameCoordinates,Original*%
%TF.FileFunction,Paste,Bot*%
%TF.FilePolarity,Positive*%
%FSLAX46Y46*%
G04 Gerber Fmt 4.6, Leading zero omitted, Abs format (unit mm)*
G04 Created by KiCad (PCBNEW 7.0.8) date 2026-09-29 15:25:07*
%MOMM*%
%LPD*%
G01*
G04 APERTURE LIST*
G04 Aperture macros list*
%AMRoundRect*
0 Rectangle with rounded corners*
0 $1 Rounding radius*
0 $2 $3 $4 $5 $6 $7 $8 $9 X,Y pos of 4 corners*
0 Add a 4 corners polygon primitive as box body*
4,1,4,$2,$3,$4,$5,$6,$7,$8,$9,$2,$3,0*
0 Add four circle primitives for the rounded corners*
1,1,$1+$1,$2,$3*
1,1,$1+$1,$4,$5*
1,1,$1+$1,$6,$7*
1,1,$1+$1,$8,$9*
0 Add four rect primitives between the rounded corners*
20,1,$1+$1,$2,$3,$4,$5,0*
20,1,$1+$1,$4,$5,$6,$7,0*
20,1,$1+$1,$6,$7,$8,$9,0*
20,1,$1+$1,$8,$9,$2,$3,0*%
G04 Aperture macros list end*
%ADD10R,0.864000X0.806000*%
%ADD11R,0.806000X0.864000*%
%ADD12R,1.350000X1.410000*%
%ADD13RoundRect,0.000000X-0.150000X-0.250000X0.150000X-0.250000X0.150000X0.250000X-0.150000X0.250000X0*%
%ADD14R,0.800000X0.900000*%
%ADD15RoundRect,0.050010X0.099990X-0.749990X0.099990X0.749990X-0.099990X0.749990X-0.099990X-0.749990X0*%
%ADD16RoundRect,0.050010X-0.749990X-0.099990X0.749990X-0.099990X0.749990X0.099990X-0.749990X0.099990X0*%
%ADD17R,1.800000X1.000000*%
%ADD18R,0.900000X0.800000*%
%ADD19R,1.020000X4.650000*%
G04 APERTURE END LIST*
D10*
%TO.C,R42*%
X383500000Y-144400000D03*
X383500000Y-145900000D03*
%TD*%
D11*
%TO.C,R3*%
X381750000Y-160200000D03*
X383250000Y-160200000D03*
%TD*%
D10*
%TO.C,R2*%
X362000000Y-160275000D03*
X362000000Y-161775000D03*
%TD*%
%TO.C,R44*%
X390920000Y-144400000D03*
X390920000Y-145900000D03*
%TD*%
%TO.C,R1*%
X382775000Y-163600000D03*
X382775000Y-162100000D03*
%TD*%
D12*
%TO.C,C1*%
X378300000Y-157200000D03*
X378300000Y-155200000D03*
%TD*%
D13*
%TO.C,D43*%
X388000000Y-143150000D03*
X388700000Y-143150000D03*
%TD*%
D10*
%TO.C,R24*%
X390920000Y-132400000D03*
X390920000Y-133900000D03*
%TD*%
%TO.C,R22*%
X383500000Y-132400000D03*
X383500000Y-133900000D03*
%TD*%
D13*
%TO.C,D44*%
X390920000Y-143150000D03*
X391620000Y-143150000D03*
%TD*%
%TO.C,D12*%
X383500000Y-125150000D03*
X384200000Y-125150000D03*
%TD*%
D10*
%TO.C,R23*%
X388000000Y-132400000D03*
X388000000Y-133900000D03*
%TD*%
%TO.C,R33*%
X388000000Y-138400000D03*
X388000000Y-139900000D03*
%TD*%
%TO.C,R32*%
X383500000Y-138400000D03*
X383500000Y-139900000D03*
%TD*%
D13*
%TO.C,D21*%
X380300000Y-131150000D03*
X381000000Y-131150000D03*
%TD*%
%TO.C,D24*%
X390920000Y-131150000D03*
X391620000Y-131150000D03*
%TD*%
D10*
%TO.C,R34*%
X390920000Y-138400000D03*
X390920000Y-139900000D03*
%TD*%
D13*
%TO.C,D31*%
X380300000Y-137150000D03*
X381000000Y-137150000D03*
%TD*%
D14*
%TO.C,C6*%
X388750000Y-165900000D03*
X387350000Y-165900000D03*
%TD*%
D13*
%TO.C,D33*%
X388000000Y-137150000D03*
X388700000Y-137150000D03*
%TD*%
%TO.C,D32*%
X383500000Y-137150000D03*
X384200000Y-137150000D03*
%TD*%
D14*
%TO.C,C5*%
X388750000Y-163400000D03*
X387350000Y-163400000D03*
%TD*%
D12*
%TO.C,C3*%
X385250000Y-146875000D03*
X385250000Y-144875000D03*
%TD*%
D10*
%TO.C,R21*%
X380300000Y-132400000D03*
X380300000Y-133900000D03*
%TD*%
%TO.C,R31*%
X380300000Y-138400000D03*
X380300000Y-139900000D03*
%TD*%
D13*
%TO.C,D42*%
X383500000Y-143150000D03*
X384200000Y-143150000D03*
%TD*%
%TO.C,D11*%
X380300000Y-125150000D03*
X381000000Y-125150000D03*
%TD*%
D10*
%TO.C,R14*%
X390920000Y-126400000D03*
X390920000Y-127900000D03*
%TD*%
D15*
%TO.C,U1*%
X387200000Y-158100000D03*
X386700000Y-158100000D03*
X386200000Y-158100000D03*
X385700000Y-158100000D03*
X385200000Y-158100000D03*
X384700000Y-158100000D03*
X384200000Y-158100000D03*
X383700000Y-158100000D03*
X383200000Y-158100000D03*
X382700000Y-158100000D03*
X382200000Y-158100000D03*
X381700000Y-158100000D03*
D16*
X380350000Y-156750000D03*
X380350000Y-156250000D03*
X380350000Y-155750000D03*
X380350000Y-155250000D03*
X380350000Y-154750000D03*
X380350000Y-154250000D03*
X380350000Y-153750000D03*
X380350000Y-153250000D03*
X380350000Y-152750000D03*
X380350000Y-152250000D03*
X380350000Y-151750000D03*
X380350000Y-151250000D03*
D15*
X381700000Y-149900000D03*
X382200000Y-149900000D03*
X382700000Y-149900000D03*
X383200000Y-149900000D03*
X383700000Y-149900000D03*
X384200000Y-149900000D03*
X384700000Y-149900000D03*
X385200000Y-149900000D03*
X385700000Y-149900000D03*
X386200000Y-149900000D03*
X386700000Y-149900000D03*
X387200000Y-149900000D03*
D16*
X388550000Y-151250000D03*
X388550000Y-151750000D03*
X388550000Y-152250000D03*
X388550000Y-152750000D03*
X388550000Y-153250000D03*
X388550000Y-153750000D03*
X388550000Y-154250000D03*
X388550000Y-154750000D03*
X388550000Y-155250000D03*
X388550000Y-155750000D03*
X388550000Y-156250000D03*
X388550000Y-156750000D03*
%TD*%
D13*
%TO.C,D41*%
X380300000Y-143150000D03*
X381000000Y-143150000D03*
%TD*%
D10*
%TO.C,R43*%
X388000000Y-144400000D03*
X388000000Y-145900000D03*
%TD*%
D13*
%TO.C,D34*%
X390920000Y-137150000D03*
X391620000Y-137150000D03*
%TD*%
D14*
%TO.C,C2*%
X387650000Y-161175000D03*
X389050000Y-161175000D03*
%TD*%
D13*
%TO.C,D22*%
X383500000Y-131150000D03*
X384200000Y-131150000D03*
%TD*%
D17*
%TO.C,Y1*%
X390900000Y-163000000D03*
X390900000Y-165500000D03*
%TD*%
D10*
%TO.C,R11*%
X380300000Y-126400000D03*
X380300000Y-127900000D03*
%TD*%
D13*
%TO.C,D14*%
X390920000Y-125150000D03*
X391620000Y-125150000D03*
%TD*%
D10*
%TO.C,R13*%
X388000000Y-126400000D03*
X388000000Y-127900000D03*
%TD*%
%TO.C,R12*%
X383500000Y-126400000D03*
X383500000Y-127900000D03*
%TD*%
D13*
%TO.C,D23*%
X388000000Y-131150000D03*
X388700000Y-131150000D03*
%TD*%
D18*
%TO.C,C4*%
X380725000Y-162200000D03*
X380725000Y-163600000D03*
%TD*%
D13*
%TO.C,D13*%
X388000000Y-125150000D03*
X388700000Y-125150000D03*
%TD*%
D19*
%TO.C,J1*%
X334075000Y-165925000D03*
X334075000Y-159075000D03*
X331535000Y-165925000D03*
X331535000Y-159075000D03*
X328995000Y-165925000D03*
X328995000Y-159075000D03*
X326455000Y-165925000D03*
X326455000Y-159075000D03*
X323915000Y-165925000D03*
X323915000Y-159075000D03*
%TD*%
D10*
%TO.C,R41*%
X380300000Y-144400000D03*
X380300000Y-145900000D03*
%TD*%
M02*
