#VRML V2.0 utf8
# 3D model generated by easyeda2kicad.py (https://github.com/uPesy/easyeda2kicad.py)

Shape{
    appearance Appearance {
        material  Material 	{
            diffuseColor 0.20784313725490197 0.20784313725490197 0.20784313725490197
            specularColor 0.01568627450980392 0.01568627450980392 0.01568627450980392
            ambientIntensity 0.298
            transparency 0.0
            shininess 0.5
        }
    }
    geometry IndexedFaceSet {
        ccw TRUE
        solid FALSE
        coord DEF co Coordinate {
            point [
                0.1685 0.0753 0.0709, 0.1879 0.0731 0.0709, 0.126 -0.0725 0.0709, 0.8829 0.0957 0.0709, 0.8829 -0.6861 0.0709, 0.3865 -0.1024 0.0709, 0.1452 0.0953 0.0709, 0.1224 0.0891 0.0709, 0.084 0.0945 0.0709, -0.0168 0.0945 0.0709, -0.0408 0.0957 0.0709, -0.0168 0.0729 0.0709, 0.0576 0.0729 0.0709, 0.0576 0.0081 0.0709, 0.1446 0.0722 0.0709, 0.1224 -0.0706 0.0709, 0.1224 0.0627 0.0709, 0.084 -0.1024 0.0709, 0.1224 -0.0922 0.0709, 0.1434 -0.1008 0.0709, 0.0576 -0.0135 0.0709, 0.0576 -0.0808 0.0709, -0.012 -0.0135 0.0709, -0.0216 -0.0808 0.0709, -0.012 0.0081 0.0709, 0.2857 -0.1024 0.0709, -0.0408 -0.6861 0.0709, 0.2199 -0.0957 0.0709, 0.2585 0.0427 0.0709, 0.2469 0.0611 0.0709, 0.3601 0.0945 0.0709, 0.2292 0.0781 0.0709, 0.2105 0.0889 0.0709, 0.2026 0.0678 0.0709, 0.2163 0.0587 0.0709, 0.2282 0.0455 0.0709, 0.2425 -0.006 0.0709, 0.2405 -0.0273 0.0709, 0.2351 -0.0443 0.0709, 0.1913 -0.0811 0.0709, 0.173 -0.0832 0.0709, 0.2057 -0.0758 0.0709, 0.2177 -0.0677 0.0709, 0.227 -0.0579 0.0709, 0.1468 -0.0803 0.0709, 0.1712 -0.1047 0.0709, 0.1766 -0.1048 0.0709, 0.2009 -0.1022 0.0709, 0.2358 -0.0856 0.0709, 0.2506 -0.07 0.0709, 0.2857 -0.0808 0.0709, 0.261 -0.0513 0.0709, 0.3601 -0.0808 0.0709, 0.1885 0.0953 0.0709, 0.1835 0.0957 0.0709, 0.3865 0.0945 0.0709, 0.2363 0.0304 0.0709, 0.2415 0.0093 0.0709, -0.0216 -0.1024 0.0709, 0.267 -0.0304 0.0709, 0.2689 -0.0077 0.0709, 0.266 0.0203 0.0709, 0.8829 0.6861 0.0709, -0.0408 0.6861 0.0709, 0.1688 0.0969 0.0709, 0.1514 0.0957 0.0709, -0.3073 0.0945 0.0709, -0.3337 0.0945 0.0709, -0.2086 -0.0484 0.0709, -0.1973 -0.066 0.0709, -0.2329 -0.1024 0.0709, -0.1811 -0.0815 0.0709, -0.1606 -0.0935 0.0709, -0.3618 -0.0471 0.0709, -0.2805 -0.0471 0.0709, -0.3817 -0.1024 0.0709, -0.2617 -0.1024 0.0709, -0.4105 -0.1024 0.0709, -0.8829 -0.6861 0.0709, -0.1379 -0.1002 0.0709, -0.1135 -0.1024 0.0709, -0.06 -0.1024 0.0709, -0.8829 0.0957 0.0709, -0.167 0.0834 0.0709, -0.1885 0.069 0.0709, -0.06 0.0945 0.0709, -0.1156 0.0945 0.0709, -0.144 0.0914 0.0709, -0.1887 0.0688 0.0709, -0.2026 0.0534 0.0709, -0.2117 0.0365 0.0709, -0.217 0.0171 0.0709, -0.2185 -0.0015 0.0709, -0.2157 -0.0278 0.0709, -0.8829 0.6861 0.0709, -0.8858 -0.7677 0.4252, -0.8858 -0.7677 0.3465, -0.8287 -0.7677 0.4252, -0.8287 -0.7677 0.3465, -0.6713 -0.7677 0.3465, -0.3287 -0.7677 0.3465, -0.6713 -0.7677 0.4252, -0.3287 -0.7677 0.4252, -0.1713 -0.7677 0.3465, 0.1713 -0.7677 0.3465, -0.1713 -0.7677 0.4252, 0.1713 -0.7677 0.4252, 0.3287 -0.7677 0.3465, 0.6713 -0.7677 0.3465, 0.3287 -0.7677 0.4252, 0.6713 -0.7677 0.4252, -0.8858 0.7677 0.3465, -0.8858 0.7677 0.4252, -0.8287 0.7677 0.3465, -0.8287 0.7677 0.4252, -0.6713 0.7677 0.4252, -0.3287 0.7677 0.4252, -0.6713 0.7677 0.3465, -0.3287 0.7677 0.3465, -0.1713 0.7677 0.4252, 0.1713 0.7677 0.4252, -0.1713 0.7677 0.3465, 0.1713 0.7677 0.3465, 0.3287 0.7677 0.4252, 0.6713 0.7677 0.4252, 0.3287 0.7677 0.3465, 0.6713 0.7677 0.3465, -0.9646 -0.689 0.3465, -0.9635 -0.7022 0.3465, -0.9646 -0.689 0.4252, -0.9619 -0.7094 0.4252, -0.9613 -0.7092 0.3465, -0.9579 -0.7207 0.3465, -0.954 -0.7283 0.4252, -0.9535 -0.728 0.3465, -0.9479 -0.7374 0.3465, -0.9415 -0.7447 0.4252, -0.9411 -0.7442 0.3465, -0.9342 -0.7511 0.3465, -0.9252 -0.7572 0.4252, -0.9249 -0.7567 0.3465, -0.9176 -0.761 0.3465, -0.9062 -0.765 0.4252, -0.899 -0.7666 0.3465, -0.906 -0.7645 0.3465, 0.8287 -0.7677 0.3465, 0.8858 -0.7677 0.3465, 0.8287 -0.7677 0.4252, 0.8858 -0.7677 0.4252, 0.899 -0.7666 0.3465, 0.9062 -0.765 0.4252, 0.906 -0.7645 0.3465, 0.9176 -0.761 0.3465, 0.9252 -0.7572 0.4252, 0.9249 -0.7567 0.3465, 0.9342 -0.7511 0.3465, 0.9415 -0.7447 0.4252, 0.9411 -0.7442 0.3465, 0.9479 -0.7374 0.3465, 0.954 -0.7283 0.4252, 0.9535 -0.728 0.3465, 0.9579 -0.7207 0.3465, 0.9619 -0.7094 0.4252, 0.9646 -0.689 0.3465, 0.9646 -0.689 0.4252, 0.9635 -0.7022 0.3465, 0.9613 -0.7092 0.3465, 0.9646 0.689 0.4252, 0.9646 0.689 0.3465, 0.9635 0.7022 0.4252, 0.9635 0.7022 0.3465, 0.9613 0.7092 0.4252, 0.9613 0.7092 0.3465, 0.9579 0.7207 0.4252, 0.9579 0.7207 0.3465, 0.9535 0.728 0.4252, 0.9535 0.728 0.3465, 0.9479 0.7374 0.4252, 0.9479 0.7374 0.3465, 0.9411 0.7442 0.4252, 0.9411 0.7442 0.3465, 0.9342 0.7511 0.4252, 0.9342 0.7511 0.3465, 0.9249 0.7567 0.4252, 0.9249 0.7567 0.3465, 0.9176 0.761 0.4252, 0.9176 0.761 0.3465, 0.906 0.7645 0.4252, 0.906 0.7645 0.3465, 0.899 0.7666 0.4252, 0.899 0.7666 0.3465, 0.8858 0.7677 0.4252, 0.8858 0.7677 0.3465, 0.8287 0.7677 0.4252, 0.8287 0.7677 0.3465, -0.899 0.7666 0.4252, -0.899 0.7666 0.3465, -0.906 0.7645 0.4252, -0.906 0.7645 0.3465, -0.9176 0.761 0.4252, -0.9176 0.761 0.3465, -0.9249 0.7567 0.4252, -0.9249 0.7567 0.3465, -0.9342 0.7511 0.4252, -0.9342 0.7511 0.3465, -0.9411 0.7442 0.4252, -0.9411 0.7442 0.3465, -0.9479 0.7374 0.4252, -0.9479 0.7374 0.3465, -0.9535 0.728 0.4252, -0.9535 0.728 0.3465, -0.9579 0.7207 0.4252, -0.9579 0.7207 0.3465, -0.9613 0.7092 0.4252, -0.9613 0.7092 0.3465, -0.9635 0.7022 0.4252, -0.9635 0.7022 0.3465, -0.9646 0.689 0.4252, -0.9646 0.689 0.3465, -0.9378 -0.7127 0.5479, -0.9353 -0.7176 0.5467, -0.934 -0.7202 0.5461, -0.9405 -0.7044 0.5498, -0.9406 -0.7037 0.55, -0.9418 -0.6968 0.5515, -0.942 -0.689 0.5532, -0.9148 -0.7391 0.5415, -0.919 -0.7367 0.5421, -0.9265 -0.7296 0.5438, -0.9294 -0.7268 0.5445, -0.8858 -0.7476 0.5393, -0.8969 -0.7465 0.5396, -0.9009 -0.7452 0.5399, -0.908 -0.743 0.5405, 0.8858 -0.7476 0.5393, 0.9126 -0.7408 0.5411, 0.9014 -0.7454 0.5399, 0.901 -0.7455 0.5399, 0.8904 -0.7474 0.5394, 0.9234 -0.7331 0.543, 0.9148 -0.7392 0.5415, 0.9332 -0.7216 0.5458, 0.9264 -0.7296 0.5438, 0.9405 -0.7036 0.55, 0.9399 -0.7066 0.5493, 0.937 -0.7145 0.5475, 0.9353 -0.7176 0.5467, 0.9416 -0.698 0.5512, 0.942 -0.689 0.5532, 0.9217 0.689 0.6683, 0.9217 -0.5247 0.6683, 0.9215 0.692 0.6687, 0.9208 0.6949 0.6691, 0.9206 0.6958 0.6692, 0.9194 0.7008 0.6699, 0.9075 0.7167 0.6705, 0.9082 0.7162 0.6706, 0.9103 0.7146 0.6707, 0.9108 0.714 0.6706, 0.9137 0.7107 0.6706, 0.9153 0.7087 0.6705, 0.9182 0.7032 0.6701, 0.9186 0.7024 0.67, 0.896 0.723 0.6697, 0.8993 0.7216 0.67, 0.9001 0.7213 0.6701, 0.9031 0.72 0.6704, 0.9054 0.7183 0.6705, 0.8948 0.7235 0.6696, 0.8927 0.7238 0.6693, 0.8918 0.7239 0.6691, 0.8858 0.7249 0.6683, -0.8858 0.7249 0.6683, -0.8889 0.7246 0.6687, -0.8918 0.724 0.6691, -0.8927 0.7237 0.6692, -0.8976 0.7226 0.6699, -0.9136 0.7106 0.6705, -0.9131 0.7113 0.6706, -0.9115 0.7134 0.6707, -0.9108 0.714 0.6706, -0.9075 0.7168 0.6706, -0.9055 0.7185 0.6705, -0.9001 0.7213 0.6701, -0.8993 0.7217 0.67, -0.9208 0.6949 0.6691, -0.9207 0.6958 0.6693, -0.9203 0.6979 0.6696, -0.9198 0.6992 0.6697, -0.9185 0.7024 0.67, -0.9181 0.7032 0.6701, -0.9168 0.7063 0.6704, -0.9152 0.7085 0.6705, -0.9217 0.689 0.6683, -0.9217 -0.5247 0.6683, -0.5877 -0.2885 0.7008, 0.8829 -0.5247 0.7008, -0.5897 -0.2732 0.7008, 0.8829 0.6861 0.7008, -0.5956 -0.259 0.7008, -0.605 -0.2467 0.7008, -0.6979 -0.259 0.7008, -0.6885 -0.2467 0.7008, -0.8829 0.6861 0.7008, -0.6762 -0.2373 0.7008, -0.662 -0.2314 0.7008, -0.662 -0.3455 0.7008, -0.6762 -0.3396 0.7008, -0.8829 -0.5247 0.7008, -0.6885 -0.3302 0.7008, -0.6979 -0.318 0.7008, -0.5897 -0.3038 0.7008, -0.5956 -0.318 0.7008, -0.605 -0.3302 0.7008, -0.6467 -0.2294 0.7008, -0.6314 -0.2314 0.7008, -0.6172 -0.2373 0.7008, -0.6172 -0.3396 0.7008, -0.6314 -0.3455 0.7008, -0.6467 -0.3475 0.7008, -0.7038 -0.3038 0.7008, -0.7058 -0.2885 0.7008, -0.7038 -0.2732 0.7008, 0.9033 -0.7144 0.5767, 0.9032 -0.7116 0.5786, 0.8858 -0.7314 0.5647, 0.8829 -0.5473 0.6937, -0.8829 -0.5473 0.6937, -0.9032 -0.7116 0.5786, 0.9012 -0.7222 0.5712, 0.9023 -0.7198 0.5729, 0.8874 -0.7313 0.5648, -0.9034 -0.714 0.5769, -0.9031 -0.7164 0.5752, -0.8858 -0.7314 0.5647, 0.903 -0.7172 0.5747, 0.8911 -0.7306 0.5653, 0.8948 -0.7289 0.5665, 0.8983 -0.7262 0.5684, -0.9025 -0.7192 0.5733, -0.9015 -0.7217 0.5715, -0.9001 -0.724 0.57, -0.8969 -0.7274 0.5675, -0.8933 -0.7297 0.5659, -0.8896 -0.731 0.565, -0.8993 -0.7217 0.1016, -0.8976 -0.7226 0.1018, -0.8927 -0.7237 0.1024, -0.8918 -0.724 0.1025, -0.8889 -0.7246 0.1029, -0.8858 -0.7249 0.1034, -0.9136 -0.7106 0.1011, -0.9131 -0.7113 0.1011, -0.9115 -0.7134 0.101, -0.9108 -0.714 0.101, -0.9075 -0.7168 0.1011, -0.9055 -0.7185 0.1011, -0.9001 -0.7213 0.1016, -0.9208 -0.6949 0.1025, -0.9207 -0.6958 0.1024, -0.9198 -0.6992 0.102, -0.9185 -0.7024 0.1017, -0.9181 -0.7032 0.1016, -0.9168 -0.7063 0.1013, -0.9152 -0.7085 0.1012, -0.9203 -0.6979 0.1021, -0.9217 -0.689 0.1034, -0.9217 0.689 0.1034, -0.9182 0.7032 0.1016, -0.9186 0.7024 0.1016, -0.9194 0.7008 0.1018, -0.9206 0.6958 0.1024, -0.9208 0.6949 0.1025, -0.9215 0.692 0.1029, -0.9153 0.7087 0.1011, -0.9137 0.7107 0.1011, -0.9108 0.714 0.101, -0.9103 0.7146 0.101, -0.9054 0.7183 0.1012, -0.9075 0.7167 0.1011, -0.9082 0.7162 0.1011, -0.896 0.723 0.102, -0.8993 0.7216 0.1017, -0.9001 0.7213 0.1016, -0.9031 0.72 0.1013, -0.8948 0.7235 0.1021, -0.8927 0.7238 0.1024, -0.8918 0.7239 0.1025, -0.8858 0.7249 0.1034, 0.8858 0.7249 0.1034, 0.8993 0.7217 0.1016, 0.8976 0.7226 0.1018, 0.8927 0.7237 0.1024, 0.8918 0.724 0.1025, 0.8889 0.7246 0.1029, 0.9131 0.7113 0.1011, 0.9136 0.7106 0.1011, 0.9152 0.7085 0.1012, 0.9115 0.7134 0.101, 0.9108 0.714 0.101, 0.9075 0.7168 0.1011, 0.9055 0.7185 0.1011, 0.9001 0.7213 0.1016, 0.9168 0.7063 0.1013, 0.9181 0.7032 0.1016, 0.9185 0.7024 0.1017, 0.9198 0.6992 0.102, 0.9203 0.6979 0.1021, 0.9207 0.6958 0.1024, 0.9208 0.6949 0.1025, 0.9217 0.689 0.1034, 0.9217 -0.689 0.1034, 0.9215 -0.692 0.1029, 0.9194 -0.7008 0.1018, 0.9206 -0.6958 0.1024, 0.9208 -0.6949 0.1025, 0.9186 -0.7024 0.1016, 0.9182 -0.7032 0.1016, 0.9153 -0.7087 0.1011, 0.9137 -0.7107 0.1011, 0.9108 -0.714 0.101, 0.9103 -0.7146 0.101, 0.9054 -0.7183 0.1012, 0.9075 -0.7167 0.1011, 0.9082 -0.7162 0.1011, 0.8918 -0.7239 0.1025, 0.8927 -0.7238 0.1024, 0.8948 -0.7235 0.1021, 0.896 -0.723 0.102, 0.8993 -0.7216 0.1017, 0.9001 -0.7213 0.1016, 0.9031 -0.72 0.1013, 0.8858 -0.7249 0.1034, 0.8902 0.6866 0.0716, 0.8898 0.6866 0.0716, 0.891 0.6867 0.0717, 0.8963 -0.6871 0.0735, 0.8997 -0.6873 0.0748, 0.8924 -0.6868 0.072, 0.8902 -0.6866 0.0718, 0.8897 -0.6866 0.0717, 0.8998 0.6873 0.0747, 0.9002 0.6874 0.0749, 0.9026 -0.6875 0.0762, 0.9082 -0.688 0.0801, 0.8963 0.6871 0.0735, 0.9015 -0.6875 0.0755, 0.9025 0.6875 0.0764, 0.9082 0.688 0.0801, 0.9129 -0.6883 0.0851, 0.9148 -0.6885 0.0871, 0.913 0.6883 0.085, 0.915 -0.6885 0.0875, 0.914 0.6884 0.086, 0.9149 0.6885 0.0876, 0.9168 -0.6886 0.0907, 0.9195 -0.6888 0.0956, 0.9168 0.6886 0.0907, 0.9197 -0.6888 0.0964, 0.9197 0.6888 0.0968, 0.9198 -0.6888 0.0968, 0.9196 0.6888 0.0964, 0.9189 0.6888 0.0943, 0.9182 0.6986 0.0954, 0.9191 0.6954 0.0958, 0.9161 0.6946 0.0897, 0.8949 0.6913 0.073, 0.9074 0.6922 0.0796, 0.8875 0.6907 0.0714, 0.8856 0.6921 0.0714, 0.8937 0.7019 0.0755, 0.8965 0.6996 0.0754, 0.892 0.6952 0.0729, 0.905 0.7179 0.0977, 0.9104 0.7135 0.0976, 0.899 0.7211 0.0982, 0.9037 0.7158 0.0915, 0.9086 0.7118 0.0914, 0.9027 0.7144 0.0886, 0.9074 0.7105 0.0885, 0.9043 0.7075 0.0833, 0.8925 0.7232 0.099, 0.8923 0.7222 0.0958, 0.8857 0.7228 0.0968, 0.898 0.7189 0.0919, 0.8973 0.7174 0.089, 0.9001 0.7109 0.0834, 0.9006 0.7038 0.0789, 0.8915 0.7193 0.0897, 0.8854 0.7199 0.0907, 0.8919 0.7209 0.0927, 0.8856 0.7219 0.0939, 0.8856 0.7227 0.0964, 0.8971 0.7067 0.079, 0.8932 0.709 0.0792, 0.8954 0.7136 0.0837, 0.8904 0.7154 0.0842, 0.8853 0.718 0.0876, 0.8908 0.7038 0.0756, 0.8876 0.7051 0.0758, 0.8891 0.7106 0.0796, 0.8847 0.7101 0.0791, 0.8848 0.7113 0.0802, 0.8852 0.7167 0.0855, 0.8882 0.6981 0.073, 0.8835 0.6934 0.0716, 0.8839 0.6995 0.0735, 0.8841 0.7023 0.0744, 0.8842 0.7029 0.0747, 0.8843 0.7056 0.0764, 0.9006 0.6939 0.0756, 0.8988 0.6969 0.0755, 0.9122 0.6935 0.0842, 0.917 0.7017 0.095, 0.9153 0.6976 0.0893, 0.9156 0.7047 0.0948, 0.9078 0.7033 0.0834, 0.9095 0.7083 0.0885, 0.9113 0.7058 0.0886, 0.9119 0.7103 0.0944, 0.9096 0.7128 0.0944, 0.9044 0.717 0.0946, 0.8986 0.7202 0.095, 0.9138 0.7076 0.0946, 0.9129 0.7032 0.0888, 0.9142 0.7004 0.089, 0.9104 0.6986 0.0837, 0.9036 0.7003 0.079, 0.9058 0.6964 0.0792, 0.9019 0.6908 0.0758, 0.8834 0.6929 0.0715, 0.8834 0.6929 0.0715, 0.8955 -0.7213 0.0954, 0.8923 -0.7222 0.0958, 0.8915 -0.7193 0.0897, 0.8841 -0.7029 0.0748, 0.8839 -0.6995 0.0735, 0.8882 -0.6981 0.073, 0.8891 -0.7106 0.0796, 0.8848 -0.7113 0.0802, 0.8844 -0.7057 0.0763, 0.9019 -0.6908 0.0758, 0.9006 -0.6939 0.0756, 0.9191 -0.6954 0.0958, 0.9078 -0.7033 0.0834, 0.9043 -0.7075 0.0833, 0.9006 -0.7038 0.0789, 0.9086 -0.7118 0.0914, 0.9074 -0.7105 0.0885, 0.9113 -0.7058 0.0886, 0.9147 -0.7082 0.0977, 0.9104 -0.7135 0.0976, 0.918 -0.7022 0.0982, 0.9201 -0.6957 0.099, 0.9074 -0.6922 0.0796, 0.9122 -0.6935 0.0842, 0.9058 -0.6964 0.0792, 0.9104 -0.6986 0.0837, 0.9036 -0.7003 0.079, 0.9161 -0.6946 0.0897, 0.9127 -0.7068 0.0915, 0.9142 -0.7004 0.089, 0.9158 -0.7012 0.0919, 0.9177 -0.6951 0.0927, 0.8965 -0.6996 0.0754, 0.892 -0.6952 0.0729, 0.8988 -0.6969 0.0755, 0.8949 -0.6913 0.073, 0.889 -0.6887 0.0714, 0.8875 -0.6907 0.0714, 0.8843 -0.7046 0.0755, 0.8908 -0.7038 0.0756, 0.8836 -0.6956 0.072, 0.8835 -0.6933 0.0718, 0.8834 -0.6929 0.0717, 0.8937 -0.7019 0.0755, 0.8857 -0.723 0.0968, 0.8853 -0.7182 0.0875, 0.8853 -0.718 0.0872, 0.8857 -0.7229 0.0964, 0.8856 -0.7226 0.0956, 0.8854 -0.7199 0.0907, 0.8848 -0.712 0.0806, 0.8904 -0.7154 0.0842, 0.8851 -0.7161 0.0851, 0.8986 -0.7202 0.095, 0.8944 -0.7185 0.0893, 0.9016 -0.7187 0.0948, 0.9001 -0.7109 0.0834, 0.9051 -0.7126 0.0885, 0.9027 -0.7144 0.0886, 0.9071 -0.715 0.0944, 0.9096 -0.7128 0.0944, 0.9138 -0.7076 0.0946, 0.917 -0.7017 0.095, 0.9044 -0.717 0.0946, 0.9 -0.716 0.0888, 0.8973 -0.7174 0.089, 0.8954 -0.7136 0.0837, 0.8971 -0.7067 0.079, 0.8932 -0.709 0.0792, 0.8876 -0.7051 0.0758, -0.8852 0.7171 0.086, -0.8853 0.718 0.0876, -0.8855 0.7199 0.0907, -0.8857 0.7228 0.0968, -0.8857 0.7227 0.0964, -0.8856 0.7221 0.0943, -0.8852 0.7161 0.085, -0.8848 0.7114 0.0801, 0.8848 0.7113 0.0802, -0.8844 0.7056 0.0764, -0.8842 0.7033 0.0749, -0.8842 0.7029 0.0747, -0.8839 0.6995 0.0735, -0.8835 0.6941 0.0717, -0.8835 0.6934 0.0716, -0.8834 0.6929 0.0716, -0.8842 -0.7029 0.0748, -0.8835 -0.6933 0.0718, -0.8834 -0.6929 0.0717, -0.8839 -0.6994 0.0735, -0.8836 -0.6956 0.072, 0.8848 -0.7113 0.0801, -0.8848 -0.7114 0.0801, -0.8844 -0.7057 0.0762, -0.8843 -0.7046 0.0755, -0.8853 -0.7181 0.0875, -0.8853 -0.7179 0.0871, -0.8852 -0.7161 0.0851, -0.8855 -0.7199 0.0907, -0.8857 -0.7226 0.0956, -0.8857 -0.7228 0.0964, -0.8857 -0.723 0.0968, -0.8955 0.7213 0.0954, -0.8923 0.7222 0.0958, -0.8915 0.7193 0.0897, -0.8882 0.6981 0.073, -0.8891 0.7106 0.0796, -0.8875 0.6907 0.0714, -0.889 0.6887 0.0714, -0.8988 0.6969 0.0755, -0.8965 0.6996 0.0754, -0.892 0.6952 0.0729, -0.9147 0.7082 0.0977, -0.9104 0.7135 0.0976, -0.918 0.7022 0.0982, -0.9127 0.7068 0.0915, -0.9086 0.7118 0.0914, -0.9113 0.7058 0.0886, -0.9074 0.7105 0.0885, -0.9043 0.7075 0.0833, -0.9201 0.6957 0.099, -0.9191 0.6954 0.0958, -0.9197 0.6888 0.0968, -0.9158 0.7012 0.0919, -0.9142 0.7004 0.089, -0.9078 0.7033 0.0834, -0.9006 0.7038 0.0789, -0.9161 0.6946 0.0897, -0.9168 0.6886 0.0907, -0.9177 0.6951 0.0927, -0.9188 0.6887 0.0939, -0.9195 0.6888 0.0964, -0.9036 0.7003 0.079, -0.9058 0.6964 0.0792, -0.9104 0.6986 0.0837, -0.9122 0.6935 0.0842, -0.9149 0.6884 0.0876, -0.9006 0.6939 0.0756, -0.9019 0.6908 0.0758, -0.9074 0.6922 0.0796, -0.907 0.6878 0.0791, -0.9081 0.6879 0.0802, -0.9136 0.6883 0.0855, -0.8949 0.6913 0.073, -0.8902 0.6866 0.0716, -0.8963 0.6871 0.0735, -0.8991 0.6873 0.0744, -0.8997 0.6873 0.0747, -0.9025 0.6875 0.0764, -0.8908 0.7038 0.0756, -0.8937 0.7019 0.0755, -0.8904 0.7154 0.0842, -0.8986 0.7202 0.095, -0.8944 0.7185 0.0893, -0.9016 0.7187 0.0948, -0.9001 0.7109 0.0834, -0.9051 0.7126 0.0885, -0.9027 0.7144 0.0886, -0.9071 0.715 0.0944, -0.9096 0.7128 0.0944, -0.9138 0.7076 0.0946, -0.917 0.7017 0.095, -0.9044 0.717 0.0946, -0.9 0.716 0.0888, -0.8973 0.7174 0.089, -0.8954 0.7136 0.0837, -0.8971 0.7067 0.079, -0.8932 0.709 0.0792, -0.8876 0.7051 0.0758, -0.8898 0.6866 0.0715, -0.8898 0.6866 0.0715, -0.9182 -0.6986 0.0954, -0.9191 -0.6954 0.0958, -0.9161 -0.6946 0.0897, -0.8997 -0.6873 0.0748, -0.8963 -0.6871 0.0735, -0.8949 -0.6913 0.073, -0.9074 -0.6922 0.0796, -0.9082 -0.6879 0.0802, -0.9026 -0.6875 0.0763, -0.8876 -0.7051 0.0758, -0.8908 -0.7038 0.0756, -0.8923 -0.7222 0.0958, -0.9001 -0.7109 0.0834, -0.9043 -0.7075 0.0833, -0.9006 -0.7038 0.0789, -0.9086 -0.7118 0.0914, -0.9074 -0.7105 0.0885, -0.9027 -0.7144 0.0886, -0.905 -0.7179 0.0977, -0.9104 -0.7135 0.0976, -0.899 -0.7211 0.0982, -0.8925 -0.7232 0.099, -0.8891 -0.7106 0.0796, -0.8904 -0.7154 0.0842, -0.8932 -0.709 0.0792, -0.8954 -0.7136 0.0837, -0.8971 -0.7067 0.079, -0.8915 -0.7193 0.0897, -0.9037 -0.7158 0.0915, -0.8973 -0.7174 0.089, -0.898 -0.7189 0.0919, -0.8919 -0.7209 0.0927, -0.8965 -0.6996 0.0754, -0.892 -0.6952 0.0729, -0.8937 -0.7019 0.0755, -0.8882 -0.6981 0.073, -0.8856 -0.6921 0.0714, -0.8875 -0.6907 0.0714, -0.9015 -0.6874 0.0755, -0.9006 -0.6939 0.0756, -0.8925 -0.6868 0.072, -0.8902 -0.6866 0.0718, -0.8897 -0.6866 0.0717, -0.8988 -0.6969 0.0755, -0.9198 -0.6888 0.0968, -0.915 -0.6884 0.0875, -0.9149 -0.6884 0.0872, -0.9197 -0.6888 0.0964, -0.9195 -0.6888 0.0956, -0.9168 -0.6886 0.0907, -0.9089 -0.688 0.0806, -0.9122 -0.6935 0.0842, -0.9129 -0.6883 0.0851, -0.917 -0.7017 0.095, -0.9153 -0.6976 0.0893, -0.9156 -0.7047 0.0948, -0.9078 -0.7033 0.0834, -0.9095 -0.7083 0.0885, -0.9113 -0.7058 0.0886, -0.9119 -0.7103 0.0944, -0.9096 -0.7128 0.0944, -0.9044 -0.717 0.0946, -0.8986 -0.7202 0.095, -0.9138 -0.7076 0.0946, -0.9129 -0.7032 0.0888, -0.9142 -0.7004 0.089, -0.9104 -0.6986 0.0837, -0.9036 -0.7003 0.079, -0.9058 -0.6964 0.0792, -0.9019 -0.6908 0.0758, -0.9082 -0.6879 0.0801, -0.9081 0.6879 0.0802, -0.9396 -0.6944 0.5605, -0.9351 -0.6994 0.5669, -0.9389 -0.7015 0.5584, -0.9289 -0.7039 0.5723, -0.9342 -0.7058 0.5645, -0.9212 -0.7076 0.5761, -0.9279 -0.7093 0.5697, -0.9125 -0.7102 0.5783, -0.9205 -0.7119 0.5736, -0.9121 -0.7135 0.5761, -0.9372 -0.7084 0.5563, -0.9343 -0.7159 0.554, -0.9304 -0.7226 0.552, -0.926 -0.7283 0.5502, -0.9162 -0.7369 0.5474, -0.906 -0.7424 0.5456, -0.8959 -0.7454 0.5446, -0.8858 -0.7464 0.5443, -0.9324 -0.7118 0.5622, -0.9295 -0.7183 0.5597, -0.9259 -0.7241 0.5574, -0.9218 -0.7291 0.5554, -0.9129 -0.7365 0.5524, -0.9038 -0.7411 0.5505, -0.8947 -0.7437 0.5495, -0.8858 -0.7445 0.5491, -0.9263 -0.7144 0.5673, -0.9238 -0.7199 0.5646, -0.9206 -0.7248 0.5622, -0.9169 -0.729 0.5602, -0.9092 -0.7352 0.5571, -0.9013 -0.7392 0.5551, -0.8935 -0.7413 0.554, -0.8858 -0.742 0.5536, -0.9192 -0.7161 0.5712, -0.9172 -0.7206 0.5686, -0.9146 -0.7246 0.5663, -0.9116 -0.7281 0.5643, -0.9053 -0.7333 0.5612, -0.8987 -0.7366 0.5592, -0.8922 -0.7384 0.5581, -0.8858 -0.739 0.5578, -0.9114 -0.7168 0.5739, -0.91 -0.7203 0.5716, -0.9081 -0.7236 0.5694, -0.906 -0.7264 0.5675, -0.9011 -0.7307 0.5647, -0.896 -0.7334 0.5629, -0.8909 -0.7349 0.5618, -0.8858 -0.7354 0.5615, 0.8858 -0.7464 0.5443, 0.8858 -0.7445 0.5491, 0.8858 -0.742 0.5536, 0.8858 -0.739 0.5578, 0.8858 -0.7354 0.5615, -0.9193 -0.5301 0.6755, -0.9163 -0.5335 0.6799, -0.9185 -0.531 0.6767, -0.9086 -0.5396 0.6873, -0.9087 -0.5396 0.6872, -0.9116 -0.5375 0.6847, -0.9148 -0.5352 0.682, -0.8922 -0.5459 0.6933, -0.8948 -0.5451 0.6926, -0.8995 -0.5437 0.6915, -0.9009 -0.5433 0.6911, -0.9013 -0.5431 0.6909, -0.8888 -0.5464 0.6934, -0.8921 -0.5247 0.6997, -0.8902 -0.5247 0.6999, -0.8902 0.6866 0.7, -0.8898 0.6866 0.7001, -0.9197 0.6888 0.6748, -0.9196 -0.5247 0.6753, -0.914 0.6884 0.6856, -0.9149 0.6885 0.6841, -0.915 -0.5247 0.6841, -0.9168 0.6886 0.6809, -0.9192 -0.5247 0.6768, -0.9189 0.6888 0.6773, -0.9196 0.6888 0.6752, -0.9082 -0.5247 0.6916, -0.9082 0.688 0.6916, -0.9084 -0.5247 0.6915, -0.9146 -0.5247 0.6848, -0.913 0.6883 0.6866, -0.891 0.6867 0.6999, -0.8963 0.6871 0.6981, -0.8997 -0.5247 0.6969, -0.8998 0.6873 0.6969, -0.9007 -0.5247 0.6966, -0.9002 0.6874 0.6968, -0.9025 0.6875 0.6953, 0.9396 -0.6944 0.5605, 0.9387 -0.7026 0.558, 0.8899 -0.7462 0.5444, 0.8895 -0.7444 0.5492, 0.889 -0.7419 0.5537, 0.8885 -0.7389 0.5579, 0.8879 -0.7353 0.5616, 0.9 -0.7445 0.545, 0.9102 -0.7405 0.5463, 0.9203 -0.7338 0.5484, 0.9296 -0.7238 0.5516, 0.9335 -0.7175 0.5535, 0.9365 -0.7104 0.5557, 0.8984 -0.7429 0.5498, 0.9075 -0.7395 0.5512, 0.9166 -0.7338 0.5535, 0.9251 -0.7251 0.557, 0.9288 -0.7197 0.5591, 0.9318 -0.7136 0.5615, 0.9339 -0.7068 0.5642, 0.9351 -0.6994 0.5669, 0.8967 -0.7406 0.5543, 0.9046 -0.7378 0.5558, 0.9125 -0.733 0.5582, 0.9199 -0.7257 0.5618, 0.9231 -0.7211 0.564, 0.9257 -0.7159 0.5665, 0.9277 -0.7101 0.5693, 0.9289 -0.7039 0.5723, 0.8949 -0.7378 0.5585, 0.9014 -0.7354 0.5599, 0.9079 -0.7314 0.5623, 0.914 -0.7253 0.5659, 0.9166 -0.7216 0.568, 0.9187 -0.7173 0.5705, 0.9203 -0.7126 0.5732, 0.9212 -0.7076 0.5761, 0.893 -0.7344 0.5622, 0.8981 -0.7324 0.5635, 0.9032 -0.7291 0.5657, 0.9077 -0.7242 0.569, 0.9096 -0.7211 0.571, 0.911 -0.7177 0.5733, 0.912 -0.714 0.5757, 0.9125 -0.7102 0.5783, -0.9136 -0.5329 0.6848, -0.905 -0.5374 0.6915, -0.9009 -0.5427 0.6915, -0.8918 -0.5401 0.6966, -0.8875 -0.5419 0.6966, -0.8829 -0.5425 0.6966, -0.8829 -0.5402 0.6974, -0.8829 -0.5338 0.6997, -0.8853 -0.5335 0.6997, -0.8829 -0.5326 0.6999, -0.8918 -0.5271 0.6997, -0.8875 -0.5326 0.6997, -0.8894 -0.5312 0.6997, -0.8955 -0.5373 0.6966, -0.9001 -0.5293 0.6966, -0.8983 -0.5336 0.6966, -0.8908 -0.5293 0.6997, -0.9075 -0.5313 0.6915, -0.9182 0.6986 0.6763, -0.9191 0.6954 0.6759, -0.9161 0.6946 0.682, -0.8949 0.6913 0.6987, -0.9074 0.6922 0.6921, -0.8875 0.6907 0.7003, -0.8856 0.6921 0.7002, -0.8937 0.7019 0.6962, -0.8965 0.6996 0.6962, -0.892 0.6952 0.6987, -0.905 0.7179 0.6739, -0.9104 0.7135 0.6741, -0.899 0.7211 0.6734, -0.9037 0.7158 0.6801, -0.9086 0.7118 0.6803, -0.9027 0.7144 0.683, -0.9074 0.7105 0.6832, -0.9043 0.7075 0.6884, -0.8925 0.7232 0.6726, -0.8923 0.7222 0.6759, -0.8857 0.7228 0.6748, -0.898 0.7189 0.6797, -0.8973 0.7174 0.6826, -0.9001 0.7109 0.6883, -0.9006 0.7038 0.6928, -0.8915 0.7193 0.682, -0.8854 0.7199 0.681, -0.8919 0.7209 0.679, -0.8856 0.7219 0.6777, -0.8856 0.7227 0.6752, -0.8971 0.7067 0.6927, -0.8932 0.709 0.6925, -0.8954 0.7136 0.688, -0.8904 0.7154 0.6874, -0.8853 0.718 0.6841, -0.8908 0.7038 0.696, -0.8876 0.7051 0.6958, -0.8891 0.7106 0.6921, -0.8847 0.7101 0.6926, -0.8848 0.7113 0.6915, -0.8852 0.7167 0.6861, -0.8882 0.6981 0.6987, -0.8835 0.6934 0.7001, -0.8839 0.6995 0.6982, -0.8841 0.7023 0.6973, -0.8842 0.7029 0.6969, -0.8843 0.7056 0.6953, -0.9006 0.6939 0.696, -0.8988 0.6969 0.6962, -0.9122 0.6935 0.6874, -0.917 0.7017 0.6766, -0.9153 0.6976 0.6823, -0.9156 0.7047 0.6769, -0.9078 0.7033 0.6883, -0.9095 0.7083 0.6831, -0.9113 0.7058 0.683, -0.9119 0.7103 0.6772, -0.9096 0.7128 0.6773, -0.9044 0.717 0.6771, -0.8986 0.7202 0.6766, -0.9138 0.7076 0.6771, -0.9129 0.7032 0.6829, -0.9142 0.7004 0.6826, -0.9104 0.6986 0.688, -0.9036 0.7003 0.6927, -0.9058 0.6964 0.6925, -0.9019 0.6908 0.6958, -0.8834 0.6929 0.7002, -0.8834 0.6929 0.7002, 0.9193 -0.5301 0.6755, 0.9185 -0.531 0.6767, 0.9163 -0.5335 0.6799, 0.9148 -0.5352 0.682, 0.9116 -0.5375 0.6847, 0.9087 -0.5396 0.6872, 0.9086 -0.5396 0.6873, 0.9013 -0.5431 0.6909, 0.8948 -0.5451 0.6926, 0.8995 -0.5437 0.6915, 0.9009 -0.5433 0.6911, 0.8888 -0.5464 0.6934, 0.8922 -0.5459 0.6933, 0.8829 -0.5425 0.6966, 0.8829 -0.5402 0.6974, 0.8829 -0.5338 0.6997, 0.8829 -0.5326 0.6999, 0.8852 0.7171 0.6856, 0.8853 0.718 0.6841, 0.8857 0.7228 0.6748, 0.8857 0.7227 0.6752, 0.8855 0.7199 0.6809, 0.8856 0.7221 0.6773, 0.8852 0.7161 0.6866, 0.8848 0.7114 0.6916, -0.8848 0.7113 0.6915, 0.8844 0.7056 0.6953, 0.8842 0.7033 0.6968, 0.8842 0.7029 0.6969, 0.8839 0.6995 0.6981, 0.8835 0.6941 0.6999, 0.8835 0.6934 0.7, 0.8834 0.6929 0.7001, 0.8997 -0.5247 0.6969, 0.8921 -0.5247 0.6997, 0.8918 -0.5271 0.6997, 0.8894 -0.5312 0.6997, 0.8908 -0.5293 0.6997, 0.8875 -0.5326 0.6997, 0.8853 -0.5335 0.6997, 0.905 -0.5374 0.6915, 0.9075 -0.5313 0.6915, 0.9136 -0.5329 0.6848, 0.9009 -0.5427 0.6915, 0.8918 -0.5401 0.6966, 0.8955 -0.5373 0.6966, 0.8875 -0.5419 0.6966, 0.9001 -0.5293 0.6966, 0.9007 -0.5247 0.6966, 0.8983 -0.5336 0.6966, 0.9084 -0.5247 0.6915, 0.9082 -0.5247 0.6916, 0.8902 -0.5247 0.6999, 0.9146 -0.5247 0.6848, 0.915 -0.5247 0.6841, 0.9192 -0.5247 0.6768, 0.9196 -0.5247 0.6753, 0.8955 0.7213 0.6763, 0.8923 0.7222 0.6759, 0.8915 0.7193 0.682, 0.8882 0.6981 0.6987, 0.8891 0.7106 0.6921, 0.8875 0.6907 0.7003, 0.889 0.6887 0.7002, 0.8988 0.6969 0.6962, 0.8965 0.6996 0.6962, 0.892 0.6952 0.6987, 0.9147 0.7082 0.6739, 0.9104 0.7135 0.6741, 0.918 0.7022 0.6734, 0.9127 0.7068 0.6801, 0.9086 0.7118 0.6803, 0.9113 0.7058 0.683, 0.9074 0.7105 0.6832, 0.9043 0.7075 0.6884, 0.9201 0.6957 0.6726, 0.9191 0.6954 0.6759, 0.9197 0.6888 0.6748, 0.9158 0.7012 0.6797, 0.9142 0.7004 0.6826, 0.9078 0.7033 0.6883, 0.9006 0.7038 0.6928, 0.9161 0.6946 0.682, 0.9168 0.6886 0.681, 0.9177 0.6951 0.679, 0.9188 0.6887 0.6777, 0.9195 0.6888 0.6752, 0.9036 0.7003 0.6927, 0.9058 0.6964 0.6925, 0.9104 0.6986 0.688, 0.9122 0.6935 0.6874, 0.9149 0.6884 0.6841, 0.9006 0.6939 0.696, 0.9019 0.6908 0.6958, 0.9074 0.6922 0.6921, 0.907 0.6878 0.6926, 0.9081 0.6879 0.6915, 0.9136 0.6883 0.6861, 0.8949 0.6913 0.6987, 0.8902 0.6866 0.7001, 0.8963 0.6871 0.6982, 0.8991 0.6873 0.6973, 0.8997 0.6873 0.6969, 0.9025 0.6875 0.6953, 0.8908 0.7038 0.696, 0.8937 0.7019 0.6962, 0.8904 0.7154 0.6874, 0.8986 0.7202 0.6766, 0.8944 0.7185 0.6823, 0.9016 0.7187 0.6769, 0.9001 0.7109 0.6883, 0.9051 0.7126 0.6831, 0.9027 0.7144 0.683, 0.9071 0.715 0.6772, 0.9096 0.7128 0.6773, 0.9138 0.7076 0.6771, 0.917 0.7017 0.6766, 0.9044 0.717 0.6771, 0.9 0.716 0.6829, 0.8973 0.7174 0.6826, 0.8954 0.7136 0.688, 0.8971 0.7067 0.6927, 0.8932 0.709 0.6925, 0.8876 0.7051 0.6958, 0.8898 0.6866 0.7002, 0.8898 0.6866 0.7002, 0.9081 0.6879 0.6915
            ]
        }
        coordIndex [
            0,1,2,-1,3,4,5,-1,6,7,8,-1,8,9,10,-1,10,9,11,-1,11,12,13,-1,0,2,14,-1,14,2,15,-1,14,15,16,-1,7,16,8,-1,8,16,15,-1,8,15,17,-1,17,15,18,-1,17,18,19,-1,20,21,22,-1,22,21,23,-1,22,23,24,-1,5,4,25,-1,25,4,26,-1,25,26,27,-1,28,29,30,-1,30,29,31,-1,30,31,32,-1,1,33,2,-1,2,33,34,-1,2,34,35,-1,36,37,2,-1,2,37,38,-1,39,40,41,-1,41,40,42,-1,38,43,2,-1,2,43,42,-1,2,42,44,-1,44,42,40,-1,45,46,26,-1,26,46,47,-1,26,47,27,-1,27,48,25,-1,25,48,49,-1,25,49,50,-1,50,49,51,-1,50,51,52,-1,32,53,30,-1,30,53,54,-1,30,54,55,-1,35,56,2,-1,2,56,57,-1,2,57,36,-1,13,24,11,-1,11,24,23,-1,11,23,10,-1,10,23,58,-1,10,58,26,-1,26,58,17,-1,26,17,45,-1,45,17,19,-1,51,59,52,-1,52,59,60,-1,52,60,30,-1,30,60,61,-1,30,61,28,-1,5,55,3,-1,3,55,54,-1,3,54,62,-1,62,54,63,-1,63,54,64,-1,63,64,65,-1,66,67,10,-1,68,69,70,-1,70,69,71,-1,70,71,72,-1,73,74,75,-1,75,74,76,-1,77,75,78,-1,78,75,76,-1,78,76,26,-1,26,76,70,-1,72,79,70,-1,70,79,80,-1,70,80,26,-1,26,80,81,-1,26,81,10,-1,77,78,67,-1,67,78,82,-1,67,82,10,-1,66,83,84,-1,81,85,10,-1,10,85,86,-1,10,86,66,-1,66,86,87,-1,66,87,83,-1,84,88,66,-1,66,88,89,-1,66,89,90,-1,90,91,66,-1,66,91,92,-1,66,92,70,-1,70,92,93,-1,70,93,68,-1,6,8,65,-1,65,8,10,-1,65,10,63,-1,63,10,82,-1,63,82,94,-1,95,96,97,-1,97,96,98,-1,99,100,101,-1,101,100,102,-1,103,104,105,-1,105,104,106,-1,107,108,109,-1,109,108,110,-1,111,112,113,-1,113,112,114,-1,115,116,117,-1,117,116,118,-1,119,120,121,-1,121,120,122,-1,123,124,125,-1,125,124,126,-1,127,128,129,-1,129,128,130,-1,128,131,130,-1,130,131,132,-1,130,132,133,-1,132,134,133,-1,133,134,135,-1,133,135,136,-1,135,137,136,-1,136,137,138,-1,136,138,139,-1,138,140,139,-1,139,140,141,-1,139,141,142,-1,96,95,143,-1,143,95,142,-1,143,142,144,-1,144,142,141,-1,145,146,147,-1,147,146,148,-1,146,149,148,-1,148,149,150,-1,149,151,150,-1,150,151,152,-1,150,152,153,-1,152,154,153,-1,153,154,155,-1,153,155,156,-1,155,157,156,-1,156,157,158,-1,156,158,159,-1,158,160,159,-1,159,160,161,-1,159,161,162,-1,163,164,165,-1,165,164,162,-1,165,162,166,-1,166,162,161,-1,167,164,168,-1,168,164,163,-1,167,168,169,-1,169,168,170,-1,169,170,171,-1,171,170,172,-1,171,172,173,-1,173,172,174,-1,173,174,175,-1,175,174,176,-1,175,176,177,-1,177,176,178,-1,177,178,179,-1,179,178,180,-1,179,180,181,-1,181,180,182,-1,181,182,183,-1,183,182,184,-1,183,184,185,-1,185,184,186,-1,185,186,187,-1,187,186,188,-1,187,188,189,-1,189,188,190,-1,189,190,191,-1,191,190,192,-1,193,191,194,-1,194,191,192,-1,112,111,195,-1,195,111,196,-1,195,196,197,-1,197,196,198,-1,197,198,199,-1,199,198,200,-1,199,200,201,-1,201,200,202,-1,201,202,203,-1,203,202,204,-1,203,204,205,-1,205,204,206,-1,205,206,207,-1,207,206,208,-1,207,208,209,-1,209,208,210,-1,209,210,211,-1,211,210,212,-1,211,212,213,-1,213,212,214,-1,213,214,215,-1,215,214,216,-1,215,216,217,-1,217,216,218,-1,129,217,127,-1,127,217,218,-1,219,130,220,-1,220,130,133,-1,220,133,221,-1,219,222,130,-1,130,222,223,-1,130,223,129,-1,129,223,224,-1,129,224,225,-1,136,139,226,-1,226,227,136,-1,136,227,228,-1,136,228,133,-1,133,228,229,-1,133,229,221,-1,142,95,230,-1,230,231,142,-1,142,231,232,-1,142,232,139,-1,139,232,233,-1,139,233,226,-1,95,97,230,-1,230,97,101,-1,101,102,230,-1,230,102,105,-1,230,105,234,-1,234,105,106,-1,234,106,109,-1,109,110,234,-1,234,110,147,-1,234,147,148,-1,150,153,235,-1,235,236,150,-1,150,236,237,-1,150,237,148,-1,148,237,238,-1,148,238,234,-1,156,239,153,-1,153,239,240,-1,153,240,235,-1,159,241,156,-1,156,241,242,-1,156,242,239,-1,243,244,162,-1,162,244,245,-1,162,245,159,-1,159,245,246,-1,159,246,241,-1,243,162,247,-1,247,162,164,-1,247,164,248,-1,167,249,164,-1,164,249,250,-1,164,250,248,-1,249,167,251,-1,251,167,169,-1,251,169,252,-1,252,169,253,-1,253,169,171,-1,253,171,254,-1,181,255,179,-1,179,255,256,-1,256,257,179,-1,179,257,258,-1,179,258,177,-1,177,258,259,-1,177,259,175,-1,175,259,260,-1,175,260,173,-1,173,260,261,-1,173,261,171,-1,171,261,262,-1,171,262,254,-1,263,264,185,-1,185,264,265,-1,185,265,183,-1,183,265,266,-1,183,266,181,-1,181,266,267,-1,181,267,255,-1,263,185,268,-1,268,185,187,-1,268,187,269,-1,269,187,189,-1,269,189,270,-1,270,189,191,-1,270,191,271,-1,191,193,271,-1,271,193,124,-1,124,123,271,-1,271,123,120,-1,271,120,272,-1,272,120,119,-1,272,119,116,-1,116,115,272,-1,272,115,114,-1,272,114,112,-1,272,112,273,-1,273,112,195,-1,273,195,274,-1,274,195,275,-1,275,195,197,-1,275,197,276,-1,207,277,205,-1,205,277,278,-1,278,279,205,-1,205,279,280,-1,205,280,203,-1,203,280,281,-1,203,281,201,-1,201,281,282,-1,201,282,199,-1,199,282,283,-1,199,283,197,-1,197,283,284,-1,197,284,276,-1,285,286,213,-1,213,286,211,-1,211,286,287,-1,211,287,288,-1,288,289,211,-1,211,289,290,-1,211,290,209,-1,209,290,291,-1,209,291,207,-1,207,291,292,-1,207,292,277,-1,213,215,285,-1,285,215,217,-1,285,217,293,-1,293,217,294,-1,294,217,129,-1,294,129,225,-1,295,296,297,-1,297,296,298,-1,297,298,299,-1,299,298,300,-1,301,302,303,-1,303,302,304,-1,303,304,305,-1,306,307,308,-1,308,307,309,-1,308,309,310,-1,295,311,296,-1,296,311,312,-1,296,312,313,-1,305,314,303,-1,303,314,315,-1,303,315,298,-1,298,315,316,-1,298,316,300,-1,313,317,296,-1,296,317,318,-1,296,318,308,-1,308,318,319,-1,308,319,306,-1,310,320,308,-1,308,320,321,-1,308,321,303,-1,303,321,322,-1,303,322,301,-1,323,324,325,-1,324,326,325,-1,325,326,327,-1,325,327,328,-1,329,330,331,-1,328,332,325,-1,325,332,333,-1,325,333,334,-1,331,330,325,-1,325,330,335,-1,325,335,323,-1,336,337,331,-1,331,337,338,-1,331,338,329,-1,333,339,334,-1,334,339,340,-1,334,340,341,-1,341,342,334,-1,334,342,343,-1,334,343,344,-1,345,346,141,-1,141,346,347,-1,141,347,144,-1,144,347,348,-1,144,348,143,-1,143,348,349,-1,143,349,96,-1,96,349,350,-1,135,351,137,-1,137,351,352,-1,352,353,137,-1,137,353,354,-1,137,354,138,-1,138,354,355,-1,138,355,140,-1,140,355,356,-1,140,356,141,-1,141,356,357,-1,141,357,345,-1,358,359,131,-1,360,361,132,-1,132,361,362,-1,132,362,134,-1,134,362,363,-1,134,363,135,-1,135,363,364,-1,135,364,351,-1,131,359,132,-1,132,359,365,-1,132,365,360,-1,131,128,358,-1,358,128,127,-1,358,127,366,-1,366,127,367,-1,367,127,218,-1,212,368,369,-1,369,370,212,-1,212,370,371,-1,212,371,214,-1,214,371,372,-1,214,372,216,-1,216,372,373,-1,216,373,218,-1,218,373,367,-1,368,212,374,-1,374,212,210,-1,374,210,375,-1,375,210,208,-1,375,208,376,-1,376,208,206,-1,376,206,377,-1,202,378,204,-1,204,378,379,-1,204,379,206,-1,206,379,380,-1,206,380,377,-1,381,382,200,-1,200,382,383,-1,200,383,202,-1,202,383,384,-1,202,384,378,-1,381,200,385,-1,385,200,198,-1,385,198,386,-1,386,198,196,-1,386,196,387,-1,387,196,111,-1,387,111,388,-1,111,113,388,-1,388,113,117,-1,117,118,388,-1,388,118,121,-1,388,121,389,-1,389,121,122,-1,389,122,125,-1,125,126,389,-1,389,126,194,-1,389,194,192,-1,390,391,186,-1,186,391,392,-1,186,392,188,-1,188,392,393,-1,188,393,190,-1,190,393,394,-1,190,394,192,-1,192,394,389,-1,395,180,396,-1,396,180,178,-1,396,178,397,-1,395,398,180,-1,180,398,399,-1,180,399,182,-1,182,399,400,-1,182,400,184,-1,184,400,401,-1,184,401,186,-1,186,401,402,-1,186,402,390,-1,397,178,403,-1,403,178,176,-1,403,176,404,-1,404,176,174,-1,404,174,405,-1,405,174,406,-1,406,174,172,-1,406,172,407,-1,407,172,408,-1,408,172,170,-1,408,170,409,-1,409,170,168,-1,409,168,410,-1,410,168,411,-1,411,168,163,-1,411,163,412,-1,412,163,165,-1,413,414,165,-1,165,414,415,-1,165,415,412,-1,413,165,416,-1,416,165,166,-1,416,166,417,-1,417,166,161,-1,417,161,418,-1,418,161,160,-1,418,160,419,-1,419,160,158,-1,419,158,420,-1,420,158,157,-1,420,157,421,-1,154,422,155,-1,155,422,423,-1,155,423,157,-1,157,423,424,-1,157,424,421,-1,425,426,151,-1,151,426,152,-1,152,426,427,-1,152,427,428,-1,428,429,152,-1,152,429,430,-1,152,430,154,-1,154,430,431,-1,154,431,422,-1,151,149,425,-1,425,149,146,-1,425,146,432,-1,108,432,145,-1,145,432,146,-1,108,107,432,-1,432,107,104,-1,432,104,350,-1,350,104,103,-1,350,103,100,-1,100,99,350,-1,350,99,98,-1,350,98,96,-1,433,3,434,-1,434,3,62,-1,433,435,436,-1,436,435,437,-1,436,438,433,-1,433,438,439,-1,433,439,3,-1,3,439,440,-1,3,440,4,-1,441,442,443,-1,443,442,444,-1,435,445,437,-1,437,445,441,-1,437,441,446,-1,446,441,443,-1,442,447,444,-1,444,447,448,-1,444,448,449,-1,449,448,450,-1,450,448,451,-1,450,451,452,-1,451,453,452,-1,452,453,454,-1,452,454,455,-1,455,454,456,-1,456,454,457,-1,456,457,458,-1,410,411,459,-1,459,411,460,-1,459,460,461,-1,461,460,458,-1,461,458,462,-1,462,458,457,-1,463,464,465,-1,441,445,466,-1,467,448,447,-1,468,62,469,-1,470,471,472,-1,473,401,400,-1,473,400,474,-1,401,473,402,-1,402,473,475,-1,402,475,390,-1,476,477,478,-1,478,477,479,-1,478,479,480,-1,481,392,475,-1,475,392,391,-1,475,391,390,-1,393,482,394,-1,394,482,483,-1,394,483,389,-1,484,476,485,-1,485,476,478,-1,485,478,486,-1,486,478,480,-1,486,480,487,-1,488,489,490,-1,490,489,491,-1,490,491,492,-1,471,470,493,-1,493,470,494,-1,493,494,495,-1,495,494,496,-1,495,496,488,-1,488,496,497,-1,488,497,489,-1,498,499,500,-1,499,501,500,-1,500,501,502,-1,500,502,503,-1,504,469,505,-1,505,506,504,-1,504,506,507,-1,504,507,498,-1,498,507,508,-1,498,508,499,-1,499,508,509,-1,499,509,501,-1,442,441,510,-1,434,468,433,-1,433,468,472,-1,433,472,435,-1,490,484,488,-1,488,484,485,-1,488,485,495,-1,495,485,486,-1,495,486,493,-1,493,486,487,-1,493,487,471,-1,471,487,511,-1,471,511,472,-1,472,511,466,-1,472,466,435,-1,435,466,445,-1,410,459,409,-1,409,459,464,-1,405,406,463,-1,463,406,407,-1,463,407,464,-1,464,407,408,-1,464,408,409,-1,459,461,464,-1,464,461,462,-1,464,462,465,-1,465,462,457,-1,465,457,454,-1,448,467,451,-1,451,467,512,-1,451,512,453,-1,404,405,513,-1,513,405,463,-1,513,463,514,-1,514,463,465,-1,514,465,512,-1,512,465,454,-1,512,454,453,-1,397,403,515,-1,516,517,518,-1,518,517,519,-1,519,520,474,-1,474,520,521,-1,474,521,473,-1,473,521,522,-1,473,522,475,-1,475,522,482,-1,475,482,481,-1,481,482,393,-1,481,393,392,-1,395,519,398,-1,398,519,474,-1,398,474,399,-1,399,474,400,-1,396,397,523,-1,523,397,515,-1,523,515,524,-1,524,515,525,-1,524,525,526,-1,395,396,519,-1,519,396,523,-1,519,523,518,-1,518,523,524,-1,518,524,516,-1,516,524,526,-1,516,526,527,-1,527,526,528,-1,527,528,510,-1,510,528,529,-1,510,529,442,-1,403,404,515,-1,515,404,513,-1,515,513,525,-1,525,513,514,-1,525,514,526,-1,526,514,512,-1,526,512,528,-1,528,512,467,-1,528,467,529,-1,529,467,447,-1,529,447,442,-1,62,530,469,-1,469,530,531,-1,469,531,505,-1,468,469,472,-1,472,469,504,-1,472,504,470,-1,470,504,498,-1,470,498,494,-1,494,498,500,-1,494,500,496,-1,496,500,503,-1,496,503,497,-1,434,62,468,-1,441,466,510,-1,510,466,511,-1,510,511,527,-1,527,511,487,-1,527,487,516,-1,516,487,480,-1,516,480,517,-1,517,480,479,-1,517,479,519,-1,519,479,477,-1,519,477,520,-1,520,477,476,-1,520,476,521,-1,521,476,484,-1,521,484,522,-1,522,484,490,-1,522,490,482,-1,482,490,492,-1,482,492,483,-1,532,533,534,-1,535,536,537,-1,538,539,540,-1,541,542,446,-1,458,460,543,-1,544,545,546,-1,547,548,549,-1,550,418,419,-1,550,419,551,-1,418,550,417,-1,417,550,552,-1,417,552,416,-1,553,414,552,-1,552,414,413,-1,552,413,416,-1,415,543,412,-1,412,543,460,-1,412,460,411,-1,554,555,556,-1,556,555,557,-1,556,557,558,-1,449,450,559,-1,559,450,452,-1,559,452,455,-1,547,549,560,-1,560,549,561,-1,560,561,562,-1,562,561,559,-1,562,559,563,-1,563,559,455,-1,563,455,456,-1,564,565,566,-1,566,565,567,-1,566,567,542,-1,541,554,542,-1,542,554,556,-1,542,556,566,-1,566,556,558,-1,566,558,564,-1,4,440,568,-1,568,440,439,-1,569,4,568,-1,439,438,567,-1,567,438,436,-1,567,436,542,-1,542,436,437,-1,542,437,446,-1,570,535,571,-1,572,573,565,-1,439,567,568,-1,568,567,565,-1,568,565,569,-1,569,565,573,-1,569,573,574,-1,557,544,558,-1,558,544,546,-1,558,546,564,-1,564,546,575,-1,564,575,565,-1,565,575,537,-1,565,537,572,-1,572,537,536,-1,432,576,425,-1,425,576,533,-1,429,428,532,-1,532,428,427,-1,532,427,533,-1,533,427,426,-1,533,426,425,-1,577,578,534,-1,576,579,533,-1,533,579,580,-1,533,580,534,-1,534,580,581,-1,534,581,577,-1,539,538,582,-1,582,538,583,-1,582,583,584,-1,430,429,585,-1,585,429,532,-1,585,532,586,-1,586,532,534,-1,586,534,583,-1,583,534,578,-1,583,578,584,-1,422,431,587,-1,588,589,590,-1,590,589,591,-1,591,592,551,-1,551,592,593,-1,551,593,550,-1,550,593,594,-1,550,594,552,-1,552,594,543,-1,552,543,553,-1,553,543,415,-1,553,415,414,-1,424,591,421,-1,421,591,551,-1,421,551,420,-1,420,551,419,-1,423,422,595,-1,595,422,587,-1,595,587,596,-1,596,587,597,-1,596,597,598,-1,424,423,591,-1,591,423,595,-1,591,595,590,-1,590,595,596,-1,590,596,588,-1,588,596,598,-1,588,598,599,-1,599,598,600,-1,599,600,571,-1,571,600,601,-1,571,601,570,-1,431,430,587,-1,587,430,585,-1,587,585,597,-1,597,585,586,-1,597,586,598,-1,598,586,583,-1,598,583,600,-1,600,583,538,-1,600,538,601,-1,601,538,540,-1,601,540,570,-1,548,545,549,-1,549,545,544,-1,549,544,561,-1,561,544,557,-1,561,557,559,-1,559,557,555,-1,559,555,449,-1,449,555,554,-1,449,554,444,-1,444,554,541,-1,444,541,443,-1,443,541,446,-1,574,4,569,-1,535,537,571,-1,571,537,575,-1,571,575,599,-1,599,575,546,-1,599,546,588,-1,588,546,545,-1,588,545,589,-1,589,545,548,-1,589,548,591,-1,591,548,547,-1,591,547,592,-1,592,547,560,-1,592,560,593,-1,593,560,562,-1,593,562,594,-1,594,562,563,-1,594,563,543,-1,543,563,456,-1,543,456,458,-1,602,603,497,-1,497,603,489,-1,489,603,491,-1,491,603,604,-1,491,604,492,-1,388,389,605,-1,605,389,483,-1,605,483,606,-1,606,483,492,-1,606,492,607,-1,607,492,604,-1,602,497,608,-1,608,497,503,-1,608,503,609,-1,609,503,610,-1,609,610,611,-1,611,610,501,-1,611,501,612,-1,612,501,509,-1,612,509,613,-1,613,509,508,-1,613,508,614,-1,614,508,507,-1,614,507,615,-1,615,507,506,-1,615,506,616,-1,505,531,63,-1,63,531,530,-1,63,530,62,-1,506,505,616,-1,616,505,63,-1,616,63,617,-1,617,63,94,-1,576,432,350,-1,536,535,618,-1,574,573,619,-1,26,4,574,-1,574,619,26,-1,26,619,620,-1,26,620,78,-1,536,618,572,-1,572,618,621,-1,572,621,573,-1,573,621,622,-1,573,622,619,-1,540,623,624,-1,540,624,570,-1,570,624,625,-1,570,625,535,-1,535,625,626,-1,535,626,618,-1,584,627,582,-1,582,627,628,-1,582,628,623,-1,623,628,629,-1,623,629,624,-1,584,578,627,-1,627,578,577,-1,627,577,630,-1,630,577,631,-1,631,577,581,-1,631,581,632,-1,632,581,580,-1,632,580,579,-1,576,350,579,-1,579,350,633,-1,579,633,632,-1,634,635,636,-1,613,614,637,-1,638,609,611,-1,639,94,640,-1,641,642,643,-1,644,374,375,-1,644,375,645,-1,374,644,368,-1,368,644,646,-1,368,646,369,-1,647,648,649,-1,649,648,650,-1,649,650,651,-1,652,371,646,-1,646,371,370,-1,646,370,369,-1,372,653,373,-1,373,653,654,-1,373,654,367,-1,655,647,656,-1,656,647,649,-1,656,649,657,-1,657,649,651,-1,657,651,658,-1,659,660,661,-1,661,660,662,-1,661,662,663,-1,642,641,664,-1,664,641,665,-1,664,665,666,-1,666,665,667,-1,666,667,659,-1,659,667,668,-1,659,668,660,-1,669,670,671,-1,670,672,671,-1,671,672,673,-1,671,673,674,-1,675,640,676,-1,676,677,675,-1,675,677,678,-1,675,678,669,-1,669,678,679,-1,669,679,670,-1,670,679,680,-1,670,680,672,-1,612,613,681,-1,617,639,616,-1,616,639,643,-1,616,643,615,-1,661,655,659,-1,659,655,656,-1,659,656,666,-1,666,656,657,-1,666,657,664,-1,664,657,658,-1,664,658,642,-1,642,658,682,-1,642,682,643,-1,643,682,637,-1,643,637,615,-1,615,637,614,-1,388,605,387,-1,387,605,635,-1,382,381,634,-1,634,381,385,-1,634,385,635,-1,635,385,386,-1,635,386,387,-1,605,606,635,-1,635,606,607,-1,635,607,636,-1,636,607,604,-1,636,604,603,-1,609,638,608,-1,608,638,683,-1,608,683,602,-1,383,382,684,-1,684,382,634,-1,684,634,685,-1,685,634,636,-1,685,636,683,-1,683,636,603,-1,683,603,602,-1,378,384,686,-1,687,688,689,-1,689,688,690,-1,690,691,645,-1,645,691,692,-1,645,692,644,-1,644,692,693,-1,644,693,646,-1,646,693,653,-1,646,653,652,-1,652,653,372,-1,652,372,371,-1,380,690,377,-1,377,690,645,-1,377,645,376,-1,376,645,375,-1,379,378,694,-1,694,378,686,-1,694,686,695,-1,695,686,696,-1,695,696,697,-1,380,379,690,-1,690,379,694,-1,690,694,689,-1,689,694,695,-1,689,695,687,-1,687,695,697,-1,687,697,698,-1,698,697,699,-1,698,699,681,-1,681,699,700,-1,681,700,612,-1,384,383,686,-1,686,383,684,-1,686,684,696,-1,696,684,685,-1,696,685,697,-1,697,685,683,-1,697,683,699,-1,699,683,638,-1,699,638,700,-1,700,638,611,-1,700,611,612,-1,94,701,640,-1,640,701,702,-1,640,702,676,-1,639,640,643,-1,643,640,675,-1,643,675,641,-1,641,675,669,-1,641,669,665,-1,665,669,671,-1,665,671,667,-1,667,671,674,-1,667,674,668,-1,617,94,639,-1,613,637,681,-1,681,637,682,-1,681,682,698,-1,698,682,658,-1,698,658,687,-1,687,658,651,-1,687,651,688,-1,688,651,650,-1,688,650,690,-1,690,650,648,-1,690,648,691,-1,691,648,647,-1,691,647,692,-1,692,647,655,-1,692,655,693,-1,693,655,661,-1,693,661,653,-1,653,661,663,-1,653,663,654,-1,703,704,705,-1,706,707,708,-1,709,710,711,-1,712,713,626,-1,632,633,714,-1,715,716,717,-1,718,719,720,-1,721,356,355,-1,721,355,722,-1,356,721,357,-1,357,721,723,-1,357,723,345,-1,724,347,723,-1,723,347,346,-1,723,346,345,-1,348,714,349,-1,349,714,633,-1,349,633,350,-1,725,726,727,-1,727,726,728,-1,727,728,729,-1,629,628,730,-1,730,628,627,-1,730,627,630,-1,718,720,731,-1,731,720,732,-1,731,732,733,-1,733,732,730,-1,733,730,734,-1,734,730,630,-1,734,630,631,-1,735,736,737,-1,737,736,738,-1,737,738,713,-1,712,725,713,-1,713,725,727,-1,713,727,737,-1,737,727,729,-1,737,729,735,-1,78,620,739,-1,739,620,619,-1,740,78,739,-1,619,622,738,-1,738,622,621,-1,738,621,713,-1,713,621,618,-1,713,618,626,-1,741,706,742,-1,743,744,736,-1,619,738,739,-1,739,738,736,-1,739,736,740,-1,740,736,744,-1,740,744,745,-1,728,715,729,-1,729,715,717,-1,729,717,735,-1,735,717,746,-1,735,746,736,-1,736,746,708,-1,736,708,743,-1,743,708,707,-1,366,747,358,-1,358,747,704,-1,361,360,703,-1,703,360,365,-1,703,365,704,-1,704,365,359,-1,704,359,358,-1,748,749,705,-1,747,750,704,-1,704,750,751,-1,704,751,705,-1,705,751,752,-1,705,752,748,-1,710,709,753,-1,753,709,754,-1,753,754,755,-1,362,361,756,-1,756,361,703,-1,756,703,757,-1,757,703,705,-1,757,705,754,-1,754,705,749,-1,754,749,755,-1,364,363,758,-1,759,760,761,-1,761,760,762,-1,762,763,722,-1,722,763,764,-1,722,764,721,-1,721,764,765,-1,721,765,723,-1,723,765,714,-1,723,714,724,-1,724,714,348,-1,724,348,347,-1,352,762,353,-1,353,762,722,-1,353,722,354,-1,354,722,355,-1,351,364,766,-1,766,364,758,-1,766,758,767,-1,767,758,768,-1,767,768,769,-1,352,351,762,-1,762,351,766,-1,762,766,761,-1,761,766,767,-1,761,767,759,-1,759,767,769,-1,759,769,770,-1,770,769,771,-1,770,771,742,-1,742,771,772,-1,742,772,741,-1,363,362,758,-1,758,362,756,-1,758,756,768,-1,768,756,757,-1,768,757,769,-1,769,757,754,-1,769,754,771,-1,771,754,709,-1,771,709,772,-1,772,709,711,-1,772,711,741,-1,719,716,720,-1,720,716,715,-1,720,715,732,-1,732,715,728,-1,732,728,730,-1,730,728,726,-1,730,726,629,-1,629,726,725,-1,629,725,624,-1,624,725,712,-1,624,712,625,-1,625,712,626,-1,745,78,740,-1,706,708,742,-1,742,708,746,-1,742,746,770,-1,770,746,717,-1,770,717,759,-1,759,717,716,-1,759,716,760,-1,760,716,719,-1,760,719,762,-1,762,719,718,-1,762,718,763,-1,763,718,731,-1,763,731,764,-1,764,731,733,-1,764,733,765,-1,765,733,734,-1,765,734,714,-1,714,734,631,-1,714,631,632,-1,752,663,662,-1,752,662,748,-1,366,367,747,-1,747,367,654,-1,747,654,750,-1,750,654,663,-1,750,663,751,-1,751,663,752,-1,662,660,748,-1,748,660,668,-1,748,668,749,-1,749,668,755,-1,701,94,82,-1,755,668,753,-1,753,668,674,-1,753,674,773,-1,773,674,774,-1,773,774,711,-1,711,774,672,-1,711,672,741,-1,741,672,680,-1,741,680,706,-1,706,680,679,-1,706,679,707,-1,707,679,678,-1,707,678,743,-1,743,678,677,-1,743,677,744,-1,744,677,676,-1,744,676,745,-1,82,78,745,-1,745,676,82,-1,82,676,702,-1,82,702,701,-1,775,225,224,-1,776,775,777,-1,778,776,779,-1,780,778,781,-1,782,780,783,-1,328,782,784,-1,775,224,777,-1,777,224,223,-1,777,223,785,-1,223,222,785,-1,785,222,219,-1,785,219,786,-1,786,219,220,-1,786,220,787,-1,220,221,787,-1,787,221,229,-1,787,229,788,-1,788,229,228,-1,788,228,789,-1,228,227,789,-1,789,227,226,-1,789,226,790,-1,790,226,233,-1,790,233,791,-1,791,233,232,-1,232,231,791,-1,791,231,230,-1,791,230,792,-1,776,777,779,-1,779,777,785,-1,779,785,793,-1,793,785,786,-1,793,786,794,-1,794,786,787,-1,794,787,795,-1,795,787,788,-1,795,788,796,-1,796,788,789,-1,796,789,797,-1,797,789,790,-1,797,790,798,-1,798,790,791,-1,798,791,799,-1,799,791,792,-1,799,792,800,-1,778,779,781,-1,781,779,793,-1,781,793,801,-1,801,793,794,-1,801,794,802,-1,802,794,795,-1,802,795,803,-1,803,795,796,-1,803,796,804,-1,804,796,797,-1,804,797,805,-1,805,797,798,-1,805,798,806,-1,806,798,799,-1,806,799,807,-1,807,799,800,-1,807,800,808,-1,780,781,783,-1,783,781,801,-1,783,801,809,-1,809,801,802,-1,809,802,810,-1,810,802,803,-1,810,803,811,-1,811,803,804,-1,811,804,812,-1,812,804,805,-1,812,805,813,-1,813,805,806,-1,813,806,814,-1,814,806,807,-1,814,807,815,-1,815,807,808,-1,815,808,816,-1,782,783,784,-1,784,783,809,-1,784,809,817,-1,817,809,810,-1,817,810,818,-1,818,810,811,-1,818,811,819,-1,819,811,812,-1,819,812,820,-1,820,812,813,-1,820,813,821,-1,821,813,814,-1,821,814,822,-1,822,814,815,-1,822,815,823,-1,823,815,816,-1,823,816,824,-1,328,784,332,-1,332,784,817,-1,332,817,333,-1,333,817,818,-1,333,818,339,-1,339,818,819,-1,339,819,340,-1,340,819,820,-1,340,820,341,-1,341,820,821,-1,341,821,342,-1,342,821,822,-1,342,822,343,-1,343,822,823,-1,343,823,344,-1,344,823,824,-1,344,824,334,-1,230,234,792,-1,792,234,825,-1,792,825,800,-1,800,825,826,-1,800,826,808,-1,808,826,827,-1,808,827,816,-1,816,827,828,-1,816,828,824,-1,824,828,829,-1,824,829,334,-1,334,829,325,-1,225,775,294,-1,294,775,830,-1,776,831,775,-1,775,831,832,-1,775,832,830,-1,778,833,776,-1,776,833,834,-1,834,835,776,-1,776,835,836,-1,776,836,831,-1,837,838,782,-1,782,838,839,-1,782,839,780,-1,780,839,840,-1,780,840,778,-1,778,840,841,-1,778,841,833,-1,837,782,842,-1,842,782,328,-1,842,328,327,-1,843,844,845,-1,845,844,846,-1,846,844,308,-1,846,308,303,-1,293,294,847,-1,847,294,848,-1,849,850,851,-1,851,850,852,-1,851,852,853,-1,853,852,854,-1,853,854,848,-1,848,854,855,-1,848,855,847,-1,856,857,858,-1,858,857,859,-1,859,857,851,-1,851,857,860,-1,851,860,849,-1,845,861,843,-1,843,861,862,-1,843,862,863,-1,863,862,864,-1,863,864,865,-1,865,864,866,-1,865,866,856,-1,856,866,867,-1,856,867,857,-1,248,868,869,-1,825,234,238,-1,826,825,870,-1,827,826,871,-1,828,827,872,-1,829,828,873,-1,325,829,874,-1,825,238,870,-1,870,238,237,-1,870,237,875,-1,237,236,875,-1,875,236,235,-1,875,235,876,-1,876,235,240,-1,876,240,877,-1,240,239,877,-1,877,239,242,-1,877,242,878,-1,242,241,878,-1,878,241,246,-1,878,246,879,-1,246,245,879,-1,879,245,244,-1,879,244,880,-1,880,244,243,-1,880,243,869,-1,869,243,247,-1,869,247,248,-1,826,870,871,-1,871,870,875,-1,871,875,881,-1,881,875,876,-1,881,876,882,-1,882,876,877,-1,882,877,883,-1,883,877,878,-1,883,878,884,-1,884,878,879,-1,884,879,885,-1,885,879,880,-1,885,880,886,-1,886,880,869,-1,886,869,887,-1,887,869,868,-1,887,868,888,-1,827,871,872,-1,872,871,881,-1,872,881,889,-1,889,881,882,-1,889,882,890,-1,890,882,883,-1,890,883,891,-1,891,883,884,-1,891,884,892,-1,892,884,885,-1,892,885,893,-1,893,885,886,-1,893,886,894,-1,894,886,887,-1,894,887,895,-1,895,887,888,-1,895,888,896,-1,828,872,873,-1,873,872,889,-1,873,889,897,-1,897,889,890,-1,897,890,898,-1,898,890,891,-1,898,891,899,-1,899,891,892,-1,899,892,900,-1,900,892,893,-1,900,893,901,-1,901,893,894,-1,901,894,902,-1,902,894,895,-1,902,895,903,-1,903,895,896,-1,903,896,904,-1,829,873,874,-1,874,873,897,-1,874,897,905,-1,905,897,898,-1,905,898,906,-1,906,898,899,-1,906,899,907,-1,907,899,900,-1,907,900,908,-1,908,900,901,-1,908,901,909,-1,909,901,902,-1,909,902,910,-1,910,902,903,-1,910,903,911,-1,911,903,904,-1,911,904,912,-1,325,874,331,-1,331,874,905,-1,331,905,336,-1,336,905,906,-1,336,906,337,-1,337,906,907,-1,337,907,338,-1,338,907,908,-1,338,908,329,-1,329,908,909,-1,329,909,330,-1,330,909,910,-1,330,910,335,-1,335,910,911,-1,335,911,323,-1,323,911,912,-1,323,912,324,-1,831,913,851,-1,835,834,914,-1,833,841,915,-1,839,838,916,-1,837,842,917,-1,917,842,327,-1,917,327,918,-1,831,851,832,-1,832,851,853,-1,832,853,830,-1,830,853,848,-1,830,848,294,-1,919,920,921,-1,921,920,922,-1,921,922,308,-1,923,308,844,-1,838,837,916,-1,916,837,917,-1,916,917,924,-1,924,925,916,-1,916,925,926,-1,916,926,839,-1,839,926,915,-1,839,915,840,-1,840,915,841,-1,844,843,923,-1,923,843,863,-1,923,863,927,-1,834,833,914,-1,914,833,915,-1,914,915,928,-1,928,915,926,-1,928,926,929,-1,929,926,925,-1,929,925,308,-1,924,308,925,-1,918,919,917,-1,917,919,921,-1,917,921,924,-1,924,921,308,-1,831,836,913,-1,913,836,835,-1,913,835,930,-1,930,835,914,-1,930,914,927,-1,927,914,928,-1,927,928,923,-1,923,928,929,-1,923,929,308,-1,863,865,927,-1,927,865,856,-1,927,856,930,-1,930,856,858,-1,930,858,913,-1,913,858,859,-1,913,859,851,-1,931,932,933,-1,864,862,934,-1,935,857,867,-1,936,303,937,-1,938,939,940,-1,941,282,281,-1,941,281,942,-1,282,941,283,-1,283,941,943,-1,283,943,284,-1,944,945,946,-1,946,945,947,-1,946,947,948,-1,949,275,943,-1,943,275,276,-1,943,276,284,-1,274,950,273,-1,273,950,951,-1,273,951,272,-1,952,944,953,-1,953,944,946,-1,953,946,954,-1,954,946,948,-1,954,948,955,-1,956,957,958,-1,958,957,959,-1,958,959,960,-1,939,938,961,-1,961,938,962,-1,961,962,963,-1,963,962,964,-1,963,964,956,-1,956,964,965,-1,956,965,957,-1,966,967,968,-1,967,969,968,-1,968,969,970,-1,968,970,971,-1,972,937,973,-1,973,974,972,-1,972,974,975,-1,972,975,966,-1,966,975,976,-1,966,976,967,-1,967,976,977,-1,967,977,969,-1,866,864,978,-1,846,936,845,-1,845,936,940,-1,845,940,861,-1,958,952,956,-1,956,952,953,-1,956,953,963,-1,963,953,954,-1,963,954,961,-1,961,954,955,-1,961,955,939,-1,939,955,979,-1,939,979,940,-1,940,979,934,-1,940,934,861,-1,861,934,862,-1,293,847,285,-1,285,847,932,-1,289,288,931,-1,931,288,287,-1,931,287,932,-1,932,287,286,-1,932,286,285,-1,847,855,932,-1,932,855,854,-1,932,854,933,-1,933,854,852,-1,933,852,850,-1,857,935,860,-1,860,935,980,-1,860,980,849,-1,290,289,981,-1,981,289,931,-1,981,931,982,-1,982,931,933,-1,982,933,980,-1,980,933,850,-1,980,850,849,-1,292,291,983,-1,984,985,986,-1,986,985,987,-1,987,988,942,-1,942,988,989,-1,942,989,941,-1,941,989,990,-1,941,990,943,-1,943,990,950,-1,943,950,949,-1,949,950,274,-1,949,274,275,-1,278,987,279,-1,279,987,942,-1,279,942,280,-1,280,942,281,-1,277,292,991,-1,991,292,983,-1,991,983,992,-1,992,983,993,-1,992,993,994,-1,278,277,987,-1,987,277,991,-1,987,991,986,-1,986,991,992,-1,986,992,984,-1,984,992,994,-1,984,994,995,-1,995,994,996,-1,995,996,978,-1,978,996,997,-1,978,997,866,-1,291,290,983,-1,983,290,981,-1,983,981,993,-1,993,981,982,-1,993,982,994,-1,994,982,980,-1,994,980,996,-1,996,980,935,-1,996,935,997,-1,997,935,867,-1,997,867,866,-1,303,998,937,-1,937,998,999,-1,937,999,973,-1,936,937,940,-1,940,937,972,-1,940,972,938,-1,938,972,966,-1,938,966,962,-1,962,966,968,-1,962,968,964,-1,964,968,971,-1,964,971,965,-1,846,303,936,-1,864,934,978,-1,978,934,979,-1,978,979,995,-1,995,979,955,-1,995,955,984,-1,984,955,948,-1,984,948,985,-1,985,948,947,-1,985,947,987,-1,987,947,945,-1,987,945,988,-1,988,945,944,-1,988,944,989,-1,989,944,952,-1,989,952,990,-1,990,952,958,-1,990,958,950,-1,950,958,960,-1,950,960,951,-1,248,250,1000,-1,248,1000,868,-1,868,1000,1001,-1,868,1001,888,-1,1001,1002,888,-1,888,1002,1003,-1,888,1003,896,-1,896,1003,1004,-1,896,1004,1005,-1,1005,1006,896,-1,896,1006,1007,-1,896,1007,904,-1,1008,912,1009,-1,1009,912,904,-1,1009,904,1010,-1,1010,904,1007,-1,326,324,1011,-1,1011,324,912,-1,1011,912,1012,-1,1012,912,1008,-1,296,308,922,-1,327,326,918,-1,918,326,1013,-1,918,1013,919,-1,919,1013,1014,-1,919,1014,920,-1,920,1014,1015,-1,920,1015,922,-1,922,1015,1016,-1,922,1016,296,-1,1017,1018,965,-1,1019,271,272,-1,1019,272,1020,-1,1020,272,951,-1,1020,951,960,-1,965,1018,957,-1,957,1018,959,-1,959,1018,1021,-1,959,1021,960,-1,960,1021,1022,-1,960,1022,1020,-1,1017,965,1023,-1,1023,965,971,-1,1023,971,1024,-1,1024,971,1025,-1,1024,1025,1026,-1,1026,1025,969,-1,1026,969,1027,-1,1027,969,977,-1,1027,977,1028,-1,1028,977,976,-1,1028,976,1029,-1,1029,976,975,-1,1029,975,1030,-1,1030,975,974,-1,1030,974,1031,-1,1031,974,973,-1,1031,973,1032,-1,998,303,298,-1,1032,973,298,-1,298,973,999,-1,298,999,998,-1,1033,1034,1035,-1,296,1036,1037,-1,1038,1036,296,-1,1039,1038,296,-1,1040,1005,1041,-1,1041,1005,1004,-1,1041,1004,1042,-1,1042,1004,1003,-1,1042,1003,1002,-1,1009,1010,1043,-1,1043,1010,1007,-1,1043,1007,1040,-1,1040,1007,1006,-1,1040,1006,1005,-1,1008,1009,1044,-1,1044,1009,1045,-1,1008,1044,1012,-1,1012,1044,1046,-1,1012,1046,1011,-1,1011,1046,1013,-1,1011,1013,326,-1,1047,1048,1033,-1,296,1016,1039,-1,1039,1016,1015,-1,1039,1015,1014,-1,1033,1035,1047,-1,1047,1035,1037,-1,1047,1037,1049,-1,1049,1037,1036,-1,1049,1036,1045,-1,1045,1036,1038,-1,1045,1038,1044,-1,1044,1038,1039,-1,1044,1039,1046,-1,1046,1039,1014,-1,1046,1014,1013,-1,1041,1050,1051,-1,1009,1043,1045,-1,1045,1043,1040,-1,1045,1040,1049,-1,1049,1040,1041,-1,1049,1041,1047,-1,1047,1041,1051,-1,1047,1051,1048,-1,1035,296,1037,-1,1034,1052,1035,-1,1035,1052,296,-1,1050,1041,1053,-1,1053,1041,1042,-1,1053,1042,1054,-1,1054,1042,1002,-1,1054,1002,1055,-1,1055,1002,1001,-1,1055,1001,1056,-1,1056,1001,1000,-1,1056,1000,250,-1,1057,1058,1059,-1,1028,1029,1060,-1,1061,1024,1026,-1,1062,298,1063,-1,1064,1065,1066,-1,1067,260,259,-1,1067,259,1068,-1,260,1067,261,-1,261,1067,1069,-1,261,1069,262,-1,1070,1071,1072,-1,1072,1071,1073,-1,1072,1073,1074,-1,1075,253,1069,-1,1069,253,254,-1,1069,254,262,-1,252,1076,251,-1,251,1076,1077,-1,251,1077,249,-1,1078,1070,1079,-1,1079,1070,1072,-1,1079,1072,1080,-1,1080,1072,1074,-1,1080,1074,1081,-1,1082,1083,1084,-1,1084,1083,1085,-1,1084,1085,1086,-1,1065,1064,1087,-1,1087,1064,1088,-1,1087,1088,1089,-1,1089,1088,1090,-1,1089,1090,1082,-1,1082,1090,1091,-1,1082,1091,1083,-1,1092,1093,1094,-1,1093,1095,1094,-1,1094,1095,1096,-1,1094,1096,1097,-1,1098,1063,1099,-1,1099,1100,1098,-1,1098,1100,1101,-1,1098,1101,1092,-1,1092,1101,1102,-1,1092,1102,1093,-1,1093,1102,1103,-1,1093,1103,1095,-1,1027,1028,1104,-1,1032,1062,1031,-1,1031,1062,1066,-1,1031,1066,1030,-1,1084,1078,1082,-1,1082,1078,1079,-1,1082,1079,1089,-1,1089,1079,1080,-1,1089,1080,1087,-1,1087,1080,1081,-1,1087,1081,1065,-1,1065,1081,1105,-1,1065,1105,1066,-1,1066,1105,1060,-1,1066,1060,1030,-1,1030,1060,1029,-1,271,1019,270,-1,270,1019,1058,-1,264,263,1057,-1,1057,263,268,-1,1057,268,1058,-1,1058,268,269,-1,1058,269,270,-1,1019,1020,1058,-1,1058,1020,1022,-1,1058,1022,1059,-1,1059,1022,1021,-1,1059,1021,1018,-1,1024,1061,1023,-1,1023,1061,1106,-1,1023,1106,1017,-1,265,264,1107,-1,1107,264,1057,-1,1107,1057,1108,-1,1108,1057,1059,-1,1108,1059,1106,-1,1106,1059,1018,-1,1106,1018,1017,-1,267,266,1109,-1,1110,1111,1112,-1,1112,1111,1113,-1,1113,1114,1068,-1,1068,1114,1115,-1,1068,1115,1067,-1,1067,1115,1116,-1,1067,1116,1069,-1,1069,1116,1076,-1,1069,1076,1075,-1,1075,1076,252,-1,1075,252,253,-1,256,1113,257,-1,257,1113,1068,-1,257,1068,258,-1,258,1068,259,-1,255,267,1117,-1,1117,267,1109,-1,1117,1109,1118,-1,1118,1109,1119,-1,1118,1119,1120,-1,256,255,1113,-1,1113,255,1117,-1,1113,1117,1112,-1,1112,1117,1118,-1,1112,1118,1110,-1,1110,1118,1120,-1,1110,1120,1121,-1,1121,1120,1122,-1,1121,1122,1104,-1,1104,1122,1123,-1,1104,1123,1027,-1,266,265,1109,-1,1109,265,1107,-1,1109,1107,1119,-1,1119,1107,1108,-1,1119,1108,1120,-1,1120,1108,1106,-1,1120,1106,1122,-1,1122,1106,1061,-1,1122,1061,1123,-1,1123,1061,1026,-1,1123,1026,1027,-1,298,1124,1063,-1,1063,1124,1125,-1,1063,1125,1099,-1,1062,1063,1066,-1,1066,1063,1098,-1,1066,1098,1064,-1,1064,1098,1092,-1,1064,1092,1088,-1,1088,1092,1094,-1,1088,1094,1090,-1,1090,1094,1097,-1,1090,1097,1091,-1,1032,298,1062,-1,1028,1060,1104,-1,1104,1060,1105,-1,1104,1105,1121,-1,1121,1105,1081,-1,1121,1081,1110,-1,1110,1081,1074,-1,1110,1074,1111,-1,1111,1074,1073,-1,1111,1073,1113,-1,1113,1073,1071,-1,1113,1071,1114,-1,1114,1071,1070,-1,1114,1070,1115,-1,1115,1070,1078,-1,1115,1078,1116,-1,1116,1078,1084,-1,1116,1084,1076,-1,1076,1084,1086,-1,1076,1086,1077,-1,296,1052,1099,-1,1099,1125,296,-1,296,1125,1124,-1,296,1124,298,-1,1048,1103,1033,-1,1033,1103,1102,-1,1033,1102,1034,-1,1034,1102,1101,-1,1034,1101,1052,-1,1052,1101,1100,-1,1052,1100,1099,-1,1053,1091,1050,-1,1050,1091,1097,-1,1050,1097,1051,-1,1051,1097,1126,-1,1051,1126,1048,-1,1048,1126,1095,-1,1048,1095,1103,-1,1086,1085,1056,-1,1056,1085,1083,-1,1056,1083,1055,-1,1055,1083,1091,-1,1055,1091,1054,-1,1054,1091,1053,-1,1086,1056,1077,-1,1077,1056,250,-1,1077,250,249,-1,
        ]
    }
}
Shape{
    appearance Appearance {
        material  Material 	{
            diffuseColor 0.34901960784313724 0.34901960784313724 0.34901960784313724
            specularColor 0.023529411764705882 0.023529411764705882 0.023529411764705882
            ambientIntensity 0.498
            transparency 0.0
            shininess 0.5
        }
    }
    geometry IndexedFaceSet {
        ccw TRUE
        solid FALSE
        coord DEF co Coordinate {
            point [
                -0.5877 -0.2885 0.6929, -0.5877 -0.2885 0.7008, -0.5897 -0.2732 0.6929, -0.5897 -0.2732 0.7008, -0.5956 -0.259 0.6929, -0.5956 -0.259 0.7008, -0.605 -0.2467 0.6929, -0.605 -0.2467 0.7008, -0.6172 -0.2373 0.6929, -0.6172 -0.2373 0.7008, -0.6314 -0.2314 0.6929, -0.6314 -0.2314 0.7008, -0.6467 -0.2294 0.6929, -0.6467 -0.2294 0.7008, -0.662 -0.2314 0.6929, -0.662 -0.2314 0.7008, -0.6762 -0.2373 0.6929, -0.6762 -0.2373 0.7008, -0.6885 -0.2467 0.6929, -0.6885 -0.2467 0.7008, -0.6979 -0.259 0.6929, -0.6979 -0.259 0.7008, -0.7038 -0.2732 0.6929, -0.7038 -0.2732 0.7008, -0.7058 -0.2885 0.6929, -0.7058 -0.2885 0.7008, -0.7038 -0.3038 0.6929, -0.7038 -0.3038 0.7008, -0.6979 -0.318 0.6929, -0.6979 -0.318 0.7008, -0.6885 -0.3302 0.6929, -0.6885 -0.3302 0.7008, -0.6762 -0.3396 0.6929, -0.6762 -0.3396 0.7008, -0.662 -0.3455 0.6929, -0.662 -0.3455 0.7008, -0.6467 -0.3475 0.6929, -0.6467 -0.3475 0.7008, -0.6314 -0.3455 0.6929, -0.6314 -0.3455 0.7008, -0.6172 -0.3396 0.6929, -0.6172 -0.3396 0.7008, -0.605 -0.3302 0.6929, -0.605 -0.3302 0.7008, -0.5956 -0.318 0.6929, -0.5956 -0.318 0.7008, -0.5897 -0.3038 0.6929, -0.5897 -0.3038 0.7008, -0.6467 -0.2885 0.6929
            ]
        }
        coordIndex [
            0,1,2,-1,2,1,3,-1,2,3,4,-1,4,3,5,-1,4,5,6,-1,6,5,7,-1,6,7,8,-1,8,7,9,-1,8,9,10,-1,10,9,11,-1,10,11,12,-1,12,11,13,-1,12,13,14,-1,14,13,15,-1,14,15,16,-1,16,15,17,-1,16,17,18,-1,18,17,19,-1,18,19,20,-1,20,19,21,-1,20,21,22,-1,22,21,23,-1,22,23,24,-1,24,23,25,-1,24,25,26,-1,26,25,27,-1,26,27,28,-1,28,27,29,-1,28,29,30,-1,30,29,31,-1,30,31,32,-1,32,31,33,-1,32,33,34,-1,34,33,35,-1,34,35,36,-1,36,35,37,-1,36,37,38,-1,38,37,39,-1,38,39,40,-1,40,39,41,-1,40,41,42,-1,42,41,43,-1,42,43,44,-1,44,43,45,-1,44,45,46,-1,46,45,47,-1,46,47,0,-1,0,47,1,-1,44,46,48,-1,48,46,0,-1,48,0,2,-1,38,40,48,-1,48,40,42,-1,48,42,44,-1,32,34,48,-1,48,34,36,-1,48,36,38,-1,26,28,48,-1,48,28,30,-1,48,30,32,-1,20,22,48,-1,48,22,24,-1,48,24,26,-1,14,16,48,-1,48,16,18,-1,48,18,20,-1,8,10,48,-1,48,10,12,-1,48,12,14,-1,2,4,48,-1,48,4,6,-1,48,6,8,-1,
        ]
    }
}
Shape{
    appearance Appearance {
        material  Material 	{
            diffuseColor 0.6666666666666666 0.6666666666666666 0.6666666666666666
            specularColor 0.4666666666666667 0.4666666666666667 0.4666666666666667
            ambientIntensity 0.6667
            transparency 0.0
            shininess 0.5
        }
    }
    geometry IndexedFaceSet {
        ccw TRUE
        solid FALSE
        coord DEF co Coordinate {
            point [
                0.8287 1.1811 0.0, 0.8287 0.9646 0.0, 0.6713 1.1811 0.0, 0.6713 0.9646 0.0, 0.8287 1.1811 0.0787, 0.6713 1.1811 0.0787, 0.8287 0.9646 0.0787, 0.6713 0.9646 0.0787, 0.8287 0.9595 0.0794, 0.6713 0.9595 0.0794, 0.8287 0.9547 0.0814, 0.6713 0.9547 0.0814, 0.8287 0.9506 0.0845, 0.6713 0.9506 0.0845, 0.8287 0.9475 0.0886, 0.6713 0.9475 0.0886, 0.8287 0.9456 0.0933, 0.6713 0.9456 0.0933, 0.8287 0.9449 0.0984, 0.6713 0.9449 0.0984, 0.8287 0.9449 0.3268, 0.6713 0.9449 0.3268, 0.6713 0.9415 0.3522, 0.8287 0.9415 0.3522, 0.6713 0.9317 0.376, 0.8287 0.9317 0.376, 0.6713 0.9161 0.3964, 0.8287 0.9161 0.3964, 0.6713 0.8957 0.412, 0.8287 0.8957 0.412, 0.6713 0.8719 0.4218, 0.8287 0.8719 0.4218, 0.6713 0.8465 0.4252, 0.8287 0.8465 0.4252, 0.8287 0.7677 0.4252, 0.6713 0.7677 0.4252, 0.8287 0.8465 0.3465, 0.8287 0.7677 0.3465, 0.6713 0.8465 0.3465, 0.6713 0.7677 0.3465, 0.8287 0.8516 0.3458, 0.6713 0.8516 0.3458, 0.8287 0.8563 0.3438, 0.6713 0.8563 0.3438, 0.8287 0.8604 0.3407, 0.6713 0.8604 0.3407, 0.8287 0.8635 0.3366, 0.6713 0.8635 0.3366, 0.8287 0.8655 0.3319, 0.6713 0.8655 0.3319, 0.8287 0.8661 0.3268, 0.6713 0.8661 0.3268, 0.8287 0.8661 0.0984, 0.6713 0.8661 0.0984, 0.6713 0.8695 0.073, 0.8287 0.8695 0.073, 0.6713 0.8793 0.0492, 0.8287 0.8793 0.0492, 0.6713 0.895 0.0288, 0.8287 0.895 0.0288, 0.6713 0.9154 0.0132, 0.8287 0.9154 0.0132, 0.6713 0.9391 0.0034, 0.8287 0.9391 0.0034, 0.3287 1.1811 0.0, 0.3287 0.9646 0.0, 0.1713 1.1811 0.0, 0.1713 0.9646 0.0, 0.3287 1.1811 0.0787, 0.1713 1.1811 0.0787, 0.3287 0.9646 0.0787, 0.1713 0.9646 0.0787, 0.3287 0.9595 0.0794, 0.1713 0.9595 0.0794, 0.3287 0.9547 0.0814, 0.1713 0.9547 0.0814, 0.3287 0.9506 0.0845, 0.1713 0.9506 0.0845, 0.3287 0.9475 0.0886, 0.1713 0.9475 0.0886, 0.3287 0.9456 0.0933, 0.1713 0.9456 0.0933, 0.3287 0.9449 0.0984, 0.1713 0.9449 0.0984, 0.3287 0.9449 0.3268, 0.1713 0.9449 0.3268, 0.1713 0.9415 0.3522, 0.3287 0.9415 0.3522, 0.1713 0.9317 0.376, 0.3287 0.9317 0.376, 0.1713 0.9161 0.3964, 0.3287 0.9161 0.3964, 0.1713 0.8957 0.412, 0.3287 0.8957 0.412, 0.1713 0.8719 0.4218, 0.3287 0.8719 0.4218, 0.1713 0.8465 0.4252, 0.3287 0.8465 0.4252, 0.3287 0.7677 0.4252, 0.1713 0.7677 0.4252, 0.3287 0.8465 0.3465, 0.3287 0.7677 0.3465, 0.1713 0.8465 0.3465, 0.1713 0.7677 0.3465, 0.3287 0.8516 0.3458, 0.1713 0.8516 0.3458, 0.3287 0.8563 0.3438, 0.1713 0.8563 0.3438, 0.3287 0.8604 0.3407, 0.1713 0.8604 0.3407, 0.3287 0.8635 0.3366, 0.1713 0.8635 0.3366, 0.3287 0.8655 0.3319, 0.1713 0.8655 0.3319, 0.3287 0.8661 0.3268, 0.1713 0.8661 0.3268, 0.3287 0.8661 0.0984, 0.1713 0.8661 0.0984, 0.3287 0.9391 0.0034, 0.3287 0.9154 0.0132, 0.3287 0.895 0.0288, 0.3287 0.8793 0.0492, 0.3287 0.8695 0.073, 0.1713 0.8695 0.073, 0.1713 0.8793 0.0492, 0.1713 0.895 0.0288, 0.1713 0.9154 0.0132, 0.1713 0.9391 0.0034, -0.1713 1.1811 0.0, -0.1713 0.9646 0.0, -0.3287 1.1811 0.0, -0.3287 0.9646 0.0, -0.1713 1.1811 0.0787, -0.3287 1.1811 0.0787, -0.1713 0.9646 0.0787, -0.3287 0.9646 0.0787, -0.1713 0.9595 0.0794, -0.3287 0.9595 0.0794, -0.1713 0.9547 0.0814, -0.3287 0.9547 0.0814, -0.1713 0.9506 0.0845, -0.3287 0.9506 0.0845, -0.1713 0.9475 0.0886, -0.3287 0.9475 0.0886, -0.1713 0.9456 0.0933, -0.3287 0.9456 0.0933, -0.1713 0.9449 0.0984, -0.3287 0.9449 0.0984, -0.1713 0.9449 0.3268, -0.3287 0.9449 0.3268, -0.3287 0.9415 0.3522, -0.1713 0.9415 0.3522, -0.3287 0.9317 0.376, -0.1713 0.9317 0.376, -0.3287 0.9161 0.3964, -0.1713 0.9161 0.3964, -0.3287 0.8957 0.412, -0.1713 0.8957 0.412, -0.3287 0.8719 0.4218, -0.1713 0.8719 0.4218, -0.3287 0.8465 0.4252, -0.1713 0.8465 0.4252, -0.1713 0.7677 0.4252, -0.3287 0.7677 0.4252, -0.1713 0.8465 0.3465, -0.1713 0.7677 0.3465, -0.3287 0.8465 0.3465, -0.3287 0.7677 0.3465, -0.1713 0.8516 0.3458, -0.3287 0.8516 0.3458, -0.1713 0.8563 0.3438, -0.3287 0.8563 0.3438, -0.1713 0.8604 0.3407, -0.3287 0.8604 0.3407, -0.1713 0.8635 0.3366, -0.3287 0.8635 0.3366, -0.1713 0.8655 0.3319, -0.3287 0.8655 0.3319, -0.1713 0.8661 0.3268, -0.3287 0.8661 0.3268, -0.1713 0.8661 0.0984, -0.3287 0.8661 0.0984, -0.1713 0.9391 0.0034, -0.1713 0.9154 0.0132, -0.1713 0.895 0.0288, -0.1713 0.8793 0.0492, -0.1713 0.8695 0.073, -0.3287 0.8695 0.073, -0.3287 0.8793 0.0492, -0.3287 0.895 0.0288, -0.3287 0.9154 0.0132, -0.3287 0.9391 0.0034, -0.6713 1.1811 0.0, -0.6713 0.9646 0.0, -0.8287 1.1811 0.0, -0.8287 0.9646 0.0, -0.6713 1.1811 0.0787, -0.8287 1.1811 0.0787, -0.6713 0.9646 0.0787, -0.8287 0.9646 0.0787, -0.6713 0.9595 0.0794, -0.8287 0.9595 0.0794, -0.6713 0.9547 0.0814, -0.8287 0.9547 0.0814, -0.6713 0.9506 0.0845, -0.8287 0.9506 0.0845, -0.6713 0.9475 0.0886, -0.8287 0.9475 0.0886, -0.6713 0.9456 0.0933, -0.8287 0.9456 0.0933, -0.6713 0.9449 0.0984, -0.8287 0.9449 0.0984, -0.6713 0.9449 0.3268, -0.8287 0.9449 0.3268, -0.8287 0.9415 0.3522, -0.6713 0.9415 0.3522, -0.8287 0.9317 0.376, -0.6713 0.9317 0.376, -0.8287 0.9161 0.3964, -0.6713 0.9161 0.3964, -0.8287 0.8957 0.412, -0.6713 0.8957 0.412, -0.8287 0.8719 0.4218, -0.6713 0.8719 0.4218, -0.8287 0.8465 0.4252, -0.6713 0.8465 0.4252, -0.6713 0.7677 0.4252, -0.8287 0.7677 0.4252, -0.6713 0.8465 0.3465, -0.6713 0.7677 0.3465, -0.8287 0.8465 0.3465, -0.8287 0.7677 0.3465, -0.6713 0.8516 0.3458, -0.8287 0.8516 0.3458, -0.6713 0.8563 0.3438, -0.8287 0.8563 0.3438, -0.6713 0.8604 0.3407, -0.8287 0.8604 0.3407, -0.6713 0.8635 0.3366, -0.8287 0.8635 0.3366, -0.6713 0.8655 0.3319, -0.8287 0.8655 0.3319, -0.6713 0.8661 0.3268, -0.8287 0.8661 0.3268, -0.6713 0.8661 0.0984, -0.8287 0.8661 0.0984, -0.6713 0.9391 0.0034, -0.6713 0.9154 0.0132, -0.6713 0.895 0.0288, -0.6713 0.8793 0.0492, -0.6713 0.8695 0.073, -0.8287 0.8695 0.073, -0.8287 0.8793 0.0492, -0.8287 0.895 0.0288, -0.8287 0.9154 0.0132, -0.8287 0.9391 0.0034, 0.8287 -0.9646 0.0, 0.8287 -1.1811 0.0, 0.6713 -0.9646 0.0, 0.6713 -1.1811 0.0, 0.8287 -1.1811 0.0787, 0.6713 -1.1811 0.0787, 0.8287 -0.9646 0.0787, 0.6713 -0.9646 0.0787, 0.8287 -0.9449 0.0984, 0.6713 -0.9449 0.0984, 0.8287 -0.9456 0.0933, 0.6713 -0.9456 0.0933, 0.8287 -0.9475 0.0886, 0.6713 -0.9475 0.0886, 0.8287 -0.9506 0.0845, 0.6713 -0.9506 0.0845, 0.8287 -0.9547 0.0814, 0.6713 -0.9547 0.0814, 0.8287 -0.9595 0.0794, 0.6713 -0.9595 0.0794, 0.8287 -0.9449 0.3268, 0.6713 -0.9449 0.3268, 0.8287 -0.8465 0.4252, 0.6713 -0.8465 0.4252, 0.6713 -0.8719 0.4218, 0.8287 -0.8719 0.4218, 0.6713 -0.8957 0.412, 0.8287 -0.8957 0.412, 0.6713 -0.9161 0.3964, 0.8287 -0.9161 0.3964, 0.6713 -0.9317 0.376, 0.8287 -0.9317 0.376, 0.6713 -0.9415 0.3522, 0.8287 -0.9415 0.3522, 0.8287 -0.7677 0.4252, 0.6713 -0.7677 0.4252, 0.8287 -0.7677 0.3465, 0.8287 -0.8465 0.3465, 0.6713 -0.7677 0.3465, 0.6713 -0.8465 0.3465, 0.8287 -0.8661 0.3268, 0.6713 -0.8661 0.3268, 0.8287 -0.8655 0.3319, 0.6713 -0.8655 0.3319, 0.8287 -0.8635 0.3366, 0.6713 -0.8635 0.3366, 0.8287 -0.8604 0.3407, 0.6713 -0.8604 0.3407, 0.8287 -0.8563 0.3438, 0.6713 -0.8563 0.3438, 0.8287 -0.8516 0.3458, 0.6713 -0.8516 0.3458, 0.8287 -0.8661 0.0984, 0.6713 -0.8661 0.0984, 0.8287 -0.9391 0.0034, 0.8287 -0.9154 0.0132, 0.8287 -0.895 0.0288, 0.8287 -0.8793 0.0492, 0.8287 -0.8695 0.073, 0.6713 -0.9391 0.0034, 0.6713 -0.9154 0.0132, 0.6713 -0.895 0.0288, 0.6713 -0.8793 0.0492, 0.6713 -0.8695 0.073, 0.3287 -0.9646 0.0, 0.3287 -1.1811 0.0, 0.1713 -0.9646 0.0, 0.1713 -1.1811 0.0, 0.3287 -1.1811 0.0787, 0.1713 -1.1811 0.0787, 0.3287 -0.9646 0.0787, 0.1713 -0.9646 0.0787, 0.3287 -0.9449 0.0984, 0.1713 -0.9449 0.0984, 0.3287 -0.9456 0.0933, 0.1713 -0.9456 0.0933, 0.3287 -0.9475 0.0886, 0.1713 -0.9475 0.0886, 0.3287 -0.9506 0.0845, 0.1713 -0.9506 0.0845, 0.3287 -0.9547 0.0814, 0.1713 -0.9547 0.0814, 0.3287 -0.9595 0.0794, 0.1713 -0.9595 0.0794, 0.3287 -0.9449 0.3268, 0.1713 -0.9449 0.3268, 0.3287 -0.8465 0.4252, 0.1713 -0.8465 0.4252, 0.1713 -0.8719 0.4218, 0.3287 -0.8719 0.4218, 0.1713 -0.8957 0.412, 0.3287 -0.8957 0.412, 0.1713 -0.9161 0.3964, 0.3287 -0.9161 0.3964, 0.1713 -0.9317 0.376, 0.3287 -0.9317 0.376, 0.1713 -0.9415 0.3522, 0.3287 -0.9415 0.3522, 0.3287 -0.7677 0.4252, 0.1713 -0.7677 0.4252, 0.3287 -0.7677 0.3465, 0.3287 -0.8465 0.3465, 0.1713 -0.7677 0.3465, 0.1713 -0.8465 0.3465, 0.3287 -0.8661 0.3268, 0.1713 -0.8661 0.3268, 0.3287 -0.8655 0.3319, 0.1713 -0.8655 0.3319, 0.3287 -0.8635 0.3366, 0.1713 -0.8635 0.3366, 0.3287 -0.8604 0.3407, 0.1713 -0.8604 0.3407, 0.3287 -0.8563 0.3438, 0.1713 -0.8563 0.3438, 0.3287 -0.8516 0.3458, 0.1713 -0.8516 0.3458, 0.3287 -0.8661 0.0984, 0.1713 -0.8661 0.0984, 0.3287 -0.9391 0.0034, 0.3287 -0.9154 0.0132, 0.3287 -0.895 0.0288, 0.3287 -0.8793 0.0492, 0.3287 -0.8695 0.073, 0.1713 -0.9391 0.0034, 0.1713 -0.9154 0.0132, 0.1713 -0.895 0.0288, 0.1713 -0.8793 0.0492, 0.1713 -0.8695 0.073, -0.1713 -0.9646 0.0, -0.1713 -1.1811 0.0, -0.3287 -0.9646 0.0, -0.3287 -1.1811 0.0, -0.1713 -1.1811 0.0787, -0.3287 -1.1811 0.0787, -0.1713 -0.9646 0.0787, -0.3287 -0.9646 0.0787, -0.1713 -0.9449 0.0984, -0.3287 -0.9449 0.0984, -0.1713 -0.9456 0.0933, -0.3287 -0.9456 0.0933, -0.1713 -0.9475 0.0886, -0.3287 -0.9475 0.0886, -0.1713 -0.9506 0.0845, -0.3287 -0.9506 0.0845, -0.1713 -0.9547 0.0814, -0.3287 -0.9547 0.0814, -0.1713 -0.9595 0.0794, -0.3287 -0.9595 0.0794, -0.1713 -0.9449 0.3268, -0.3287 -0.9449 0.3268, -0.1713 -0.8465 0.4252, -0.3287 -0.8465 0.4252, -0.3287 -0.8719 0.4218, -0.1713 -0.8719 0.4218, -0.3287 -0.8957 0.412, -0.1713 -0.8957 0.412, -0.3287 -0.9161 0.3964, -0.1713 -0.9161 0.3964, -0.3287 -0.9317 0.376, -0.1713 -0.9317 0.376, -0.3287 -0.9415 0.3522, -0.1713 -0.9415 0.3522, -0.1713 -0.7677 0.4252, -0.3287 -0.7677 0.4252, -0.1713 -0.7677 0.3465, -0.1713 -0.8465 0.3465, -0.3287 -0.7677 0.3465, -0.3287 -0.8465 0.3465, -0.1713 -0.8661 0.3268, -0.3287 -0.8661 0.3268, -0.1713 -0.8655 0.3319, -0.3287 -0.8655 0.3319, -0.1713 -0.8635 0.3366, -0.3287 -0.8635 0.3366, -0.1713 -0.8604 0.3407, -0.3287 -0.8604 0.3407, -0.1713 -0.8563 0.3438, -0.3287 -0.8563 0.3438, -0.1713 -0.8516 0.3458, -0.3287 -0.8516 0.3458, -0.1713 -0.8661 0.0984, -0.3287 -0.8661 0.0984, -0.1713 -0.9391 0.0034, -0.1713 -0.9154 0.0132, -0.1713 -0.895 0.0288, -0.1713 -0.8793 0.0492, -0.1713 -0.8695 0.073, -0.3287 -0.9391 0.0034, -0.3287 -0.9154 0.0132, -0.3287 -0.895 0.0288, -0.3287 -0.8793 0.0492, -0.3287 -0.8695 0.073, -0.6713 -0.9646 0.0, -0.6713 -1.1811 0.0, -0.8287 -0.9646 0.0, -0.8287 -1.1811 0.0, -0.6713 -1.1811 0.0787, -0.8287 -1.1811 0.0787, -0.6713 -0.9646 0.0787, -0.8287 -0.9646 0.0787, -0.6713 -0.9449 0.0984, -0.8287 -0.9449 0.0984, -0.6713 -0.9456 0.0933, -0.8287 -0.9456 0.0933, -0.6713 -0.9475 0.0886, -0.8287 -0.9475 0.0886, -0.6713 -0.9506 0.0845, -0.8287 -0.9506 0.0845, -0.6713 -0.9547 0.0814, -0.8287 -0.9547 0.0814, -0.6713 -0.9595 0.0794, -0.8287 -0.9595 0.0794, -0.6713 -0.9449 0.3268, -0.8287 -0.9449 0.3268, -0.6713 -0.8465 0.4252, -0.8287 -0.8465 0.4252, -0.8287 -0.8719 0.4218, -0.6713 -0.8719 0.4218, -0.8287 -0.8957 0.412, -0.6713 -0.8957 0.412, -0.8287 -0.9161 0.3964, -0.6713 -0.9161 0.3964, -0.8287 -0.9317 0.376, -0.6713 -0.9317 0.376, -0.8287 -0.9415 0.3522, -0.6713 -0.9415 0.3522, -0.6713 -0.7677 0.4252, -0.8287 -0.7677 0.4252, -0.6713 -0.7677 0.3465, -0.6713 -0.8465 0.3465, -0.8287 -0.7677 0.3465, -0.8287 -0.8465 0.3465, -0.6713 -0.8661 0.3268, -0.8287 -0.8661 0.3268, -0.6713 -0.8655 0.3319, -0.8287 -0.8655 0.3319, -0.6713 -0.8635 0.3366, -0.8287 -0.8635 0.3366, -0.6713 -0.8604 0.3407, -0.8287 -0.8604 0.3407, -0.6713 -0.8563 0.3438, -0.8287 -0.8563 0.3438, -0.6713 -0.8516 0.3458, -0.8287 -0.8516 0.3458, -0.6713 -0.8661 0.0984, -0.8287 -0.8661 0.0984, -0.6713 -0.9391 0.0034, -0.6713 -0.9154 0.0132, -0.6713 -0.895 0.0288, -0.6713 -0.8793 0.0492, -0.6713 -0.8695 0.073, -0.8287 -0.9391 0.0034, -0.8287 -0.9154 0.0132, -0.8287 -0.895 0.0288, -0.8287 -0.8793 0.0492, -0.8287 -0.8695 0.073
            ]
        }
        coordIndex [
            0,1,2,-1,2,1,3,-1,4,0,5,-1,5,0,2,-1,6,4,7,-1,7,4,5,-1,6,7,8,-1,8,7,9,-1,8,9,10,-1,10,9,11,-1,10,11,12,-1,12,11,13,-1,12,13,14,-1,14,13,15,-1,14,15,16,-1,16,15,17,-1,16,17,18,-1,18,17,19,-1,20,18,21,-1,21,18,19,-1,20,21,22,-1,20,22,23,-1,23,22,24,-1,23,24,25,-1,25,24,26,-1,25,26,27,-1,27,26,28,-1,27,28,29,-1,29,28,30,-1,29,30,31,-1,31,30,32,-1,31,32,33,-1,34,33,35,-1,35,33,32,-1,36,37,38,-1,38,37,39,-1,36,38,40,-1,40,38,41,-1,40,41,42,-1,42,41,43,-1,42,43,44,-1,44,43,45,-1,44,45,46,-1,46,45,47,-1,46,47,48,-1,48,47,49,-1,48,49,50,-1,50,49,51,-1,52,50,53,-1,53,50,51,-1,52,53,54,-1,52,54,55,-1,55,54,56,-1,55,56,57,-1,57,56,58,-1,57,58,59,-1,59,58,60,-1,59,60,61,-1,61,60,62,-1,61,62,63,-1,63,62,3,-1,63,3,1,-1,0,4,1,-1,1,4,6,-1,1,6,63,-1,63,6,8,-1,63,8,61,-1,61,8,10,-1,61,10,59,-1,59,10,12,-1,59,12,57,-1,57,12,14,-1,57,14,55,-1,55,14,16,-1,55,16,52,-1,52,16,18,-1,52,18,50,-1,50,18,20,-1,50,20,48,-1,48,20,23,-1,48,23,46,-1,46,23,25,-1,46,25,44,-1,44,25,27,-1,44,27,42,-1,42,27,29,-1,42,29,40,-1,40,29,31,-1,40,31,36,-1,36,31,33,-1,36,33,37,-1,37,33,34,-1,39,35,38,-1,38,35,32,-1,38,32,41,-1,41,32,30,-1,41,30,43,-1,43,30,28,-1,43,28,45,-1,45,28,26,-1,45,26,47,-1,47,26,24,-1,47,24,49,-1,49,24,22,-1,49,22,51,-1,51,22,21,-1,51,21,53,-1,53,21,19,-1,53,19,54,-1,54,19,17,-1,54,17,56,-1,56,17,15,-1,56,15,58,-1,58,15,13,-1,58,13,60,-1,60,13,11,-1,60,11,62,-1,62,11,9,-1,62,9,3,-1,3,9,7,-1,3,7,2,-1,2,7,5,-1,64,65,66,-1,66,65,67,-1,68,64,69,-1,69,64,66,-1,70,68,71,-1,71,68,69,-1,70,71,72,-1,72,71,73,-1,72,73,74,-1,74,73,75,-1,74,75,76,-1,76,75,77,-1,76,77,78,-1,78,77,79,-1,78,79,80,-1,80,79,81,-1,80,81,82,-1,82,81,83,-1,84,82,85,-1,85,82,83,-1,84,85,86,-1,84,86,87,-1,87,86,88,-1,87,88,89,-1,89,88,90,-1,89,90,91,-1,91,90,92,-1,91,92,93,-1,93,92,94,-1,93,94,95,-1,95,94,96,-1,95,96,97,-1,98,97,99,-1,99,97,96,-1,100,101,102,-1,102,101,103,-1,100,102,104,-1,104,102,105,-1,104,105,106,-1,106,105,107,-1,106,107,108,-1,108,107,109,-1,108,109,110,-1,110,109,111,-1,110,111,112,-1,112,111,113,-1,112,113,114,-1,114,113,115,-1,116,114,117,-1,117,114,115,-1,64,68,65,-1,65,68,70,-1,65,70,118,-1,118,70,72,-1,118,72,119,-1,119,72,74,-1,119,74,120,-1,120,74,76,-1,120,76,121,-1,121,76,78,-1,121,78,122,-1,122,78,80,-1,122,80,116,-1,116,80,82,-1,116,82,114,-1,114,82,84,-1,114,84,112,-1,112,84,87,-1,112,87,110,-1,110,87,89,-1,110,89,108,-1,108,89,91,-1,108,91,106,-1,106,91,93,-1,106,93,104,-1,104,93,95,-1,104,95,100,-1,100,95,97,-1,100,97,101,-1,101,97,98,-1,116,117,123,-1,116,123,122,-1,122,123,124,-1,122,124,121,-1,121,124,125,-1,121,125,120,-1,120,125,126,-1,120,126,119,-1,119,126,127,-1,119,127,118,-1,118,127,67,-1,118,67,65,-1,103,99,102,-1,102,99,96,-1,102,96,105,-1,105,96,94,-1,105,94,107,-1,107,94,92,-1,107,92,109,-1,109,92,90,-1,109,90,111,-1,111,90,88,-1,111,88,113,-1,113,88,86,-1,113,86,115,-1,115,86,85,-1,115,85,117,-1,117,85,83,-1,117,83,123,-1,123,83,81,-1,123,81,124,-1,124,81,79,-1,124,79,125,-1,125,79,77,-1,125,77,126,-1,126,77,75,-1,126,75,127,-1,127,75,73,-1,127,73,67,-1,67,73,71,-1,67,71,66,-1,66,71,69,-1,128,129,130,-1,130,129,131,-1,132,128,133,-1,133,128,130,-1,134,132,135,-1,135,132,133,-1,134,135,136,-1,136,135,137,-1,136,137,138,-1,138,137,139,-1,138,139,140,-1,140,139,141,-1,140,141,142,-1,142,141,143,-1,142,143,144,-1,144,143,145,-1,144,145,146,-1,146,145,147,-1,148,146,149,-1,149,146,147,-1,148,149,150,-1,148,150,151,-1,151,150,152,-1,151,152,153,-1,153,152,154,-1,153,154,155,-1,155,154,156,-1,155,156,157,-1,157,156,158,-1,157,158,159,-1,159,158,160,-1,159,160,161,-1,162,161,163,-1,163,161,160,-1,164,165,166,-1,166,165,167,-1,164,166,168,-1,168,166,169,-1,168,169,170,-1,170,169,171,-1,170,171,172,-1,172,171,173,-1,172,173,174,-1,174,173,175,-1,174,175,176,-1,176,175,177,-1,176,177,178,-1,178,177,179,-1,180,178,181,-1,181,178,179,-1,128,132,129,-1,129,132,134,-1,129,134,182,-1,182,134,136,-1,182,136,183,-1,183,136,138,-1,183,138,184,-1,184,138,140,-1,184,140,185,-1,185,140,142,-1,185,142,186,-1,186,142,144,-1,186,144,180,-1,180,144,146,-1,180,146,178,-1,178,146,148,-1,178,148,176,-1,176,148,151,-1,176,151,174,-1,174,151,153,-1,174,153,172,-1,172,153,155,-1,172,155,170,-1,170,155,157,-1,170,157,168,-1,168,157,159,-1,168,159,164,-1,164,159,161,-1,164,161,165,-1,165,161,162,-1,180,181,187,-1,180,187,186,-1,186,187,188,-1,186,188,185,-1,185,188,189,-1,185,189,184,-1,184,189,190,-1,184,190,183,-1,183,190,191,-1,183,191,182,-1,182,191,131,-1,182,131,129,-1,167,163,166,-1,166,163,160,-1,166,160,169,-1,169,160,158,-1,169,158,171,-1,171,158,156,-1,171,156,173,-1,173,156,154,-1,173,154,175,-1,175,154,152,-1,175,152,177,-1,177,152,150,-1,177,150,179,-1,179,150,149,-1,179,149,181,-1,181,149,147,-1,181,147,187,-1,187,147,145,-1,187,145,188,-1,188,145,143,-1,188,143,189,-1,189,143,141,-1,189,141,190,-1,190,141,139,-1,190,139,191,-1,191,139,137,-1,191,137,131,-1,131,137,135,-1,131,135,130,-1,130,135,133,-1,192,193,194,-1,194,193,195,-1,196,192,197,-1,197,192,194,-1,198,196,199,-1,199,196,197,-1,198,199,200,-1,200,199,201,-1,200,201,202,-1,202,201,203,-1,202,203,204,-1,204,203,205,-1,204,205,206,-1,206,205,207,-1,206,207,208,-1,208,207,209,-1,208,209,210,-1,210,209,211,-1,212,210,213,-1,213,210,211,-1,212,213,214,-1,212,214,215,-1,215,214,216,-1,215,216,217,-1,217,216,218,-1,217,218,219,-1,219,218,220,-1,219,220,221,-1,221,220,222,-1,221,222,223,-1,223,222,224,-1,223,224,225,-1,226,225,227,-1,227,225,224,-1,228,229,230,-1,230,229,231,-1,228,230,232,-1,232,230,233,-1,232,233,234,-1,234,233,235,-1,234,235,236,-1,236,235,237,-1,236,237,238,-1,238,237,239,-1,238,239,240,-1,240,239,241,-1,240,241,242,-1,242,241,243,-1,244,242,245,-1,245,242,243,-1,192,196,193,-1,193,196,198,-1,193,198,246,-1,246,198,200,-1,246,200,247,-1,247,200,202,-1,247,202,248,-1,248,202,204,-1,248,204,249,-1,249,204,206,-1,249,206,250,-1,250,206,208,-1,250,208,244,-1,244,208,210,-1,244,210,242,-1,242,210,212,-1,242,212,240,-1,240,212,215,-1,240,215,238,-1,238,215,217,-1,238,217,236,-1,236,217,219,-1,236,219,234,-1,234,219,221,-1,234,221,232,-1,232,221,223,-1,232,223,228,-1,228,223,225,-1,228,225,229,-1,229,225,226,-1,244,245,251,-1,244,251,250,-1,250,251,252,-1,250,252,249,-1,249,252,253,-1,249,253,248,-1,248,253,254,-1,248,254,247,-1,247,254,255,-1,247,255,246,-1,246,255,195,-1,246,195,193,-1,231,227,230,-1,230,227,224,-1,230,224,233,-1,233,224,222,-1,233,222,235,-1,235,222,220,-1,235,220,237,-1,237,220,218,-1,237,218,239,-1,239,218,216,-1,239,216,241,-1,241,216,214,-1,241,214,243,-1,243,214,213,-1,243,213,245,-1,245,213,211,-1,245,211,251,-1,251,211,209,-1,251,209,252,-1,252,209,207,-1,252,207,253,-1,253,207,205,-1,253,205,254,-1,254,205,203,-1,254,203,255,-1,255,203,201,-1,255,201,195,-1,195,201,199,-1,195,199,194,-1,194,199,197,-1,256,257,258,-1,258,257,259,-1,257,260,259,-1,259,260,261,-1,260,262,261,-1,261,262,263,-1,264,265,266,-1,266,265,267,-1,266,267,268,-1,268,267,269,-1,268,269,270,-1,270,269,271,-1,270,271,272,-1,272,271,273,-1,272,273,274,-1,274,273,275,-1,274,275,262,-1,262,275,263,-1,264,276,265,-1,265,276,277,-1,278,279,280,-1,278,280,281,-1,281,280,282,-1,281,282,283,-1,283,282,284,-1,283,284,285,-1,285,284,286,-1,285,286,287,-1,287,286,288,-1,287,288,289,-1,289,288,277,-1,289,277,276,-1,278,290,279,-1,279,290,291,-1,292,293,294,-1,294,293,295,-1,296,297,298,-1,298,297,299,-1,298,299,300,-1,300,299,301,-1,300,301,302,-1,302,301,303,-1,302,303,304,-1,304,303,305,-1,304,305,306,-1,306,305,307,-1,306,307,293,-1,293,307,295,-1,296,308,297,-1,297,308,309,-1,260,257,262,-1,262,257,256,-1,262,256,274,-1,274,256,310,-1,274,310,272,-1,272,310,311,-1,272,311,270,-1,270,311,312,-1,270,312,268,-1,268,312,313,-1,268,313,266,-1,266,313,314,-1,266,314,264,-1,264,314,308,-1,264,308,276,-1,276,308,296,-1,276,296,289,-1,289,296,298,-1,289,298,287,-1,287,298,300,-1,287,300,285,-1,285,300,302,-1,285,302,283,-1,283,302,304,-1,283,304,281,-1,281,304,306,-1,281,306,278,-1,278,306,293,-1,278,293,290,-1,290,293,292,-1,256,258,315,-1,256,315,310,-1,310,315,316,-1,310,316,311,-1,311,316,317,-1,311,317,312,-1,312,317,318,-1,312,318,313,-1,313,318,319,-1,313,319,314,-1,314,319,309,-1,314,309,308,-1,291,294,279,-1,279,294,295,-1,279,295,280,-1,280,295,307,-1,280,307,282,-1,282,307,305,-1,282,305,284,-1,284,305,303,-1,284,303,286,-1,286,303,301,-1,286,301,288,-1,288,301,299,-1,288,299,277,-1,277,299,297,-1,277,297,265,-1,265,297,309,-1,265,309,267,-1,267,309,319,-1,267,319,269,-1,269,319,318,-1,269,318,271,-1,271,318,317,-1,271,317,273,-1,273,317,316,-1,273,316,275,-1,275,316,315,-1,275,315,263,-1,263,315,258,-1,263,258,261,-1,261,258,259,-1,320,321,322,-1,322,321,323,-1,321,324,323,-1,323,324,325,-1,324,326,325,-1,325,326,327,-1,328,329,330,-1,330,329,331,-1,330,331,332,-1,332,331,333,-1,332,333,334,-1,334,333,335,-1,334,335,336,-1,336,335,337,-1,336,337,338,-1,338,337,339,-1,338,339,326,-1,326,339,327,-1,328,340,329,-1,329,340,341,-1,342,343,344,-1,342,344,345,-1,345,344,346,-1,345,346,347,-1,347,346,348,-1,347,348,349,-1,349,348,350,-1,349,350,351,-1,351,350,352,-1,351,352,353,-1,353,352,341,-1,353,341,340,-1,342,354,343,-1,343,354,355,-1,356,357,358,-1,358,357,359,-1,360,361,362,-1,362,361,363,-1,362,363,364,-1,364,363,365,-1,364,365,366,-1,366,365,367,-1,366,367,368,-1,368,367,369,-1,368,369,370,-1,370,369,371,-1,370,371,357,-1,357,371,359,-1,360,372,361,-1,361,372,373,-1,324,321,326,-1,326,321,320,-1,326,320,338,-1,338,320,374,-1,338,374,336,-1,336,374,375,-1,336,375,334,-1,334,375,376,-1,334,376,332,-1,332,376,377,-1,332,377,330,-1,330,377,378,-1,330,378,328,-1,328,378,372,-1,328,372,340,-1,340,372,360,-1,340,360,353,-1,353,360,362,-1,353,362,351,-1,351,362,364,-1,351,364,349,-1,349,364,366,-1,349,366,347,-1,347,366,368,-1,347,368,345,-1,345,368,370,-1,345,370,342,-1,342,370,357,-1,342,357,354,-1,354,357,356,-1,320,322,379,-1,320,379,374,-1,374,379,380,-1,374,380,375,-1,375,380,381,-1,375,381,376,-1,376,381,382,-1,376,382,377,-1,377,382,383,-1,377,383,378,-1,378,383,373,-1,378,373,372,-1,355,358,343,-1,343,358,359,-1,343,359,344,-1,344,359,371,-1,344,371,346,-1,346,371,369,-1,346,369,348,-1,348,369,367,-1,348,367,350,-1,350,367,365,-1,350,365,352,-1,352,365,363,-1,352,363,341,-1,341,363,361,-1,341,361,329,-1,329,361,373,-1,329,373,331,-1,331,373,383,-1,331,383,333,-1,333,383,382,-1,333,382,335,-1,335,382,381,-1,335,381,337,-1,337,381,380,-1,337,380,339,-1,339,380,379,-1,339,379,327,-1,327,379,322,-1,327,322,325,-1,325,322,323,-1,384,385,386,-1,386,385,387,-1,385,388,387,-1,387,388,389,-1,388,390,389,-1,389,390,391,-1,392,393,394,-1,394,393,395,-1,394,395,396,-1,396,395,397,-1,396,397,398,-1,398,397,399,-1,398,399,400,-1,400,399,401,-1,400,401,402,-1,402,401,403,-1,402,403,390,-1,390,403,391,-1,392,404,393,-1,393,404,405,-1,406,407,408,-1,406,408,409,-1,409,408,410,-1,409,410,411,-1,411,410,412,-1,411,412,413,-1,413,412,414,-1,413,414,415,-1,415,414,416,-1,415,416,417,-1,417,416,405,-1,417,405,404,-1,406,418,407,-1,407,418,419,-1,420,421,422,-1,422,421,423,-1,424,425,426,-1,426,425,427,-1,426,427,428,-1,428,427,429,-1,428,429,430,-1,430,429,431,-1,430,431,432,-1,432,431,433,-1,432,433,434,-1,434,433,435,-1,434,435,421,-1,421,435,423,-1,424,436,425,-1,425,436,437,-1,388,385,390,-1,390,385,384,-1,390,384,402,-1,402,384,438,-1,402,438,400,-1,400,438,439,-1,400,439,398,-1,398,439,440,-1,398,440,396,-1,396,440,441,-1,396,441,394,-1,394,441,442,-1,394,442,392,-1,392,442,436,-1,392,436,404,-1,404,436,424,-1,404,424,417,-1,417,424,426,-1,417,426,415,-1,415,426,428,-1,415,428,413,-1,413,428,430,-1,413,430,411,-1,411,430,432,-1,411,432,409,-1,409,432,434,-1,409,434,406,-1,406,434,421,-1,406,421,418,-1,418,421,420,-1,384,386,443,-1,384,443,438,-1,438,443,444,-1,438,444,439,-1,439,444,445,-1,439,445,440,-1,440,445,446,-1,440,446,441,-1,441,446,447,-1,441,447,442,-1,442,447,437,-1,442,437,436,-1,419,422,407,-1,407,422,423,-1,407,423,408,-1,408,423,435,-1,408,435,410,-1,410,435,433,-1,410,433,412,-1,412,433,431,-1,412,431,414,-1,414,431,429,-1,414,429,416,-1,416,429,427,-1,416,427,405,-1,405,427,425,-1,405,425,393,-1,393,425,437,-1,393,437,395,-1,395,437,447,-1,395,447,397,-1,397,447,446,-1,397,446,399,-1,399,446,445,-1,399,445,401,-1,401,445,444,-1,401,444,403,-1,403,444,443,-1,403,443,391,-1,391,443,386,-1,391,386,389,-1,389,386,387,-1,448,449,450,-1,450,449,451,-1,449,452,451,-1,451,452,453,-1,452,454,453,-1,453,454,455,-1,456,457,458,-1,458,457,459,-1,458,459,460,-1,460,459,461,-1,460,461,462,-1,462,461,463,-1,462,463,464,-1,464,463,465,-1,464,465,466,-1,466,465,467,-1,466,467,454,-1,454,467,455,-1,456,468,457,-1,457,468,469,-1,470,471,472,-1,470,472,473,-1,473,472,474,-1,473,474,475,-1,475,474,476,-1,475,476,477,-1,477,476,478,-1,477,478,479,-1,479,478,480,-1,479,480,481,-1,481,480,469,-1,481,469,468,-1,470,482,471,-1,471,482,483,-1,484,485,486,-1,486,485,487,-1,488,489,490,-1,490,489,491,-1,490,491,492,-1,492,491,493,-1,492,493,494,-1,494,493,495,-1,494,495,496,-1,496,495,497,-1,496,497,498,-1,498,497,499,-1,498,499,485,-1,485,499,487,-1,488,500,489,-1,489,500,501,-1,452,449,454,-1,454,449,448,-1,454,448,466,-1,466,448,502,-1,466,502,464,-1,464,502,503,-1,464,503,462,-1,462,503,504,-1,462,504,460,-1,460,504,505,-1,460,505,458,-1,458,505,506,-1,458,506,456,-1,456,506,500,-1,456,500,468,-1,468,500,488,-1,468,488,481,-1,481,488,490,-1,481,490,479,-1,479,490,492,-1,479,492,477,-1,477,492,494,-1,477,494,475,-1,475,494,496,-1,475,496,473,-1,473,496,498,-1,473,498,470,-1,470,498,485,-1,470,485,482,-1,482,485,484,-1,448,450,507,-1,448,507,502,-1,502,507,508,-1,502,508,503,-1,503,508,509,-1,503,509,504,-1,504,509,510,-1,504,510,505,-1,505,510,511,-1,505,511,506,-1,506,511,501,-1,506,501,500,-1,483,486,471,-1,471,486,487,-1,471,487,472,-1,472,487,499,-1,472,499,474,-1,474,499,497,-1,474,497,476,-1,476,497,495,-1,476,495,478,-1,478,495,493,-1,478,493,480,-1,480,493,491,-1,480,491,469,-1,469,491,489,-1,469,489,457,-1,457,489,501,-1,457,501,459,-1,459,501,511,-1,459,511,461,-1,461,511,510,-1,461,510,463,-1,463,510,509,-1,463,509,465,-1,465,509,508,-1,465,508,467,-1,467,508,507,-1,467,507,455,-1,455,507,450,-1,455,450,453,-1,453,450,451,-1,
        ]
    }
}
Shape{
    appearance Appearance {
        material  Material 	{
            diffuseColor 1.0 1.0 1.0
            specularColor 0.8784313725490196 0.8784313725490196 0.8784313725490196
            ambientIntensity 1.0
            transparency 0.0
            shininess 0.5
        }
    }
    geometry IndexedFaceSet {
        ccw TRUE
        solid FALSE
        coord DEF co Coordinate {
            point [
                -0.3337 0.0945 0.0787, -0.4105 -0.1024 0.0787, -0.3337 0.0945 0.0709, -0.4105 -0.1024 0.0709, -0.3817 -0.1024 0.0787, -0.3817 -0.1024 0.0709, -0.3618 -0.0471 0.0787, -0.3618 -0.0471 0.0709, -0.2805 -0.0471 0.0787, -0.2805 -0.0471 0.0709, -0.2617 -0.1024 0.0787, -0.2617 -0.1024 0.0709, -0.2329 -0.1024 0.0787, -0.2329 -0.1024 0.0709, -0.3073 0.0945 0.0787, -0.3073 0.0945 0.0709, -0.2871 -0.0255 0.0787, -0.3529 -0.0255 0.0787, -0.3165 0.0567 0.0787, -0.3184 0.0635 0.0787, -0.3196 0.0705 0.0787, -0.3203 0.0705 0.0787, -0.3215 0.0635 0.0787, -0.3233 0.0567 0.0787, -0.2871 -0.0255 0.0709, -0.3529 -0.0255 0.0709, -0.3165 0.0567 0.0709, -0.3184 0.0635 0.0709, -0.3196 0.0705 0.0709, -0.3203 0.0705 0.0709, -0.3215 0.0635 0.0709, -0.3233 0.0567 0.0709, -0.1135 -0.1024 0.0787, -0.06 -0.1024 0.0787, -0.1135 -0.1024 0.0709, -0.06 -0.1024 0.0709, -0.06 0.0945 0.0787, -0.06 0.0945 0.0709, -0.1156 0.0945 0.0787, -0.1156 0.0945 0.0709, -0.2185 -0.0015 0.0787, -0.2185 -0.0015 0.0709, -0.217 0.0171 0.0709, -0.217 0.0171 0.0787, -0.2117 0.0365 0.0709, -0.2117 0.0365 0.0787, -0.2026 0.0534 0.0709, -0.2026 0.0534 0.0787, -0.1887 0.0688 0.0709, -0.1887 0.0688 0.0787, -0.1885 0.069 0.0709, -0.1885 0.069 0.0787, -0.167 0.0834 0.0709, -0.167 0.0834 0.0787, -0.144 0.0914 0.0709, -0.144 0.0914 0.0787, -0.1379 -0.1002 0.0709, -0.1379 -0.1002 0.0787, -0.1606 -0.0935 0.0709, -0.1606 -0.0935 0.0787, -0.1811 -0.0815 0.0709, -0.1811 -0.0815 0.0787, -0.1973 -0.066 0.0709, -0.1973 -0.066 0.0787, -0.2086 -0.0484 0.0709, -0.2086 -0.0484 0.0787, -0.2157 -0.0278 0.0709, -0.2157 -0.0278 0.0787, -0.1789 0.0453 0.0787, -0.1694 0.0554 0.0787, -0.155 0.0647 0.0787, -0.1388 0.0704 0.0787, -0.1155 0.0729 0.0787, -0.0864 0.0729 0.0787, -0.0864 -0.0808 0.0787, -0.1144 -0.0808 0.0787, -0.1351 -0.0788 0.0787, -0.1517 -0.0737 0.0787, -0.1651 -0.0657 0.0787, -0.1762 -0.0548 0.0787, -0.1845 -0.0412 0.0787, -0.1902 -0.0227 0.0787, -0.192 -0.002 0.0787, -0.1904 0.0176 0.0787, -0.1858 0.0331 0.0787, -0.1155 0.0729 0.0709, -0.0864 0.0729 0.0709, -0.1388 0.0704 0.0709, -0.155 0.0647 0.0709, -0.1694 0.0554 0.0709, -0.1789 0.0453 0.0709, -0.1858 0.0331 0.0709, -0.1904 0.0176 0.0709, -0.192 -0.002 0.0709, -0.1902 -0.0227 0.0709, -0.1845 -0.0412 0.0709, -0.1762 -0.0548 0.0709, -0.1651 -0.0657 0.0709, -0.1517 -0.0737 0.0709, -0.1351 -0.0788 0.0709, -0.1144 -0.0808 0.0709, -0.0864 -0.0808 0.0709, -0.0216 -0.0808 0.0787, -0.0216 -0.1024 0.0787, -0.0216 -0.0808 0.0709, -0.0216 -0.1024 0.0709, 0.084 -0.1024 0.0787, 0.084 -0.1024 0.0709, 0.084 0.0945 0.0787, 0.084 0.0945 0.0709, -0.0168 0.0945 0.0787, -0.0168 0.0945 0.0709, -0.0168 0.0729 0.0787, -0.0168 0.0729 0.0709, 0.0576 0.0729 0.0787, 0.0576 0.0729 0.0709, 0.0576 0.0081 0.0787, 0.0576 0.0081 0.0709, -0.012 0.0081 0.0787, -0.012 0.0081 0.0709, -0.012 -0.0135 0.0787, -0.012 -0.0135 0.0709, 0.0576 -0.0135 0.0787, 0.0576 -0.0135 0.0709, 0.0576 -0.0808 0.0787, 0.0576 -0.0808 0.0709, 0.1224 -0.0706 0.0787, 0.1224 -0.0922 0.0787, 0.1224 -0.0706 0.0709, 0.1224 -0.0922 0.0709, 0.1766 -0.1048 0.0787, 0.1766 -0.1048 0.0709, 0.1712 -0.1047 0.0709, 0.1712 -0.1047 0.0787, 0.1434 -0.1008 0.0709, 0.1434 -0.1008 0.0787, 0.2689 -0.0077 0.0787, 0.2689 -0.0077 0.0709, 0.267 -0.0304 0.0709, 0.267 -0.0304 0.0787, 0.261 -0.0513 0.0709, 0.261 -0.0513 0.0787, 0.2506 -0.07 0.0709, 0.2506 -0.07 0.0787, 0.2358 -0.0856 0.0709, 0.2358 -0.0856 0.0787, 0.2199 -0.0957 0.0709, 0.2199 -0.0957 0.0787, 0.2009 -0.1022 0.0709, 0.2009 -0.1022 0.0787, 0.1688 0.0969 0.0787, 0.1688 0.0969 0.0709, 0.1885 0.0953 0.0787, 0.1835 0.0957 0.0709, 0.1885 0.0953 0.0709, 0.2105 0.0889 0.0709, 0.2105 0.0889 0.0787, 0.2292 0.0781 0.0709, 0.2292 0.0781 0.0787, 0.2469 0.0611 0.0709, 0.2469 0.0611 0.0787, 0.2585 0.0427 0.0709, 0.2585 0.0427 0.0787, 0.266 0.0203 0.0709, 0.266 0.0203 0.0787, 0.1514 0.0957 0.0709, 0.1452 0.0953 0.0787, 0.1452 0.0953 0.0709, 0.1224 0.0891 0.0787, 0.1224 0.0891 0.0709, 0.1224 0.0627 0.0787, 0.1224 0.0627 0.0709, 0.1685 0.0753 0.0787, 0.1685 0.0753 0.0709, 0.1446 0.0722 0.0709, 0.1446 0.0722 0.0787, 0.2425 -0.006 0.0787, 0.2425 -0.006 0.0709, 0.2415 0.0093 0.0709, 0.2415 0.0093 0.0787, 0.2363 0.0304 0.0709, 0.2363 0.0304 0.0787, 0.2282 0.0455 0.0709, 0.2282 0.0455 0.0787, 0.2163 0.0587 0.0709, 0.2163 0.0587 0.0787, 0.2026 0.0678 0.0709, 0.2026 0.0678 0.0787, 0.1879 0.0731 0.0709, 0.1879 0.0731 0.0787, 0.173 -0.0832 0.0787, 0.173 -0.0832 0.0709, 0.1913 -0.0811 0.0709, 0.1913 -0.0811 0.0787, 0.2057 -0.0758 0.0709, 0.2057 -0.0758 0.0787, 0.2177 -0.0677 0.0709, 0.2177 -0.0677 0.0787, 0.227 -0.0579 0.0709, 0.227 -0.0579 0.0787, 0.2351 -0.0443 0.0709, 0.2351 -0.0443 0.0787, 0.2405 -0.0273 0.0709, 0.2405 -0.0273 0.0787, 0.126 -0.0725 0.0709, 0.126 -0.0725 0.0787, 0.1468 -0.0803 0.0709, 0.1468 -0.0803 0.0787, 0.2857 -0.0808 0.0787, 0.2857 -0.1024 0.0787, 0.2857 -0.0808 0.0709, 0.2857 -0.1024 0.0709, 0.3865 -0.1024 0.0787, 0.3865 -0.1024 0.0709, 0.3865 0.0945 0.0787, 0.3865 0.0945 0.0709, 0.3601 0.0945 0.0787, 0.3601 0.0945 0.0709, 0.3601 -0.0808 0.0787, 0.3601 -0.0808 0.0709
            ]
        }
        coordIndex [
            0,1,2,-1,2,1,3,-1,1,4,3,-1,3,4,5,-1,4,6,5,-1,5,6,7,-1,6,8,7,-1,7,8,9,-1,8,10,9,-1,9,10,11,-1,10,12,11,-1,11,12,13,-1,12,14,13,-1,13,14,15,-1,14,0,15,-1,15,0,2,-1,16,8,17,-1,17,8,6,-1,18,14,16,-1,16,14,12,-1,16,12,8,-1,8,12,10,-1,18,19,14,-1,14,19,20,-1,14,20,0,-1,0,20,21,-1,0,21,22,-1,22,23,0,-1,0,23,17,-1,0,17,1,-1,1,17,6,-1,1,6,4,-1,16,17,24,-1,24,17,25,-1,18,16,26,-1,26,16,24,-1,18,26,27,-1,18,27,19,-1,19,27,28,-1,19,28,20,-1,21,20,29,-1,29,20,28,-1,21,29,30,-1,21,30,22,-1,22,30,31,-1,22,31,23,-1,17,23,25,-1,25,23,31,-1,32,33,34,-1,34,33,35,-1,33,36,35,-1,35,36,37,-1,36,38,37,-1,37,38,39,-1,40,41,42,-1,40,42,43,-1,43,42,44,-1,43,44,45,-1,45,44,46,-1,45,46,47,-1,47,46,48,-1,47,48,49,-1,49,48,50,-1,49,50,51,-1,51,50,52,-1,51,52,53,-1,53,52,54,-1,53,54,55,-1,55,54,39,-1,55,39,38,-1,32,34,56,-1,32,56,57,-1,57,56,58,-1,57,58,59,-1,59,58,60,-1,59,60,61,-1,61,60,62,-1,61,62,63,-1,63,62,64,-1,63,64,65,-1,65,64,66,-1,65,66,67,-1,67,66,41,-1,67,41,40,-1,45,47,68,-1,68,47,49,-1,68,49,69,-1,69,49,51,-1,69,51,70,-1,70,51,53,-1,70,53,71,-1,71,53,55,-1,71,55,72,-1,72,55,38,-1,72,38,73,-1,73,38,36,-1,73,36,74,-1,74,36,33,-1,74,33,75,-1,75,33,32,-1,75,32,76,-1,76,32,57,-1,76,57,77,-1,77,57,59,-1,77,59,78,-1,78,59,61,-1,78,61,79,-1,79,61,63,-1,79,63,80,-1,80,63,65,-1,80,65,81,-1,81,65,67,-1,81,67,82,-1,82,67,40,-1,82,40,83,-1,83,40,43,-1,83,43,84,-1,84,43,45,-1,84,45,68,-1,72,73,85,-1,85,73,86,-1,72,85,87,-1,72,87,71,-1,71,87,88,-1,71,88,70,-1,70,88,89,-1,70,89,69,-1,69,89,90,-1,69,90,68,-1,68,90,91,-1,68,91,84,-1,84,91,92,-1,84,92,83,-1,83,92,93,-1,83,93,82,-1,82,93,94,-1,82,94,81,-1,81,94,95,-1,81,95,80,-1,80,95,96,-1,80,96,79,-1,79,96,97,-1,79,97,78,-1,78,97,98,-1,78,98,77,-1,77,98,99,-1,77,99,76,-1,76,99,100,-1,76,100,75,-1,74,75,101,-1,101,75,100,-1,73,74,86,-1,86,74,101,-1,102,103,104,-1,104,103,105,-1,103,106,105,-1,105,106,107,-1,106,108,107,-1,107,108,109,-1,108,110,109,-1,109,110,111,-1,110,112,111,-1,111,112,113,-1,112,114,113,-1,113,114,115,-1,114,116,115,-1,115,116,117,-1,116,118,117,-1,117,118,119,-1,118,120,119,-1,119,120,121,-1,120,122,121,-1,121,122,123,-1,122,124,123,-1,123,124,125,-1,124,102,125,-1,125,102,104,-1,106,103,102,-1,102,124,106,-1,106,124,122,-1,106,122,108,-1,112,110,114,-1,114,110,108,-1,114,108,116,-1,116,108,122,-1,116,122,118,-1,118,122,120,-1,126,127,128,-1,128,127,129,-1,130,131,132,-1,130,132,133,-1,133,132,134,-1,133,134,135,-1,135,134,129,-1,135,129,127,-1,136,137,138,-1,136,138,139,-1,139,138,140,-1,139,140,141,-1,141,140,142,-1,141,142,143,-1,143,142,144,-1,143,144,145,-1,145,144,146,-1,145,146,147,-1,147,146,148,-1,147,148,149,-1,149,148,131,-1,149,131,130,-1,150,151,152,-1,152,151,153,-1,153,154,152,-1,152,154,155,-1,152,155,156,-1,156,155,157,-1,156,157,158,-1,158,157,159,-1,158,159,160,-1,160,159,161,-1,160,161,162,-1,162,161,163,-1,162,163,164,-1,164,163,137,-1,164,137,136,-1,151,150,165,-1,165,150,166,-1,165,166,167,-1,167,166,168,-1,167,168,169,-1,168,170,169,-1,169,170,171,-1,172,173,174,-1,172,174,175,-1,175,174,171,-1,175,171,170,-1,176,177,178,-1,176,178,179,-1,179,178,180,-1,179,180,181,-1,181,180,182,-1,181,182,183,-1,183,182,184,-1,183,184,185,-1,185,184,186,-1,185,186,187,-1,187,186,188,-1,187,188,189,-1,189,188,173,-1,189,173,172,-1,190,191,192,-1,190,192,193,-1,193,192,194,-1,193,194,195,-1,195,194,196,-1,195,196,197,-1,197,196,198,-1,197,198,199,-1,199,198,200,-1,199,200,201,-1,201,200,202,-1,201,202,203,-1,203,202,177,-1,203,177,176,-1,126,128,204,-1,126,204,205,-1,205,204,206,-1,205,206,207,-1,207,206,191,-1,207,191,190,-1,193,130,190,-1,190,130,133,-1,190,133,207,-1,207,133,135,-1,207,135,205,-1,205,135,127,-1,205,127,126,-1,170,168,175,-1,175,168,166,-1,175,166,172,-1,172,166,150,-1,172,150,189,-1,189,150,152,-1,189,152,187,-1,187,152,156,-1,187,156,185,-1,185,156,158,-1,185,158,183,-1,183,158,160,-1,183,160,181,-1,181,160,162,-1,181,162,179,-1,179,162,164,-1,179,164,176,-1,176,164,136,-1,176,136,203,-1,203,136,139,-1,203,139,201,-1,201,139,141,-1,201,141,199,-1,199,141,143,-1,199,143,197,-1,197,143,145,-1,197,145,195,-1,195,145,147,-1,195,147,193,-1,193,147,149,-1,193,149,130,-1,208,209,210,-1,210,209,211,-1,209,212,211,-1,211,212,213,-1,212,214,213,-1,213,214,215,-1,214,216,215,-1,215,216,217,-1,216,218,217,-1,217,218,219,-1,218,208,219,-1,219,208,210,-1,216,214,218,-1,218,214,212,-1,218,212,208,-1,208,212,209,-1,
        ]
    }
}
Shape{
    appearance Appearance {
        material  Material 	{
            diffuseColor 0.20784313725490197 0.20784313725490197 0.20784313725490197
            specularColor 0.01568627450980392 0.01568627450980392 0.01568627450980392
            ambientIntensity 0.298
            transparency 0.0
            shininess 0.5
        }
    }
    geometry IndexedFaceSet {
        ccw TRUE
        solid FALSE
        coord DEF co Coordinate {
            point [
                -0.2871 -0.0255 0.0709, -0.3529 -0.0255 0.0709, -0.3165 0.0567 0.0709, -0.3233 0.0567 0.0709, -0.3184 0.0635 0.0709, -0.3215 0.0635 0.0709, -0.3196 0.0705 0.0709, -0.3203 0.0705 0.0709, -0.0864 0.0729 0.0709, -0.0864 -0.0808 0.0709, -0.1155 0.0729 0.0709, -0.1144 -0.0808 0.0709, -0.1351 -0.0788 0.0709, -0.192 -0.002 0.0709, -0.1904 0.0176 0.0709, -0.1858 0.0331 0.0709, -0.1388 0.0704 0.0709, -0.1517 -0.0737 0.0709, -0.1651 -0.0657 0.0709, -0.1762 -0.0548 0.0709, -0.1845 -0.0412 0.0709, -0.1902 -0.0227 0.0709, -0.1789 0.0453 0.0709, -0.1694 0.0554 0.0709, -0.155 0.0647 0.0709
            ]
        }
        coordIndex [
            0,1,2,-1,2,1,3,-1,2,3,4,-1,4,3,5,-1,4,5,6,-1,6,5,7,-1,8,9,10,-1,10,9,11,-1,10,11,12,-1,13,14,10,-1,10,14,15,-1,10,15,16,-1,12,17,10,-1,10,17,18,-1,10,18,19,-1,19,20,10,-1,10,20,21,-1,10,21,13,-1,22,23,15,-1,15,23,24,-1,15,24,16,-1,
        ]
    }
}